<svg width="1866" height="798" viewBox="0 0 1866 798" fill="none" xmlns="http://www.w3.org/2000/svg">
<path fill-rule="evenodd" clip-rule="evenodd" d="M0 682.888V39.3479C100.391 9.87743 206.154 2.56661 309.931 18.1176L351.652 24.3694C538.406 52.3545 728.03 55.6482 915.643 34.1658L1178.76 4.03791C1251.03 -4.23688 1324.18 0.22833 1394.91 17.2306L1397.76 17.9167C1489.46 39.9623 1582.66 55.2598 1676.6 63.6864L1866 80.6768V615.73C1834.34 622.137 1803.31 632.448 1773.66 646.631L1647.02 707.211C1511.39 772.092 1361.98 802.932 1211.74 797.061L525.686 770.251C470.305 768.087 415.163 761.804 360.715 751.454L0 682.888ZM731.912 407.222C733.448 407.926 734.632 408.949 735.464 410.293H757.928C756.904 402.933 753.576 397.11 747.944 392.822C742.376 388.534 735.144 386.389 726.248 386.389C719.272 386.389 713.192 387.861 708.008 390.806C702.824 393.686 698.824 397.749 696.008 402.998C693.256 408.246 691.88 414.23 691.88 420.949C691.88 427.67 693.256 433.654 696.008 438.902C698.824 444.15 702.824 448.246 708.008 451.189C713.256 454.069 719.4 455.509 726.44 455.509C734.376 455.509 740.936 453.717 746.12 450.134C751.304 446.486 755.368 442.134 758.312 437.077V415.766H723.656V430.837H740.648C737.64 434.806 733.672 436.79 728.744 436.79C723.56 436.79 719.72 435.478 717.224 432.853C714.728 430.23 713.48 426.262 713.48 420.949C713.48 416.342 714.6 412.725 716.84 410.102C719.08 407.413 722.248 406.069 726.344 406.069C728.52 406.069 730.376 406.454 731.912 407.222ZM799.875 455.03L803.235 444.758H825.891L829.252 455.03H851.716L826.948 387.061H802.372L777.508 455.03H799.875ZM814.563 409.814L820.708 428.725H808.419L814.563 409.814ZM894.286 430.646L907.054 455.03H930.477L915.693 429.014C920.43 427.478 924.046 424.949 926.542 421.43C929.102 417.91 930.382 413.878 930.382 409.334C930.382 405.11 929.39 401.334 927.406 398.006C925.485 394.613 922.573 391.957 918.669 390.038C914.766 388.053 910.062 387.061 904.557 387.061H872.878V455.03H894.19V430.646H894.286ZM902.638 416.438H894.19V404.918H902.638C904.622 404.918 906.125 405.43 907.149 406.454C908.237 407.478 908.781 408.886 908.781 410.678C908.781 412.662 908.27 414.134 907.245 415.094C906.221 415.99 904.685 416.438 902.638 416.438ZM1000.45 391.381C995.142 388.501 988.934 387.061 981.83 387.061H953.51V455.03H981.83C988.934 455.03 995.142 453.558 1000.45 450.613C1005.83 447.605 1009.96 443.509 1012.84 438.326C1015.72 433.142 1017.16 427.318 1017.16 420.853C1017.16 414.326 1015.72 408.501 1012.84 403.381C1009.96 398.262 1005.83 394.262 1000.45 391.381ZM991.334 432.085C988.518 434.71 984.71 436.022 979.91 436.022H974.822V405.686H979.91C984.71 405.686 988.518 406.998 991.334 409.621C994.15 412.246 995.558 415.99 995.558 420.853C995.558 425.717 994.15 429.462 991.334 432.085ZM1062.49 412.405V404.053H1086.49V387.061H1041.17V455.03H1086.49V438.038H1062.49V428.438H1083.61V412.405H1062.49ZM1154.71 455.03H1176.02V387.061H1154.71V421.814L1132.15 387.061H1110.84V455.03H1132.15V420.853L1154.71 455.03ZM664.105 334.9C663.885 338.479 665.781 341.674 668.686 343.307C670.092 344.224 671.775 344.76 673.594 344.76H685.23C687.298 344.76 689.19 344.067 690.7 342.909C693.226 341.195 694.828 338.235 694.64 334.943L692.96 305.439C694.541 305.598 696.144 305.68 697.767 305.68C724.178 305.68 745.589 284.124 745.589 257.534C745.589 236.987 732.804 219.446 714.805 212.535C715.495 209.768 715.862 206.874 715.862 203.896C715.862 184.088 699.659 168.03 679.672 168.03C659.685 168.03 643.482 184.088 643.482 203.896C643.482 204.699 643.509 205.496 643.561 206.286C621.75 213.447 606 233.974 606 258.181C606 288.34 630.449 312.788 660.608 312.788C662.251 312.788 663.877 312.716 665.483 312.574L664.105 334.9ZM1175.02 312.788C1176.66 312.788 1178.29 312.716 1179.89 312.574L1178.52 334.9C1178.2 340.079 1182.31 344.454 1187.5 344.454H1200.07C1205.24 344.454 1209.35 340.106 1209.05 334.943L1207.19 302.309C1208.27 301.52 1209.32 300.693 1210.34 299.829C1210.95 299.852 1211.56 299.863 1212.18 299.863C1238.59 299.863 1260 278.308 1260 251.718C1260 228.537 1243.73 209.182 1222.05 204.601C1219.27 187.53 1204.34 174.492 1186.33 174.492C1166.61 174.492 1150.58 190.116 1150.15 209.553C1132.49 218.6 1120.41 236.98 1120.41 258.181C1120.41 288.34 1144.86 312.788 1175.02 312.788ZM865.988 192.713C866.24 187.932 870.189 184.186 874.976 184.186H901.808C906.609 184.186 910.565 187.954 910.797 192.749L913.963 257.913H916.599C921.017 257.913 924.599 261.495 924.599 265.913V269.3C924.599 273.719 921.017 277.3 916.599 277.3H914.905L917.678 334.371C917.927 339.507 913.831 343.808 908.688 343.808H867.522C862.365 343.808 858.263 339.484 858.534 334.335L861.536 277.3H842.949L845.721 334.371C845.971 339.507 841.874 343.808 836.732 343.808H795.565C790.409 343.808 786.307 339.484 786.578 334.335L789.58 277.3H782.024C777.605 277.3 774.024 273.719 774.024 269.3V265.913C774.024 261.495 777.605 257.913 782.024 257.913H790.6L794.031 192.713C794.283 187.932 798.232 184.186 803.019 184.186H829.852C834.652 184.186 838.608 187.954 838.841 192.749L842.007 257.913H862.556L865.988 192.713ZM1037.01 184.186C1032.23 184.186 1028.28 187.932 1028.02 192.713L1025.72 236.531H1004.23L1002.1 192.749C1001.87 187.954 997.911 184.186 993.111 184.186H966.278C961.491 184.186 957.542 187.932 957.291 192.713L954.984 236.531H947.462C943.044 236.531 939.462 240.113 939.462 244.531V247.919C939.462 252.337 943.044 255.919 947.462 255.919H953.964L949.837 334.335C949.566 339.484 953.668 343.808 958.824 343.808H999.991C1005.13 343.808 1009.23 339.507 1008.98 334.371L1005.17 255.919H1024.7L1020.57 334.335C1020.3 339.484 1024.4 343.808 1029.56 343.808H1070.72C1075.87 343.808 1079.96 339.507 1079.71 334.371L1075.9 255.919H1082.04C1086.46 255.919 1090.04 252.337 1090.04 247.919V244.531C1090.04 240.113 1086.46 236.531 1082.04 236.531H1074.96L1072.83 192.749C1072.6 187.954 1068.65 184.186 1063.84 184.186H1037.01Z" fill="white"/>
</svg>
