<svg width="2055" height="1500" viewBox="0 0 2055 1500" fill="none" xmlns="http://www.w3.org/2000/svg">
<path fill-rule="evenodd" clip-rule="evenodd" d="M2055 0H0V1101H33.6415L45.2603 880.526C45.5122 875.747 49.4614 872 54.2479 872H140.234C145.034 872 148.99 875.768 149.223 880.563L159.946 1101H201.641L213.26 880.526C213.512 875.747 217.461 872 222.248 872H308.234C313.034 872 316.99 875.768 317.223 880.563L327.946 1101H369.641L381.26 880.526C381.512 875.747 385.461 872 390.248 872H476.234C481.034 872 484.99 875.768 485.223 880.563L495.946 1101H537.641L549.26 880.526C549.512 875.747 553.461 872 558.248 872H644.234C649.034 872 652.99 875.768 653.223 880.563L663.946 1101H705.641L717.26 880.526C717.512 875.747 721.461 872 726.248 872H812.234C817.034 872 820.99 875.768 821.223 880.563L831.946 1101H873.641L885.26 880.526C885.512 875.747 889.461 872 894.248 872H980.234C985.034 872 988.99 875.768 989.223 880.563L999.946 1101H1041.64L1053.26 880.526C1053.51 875.747 1057.46 872 1062.25 872H1148.23C1153.03 872 1156.99 875.768 1157.22 880.563L1167.95 1101H1184C1188.42 1101 1192 1104.58 1192 1109V1138C1192 1142.42 1188.42 1146 1184 1146H1170.14L1174.54 1236.56C1174.79 1241.7 1170.69 1246 1165.55 1246H1043.49C1038.33 1246 1034.23 1241.68 1034.5 1236.53L1039.27 1146H1002.14L1006.54 1236.56C1006.79 1241.7 1002.69 1246 997.552 1246H875.487C870.33 1246 866.228 1241.68 866.499 1236.53L871.27 1146H834.135L838.541 1236.56C838.791 1241.7 834.694 1246 829.552 1246H707.487C702.33 1246 698.228 1241.68 698.499 1236.53L703.27 1146H666.135L670.541 1236.56C670.791 1241.7 666.694 1246 661.552 1246H539.487C534.33 1246 530.228 1241.68 530.499 1236.53L535.27 1146H498.135L502.541 1236.56C502.791 1241.7 498.694 1246 493.552 1246H371.487C366.33 1246 362.228 1241.68 362.499 1236.53L367.27 1146H330.135L334.541 1236.56C334.791 1241.7 330.694 1246 325.552 1246H203.487C198.33 1246 194.228 1241.68 194.499 1236.53L199.27 1146H162.135L166.541 1236.56C166.791 1241.7 162.694 1246 157.552 1246H35.4868C30.3301 1246 26.2279 1241.68 26.4993 1236.53L31.27 1146H0V1500H2055V1016H2018.81L2029.54 1236.56C2029.79 1241.7 2025.69 1246 2020.55 1246H1898.49C1893.33 1246 1889.23 1241.68 1889.5 1236.53L1901.12 1016H1850.81L1861.54 1236.56C1861.79 1241.7 1857.69 1246 1852.55 1246H1730.49C1725.33 1246 1721.23 1241.68 1721.5 1236.53L1733.12 1016H1711C1706.58 1016 1703 1012.42 1703 1008V979C1703 974.582 1706.58 971 1711 971H1735.49L1740.26 880.526C1740.51 875.747 1744.46 872 1749.25 872H1835.23C1840.03 872 1843.99 875.768 1844.22 880.563L1848.62 971H1903.49L1908.26 880.526C1908.51 875.747 1912.46 872 1917.25 872H2003.23C2008.03 872 2011.99 875.768 2012.22 880.563L2016.62 971H2055V0ZM857.76 627.16C859.04 627.747 860.027 628.6 860.72 629.72H879.44C878.587 623.587 875.813 618.733 871.12 615.16C866.48 611.587 860.453 609.8 853.04 609.8C847.227 609.8 842.16 611.027 837.84 613.48C833.52 615.88 830.187 619.267 827.84 623.64C825.547 628.013 824.4 633 824.4 638.6C824.4 644.2 825.547 649.187 827.84 653.56C830.187 657.933 833.52 661.347 837.84 663.8C842.213 666.2 847.333 667.4 853.2 667.4C859.813 667.4 865.28 665.907 869.6 662.92C873.92 659.88 877.307 656.253 879.76 652.04V634.28H850.88V646.84H865.04C862.533 650.147 859.227 651.8 855.12 651.8C850.8 651.8 847.6 650.707 845.52 648.52C843.44 646.333 842.4 643.027 842.4 638.6C842.4 634.76 843.333 631.747 845.2 629.56C847.067 627.32 849.707 626.2 853.12 626.2C854.933 626.2 856.48 626.52 857.76 627.16ZM914.396 667L917.196 658.44H936.076L938.876 667H957.596L936.956 610.36H916.476L895.756 667H914.396ZM926.636 629.32L931.756 645.08H921.516L926.636 629.32ZM993.071 646.68L1003.71 667H1023.23L1010.91 645.32C1014.86 644.04 1017.87 641.933 1019.95 639C1022.08 636.067 1023.15 632.707 1023.15 628.92C1023.15 625.4 1022.32 622.253 1020.67 619.48C1019.07 616.653 1016.64 614.44 1013.39 612.84C1010.14 611.187 1006.22 610.36 1001.63 610.36H975.231V667H992.991V646.68H993.071ZM1000.03 634.84H992.991V625.24H1000.03C1001.68 625.24 1002.94 625.667 1003.79 626.52C1004.7 627.373 1005.15 628.547 1005.15 630.04C1005.15 631.693 1004.72 632.92 1003.87 633.72C1003.02 634.467 1001.74 634.84 1000.03 634.84ZM1081.55 613.96C1077.12 611.56 1071.94 610.36 1066.03 610.36H1042.43V667H1066.03C1071.94 667 1077.12 665.773 1081.55 663.32C1086.03 660.813 1089.46 657.4 1091.86 653.08C1094.27 648.76 1095.46 643.907 1095.46 638.52C1095.46 633.08 1094.27 628.227 1091.86 623.96C1089.46 619.693 1086.03 616.36 1081.55 613.96ZM1073.94 647.88C1071.6 650.067 1068.43 651.16 1064.43 651.16H1060.19V625.88H1064.43C1068.43 625.88 1071.6 626.973 1073.94 629.16C1076.29 631.347 1077.46 634.467 1077.46 638.52C1077.46 642.573 1076.29 645.693 1073.94 647.88ZM1133.24 631.48V624.52H1153.24V610.36H1115.48V667H1153.24V652.84H1133.24V644.84H1150.84V631.48H1133.24ZM1210.09 667H1227.85V610.36H1210.09V639.32L1191.29 610.36H1173.53V667H1191.29V638.52L1210.09 667ZM786.301 559.066C786.071 562.789 788.133 566.097 791.237 567.663C792.568 568.445 794.121 568.896 795.79 568.896H804.226C806.117 568.896 807.86 568.316 809.299 567.332C812.055 565.668 813.837 562.572 813.64 559.109L812.184 533.543C813.605 533.686 815.047 533.759 816.506 533.759C840.252 533.759 859.502 514.379 859.502 490.472C859.502 471.999 848.007 456.228 831.825 450.014C832.446 447.526 832.775 444.925 832.775 442.247C832.775 424.438 818.207 410 800.237 410C782.267 410 767.7 424.438 767.7 442.247C767.7 442.969 767.724 443.686 767.771 444.396C748.161 450.834 734 469.29 734 491.053C734 518.169 755.981 540.15 783.097 540.15C784.574 540.15 786.036 540.085 787.48 539.957L786.301 559.066ZM1245.6 540.15C1247.07 540.15 1248.53 540.085 1249.98 539.957L1248.8 559.066C1248.48 564.245 1252.59 568.621 1257.78 568.621H1267.15C1272.32 568.621 1276.43 564.272 1276.14 559.109L1274.52 530.728C1275.49 530.019 1276.44 529.275 1277.35 528.498C1277.65 528.51 1277.94 528.518 1278.24 528.523C1278.49 528.527 1278.75 528.53 1279 528.53C1302.75 528.53 1322 509.15 1322 485.243C1322 464.401 1307.37 447 1287.88 442.881C1285.39 427.532 1271.96 415.81 1255.76 415.81C1238.04 415.81 1223.62 429.858 1223.23 447.333C1207.36 455.467 1196.5 471.992 1196.5 491.053C1196.5 518.169 1218.48 540.15 1245.6 540.15ZM967.705 433.053C967.957 428.273 971.906 424.526 976.693 424.526H999.09C1003.89 424.526 1007.85 428.294 1008.08 433.089L1010.88 490.813H1012.45C1016.86 490.813 1020.45 494.394 1020.45 498.813V500.244C1020.45 504.662 1016.86 508.244 1012.45 508.244H1011.73L1014.18 558.603C1014.43 563.739 1010.33 568.04 1005.19 568.04H970.087C964.93 568.04 960.828 563.716 961.099 558.567L963.748 508.244H947.037L949.483 558.603C949.733 563.739 945.636 568.04 940.494 568.04H905.392C900.236 568.04 896.134 563.716 896.405 558.567L899.053 508.244H893.067C888.649 508.244 885.067 504.662 885.067 500.244V498.813C885.067 494.394 888.649 490.813 893.067 490.813H899.971L903.011 433.053C903.262 428.273 907.211 424.526 911.998 424.526H934.396C939.197 424.526 943.152 428.294 943.385 433.089L946.19 490.813H964.665L967.705 433.053ZM1122.38 424.526C1117.59 424.526 1113.64 428.273 1113.39 433.053L1111.36 471.589H1092.04L1090.17 433.089C1089.94 428.294 1085.98 424.526 1081.18 424.526H1058.78C1053.99 424.526 1050.05 428.273 1049.79 433.053L1047.77 471.589H1041.81C1037.39 471.589 1033.81 475.171 1033.81 479.589V481.02C1033.81 485.438 1037.39 489.02 1041.81 489.02H1046.85L1043.19 558.567C1042.92 563.716 1047.02 568.04 1052.18 568.04H1087.28C1092.42 568.04 1096.52 563.739 1096.27 558.603L1092.89 489.02H1110.44L1106.78 558.567C1106.51 563.716 1110.61 568.04 1115.77 568.04H1150.87C1156.02 568.04 1160.11 563.739 1159.86 558.603L1156.48 489.02H1161.19C1165.61 489.02 1169.19 485.438 1169.19 481.02V479.589C1169.19 475.171 1165.61 471.589 1161.19 471.589H1155.64L1153.76 433.089C1153.53 428.294 1149.58 424.526 1144.78 424.526H1122.38ZM314.146 1392.76C311.43 1381.71 301.585 1373.88 290.21 1373.72C285.767 1373.66 281.414 1372.41 277.612 1370.11C267.88 1364.22 255.381 1365.64 247.224 1373.57C244.038 1376.67 240.077 1378.86 235.761 1379.93C224.715 1382.64 216.884 1392.49 216.722 1403.86C216.659 1408.3 215.411 1412.66 213.11 1416.46C207.219 1426.19 208.643 1438.69 216.572 1446.85C219.669 1450.03 221.865 1453.99 222.926 1458.31C225.642 1469.36 235.487 1477.19 246.861 1477.35C251.305 1477.41 255.658 1478.66 259.46 1480.96C269.191 1486.85 281.69 1485.43 289.848 1477.5C293.034 1474.4 296.995 1472.21 301.31 1471.15C312.357 1468.43 320.188 1458.58 320.349 1447.21C320.412 1442.77 321.661 1438.41 323.962 1434.61C329.853 1424.88 328.429 1412.38 320.5 1404.22C317.402 1401.04 315.207 1397.08 314.146 1392.76ZM175.099 1328C185.114 1333.39 190.23 1344.88 187.539 1355.94C186.487 1360.26 186.606 1364.78 187.882 1369.04C191.148 1379.94 186.64 1391.68 176.921 1397.59C173.125 1399.9 170.007 1403.19 167.9 1407.1C162.504 1417.11 151.012 1422.23 139.959 1419.54C135.642 1418.49 131.115 1418.61 126.858 1419.88C115.961 1423.15 104.217 1418.64 98.305 1408.92C95.9955 1405.12 92.7105 1402.01 88.7983 1399.9C78.7834 1394.5 73.6667 1383.01 76.3585 1371.96C77.41 1367.64 77.2914 1363.11 76.0154 1358.86C72.7489 1347.96 77.2571 1336.22 86.9759 1330.3C90.7724 1328 93.8897 1324.71 95.9974 1320.8C101.393 1310.78 112.885 1305.67 123.938 1308.36C128.255 1309.41 132.782 1309.29 137.039 1308.02C147.936 1304.75 159.68 1309.26 165.592 1318.98C167.902 1322.77 171.187 1325.89 175.099 1328ZM456.961 1347.2C458.875 1335.98 452.969 1324.88 442.602 1320.19C438.553 1318.36 435.058 1315.48 432.49 1311.85C425.914 1302.57 413.884 1298.89 403.241 1302.91C399.084 1304.48 394.576 1304.92 390.196 1304.17C378.982 1302.25 367.875 1308.16 363.191 1318.53C361.362 1322.58 358.481 1326.07 354.855 1328.64C345.572 1335.22 341.894 1347.25 345.913 1357.89C347.483 1362.05 347.917 1366.55 347.169 1370.93C345.255 1382.15 351.161 1393.25 361.528 1397.94C365.577 1399.77 369.072 1402.65 371.641 1406.27C378.216 1415.56 390.246 1419.24 400.889 1415.22C405.046 1413.65 409.554 1413.21 413.934 1413.96C425.148 1415.87 436.255 1409.97 440.939 1399.6C442.768 1395.55 445.649 1392.06 449.275 1389.49C458.558 1382.91 462.236 1370.88 458.217 1360.24C456.647 1356.08 456.213 1351.58 456.961 1347.2ZM708.303 1322.7C719.477 1324.83 727.813 1334.25 728.569 1345.6C728.865 1350.04 730.339 1354.32 732.836 1358C739.228 1367.41 738.46 1379.96 730.969 1388.52C728.042 1391.87 726.057 1395.94 725.224 1400.3C723.089 1411.48 713.668 1419.81 702.317 1420.57C697.883 1420.86 693.601 1422.34 689.925 1424.84C680.515 1431.23 667.959 1430.46 659.398 1422.97C656.054 1420.04 651.983 1418.06 647.618 1417.22C636.445 1415.09 628.109 1405.67 627.352 1394.32C627.057 1389.88 625.583 1385.6 623.086 1381.93C616.694 1372.52 617.462 1359.96 624.953 1351.4C627.879 1348.05 629.864 1343.98 630.698 1339.62C632.832 1328.44 642.254 1320.11 653.604 1319.35C658.038 1319.06 662.32 1317.58 665.996 1315.09C675.406 1308.69 687.963 1309.46 696.524 1316.95C699.868 1319.88 703.938 1321.86 708.303 1322.7ZM1967.38 1385.06C1971.4 1374.41 1967.73 1362.38 1958.44 1355.81C1954.82 1353.24 1951.94 1349.75 1950.11 1345.7C1945.42 1335.33 1934.32 1329.42 1923.1 1331.34C1918.72 1332.08 1914.21 1331.65 1910.06 1330.08C1899.41 1326.06 1887.38 1329.74 1880.81 1339.02C1878.24 1342.65 1874.75 1345.53 1870.7 1347.36C1860.33 1352.04 1854.42 1363.15 1856.34 1374.36C1857.08 1378.74 1856.65 1383.25 1855.08 1387.41C1851.06 1398.05 1854.74 1410.08 1864.02 1416.66C1867.65 1419.23 1870.53 1422.72 1872.36 1426.77C1877.04 1437.14 1888.15 1443.04 1899.36 1441.13C1903.74 1440.38 1908.25 1440.82 1912.41 1442.38C1923.05 1446.4 1935.08 1442.73 1941.66 1433.44C1944.23 1429.82 1947.72 1426.94 1951.77 1425.11C1962.14 1420.42 1968.04 1409.32 1966.13 1398.1C1965.38 1393.72 1965.81 1389.21 1967.38 1385.06ZM553.282 1375.87C564.617 1376.82 573.892 1385.32 575.831 1396.53C576.588 1400.91 578.502 1405.02 581.37 1408.41C588.71 1417.1 589.259 1429.67 582.704 1438.97C580.143 1442.6 578.594 1446.85 578.221 1451.28C577.267 1462.62 568.768 1471.89 557.559 1473.83C553.18 1474.59 549.076 1476.5 545.681 1479.37C536.99 1486.71 524.423 1487.26 515.125 1480.7C511.494 1478.14 507.238 1476.59 502.81 1476.22C491.474 1475.27 482.2 1466.77 480.261 1455.56C479.503 1451.18 477.589 1447.08 474.722 1443.68C467.381 1434.99 466.833 1422.42 473.388 1413.13C475.949 1409.49 477.498 1405.24 477.87 1400.81C478.825 1389.47 487.324 1380.2 498.533 1378.26C502.912 1377.5 507.016 1375.59 510.411 1372.72C519.101 1365.38 531.669 1364.83 540.966 1371.39C544.598 1373.95 548.854 1375.5 553.282 1375.87ZM1304.42 1009.24C1306.94 1010.18 1309.66 1010.65 1312.57 1010.65C1315.88 1010.65 1318.85 1010.07 1321.48 1008.92C1324.15 1007.77 1326.38 1006.09 1328.18 1003.9L1322.56 998.714C1321.27 1000.23 1319.83 1001.36 1318.24 1002.12C1316.66 1002.84 1314.93 1003.2 1313.06 1003.2C1311.29 1003.2 1309.67 1002.91 1308.2 1002.33C1306.72 1001.76 1305.44 1000.93 1304.36 999.848C1303.28 998.768 1302.44 997.49 1301.83 996.014C1301.25 994.538 1300.96 992.9 1300.96 991.1C1300.96 989.3 1301.25 987.662 1301.83 986.186C1302.44 984.71 1303.28 983.432 1304.36 982.352C1305.44 981.272 1306.72 980.444 1308.2 979.868C1309.67 979.292 1311.29 979.004 1313.06 979.004C1314.93 979.004 1316.66 979.382 1318.24 980.138C1319.83 980.858 1321.27 981.956 1322.56 983.432L1328.18 978.248C1326.38 976.052 1324.15 974.396 1321.48 973.28C1318.85 972.128 1315.9 971.552 1312.63 971.552C1309.67 971.552 1306.96 972.038 1304.47 973.01C1301.99 973.946 1299.81 975.296 1297.94 977.06C1296.1 978.824 1294.66 980.894 1293.62 983.27C1292.61 985.646 1292.11 988.256 1292.11 991.1C1292.11 993.944 1292.61 996.554 1293.62 998.93C1294.66 1001.31 1296.1 1003.38 1297.94 1005.14C1299.77 1006.9 1301.93 1008.27 1304.42 1009.24ZM1357.11 1008.49C1359.52 1009.78 1362.28 1010.43 1365.37 1010.43C1368.43 1010.43 1371.17 1009.78 1373.58 1008.49C1375.99 1007.19 1377.88 1005.43 1379.25 1003.2C1380.62 1000.93 1381.3 998.354 1381.3 995.474C1381.3 992.522 1380.62 989.93 1379.25 987.698C1377.88 985.466 1375.99 983.72 1373.58 982.46C1371.17 981.164 1368.43 980.516 1365.37 980.516C1362.28 980.516 1359.52 981.164 1357.11 982.46C1354.73 983.72 1352.84 985.484 1351.44 987.752C1350.07 989.984 1349.39 992.558 1349.39 995.474C1349.39 998.354 1350.07 1000.93 1351.44 1003.2C1352.84 1005.43 1354.73 1007.19 1357.11 1008.49ZM1369.15 1002.55C1368.04 1003.2 1366.78 1003.52 1365.37 1003.52C1363.97 1003.52 1362.71 1003.2 1361.59 1002.55C1360.48 1001.9 1359.58 1000.98 1358.89 999.794C1358.24 998.57 1357.92 997.13 1357.92 995.474C1357.92 993.782 1358.24 992.342 1358.89 991.154C1359.58 989.966 1360.48 989.048 1361.59 988.4C1362.71 987.752 1363.97 987.428 1365.37 987.428C1366.78 987.428 1368.04 987.752 1369.15 988.4C1370.27 989.048 1371.15 989.966 1371.8 991.154C1372.45 992.342 1372.77 993.782 1372.77 995.474C1372.77 997.13 1372.45 998.57 1371.8 999.794C1371.15 1000.98 1370.27 1001.9 1369.15 1002.55ZM1411.99 980.948H1388.72V1010H1397.09V987.86H1411.99V980.948ZM1422.21 1008.49C1424.62 1009.78 1427.37 1010.43 1430.47 1010.43C1433.53 1010.43 1436.27 1009.78 1438.68 1008.49C1441.09 1007.19 1442.98 1005.43 1444.35 1003.2C1445.72 1000.93 1446.4 998.354 1446.4 995.474C1446.4 992.522 1445.72 989.93 1444.35 987.698C1442.98 985.466 1441.09 983.72 1438.68 982.46C1436.27 981.164 1433.53 980.516 1430.47 980.516C1427.37 980.516 1424.62 981.164 1422.21 982.46C1419.83 983.72 1417.94 985.484 1416.54 987.752C1415.17 989.984 1414.49 992.558 1414.49 995.474C1414.49 998.354 1415.17 1000.93 1416.54 1003.2C1417.94 1005.43 1419.83 1007.19 1422.21 1008.49ZM1434.25 1002.55C1433.13 1003.2 1431.87 1003.52 1430.47 1003.52C1429.07 1003.52 1427.81 1003.2 1426.69 1002.55C1425.57 1001.9 1424.67 1000.98 1423.99 999.794C1423.34 998.57 1423.02 997.13 1423.02 995.474C1423.02 993.782 1423.34 992.342 1423.99 991.154C1424.67 989.966 1425.57 989.048 1426.69 988.4C1427.81 987.752 1429.07 987.428 1430.47 987.428C1431.87 987.428 1433.13 987.752 1434.25 988.4C1435.37 989.048 1436.25 989.966 1436.9 991.154C1437.54 992.342 1437.87 993.782 1437.87 995.474C1437.87 997.13 1437.54 998.57 1436.9 999.794C1436.25 1000.98 1435.37 1001.9 1434.25 1002.55ZM1464.51 1008.81C1466.34 1009.89 1468.48 1010.43 1470.93 1010.43C1473.67 1010.43 1476.12 1009.82 1478.28 1008.6C1480.47 1007.37 1482.2 1005.64 1483.46 1003.41C1484.76 1001.18 1485.4 998.534 1485.4 995.474C1485.4 992.45 1484.76 989.822 1483.46 987.59C1482.2 985.358 1480.47 983.63 1478.28 982.406C1476.12 981.146 1473.67 980.516 1470.93 980.516C1468.38 980.516 1466.18 981.056 1464.34 982.136C1463.38 982.704 1462.53 983.426 1461.81 984.303V980.948H1453.76V1020.48H1462.18V1006.92C1462.87 1007.68 1463.65 1008.31 1464.51 1008.81ZM1473.2 1002.55C1472.12 1003.2 1470.88 1003.52 1469.47 1003.52C1468.07 1003.52 1466.81 1003.2 1465.69 1002.55C1464.58 1001.9 1463.7 1000.98 1463.05 999.794C1462.4 998.57 1462.08 997.13 1462.08 995.474C1462.08 993.782 1462.4 992.342 1463.05 991.154C1463.7 989.966 1464.58 989.048 1465.69 988.4C1466.81 987.752 1468.07 987.428 1469.47 987.428C1470.88 987.428 1472.12 987.752 1473.2 988.4C1474.32 989.048 1475.2 989.966 1475.85 991.154C1476.53 992.342 1476.87 993.782 1476.87 995.474C1476.87 997.13 1476.53 998.57 1475.85 999.794C1475.2 1000.98 1474.32 1001.9 1473.2 1002.55ZM1498.27 1008.49C1500.69 1009.78 1503.44 1010.43 1506.54 1010.43C1509.6 1010.43 1512.33 1009.78 1514.74 1008.49C1517.16 1007.19 1519.05 1005.43 1520.41 1003.2C1521.78 1000.93 1522.47 998.354 1522.47 995.474C1522.47 992.522 1521.78 989.93 1520.41 987.698C1519.05 985.466 1517.16 983.72 1514.74 982.46C1512.33 981.164 1509.6 980.516 1506.54 980.516C1503.44 980.516 1500.69 981.164 1498.27 982.46C1495.9 983.72 1494.01 985.484 1492.6 987.752C1491.24 989.984 1490.55 992.558 1490.55 995.474C1490.55 998.354 1491.24 1000.93 1492.6 1003.2C1494.01 1005.43 1495.9 1007.19 1498.27 1008.49ZM1510.32 1002.55C1509.2 1003.2 1507.94 1003.52 1506.54 1003.52C1505.13 1003.52 1503.87 1003.2 1502.76 1002.55C1501.64 1001.9 1500.74 1000.98 1500.06 999.794C1499.41 998.57 1499.08 997.13 1499.08 995.474C1499.08 993.782 1499.41 992.342 1500.06 991.154C1500.74 989.966 1501.64 989.048 1502.76 988.4C1503.87 987.752 1505.13 987.428 1506.54 987.428C1507.94 987.428 1509.2 987.752 1510.32 988.4C1511.43 989.048 1512.31 989.966 1512.96 991.154C1513.61 992.342 1513.93 993.782 1513.93 995.474C1513.93 997.13 1513.61 998.57 1512.96 999.794C1512.31 1000.98 1511.43 1001.9 1510.32 1002.55ZM1557.86 1003.09H1562.02V1016.26H1554.19V1010H1533.78V1016.26H1525.95V1003.09H1526.92C1527.96 1003.09 1528.81 1002.78 1529.46 1002.17C1530.11 1001.52 1530.61 1000.64 1530.97 999.524C1531.33 998.372 1531.6 997.076 1531.78 995.636C1531.96 994.16 1532.09 992.612 1532.16 990.992L1532.54 980.948H1557.86V1003.09ZM1549.44 1003.09V987.86H1539.93L1539.77 991.586C1539.7 993.134 1539.61 994.61 1539.5 996.014C1539.39 997.418 1539.18 998.696 1538.85 999.848C1538.57 1000.96 1538.13 1001.92 1537.56 1002.71C1537.46 1002.84 1537.35 1002.97 1537.24 1003.09H1549.44ZM1586.33 1006.39V1010H1594.21V993.422C1594.21 988.994 1592.99 985.736 1590.54 983.648C1588.09 981.56 1584.66 980.516 1580.23 980.516C1577.92 980.516 1575.66 980.822 1573.42 981.434C1571.19 982.046 1569.28 982.91 1567.7 984.026L1570.72 989.912C1571.77 989.084 1573.03 988.436 1574.5 987.968C1576.02 987.464 1577.55 987.212 1579.09 987.212C1581.36 987.212 1583.04 987.716 1584.12 988.724C1585.23 989.732 1585.79 991.136 1585.79 992.936H1579.09C1576.14 992.936 1573.75 993.314 1571.91 994.07C1570.08 994.79 1568.73 995.798 1567.86 997.094C1567.03 998.39 1566.62 999.902 1566.62 1001.63C1566.62 1003.29 1567.05 1004.78 1567.92 1006.11C1568.78 1007.44 1570.02 1008.51 1571.64 1009.3C1573.26 1010.05 1575.21 1010.43 1577.47 1010.43C1580.03 1010.43 1582.12 1009.95 1583.74 1008.97C1584.83 1008.32 1585.7 1007.46 1586.33 1006.39ZM1585.79 1000.82V997.85H1580.01C1578.03 997.85 1576.66 998.174 1575.91 998.822C1575.19 999.47 1574.83 1000.28 1574.83 1001.25C1574.83 1002.33 1575.24 1003.2 1576.07 1003.84C1576.93 1004.46 1578.1 1004.76 1579.58 1004.76C1580.98 1004.76 1582.24 1004.44 1583.36 1003.79C1584.48 1003.11 1585.29 1002.12 1585.79 1000.82ZM1322.45 1069.09H1326.61V1082.26H1318.78V1076H1298.37V1082.26H1290.54V1069.09H1291.51C1292.56 1069.09 1293.4 1068.78 1294.05 1068.17C1294.7 1067.52 1295.2 1066.64 1295.56 1065.52C1295.92 1064.37 1296.19 1063.08 1296.37 1061.64C1296.55 1060.16 1296.68 1058.61 1296.75 1056.99L1297.13 1046.95H1322.45V1069.09ZM1314.03 1069.09V1053.86H1304.53L1304.36 1057.59C1304.29 1059.13 1304.2 1060.61 1304.09 1062.01C1303.99 1063.42 1303.77 1064.7 1303.45 1065.85C1303.16 1066.96 1302.73 1067.92 1302.15 1068.71C1302.05 1068.84 1301.94 1068.97 1301.83 1069.09H1314.03ZM1330.29 1069.03L1329.86 1075.95C1330.69 1076.16 1331.46 1076.32 1332.18 1076.43C1332.9 1076.54 1333.59 1076.59 1334.24 1076.59C1336.04 1076.59 1337.51 1076.18 1338.66 1075.35C1339.82 1074.49 1340.73 1073.28 1341.42 1071.73C1342.1 1070.15 1342.59 1068.28 1342.88 1066.12C1343.2 1063.96 1343.42 1061.58 1343.52 1058.99L1343.79 1053.86H1352.97V1076H1361.4V1046.95H1336.56L1336.13 1058.61C1336.05 1059.98 1335.95 1061.29 1335.8 1062.55C1335.69 1063.81 1335.5 1064.95 1335.21 1065.96C1334.92 1066.93 1334.49 1067.7 1333.91 1068.28C1333.34 1068.85 1332.54 1069.14 1331.54 1069.14H1330.94L1330.29 1069.03ZM1389.42 1067.68V1076H1396.93V1046.95H1383.05C1378.8 1046.95 1375.42 1047.87 1372.9 1049.7C1370.42 1051.54 1369.17 1054.18 1369.17 1057.64C1369.17 1060.88 1370.36 1063.36 1372.74 1065.09C1373.52 1065.66 1374.39 1066.13 1375.36 1066.51L1368.74 1076H1377.71L1383.22 1067.68H1389.42ZM1389.42 1062.07V1053.81H1383.21C1381.49 1053.81 1380.14 1054.13 1379.16 1054.78C1378.23 1055.43 1377.76 1056.47 1377.76 1057.91C1377.76 1060.68 1379.54 1062.07 1383.11 1062.07H1389.42ZM1423.56 1046.95V1076H1439.06C1443.05 1076 1446.02 1075.26 1447.97 1073.79C1449.91 1072.31 1450.88 1070.29 1450.88 1067.74C1450.88 1065.25 1450 1063.36 1448.24 1062.07C1447.56 1061.56 1446.74 1061.15 1445.78 1060.84C1446.25 1060.61 1446.69 1060.36 1447.1 1060.07C1449.05 1058.7 1450.02 1056.83 1450.02 1054.45C1450.02 1052.08 1448.99 1050.24 1446.94 1048.95C1444.89 1047.61 1442.05 1046.95 1438.41 1046.95H1423.56ZM1438.36 1070.28H1431.28V1063.85H1438.52C1440.07 1063.85 1441.2 1064.12 1441.92 1064.66C1442.64 1065.16 1443 1065.97 1443 1067.09C1443 1068.17 1442.6 1068.98 1441.81 1069.52C1441.06 1070.02 1439.9 1070.28 1438.36 1070.28ZM1437.65 1058.88H1431.28V1052.67H1437.65C1439.13 1052.67 1440.23 1052.92 1440.95 1053.43C1441.7 1053.93 1442.08 1054.71 1442.08 1055.75C1442.08 1056.76 1441.7 1057.53 1440.95 1058.07C1440.23 1058.61 1439.13 1058.88 1437.65 1058.88ZM1476.16 1072.39V1076H1484.04V1059.42C1484.04 1054.99 1482.82 1051.74 1480.37 1049.65C1477.92 1047.56 1474.49 1046.52 1470.06 1046.52C1467.75 1046.52 1465.49 1046.82 1463.25 1047.43C1461.02 1048.05 1459.11 1048.91 1457.53 1050.03L1460.55 1055.91C1461.6 1055.08 1462.86 1054.44 1464.33 1053.97C1465.85 1053.46 1467.38 1053.21 1468.92 1053.21C1471.19 1053.21 1472.87 1053.72 1473.95 1054.72C1475.06 1055.73 1475.62 1057.14 1475.62 1058.94H1468.92C1465.97 1058.94 1463.58 1059.31 1461.74 1060.07C1459.91 1060.79 1458.56 1061.8 1457.69 1063.09C1456.86 1064.39 1456.45 1065.9 1456.45 1067.63C1456.45 1069.29 1456.88 1070.78 1457.75 1072.11C1458.61 1073.44 1459.85 1074.51 1461.47 1075.3C1463.09 1076.05 1465.04 1076.43 1467.3 1076.43C1469.86 1076.43 1471.95 1075.95 1473.57 1074.97C1474.66 1074.32 1475.52 1073.46 1476.16 1072.39ZM1475.62 1066.82V1063.85H1469.84C1467.86 1063.85 1466.49 1064.17 1465.74 1064.82C1465.02 1065.47 1464.66 1066.28 1464.66 1067.25C1464.66 1068.33 1465.07 1069.2 1465.9 1069.84C1466.76 1070.46 1467.93 1070.76 1469.41 1070.76C1470.81 1070.76 1472.07 1070.44 1473.19 1069.79C1474.31 1069.11 1475.12 1068.12 1475.62 1066.82ZM1510.96 1069.09V1046.95H1519.39V1069.09H1528.94V1046.95H1537.31V1076H1492.98V1046.95H1501.35V1069.09H1510.96ZM1552.47 1074.49C1554.99 1075.78 1557.91 1076.43 1561.22 1076.43C1563.85 1076.43 1566.17 1076.04 1568.19 1075.24C1570.2 1074.42 1571.88 1073.25 1573.21 1071.73L1568.73 1066.87C1567.75 1067.81 1566.67 1068.51 1565.49 1068.98C1564.33 1069.45 1562.98 1069.68 1561.44 1069.68C1559.71 1069.68 1558.2 1069.38 1556.9 1068.76C1555.64 1068.12 1554.65 1067.2 1553.93 1066.01C1553.56 1065.34 1553.29 1064.62 1553.12 1063.85H1575.1C1575.13 1063.49 1575.17 1063.11 1575.21 1062.72C1575.24 1062.28 1575.26 1061.91 1575.26 1061.58C1575.26 1058.45 1574.59 1055.77 1573.26 1053.54C1571.93 1051.27 1570.11 1049.54 1567.81 1048.35C1565.54 1047.13 1562.98 1046.52 1560.14 1046.52C1557.19 1046.52 1554.54 1047.16 1552.2 1048.46C1549.86 1049.72 1548.01 1051.48 1546.64 1053.75C1545.31 1055.98 1544.64 1058.56 1544.64 1061.47C1544.64 1064.35 1545.33 1066.93 1546.69 1069.2C1548.06 1071.43 1549.99 1073.19 1552.47 1074.49ZM1553.02 1058.94C1553.16 1058.04 1553.43 1057.23 1553.82 1056.51C1554.43 1055.35 1555.28 1054.47 1556.36 1053.86C1557.48 1053.21 1558.75 1052.89 1560.19 1052.89C1561.63 1052.89 1562.89 1053.21 1563.97 1053.86C1565.05 1054.47 1565.9 1055.34 1566.51 1056.45C1566.92 1057.19 1567.19 1058.02 1567.33 1058.94H1553.02ZM1606.61 1046.95H1583.34V1076H1591.71V1053.86H1606.61V1046.95ZM1616.83 1074.49C1619.24 1075.78 1622 1076.43 1625.09 1076.43C1628.15 1076.43 1630.89 1075.78 1633.3 1074.49C1635.71 1073.19 1637.6 1071.43 1638.97 1069.2C1640.34 1066.93 1641.02 1064.35 1641.02 1061.47C1641.02 1058.52 1640.34 1055.93 1638.97 1053.7C1637.6 1051.47 1635.71 1049.72 1633.3 1048.46C1630.89 1047.16 1628.15 1046.52 1625.09 1046.52C1622 1046.52 1619.24 1047.16 1616.83 1048.46C1614.45 1049.72 1612.56 1051.48 1611.16 1053.75C1609.79 1055.98 1609.11 1058.56 1609.11 1061.47C1609.11 1064.35 1609.79 1066.93 1611.16 1069.2C1612.56 1071.43 1614.45 1073.19 1616.83 1074.49ZM1628.87 1068.55C1627.76 1069.2 1626.5 1069.52 1625.09 1069.52C1623.69 1069.52 1622.43 1069.2 1621.31 1068.55C1620.2 1067.9 1619.3 1066.98 1618.61 1065.79C1617.96 1064.57 1617.64 1063.13 1617.64 1061.47C1617.64 1059.78 1617.96 1058.34 1618.61 1057.15C1619.3 1055.97 1620.2 1055.05 1621.31 1054.4C1622.43 1053.75 1623.69 1053.43 1625.09 1053.43C1626.5 1053.43 1627.76 1053.75 1628.87 1054.4C1629.99 1055.05 1630.87 1055.97 1631.52 1057.15C1632.17 1058.34 1632.49 1059.78 1632.49 1061.47C1632.49 1063.13 1632.17 1064.57 1631.52 1065.79C1630.87 1066.98 1629.99 1067.9 1628.87 1068.55ZM1299.5 1140.54C1301.95 1141.8 1304.74 1142.43 1307.87 1142.43C1310.93 1142.43 1313.6 1141.8 1315.87 1140.54C1318.13 1139.25 1319.81 1137.43 1320.89 1135.09L1314.35 1131.52C1313.6 1132.93 1312.64 1133.95 1311.49 1134.6C1310.38 1135.21 1309.15 1135.52 1307.82 1135.52C1306.38 1135.52 1305.08 1135.2 1303.93 1134.55C1302.78 1133.9 1301.86 1132.98 1301.18 1131.79C1300.53 1130.61 1300.21 1129.17 1300.21 1127.47C1300.21 1125.78 1300.53 1124.34 1301.18 1123.15C1301.86 1121.97 1302.78 1121.05 1303.93 1120.4C1305.08 1119.75 1306.38 1119.43 1307.82 1119.43C1309.15 1119.43 1310.38 1119.75 1311.49 1120.4C1312.64 1121.05 1313.6 1122.06 1314.35 1123.42L1320.89 1119.91C1319.81 1117.54 1318.13 1115.72 1315.87 1114.46C1313.6 1113.16 1310.93 1112.52 1307.87 1112.52C1304.74 1112.52 1301.95 1113.16 1299.5 1114.46C1297.06 1115.72 1295.13 1117.48 1293.73 1119.75C1292.36 1121.98 1291.67 1124.56 1291.67 1127.47C1291.67 1130.35 1292.36 1132.93 1293.73 1135.2C1295.13 1137.46 1297.06 1139.25 1299.5 1140.54ZM1333.78 1119.86V1142H1342.15V1119.86H1351.98V1112.95H1323.96V1119.86H1333.78ZM1362.23 1140.49C1364.64 1141.78 1367.39 1142.43 1370.49 1142.43C1373.55 1142.43 1376.28 1141.78 1378.7 1140.49C1381.11 1139.19 1383 1137.43 1384.37 1135.2C1385.73 1132.93 1386.42 1130.35 1386.42 1127.47C1386.42 1124.52 1385.73 1121.93 1384.37 1119.7C1383 1117.47 1381.11 1115.72 1378.7 1114.46C1376.28 1113.16 1373.55 1112.52 1370.49 1112.52C1367.39 1112.52 1364.64 1113.16 1362.23 1114.46C1359.85 1115.72 1357.96 1117.48 1356.56 1119.75C1355.19 1121.98 1354.5 1124.56 1354.5 1127.47C1354.5 1130.35 1355.19 1132.93 1356.56 1135.2C1357.96 1137.43 1359.85 1139.19 1362.23 1140.49ZM1374.27 1134.55C1373.15 1135.2 1371.89 1135.52 1370.49 1135.52C1369.08 1135.52 1367.82 1135.2 1366.71 1134.55C1365.59 1133.9 1364.69 1132.98 1364.01 1131.79C1363.36 1130.57 1363.04 1129.13 1363.04 1127.47C1363.04 1125.78 1363.36 1124.34 1364.01 1123.15C1364.69 1121.97 1365.59 1121.05 1366.71 1120.4C1367.82 1119.75 1369.08 1119.43 1370.49 1119.43C1371.89 1119.43 1373.15 1119.75 1374.27 1120.4C1375.38 1121.05 1376.27 1121.97 1376.91 1123.15C1377.56 1124.34 1377.89 1125.78 1377.89 1127.47C1377.89 1129.13 1377.56 1130.57 1376.91 1131.79C1376.27 1132.98 1375.38 1133.9 1374.27 1134.55ZM1390.17 1135.03L1389.74 1141.95C1390.57 1142.16 1391.34 1142.32 1392.06 1142.43C1392.78 1142.54 1393.46 1142.59 1394.11 1142.59C1395.91 1142.59 1397.39 1142.18 1398.54 1141.35C1399.69 1140.49 1400.61 1139.28 1401.29 1137.73C1401.98 1136.15 1402.46 1134.28 1402.75 1132.12C1403.08 1129.96 1403.29 1127.58 1403.4 1124.99L1403.67 1119.86H1412.85V1142H1421.27V1112.95H1396.43L1396 1124.61C1395.93 1125.98 1395.82 1127.29 1395.68 1128.55C1395.57 1129.81 1395.37 1130.95 1395.08 1131.96C1394.8 1132.93 1394.36 1133.7 1393.79 1134.28C1393.21 1134.85 1392.42 1135.14 1391.41 1135.14H1390.82L1390.17 1135.03ZM1448.38 1138.39V1142H1456.27V1125.42C1456.27 1120.99 1455.04 1117.74 1452.59 1115.65C1450.15 1113.56 1446.71 1112.52 1442.28 1112.52C1439.98 1112.52 1437.71 1112.82 1435.48 1113.43C1433.24 1114.05 1431.34 1114.91 1429.75 1116.03L1432.78 1121.91C1433.82 1121.08 1435.08 1120.44 1436.56 1119.97C1438.07 1119.46 1439.6 1119.21 1441.15 1119.21C1443.41 1119.21 1445.09 1119.72 1446.17 1120.72C1447.28 1121.73 1447.84 1123.14 1447.84 1124.94H1441.15C1438.19 1124.94 1435.8 1125.31 1433.96 1126.07C1432.13 1126.79 1430.78 1127.8 1429.91 1129.09C1429.09 1130.39 1428.67 1131.9 1428.67 1133.63C1428.67 1135.29 1429.1 1136.78 1429.97 1138.11C1430.83 1139.44 1432.07 1140.51 1433.69 1141.3C1435.31 1142.05 1437.26 1142.43 1439.53 1142.43C1442.08 1142.43 1444.17 1141.95 1445.79 1140.97C1446.88 1140.32 1447.75 1139.46 1448.38 1138.39ZM1447.84 1132.82V1129.85H1442.06C1440.08 1129.85 1438.72 1130.17 1437.96 1130.82C1437.24 1131.47 1436.88 1132.28 1436.88 1133.25C1436.88 1134.33 1437.29 1135.2 1438.12 1135.84C1438.99 1136.46 1440.16 1136.76 1441.63 1136.76C1443.04 1136.76 1444.3 1136.44 1445.41 1135.79C1446.53 1135.11 1447.34 1134.12 1447.84 1132.82Z" fill="#B0B0B0"/>
</svg>
