<svg width="1882" height="913" viewBox="0 0 1882 913" fill="none" xmlns="http://www.w3.org/2000/svg">
<path fill-rule="evenodd" clip-rule="evenodd" d="M16 461.667V62.544C95.9051 56.8562 176.224 60.7125 255.254 74.0452L321.628 85.2428C506.418 116.418 694.488 123.333 881.069 105.813L1165.58 79.0965C1224.88 73.5282 1284.68 76.5511 1343.11 88.0715C1449.18 108.983 1556.83 120.902 1664.9 123.703L1882 129.329V390.077H1641L1588.19 397.498C1474.94 413.413 1387.05 504.351 1375 618.077C1366.55 707.558 1296.62 778.911 1207.32 789.162L803 835.577L209.912 896.576C142.293 903.53 83.5 850.474 83.5 782.498C83.5 775.241 84.3238 768.007 85.9557 760.936L113.5 641.577C135.047 557.004 84.0193 485.365 16 461.667ZM747.912 495.799C749.448 496.503 750.632 497.527 751.464 498.87H773.928C772.904 491.511 769.576 485.687 763.944 481.399C758.376 477.11 751.144 474.967 742.248 474.967C735.272 474.967 729.192 476.438 724.008 479.383C718.824 482.263 714.824 486.326 712.008 491.575C709.256 496.823 707.88 502.807 707.88 509.527C707.88 516.247 709.256 522.231 712.008 527.479C714.824 532.727 718.824 536.823 724.008 539.766C729.256 542.647 735.4 544.087 742.44 544.087C750.376 544.087 756.936 542.295 762.12 538.711C767.304 535.063 771.368 530.711 774.312 525.654V504.343H739.656V519.415H756.648C753.64 523.383 749.672 525.367 744.744 525.367C739.56 525.367 735.72 524.055 733.224 521.43C730.728 518.807 729.48 514.839 729.48 509.527C729.48 504.919 730.6 501.303 732.84 498.679C735.08 495.99 738.248 494.647 742.344 494.647C744.52 494.647 746.376 495.031 747.912 495.799ZM815.875 543.607L819.235 533.335H841.891L845.252 543.607H867.716L842.948 475.639H818.372L793.508 543.607H815.875ZM830.563 498.391L836.708 517.303H824.419L830.563 498.391ZM910.286 519.223L923.054 543.607H946.477L931.693 517.591C936.43 516.055 940.046 513.527 942.542 510.007C945.102 506.487 946.382 502.455 946.382 497.911C946.382 493.687 945.39 489.911 943.406 486.583C941.485 483.191 938.573 480.535 934.669 478.615C930.766 476.631 926.062 475.639 920.557 475.639H888.878V543.607H910.19V519.223H910.286ZM918.638 505.015H910.19V493.495H918.638C920.622 493.495 922.125 494.007 923.149 495.031C924.237 496.055 924.781 497.463 924.781 499.255C924.781 501.239 924.27 502.711 923.245 503.671C922.221 504.567 920.685 505.015 918.638 505.015ZM1016.45 479.959C1011.14 477.079 1004.93 475.639 997.83 475.639H969.51V543.607H997.83C1004.93 543.607 1011.14 542.135 1016.45 539.191C1021.83 536.183 1025.96 532.087 1028.84 526.903C1031.72 521.719 1033.16 515.895 1033.16 509.43C1033.16 502.903 1031.72 497.079 1028.84 491.959C1025.96 486.839 1021.83 482.839 1016.45 479.959ZM1007.33 520.662C1004.52 523.287 1000.71 524.599 995.91 524.599H990.822V494.263H995.91C1000.71 494.263 1004.52 495.575 1007.33 498.199C1010.15 500.823 1011.56 504.567 1011.56 509.43C1011.56 514.295 1010.15 518.039 1007.33 520.662ZM1078.49 500.982V492.631H1102.49V475.639H1057.17V543.607H1102.49V526.615H1078.49V517.015H1099.61V500.982H1078.49ZM1170.71 543.607H1192.02V475.639H1170.71V510.391L1148.15 475.639H1126.84V543.607H1148.15V509.43L1170.71 543.607ZM680.105 423.477C679.885 427.056 681.781 430.251 684.687 431.884C686.092 432.801 687.775 433.337 689.594 433.337H701.23C703.298 433.337 705.19 432.644 706.699 431.486C709.226 429.773 710.828 426.812 710.64 423.52L708.96 394.016C710.541 394.175 712.144 394.257 713.767 394.257C740.178 394.257 761.589 372.701 761.589 346.111C761.589 325.564 748.804 308.023 730.805 301.112C731.495 298.345 731.862 295.451 731.862 292.473C731.862 272.665 715.659 256.607 695.672 256.607C675.685 256.607 659.482 272.665 659.482 292.473C659.482 293.276 659.509 294.073 659.561 294.863C637.75 302.024 622 322.551 622 346.758C622 376.917 646.449 401.365 676.608 401.365C678.251 401.365 679.877 401.293 681.483 401.151L680.105 423.477ZM1191.02 401.365C1192.66 401.365 1194.29 401.293 1195.89 401.151L1194.52 423.477C1194.2 428.656 1198.31 433.031 1203.5 433.031H1216.07C1221.24 433.031 1225.35 428.683 1225.05 423.52L1223.19 390.886C1224.27 390.097 1225.32 389.27 1226.34 388.406C1226.66 388.418 1226.99 388.427 1227.31 388.433C1227.6 388.438 1227.89 388.441 1228.18 388.441C1254.59 388.441 1276 366.885 1276 340.295C1276 317.114 1259.73 297.759 1238.05 293.178C1235.27 276.107 1220.34 263.069 1202.33 263.069C1182.61 263.069 1166.58 278.693 1166.15 298.13C1148.49 307.177 1136.41 325.557 1136.41 346.758C1136.41 376.917 1160.86 401.365 1191.02 401.365ZM881.988 281.29C882.24 276.51 886.189 272.763 890.976 272.763H917.808C922.609 272.763 926.565 276.531 926.797 281.326L929.963 346.49H932.599C937.017 346.49 940.599 350.072 940.599 354.49V357.877C940.599 362.296 937.017 365.877 932.599 365.877H930.905L933.678 422.948C933.927 428.084 929.831 432.385 924.688 432.385H883.522C878.365 432.385 874.263 428.061 874.534 422.912L877.536 365.877H858.949L861.721 422.948C861.971 428.084 857.874 432.385 852.732 432.385H811.565C806.409 432.385 802.307 428.061 802.578 422.912L805.58 365.877H798.024C793.605 365.877 790.024 362.296 790.024 357.877V354.49C790.024 350.072 793.605 346.49 798.024 346.49H806.6L810.031 281.29C810.283 276.51 814.232 272.763 819.019 272.763H845.852C850.652 272.763 854.608 276.531 854.841 281.326L858.007 346.49H878.556L881.988 281.29ZM1053.01 272.763C1048.23 272.763 1044.28 276.51 1044.02 281.29L1041.72 325.109H1020.23L1018.1 281.326C1017.87 276.531 1013.91 272.763 1009.11 272.763H982.278C977.491 272.763 973.542 276.51 973.291 281.29L970.984 325.109H963.462C959.044 325.109 955.462 328.69 955.462 333.109V336.496C955.462 340.914 959.044 344.496 963.462 344.496H969.964L965.837 422.912C965.566 428.061 969.668 432.385 974.824 432.385H1015.99C1021.13 432.385 1025.23 428.084 1024.98 422.948L1021.17 344.496H1040.7L1036.57 422.912C1036.3 428.061 1040.4 432.385 1045.56 432.385H1086.72C1091.87 432.385 1095.96 428.084 1095.71 422.948L1091.9 344.496H1098.04C1102.46 344.496 1106.04 340.914 1106.04 336.496V333.109C1106.04 328.69 1102.46 325.109 1098.04 325.109H1090.96L1088.83 281.326C1088.6 276.531 1084.65 272.763 1079.84 272.763H1053.01ZM214.752 697.345C211.296 697.345 208.075 696.79 205.088 695.681C202.144 694.529 199.584 692.908 197.408 690.817C195.232 688.726 193.525 686.273 192.288 683.457C191.093 680.641 190.496 677.548 190.496 674.177C190.496 670.806 191.093 667.713 192.288 664.897C193.525 662.081 195.232 659.628 197.408 657.537C199.627 655.446 202.208 653.846 205.152 652.737C208.096 651.585 211.317 651.009 214.816 651.009C218.699 651.009 222.197 651.692 225.312 653.057C228.469 654.38 231.115 656.342 233.248 658.945L226.592 665.089C225.056 663.34 223.349 662.038 221.472 661.185C219.595 660.289 217.547 659.841 215.328 659.841C213.237 659.841 211.317 660.182 209.568 660.865C207.819 661.548 206.304 662.529 205.024 663.809C203.744 665.089 202.741 666.604 202.016 668.353C201.333 670.102 200.992 672.044 200.992 674.177C200.992 676.31 201.333 678.252 202.016 680.001C202.741 681.75 203.744 683.265 205.024 684.545C206.304 685.825 207.819 686.806 209.568 687.489C211.317 688.172 213.237 688.513 215.328 688.513C217.547 688.513 219.595 688.086 221.472 687.233C223.349 686.337 225.056 684.993 226.592 683.201L233.248 689.345C231.115 691.948 228.469 693.932 225.312 695.297C222.197 696.662 218.677 697.345 214.752 697.345ZM277.331 697.089C273.661 697.089 270.397 696.321 267.538 694.785C264.723 693.249 262.482 691.158 260.818 688.513C259.197 685.825 258.386 682.774 258.386 679.361C258.386 675.905 259.197 672.854 260.818 670.209C262.482 667.521 264.723 665.43 267.538 663.937C270.397 662.401 273.661 661.633 277.331 661.633C280.957 661.633 284.2 662.401 287.059 663.937C289.917 665.43 292.157 667.5 293.779 670.145C295.4 672.79 296.211 675.862 296.211 679.361C296.211 682.774 295.4 685.825 293.779 688.513C292.157 691.158 289.917 693.249 287.059 694.785C284.2 696.321 280.957 697.089 277.331 697.089ZM277.331 688.897C278.995 688.897 280.488 688.513 281.81 687.745C283.133 686.977 284.178 685.889 284.947 684.481C285.715 683.03 286.099 681.324 286.099 679.361C286.099 677.356 285.715 675.649 284.947 674.241C284.178 672.833 283.133 671.745 281.81 670.977C280.488 670.209 278.995 669.825 277.331 669.825C275.667 669.825 274.173 670.209 272.85 670.977C271.528 671.745 270.461 672.833 269.65 674.241C268.882 675.649 268.499 677.356 268.499 679.361C268.499 681.324 268.882 683.03 269.65 684.481C270.461 685.889 271.528 686.977 272.85 687.745C274.173 688.513 275.667 688.897 277.331 688.897ZM304.997 662.145H332.582V670.337H314.918V696.577H304.997V662.145ZM354.483 697.089C350.814 697.089 347.55 696.321 344.691 694.785C341.875 693.249 339.635 691.158 337.971 688.513C336.35 685.825 335.539 682.774 335.539 679.361C335.539 675.905 336.35 672.854 337.971 670.209C339.635 667.521 341.875 665.43 344.691 663.937C347.55 662.401 350.814 661.633 354.483 661.633C358.11 661.633 361.352 662.401 364.211 663.937C367.07 665.43 369.31 667.5 370.931 670.145C372.552 672.79 373.363 675.862 373.363 679.361C373.363 682.774 372.552 685.825 370.931 688.513C369.31 691.158 367.07 693.249 364.211 694.785C361.352 696.321 358.11 697.089 354.483 697.089ZM354.483 688.897C356.147 688.897 357.64 688.513 358.963 687.745C360.286 686.977 361.331 685.889 362.099 684.481C362.867 683.03 363.251 681.324 363.251 679.361C363.251 677.356 362.867 675.649 362.099 674.241C361.331 672.833 360.286 671.745 358.963 670.977C357.64 670.209 356.147 669.825 354.483 669.825C352.819 669.825 351.326 670.209 350.003 670.977C348.68 671.745 347.614 672.833 346.803 674.241C346.035 675.649 345.651 677.356 345.651 679.361C345.651 681.324 346.035 683.03 346.803 684.481C347.614 685.889 348.68 686.977 350.003 687.745C351.326 688.513 352.819 688.897 354.483 688.897ZM402.438 697.089C399.537 697.089 396.998 696.449 394.822 695.169C393.801 694.569 392.884 693.823 392.07 692.932V708.993H382.086V662.145H391.622V666.121C392.483 665.082 393.486 664.226 394.63 663.553C396.806 662.273 399.409 661.633 402.438 661.633C405.681 661.633 408.582 662.38 411.142 663.873C413.745 665.324 415.793 667.372 417.286 670.017C418.822 672.662 419.59 675.777 419.59 679.361C419.59 682.988 418.822 686.124 417.286 688.769C415.793 691.414 413.745 693.462 411.142 694.913C408.582 696.364 405.681 697.089 402.438 697.089ZM400.71 688.897C402.374 688.897 403.846 688.513 405.126 687.745C406.449 686.977 407.494 685.889 408.262 684.481C409.073 683.03 409.478 681.324 409.478 679.361C409.478 677.356 409.073 675.649 408.262 674.241C407.494 672.833 406.449 671.745 405.126 670.977C403.846 670.209 402.374 669.825 400.71 669.825C399.046 669.825 397.553 670.209 396.23 670.977C394.907 671.745 393.862 672.833 393.094 674.241C392.326 675.649 391.942 677.356 391.942 679.361C391.942 681.324 392.326 683.03 393.094 684.481C393.862 685.889 394.907 686.977 396.23 687.745C397.553 688.513 399.046 688.897 400.71 688.897ZM444.635 697.089C440.966 697.089 437.702 696.321 434.844 694.785C432.027 693.249 429.788 691.158 428.124 688.513C426.502 685.825 425.691 682.774 425.691 679.361C425.691 675.905 426.502 672.854 428.124 670.209C429.788 667.521 432.027 665.43 434.844 663.937C437.702 662.401 440.966 661.633 444.635 661.633C448.262 661.633 451.505 662.401 454.363 663.937C457.222 665.43 459.462 667.5 461.083 670.145C462.705 672.79 463.516 675.862 463.516 679.361C463.516 682.774 462.705 685.825 461.083 688.513C459.462 691.158 457.222 693.249 454.363 694.785C451.505 696.321 448.262 697.089 444.635 697.089ZM444.635 688.897C446.299 688.897 447.793 688.513 449.116 687.745C450.438 686.977 451.484 685.889 452.251 684.481C453.02 683.03 453.404 681.324 453.404 679.361C453.404 677.356 453.02 675.649 452.251 674.241C451.484 672.833 450.438 671.745 449.116 670.977C447.793 670.209 446.299 669.825 444.635 669.825C442.971 669.825 441.478 670.209 440.156 670.977C438.833 671.745 437.766 672.833 436.956 674.241C436.188 675.649 435.803 677.356 435.803 679.361C435.803 681.324 436.188 683.03 436.956 684.481C437.766 685.889 438.833 686.977 440.156 687.745C441.478 688.513 442.971 688.897 444.635 688.897ZM510.395 688.385H505.466V662.145H475.451L475.003 674.049C474.917 675.969 474.768 677.804 474.555 679.553C474.341 681.26 474.021 682.796 473.595 684.161C473.168 685.484 472.57 686.529 471.802 687.297C471.035 688.022 470.032 688.385 468.794 688.385H467.643V704.001H476.923V696.577H501.115V704.001H510.395V688.385ZM495.483 670.337V688.385H481.02C481.155 688.244 481.282 688.095 481.402 687.937C482.085 686.998 482.597 685.868 482.939 684.545C483.323 683.18 483.578 681.665 483.707 680.001C483.835 678.337 483.941 676.588 484.026 674.753L484.219 670.337H495.483ZM539.206 696.577V692.298C538.454 693.562 537.43 694.583 536.133 695.361C534.214 696.513 531.739 697.089 528.709 697.089C526.021 697.089 523.717 696.641 521.797 695.745C519.877 694.806 518.405 693.548 517.382 691.969C516.357 690.39 515.845 688.62 515.845 686.657C515.845 684.609 516.336 682.817 517.317 681.281C518.341 679.745 519.941 678.55 522.117 677.697C524.293 676.801 527.131 676.353 530.63 676.353H538.565C538.565 674.22 537.904 672.556 536.581 671.361C535.302 670.166 533.318 669.569 530.63 669.569C528.795 669.569 526.981 669.868 525.189 670.465C523.44 671.02 521.947 671.788 520.709 672.769L517.125 665.793C519.003 664.47 521.264 663.446 523.909 662.721C526.555 661.996 529.243 661.633 531.974 661.633C537.221 661.633 541.296 662.87 544.198 665.345C547.099 667.82 548.549 671.681 548.549 676.929V696.577H539.206ZM538.565 682.177V685.697C537.968 687.233 537.008 688.406 535.685 689.217C534.363 689.985 532.87 690.369 531.206 690.369C529.456 690.369 528.069 690.006 527.045 689.281C526.064 688.513 525.573 687.489 525.573 686.209C525.573 685.057 526 684.097 526.853 683.329C527.749 682.561 529.371 682.177 531.717 682.177H538.565ZM617.78 688.385H612.852V662.145H582.836L582.388 674.049C582.302 675.969 582.153 677.804 581.94 679.553C581.726 681.26 581.406 682.796 580.979 684.161C580.553 685.484 579.956 686.529 579.188 687.297C578.419 688.022 577.417 688.385 576.18 688.385H575.028V704.001H584.307V696.577H608.5V704.001H617.78V688.385ZM602.867 670.337V688.385H588.405C588.502 688.283 588.596 688.177 588.686 688.065C588.721 688.023 588.754 687.98 588.788 687.937C589.47 686.998 589.982 685.868 590.323 684.545C590.708 683.18 590.964 681.665 591.091 680.001C591.219 678.337 591.326 676.588 591.411 674.753L591.604 670.337H602.867ZM621.63 696.513L622.143 688.321L622.911 688.449H623.615C624.809 688.449 625.748 688.108 626.43 687.425C627.113 686.742 627.625 685.825 627.966 684.673C628.308 683.478 628.542 682.134 628.67 680.641C628.841 679.148 628.969 677.59 629.055 675.969L629.566 662.145H659.006V696.577H649.023V670.337H638.138L637.823 676.417C637.695 679.489 637.438 682.305 637.055 684.865C636.713 687.425 636.137 689.644 635.326 691.521C634.516 693.356 633.428 694.785 632.062 695.809C630.697 696.79 628.948 697.281 626.815 697.281C626.047 697.281 625.236 697.217 624.383 697.089C623.529 696.961 622.612 696.769 621.63 696.513ZM692.224 696.577V686.721H684.874L678.336 696.577H667.711L675.556 685.331C674.406 684.88 673.369 684.319 672.448 683.649C669.632 681.601 668.224 678.657 668.224 674.817C668.224 670.721 669.695 667.585 672.64 665.409C675.626 663.233 679.637 662.145 684.672 662.145H701.12V696.577H692.224ZM692.224 670.273V680.065H684.736C680.512 680.065 678.4 678.422 678.4 675.137C678.4 673.43 678.954 672.193 680.064 671.425C681.216 670.657 682.815 670.273 684.864 670.273H692.224ZM732.68 662.145H750.28C754.589 662.145 757.96 662.934 760.392 664.513C762.824 666.049 764.04 668.225 764.04 671.041C764.04 673.857 762.888 676.076 760.584 677.697C760.096 678.038 759.573 678.342 759.016 678.609C760.152 678.975 761.122 679.461 761.928 680.065C764.019 681.601 765.064 683.841 765.064 686.785C765.064 689.814 763.912 692.204 761.608 693.953C759.304 695.702 755.784 696.577 751.048 696.577H732.68V662.145ZM741.832 689.793H750.216C752.051 689.793 753.416 689.494 754.312 688.897C755.251 688.257 755.72 687.297 755.72 686.017C755.72 684.694 755.293 683.734 754.44 683.137C753.587 682.497 752.243 682.177 750.408 682.177H741.832V689.793ZM741.832 676.289H749.384C751.133 676.289 752.435 675.969 753.288 675.329C754.184 674.689 754.632 673.772 754.632 672.577C754.632 671.34 754.184 670.422 753.288 669.825C752.435 669.228 751.133 668.929 749.384 668.929H741.832V676.289ZM795.021 696.577V692.298C794.269 693.562 793.245 694.583 791.948 695.361C790.029 696.513 787.554 697.089 784.524 697.089C781.836 697.089 779.532 696.641 777.612 695.745C775.693 694.806 774.22 693.548 773.196 691.969C772.172 690.39 771.66 688.62 771.66 686.657C771.66 684.609 772.151 682.817 773.133 681.281C774.156 679.745 775.756 678.55 777.932 677.697C780.108 676.801 782.946 676.353 786.444 676.353H794.38C794.38 674.22 793.719 672.556 792.396 671.361C791.117 670.166 789.133 669.569 786.444 669.569C784.61 669.569 782.797 669.868 781.005 670.465C779.255 671.02 777.762 671.788 776.524 672.769L772.94 665.793C774.818 664.47 777.079 663.446 779.724 662.721C782.37 661.996 785.058 661.633 787.789 661.633C793.036 661.633 797.111 662.87 800.013 665.345C802.914 667.82 804.365 671.681 804.365 676.929V696.577H795.021ZM794.38 682.177V685.697C793.783 687.233 792.823 688.406 791.5 689.217C790.178 689.985 788.685 690.369 787.021 690.369C785.271 690.369 783.884 690.006 782.86 689.281C781.879 688.513 781.388 687.489 781.388 686.209C781.388 685.057 781.815 684.097 782.669 683.329C783.565 682.561 785.186 682.177 787.532 682.177H794.38ZM836.269 662.145V688.385H824.877V662.145H814.957V696.577H867.501V662.145H857.581V688.385H846.253V662.145H836.269ZM895.835 697.089C891.909 697.089 888.453 696.321 885.466 694.785C882.523 693.249 880.24 691.158 878.619 688.513C876.997 685.825 876.187 682.774 876.187 679.361C876.187 675.905 876.976 672.854 878.555 670.209C880.176 667.521 882.373 665.43 885.146 663.937C887.92 662.401 891.056 661.633 894.555 661.633C897.925 661.633 900.955 662.358 903.643 663.809C906.373 665.217 908.528 667.265 910.107 669.953C911.685 672.598 912.474 675.777 912.474 679.489C912.474 679.873 912.453 680.321 912.411 680.833C912.368 681.302 912.325 681.75 912.283 682.177H886.231C886.432 683.094 886.753 683.947 887.195 684.737C888.048 686.145 889.221 687.233 890.715 688.001C892.25 688.726 894.043 689.089 896.091 689.089C897.925 689.089 899.525 688.812 900.891 688.257C902.299 687.702 903.578 686.87 904.731 685.761L910.043 691.521C908.464 693.313 906.48 694.7 904.091 695.681C901.701 696.62 898.949 697.089 895.835 697.089ZM887.067 673.473C886.599 674.326 886.281 675.286 886.115 676.353H903.072C902.91 675.268 902.588 674.287 902.107 673.409C901.381 672.086 900.379 671.062 899.099 670.337C897.819 669.569 896.325 669.185 894.619 669.185C892.912 669.185 891.397 669.569 890.075 670.337C888.794 671.062 887.792 672.108 887.067 673.473ZM922.047 662.145H949.631V670.337H931.967V696.577H922.047V662.145ZM971.533 697.089C967.864 697.089 964.6 696.321 961.741 694.785C958.925 693.249 956.685 691.158 955.021 688.513C953.4 685.825 952.589 682.774 952.589 679.361C952.589 675.905 953.4 672.854 955.021 670.209C956.685 667.521 958.925 665.43 961.741 663.937C964.6 662.401 967.864 661.633 971.533 661.633C975.16 661.633 978.402 662.401 981.261 663.937C984.12 665.43 986.36 667.5 987.981 670.145C989.602 672.79 990.413 675.862 990.413 679.361C990.413 682.774 989.602 685.825 987.981 688.513C986.36 691.158 984.12 693.249 981.261 694.785C978.402 696.321 975.16 697.089 971.533 697.089ZM971.533 688.897C973.197 688.897 974.69 688.513 976.013 687.745C977.336 686.977 978.381 685.889 979.149 684.481C979.917 683.03 980.301 681.324 980.301 679.361C980.301 677.356 979.917 675.649 979.149 674.241C978.381 672.833 977.336 671.745 976.013 670.977C974.69 670.209 973.197 669.825 971.533 669.825C969.869 669.825 968.376 670.209 967.053 670.977C965.73 671.745 964.664 672.833 963.853 674.241C963.085 675.649 962.701 677.356 962.701 679.361C962.701 681.324 963.085 683.03 963.853 684.481C964.664 685.889 965.73 686.977 967.053 687.745C968.376 688.513 969.869 688.897 971.533 688.897ZM209.184 775.089C205.472 775.089 202.165 774.342 199.264 772.849C196.363 771.313 194.08 769.201 192.416 766.513C190.795 763.825 189.984 760.774 189.984 757.361C189.984 753.905 190.795 750.854 192.416 748.209C194.08 745.521 196.363 743.43 199.264 741.937C202.165 740.401 205.472 739.633 209.184 739.633C212.811 739.633 215.968 740.401 218.656 741.937C221.344 743.43 223.328 745.585 224.608 748.401L216.864 752.561C215.968 750.94 214.837 749.745 213.472 748.977C212.149 748.209 210.699 747.825 209.12 747.825C207.413 747.825 205.877 748.209 204.512 748.977C203.147 749.745 202.059 750.833 201.248 752.241C200.48 753.649 200.096 755.356 200.096 757.361C200.096 759.366 200.48 761.073 201.248 762.481C202.059 763.889 203.147 764.977 204.512 765.745C205.877 766.513 207.413 766.897 209.12 766.897C210.699 766.897 212.149 766.534 213.472 765.809C214.837 765.041 215.968 763.825 216.864 762.161L224.608 766.385C223.328 769.158 221.344 771.313 218.656 772.849C215.968 774.342 212.811 775.089 209.184 775.089ZM239.893 774.577V748.337H228.244V740.145H261.46V748.337H249.812V774.577H239.893ZM283.393 775.089C279.724 775.089 276.46 774.321 273.601 772.785C270.785 771.249 268.545 769.158 266.881 766.513C265.26 763.825 264.449 760.774 264.449 757.361C264.449 753.905 265.26 750.854 266.881 748.209C268.545 745.521 270.785 743.43 273.601 741.937C276.46 740.401 279.724 739.633 283.393 739.633C287.02 739.633 290.262 740.401 293.121 741.937C295.98 743.43 298.22 745.5 299.841 748.145C301.462 750.79 302.273 753.862 302.273 757.361C302.273 760.774 301.462 763.825 299.841 766.513C298.22 769.158 295.98 771.249 293.121 772.785C290.262 774.321 287.02 775.089 283.393 775.089ZM283.393 766.897C285.057 766.897 286.55 766.513 287.873 765.745C289.196 764.977 290.241 763.889 291.009 762.481C291.777 761.03 292.161 759.324 292.161 757.361C292.161 755.356 291.777 753.649 291.009 752.241C290.241 750.833 289.196 749.745 287.873 748.977C286.55 748.209 285.057 747.825 283.393 747.825C281.729 747.825 280.236 748.209 278.913 748.977C277.59 749.745 276.524 750.833 275.713 752.241C274.945 753.649 274.561 755.356 274.561 757.361C274.561 759.324 274.945 761.03 275.713 762.481C276.524 763.889 277.59 764.977 278.913 765.745C280.236 766.513 281.729 766.897 283.393 766.897ZM306.208 774.513L306.72 766.321L307.488 766.449H308.192C309.387 766.449 310.325 766.108 311.008 765.425C311.691 764.742 312.203 763.825 312.544 762.673C312.885 761.478 313.12 760.134 313.248 758.641C313.419 757.148 313.547 755.59 313.632 753.969L314.144 740.145H343.584V774.577H333.6V748.337H322.715L322.4 754.417C322.272 757.489 322.016 760.305 321.632 762.865C321.291 765.425 320.715 767.644 319.904 769.521C319.093 771.356 318.005 772.785 316.64 773.809C315.275 774.79 313.525 775.281 311.392 775.281C310.624 775.281 309.813 775.217 308.96 775.089C308.107 774.961 307.189 774.769 306.208 774.513ZM375.713 774.577V770.298C374.961 771.562 373.937 772.583 372.641 773.361C370.721 774.513 368.246 775.089 365.217 775.089C362.529 775.089 360.225 774.641 358.305 773.745C356.385 772.806 354.913 771.548 353.889 769.969C352.865 768.39 352.353 766.62 352.353 764.657C352.353 762.609 352.844 760.817 353.825 759.281C354.849 757.745 356.449 756.55 358.625 755.697C360.801 754.801 363.638 754.353 367.137 754.353H375.073C375.073 752.22 374.412 750.556 373.089 749.361C371.809 748.166 369.825 747.569 367.137 747.569C365.302 747.569 363.489 747.868 361.697 748.465C359.948 749.02 358.454 749.788 357.217 750.769L353.633 743.793C355.51 742.47 357.772 741.446 360.417 740.721C363.062 739.996 365.75 739.633 368.481 739.633C373.729 739.633 377.804 740.87 380.705 743.345C383.606 745.82 385.057 749.681 385.057 754.929V774.577H375.713ZM375.073 760.177V763.697C374.476 765.233 373.516 766.406 372.193 767.217C370.87 767.985 369.377 768.369 367.713 768.369C365.964 768.369 364.577 768.006 363.553 767.281C362.572 766.513 362.081 765.489 362.081 764.209C362.081 763.057 362.508 762.097 363.361 761.329C364.257 760.561 365.878 760.177 368.225 760.177H375.073ZM1548.15 523.617C1551.18 524.769 1554.47 525.345 1558.01 525.345C1561.51 525.345 1564.73 524.769 1567.67 523.617C1570.66 522.465 1573.24 520.865 1575.42 518.817C1577.63 516.726 1579.36 514.273 1580.6 511.457C1581.84 508.598 1582.46 505.505 1582.46 502.177C1582.46 498.806 1581.84 495.734 1580.6 492.961C1579.36 490.145 1577.63 487.692 1575.42 485.601C1573.24 483.51 1570.66 481.889 1567.67 480.737C1564.73 479.585 1561.49 479.009 1557.94 479.009C1554.45 479.009 1551.2 479.585 1548.22 480.737C1545.23 481.889 1542.63 483.51 1540.41 485.601C1538.19 487.692 1536.46 490.145 1535.22 492.961C1534.03 495.777 1533.43 498.849 1533.43 502.177C1533.43 505.505 1534.03 508.577 1535.22 511.393C1536.46 514.209 1538.17 516.662 1540.34 518.753C1542.56 520.844 1545.17 522.465 1548.15 523.617ZM1563.45 515.489C1561.78 516.172 1559.95 516.513 1557.94 516.513C1555.94 516.513 1554.08 516.172 1552.38 515.489C1550.67 514.806 1549.18 513.825 1547.9 512.545C1546.66 511.265 1545.68 509.75 1544.95 508.001C1544.27 506.209 1543.93 504.268 1543.93 502.177C1543.93 500.044 1544.27 498.102 1544.95 496.353C1545.68 494.604 1546.68 493.089 1547.96 491.809C1549.24 490.529 1550.71 489.548 1552.38 488.865C1554.08 488.182 1555.94 487.841 1557.94 487.841C1559.95 487.841 1561.81 488.182 1563.51 488.865C1565.22 489.548 1566.69 490.529 1567.93 491.809C1569.21 493.089 1570.19 494.604 1570.87 496.353C1571.6 498.102 1571.96 500.044 1571.96 502.177C1571.96 504.31 1571.6 506.252 1570.87 508.001C1570.19 509.75 1569.21 511.265 1567.93 512.545C1566.65 513.825 1565.15 514.806 1563.45 515.489ZM1591.59 490.145V524.577H1609.96C1614.7 524.577 1618.22 523.702 1620.52 521.953C1622.83 520.204 1623.98 517.814 1623.98 514.785C1623.98 511.841 1622.93 509.601 1620.84 508.065C1620.04 507.461 1619.07 506.975 1617.93 506.609C1618.49 506.342 1619.01 506.038 1619.5 505.697C1621.8 504.076 1622.95 501.857 1622.95 499.041C1622.95 496.225 1621.74 494.049 1619.31 492.513C1616.88 490.934 1613.5 490.145 1609.19 490.145H1591.59ZM1609.13 517.793H1600.75V510.177H1609.32C1611.16 510.177 1612.5 510.497 1613.35 511.137C1614.21 511.734 1614.64 512.694 1614.64 514.017C1614.64 515.297 1614.17 516.257 1613.23 516.897C1612.33 517.494 1610.97 517.793 1609.13 517.793ZM1608.3 504.289H1600.75V496.929H1608.3C1610.05 496.929 1611.35 497.228 1612.2 497.825C1613.1 498.422 1613.55 499.34 1613.55 500.577C1613.55 501.772 1613.1 502.689 1612.2 503.329C1611.35 503.969 1610.05 504.289 1608.3 504.289ZM1639.66 522.785C1642.52 524.321 1645.79 525.089 1649.46 525.089C1653.08 525.089 1656.32 524.321 1659.18 522.785C1662.04 521.249 1664.28 519.158 1665.9 516.513C1667.52 513.825 1668.34 510.774 1668.34 507.361C1668.34 503.862 1667.52 500.79 1665.9 498.145C1664.28 495.5 1662.04 493.43 1659.18 491.937C1656.32 490.401 1653.08 489.633 1649.46 489.633C1645.79 489.633 1642.52 490.401 1639.66 491.937C1636.85 493.43 1634.61 495.521 1632.94 498.209C1631.32 500.854 1630.51 503.905 1630.51 507.361C1630.51 510.774 1631.32 513.825 1632.94 516.513C1634.61 519.158 1636.85 521.249 1639.66 522.785ZM1653.94 515.745C1652.61 516.513 1651.12 516.897 1649.46 516.897C1647.79 516.897 1646.3 516.513 1644.98 515.745C1643.65 514.977 1642.59 513.889 1641.78 512.481C1641.01 511.03 1640.62 509.324 1640.62 507.361C1640.62 505.356 1641.01 503.649 1641.78 502.241C1642.59 500.833 1643.65 499.745 1644.98 498.977C1646.3 498.209 1647.79 497.825 1649.46 497.825C1651.12 497.825 1652.61 498.209 1653.94 498.977C1655.26 499.745 1656.3 500.833 1657.07 502.241C1657.84 503.649 1658.22 505.356 1658.22 507.361C1658.22 509.324 1657.84 511.03 1657.07 512.481C1656.3 513.889 1655.26 514.977 1653.94 515.745ZM1698.43 516.385V490.145H1708.42V516.385H1719.49H1719.75V490.145H1729.67V516.385H1734.47V531.425H1725.19V524.577H1719.49H1677.12V490.145H1687.04V516.385H1698.43ZM1751.09 490.145H1741.17V524.577H1750.38L1767.09 504.097V524.577H1777.01V490.145H1767.86L1751.09 510.625V490.145ZM1566.2 599.693V604.561H1556.66V599.657C1552.39 599.4 1548.66 598.666 1545.46 597.457C1541.45 595.921 1538.4 593.702 1536.31 590.801C1534.22 587.857 1533.18 584.273 1533.18 580.049C1533.18 575.825 1534.22 572.262 1536.31 569.361C1538.4 566.417 1541.45 564.177 1545.46 562.641C1548.66 561.432 1552.39 560.698 1556.66 560.441V555.857H1566.2V560.428C1570.53 560.673 1574.28 561.41 1577.46 562.641C1581.47 564.177 1584.5 566.417 1586.55 569.361C1588.6 572.305 1589.62 575.868 1589.62 580.049C1589.62 584.188 1588.6 587.75 1586.55 590.737C1584.55 593.681 1581.58 595.921 1577.66 597.457C1574.44 598.73 1570.62 599.475 1566.2 599.693ZM1556.66 568.597C1554.58 568.792 1552.74 569.132 1551.16 569.617C1548.51 570.428 1546.53 571.708 1545.21 573.457C1543.89 575.164 1543.22 577.361 1543.22 580.049C1543.22 582.737 1543.93 584.956 1545.34 586.705C1546.74 588.412 1548.77 589.692 1551.42 590.545C1552.97 591.014 1554.72 591.348 1556.66 591.545V568.597ZM1566.2 568.568V591.59C1568.37 591.392 1570.27 591.022 1571.9 590.481C1574.5 589.585 1576.44 588.284 1577.72 586.577C1579 584.828 1579.64 582.63 1579.64 579.985C1579.64 577.34 1578.98 575.164 1577.66 573.457C1576.33 571.75 1574.39 570.492 1571.83 569.681C1570.22 569.136 1568.35 568.765 1566.2 568.568ZM1611.2 601.169C1613.38 602.449 1615.92 603.089 1618.82 603.089C1622.06 603.089 1624.96 602.364 1627.52 600.913C1630.13 599.462 1632.18 597.414 1633.67 594.769C1635.2 592.124 1635.97 588.988 1635.97 585.361C1635.97 581.777 1635.2 578.662 1633.67 576.017C1632.18 573.372 1630.13 571.324 1627.52 569.873C1624.96 568.38 1622.06 567.633 1618.82 567.633C1615.79 567.633 1613.19 568.273 1611.01 569.553C1609.87 570.226 1608.87 571.082 1608 572.121V568.145H1598.47V614.993H1608.45V598.932C1609.27 599.823 1610.18 600.569 1611.2 601.169ZM1621.51 593.745C1620.23 594.513 1618.76 594.897 1617.09 594.897C1615.43 594.897 1613.94 594.513 1612.61 593.745C1611.29 592.977 1610.24 591.889 1609.48 590.481C1608.71 589.03 1608.32 587.324 1608.32 585.361C1608.32 583.356 1608.71 581.649 1609.48 580.241C1610.24 578.833 1611.29 577.745 1612.61 576.977C1613.94 576.209 1615.43 575.825 1617.09 575.825C1618.76 575.825 1620.23 576.209 1621.51 576.977C1622.83 577.745 1623.88 578.833 1624.64 580.241C1625.46 581.649 1625.86 583.356 1625.86 585.361C1625.86 587.324 1625.46 589.03 1624.64 590.481C1623.88 591.889 1622.83 592.977 1621.51 593.745ZM1643.31 614.673C1645.06 615.228 1646.83 615.505 1648.62 615.505C1650.72 615.505 1652.61 615.185 1654.32 614.545C1656.07 613.905 1657.65 612.796 1659.06 611.217C1660.51 609.638 1661.79 607.462 1662.9 604.689L1678.45 568.145H1668.85L1659.12 591.529L1649.46 568.145H1639.15L1654.06 602.865L1653.94 603.153C1653.25 604.689 1652.49 605.777 1651.63 606.417C1650.82 607.1 1649.71 607.441 1648.3 607.441C1647.32 607.441 1646.32 607.249 1645.3 606.865C1644.32 606.481 1643.44 605.948 1642.67 605.265L1639.02 612.369C1640.13 613.35 1641.56 614.118 1643.31 614.673ZM1700.35 589.521L1709.57 602.577H1721.34L1708.48 584.666L1720.51 568.145H1709.89L1700.56 581.521H1695.17V568.145H1685.18V602.577H1695.17V589.521H1700.35ZM1735.21 576.337V602.577H1745.14V576.337H1756.78V568.145H1723.57V576.337H1735.21ZM1809.4 568.145H1799.48V602.577H1809.4V568.145ZM1792.31 582.225C1790.05 580.22 1786.66 579.196 1782.14 579.153H1773.94V568.145H1764.03V602.577L1780.79 602.641C1785.57 602.641 1789.26 601.596 1791.86 599.505C1794.47 597.372 1795.77 594.406 1795.77 590.609C1795.77 586.982 1794.62 584.188 1792.31 582.225ZM1784.31 594.321C1783.29 595.174 1781.82 595.58 1779.9 595.537H1773.94V585.553L1779.9 585.617C1781.82 585.66 1783.29 586.065 1784.31 586.833C1785.34 587.558 1785.85 588.774 1785.85 590.481C1785.85 592.188 1785.34 593.468 1784.31 594.321ZM1562.1 668.673V680.577H1572.34V635.777H1553.02C1549.09 635.777 1545.68 636.438 1542.78 637.761C1539.87 639.084 1537.61 641.004 1535.99 643.521C1534.41 645.996 1533.62 648.982 1533.62 652.481C1533.62 655.852 1534.37 658.753 1535.86 661.185C1537.36 663.617 1539.51 665.473 1542.33 666.753C1542.58 666.869 1542.84 666.979 1543.11 667.085L1533.75 680.577H1544.7L1552.62 668.673H1562.1ZM1562.1 660.481V644.225H1553.27C1550.33 644.225 1548.07 644.908 1546.49 646.273C1544.95 647.638 1544.18 649.665 1544.18 652.353C1544.18 654.956 1544.93 656.961 1546.42 658.369C1547.92 659.777 1550.11 660.481 1553.02 660.481H1562.1ZM1584.72 646.145V680.577H1594.64V654.337H1612.3V646.145H1584.72ZM1624.41 678.785C1627.27 680.321 1630.54 681.089 1634.21 681.089C1637.83 681.089 1641.07 680.321 1643.93 678.785C1646.79 677.249 1649.03 675.158 1650.65 672.513C1652.27 669.825 1653.09 666.774 1653.09 663.361C1653.09 659.862 1652.27 656.79 1650.65 654.145C1649.03 651.5 1646.79 649.43 1643.93 647.937C1641.07 646.401 1637.83 645.633 1634.21 645.633C1630.54 645.633 1627.27 646.401 1624.41 647.937C1621.6 649.43 1619.36 651.521 1617.69 654.209C1616.07 656.854 1615.26 659.905 1615.26 663.361C1615.26 666.774 1616.07 669.825 1617.69 672.513C1619.36 675.158 1621.6 677.249 1624.41 678.785ZM1638.69 671.745C1637.36 672.513 1635.87 672.897 1634.21 672.897C1632.54 672.897 1631.05 672.513 1629.73 671.745C1628.4 670.977 1627.34 669.889 1626.53 668.481C1625.76 667.03 1625.37 665.324 1625.37 663.361C1625.37 661.356 1625.76 659.649 1626.53 658.241C1627.34 656.833 1628.4 655.745 1629.73 654.977C1631.05 654.209 1632.54 653.825 1634.21 653.825C1635.87 653.825 1637.36 654.209 1638.69 654.977C1640.01 655.745 1641.05 656.833 1641.82 658.241C1642.59 659.649 1642.97 661.356 1642.97 663.361C1642.97 665.324 1642.59 667.03 1641.82 668.481C1641.05 669.889 1640.01 670.977 1638.69 671.745ZM1685.05 654.337V672.385H1670.59C1670.72 672.244 1670.85 672.095 1670.97 671.937C1671.66 670.998 1672.17 669.868 1672.51 668.545C1672.89 667.18 1673.15 665.665 1673.28 664.001C1673.4 662.337 1673.51 660.588 1673.6 658.753L1673.79 654.337H1685.05ZM1658.36 672.385C1659.6 672.385 1660.6 672.022 1661.37 671.297C1662.14 670.529 1662.74 669.484 1663.16 668.161C1663.59 666.796 1663.91 665.26 1664.12 663.553C1664.34 661.804 1664.49 659.969 1664.57 658.049L1665.02 646.145H1695.04V672.385H1699.96V688.001H1690.68V680.577H1666.49V688.001H1657.21V672.385H1658.36ZM1753.54 646.145H1743.62V680.577H1753.54V646.145ZM1736.46 660.225C1734.19 658.22 1730.8 657.196 1726.28 657.153H1718.09V646.145H1708.17V680.577L1724.94 680.641C1729.71 680.641 1733.4 679.596 1736.01 677.505C1738.61 675.372 1739.91 672.406 1739.91 668.609C1739.91 664.982 1738.76 662.188 1736.46 660.225ZM1728.46 672.321C1727.43 673.174 1725.96 673.58 1724.04 673.537H1718.09V663.553L1724.04 663.617C1725.96 663.66 1727.43 664.065 1728.46 664.833C1729.48 665.558 1729.99 666.774 1729.99 668.481C1729.99 670.188 1729.48 671.468 1728.46 672.321Z" fill="#F6F6F6"/>
<path d="M0 48.8665C0 22.1475 22.135 0.742651 48.839 1.63859L1073 36L1297.25 63.8559C1344.62 69.7394 1392.56 69.3288 1439.82 62.6347L1782.87 14.0416C1835.21 6.62751 1882 47.2554 1882 100.119V100.119C1882 142.406 1848.76 177.224 1806.52 179.186L1486.84 194.034C1430.03 196.673 1373.1 194.285 1316.72 186.897L774.941 115.92L384.983 103.581C311.633 101.26 238.352 109.995 167.603 129.492L122.256 141.989C60.7513 158.938 0 112.664 0 48.8665V48.8665Z" fill="#F6F6F6" fill-opacity="0.22"/>
<path d="M8 498.968C8 399.363 111.547 333.547 201.733 375.831L848.777 679.194C943.902 723.793 1055.39 715.639 1143.01 657.675V657.675C1208.16 614.577 1294.33 619.852 1354.12 670.119V670.119C1426.52 730.983 1522.55 757.244 1615.76 741.201L1732.56 721.099C1754.19 717.376 1776.03 726.48 1788.61 744.467L1790.54 747.228C1818.24 786.827 1814.57 840.379 1781.74 875.837V875.837C1772.93 885.351 1760.75 891.036 1747.79 891.671L1403.1 908.579C1343.14 911.52 1283.04 908.86 1223.57 900.632L719.697 830.92L311.916 817.294C267.811 815.82 223.659 817.803 179.864 823.225V823.225C88.5684 834.526 8 763.317 8 671.325V498.968Z" fill="#F6F6F6" fill-opacity="0.22"/>
</svg>
