<svg width="2092" height="930" viewBox="0 0 2092 930" fill="none" xmlns="http://www.w3.org/2000/svg">
<path fill-rule="evenodd" clip-rule="evenodd" d="M47 404.141V67.9972L94.222 63.8528C137.232 60.0781 180.547 61.8028 223.121 68.9851L392.182 97.5064C550.715 124.252 712.063 130.184 872.132 115.153L1127.31 91.1923C1232.55 81.3099 1338.67 86.6748 1442.38 107.121L1496.85 117.859C1521.24 122.668 1545.99 125.409 1570.84 126.053L1900.5 134.595C1904.72 134.705 1908.89 134.596 1913 134.28V315.158C1911.78 315.118 1910.56 315.097 1909.33 315.097H1903L1867.11 315.097C1856.01 315.097 1846.18 322.244 1842.75 332.799C1839.32 343.354 1829.49 350.5 1818.39 350.5H1807.19C1796.02 350.5 1786.09 343.38 1782.5 332.799C1778.91 322.217 1768.98 315.097 1757.81 315.097H1735.36C1724.03 315.097 1713.9 322.165 1710 332.799C1706.1 343.432 1695.97 350.5 1684.64 350.5H1679.19C1668.02 350.5 1658.09 343.38 1654.5 332.799C1650.91 322.217 1640.98 315.097 1629.81 315.097H1604.36C1593.03 315.097 1582.9 322.165 1579 332.799C1575.1 343.432 1564.97 350.5 1553.64 350.5H1547.27C1536.02 350.5 1526 343.407 1522.25 332.799C1518.5 322.191 1508.48 315.097 1497.23 315.097L1482.23 315.097C1455.87 315.097 1434.5 336.468 1434.5 362.83V463.564V633.5V636.181C1434.5 698.037 1384.36 748.181 1322.5 748.181H1218H1090H891.5H754H713.761C636.573 748.181 574 685.608 574 608.42C574 555.46 544.066 507.049 496.687 483.386L476.11 473.108C463.416 466.769 451.531 458.925 440.71 449.747L437.956 447.41C385.047 402.532 311.712 390.463 247.212 416.02C211.901 430.011 173.18 432.971 136.152 424.511L47 404.141ZM794.76 492.16C796.04 492.747 797.027 493.6 797.72 494.72H816.44C815.587 488.587 812.813 483.733 808.12 480.16C803.48 476.587 797.453 474.8 790.04 474.8C784.227 474.8 779.16 476.027 774.84 478.48C770.52 480.88 767.187 484.267 764.84 488.64C762.547 493.013 761.4 498 761.4 503.6C761.4 509.2 762.547 514.187 764.84 518.56C767.187 522.933 770.52 526.347 774.84 528.8C779.213 531.2 784.333 532.4 790.2 532.4C796.813 532.4 802.28 530.907 806.6 527.92C810.92 524.88 814.307 521.253 816.76 517.04V499.28H787.88V511.84H802.04C799.533 515.147 796.227 516.8 792.12 516.8C787.8 516.8 784.6 515.707 782.52 513.52C780.44 511.333 779.4 508.027 779.4 503.6C779.4 499.76 780.333 496.747 782.2 494.56C784.067 492.32 786.707 491.2 790.12 491.2C791.933 491.2 793.48 491.52 794.76 492.16ZM851.396 532L854.196 523.44H873.076L875.876 532H894.596L873.956 475.36H853.476L832.756 532H851.396ZM863.636 494.32L868.756 510.08H858.516L863.636 494.32ZM930.071 511.68L940.711 532H960.231L947.911 510.32C951.858 509.04 954.871 506.933 956.951 504C959.085 501.067 960.151 497.707 960.151 493.92C960.151 490.4 959.325 487.253 957.671 484.48C956.071 481.653 953.645 479.44 950.391 477.84C947.138 476.187 943.218 475.36 938.631 475.36H912.231V532H929.991V511.68H930.071ZM937.031 499.84H929.991V490.24H937.031C938.685 490.24 939.938 490.667 940.791 491.52C941.698 492.373 942.151 493.547 942.151 495.04C942.151 496.693 941.725 497.92 940.871 498.72C940.018 499.467 938.738 499.84 937.031 499.84ZM1018.54 478.96C1014.12 476.56 1008.95 475.36 1003.03 475.36H979.425V532H1003.03C1008.95 532 1014.12 530.773 1018.54 528.32C1023.03 525.813 1026.47 522.4 1028.86 518.08C1031.27 513.76 1032.47 508.907 1032.47 503.52C1032.47 498.08 1031.27 493.227 1028.86 488.96C1026.47 484.693 1023.03 481.36 1018.54 478.96ZM1010.95 512.88C1008.6 515.067 1005.42 516.16 1001.42 516.16H997.185V490.88H1001.42C1005.42 490.88 1008.6 491.973 1010.95 494.16C1013.29 496.347 1014.47 499.467 1014.47 503.52C1014.47 507.573 1013.29 510.693 1010.95 512.88ZM1070.24 496.48V489.52H1090.24V475.36H1052.48V532H1090.24V517.84H1070.24V509.84H1087.84V496.48H1070.24ZM1147.09 532H1164.85V475.36H1147.09V504.32L1128.29 475.36H1110.53V532H1128.29V503.52L1147.09 532ZM734.469 430.378C734.234 434.174 736.382 437.539 739.589 439.065C740.878 439.782 742.365 440.192 743.957 440.192H750.832C752.633 440.192 754.301 439.667 755.699 438.766C758.572 437.134 760.45 433.97 760.248 430.421L758.901 406.776C760.245 406.911 761.608 406.98 762.987 406.98C785.432 406.98 803.628 388.662 803.628 366.065C803.628 348.603 792.762 333.696 777.467 327.822C778.053 325.471 778.365 323.012 778.365 320.481C778.365 303.647 764.595 290 747.609 290C730.624 290 716.854 303.647 716.854 320.481C716.854 321.163 716.877 321.841 716.921 322.512C698.385 328.597 685 346.042 685 366.614C685 392.244 705.777 413.021 731.408 413.021C732.804 413.021 734.186 412.96 735.551 412.839L734.469 430.378ZM1168.57 413.021C1169.97 413.021 1171.35 412.96 1172.72 412.839L1171.63 430.378C1171.31 435.557 1175.43 439.932 1180.62 439.932H1188.43C1193.6 439.932 1197.71 435.584 1197.41 430.421L1195.92 404.116C1196.83 403.445 1197.73 402.742 1198.59 402.008C1199.11 402.027 1199.63 402.037 1200.15 402.037C1222.6 402.037 1240.79 383.719 1240.79 361.122C1240.79 341.422 1226.96 324.973 1208.55 321.08C1206.18 306.572 1193.49 295.492 1178.18 295.492C1161.43 295.492 1147.8 308.77 1147.44 325.288C1132.43 332.977 1122.17 348.596 1122.17 366.614C1122.17 392.244 1142.94 413.021 1168.57 413.021ZM905.88 312.257C906.131 307.477 910.081 303.73 914.867 303.73H935.101C939.902 303.73 943.857 307.498 944.09 312.293L946.718 366.386H947.757C952.175 366.386 955.757 369.968 955.757 374.386V374.862C955.757 379.281 952.175 382.862 947.757 382.862H947.519L949.806 429.946C950.056 435.083 945.959 439.383 940.817 439.383H908.675C903.519 439.383 899.417 435.059 899.688 429.91L902.164 382.862H886.368L888.655 429.946C888.905 435.083 884.808 439.383 879.666 439.383H847.524C842.368 439.383 838.266 435.059 838.537 429.91L841.013 382.862H835.793C831.374 382.862 827.793 379.281 827.793 374.862V374.386C827.793 369.968 831.374 366.386 835.793 366.386H841.88L844.729 312.257C844.98 307.477 848.93 303.73 853.716 303.73H873.95C878.751 303.73 882.707 307.498 882.939 312.293L885.567 366.386H903.031L905.88 312.257ZM1052.57 303.73C1047.79 303.73 1043.84 307.477 1043.59 312.257L1041.69 348.215H1023.43L1021.68 312.293C1021.45 307.498 1017.49 303.73 1012.69 303.73H992.46C987.673 303.73 983.724 307.477 983.472 312.257L981.58 348.215H976.389C971.971 348.215 968.389 351.797 968.389 356.215V356.692C968.389 361.11 971.971 364.692 976.389 364.692H980.713L977.28 429.91C977.009 435.059 981.111 439.383 986.268 439.383H1018.41C1023.55 439.383 1027.65 435.082 1027.4 429.946L1024.23 364.692H1040.83L1037.39 429.91C1037.12 435.059 1041.22 439.383 1046.38 439.383H1078.52C1083.66 439.383 1087.76 435.083 1087.51 429.946L1084.34 364.692H1088.35C1092.77 364.692 1096.35 361.11 1096.35 356.692V356.215C1096.35 351.797 1092.77 348.215 1088.35 348.215H1083.54L1081.8 312.293C1081.56 307.498 1077.61 303.73 1072.81 303.73H1052.57ZM197.064 639.576C194.472 639.576 192.056 639.16 189.816 638.328C187.608 637.464 185.688 636.248 184.056 634.68C182.424 633.112 181.144 631.272 180.216 629.16C179.32 627.048 178.872 624.728 178.872 622.2C178.872 619.672 179.32 617.352 180.216 615.24C181.144 613.128 182.424 611.288 184.056 609.72C185.72 608.152 187.656 606.952 189.864 606.12C192.072 605.256 194.488 604.824 197.112 604.824C200.024 604.824 202.648 605.336 204.984 606.36C207.352 607.352 209.336 608.824 210.936 610.776L205.944 615.384C204.792 614.072 203.512 613.096 202.104 612.456C200.696 611.784 199.16 611.448 197.496 611.448C195.928 611.448 194.488 611.704 193.176 612.216C191.864 612.728 190.728 613.464 189.768 614.424C188.808 615.384 188.056 616.52 187.512 617.832C187 619.144 186.744 620.6 186.744 622.2C186.744 623.8 187 625.256 187.512 626.568C188.056 627.88 188.808 629.016 189.768 629.976C190.728 630.936 191.864 631.672 193.176 632.184C194.488 632.696 195.928 632.952 197.496 632.952C199.16 632.952 200.696 632.632 202.104 631.992C203.512 631.32 204.792 630.312 205.944 628.968L210.936 633.576C209.336 635.528 207.352 637.016 204.984 638.04C202.648 639.064 200.008 639.576 197.064 639.576ZM243.998 639.384C241.246 639.384 238.798 638.808 236.654 637.656C234.542 636.504 232.862 634.936 231.614 632.952C230.398 630.936 229.79 628.648 229.79 626.088C229.79 623.496 230.398 621.208 231.614 619.224C232.862 617.208 234.542 615.64 236.654 614.52C238.798 613.368 241.246 612.792 243.998 612.792C246.718 612.792 249.15 613.368 251.294 614.52C253.438 615.64 255.118 617.192 256.334 619.176C257.55 621.16 258.158 623.464 258.158 626.088C258.158 628.648 257.55 630.936 256.334 632.952C255.118 634.936 253.438 636.504 251.294 637.656C249.15 638.808 246.718 639.384 243.998 639.384ZM243.998 633.24C245.246 633.24 246.366 632.952 247.358 632.376C248.35 631.8 249.134 630.984 249.71 629.928C250.286 628.84 250.574 627.56 250.574 626.088C250.574 624.584 250.286 623.304 249.71 622.248C249.134 621.192 248.35 620.376 247.358 619.8C246.366 619.224 245.246 618.936 243.998 618.936C242.75 618.936 241.63 619.224 240.638 619.8C239.646 620.376 238.846 621.192 238.238 622.248C237.662 623.304 237.374 624.584 237.374 626.088C237.374 627.56 237.662 628.84 238.238 629.928C238.846 630.984 239.646 631.8 240.638 632.376C241.63 632.952 242.75 633.24 243.998 633.24ZM264.748 639V613.176H285.436V619.32H272.188V639H264.748ZM301.862 639.384C299.11 639.384 296.662 638.808 294.518 637.656C292.406 636.504 290.726 634.936 289.478 632.952C288.262 630.936 287.654 628.648 287.654 626.088C287.654 623.496 288.262 621.208 289.478 619.224C290.726 617.208 292.406 615.64 294.518 614.52C296.662 613.368 299.11 612.792 301.862 612.792C304.582 612.792 307.014 613.368 309.158 614.52C311.302 615.64 312.982 617.192 314.198 619.176C315.414 621.16 316.022 623.464 316.022 626.088C316.022 628.648 315.414 630.936 314.198 632.952C312.982 634.936 311.302 636.504 309.158 637.656C307.014 638.808 304.582 639.384 301.862 639.384ZM301.862 633.24C303.11 633.24 304.23 632.952 305.222 632.376C306.214 631.8 306.998 630.984 307.574 629.928C308.15 628.84 308.438 627.56 308.438 626.088C308.438 624.584 308.15 623.304 307.574 622.248C306.998 621.192 306.214 620.376 305.222 619.8C304.23 619.224 303.11 618.936 301.862 618.936C300.614 618.936 299.494 619.224 298.502 619.8C297.51 620.376 296.71 621.192 296.102 622.248C295.526 623.304 295.238 624.584 295.238 626.088C295.238 627.56 295.526 628.84 296.102 629.928C296.71 630.984 297.51 631.8 298.502 632.376C299.494 632.952 300.614 633.24 301.862 633.24ZM337.828 639.384C335.652 639.384 333.749 638.904 332.116 637.944C331.351 637.494 330.663 636.934 330.052 636.266V648.312H322.564V613.176H329.716V616.158C330.362 615.379 331.114 614.737 331.973 614.232C333.604 613.272 335.556 612.792 337.828 612.792C340.26 612.792 342.436 613.352 344.357 614.472C346.309 615.56 347.845 617.096 348.965 619.08C350.116 621.064 350.693 623.4 350.693 626.088C350.693 628.808 350.116 631.16 348.965 633.144C347.845 635.128 346.309 636.664 344.357 637.752C342.436 638.84 340.26 639.384 337.828 639.384ZM336.533 633.24C337.78 633.24 338.884 632.952 339.844 632.376C340.836 631.8 341.62 630.984 342.197 629.928C342.805 628.84 343.108 627.56 343.108 626.088C343.108 624.584 342.805 623.304 342.197 622.248C341.62 621.192 340.836 620.376 339.844 619.8C338.884 619.224 337.78 618.936 336.533 618.936C335.284 618.936 334.164 619.224 333.172 619.8C332.181 620.376 331.396 621.192 330.82 622.248C330.245 623.304 329.957 624.584 329.957 626.088C329.957 627.56 330.245 628.84 330.82 629.928C331.396 630.984 332.181 631.8 333.172 632.376C334.164 632.952 335.284 633.24 336.533 633.24ZM369.477 639.384C366.725 639.384 364.277 638.808 362.133 637.656C360.021 636.504 358.341 634.936 357.093 632.952C355.877 630.936 355.269 628.648 355.269 626.088C355.269 623.496 355.877 621.208 357.093 619.224C358.341 617.208 360.021 615.64 362.133 614.52C364.277 613.368 366.725 612.792 369.477 612.792C372.197 612.792 374.629 613.368 376.773 614.52C378.917 615.64 380.597 617.192 381.813 619.176C383.029 621.16 383.637 623.464 383.637 626.088C383.637 628.648 383.029 630.936 381.813 632.952C380.597 634.936 378.917 636.504 376.773 637.656C374.629 638.808 372.197 639.384 369.477 639.384ZM369.477 633.24C370.725 633.24 371.845 632.952 372.837 632.376C373.829 631.8 374.613 630.984 375.189 629.928C375.765 628.84 376.053 627.56 376.053 626.088C376.053 624.584 375.765 623.304 375.189 622.248C374.613 621.192 373.829 620.376 372.837 619.8C371.845 619.224 370.725 618.936 369.477 618.936C368.229 618.936 367.109 619.224 366.117 619.8C365.125 620.376 364.325 621.192 363.717 622.248C363.141 623.304 362.853 624.584 362.853 626.088C362.853 627.56 363.141 628.84 363.717 629.928C364.325 630.984 365.125 631.8 366.117 632.376C367.109 632.952 368.229 633.24 369.477 633.24ZM418.796 632.856H415.1V613.176H392.588L392.252 622.104C392.188 623.544 392.076 624.92 391.916 626.232C391.756 627.512 391.516 628.664 391.196 629.688C390.876 630.68 390.428 631.464 389.852 632.04C389.276 632.584 388.524 632.856 387.596 632.856H386.732V644.568H393.692V639H411.836V644.568H418.796V632.856ZM399.164 619.32H407.612V632.856H396.765C396.866 632.75 396.962 632.638 397.052 632.52C397.564 631.816 397.948 630.968 398.204 629.976C398.492 628.952 398.684 627.816 398.78 626.568C398.876 625.32 398.956 624.008 399.02 622.632L399.164 619.32ZM440.404 639V635.791C439.84 636.739 439.072 637.505 438.1 638.088C436.66 638.952 434.804 639.384 432.532 639.384C430.516 639.384 428.788 639.048 427.348 638.376C425.908 637.672 424.804 636.728 424.036 635.544C423.268 634.36 422.884 633.032 422.884 631.56C422.884 630.024 423.252 628.68 423.988 627.528C424.756 626.376 425.956 625.48 427.588 624.84C429.22 624.168 431.348 623.832 433.972 623.832H439.924C439.924 622.232 439.428 620.984 438.436 620.088C437.476 619.192 435.988 618.744 433.972 618.744C432.596 618.744 431.236 618.968 429.892 619.416C428.58 619.832 427.46 620.408 426.532 621.144L423.844 615.912C425.252 614.92 426.948 614.152 428.932 613.608C430.916 613.064 432.932 612.792 434.98 612.792C438.916 612.792 441.972 613.72 444.148 615.576C446.324 617.432 447.412 620.328 447.412 624.264V639H440.404ZM439.924 628.2V630.84C439.476 631.992 438.756 632.872 437.764 633.48C436.772 634.056 435.652 634.344 434.404 634.344C433.092 634.344 432.052 634.072 431.284 633.528C430.548 632.952 430.18 632.184 430.18 631.224C430.18 630.36 430.5 629.64 431.14 629.064C431.812 628.488 433.028 628.2 434.788 628.2H439.924ZM499.335 632.856H495.639V613.176H473.127L472.791 622.104C472.727 623.544 472.615 624.92 472.455 626.232C472.295 627.512 472.055 628.664 471.735 629.688C471.415 630.68 470.967 631.464 470.391 632.04C469.815 632.584 469.063 632.856 468.135 632.856H467.271V644.568H474.231V639H492.375V644.568H499.335V632.856ZM479.703 619.32H488.151V632.856H477.303C477.405 632.75 477.5 632.638 477.591 632.52C478.103 631.816 478.487 630.968 478.743 629.976C479.031 628.952 479.223 627.816 479.319 626.568C479.415 625.32 479.495 624.008 479.559 622.632L479.703 619.32ZM502.223 638.952L502.607 632.808L503.183 632.904H503.711C504.607 632.904 505.311 632.648 505.823 632.136C506.335 631.624 506.719 630.936 506.975 630.072C507.231 629.176 507.407 628.168 507.503 627.048C507.631 625.928 507.727 624.76 507.791 623.544L508.175 613.176H530.255V639H522.767V619.32H514.603L514.367 623.88C514.271 626.184 514.079 628.296 513.791 630.216C513.535 632.136 513.103 633.8 512.495 635.208C511.887 636.584 511.071 637.656 510.047 638.424C509.023 639.16 507.711 639.528 506.111 639.528C505.535 639.528 504.927 639.48 504.287 639.384C503.647 639.288 502.959 639.144 502.223 638.952ZM555.168 639V631.608H549.656L544.752 639H536.784L542.667 630.566C541.804 630.227 541.027 629.807 540.336 629.304C538.224 627.768 537.168 625.56 537.168 622.68C537.168 619.608 538.272 617.256 540.48 615.624C542.72 613.992 545.728 613.176 549.504 613.176H561.84V639H555.168ZM555.168 619.272V626.616H549.552C546.384 626.616 544.8 625.384 544.8 622.92C544.8 621.64 545.216 620.712 546.048 620.136C546.912 619.56 548.112 619.272 549.648 619.272H555.168ZM585.51 639V613.176H598.71C601.942 613.176 604.47 613.768 606.294 614.952C608.118 616.104 609.03 617.736 609.03 619.848C609.03 621.96 608.166 623.624 606.438 624.84C606.072 625.095 605.68 625.323 605.262 625.524C606.114 625.799 606.842 626.163 607.446 626.616C609.014 627.768 609.798 629.448 609.798 631.656C609.798 633.928 608.934 635.72 607.206 637.032C605.478 638.344 602.838 639 599.286 639H585.51ZM592.374 633.912H598.662C600.038 633.912 601.062 633.688 601.734 633.24C602.438 632.76 602.79 632.04 602.79 631.08C602.79 630.088 602.47 629.368 601.83 628.92C601.19 628.44 600.182 628.2 598.806 628.2H592.374V633.912ZM592.374 623.784H598.038C599.35 623.784 600.326 623.544 600.966 623.064C601.638 622.584 601.974 621.896 601.974 621C601.974 620.072 601.638 619.384 600.966 618.936C600.326 618.488 599.35 618.264 598.038 618.264H592.374V623.784ZM632.265 639V635.791C631.702 636.739 630.934 637.505 629.961 638.088C628.521 638.952 626.665 639.384 624.393 639.384C622.377 639.384 620.649 639.048 619.209 638.376C617.769 637.672 616.665 636.728 615.897 635.544C615.129 634.36 614.745 633.032 614.745 631.56C614.745 630.024 615.113 628.68 615.849 627.528C616.617 626.376 617.817 625.48 619.449 624.84C621.081 624.168 623.209 623.832 625.833 623.832H631.785C631.785 622.232 631.289 620.984 630.297 620.088C629.337 619.192 627.849 618.744 625.833 618.744C624.457 618.744 623.097 618.968 621.753 619.416C620.441 619.832 619.321 620.408 618.393 621.144L615.705 615.912C617.113 614.92 618.809 614.152 620.793 613.608C622.777 613.064 624.793 612.792 626.841 612.792C630.777 612.792 633.833 613.72 636.009 615.576C638.185 617.432 639.273 620.328 639.273 624.264V639H632.265ZM631.785 628.2V630.84C631.337 631.992 630.617 632.872 629.625 633.48C628.633 634.056 627.513 634.344 626.265 634.344C624.953 634.344 623.913 634.072 623.145 633.528C622.409 632.952 622.041 632.184 622.041 631.224C622.041 630.36 622.361 629.64 623.001 629.064C623.673 628.488 624.889 628.2 626.649 628.2H631.785ZM663.202 613.176V632.856H654.658V613.176H647.218V639H686.626V613.176H679.186V632.856H670.69V613.176H663.202ZM707.876 639.384C704.932 639.384 702.34 638.808 700.1 637.656C697.892 636.504 696.18 634.936 694.964 632.952C693.748 630.936 693.14 628.648 693.14 626.088C693.14 623.496 693.732 621.208 694.916 619.224C696.132 617.208 697.78 615.64 699.86 614.52C701.94 613.368 704.292 612.792 706.916 612.792C709.444 612.792 711.716 613.336 713.732 614.424C715.78 615.48 717.396 617.016 718.58 619.032C719.764 621.016 720.356 623.4 720.356 626.184C720.356 626.472 720.34 626.808 720.308 627.192C720.291 627.381 720.273 627.565 720.256 627.745C720.242 627.9 720.227 628.052 720.212 628.2H700.673C700.824 628.887 701.065 629.527 701.396 630.12C702.036 631.176 702.916 631.992 704.036 632.568C705.188 633.112 706.532 633.384 708.068 633.384C709.444 633.384 710.644 633.176 711.668 632.76C712.724 632.344 713.684 631.72 714.548 630.888L718.532 635.208C717.348 636.552 715.86 637.592 714.068 638.328C712.276 639.032 710.212 639.384 707.876 639.384ZM701.3 621.672C700.949 622.312 700.711 623.032 700.587 623.832H713.304C713.182 623.018 712.941 622.282 712.58 621.624C712.036 620.632 711.284 619.864 710.324 619.32C709.364 618.744 708.244 618.456 706.964 618.456C705.684 618.456 704.548 618.744 703.556 619.32C702.596 619.864 701.844 620.648 701.3 621.672ZM727.536 639V613.176H748.224V619.32H734.976V639H727.536ZM764.65 639.384C761.898 639.384 759.45 638.808 757.306 637.656C755.194 636.504 753.514 634.936 752.266 632.952C751.05 630.936 750.442 628.648 750.442 626.088C750.442 623.496 751.05 621.208 752.266 619.224C753.514 617.208 755.194 615.64 757.306 614.52C759.45 613.368 761.898 612.792 764.65 612.792C767.37 612.792 769.802 613.368 771.946 614.52C774.09 615.64 775.77 617.192 776.986 619.176C778.202 621.16 778.81 623.464 778.81 626.088C778.81 628.648 778.202 630.936 776.986 632.952C775.77 634.936 774.09 636.504 771.946 637.656C769.802 638.808 767.37 639.384 764.65 639.384ZM764.65 633.24C765.898 633.24 767.018 632.952 768.01 632.376C769.002 631.8 769.786 630.984 770.362 629.928C770.938 628.84 771.226 627.56 771.226 626.088C771.226 624.584 770.938 623.304 770.362 622.248C769.786 621.192 769.002 620.376 768.01 619.8C767.018 619.224 765.898 618.936 764.65 618.936C763.402 618.936 762.282 619.224 761.29 619.8C760.298 620.376 759.498 621.192 758.89 622.248C758.314 623.304 758.026 624.584 758.026 626.088C758.026 627.56 758.314 628.84 758.89 629.928C759.498 630.984 760.298 631.8 761.29 632.376C762.282 632.952 763.402 633.24 764.65 633.24ZM192.888 698.384C190.104 698.384 187.624 697.824 185.448 696.704C183.272 695.552 181.56 693.968 180.312 691.952C179.096 689.936 178.488 687.648 178.488 685.088C178.488 682.496 179.096 680.208 180.312 678.224C181.56 676.208 183.272 674.64 185.448 673.52C187.624 672.368 190.104 671.792 192.888 671.792C195.608 671.792 197.976 672.368 199.992 673.52C202.008 674.64 203.496 676.256 204.456 678.368L198.648 681.488C197.976 680.272 197.128 679.376 196.104 678.8C195.112 678.224 194.024 677.936 192.84 677.936C191.56 677.936 190.408 678.224 189.384 678.8C188.36 679.376 187.544 680.192 186.936 681.248C186.36 682.304 186.072 683.584 186.072 685.088C186.072 686.592 186.36 687.872 186.936 688.928C187.544 689.984 188.36 690.8 189.384 691.376C190.408 691.952 191.56 692.24 192.84 692.24C194.024 692.24 195.112 691.968 196.104 691.424C197.128 690.848 197.976 689.936 198.648 688.688L204.456 691.856C203.496 693.936 202.008 695.552 199.992 696.704C197.976 697.824 195.608 698.384 192.888 698.384ZM215.919 698V678.32H207.183V672.176H232.095V678.32H223.359V698H215.919ZM248.545 698.384C245.793 698.384 243.345 697.808 241.201 696.656C239.089 695.504 237.409 693.936 236.161 691.952C234.945 689.936 234.337 687.648 234.337 685.088C234.337 682.496 234.945 680.208 236.161 678.224C237.409 676.208 239.089 674.64 241.201 673.52C243.345 672.368 245.793 671.792 248.545 671.792C251.265 671.792 253.697 672.368 255.841 673.52C257.985 674.64 259.665 676.192 260.881 678.176C262.097 680.16 262.705 682.464 262.705 685.088C262.705 687.648 262.097 689.936 260.881 691.952C259.665 693.936 257.985 695.504 255.841 696.656C253.697 697.808 251.265 698.384 248.545 698.384ZM248.545 692.24C249.793 692.24 250.913 691.952 251.905 691.376C252.897 690.8 253.681 689.984 254.257 688.928C254.833 687.84 255.121 686.56 255.121 685.088C255.121 683.584 254.833 682.304 254.257 681.248C253.681 680.192 252.897 679.376 251.905 678.8C250.913 678.224 249.793 677.936 248.545 677.936C247.297 677.936 246.177 678.224 245.185 678.8C244.193 679.376 243.393 680.192 242.785 681.248C242.209 682.304 241.921 683.584 241.921 685.088C241.921 686.56 242.209 687.84 242.785 688.928C243.393 689.984 244.193 690.8 245.185 691.376C246.177 691.952 247.297 692.24 248.545 692.24ZM265.656 697.952L266.04 691.808L266.616 691.904H267.144C268.04 691.904 268.744 691.648 269.256 691.136C269.768 690.624 270.152 689.936 270.408 689.072C270.664 688.176 270.84 687.168 270.936 686.048C271.064 684.928 271.16 683.76 271.224 682.544L271.608 672.176H293.688V698H286.2V678.32H278.036L277.8 682.88C277.704 685.184 277.512 687.296 277.224 689.216C276.968 691.136 276.536 692.8 275.928 694.208C275.32 695.584 274.504 696.656 273.48 697.424C272.456 698.16 271.144 698.528 269.544 698.528C268.968 698.528 268.36 698.48 267.72 698.384C267.08 698.288 266.392 698.144 265.656 697.952ZM317.785 698V694.791C317.221 695.739 316.453 696.505 315.481 697.088C314.041 697.952 312.185 698.384 309.913 698.384C307.897 698.384 306.169 698.048 304.729 697.376C303.289 696.672 302.185 695.728 301.417 694.544C300.649 693.36 300.265 692.032 300.265 690.56C300.265 689.024 300.633 687.68 301.369 686.528C302.137 685.376 303.337 684.48 304.969 683.84C306.601 683.168 308.729 682.832 311.353 682.832H317.305C317.305 681.232 316.809 679.984 315.817 679.088C314.857 678.192 313.369 677.744 311.353 677.744C309.977 677.744 308.617 677.968 307.273 678.416C305.961 678.832 304.841 679.408 303.913 680.144L301.225 674.912C302.633 673.92 304.329 673.152 306.313 672.608C308.297 672.064 310.313 671.792 312.361 671.792C316.297 671.792 319.353 672.72 321.529 674.576C323.705 676.432 324.793 679.328 324.793 683.264V698H317.785ZM317.305 687.2V689.84C316.857 690.992 316.137 691.872 315.145 692.48C314.153 693.056 313.033 693.344 311.785 693.344C310.473 693.344 309.433 693.072 308.665 692.528C307.929 691.952 307.561 691.184 307.561 690.224C307.561 689.36 307.881 688.64 308.521 688.064C309.193 687.488 310.409 687.2 312.169 687.2H317.305ZM1598.86 455.28C1601.14 456.144 1603.6 456.576 1606.26 456.576C1608.88 456.576 1611.3 456.144 1613.5 455.28C1615.74 454.416 1617.68 453.216 1619.31 451.68C1620.98 450.112 1622.27 448.272 1623.2 446.16C1624.13 444.016 1624.59 441.696 1624.59 439.2C1624.59 436.672 1624.13 434.368 1623.2 432.288C1622.27 430.176 1620.98 428.336 1619.31 426.768C1617.68 425.2 1615.74 423.984 1613.5 423.12C1611.3 422.256 1608.86 421.824 1606.21 421.824C1603.58 421.824 1601.15 422.256 1598.91 423.12C1596.67 423.984 1594.72 425.2 1593.06 426.768C1591.39 428.336 1590.1 430.176 1589.17 432.288C1588.27 434.4 1587.82 436.704 1587.82 439.2C1587.82 441.696 1588.27 444 1589.17 446.112C1590.1 448.224 1591.38 450.064 1593.01 451.632C1594.67 453.2 1596.62 454.416 1598.86 455.28ZM1610.34 449.184C1609.09 449.696 1607.71 449.952 1606.21 449.952C1604.7 449.952 1603.31 449.696 1602.03 449.184C1600.75 448.672 1599.63 447.936 1598.67 446.976C1597.74 446.016 1597.01 444.88 1596.46 443.568C1595.95 442.224 1595.7 440.768 1595.7 439.2C1595.7 437.6 1595.95 436.144 1596.46 434.832C1597.01 433.52 1597.76 432.384 1598.72 431.424C1599.68 430.464 1600.78 429.728 1602.03 429.216C1603.31 428.704 1604.7 428.448 1606.21 428.448C1607.71 428.448 1609.1 428.704 1610.38 429.216C1611.66 429.728 1612.77 430.464 1613.7 431.424C1614.66 432.384 1615.39 433.52 1615.9 434.832C1616.45 436.144 1616.72 437.6 1616.72 439.2C1616.72 440.8 1616.45 442.256 1615.9 443.568C1615.39 444.88 1614.66 446.016 1613.7 446.976C1612.74 447.936 1611.62 448.672 1610.34 449.184ZM1631.45 430.176V456H1645.22C1648.77 456 1651.41 455.344 1653.14 454.032C1654.87 452.72 1655.73 450.928 1655.73 448.656C1655.73 446.448 1654.95 444.768 1653.38 443.616C1652.78 443.163 1652.05 442.799 1651.2 442.524C1651.62 442.323 1652.01 442.095 1652.37 441.84C1654.1 440.624 1654.97 438.96 1654.97 436.848C1654.97 434.736 1654.05 433.104 1652.23 431.952C1650.41 430.768 1647.88 430.176 1644.65 430.176H1631.45ZM1644.6 450.912H1638.31V445.2H1644.74C1646.12 445.2 1647.13 445.44 1647.77 445.92C1648.41 446.368 1648.73 447.088 1648.73 448.08C1648.73 449.04 1648.37 449.76 1647.67 450.24C1647 450.688 1645.97 450.912 1644.6 450.912ZM1643.97 440.784H1638.31V435.264H1643.97C1645.29 435.264 1646.26 435.488 1646.9 435.936C1647.57 436.384 1647.91 437.072 1647.91 438C1647.91 438.896 1647.57 439.584 1646.9 440.064C1646.26 440.544 1645.29 440.784 1643.97 440.784ZM1667.5 454.656C1669.64 455.808 1672.09 456.384 1674.84 456.384C1677.56 456.384 1679.99 455.808 1682.14 454.656C1684.28 453.504 1685.96 451.936 1687.18 449.952C1688.39 447.936 1689 445.648 1689 443.088C1689 440.464 1688.39 438.16 1687.18 436.176C1685.96 434.192 1684.28 432.64 1682.14 431.52C1679.99 430.368 1677.56 429.792 1674.84 429.792C1672.09 429.792 1669.64 430.368 1667.5 431.52C1665.39 432.64 1663.71 434.208 1662.46 436.224C1661.24 438.208 1660.63 440.496 1660.63 443.088C1660.63 445.648 1661.24 447.936 1662.46 449.952C1663.71 451.936 1665.39 453.504 1667.5 454.656ZM1678.2 449.376C1677.21 449.952 1676.09 450.24 1674.84 450.24C1673.59 450.24 1672.47 449.952 1671.48 449.376C1670.49 448.8 1669.69 447.984 1669.08 446.928C1668.51 445.84 1668.22 444.56 1668.22 443.088C1668.22 441.584 1668.51 440.304 1669.08 439.248C1669.69 438.192 1670.49 437.376 1671.48 436.8C1672.47 436.224 1673.59 435.936 1674.84 435.936C1676.09 435.936 1677.21 436.224 1678.2 436.8C1679.19 437.376 1679.98 438.192 1680.55 439.248C1681.13 440.304 1681.42 441.584 1681.42 443.088C1681.42 444.56 1681.13 445.84 1680.55 446.928C1679.98 447.984 1679.19 448.8 1678.2 449.376ZM1711.58 449.856V430.176H1719.06V449.856H1727.37H1727.56V430.176H1735V449.856H1738.6V461.136H1731.64V456H1727.37H1695.59V430.176H1703.03V449.856H1711.58ZM1743.63 430.176V456H1750.54L1763.07 440.64V456H1770.51V430.176H1763.64L1751.07 445.536V430.176H1743.63ZM1612.4 512.837V516.488H1605.25V512.81C1602.04 512.617 1599.24 512.067 1596.85 511.16C1593.84 510.008 1591.55 508.344 1589.98 506.168C1588.42 503.96 1587.63 501.272 1587.63 498.104C1587.63 494.936 1588.42 492.264 1589.98 490.088C1591.55 487.88 1593.84 486.2 1596.85 485.048C1599.24 484.141 1602.04 483.591 1605.25 483.398V479.96H1612.4V483.388C1615.65 483.572 1618.46 484.125 1620.85 485.048C1623.86 486.2 1626.13 487.88 1627.66 490.088C1629.2 492.296 1629.97 494.968 1629.97 498.104C1629.97 501.208 1629.2 503.88 1627.66 506.12C1626.16 508.328 1623.94 510.008 1620.99 511.16C1618.58 512.115 1615.71 512.674 1612.4 512.837ZM1605.25 489.515C1603.68 489.661 1602.31 489.916 1601.12 490.28C1599.14 490.888 1597.65 491.848 1596.66 493.16C1595.66 494.44 1595.17 496.088 1595.17 498.104C1595.17 500.12 1595.7 501.784 1596.75 503.096C1597.81 504.376 1599.33 505.336 1601.31 505.976C1602.48 506.328 1603.79 506.578 1605.25 506.726V489.515ZM1612.4 489.493V506.76C1614.03 506.611 1615.45 506.334 1616.67 505.928C1618.62 505.256 1620.08 504.28 1621.04 503C1622 501.688 1622.48 500.04 1622.48 498.056C1622.48 496.072 1621.98 494.44 1620.99 493.16C1620 491.88 1618.54 490.936 1616.62 490.328C1615.42 489.919 1614.01 489.641 1612.4 489.493ZM1646.15 513.944C1647.79 514.904 1649.69 515.384 1651.87 515.384C1654.3 515.384 1656.47 514.84 1658.39 513.752C1660.35 512.664 1661.88 511.128 1663 509.144C1664.15 507.16 1664.73 504.808 1664.73 502.088C1664.73 499.4 1664.15 497.064 1663 495.08C1661.88 493.096 1660.35 491.56 1658.39 490.472C1656.47 489.352 1654.3 488.792 1651.87 488.792C1649.59 488.792 1647.64 489.272 1646.01 490.232C1645.15 490.737 1644.4 491.379 1643.75 492.158V489.176H1636.6V524.312H1644.09V512.266C1644.7 512.934 1645.39 513.494 1646.15 513.944ZM1653.88 508.376C1652.92 508.952 1651.82 509.24 1650.57 509.24C1649.32 509.24 1648.2 508.952 1647.21 508.376C1646.22 507.8 1645.43 506.984 1644.86 505.928C1644.28 504.84 1643.99 503.56 1643.99 502.088C1643.99 500.584 1644.28 499.304 1644.86 498.248C1645.43 497.192 1646.22 496.376 1647.21 495.8C1648.2 495.224 1649.32 494.936 1650.57 494.936C1651.82 494.936 1652.92 495.224 1653.88 495.8C1654.87 496.376 1655.66 497.192 1656.23 498.248C1656.84 499.304 1657.15 500.584 1657.15 502.088C1657.15 503.56 1656.84 504.84 1656.23 505.928C1655.66 506.984 1654.87 507.8 1653.88 508.376ZM1670.23 524.072C1671.55 524.488 1672.87 524.696 1674.22 524.696C1675.79 524.696 1677.21 524.456 1678.49 523.976C1679.8 523.496 1680.99 522.664 1682.04 521.48C1683.13 520.296 1684.09 518.664 1684.92 516.584L1696.59 489.176H1689.39L1682.09 506.714L1674.84 489.176H1667.11L1678.29 515.216L1678.2 515.432C1677.69 516.584 1677.11 517.4 1676.47 517.88C1675.87 518.392 1675.03 518.648 1673.98 518.648C1673.24 518.648 1672.49 518.504 1671.72 518.216C1670.99 517.928 1670.33 517.528 1669.75 517.016L1667.02 522.344C1667.85 523.08 1668.92 523.656 1670.23 524.072ZM1713.01 505.208L1719.93 515H1728.76L1719.11 501.567L1728.13 489.176H1720.17L1713.17 499.208H1709.13V489.176H1701.64V515H1709.13V505.208H1713.01ZM1739.16 495.32V515H1746.6V495.32H1755.34V489.176H1730.43V495.32H1739.16ZM1787.36 489.176V515H1794.8V489.176H1787.36ZM1781.98 499.736C1780.29 498.232 1777.74 497.464 1774.35 497.432H1768.21V489.176H1760.77V515L1773.34 515.048C1776.93 515.048 1779.7 514.264 1781.65 512.696C1783.6 511.096 1784.58 508.872 1784.58 506.024C1784.58 503.304 1783.71 501.208 1781.98 499.736ZM1775.98 508.808C1775.22 509.448 1774.11 509.752 1772.67 509.72H1768.21V502.232L1772.67 502.28C1774.11 502.312 1775.22 502.616 1775.98 503.192C1776.75 503.736 1777.14 504.648 1777.14 505.928C1777.14 507.208 1776.75 508.168 1775.98 508.808ZM1609.33 565.072V574H1617.01V540.4H1602.51C1599.57 540.4 1597.01 540.896 1594.83 541.888C1592.66 542.88 1590.96 544.32 1589.74 546.208C1588.56 548.064 1587.97 550.304 1587.97 552.928C1587.97 555.456 1588.53 557.632 1589.65 559.456C1590.77 561.28 1592.38 562.672 1594.5 563.632C1594.69 563.719 1594.88 563.802 1595.08 563.881L1588.06 574H1596.27L1602.21 565.072H1609.33ZM1609.33 558.928V546.736H1602.7C1600.5 546.736 1598.8 547.248 1597.62 548.272C1596.46 549.296 1595.89 550.816 1595.89 552.832C1595.89 554.784 1596.45 556.288 1597.57 557.344C1598.69 558.4 1600.34 558.928 1602.51 558.928H1609.33ZM1626.29 548.176V574H1633.73V554.32H1646.98V548.176H1626.29ZM1656.06 572.656C1658.2 573.808 1660.65 574.384 1663.4 574.384C1666.12 574.384 1668.56 573.808 1670.7 572.656C1672.84 571.504 1674.52 569.936 1675.74 567.952C1676.96 565.936 1677.56 563.648 1677.56 561.088C1677.56 558.464 1676.96 556.16 1675.74 554.176C1674.52 552.192 1672.84 550.64 1670.7 549.52C1668.56 548.368 1666.12 547.792 1663.4 547.792C1660.65 547.792 1658.2 548.368 1656.06 549.52C1653.95 550.64 1652.27 552.208 1651.02 554.224C1649.8 556.208 1649.2 558.496 1649.2 561.088C1649.2 563.648 1649.8 565.936 1651.02 567.952C1652.27 569.936 1653.95 571.504 1656.06 572.656ZM1666.76 567.376C1665.77 567.952 1664.65 568.24 1663.4 568.24C1662.16 568.24 1661.04 567.952 1660.04 567.376C1659.05 566.8 1658.25 565.984 1657.64 564.928C1657.07 563.84 1656.78 562.56 1656.78 561.088C1656.78 559.584 1657.07 558.304 1657.64 557.248C1658.25 556.192 1659.05 555.376 1660.04 554.8C1661.04 554.224 1662.16 553.936 1663.4 553.936C1664.65 553.936 1665.77 554.224 1666.76 554.8C1667.76 555.376 1668.54 556.192 1669.12 557.248C1669.69 558.304 1669.98 559.584 1669.98 561.088C1669.98 562.56 1669.69 563.84 1669.12 564.928C1668.54 565.984 1667.76 566.8 1666.76 567.376ZM1709.03 567.856H1712.72V579.568H1705.76V574H1687.62V579.568H1680.66V567.856H1681.52C1682.45 567.856 1683.2 567.584 1683.78 567.04C1684.36 566.464 1684.8 565.68 1685.12 564.688C1685.44 563.664 1685.68 562.512 1685.84 561.232C1686 559.92 1686.12 558.544 1686.18 557.104L1686.52 548.176H1709.03V567.856ZM1701.54 567.856V554.32H1693.09L1692.95 557.632C1692.88 559.008 1692.8 560.32 1692.71 561.568C1692.61 562.816 1692.42 563.952 1692.13 564.976C1691.88 565.968 1691.49 566.816 1690.98 567.52C1690.89 567.638 1690.79 567.75 1690.69 567.856H1701.54ZM1745.47 548.176V574H1752.91V548.176H1745.47ZM1740.09 558.736C1738.4 557.232 1735.85 556.464 1732.46 556.432H1726.32V548.176H1718.88V574L1731.45 574.048C1735.04 574.048 1737.8 573.264 1739.76 571.696C1741.71 570.096 1742.68 567.872 1742.68 565.024C1742.68 562.304 1741.82 560.208 1740.09 558.736ZM1734.09 567.808C1733.32 568.448 1732.22 568.752 1730.78 568.72H1726.32V561.232L1730.78 561.28C1732.22 561.312 1733.32 561.616 1734.09 562.192C1734.86 562.736 1735.24 563.648 1735.24 564.928C1735.24 566.208 1734.86 567.168 1734.09 567.808Z" fill="#F6F6F6"/>
<path d="M0 137.043C0 95.3005 31.6198 60.3444 73.1531 56.1712L590.568 4.18217C644.646 -1.25155 699.191 0.0547083 752.947 8.07095L1613.45 136.39L2078.27 242.1C2085.09 243.651 2090.31 249.137 2091.53 256.024V256.024C2093.37 266.397 2085.63 276.004 2075.1 276.42L1580.29 295.955C1545.88 297.314 1511.42 294.714 1477.6 288.206L1138.29 222.918C988.727 194.14 837.062 177.621 684.808 173.526L354.259 164.636C333.776 164.085 313.307 166.172 293.357 170.845L99.8161 216.18C48.8172 228.126 0 189.422 0 137.043V137.043Z" fill="#F6F6F6" fill-opacity="0.22"/>
</svg>
