<svg width="2131" height="965" viewBox="0 0 2131 965" fill="none" xmlns="http://www.w3.org/2000/svg">
<path fill-rule="evenodd" clip-rule="evenodd" d="M86 404.141V67.9972L133.222 63.8528C176.232 60.0781 219.547 61.8028 262.121 68.9851L431.182 97.5064C589.715 124.252 751.063 130.184 911.132 115.153L1166.31 91.1923C1271.55 81.3099 1377.67 86.6748 1481.38 107.121L1535.85 117.859C1560.24 122.668 1584.99 125.409 1609.84 126.053L1939.5 134.595C1943.72 134.705 1947.89 134.596 1952 134.28V315.158C1950.78 315.118 1949.56 315.097 1948.33 315.097H1942L1906.11 315.097C1895.01 315.097 1885.18 322.244 1881.75 332.799C1878.32 343.354 1868.49 350.5 1857.39 350.5H1846.19C1835.02 350.5 1825.09 343.38 1821.5 332.799C1817.91 322.217 1807.98 315.097 1796.81 315.097H1774.36C1763.03 315.097 1752.9 322.165 1749 332.799C1745.1 343.432 1734.97 350.5 1723.64 350.5H1718.19C1707.02 350.5 1697.09 343.38 1693.5 332.799C1689.91 322.217 1679.98 315.097 1668.81 315.097H1643.36C1632.03 315.097 1621.9 322.165 1618 332.799C1614.1 343.432 1603.97 350.5 1592.64 350.5H1586.27C1575.02 350.5 1565 343.407 1561.25 332.799C1557.5 322.191 1547.48 315.097 1536.23 315.097L1521.23 315.097C1494.87 315.097 1473.5 336.468 1473.5 362.83V463.564V633.5V636.181C1473.5 698.037 1423.36 748.181 1361.5 748.181H1257H1129H930.5H793H738.955C669.392 748.181 613 691.789 613 622.226V616.617C613 561.236 574.766 513.188 520.8 500.75C493.482 494.453 469.267 478.707 452.431 456.29L450.189 453.306C415.238 406.771 353.478 389.367 299.372 410.805L277.964 419.288C248.026 431.15 215.195 433.66 183.801 426.487L86 404.141ZM833.76 492.16C835.04 492.747 836.027 493.6 836.72 494.72H855.44C854.587 488.587 851.813 483.733 847.12 480.16C842.48 476.587 836.453 474.8 829.04 474.8C823.227 474.8 818.16 476.027 813.84 478.48C809.52 480.88 806.187 484.267 803.84 488.64C801.547 493.013 800.4 498 800.4 503.6C800.4 509.2 801.547 514.187 803.84 518.56C806.187 522.933 809.52 526.347 813.84 528.8C818.213 531.2 823.333 532.4 829.2 532.4C835.813 532.4 841.28 530.907 845.6 527.92C849.92 524.88 853.307 521.253 855.76 517.04V499.28H826.88V511.84H841.04C838.533 515.147 835.227 516.8 831.12 516.8C826.8 516.8 823.6 515.707 821.52 513.52C819.44 511.333 818.4 508.027 818.4 503.6C818.4 499.76 819.333 496.747 821.2 494.56C823.067 492.32 825.707 491.2 829.12 491.2C830.933 491.2 832.48 491.52 833.76 492.16ZM890.396 532L893.196 523.44H912.076L914.876 532H933.596L912.956 475.36H892.476L871.756 532H890.396ZM902.636 494.32L907.756 510.08H897.516L902.636 494.32ZM969.071 511.68L979.711 532H999.231L986.911 510.32C990.858 509.04 993.871 506.933 995.951 504C998.085 501.067 999.151 497.707 999.151 493.92C999.151 490.4 998.325 487.253 996.671 484.48C995.071 481.653 992.645 479.44 989.391 477.84C986.138 476.187 982.218 475.36 977.631 475.36H951.231V532H968.991V511.68H969.071ZM976.031 499.84H968.991V490.24H976.031C977.685 490.24 978.938 490.667 979.791 491.52C980.698 492.373 981.151 493.547 981.151 495.04C981.151 496.693 980.725 497.92 979.871 498.72C979.018 499.467 977.738 499.84 976.031 499.84ZM1057.54 478.96C1053.12 476.56 1047.95 475.36 1042.03 475.36H1018.42V532H1042.03C1047.95 532 1053.12 530.773 1057.54 528.32C1062.03 525.813 1065.47 522.4 1067.86 518.08C1070.27 513.76 1071.47 508.907 1071.47 503.52C1071.47 498.08 1070.27 493.227 1067.86 488.96C1065.47 484.693 1062.03 481.36 1057.54 478.96ZM1049.95 512.88C1047.6 515.067 1044.42 516.16 1040.42 516.16H1036.18V490.88H1040.42C1044.42 490.88 1047.6 491.973 1049.95 494.16C1052.29 496.347 1053.47 499.467 1053.47 503.52C1053.47 507.573 1052.29 510.693 1049.95 512.88ZM1109.24 496.48V489.52H1129.24V475.36H1091.48V532H1129.24V517.84H1109.24V509.84H1126.84V496.48H1109.24ZM1186.09 532H1203.85V475.36H1186.09V504.32L1167.29 475.36H1149.53V532H1167.29V503.52L1186.09 532ZM773.469 430.378C773.234 434.174 775.382 437.539 778.589 439.065C779.878 439.782 781.365 440.192 782.957 440.192H789.832C791.633 440.192 793.301 439.667 794.699 438.766C797.572 437.134 799.45 433.97 799.248 430.421L797.901 406.776C799.245 406.911 800.608 406.98 801.987 406.98C824.432 406.98 842.628 388.662 842.628 366.065C842.628 348.603 831.762 333.696 816.467 327.822C817.053 325.471 817.365 323.012 817.365 320.481C817.365 303.647 803.595 290 786.609 290C769.624 290 755.854 303.647 755.854 320.481C755.854 321.163 755.877 321.841 755.921 322.512C737.385 328.597 724 346.042 724 366.614C724 392.244 744.777 413.021 770.408 413.021C771.804 413.021 773.186 412.96 774.551 412.839L773.469 430.378ZM1207.57 413.021C1208.97 413.021 1210.35 412.96 1211.72 412.839L1210.63 430.378C1210.31 435.557 1214.43 439.932 1219.62 439.932H1227.43C1232.6 439.932 1236.71 435.584 1236.41 430.421L1234.92 404.116C1235.83 403.445 1236.73 402.742 1237.59 402.008C1238.11 402.027 1238.63 402.037 1239.15 402.037C1261.6 402.037 1279.79 383.719 1279.79 361.122C1279.79 341.422 1265.96 324.973 1247.55 321.08C1245.18 306.572 1232.49 295.492 1217.18 295.492C1200.43 295.492 1186.8 308.77 1186.44 325.288C1171.43 332.977 1161.17 348.596 1161.17 366.614C1161.17 392.244 1181.94 413.021 1207.57 413.021ZM944.88 312.257C945.131 307.477 949.081 303.73 953.867 303.73H974.101C978.902 303.73 982.857 307.498 983.09 312.293L985.718 366.386H986.757C991.175 366.386 994.757 369.968 994.757 374.386V374.862C994.757 379.281 991.175 382.862 986.757 382.862H986.519L988.806 429.946C989.056 435.083 984.959 439.383 979.817 439.383H947.675C942.519 439.383 938.417 435.059 938.688 429.91L941.164 382.862H925.368L927.655 429.946C927.905 435.083 923.808 439.383 918.666 439.383H886.524C881.368 439.383 877.266 435.059 877.537 429.91L880.013 382.862H874.793C870.374 382.862 866.793 379.281 866.793 374.862V374.386C866.793 369.968 870.374 366.386 874.793 366.386H880.88L883.729 312.257C883.98 307.477 887.93 303.73 892.716 303.73H912.95C917.751 303.73 921.707 307.498 921.939 312.293L924.567 366.386H942.031L944.88 312.257ZM1091.57 303.73C1086.79 303.73 1082.84 307.477 1082.59 312.257L1080.69 348.215H1062.43L1060.68 312.293C1060.45 307.498 1056.49 303.73 1051.69 303.73H1031.46C1026.67 303.73 1022.72 307.477 1022.47 312.257L1020.58 348.215H1015.39C1010.97 348.215 1007.39 351.797 1007.39 356.215V356.692C1007.39 361.11 1010.97 364.692 1015.39 364.692H1019.71L1016.28 429.91C1016.01 435.059 1020.11 439.383 1025.27 439.383H1057.41C1062.55 439.383 1066.65 435.082 1066.4 429.946L1063.23 364.692H1079.83L1076.39 429.91C1076.12 435.059 1080.22 439.383 1085.38 439.383H1117.52C1122.66 439.383 1126.76 435.083 1126.51 429.946L1123.34 364.692H1127.35C1131.77 364.692 1135.35 361.11 1135.35 356.692V356.215C1135.35 351.797 1131.77 348.215 1127.35 348.215H1122.54L1120.8 312.293C1120.56 307.498 1116.61 303.73 1111.81 303.73H1091.57ZM236.064 639.576C233.472 639.576 231.056 639.16 228.816 638.328C226.608 637.464 224.688 636.248 223.056 634.68C221.424 633.112 220.144 631.272 219.216 629.16C218.32 627.048 217.872 624.728 217.872 622.2C217.872 619.672 218.32 617.352 219.216 615.24C220.144 613.128 221.424 611.288 223.056 609.72C224.72 608.152 226.656 606.952 228.864 606.12C231.072 605.256 233.488 604.824 236.112 604.824C239.024 604.824 241.648 605.336 243.984 606.36C246.352 607.352 248.336 608.824 249.936 610.776L244.944 615.384C243.792 614.072 242.512 613.096 241.104 612.456C239.696 611.784 238.16 611.448 236.496 611.448C234.928 611.448 233.488 611.704 232.176 612.216C230.864 612.728 229.728 613.464 228.768 614.424C227.808 615.384 227.056 616.52 226.512 617.832C226 619.144 225.744 620.6 225.744 622.2C225.744 623.8 226 625.256 226.512 626.568C227.056 627.88 227.808 629.016 228.768 629.976C229.728 630.936 230.864 631.672 232.176 632.184C233.488 632.696 234.928 632.952 236.496 632.952C238.16 632.952 239.696 632.632 241.104 631.992C242.512 631.32 243.792 630.312 244.944 628.968L249.936 633.576C248.336 635.528 246.352 637.016 243.984 638.04C241.648 639.064 239.008 639.576 236.064 639.576ZM282.998 639.384C280.246 639.384 277.798 638.808 275.654 637.656C273.542 636.504 271.862 634.936 270.614 632.952C269.398 630.936 268.79 628.648 268.79 626.088C268.79 623.496 269.398 621.208 270.614 619.224C271.862 617.208 273.542 615.64 275.654 614.52C277.798 613.368 280.246 612.792 282.998 612.792C285.718 612.792 288.15 613.368 290.294 614.52C292.438 615.64 294.118 617.192 295.334 619.176C296.55 621.16 297.158 623.464 297.158 626.088C297.158 628.648 296.55 630.936 295.334 632.952C294.118 634.936 292.438 636.504 290.294 637.656C288.15 638.808 285.718 639.384 282.998 639.384ZM282.998 633.24C284.246 633.24 285.366 632.952 286.358 632.376C287.35 631.8 288.134 630.984 288.71 629.928C289.286 628.84 289.574 627.56 289.574 626.088C289.574 624.584 289.286 623.304 288.71 622.248C288.134 621.192 287.35 620.376 286.358 619.8C285.366 619.224 284.246 618.936 282.998 618.936C281.75 618.936 280.63 619.224 279.638 619.8C278.646 620.376 277.846 621.192 277.238 622.248C276.662 623.304 276.374 624.584 276.374 626.088C276.374 627.56 276.662 628.84 277.238 629.928C277.846 630.984 278.646 631.8 279.638 632.376C280.63 632.952 281.75 633.24 282.998 633.24ZM303.748 613.176H324.436V619.32H311.188V639H303.748V613.176ZM340.862 639.384C338.11 639.384 335.662 638.808 333.518 637.656C331.406 636.504 329.726 634.936 328.478 632.952C327.262 630.936 326.654 628.648 326.654 626.088C326.654 623.496 327.262 621.208 328.478 619.224C329.726 617.208 331.406 615.64 333.518 614.52C335.662 613.368 338.11 612.792 340.862 612.792C343.582 612.792 346.014 613.368 348.158 614.52C350.302 615.64 351.982 617.192 353.198 619.176C354.414 621.16 355.022 623.464 355.022 626.088C355.022 628.648 354.414 630.936 353.198 632.952C351.982 634.936 350.302 636.504 348.158 637.656C346.014 638.808 343.582 639.384 340.862 639.384ZM340.862 633.24C342.11 633.24 343.23 632.952 344.222 632.376C345.214 631.8 345.998 630.984 346.574 629.928C347.15 628.84 347.438 627.56 347.438 626.088C347.438 624.584 347.15 623.304 346.574 622.248C345.998 621.192 345.214 620.376 344.222 619.8C343.23 619.224 342.11 618.936 340.862 618.936C339.614 618.936 338.494 619.224 337.502 619.8C336.51 620.376 335.71 621.192 335.102 622.248C334.526 623.304 334.238 624.584 334.238 626.088C334.238 627.56 334.526 628.84 335.102 629.928C335.71 630.984 336.51 631.8 337.502 632.376C338.494 632.952 339.614 633.24 340.862 633.24ZM376.828 639.384C374.652 639.384 372.749 638.904 371.116 637.944C370.351 637.494 369.663 636.934 369.052 636.266V648.312H361.564V613.176H368.716V616.158C369.362 615.379 370.114 614.737 370.973 614.232C372.604 613.272 374.556 612.792 376.828 612.792C379.26 612.792 381.436 613.352 383.357 614.472C385.309 615.56 386.845 617.096 387.965 619.08C389.116 621.064 389.693 623.4 389.693 626.088C389.693 628.808 389.116 631.16 387.965 633.144C386.845 635.128 385.309 636.664 383.357 637.752C381.436 638.84 379.26 639.384 376.828 639.384ZM375.533 633.24C376.78 633.24 377.884 632.952 378.844 632.376C379.836 631.8 380.62 630.984 381.197 629.928C381.805 628.84 382.108 627.56 382.108 626.088C382.108 624.584 381.805 623.304 381.197 622.248C380.62 621.192 379.836 620.376 378.844 619.8C377.884 619.224 376.78 618.936 375.533 618.936C374.284 618.936 373.164 619.224 372.172 619.8C371.181 620.376 370.396 621.192 369.82 622.248C369.245 623.304 368.957 624.584 368.957 626.088C368.957 627.56 369.245 628.84 369.82 629.928C370.396 630.984 371.181 631.8 372.172 632.376C373.164 632.952 374.284 633.24 375.533 633.24ZM408.477 639.384C405.725 639.384 403.277 638.808 401.133 637.656C399.021 636.504 397.341 634.936 396.093 632.952C394.877 630.936 394.269 628.648 394.269 626.088C394.269 623.496 394.877 621.208 396.093 619.224C397.341 617.208 399.021 615.64 401.133 614.52C403.277 613.368 405.725 612.792 408.477 612.792C411.197 612.792 413.629 613.368 415.773 614.52C417.917 615.64 419.597 617.192 420.813 619.176C422.029 621.16 422.637 623.464 422.637 626.088C422.637 628.648 422.029 630.936 420.813 632.952C419.597 634.936 417.917 636.504 415.773 637.656C413.629 638.808 411.197 639.384 408.477 639.384ZM408.477 633.24C409.725 633.24 410.845 632.952 411.837 632.376C412.829 631.8 413.613 630.984 414.189 629.928C414.765 628.84 415.053 627.56 415.053 626.088C415.053 624.584 414.765 623.304 414.189 622.248C413.613 621.192 412.829 620.376 411.837 619.8C410.845 619.224 409.725 618.936 408.477 618.936C407.229 618.936 406.109 619.224 405.117 619.8C404.125 620.376 403.325 621.192 402.717 622.248C402.141 623.304 401.853 624.584 401.853 626.088C401.853 627.56 402.141 628.84 402.717 629.928C403.325 630.984 404.125 631.8 405.117 632.376C406.109 632.952 407.229 633.24 408.477 633.24ZM457.796 632.856H454.1V613.176H431.588L431.252 622.104C431.188 623.544 431.076 624.92 430.916 626.232C430.756 627.512 430.516 628.664 430.196 629.688C429.876 630.68 429.428 631.464 428.852 632.04C428.276 632.584 427.524 632.856 426.596 632.856H425.732V644.568H432.692V639H450.836V644.568H457.796V632.856ZM438.164 619.32H446.612V632.856H435.765C435.866 632.75 435.962 632.638 436.052 632.52C436.564 631.816 436.948 630.968 437.204 629.976C437.492 628.952 437.684 627.816 437.78 626.568C437.876 625.32 437.956 624.008 438.02 622.632L438.164 619.32ZM479.404 639V635.791C478.84 636.739 478.072 637.505 477.1 638.088C475.66 638.952 473.804 639.384 471.532 639.384C469.516 639.384 467.788 639.048 466.348 638.376C464.908 637.672 463.804 636.728 463.036 635.544C462.268 634.36 461.884 633.032 461.884 631.56C461.884 630.024 462.252 628.68 462.988 627.528C463.756 626.376 464.956 625.48 466.588 624.84C468.22 624.168 470.348 623.832 472.972 623.832H478.924C478.924 622.232 478.428 620.984 477.436 620.088C476.476 619.192 474.988 618.744 472.972 618.744C471.596 618.744 470.236 618.968 468.892 619.416C467.58 619.832 466.46 620.408 465.532 621.144L462.844 615.912C464.252 614.92 465.948 614.152 467.932 613.608C469.916 613.064 471.932 612.792 473.98 612.792C477.916 612.792 480.972 613.72 483.148 615.576C485.324 617.432 486.412 620.328 486.412 624.264V639H479.404ZM478.924 628.2V630.84C478.476 631.992 477.756 632.872 476.764 633.48C475.772 634.056 474.652 634.344 473.404 634.344C472.092 634.344 471.052 634.072 470.284 633.528C469.548 632.952 469.18 632.184 469.18 631.224C469.18 630.36 469.5 629.64 470.14 629.064C470.812 628.488 472.028 628.2 473.788 628.2H478.924ZM538.335 632.856H534.639V613.176H512.127L511.791 622.104C511.727 623.544 511.615 624.92 511.455 626.232C511.295 627.512 511.055 628.664 510.735 629.688C510.415 630.68 509.967 631.464 509.391 632.04C508.815 632.584 508.063 632.856 507.135 632.856H506.271V644.568H513.231V639H531.375V644.568H538.335V632.856ZM518.703 619.32H527.151V632.856H516.303C516.405 632.75 516.5 632.638 516.591 632.52C517.103 631.816 517.487 630.968 517.743 629.976C518.031 628.952 518.223 627.816 518.319 626.568C518.415 625.32 518.495 624.008 518.559 622.632L518.703 619.32ZM541.223 638.952L541.607 632.808L542.183 632.904H542.711C543.607 632.904 544.311 632.648 544.823 632.136C545.335 631.624 545.719 630.936 545.975 630.072C546.231 629.176 546.407 628.168 546.503 627.048C546.631 625.928 546.727 624.76 546.791 623.544L547.175 613.176H569.255V639H561.767V619.32H553.603L553.367 623.88C553.271 626.184 553.079 628.296 552.791 630.216C552.535 632.136 552.103 633.8 551.495 635.208C550.887 636.584 550.071 637.656 549.047 638.424C548.023 639.16 546.711 639.528 545.111 639.528C544.535 639.528 543.927 639.48 543.287 639.384C542.647 639.288 541.959 639.144 541.223 638.952ZM594.168 639V631.608H588.656L583.752 639H575.784L581.667 630.566C580.804 630.227 580.027 629.807 579.336 629.304C577.224 627.768 576.168 625.56 576.168 622.68C576.168 619.608 577.272 617.256 579.48 615.624C581.72 613.992 584.728 613.176 588.504 613.176H600.84V639H594.168ZM594.168 619.272V626.616H588.552C585.384 626.616 583.8 625.384 583.8 622.92C583.8 621.64 584.216 620.712 585.048 620.136C585.912 619.56 587.112 619.272 588.648 619.272H594.168ZM624.51 613.176H637.71C640.942 613.176 643.47 613.768 645.294 614.952C647.118 616.104 648.03 617.736 648.03 619.848C648.03 621.96 647.166 623.624 645.438 624.84C645.072 625.095 644.68 625.323 644.262 625.524C645.114 625.799 645.842 626.163 646.446 626.616C648.014 627.768 648.798 629.448 648.798 631.656C648.798 633.928 647.934 635.72 646.206 637.032C644.478 638.344 641.838 639 638.286 639H624.51V613.176ZM631.374 633.912H637.662C639.038 633.912 640.062 633.688 640.734 633.24C641.438 632.76 641.79 632.04 641.79 631.08C641.79 630.088 641.47 629.368 640.83 628.92C640.19 628.44 639.182 628.2 637.806 628.2H631.374V633.912ZM631.374 623.784H637.038C638.35 623.784 639.326 623.544 639.966 623.064C640.638 622.584 640.974 621.896 640.974 621C640.974 620.072 640.638 619.384 639.966 618.936C639.326 618.488 638.35 618.264 637.038 618.264H631.374V623.784ZM671.265 639V635.791C670.702 636.739 669.934 637.505 668.961 638.088C667.521 638.952 665.665 639.384 663.393 639.384C661.377 639.384 659.649 639.048 658.209 638.376C656.769 637.672 655.665 636.728 654.897 635.544C654.129 634.36 653.745 633.032 653.745 631.56C653.745 630.024 654.113 628.68 654.849 627.528C655.617 626.376 656.817 625.48 658.449 624.84C660.081 624.168 662.209 623.832 664.833 623.832H670.785C670.785 622.232 670.289 620.984 669.297 620.088C668.337 619.192 666.849 618.744 664.833 618.744C663.457 618.744 662.097 618.968 660.753 619.416C659.441 619.832 658.321 620.408 657.393 621.144L654.705 615.912C656.113 614.92 657.809 614.152 659.793 613.608C661.777 613.064 663.793 612.792 665.841 612.792C669.777 612.792 672.833 613.72 675.009 615.576C677.185 617.432 678.273 620.328 678.273 624.264V639H671.265ZM670.785 628.2V630.84C670.337 631.992 669.617 632.872 668.625 633.48C667.633 634.056 666.513 634.344 665.265 634.344C663.953 634.344 662.913 634.072 662.145 633.528C661.409 632.952 661.041 632.184 661.041 631.224C661.041 630.36 661.361 629.64 662.001 629.064C662.673 628.488 663.889 628.2 665.649 628.2H670.785ZM702.202 613.176V632.856H693.658V613.176H686.218V639H725.626V613.176H718.186V632.856H709.69V613.176H702.202ZM746.876 639.384C743.932 639.384 741.34 638.808 739.1 637.656C736.892 636.504 735.18 634.936 733.964 632.952C732.748 630.936 732.14 628.648 732.14 626.088C732.14 623.496 732.732 621.208 733.916 619.224C735.132 617.208 736.78 615.64 738.86 614.52C740.94 613.368 743.292 612.792 745.916 612.792C748.444 612.792 750.716 613.336 752.732 614.424C754.78 615.48 756.396 617.016 757.58 619.032C758.764 621.016 759.356 623.4 759.356 626.184C759.356 626.472 759.34 626.808 759.308 627.192C759.276 627.544 759.244 627.88 759.212 628.2H739.673C739.824 628.887 740.065 629.527 740.396 630.12C741.036 631.176 741.916 631.992 743.036 632.568C744.188 633.112 745.532 633.384 747.068 633.384C748.444 633.384 749.644 633.176 750.668 632.76C751.724 632.344 752.684 631.72 753.548 630.888L757.532 635.208C756.348 636.552 754.86 637.592 753.068 638.328C751.276 639.032 749.212 639.384 746.876 639.384ZM740.3 621.672C739.949 622.312 739.711 623.032 739.587 623.832H752.304C752.182 623.018 751.941 622.282 751.58 621.624C751.036 620.632 750.284 619.864 749.324 619.32C748.364 618.744 747.244 618.456 745.964 618.456C744.684 618.456 743.548 618.744 742.556 619.32C741.596 619.864 740.844 620.648 740.3 621.672ZM766.536 613.176H787.224V619.32H773.976V639H766.536V613.176ZM803.65 639.384C800.898 639.384 798.45 638.808 796.306 637.656C794.194 636.504 792.514 634.936 791.266 632.952C790.05 630.936 789.442 628.648 789.442 626.088C789.442 623.496 790.05 621.208 791.266 619.224C792.514 617.208 794.194 615.64 796.306 614.52C798.45 613.368 800.898 612.792 803.65 612.792C806.37 612.792 808.802 613.368 810.946 614.52C813.09 615.64 814.77 617.192 815.986 619.176C817.202 621.16 817.81 623.464 817.81 626.088C817.81 628.648 817.202 630.936 815.986 632.952C814.77 634.936 813.09 636.504 810.946 637.656C808.802 638.808 806.37 639.384 803.65 639.384ZM803.65 633.24C804.898 633.24 806.018 632.952 807.01 632.376C808.002 631.8 808.786 630.984 809.362 629.928C809.938 628.84 810.226 627.56 810.226 626.088C810.226 624.584 809.938 623.304 809.362 622.248C808.786 621.192 808.002 620.376 807.01 619.8C806.018 619.224 804.898 618.936 803.65 618.936C802.402 618.936 801.282 619.224 800.29 619.8C799.298 620.376 798.498 621.192 797.89 622.248C797.314 623.304 797.026 624.584 797.026 626.088C797.026 627.56 797.314 628.84 797.89 629.928C798.498 630.984 799.298 631.8 800.29 632.376C801.282 632.952 802.402 633.24 803.65 633.24ZM231.888 698.384C229.104 698.384 226.624 697.824 224.448 696.704C222.272 695.552 220.56 693.968 219.312 691.952C218.096 689.936 217.488 687.648 217.488 685.088C217.488 682.496 218.096 680.208 219.312 678.224C220.56 676.208 222.272 674.64 224.448 673.52C226.624 672.368 229.104 671.792 231.888 671.792C234.608 671.792 236.976 672.368 238.992 673.52C241.008 674.64 242.496 676.256 243.456 678.368L237.648 681.488C236.976 680.272 236.128 679.376 235.104 678.8C234.112 678.224 233.024 677.936 231.84 677.936C230.56 677.936 229.408 678.224 228.384 678.8C227.36 679.376 226.544 680.192 225.936 681.248C225.36 682.304 225.072 683.584 225.072 685.088C225.072 686.592 225.36 687.872 225.936 688.928C226.544 689.984 227.36 690.8 228.384 691.376C229.408 691.952 230.56 692.24 231.84 692.24C233.024 692.24 234.112 691.968 235.104 691.424C236.128 690.848 236.976 689.936 237.648 688.688L243.456 691.856C242.496 693.936 241.008 695.552 238.992 696.704C236.976 697.824 234.608 698.384 231.888 698.384ZM254.919 698V678.32H246.183V672.176H271.095V678.32H262.359V698H254.919ZM287.545 698.384C284.793 698.384 282.345 697.808 280.201 696.656C278.089 695.504 276.409 693.936 275.161 691.952C273.945 689.936 273.337 687.648 273.337 685.088C273.337 682.496 273.945 680.208 275.161 678.224C276.409 676.208 278.089 674.64 280.201 673.52C282.345 672.368 284.793 671.792 287.545 671.792C290.265 671.792 292.697 672.368 294.841 673.52C296.985 674.64 298.665 676.192 299.881 678.176C301.097 680.16 301.705 682.464 301.705 685.088C301.705 687.648 301.097 689.936 299.881 691.952C298.665 693.936 296.985 695.504 294.841 696.656C292.697 697.808 290.265 698.384 287.545 698.384ZM287.545 692.24C288.793 692.24 289.913 691.952 290.905 691.376C291.897 690.8 292.681 689.984 293.257 688.928C293.833 687.84 294.121 686.56 294.121 685.088C294.121 683.584 293.833 682.304 293.257 681.248C292.681 680.192 291.897 679.376 290.905 678.8C289.913 678.224 288.793 677.936 287.545 677.936C286.297 677.936 285.177 678.224 284.185 678.8C283.193 679.376 282.393 680.192 281.785 681.248C281.209 682.304 280.921 683.584 280.921 685.088C280.921 686.56 281.209 687.84 281.785 688.928C282.393 689.984 283.193 690.8 284.185 691.376C285.177 691.952 286.297 692.24 287.545 692.24ZM304.656 697.952L305.04 691.808L305.616 691.904H306.144C307.04 691.904 307.744 691.648 308.256 691.136C308.768 690.624 309.152 689.936 309.408 689.072C309.664 688.176 309.84 687.168 309.936 686.048C310.064 684.928 310.16 683.76 310.224 682.544L310.608 672.176H332.688V698H325.2V678.32H317.036L316.8 682.88C316.704 685.184 316.512 687.296 316.224 689.216C315.968 691.136 315.536 692.8 314.928 694.208C314.32 695.584 313.504 696.656 312.48 697.424C311.456 698.16 310.144 698.528 308.544 698.528C307.968 698.528 307.36 698.48 306.72 698.384C306.08 698.288 305.392 698.144 304.656 697.952ZM356.785 698V694.791C356.221 695.739 355.453 696.505 354.481 697.088C353.041 697.952 351.185 698.384 348.913 698.384C346.897 698.384 345.169 698.048 343.729 697.376C342.289 696.672 341.185 695.728 340.417 694.544C339.649 693.36 339.265 692.032 339.265 690.56C339.265 689.024 339.633 687.68 340.369 686.528C341.137 685.376 342.337 684.48 343.969 683.84C345.601 683.168 347.729 682.832 350.353 682.832H356.305C356.305 681.232 355.809 679.984 354.817 679.088C353.857 678.192 352.369 677.744 350.353 677.744C348.977 677.744 347.617 677.968 346.273 678.416C344.961 678.832 343.841 679.408 342.913 680.144L340.225 674.912C341.633 673.92 343.329 673.152 345.313 672.608C347.297 672.064 349.313 671.792 351.361 671.792C355.297 671.792 358.353 672.72 360.529 674.576C362.705 676.432 363.793 679.328 363.793 683.264V698H356.785ZM356.305 687.2V689.84C355.857 690.992 355.137 691.872 354.145 692.48C353.153 693.056 352.033 693.344 350.785 693.344C349.473 693.344 348.433 693.072 347.665 692.528C346.929 691.952 346.561 691.184 346.561 690.224C346.561 689.36 346.881 688.64 347.521 688.064C348.193 687.488 349.409 687.2 351.169 687.2H356.305ZM1637.86 455.28C1640.14 456.144 1642.6 456.576 1645.26 456.576C1647.88 456.576 1650.3 456.144 1652.5 455.28C1654.74 454.416 1656.68 453.216 1658.31 451.68C1659.98 450.112 1661.27 448.272 1662.2 446.16C1663.13 444.016 1663.59 441.696 1663.59 439.2C1663.59 436.672 1663.13 434.368 1662.2 432.288C1661.27 430.176 1659.98 428.336 1658.31 426.768C1656.68 425.2 1654.74 423.984 1652.5 423.12C1650.3 422.256 1647.86 421.824 1645.21 421.824C1642.58 421.824 1640.15 422.256 1637.91 423.12C1635.67 423.984 1633.72 425.2 1632.06 426.768C1630.39 428.336 1629.1 430.176 1628.17 432.288C1627.27 434.4 1626.82 436.704 1626.82 439.2C1626.82 441.696 1627.27 444 1628.17 446.112C1629.1 448.224 1630.38 450.064 1632.01 451.632C1633.67 453.2 1635.62 454.416 1637.86 455.28ZM1649.34 449.184C1648.09 449.696 1646.71 449.952 1645.21 449.952C1643.7 449.952 1642.31 449.696 1641.03 449.184C1639.75 448.672 1638.63 447.936 1637.67 446.976C1636.74 446.016 1636.01 444.88 1635.46 443.568C1634.95 442.224 1634.7 440.768 1634.7 439.2C1634.7 437.6 1634.95 436.144 1635.46 434.832C1636.01 433.52 1636.76 432.384 1637.72 431.424C1638.68 430.464 1639.78 429.728 1641.03 429.216C1642.31 428.704 1643.7 428.448 1645.21 428.448C1646.71 428.448 1648.1 428.704 1649.38 429.216C1650.66 429.728 1651.77 430.464 1652.7 431.424C1653.66 432.384 1654.39 433.52 1654.9 434.832C1655.45 436.144 1655.72 437.6 1655.72 439.2C1655.72 440.8 1655.45 442.256 1654.9 443.568C1654.39 444.88 1653.66 446.016 1652.7 446.976C1651.74 447.936 1650.62 448.672 1649.34 449.184ZM1670.45 430.176V456H1684.22C1687.77 456 1690.41 455.344 1692.14 454.032C1693.87 452.72 1694.73 450.928 1694.73 448.656C1694.73 446.448 1693.95 444.768 1692.38 443.616C1691.78 443.163 1691.05 442.799 1690.2 442.524C1690.62 442.323 1691.01 442.095 1691.37 441.84C1693.1 440.624 1693.97 438.96 1693.97 436.848C1693.97 434.736 1693.05 433.104 1691.23 431.952C1689.41 430.768 1686.88 430.176 1683.65 430.176H1670.45ZM1683.6 450.912H1677.31V445.2H1683.74C1685.12 445.2 1686.13 445.44 1686.77 445.92C1687.41 446.368 1687.73 447.088 1687.73 448.08C1687.73 449.04 1687.37 449.76 1686.67 450.24C1686 450.688 1684.97 450.912 1683.6 450.912ZM1682.97 440.784H1677.31V435.264H1682.97C1684.29 435.264 1685.26 435.488 1685.9 435.936C1686.57 436.384 1686.91 437.072 1686.91 438C1686.91 438.896 1686.57 439.584 1685.9 440.064C1685.26 440.544 1684.29 440.784 1682.97 440.784ZM1706.5 454.656C1708.64 455.808 1711.09 456.384 1713.84 456.384C1716.56 456.384 1718.99 455.808 1721.14 454.656C1723.28 453.504 1724.96 451.936 1726.18 449.952C1727.39 447.936 1728 445.648 1728 443.088C1728 440.464 1727.39 438.16 1726.18 436.176C1724.96 434.192 1723.28 432.64 1721.14 431.52C1718.99 430.368 1716.56 429.792 1713.84 429.792C1711.09 429.792 1708.64 430.368 1706.5 431.52C1704.39 432.64 1702.71 434.208 1701.46 436.224C1700.24 438.208 1699.63 440.496 1699.63 443.088C1699.63 445.648 1700.24 447.936 1701.46 449.952C1702.71 451.936 1704.39 453.504 1706.5 454.656ZM1717.2 449.376C1716.21 449.952 1715.09 450.24 1713.84 450.24C1712.59 450.24 1711.47 449.952 1710.48 449.376C1709.49 448.8 1708.69 447.984 1708.08 446.928C1707.51 445.84 1707.22 444.56 1707.22 443.088C1707.22 441.584 1707.51 440.304 1708.08 439.248C1708.69 438.192 1709.49 437.376 1710.48 436.8C1711.47 436.224 1712.59 435.936 1713.84 435.936C1715.09 435.936 1716.21 436.224 1717.2 436.8C1718.19 437.376 1718.98 438.192 1719.55 439.248C1720.13 440.304 1720.42 441.584 1720.42 443.088C1720.42 444.56 1720.13 445.84 1719.55 446.928C1718.98 447.984 1718.19 448.8 1717.2 449.376ZM1750.58 449.856V430.176H1758.06V449.856H1766.37H1766.56V430.176H1774V449.856H1777.6V461.136H1770.64V456H1766.37H1734.59V430.176H1742.03V449.856H1750.58ZM1790.07 430.176H1782.63V456H1789.54L1802.07 440.64V456H1809.51V430.176H1802.64L1790.07 445.536V430.176ZM1651.4 512.837V516.488H1644.25V512.81C1641.04 512.617 1638.24 512.067 1635.85 511.16C1632.84 510.008 1630.55 508.344 1628.98 506.168C1627.42 503.96 1626.63 501.272 1626.63 498.104C1626.63 494.936 1627.42 492.264 1628.98 490.088C1630.55 487.88 1632.84 486.2 1635.85 485.048C1638.24 484.141 1641.04 483.591 1644.25 483.398V479.96H1651.4V483.388C1654.65 483.572 1657.46 484.125 1659.85 485.048C1662.86 486.2 1665.13 487.88 1666.66 490.088C1668.2 492.296 1668.97 494.968 1668.97 498.104C1668.97 501.208 1668.2 503.88 1666.66 506.12C1665.16 508.328 1662.94 510.008 1659.99 511.16C1657.58 512.115 1654.71 512.674 1651.4 512.837ZM1644.25 489.515C1642.68 489.661 1641.31 489.916 1640.12 490.28C1638.14 490.888 1636.65 491.848 1635.66 493.16C1634.66 494.44 1634.17 496.088 1634.17 498.104C1634.17 500.12 1634.7 501.784 1635.75 503.096C1636.81 504.376 1638.33 505.336 1640.31 505.976C1641.48 506.328 1642.79 506.578 1644.25 506.726V489.515ZM1651.4 489.493V506.76C1653.03 506.611 1654.45 506.334 1655.67 505.928C1657.62 505.256 1659.08 504.28 1660.04 503C1661 501.688 1661.48 500.04 1661.48 498.056C1661.48 496.072 1660.98 494.44 1659.99 493.16C1659 491.88 1657.54 490.936 1655.62 490.328C1654.42 489.919 1653.01 489.641 1651.4 489.493ZM1685.15 513.944C1686.79 514.904 1688.69 515.384 1690.87 515.384C1693.3 515.384 1695.47 514.84 1697.39 513.752C1699.35 512.664 1700.88 511.128 1702 509.144C1703.15 507.16 1703.73 504.808 1703.73 502.088C1703.73 499.4 1703.15 497.064 1702 495.08C1700.88 493.096 1699.35 491.56 1697.39 490.472C1695.47 489.352 1693.3 488.792 1690.87 488.792C1688.59 488.792 1686.64 489.272 1685.01 490.232C1684.15 490.737 1683.4 491.379 1682.75 492.158V489.176H1675.6V524.312H1683.09V512.266C1683.7 512.934 1684.39 513.494 1685.15 513.944ZM1692.88 508.376C1691.92 508.952 1690.82 509.24 1689.57 509.24C1688.32 509.24 1687.2 508.952 1686.21 508.376C1685.22 507.8 1684.43 506.984 1683.86 505.928C1683.28 504.84 1682.99 503.56 1682.99 502.088C1682.99 500.584 1683.28 499.304 1683.86 498.248C1684.43 497.192 1685.22 496.376 1686.21 495.8C1687.2 495.224 1688.32 494.936 1689.57 494.936C1690.82 494.936 1691.92 495.224 1692.88 495.8C1693.87 496.376 1694.66 497.192 1695.23 498.248C1695.84 499.304 1696.15 500.584 1696.15 502.088C1696.15 503.56 1695.84 504.84 1695.23 505.928C1694.66 506.984 1693.87 507.8 1692.88 508.376ZM1709.23 524.072C1710.55 524.488 1711.87 524.696 1713.22 524.696C1714.79 524.696 1716.21 524.456 1717.49 523.976C1718.8 523.496 1719.99 522.664 1721.04 521.48C1722.13 520.296 1723.09 518.664 1723.92 516.584L1735.59 489.176H1728.39L1721.09 506.714L1713.84 489.176H1706.11L1717.29 515.216L1717.2 515.432C1716.69 516.584 1716.11 517.4 1715.47 517.88C1714.87 518.392 1714.03 518.648 1712.98 518.648C1712.24 518.648 1711.49 518.504 1710.72 518.216C1709.99 517.928 1709.33 517.528 1708.75 517.016L1706.02 522.344C1706.85 523.08 1707.92 523.656 1709.23 524.072ZM1752.01 505.208L1758.93 515H1767.76L1758.11 501.567L1767.13 489.176H1759.17L1752.17 499.208H1748.13V489.176H1740.64V515H1748.13V505.208H1752.01ZM1778.16 495.32V515H1785.6V495.32H1794.34V489.176H1769.43V495.32H1778.16ZM1833.8 489.176H1826.36V515H1833.8V489.176ZM1820.98 499.736C1819.29 498.232 1816.74 497.464 1813.35 497.432H1807.21V489.176H1799.77V515L1812.34 515.048C1815.93 515.048 1818.7 514.264 1820.65 512.696C1822.6 511.096 1823.58 508.872 1823.58 506.024C1823.58 503.304 1822.71 501.208 1820.98 499.736ZM1814.98 508.808C1814.22 509.448 1813.11 509.752 1811.67 509.72H1807.21V502.232L1811.67 502.28C1813.11 502.312 1814.22 502.616 1814.98 503.192C1815.75 503.736 1816.14 504.648 1816.14 505.928C1816.14 507.208 1815.75 508.168 1814.98 508.808ZM1648.33 565.072V574H1656.01V540.4H1641.51C1638.57 540.4 1636.01 540.896 1633.83 541.888C1631.66 542.88 1629.96 544.32 1628.74 546.208C1627.56 548.064 1626.97 550.304 1626.97 552.928C1626.97 555.456 1627.53 557.632 1628.65 559.456C1629.77 561.28 1631.38 562.672 1633.5 563.632C1633.69 563.719 1633.88 563.802 1634.08 563.881L1627.06 574H1635.27L1641.21 565.072H1648.33ZM1648.33 558.928V546.736H1641.7C1639.5 546.736 1637.8 547.248 1636.62 548.272C1635.46 549.296 1634.89 550.816 1634.89 552.832C1634.89 554.784 1635.45 556.288 1636.57 557.344C1637.69 558.4 1639.34 558.928 1641.51 558.928H1648.33ZM1665.29 548.176V574H1672.73V554.32H1685.98V548.176H1665.29ZM1695.06 572.656C1697.2 573.808 1699.65 574.384 1702.4 574.384C1705.12 574.384 1707.56 573.808 1709.7 572.656C1711.84 571.504 1713.52 569.936 1714.74 567.952C1715.96 565.936 1716.56 563.648 1716.56 561.088C1716.56 558.464 1715.96 556.16 1714.74 554.176C1713.52 552.192 1711.84 550.64 1709.7 549.52C1707.56 548.368 1705.12 547.792 1702.4 547.792C1699.65 547.792 1697.2 548.368 1695.06 549.52C1692.95 550.64 1691.27 552.208 1690.02 554.224C1688.8 556.208 1688.2 558.496 1688.2 561.088C1688.2 563.648 1688.8 565.936 1690.02 567.952C1691.27 569.936 1692.95 571.504 1695.06 572.656ZM1705.76 567.376C1704.77 567.952 1703.65 568.24 1702.4 568.24C1701.16 568.24 1700.04 567.952 1699.04 567.376C1698.05 566.8 1697.25 565.984 1696.64 564.928C1696.07 563.84 1695.78 562.56 1695.78 561.088C1695.78 559.584 1696.07 558.304 1696.64 557.248C1697.25 556.192 1698.05 555.376 1699.04 554.8C1700.04 554.224 1701.16 553.936 1702.4 553.936C1703.65 553.936 1704.77 554.224 1705.76 554.8C1706.76 555.376 1707.54 556.192 1708.12 557.248C1708.69 558.304 1708.98 559.584 1708.98 561.088C1708.98 562.56 1708.69 563.84 1708.12 564.928C1707.54 565.984 1706.76 566.8 1705.76 567.376ZM1748.03 567.856H1751.72V579.568H1744.76V574H1726.62V579.568H1719.66V567.856H1720.52C1721.45 567.856 1722.2 567.584 1722.78 567.04C1723.36 566.464 1723.8 565.68 1724.12 564.688C1724.44 563.664 1724.68 562.512 1724.84 561.232C1725 559.92 1725.12 558.544 1725.18 557.104L1725.52 548.176H1748.03V567.856ZM1740.54 567.856V554.32H1732.09L1731.95 557.632C1731.88 559.008 1731.8 560.32 1731.71 561.568C1731.61 562.816 1731.42 563.952 1731.13 564.976C1730.88 565.968 1730.49 566.816 1729.98 567.52C1729.89 567.638 1729.79 567.75 1729.69 567.856H1740.54ZM1791.91 548.176H1784.47V574H1791.91V548.176ZM1779.09 558.736C1777.4 557.232 1774.85 556.464 1771.46 556.432H1765.32V548.176H1757.88V574L1770.45 574.048C1774.04 574.048 1776.8 573.264 1778.76 571.696C1780.71 570.096 1781.68 567.872 1781.68 565.024C1781.68 562.304 1780.82 560.208 1779.09 558.736ZM1773.09 567.808C1772.32 568.448 1771.22 568.752 1769.78 568.72H1765.32V561.232L1769.78 561.28C1771.22 561.312 1772.32 561.616 1773.09 562.192C1773.86 562.736 1774.24 563.648 1774.24 564.928C1774.24 566.208 1773.86 567.168 1773.09 567.808Z" fill="#F6F6F6"/>
<path d="M39 137.043C39 95.3005 70.6198 60.3444 112.153 56.1712L629.568 4.18217C683.646 -1.25155 738.191 0.0547085 791.947 8.07095L1652.45 136.39L2117.27 242.1C2124.09 243.651 2129.31 249.137 2130.53 256.024C2132.37 266.397 2124.63 276.004 2114.1 276.42L1619.29 295.955C1584.88 297.314 1550.42 294.714 1516.6 288.206L1177.29 222.918C1027.73 194.14 876.062 177.621 723.808 173.526L393.259 164.636C372.776 164.085 352.307 166.172 332.357 170.845L138.816 216.18C87.8172 228.126 39 189.422 39 137.043Z" fill="#F6F6F6" fill-opacity="0.22"/>
<path d="M38.5229 692.817C38.5229 674.861 34.3926 657.145 26.4513 641.04L12.3975 612.539C-35.8484 514.696 74.7314 415.098 167.013 473.279V473.279C200.053 494.109 241.759 495.498 276.112 476.912L304.918 461.327C351.227 436.272 408.843 448.1 441.537 489.373V489.373C450.748 501.001 462.246 510.615 475.321 517.622L483.93 522.236C523.383 543.379 551.816 580.493 561.961 624.089L565.903 641.029C586.659 730.224 666.968 792.752 758.53 791.006L1138.36 783.765C1165 783.257 1191.59 786.331 1217.41 792.903V792.903C1264.1 804.79 1312.99 805.154 1359.86 793.964L1623.41 731.041C1643.89 726.153 1665.4 728.222 1684.57 736.92V736.92C1707.27 747.223 1733.12 748.163 1756.5 739.539L1770.18 734.495C1789.22 727.477 1810.3 728.606 1828.47 737.617V737.617C1848.13 747.362 1871.1 747.853 1891.16 738.957L1896.67 736.51C1915.24 728.272 1936.52 728.762 1954.7 737.848V737.848C1973.78 747.391 1996.24 747.429 2015.35 737.95L2033.33 729.039C2040.48 725.493 2045.93 719.248 2048.47 711.681V711.681C2058.45 681.973 2101.54 685.453 2106.63 716.377L2128.05 846.66V846.66C2130.9 862.817 2118.48 877.634 2102.07 877.634H1949.49C1927.1 877.634 1904.97 882.507 1884.65 891.915L1821.54 921.131C1748.09 955.134 1667.11 969.597 1586.43 963.121L1192.5 931.5L767.527 923.588C675.358 921.872 583.96 906.421 496.349 877.743L364.936 834.727C337.244 825.662 308.051 822.08 278.99 824.181L182.808 831.132C104.862 836.766 38.5229 775.049 38.5229 696.899V692.817Z" fill="#F6F6F6" fill-opacity="0.22"/>
</svg>
