<svg width="2019" height="913" viewBox="0 0 2019 913" fill="none" xmlns="http://www.w3.org/2000/svg">
<path fill-rule="evenodd" clip-rule="evenodd" d="M61 365.655V50.9973L108.222 46.8529C151.232 43.0782 194.547 44.8028 237.121 51.9851L406.182 80.5064C564.715 107.252 726.063 113.184 886.132 98.1534L1141.31 74.1924C1246.55 64.3099 1352.67 69.6748 1456.38 90.121L1510.85 100.859C1535.24 105.668 1559.99 108.409 1584.84 109.053L1914.5 117.595C1918.72 117.705 1922.89 117.596 1927 117.28V220.713C1920.59 221.703 1914.13 223.572 1907.75 226.412L1884.16 236.911C1866.53 244.756 1846.83 246.646 1828.04 242.294L1771.29 229.154C1734.07 220.537 1695.76 238.3 1678.29 272.271C1662.21 303.532 1628.27 321.36 1593.4 316.849L1569.43 313.747C1505.31 305.449 1448.5 355.384 1448.5 420.037C1448.5 437.459 1452.75 454.618 1460.87 470.028L1495.4 535.5C1520.22 582.584 1515.93 639.722 1484.34 682.565C1461.48 713.571 1426.76 733.678 1388.49 738.075L1380.16 739.033C1353.17 742.133 1325.85 738.228 1300.82 727.694L1287.88 722.251C1276.65 717.524 1265.84 711.835 1255.59 705.247L1169.5 649.942C1108.1 617.359 1033.09 625.101 979.643 669.54L962.406 683.87C925.633 714.443 879.318 731.181 831.496 731.181H796.655C777.595 731.181 758.577 729.372 739.859 725.777L684.5 715.147C631.933 698.385 574.893 702.863 525.585 727.623L518.5 731.181C458.588 759.701 393.069 774.5 326.715 774.5H277H234.703C210.946 774.5 187.567 768.552 166.699 757.199L164.16 755.818C149.528 747.857 136.595 737.111 126.09 724.183C107.596 701.424 97.5 672.991 97.5 643.665V612.5L108.915 529.822C113.534 496.364 108.099 462.289 93.3014 431.929L61 365.655ZM808.76 475.16C810.04 475.747 811.027 476.6 811.72 477.72H830.44C829.587 471.587 826.813 466.733 822.12 463.16C817.48 459.587 811.453 457.8 804.04 457.8C798.227 457.8 793.16 459.027 788.84 461.48C784.52 463.88 781.187 467.267 778.84 471.64C776.547 476.013 775.4 481 775.4 486.6C775.4 492.2 776.547 497.187 778.84 501.56C781.187 505.933 784.52 509.347 788.84 511.8C793.213 514.2 798.333 515.4 804.2 515.4C810.813 515.4 816.28 513.907 820.6 510.92C824.92 507.88 828.307 504.253 830.76 500.04V482.28H801.88V494.84H816.04C813.533 498.147 810.227 499.8 806.12 499.8C801.8 499.8 798.6 498.707 796.52 496.52C794.44 494.333 793.4 491.027 793.4 486.6C793.4 482.76 794.333 479.747 796.2 477.56C798.067 475.32 800.707 474.2 804.12 474.2C805.933 474.2 807.48 474.52 808.76 475.16ZM865.396 515L868.196 506.44H887.076L889.876 515H908.596L887.956 458.36H867.476L846.756 515H865.396ZM877.636 477.32L882.756 493.08H872.516L877.636 477.32ZM944.071 494.68L954.711 515H974.231L961.911 493.32C965.858 492.04 968.871 489.933 970.951 487C973.085 484.067 974.151 480.707 974.151 476.92C974.151 473.4 973.325 470.253 971.671 467.48C970.071 464.653 967.645 462.44 964.391 460.84C961.138 459.187 957.218 458.36 952.631 458.36H926.231V515H943.991V494.68H944.071ZM951.031 482.84H943.991V473.24H951.031C952.685 473.24 953.938 473.667 954.791 474.52C955.698 475.373 956.151 476.547 956.151 478.04C956.151 479.693 955.725 480.92 954.871 481.72C954.018 482.467 952.738 482.84 951.031 482.84ZM1032.54 461.96C1028.12 459.56 1022.95 458.36 1017.03 458.36H993.425V515H1017.03C1022.95 515 1028.12 513.773 1032.54 511.32C1037.03 508.813 1040.47 505.4 1042.86 501.08C1045.27 496.76 1046.47 491.907 1046.47 486.52C1046.47 481.08 1045.27 476.227 1042.86 471.96C1040.47 467.693 1037.03 464.36 1032.54 461.96ZM1024.95 495.88C1022.6 498.067 1019.42 499.16 1015.42 499.16H1011.18V473.88H1015.42C1019.42 473.88 1022.6 474.973 1024.95 477.16C1027.29 479.347 1028.47 482.467 1028.47 486.52C1028.47 490.573 1027.29 493.693 1024.95 495.88ZM1084.24 479.48V472.52H1104.24V458.36H1066.48V515H1104.24V500.84H1084.24V492.84H1101.84V479.48H1084.24ZM1161.09 515H1178.85V458.36H1161.09V487.32L1142.29 458.36H1124.53V515H1142.29V486.52L1161.09 515ZM748.469 413.378C748.234 417.174 750.382 420.539 753.589 422.065C754.878 422.782 756.365 423.192 757.957 423.192H764.832C766.633 423.192 768.301 422.667 769.699 421.766C772.572 420.134 774.45 416.97 774.248 413.421L772.901 389.776C774.245 389.911 775.608 389.98 776.987 389.98C799.432 389.98 817.628 371.662 817.628 349.065C817.628 331.603 806.762 316.696 791.467 310.822C792.053 308.471 792.365 306.012 792.365 303.481C792.365 286.647 778.595 273 761.609 273C744.624 273 730.854 286.647 730.854 303.481C730.854 304.163 730.877 304.841 730.921 305.512C712.385 311.597 699 329.042 699 349.614C699 375.244 719.777 396.022 745.408 396.022C746.804 396.022 748.186 395.96 749.551 395.839L748.469 413.378ZM1182.57 396.022C1183.97 396.022 1185.35 395.96 1186.72 395.839L1185.63 413.378C1185.31 418.557 1189.43 422.932 1194.62 422.932H1202.43C1207.6 422.932 1211.71 418.584 1211.41 413.421L1209.92 387.116C1210.83 386.445 1211.73 385.742 1212.59 385.008C1213.11 385.027 1213.63 385.037 1214.15 385.037C1236.6 385.037 1254.79 366.719 1254.79 344.122C1254.79 324.422 1240.96 307.973 1222.55 304.08C1220.18 289.572 1207.49 278.492 1192.18 278.492C1175.43 278.492 1161.8 291.77 1161.44 308.288C1146.43 315.977 1136.17 331.596 1136.17 349.614C1136.17 375.244 1156.94 396.022 1182.57 396.022ZM919.88 295.257C920.131 290.477 924.081 286.73 928.867 286.73H949.101C953.902 286.73 957.857 290.498 958.09 295.293L960.718 349.386H961.757C966.175 349.386 969.757 352.968 969.757 357.386V357.862C969.757 362.281 966.175 365.862 961.757 365.862H961.519L963.806 412.947C964.056 418.083 959.959 422.383 954.817 422.383H922.675C917.519 422.383 913.417 418.059 913.688 412.91L916.164 365.862H900.368L902.655 412.947C902.905 418.083 898.808 422.383 893.666 422.383H861.524C856.368 422.383 852.266 418.059 852.537 412.91L855.013 365.862H849.793C845.374 365.862 841.793 362.281 841.793 357.862V357.386C841.793 352.968 845.374 349.386 849.793 349.386H855.88L858.729 295.257C858.98 290.477 862.93 286.73 867.716 286.73H887.95C892.751 286.73 896.707 290.498 896.939 295.293L899.567 349.386H917.031L919.88 295.257ZM1066.57 286.73C1061.79 286.73 1057.84 290.477 1057.59 295.257L1055.69 331.216H1037.43L1035.68 295.293C1035.45 290.498 1031.49 286.73 1026.69 286.73H1006.46C1001.67 286.73 997.724 290.477 997.472 295.257L995.58 331.216H990.389C985.971 331.216 982.389 334.797 982.389 339.216V339.692C982.389 344.11 985.971 347.692 990.389 347.692H994.713L991.28 412.91C991.009 418.059 995.111 422.383 1000.27 422.383H1032.41C1037.55 422.383 1041.65 418.082 1041.4 412.947L1038.23 347.692H1054.83L1051.39 412.91C1051.12 418.059 1055.22 422.383 1060.38 422.383H1092.52C1097.66 422.383 1101.76 418.083 1101.51 412.947L1098.34 347.692H1102.35C1106.77 347.692 1110.35 344.11 1110.35 339.692V339.216C1110.35 334.797 1106.77 331.216 1102.35 331.216H1097.54L1095.8 295.293C1095.56 290.498 1091.61 286.73 1086.81 286.73H1066.57ZM211.064 622.576C208.472 622.576 206.056 622.16 203.816 621.328C201.608 620.464 199.688 619.248 198.056 617.68C196.424 616.112 195.144 614.272 194.216 612.16C193.32 610.048 192.872 607.728 192.872 605.2C192.872 602.672 193.32 600.352 194.216 598.24C195.144 596.128 196.424 594.288 198.056 592.72C199.72 591.152 201.656 589.952 203.864 589.12C206.072 588.256 208.488 587.824 211.112 587.824C214.024 587.824 216.648 588.336 218.984 589.36C221.352 590.352 223.336 591.824 224.936 593.776L219.944 598.384C218.792 597.072 217.512 596.096 216.104 595.456C214.696 594.784 213.16 594.448 211.496 594.448C209.928 594.448 208.488 594.704 207.176 595.216C205.864 595.728 204.728 596.464 203.768 597.424C202.808 598.384 202.056 599.52 201.512 600.832C201 602.144 200.744 603.6 200.744 605.2C200.744 606.8 201 608.256 201.512 609.568C202.056 610.88 202.808 612.016 203.768 612.976C204.728 613.936 205.864 614.672 207.176 615.184C208.488 615.696 209.928 615.952 211.496 615.952C213.16 615.952 214.696 615.632 216.104 614.992C217.512 614.32 218.792 613.312 219.944 611.968L224.936 616.576C223.336 618.528 221.352 620.016 218.984 621.04C216.648 622.064 214.008 622.576 211.064 622.576ZM257.998 622.384C255.246 622.384 252.798 621.808 250.654 620.656C248.542 619.504 246.862 617.936 245.614 615.952C244.398 613.936 243.79 611.648 243.79 609.088C243.79 606.496 244.398 604.208 245.614 602.224C246.862 600.208 248.542 598.64 250.654 597.52C252.798 596.368 255.246 595.792 257.998 595.792C260.718 595.792 263.15 596.368 265.294 597.52C267.438 598.64 269.118 600.192 270.334 602.176C271.55 604.16 272.158 606.464 272.158 609.088C272.158 611.648 271.55 613.936 270.334 615.952C269.118 617.936 267.438 619.504 265.294 620.656C263.15 621.808 260.718 622.384 257.998 622.384ZM257.998 616.24C259.246 616.24 260.366 615.952 261.358 615.376C262.35 614.8 263.134 613.984 263.71 612.928C264.286 611.84 264.574 610.56 264.574 609.088C264.574 607.584 264.286 606.304 263.71 605.248C263.134 604.192 262.35 603.376 261.358 602.8C260.366 602.224 259.246 601.936 257.998 601.936C256.75 601.936 255.63 602.224 254.638 602.8C253.646 603.376 252.846 604.192 252.238 605.248C251.662 606.304 251.374 607.584 251.374 609.088C251.374 610.56 251.662 611.84 252.238 612.928C252.846 613.984 253.646 614.8 254.638 615.376C255.63 615.952 256.75 616.24 257.998 616.24ZM278.748 622V596.176H299.436V602.32H286.188V622H278.748ZM315.862 622.384C313.11 622.384 310.662 621.808 308.518 620.656C306.406 619.504 304.726 617.936 303.478 615.952C302.262 613.936 301.654 611.648 301.654 609.088C301.654 606.496 302.262 604.208 303.478 602.224C304.726 600.208 306.406 598.64 308.518 597.52C310.662 596.368 313.11 595.792 315.862 595.792C318.582 595.792 321.014 596.368 323.158 597.52C325.302 598.64 326.982 600.192 328.198 602.176C329.414 604.16 330.022 606.464 330.022 609.088C330.022 611.648 329.414 613.936 328.198 615.952C326.982 617.936 325.302 619.504 323.158 620.656C321.014 621.808 318.582 622.384 315.862 622.384ZM315.862 616.24C317.11 616.24 318.23 615.952 319.222 615.376C320.214 614.8 320.998 613.984 321.574 612.928C322.15 611.84 322.438 610.56 322.438 609.088C322.438 607.584 322.15 606.304 321.574 605.248C320.998 604.192 320.214 603.376 319.222 602.8C318.23 602.224 317.11 601.936 315.862 601.936C314.614 601.936 313.494 602.224 312.502 602.8C311.51 603.376 310.71 604.192 310.102 605.248C309.526 606.304 309.238 607.584 309.238 609.088C309.238 610.56 309.526 611.84 310.102 612.928C310.71 613.984 311.51 614.8 312.502 615.376C313.494 615.952 314.614 616.24 315.862 616.24ZM351.828 622.384C349.652 622.384 347.749 621.904 346.116 620.944C345.351 620.494 344.663 619.934 344.052 619.266V631.312H336.564V596.176H343.716V599.158C344.362 598.379 345.114 597.737 345.973 597.232C347.604 596.272 349.556 595.792 351.828 595.792C354.26 595.792 356.436 596.352 358.357 597.472C360.309 598.56 361.845 600.096 362.965 602.08C364.116 604.064 364.693 606.4 364.693 609.088C364.693 611.808 364.116 614.16 362.965 616.144C361.845 618.128 360.309 619.664 358.357 620.752C356.436 621.84 354.26 622.384 351.828 622.384ZM350.533 616.24C351.78 616.24 352.884 615.952 353.844 615.376C354.836 614.8 355.62 613.984 356.197 612.928C356.805 611.84 357.108 610.56 357.108 609.088C357.108 607.584 356.805 606.304 356.197 605.248C355.62 604.192 354.836 603.376 353.844 602.8C352.884 602.224 351.78 601.936 350.533 601.936C349.284 601.936 348.164 602.224 347.172 602.8C346.181 603.376 345.396 604.192 344.82 605.248C344.245 606.304 343.957 607.584 343.957 609.088C343.957 610.56 344.245 611.84 344.82 612.928C345.396 613.984 346.181 614.8 347.172 615.376C348.164 615.952 349.284 616.24 350.533 616.24ZM383.477 622.384C380.725 622.384 378.277 621.808 376.133 620.656C374.021 619.504 372.341 617.936 371.093 615.952C369.877 613.936 369.269 611.648 369.269 609.088C369.269 606.496 369.877 604.208 371.093 602.224C372.341 600.208 374.021 598.64 376.133 597.52C378.277 596.368 380.725 595.792 383.477 595.792C386.197 595.792 388.629 596.368 390.773 597.52C392.917 598.64 394.597 600.192 395.813 602.176C397.029 604.16 397.637 606.464 397.637 609.088C397.637 611.648 397.029 613.936 395.813 615.952C394.597 617.936 392.917 619.504 390.773 620.656C388.629 621.808 386.197 622.384 383.477 622.384ZM383.477 616.24C384.725 616.24 385.845 615.952 386.837 615.376C387.829 614.8 388.613 613.984 389.189 612.928C389.765 611.84 390.053 610.56 390.053 609.088C390.053 607.584 389.765 606.304 389.189 605.248C388.613 604.192 387.829 603.376 386.837 602.8C385.845 602.224 384.725 601.936 383.477 601.936C382.229 601.936 381.109 602.224 380.117 602.8C379.125 603.376 378.325 604.192 377.717 605.248C377.141 606.304 376.853 607.584 376.853 609.088C376.853 610.56 377.141 611.84 377.717 612.928C378.325 613.984 379.125 614.8 380.117 615.376C381.109 615.952 382.229 616.24 383.477 616.24ZM432.796 615.856H429.1V596.176H406.588L406.252 605.104C406.188 606.544 406.076 607.92 405.916 609.232C405.756 610.512 405.516 611.664 405.196 612.688C404.876 613.68 404.428 614.464 403.852 615.04C403.276 615.584 402.524 615.856 401.596 615.856H400.732V627.568H407.692V622H425.836V627.568H432.796V615.856ZM413.164 602.32H421.612V615.856H410.765C410.866 615.75 410.962 615.638 411.052 615.52C411.564 614.816 411.948 613.968 412.204 612.976C412.492 611.952 412.684 610.816 412.78 609.568C412.876 608.32 412.956 607.008 413.02 605.632L413.164 602.32ZM454.404 622V618.791C453.84 619.739 453.072 620.505 452.1 621.088C450.66 621.952 448.804 622.384 446.532 622.384C444.516 622.384 442.788 622.048 441.348 621.376C439.908 620.672 438.804 619.728 438.036 618.544C437.268 617.36 436.884 616.032 436.884 614.56C436.884 613.024 437.252 611.68 437.988 610.528C438.756 609.376 439.956 608.48 441.588 607.84C443.22 607.168 445.348 606.832 447.972 606.832H453.924C453.924 605.232 453.428 603.984 452.436 603.088C451.476 602.192 449.988 601.744 447.972 601.744C446.596 601.744 445.236 601.968 443.892 602.416C442.58 602.832 441.46 603.408 440.532 604.144L437.844 598.912C439.252 597.92 440.948 597.152 442.932 596.608C444.916 596.064 446.932 595.792 448.98 595.792C452.916 595.792 455.972 596.72 458.148 598.576C460.324 600.432 461.412 603.328 461.412 607.264V622H454.404ZM453.924 611.2V613.84C453.476 614.992 452.756 615.872 451.764 616.48C450.772 617.056 449.652 617.344 448.404 617.344C447.092 617.344 446.052 617.072 445.284 616.528C444.548 615.952 444.18 615.184 444.18 614.224C444.18 613.36 444.5 612.64 445.14 612.064C445.812 611.488 447.028 611.2 448.788 611.2H453.924ZM513.335 615.856H509.639V596.176H487.127L486.791 605.104C486.727 606.544 486.615 607.92 486.455 609.232C486.295 610.512 486.055 611.664 485.735 612.688C485.415 613.68 484.967 614.464 484.391 615.04C483.815 615.584 483.063 615.856 482.135 615.856H481.271V627.568H488.231V622H506.375V627.568H513.335V615.856ZM493.703 602.32H502.151V615.856H491.303C491.405 615.75 491.5 615.638 491.591 615.52C492.103 614.816 492.487 613.968 492.743 612.976C493.031 611.952 493.223 610.816 493.319 609.568C493.415 608.32 493.495 607.008 493.559 605.632L493.703 602.32ZM516.223 621.952L516.607 615.808L517.183 615.904H517.711C518.607 615.904 519.311 615.648 519.823 615.136C520.335 614.624 520.719 613.936 520.975 613.072C521.231 612.176 521.407 611.168 521.503 610.048C521.631 608.928 521.727 607.76 521.791 606.544L522.175 596.176H544.255V622H536.767V602.32H528.603L528.367 606.88C528.271 609.184 528.079 611.296 527.791 613.216C527.535 615.136 527.103 616.8 526.495 618.208C525.887 619.584 525.071 620.656 524.047 621.424C523.023 622.16 521.711 622.528 520.111 622.528C519.535 622.528 518.927 622.48 518.287 622.384C517.647 622.288 516.959 622.144 516.223 621.952ZM569.168 622V614.608H563.656L558.752 622H550.784L556.667 613.566C555.804 613.227 555.027 612.807 554.336 612.304C552.224 610.768 551.168 608.56 551.168 605.68C551.168 602.608 552.272 600.256 554.48 598.624C556.72 596.992 559.728 596.176 563.504 596.176H575.84V622H569.168ZM569.168 602.272V609.616H563.552C560.384 609.616 558.8 608.384 558.8 605.92C558.8 604.64 559.216 603.712 560.048 603.136C560.912 602.56 562.112 602.272 563.648 602.272H569.168ZM599.51 622V596.176H612.71C615.942 596.176 618.47 596.768 620.294 597.952C622.118 599.104 623.03 600.736 623.03 602.848C623.03 604.96 622.166 606.624 620.438 607.84C620.072 608.095 619.68 608.323 619.262 608.524C620.114 608.799 620.842 609.163 621.446 609.616C623.014 610.768 623.798 612.448 623.798 614.656C623.798 616.928 622.934 618.72 621.206 620.032C619.478 621.344 616.838 622 613.286 622H599.51ZM606.374 616.912H612.662C614.038 616.912 615.062 616.688 615.734 616.24C616.438 615.76 616.79 615.04 616.79 614.08C616.79 613.088 616.47 612.368 615.83 611.92C615.19 611.44 614.182 611.2 612.806 611.2H606.374V616.912ZM606.374 606.784H612.038C613.35 606.784 614.326 606.544 614.966 606.064C615.638 605.584 615.974 604.896 615.974 604C615.974 603.072 615.638 602.384 614.966 601.936C614.326 601.488 613.35 601.264 612.038 601.264H606.374V606.784ZM646.265 622V618.791C645.702 619.739 644.934 620.505 643.961 621.088C642.521 621.952 640.665 622.384 638.393 622.384C636.377 622.384 634.649 622.048 633.209 621.376C631.769 620.672 630.665 619.728 629.897 618.544C629.129 617.36 628.745 616.032 628.745 614.56C628.745 613.024 629.113 611.68 629.849 610.528C630.617 609.376 631.817 608.48 633.449 607.84C635.081 607.168 637.209 606.832 639.833 606.832H645.785C645.785 605.232 645.289 603.984 644.297 603.088C643.337 602.192 641.849 601.744 639.833 601.744C638.457 601.744 637.097 601.968 635.753 602.416C634.441 602.832 633.321 603.408 632.393 604.144L629.705 598.912C631.113 597.92 632.809 597.152 634.793 596.608C636.777 596.064 638.793 595.792 640.841 595.792C644.777 595.792 647.833 596.72 650.009 598.576C652.185 600.432 653.273 603.328 653.273 607.264V622H646.265ZM645.785 611.2V613.84C645.337 614.992 644.617 615.872 643.625 616.48C642.633 617.056 641.513 617.344 640.265 617.344C638.953 617.344 637.913 617.072 637.145 616.528C636.409 615.952 636.041 615.184 636.041 614.224C636.041 613.36 636.361 612.64 637.001 612.064C637.673 611.488 638.889 611.2 640.649 611.2H645.785ZM677.202 596.176V615.856H668.658V596.176H661.218V622H700.626V596.176H693.186V615.856H684.69V596.176H677.202ZM721.876 622.384C718.932 622.384 716.34 621.808 714.1 620.656C711.892 619.504 710.18 617.936 708.964 615.952C707.748 613.936 707.14 611.648 707.14 609.088C707.14 606.496 707.732 604.208 708.916 602.224C710.132 600.208 711.78 598.64 713.86 597.52C715.94 596.368 718.292 595.792 720.916 595.792C723.444 595.792 725.716 596.336 727.732 597.424C729.78 598.48 731.396 600.016 732.58 602.032C733.764 604.016 734.356 606.4 734.356 609.184C734.356 609.472 734.34 609.808 734.308 610.192C734.291 610.381 734.273 610.565 734.256 610.745C734.242 610.9 734.227 611.052 734.212 611.2H714.673C714.824 611.887 715.065 612.527 715.396 613.12C716.036 614.176 716.916 614.992 718.036 615.568C719.188 616.112 720.532 616.384 722.068 616.384C723.444 616.384 724.644 616.176 725.668 615.76C726.724 615.344 727.684 614.72 728.548 613.888L732.532 618.208C731.348 619.552 729.86 620.592 728.068 621.328C726.276 622.032 724.212 622.384 721.876 622.384ZM715.3 604.672C714.949 605.312 714.711 606.032 714.587 606.832H727.304C727.182 606.018 726.941 605.282 726.58 604.624C726.036 603.632 725.284 602.864 724.324 602.32C723.364 601.744 722.244 601.456 720.964 601.456C719.684 601.456 718.548 601.744 717.556 602.32C716.596 602.864 715.844 603.648 715.3 604.672ZM741.536 622V596.176H762.224V602.32H748.976V622H741.536ZM778.65 622.384C775.898 622.384 773.45 621.808 771.306 620.656C769.194 619.504 767.514 617.936 766.266 615.952C765.05 613.936 764.442 611.648 764.442 609.088C764.442 606.496 765.05 604.208 766.266 602.224C767.514 600.208 769.194 598.64 771.306 597.52C773.45 596.368 775.898 595.792 778.65 595.792C781.37 595.792 783.802 596.368 785.946 597.52C788.09 598.64 789.77 600.192 790.986 602.176C792.202 604.16 792.81 606.464 792.81 609.088C792.81 611.648 792.202 613.936 790.986 615.952C789.77 617.936 788.09 619.504 785.946 620.656C783.802 621.808 781.37 622.384 778.65 622.384ZM778.65 616.24C779.898 616.24 781.018 615.952 782.01 615.376C783.002 614.8 783.786 613.984 784.362 612.928C784.938 611.84 785.226 610.56 785.226 609.088C785.226 607.584 784.938 606.304 784.362 605.248C783.786 604.192 783.002 603.376 782.01 602.8C781.018 602.224 779.898 601.936 778.65 601.936C777.402 601.936 776.282 602.224 775.29 602.8C774.298 603.376 773.498 604.192 772.89 605.248C772.314 606.304 772.026 607.584 772.026 609.088C772.026 610.56 772.314 611.84 772.89 612.928C773.498 613.984 774.298 614.8 775.29 615.376C776.282 615.952 777.402 616.24 778.65 616.24ZM206.888 681.384C204.104 681.384 201.624 680.824 199.448 679.704C197.272 678.552 195.56 676.968 194.312 674.952C193.096 672.936 192.488 670.648 192.488 668.088C192.488 665.496 193.096 663.208 194.312 661.224C195.56 659.208 197.272 657.64 199.448 656.52C201.624 655.368 204.104 654.792 206.888 654.792C209.608 654.792 211.976 655.368 213.992 656.52C216.008 657.64 217.496 659.256 218.456 661.368L212.648 664.488C211.976 663.272 211.128 662.376 210.104 661.8C209.112 661.224 208.024 660.936 206.84 660.936C205.56 660.936 204.408 661.224 203.384 661.8C202.36 662.376 201.544 663.192 200.936 664.248C200.36 665.304 200.072 666.584 200.072 668.088C200.072 669.592 200.36 670.872 200.936 671.928C201.544 672.984 202.36 673.8 203.384 674.376C204.408 674.952 205.56 675.24 206.84 675.24C208.024 675.24 209.112 674.968 210.104 674.424C211.128 673.848 211.976 672.936 212.648 671.688L218.456 674.856C217.496 676.936 216.008 678.552 213.992 679.704C211.976 680.824 209.608 681.384 206.888 681.384ZM229.919 681V661.32H221.183V655.176H246.095V661.32H237.359V681H229.919ZM262.545 681.384C259.793 681.384 257.345 680.808 255.201 679.656C253.089 678.504 251.409 676.936 250.161 674.952C248.945 672.936 248.337 670.648 248.337 668.088C248.337 665.496 248.945 663.208 250.161 661.224C251.409 659.208 253.089 657.64 255.201 656.52C257.345 655.368 259.793 654.792 262.545 654.792C265.265 654.792 267.697 655.368 269.841 656.52C271.985 657.64 273.665 659.192 274.881 661.176C276.097 663.16 276.705 665.464 276.705 668.088C276.705 670.648 276.097 672.936 274.881 674.952C273.665 676.936 271.985 678.504 269.841 679.656C267.697 680.808 265.265 681.384 262.545 681.384ZM262.545 675.24C263.793 675.24 264.913 674.952 265.905 674.376C266.897 673.8 267.681 672.984 268.257 671.928C268.833 670.84 269.121 669.56 269.121 668.088C269.121 666.584 268.833 665.304 268.257 664.248C267.681 663.192 266.897 662.376 265.905 661.8C264.913 661.224 263.793 660.936 262.545 660.936C261.297 660.936 260.177 661.224 259.185 661.8C258.193 662.376 257.393 663.192 256.785 664.248C256.209 665.304 255.921 666.584 255.921 668.088C255.921 669.56 256.209 670.84 256.785 671.928C257.393 672.984 258.193 673.8 259.185 674.376C260.177 674.952 261.297 675.24 262.545 675.24ZM279.656 680.952L280.04 674.808L280.616 674.904H281.144C282.04 674.904 282.744 674.648 283.256 674.136C283.768 673.624 284.152 672.936 284.408 672.072C284.664 671.176 284.84 670.168 284.936 669.048C285.064 667.928 285.16 666.76 285.224 665.544L285.608 655.176H307.688V681H300.2V661.32H292.036L291.8 665.88C291.704 668.184 291.512 670.296 291.224 672.216C290.968 674.136 290.536 675.8 289.928 677.208C289.32 678.584 288.504 679.656 287.48 680.424C286.456 681.16 285.144 681.528 283.544 681.528C282.968 681.528 282.36 681.48 281.72 681.384C281.08 681.288 280.392 681.144 279.656 680.952ZM331.785 681V677.791C331.221 678.739 330.453 679.505 329.481 680.088C328.041 680.952 326.185 681.384 323.913 681.384C321.897 681.384 320.169 681.048 318.729 680.376C317.289 679.672 316.185 678.728 315.417 677.544C314.649 676.36 314.265 675.032 314.265 673.56C314.265 672.024 314.633 670.68 315.369 669.528C316.137 668.376 317.337 667.48 318.969 666.84C320.601 666.168 322.729 665.832 325.353 665.832H331.305C331.305 664.232 330.809 662.984 329.817 662.088C328.857 661.192 327.369 660.744 325.353 660.744C323.977 660.744 322.617 660.968 321.273 661.416C319.961 661.832 318.841 662.408 317.913 663.144L315.225 657.912C316.633 656.92 318.329 656.152 320.313 655.608C322.297 655.064 324.313 654.792 326.361 654.792C330.297 654.792 333.353 655.72 335.529 657.576C337.705 659.432 338.793 662.328 338.793 666.264V681H331.785ZM331.305 670.2V672.84C330.857 673.992 330.137 674.872 329.145 675.48C328.153 676.056 327.033 676.344 325.785 676.344C324.473 676.344 323.433 676.072 322.665 675.528C321.929 674.952 321.561 674.184 321.561 673.224C321.561 672.36 321.881 671.64 322.521 671.064C323.193 670.488 324.409 670.2 326.169 670.2H331.305ZM1662.86 408.28C1665.14 409.144 1667.6 409.576 1670.26 409.576C1672.88 409.576 1675.3 409.144 1677.5 408.28C1679.74 407.416 1681.68 406.216 1683.31 404.68C1684.98 403.112 1686.27 401.272 1687.2 399.16C1688.13 397.016 1688.59 394.696 1688.59 392.2C1688.59 389.672 1688.13 387.368 1687.2 385.288C1686.27 383.176 1684.98 381.336 1683.31 379.768C1681.68 378.2 1679.74 376.984 1677.5 376.12C1675.3 375.256 1672.86 374.824 1670.21 374.824C1667.58 374.824 1665.15 375.256 1662.91 376.12C1660.67 376.984 1658.72 378.2 1657.06 379.768C1655.39 381.336 1654.1 383.176 1653.17 385.288C1652.27 387.4 1651.82 389.704 1651.82 392.2C1651.82 394.696 1652.27 397 1653.17 399.112C1654.1 401.224 1655.38 403.064 1657.01 404.632C1658.67 406.2 1660.62 407.416 1662.86 408.28ZM1674.34 402.184C1673.09 402.696 1671.71 402.952 1670.21 402.952C1668.7 402.952 1667.31 402.696 1666.03 402.184C1664.75 401.672 1663.63 400.936 1662.67 399.976C1661.74 399.016 1661.01 397.88 1660.46 396.568C1659.95 395.224 1659.7 393.768 1659.7 392.2C1659.7 390.6 1659.95 389.144 1660.46 387.832C1661.01 386.52 1661.76 385.384 1662.72 384.424C1663.68 383.464 1664.78 382.728 1666.03 382.216C1667.31 381.704 1668.7 381.448 1670.21 381.448C1671.71 381.448 1673.1 381.704 1674.38 382.216C1675.66 382.728 1676.77 383.464 1677.7 384.424C1678.66 385.384 1679.39 386.52 1679.9 387.832C1680.45 389.144 1680.72 390.6 1680.72 392.2C1680.72 393.8 1680.45 395.256 1679.9 396.568C1679.39 397.88 1678.66 399.016 1677.7 399.976C1676.74 400.936 1675.62 401.672 1674.34 402.184ZM1695.45 383.176V409H1709.22C1712.77 409 1715.41 408.344 1717.14 407.032C1718.87 405.72 1719.73 403.928 1719.73 401.656C1719.73 399.448 1718.95 397.768 1717.38 396.616C1716.78 396.163 1716.05 395.799 1715.2 395.524C1715.62 395.323 1716.01 395.096 1716.37 394.84C1718.1 393.624 1718.97 391.96 1718.97 389.848C1718.97 387.736 1718.05 386.104 1716.23 384.952C1714.41 383.768 1711.88 383.176 1708.65 383.176H1695.45ZM1708.6 403.912H1702.31V398.2H1708.74C1710.12 398.2 1711.13 398.44 1711.77 398.92C1712.41 399.368 1712.73 400.088 1712.73 401.08C1712.73 402.04 1712.37 402.76 1711.67 403.24C1711 403.688 1709.97 403.912 1708.6 403.912ZM1707.97 393.784H1702.31V388.264H1707.97C1709.29 388.264 1710.26 388.488 1710.9 388.936C1711.57 389.384 1711.91 390.072 1711.91 391C1711.91 391.896 1711.57 392.584 1710.9 393.064C1710.26 393.544 1709.29 393.784 1707.97 393.784ZM1731.5 407.656C1733.64 408.808 1736.09 409.384 1738.84 409.384C1741.56 409.384 1743.99 408.808 1746.14 407.656C1748.28 406.504 1749.96 404.936 1751.18 402.952C1752.39 400.936 1753 398.648 1753 396.088C1753 393.464 1752.39 391.16 1751.18 389.176C1749.96 387.192 1748.28 385.64 1746.14 384.52C1743.99 383.368 1741.56 382.792 1738.84 382.792C1736.09 382.792 1733.64 383.368 1731.5 384.52C1729.39 385.64 1727.71 387.208 1726.46 389.224C1725.24 391.208 1724.63 393.496 1724.63 396.088C1724.63 398.648 1725.24 400.936 1726.46 402.952C1727.71 404.936 1729.39 406.504 1731.5 407.656ZM1742.2 402.376C1741.21 402.952 1740.09 403.24 1738.84 403.24C1737.59 403.24 1736.47 402.952 1735.48 402.376C1734.49 401.8 1733.69 400.984 1733.08 399.928C1732.51 398.84 1732.22 397.56 1732.22 396.088C1732.22 394.584 1732.51 393.304 1733.08 392.248C1733.69 391.192 1734.49 390.376 1735.48 389.8C1736.47 389.224 1737.59 388.936 1738.84 388.936C1740.09 388.936 1741.21 389.224 1742.2 389.8C1743.19 390.376 1743.98 391.192 1744.55 392.248C1745.13 393.304 1745.42 394.584 1745.42 396.088C1745.42 397.56 1745.13 398.84 1744.55 399.928C1743.98 400.984 1743.19 401.8 1742.2 402.376ZM1775.58 402.856V383.176H1783.06V402.856H1791.37H1791.56V383.176H1799V402.856H1802.6V414.136H1795.64V409H1791.37H1759.59V383.176H1767.03V402.856H1775.58ZM1807.63 383.176V409H1814.54L1827.07 393.64V409H1834.51V383.176H1827.64L1815.07 398.536V383.176H1807.63ZM1676.4 465.837V469.488H1669.25V465.81C1666.04 465.617 1663.24 465.067 1660.85 464.16C1657.84 463.008 1655.55 461.344 1653.98 459.168C1652.42 456.96 1651.63 454.272 1651.63 451.104C1651.63 447.936 1652.42 445.264 1653.98 443.088C1655.55 440.88 1657.84 439.2 1660.85 438.048C1663.24 437.141 1666.04 436.591 1669.25 436.398V432.96H1676.4V436.388C1679.65 436.572 1682.46 437.125 1684.85 438.048C1687.86 439.2 1690.13 440.88 1691.66 443.088C1693.2 445.296 1693.97 447.968 1693.97 451.104C1693.97 454.208 1693.2 456.88 1691.66 459.12C1690.16 461.328 1687.94 463.008 1684.99 464.16C1682.58 465.115 1679.71 465.674 1676.4 465.837ZM1669.25 442.515C1667.68 442.661 1666.31 442.916 1665.12 443.28C1663.14 443.888 1661.65 444.848 1660.66 446.16C1659.66 447.44 1659.17 449.088 1659.17 451.104C1659.17 453.12 1659.7 454.784 1660.75 456.096C1661.81 457.376 1663.33 458.336 1665.31 458.976C1666.48 459.328 1667.79 459.578 1669.25 459.726V442.515ZM1676.4 442.493V459.76C1678.03 459.611 1679.45 459.334 1680.67 458.928C1682.62 458.256 1684.08 457.28 1685.04 456C1686 454.688 1686.48 453.04 1686.48 451.056C1686.48 449.072 1685.98 447.44 1684.99 446.16C1684 444.88 1682.54 443.936 1680.62 443.328C1679.42 442.919 1678.01 442.641 1676.4 442.493ZM1710.15 466.944C1711.79 467.904 1713.69 468.384 1715.87 468.384C1718.3 468.384 1720.47 467.84 1722.39 466.752C1724.35 465.664 1725.88 464.128 1727 462.144C1728.15 460.16 1728.73 457.808 1728.73 455.088C1728.73 452.4 1728.15 450.064 1727 448.08C1725.88 446.096 1724.35 444.56 1722.39 443.472C1720.47 442.352 1718.3 441.792 1715.87 441.792C1713.59 441.792 1711.64 442.272 1710.01 443.232C1709.15 443.737 1708.4 444.379 1707.75 445.158V442.176H1700.6V477.312H1708.09V465.266C1708.7 465.934 1709.39 466.494 1710.15 466.944ZM1717.88 461.376C1716.92 461.952 1715.82 462.24 1714.57 462.24C1713.32 462.24 1712.2 461.952 1711.21 461.376C1710.22 460.8 1709.43 459.984 1708.86 458.928C1708.28 457.84 1707.99 456.56 1707.99 455.088C1707.99 453.584 1708.28 452.304 1708.86 451.248C1709.43 450.192 1710.22 449.376 1711.21 448.8C1712.2 448.224 1713.32 447.936 1714.57 447.936C1715.82 447.936 1716.92 448.224 1717.88 448.8C1718.87 449.376 1719.66 450.192 1720.23 451.248C1720.84 452.304 1721.15 453.584 1721.15 455.088C1721.15 456.56 1720.84 457.84 1720.23 458.928C1719.66 459.984 1718.87 460.8 1717.88 461.376ZM1734.23 477.072C1735.55 477.488 1736.87 477.696 1738.22 477.696C1739.79 477.696 1741.21 477.456 1742.49 476.976C1743.8 476.496 1744.99 475.664 1746.04 474.48C1747.13 473.296 1748.09 471.664 1748.92 469.584L1760.59 442.176H1753.39L1746.09 459.714L1738.84 442.176H1731.11L1742.29 468.216L1742.2 468.432C1741.69 469.584 1741.11 470.4 1740.47 470.88C1739.87 471.392 1739.03 471.648 1737.98 471.648C1737.24 471.648 1736.49 471.504 1735.72 471.216C1734.99 470.928 1734.33 470.528 1733.75 470.016L1731.02 475.344C1731.85 476.08 1732.92 476.656 1734.23 477.072ZM1777.01 458.208L1783.93 468H1792.76L1783.11 454.567L1792.13 442.176H1784.17L1777.17 452.208H1773.13V442.176H1765.64V468H1773.13V458.208H1777.01ZM1803.16 448.32V468H1810.6V448.32H1819.34V442.176H1794.43V448.32H1803.16ZM1851.36 442.176V468H1858.8V442.176H1851.36ZM1845.98 452.736C1844.29 451.232 1841.74 450.464 1838.35 450.432H1832.21V442.176H1824.77V468L1837.34 468.048C1840.93 468.048 1843.7 467.264 1845.65 465.696C1847.6 464.096 1848.58 461.872 1848.58 459.024C1848.58 456.304 1847.71 454.208 1845.98 452.736ZM1839.98 461.808C1839.22 462.448 1838.11 462.752 1836.67 462.72H1832.21V455.232L1836.67 455.28C1838.11 455.312 1839.22 455.616 1839.98 456.192C1840.75 456.736 1841.14 457.648 1841.14 458.928C1841.14 460.208 1840.75 461.168 1839.98 461.808ZM1673.33 518.072V527H1681.01V493.4H1666.51C1663.57 493.4 1661.01 493.896 1658.83 494.888C1656.66 495.88 1654.96 497.32 1653.74 499.208C1652.56 501.064 1651.97 503.304 1651.97 505.928C1651.97 508.456 1652.53 510.632 1653.65 512.456C1654.77 514.28 1656.38 515.672 1658.5 516.632C1658.69 516.719 1658.88 516.802 1659.08 516.881L1652.06 527H1660.27L1666.21 518.072H1673.33ZM1673.33 511.928V499.736H1666.7C1664.5 499.736 1662.8 500.248 1661.62 501.272C1660.46 502.296 1659.89 503.816 1659.89 505.832C1659.89 507.784 1660.45 509.288 1661.57 510.344C1662.69 511.4 1664.34 511.928 1666.51 511.928H1673.33ZM1690.29 501.176V527H1697.73V507.32H1710.98V501.176H1690.29ZM1720.06 525.656C1722.2 526.808 1724.65 527.384 1727.4 527.384C1730.12 527.384 1732.56 526.808 1734.7 525.656C1736.84 524.504 1738.52 522.936 1739.74 520.952C1740.96 518.936 1741.56 516.648 1741.56 514.088C1741.56 511.464 1740.96 509.16 1739.74 507.176C1738.52 505.192 1736.84 503.64 1734.7 502.52C1732.56 501.368 1730.12 500.792 1727.4 500.792C1724.65 500.792 1722.2 501.368 1720.06 502.52C1717.95 503.64 1716.27 505.208 1715.02 507.224C1713.8 509.208 1713.2 511.496 1713.2 514.088C1713.2 516.648 1713.8 518.936 1715.02 520.952C1716.27 522.936 1717.95 524.504 1720.06 525.656ZM1730.76 520.376C1729.77 520.952 1728.65 521.24 1727.4 521.24C1726.16 521.24 1725.04 520.952 1724.04 520.376C1723.05 519.8 1722.25 518.984 1721.64 517.928C1721.07 516.84 1720.78 515.56 1720.78 514.088C1720.78 512.584 1721.07 511.304 1721.64 510.248C1722.25 509.192 1723.05 508.376 1724.04 507.8C1725.04 507.224 1726.16 506.936 1727.4 506.936C1728.65 506.936 1729.77 507.224 1730.76 507.8C1731.76 508.376 1732.54 509.192 1733.12 510.248C1733.69 511.304 1733.98 512.584 1733.98 514.088C1733.98 515.56 1733.69 516.84 1733.12 517.928C1732.54 518.984 1731.76 519.8 1730.76 520.376ZM1773.03 520.856H1776.72V532.568H1769.76V527H1751.62V532.568H1744.66V520.856H1745.52C1746.45 520.856 1747.2 520.584 1747.78 520.04C1748.36 519.464 1748.8 518.68 1749.12 517.688C1749.44 516.664 1749.68 515.512 1749.84 514.232C1750 512.92 1750.12 511.544 1750.18 510.104L1750.52 501.176H1773.03V520.856ZM1765.54 520.856V507.32H1757.09L1756.95 510.632C1756.88 512.008 1756.8 513.32 1756.71 514.568C1756.61 515.816 1756.42 516.952 1756.13 517.976C1755.88 518.968 1755.49 519.816 1754.98 520.52C1754.89 520.638 1754.79 520.75 1754.69 520.856H1765.54ZM1809.47 501.176V527H1816.91V501.176H1809.47ZM1804.09 511.736C1802.4 510.232 1799.85 509.464 1796.46 509.432H1790.32V501.176H1782.88V527L1795.45 527.048C1799.04 527.048 1801.8 526.264 1803.76 524.696C1805.71 523.096 1806.68 520.872 1806.68 518.024C1806.68 515.304 1805.82 513.208 1804.09 511.736ZM1798.09 520.808C1797.32 521.448 1796.22 521.752 1794.78 521.72H1790.32V514.232L1794.78 514.28C1796.22 514.312 1797.32 514.616 1798.09 515.192C1798.86 515.736 1799.24 516.648 1799.24 517.928C1799.24 519.208 1798.86 520.168 1798.09 520.808Z" fill="#F6F6F6"/>
<path d="M14 122.676C14 80.7084 47.705 46.5211 89.6681 45.9249L753 36.5L1423.19 119.72L1827.77 224.85C1834.59 226.622 1839.7 232.275 1840.77 239.234V239.234C1842.38 249.615 1834.62 259.093 1824.13 259.567L1401.2 278.645C1366.55 280.208 1331.84 277.228 1297.96 269.779L1007.1 205.831C877.258 177.285 745.047 160.865 612.169 156.782L326.128 147.992C306.459 147.387 286.807 149.665 267.797 154.753L110.604 196.825C61.8579 209.871 14 173.138 14 122.676V122.676Z" fill="#F6F6F6" fill-opacity="0.22"/>
<path d="M0.28669 491.986C-4.94657 325.073 165.735 209.71 318.605 276.927L944.711 552.226C1015.05 583.154 1094.75 585.097 1166.51 557.632L1258.25 522.523C1326.26 496.495 1403.28 518.929 1446.68 577.407V577.407C1482.55 625.751 1542.23 650.277 1601.73 641.132L1957.71 586.416C1996.88 580.396 2028.11 618.662 2014.35 655.825V655.825C2010.24 666.94 2010.05 679.127 2013.81 690.365L2015.11 694.223C2029.4 736.921 1995.97 780.527 1951.02 777.802L1590.64 755.949C1558.41 753.995 1526.08 757.134 1494.84 765.249L1426.89 782.898C1311.3 812.918 1190.22 814.89 1073.72 788.651L919.558 753.93C832.408 734.302 743.581 723.05 654.289 720.33L284.87 709.074C274.066 708.745 263.253 709.189 252.512 710.401V710.401C120.799 725.268 4.4405 624.471 0.28669 491.986V491.986Z" fill="#F6F6F6" fill-opacity="0.22"/>
</svg>
