<svg width="1866" height="1098" viewBox="0 0 1866 1098" fill="none" xmlns="http://www.w3.org/2000/svg">
<g clip-path="url(#clip0_109_3)">
<path fill-rule="evenodd" clip-rule="evenodd" d="M0 491.141V224.796H111H461.852C497.832 224.796 527 195.628 527 159.648C527 123.668 556.168 94.5 592.148 94.5H1292.35C1328.33 94.5 1357.5 123.668 1357.5 159.648C1357.5 195.628 1386.67 224.796 1422.65 224.796H1471.1C1510.26 224.796 1542 193.054 1542 153.898V142.615C1542 109.691 1568.69 83 1601.62 83H1612.37C1632.33 83 1649.92 69.9019 1655.64 50.7816C1662.56 27.6744 1686.41 14.0777 1709.82 19.8979L1733.15 25.6993C1750.24 29.9499 1768.33 25.4057 1781.39 13.5808C1808.35 -10.8339 1851.33 -1.36443 1865.54 32.1173L1866 33.2091V600.854C1862.78 601.669 1859.43 602.098 1856 602.098H1820.11C1809.01 602.098 1799.18 609.244 1795.75 619.798C1792.32 630.352 1782.49 637.498 1771.39 637.498H1760.19C1749.02 637.498 1739.09 630.379 1735.5 619.798C1731.91 609.217 1721.98 602.098 1710.81 602.098H1688.36C1677.03 602.098 1666.9 609.165 1663 619.798C1659.1 630.43 1648.97 637.498 1637.64 637.498H1632.19C1621.02 637.498 1611.09 630.379 1607.5 619.798C1603.91 609.217 1593.98 602.098 1582.81 602.098H1557.36C1546.03 602.098 1535.9 609.165 1532 619.798C1528.1 630.43 1517.97 637.498 1506.64 637.498H1500.63C1489.17 637.498 1478.95 630.269 1475.13 619.458C1471.43 608.983 1461.7 601.835 1450.6 601.436L1436.3 600.922C1409.64 599.964 1387.5 621.319 1387.5 648V720.5V723.181C1387.5 785.037 1337.36 835.181 1275.5 835.181H1171H1043H844.5H707H652.955C583.392 835.181 527 778.789 527 709.227V703.617C527 648.236 488.766 600.188 434.8 587.75C407.482 581.453 383.267 565.707 366.431 543.291L364.189 540.306C329.238 493.771 267.478 476.367 213.372 497.805L191.964 506.288C162.026 518.15 129.195 520.66 97.8011 513.487L0 491.141ZM802.76 551.16C804.04 551.747 805.027 552.6 805.72 553.72H824.44C823.587 547.587 820.813 542.733 816.12 539.16C811.48 535.587 805.453 533.8 798.04 533.8C792.227 533.8 787.16 535.027 782.84 537.48C778.52 539.88 775.187 543.267 772.84 547.64C770.547 552.013 769.4 557 769.4 562.6C769.4 568.2 770.547 573.187 772.84 577.56C775.187 581.933 778.52 585.347 782.84 587.8C787.213 590.2 792.333 591.4 798.2 591.4C804.813 591.4 810.28 589.907 814.6 586.92C818.92 583.88 822.307 580.253 824.76 576.04V558.28H795.88V570.84H810.04C807.533 574.147 804.227 575.8 800.12 575.8C795.8 575.8 792.6 574.707 790.52 572.52C788.44 570.333 787.4 567.027 787.4 562.6C787.4 558.76 788.333 555.747 790.2 553.56C792.067 551.32 794.707 550.2 798.12 550.2C799.933 550.2 801.48 550.52 802.76 551.16ZM859.396 591L862.196 582.44H881.076L883.876 591H902.596L881.956 534.36H861.476L840.756 591H859.396ZM871.636 553.32L876.756 569.08H866.516L871.636 553.32ZM938.071 570.68L948.711 591H968.231L955.911 569.32C959.858 568.04 962.871 565.933 964.951 563C967.085 560.067 968.151 556.707 968.151 552.92C968.151 549.4 967.325 546.253 965.671 543.48C964.071 540.653 961.645 538.44 958.391 536.84C955.138 535.187 951.218 534.36 946.631 534.36H920.231V591H937.991V570.68H938.071ZM945.031 558.84H937.991V549.24H945.031C946.685 549.24 947.938 549.667 948.791 550.52C949.698 551.373 950.151 552.547 950.151 554.04C950.151 555.693 949.725 556.92 948.871 557.72C948.018 558.467 946.738 558.84 945.031 558.84ZM1026.55 537.96C1022.12 535.56 1016.95 534.36 1011.03 534.36H987.425V591H1011.03C1016.95 591 1022.12 589.773 1026.55 587.32C1031.03 584.813 1034.46 581.4 1036.86 577.08C1039.27 572.76 1040.46 567.907 1040.46 562.52C1040.46 557.08 1039.27 552.227 1036.86 547.96C1034.46 543.693 1031.03 540.36 1026.55 537.96ZM1018.95 571.88C1016.6 574.067 1013.42 575.16 1009.42 575.16H1005.18V549.88H1009.42C1013.42 549.88 1016.6 550.973 1018.95 553.16C1021.29 555.347 1022.47 558.467 1022.47 562.52C1022.47 566.573 1021.29 569.693 1018.95 571.88ZM1078.24 555.48V548.52H1098.24V534.36H1060.48V591H1098.24V576.84H1078.24V568.84H1095.84V555.48H1078.24ZM1155.09 591H1172.85V534.36H1155.09V563.32L1136.29 534.36H1118.53V591H1136.29V562.52L1155.09 591ZM742.469 489.378C742.234 493.174 744.382 496.539 747.589 498.065C748.878 498.782 750.365 499.193 751.957 499.193H758.832C760.633 499.193 762.301 498.667 763.699 497.766C766.572 496.134 768.45 492.97 768.248 489.421L766.901 465.776C768.245 465.911 769.608 465.98 770.987 465.98C793.432 465.98 811.628 447.662 811.628 425.065C811.628 407.603 800.762 392.696 785.467 386.822C786.053 384.471 786.365 382.012 786.365 379.481C786.365 362.647 772.595 349 755.609 349C738.624 349 724.854 362.647 724.854 379.481C724.854 380.163 724.877 380.841 724.921 381.512C706.385 387.597 693 405.042 693 425.614C693 451.244 713.777 472.022 739.408 472.022C740.804 472.022 742.186 471.96 743.551 471.839L742.469 489.378ZM1176.57 472.022C1177.97 472.022 1179.35 471.96 1180.72 471.839L1179.63 489.378C1179.31 494.557 1183.43 498.932 1188.62 498.932H1196.43C1201.6 498.932 1205.71 494.584 1205.41 489.421L1203.92 463.116C1204.83 462.445 1205.73 461.742 1206.59 461.008C1207.11 461.028 1207.63 461.037 1208.15 461.037C1230.6 461.037 1248.79 442.719 1248.79 420.122C1248.79 400.422 1234.96 383.973 1216.55 380.08C1214.18 365.572 1201.49 354.492 1186.18 354.492C1169.43 354.492 1155.8 367.77 1155.44 384.288C1140.43 391.977 1130.17 407.596 1130.17 425.614C1130.17 451.244 1150.94 472.022 1176.57 472.022ZM913.88 371.257C914.131 366.477 918.081 362.73 922.867 362.73H943.101C947.902 362.73 951.857 366.498 952.09 371.293L954.718 425.386H955.757C960.175 425.386 963.757 428.968 963.757 433.386V433.862C963.757 438.281 960.175 441.862 955.757 441.862H955.519L957.806 488.947C958.056 494.083 953.959 498.383 948.817 498.383H916.675C911.519 498.383 907.417 494.06 907.688 488.91L910.164 441.862H894.368L896.655 488.947C896.905 494.083 892.808 498.383 887.666 498.383H855.524C850.368 498.383 846.266 494.06 846.537 488.91L849.013 441.862H843.793C839.374 441.862 835.793 438.281 835.793 433.862V433.386C835.793 428.968 839.374 425.386 843.793 425.386H849.88L852.729 371.257C852.98 366.477 856.93 362.73 861.716 362.73H881.95C886.751 362.73 890.707 366.498 890.939 371.293L893.567 425.386H911.031L913.88 371.257ZM1060.57 362.73C1055.79 362.73 1051.84 366.477 1051.58 371.257L1049.69 407.216H1031.43L1029.68 371.293C1029.45 366.498 1025.49 362.73 1020.69 362.73H1000.46C995.673 362.73 991.724 366.477 991.472 371.257L989.58 407.216H984.389C979.971 407.216 976.389 410.797 976.389 415.216V415.692C976.389 420.11 979.971 423.692 984.389 423.692H988.713L985.28 488.91C985.009 494.06 989.111 498.383 994.268 498.383H1026.41C1031.55 498.383 1035.65 494.083 1035.4 488.947L1032.23 423.692H1048.83L1045.39 488.91C1045.12 494.06 1049.22 498.383 1054.38 498.383H1086.52C1091.66 498.383 1095.76 494.083 1095.51 488.947L1092.34 423.692H1096.35C1100.77 423.692 1104.35 420.11 1104.35 415.692V415.216C1104.35 410.797 1100.77 407.216 1096.35 407.216H1091.54L1089.8 371.293C1089.56 366.498 1085.61 362.73 1080.81 362.73H1060.57ZM93.064 691.576C90.472 691.576 88.056 691.16 85.816 690.328C83.608 689.464 81.688 688.248 80.056 686.68C78.424 685.112 77.144 683.272 76.216 681.16C75.32 679.048 74.872 676.728 74.872 674.2C74.872 671.672 75.32 669.352 76.216 667.24C77.144 665.128 78.424 663.288 80.056 661.72C81.72 660.152 83.656 658.952 85.864 658.12C88.072 657.256 90.488 656.824 93.112 656.824C96.024 656.824 98.648 657.336 100.984 658.36C103.352 659.352 105.336 660.824 106.936 662.776L101.944 667.384C100.792 666.072 99.512 665.096 98.104 664.456C96.696 663.784 95.16 663.448 93.496 663.448C91.928 663.448 90.488 663.704 89.176 664.216C87.864 664.728 86.728 665.464 85.768 666.424C84.808 667.384 84.056 668.52 83.512 669.832C83 671.144 82.744 672.6 82.744 674.2C82.744 675.8 83 677.256 83.512 678.568C84.056 679.88 84.808 681.016 85.768 681.976C86.728 682.936 87.864 683.672 89.176 684.184C90.488 684.696 91.928 684.952 93.496 684.952C95.16 684.952 96.696 684.632 98.104 683.992C99.512 683.32 100.792 682.312 101.944 680.968L106.936 685.576C105.336 687.528 103.352 689.016 100.984 690.04C98.648 691.064 96.008 691.576 93.064 691.576ZM139.998 691.384C137.246 691.384 134.798 690.808 132.654 689.656C130.542 688.504 128.862 686.936 127.614 684.952C126.398 682.936 125.79 680.648 125.79 678.088C125.79 675.496 126.398 673.208 127.614 671.224C128.862 669.208 130.542 667.64 132.654 666.52C134.798 665.368 137.246 664.792 139.998 664.792C142.718 664.792 145.15 665.368 147.294 666.52C149.438 667.64 151.118 669.192 152.334 671.176C153.55 673.16 154.158 675.464 154.158 678.088C154.158 680.648 153.55 682.936 152.334 684.952C151.118 686.936 149.438 688.504 147.294 689.656C145.15 690.808 142.718 691.384 139.998 691.384ZM139.998 685.24C141.246 685.24 142.366 684.952 143.358 684.376C144.35 683.8 145.134 682.984 145.71 681.928C146.286 680.84 146.574 679.56 146.574 678.088C146.574 676.584 146.286 675.304 145.71 674.248C145.134 673.192 144.35 672.376 143.358 671.8C142.366 671.224 141.246 670.936 139.998 670.936C138.75 670.936 137.63 671.224 136.638 671.8C135.646 672.376 134.846 673.192 134.238 674.248C133.662 675.304 133.374 676.584 133.374 678.088C133.374 679.56 133.662 680.84 134.238 681.928C134.846 682.984 135.646 683.8 136.638 684.376C137.63 684.952 138.75 685.24 139.998 685.24ZM160.748 665.176H181.436V671.32H168.188V691H160.748V665.176ZM197.862 691.384C195.11 691.384 192.662 690.808 190.518 689.656C188.406 688.504 186.726 686.936 185.478 684.952C184.262 682.936 183.654 680.648 183.654 678.088C183.654 675.496 184.262 673.208 185.478 671.224C186.726 669.208 188.406 667.64 190.518 666.52C192.662 665.368 195.11 664.792 197.862 664.792C200.582 664.792 203.014 665.368 205.158 666.52C207.302 667.64 208.982 669.192 210.198 671.176C211.414 673.16 212.022 675.464 212.022 678.088C212.022 680.648 211.414 682.936 210.198 684.952C208.982 686.936 207.302 688.504 205.158 689.656C203.014 690.808 200.582 691.384 197.862 691.384ZM197.862 685.24C199.11 685.24 200.23 684.952 201.222 684.376C202.214 683.8 202.998 682.984 203.574 681.928C204.15 680.84 204.438 679.56 204.438 678.088C204.438 676.584 204.15 675.304 203.574 674.248C202.998 673.192 202.214 672.376 201.222 671.8C200.23 671.224 199.11 670.936 197.862 670.936C196.614 670.936 195.494 671.224 194.502 671.8C193.51 672.376 192.71 673.192 192.102 674.248C191.526 675.304 191.238 676.584 191.238 678.088C191.238 679.56 191.526 680.84 192.102 681.928C192.71 682.984 193.51 683.8 194.502 684.376C195.494 684.952 196.614 685.24 197.862 685.24ZM233.828 691.384C231.652 691.384 229.749 690.904 228.117 689.944C227.351 689.494 226.663 688.934 226.052 688.266V700.312H218.564V665.176H225.716V668.158C226.362 667.379 227.114 666.737 227.973 666.232C229.604 665.272 231.557 664.792 233.828 664.792C236.26 664.792 238.436 665.352 240.356 666.472C242.309 667.56 243.844 669.096 244.964 671.08C246.117 673.064 246.693 675.4 246.693 678.088C246.693 680.808 246.117 683.16 244.964 685.144C243.844 687.128 242.309 688.664 240.356 689.752C238.436 690.84 236.26 691.384 233.828 691.384ZM232.533 685.24C233.781 685.24 234.884 684.952 235.844 684.376C236.837 683.8 237.62 682.984 238.197 681.928C238.805 680.84 239.109 679.56 239.109 678.088C239.109 676.584 238.805 675.304 238.197 674.248C237.62 673.192 236.837 672.376 235.844 671.8C234.884 671.224 233.781 670.936 232.533 670.936C231.285 670.936 230.164 671.224 229.173 671.8C228.18 672.376 227.396 673.192 226.82 674.248C226.244 675.304 225.956 676.584 225.956 678.088C225.956 679.56 226.244 680.84 226.82 681.928C227.396 682.984 228.18 683.8 229.173 684.376C230.164 684.952 231.285 685.24 232.533 685.24ZM265.477 691.384C262.725 691.384 260.277 690.808 258.133 689.656C256.021 688.504 254.341 686.936 253.093 684.952C251.877 682.936 251.269 680.648 251.269 678.088C251.269 675.496 251.877 673.208 253.093 671.224C254.341 669.208 256.021 667.64 258.133 666.52C260.277 665.368 262.725 664.792 265.477 664.792C268.197 664.792 270.629 665.368 272.773 666.52C274.917 667.64 276.597 669.192 277.813 671.176C279.029 673.16 279.637 675.464 279.637 678.088C279.637 680.648 279.029 682.936 277.813 684.952C276.597 686.936 274.917 688.504 272.773 689.656C270.629 690.808 268.197 691.384 265.477 691.384ZM265.477 685.24C266.725 685.24 267.845 684.952 268.837 684.376C269.829 683.8 270.613 682.984 271.189 681.928C271.765 680.84 272.053 679.56 272.053 678.088C272.053 676.584 271.765 675.304 271.189 674.248C270.613 673.192 269.829 672.376 268.837 671.8C267.845 671.224 266.725 670.936 265.477 670.936C264.229 670.936 263.109 671.224 262.117 671.8C261.125 672.376 260.325 673.192 259.717 674.248C259.141 675.304 258.853 676.584 258.853 678.088C258.853 679.56 259.141 680.84 259.717 681.928C260.325 682.984 261.125 683.8 262.117 684.376C263.109 684.952 264.229 685.24 265.477 685.24ZM314.796 684.856H311.1V665.176H288.588L288.252 674.104C288.188 675.544 288.076 676.92 287.916 678.232C287.756 679.512 287.516 680.664 287.196 681.688C286.876 682.68 286.428 683.464 285.852 684.04C285.276 684.584 284.524 684.856 283.596 684.856H282.732V696.568H289.692V691H307.836V696.568H314.796V684.856ZM295.164 671.32H303.612V684.856H292.765C292.837 684.78 292.907 684.701 292.974 684.619C293.001 684.586 293.026 684.553 293.052 684.52C293.564 683.816 293.948 682.968 294.204 681.976C294.492 680.952 294.684 679.816 294.78 678.568C294.876 677.32 294.956 676.008 295.02 674.632L295.164 671.32ZM336.404 691V687.791C335.84 688.739 335.072 689.505 334.1 690.088C332.66 690.952 330.804 691.384 328.532 691.384C326.516 691.384 324.788 691.048 323.348 690.376C321.908 689.672 320.804 688.728 320.036 687.544C319.268 686.36 318.884 685.032 318.884 683.56C318.884 682.024 319.252 680.68 319.988 679.528C320.756 678.376 321.956 677.48 323.588 676.84C325.22 676.168 327.348 675.832 329.972 675.832H335.924C335.924 674.232 335.428 672.984 334.436 672.088C333.476 671.192 331.988 670.744 329.972 670.744C328.596 670.744 327.236 670.968 325.892 671.416C324.58 671.832 323.46 672.408 322.532 673.144L319.844 667.912C321.252 666.92 322.948 666.152 324.932 665.608C326.916 665.064 328.932 664.792 330.98 664.792C334.916 664.792 337.972 665.72 340.148 667.576C342.324 669.432 343.412 672.328 343.412 676.264V691H336.404ZM335.924 680.2V682.84C335.476 683.992 334.756 684.872 333.764 685.48C332.772 686.056 331.652 686.344 330.404 686.344C329.092 686.344 328.052 686.072 327.284 685.528C326.548 684.952 326.18 684.184 326.18 683.224C326.18 682.36 326.5 681.64 327.14 681.064C327.812 680.488 329.028 680.2 330.788 680.2H335.924ZM105.544 743.856H101.848V724.176H79.336L79 733.104C78.936 734.544 78.824 735.92 78.664 737.232C78.504 738.512 78.264 739.664 77.944 740.688C77.624 741.68 77.176 742.464 76.6 743.04C76.024 743.584 75.272 743.856 74.344 743.856H73.48V755.568H80.44V750H98.584V755.568H105.544V743.856ZM94.36 730.32V743.856H83.5128C83.614 743.75 83.7097 743.638 83.8 743.52C84.312 742.816 84.696 741.968 84.952 740.976C85.24 739.952 85.432 738.816 85.528 737.568C85.624 736.32 85.704 735.008 85.768 733.632L85.912 730.32H94.36ZM108.432 749.952L108.816 743.808L109.392 743.904H109.92C110.816 743.904 111.52 743.648 112.032 743.136C112.544 742.624 112.928 741.936 113.184 741.072C113.44 740.176 113.616 739.168 113.712 738.048C113.84 736.928 113.936 735.76 114 734.544L114.384 724.176H136.464V750H128.976V730.32H120.813L120.576 734.88C120.48 737.184 120.288 739.296 120 741.216C119.744 743.136 119.312 744.8 118.704 746.208C118.096 747.584 117.28 748.656 116.256 749.424C115.232 750.16 113.92 750.528 112.32 750.528C111.744 750.528 111.136 750.48 110.496 750.384C109.856 750.288 109.168 750.144 108.432 749.952ZM161.377 750V742.608H155.865L150.961 750H142.993L148.876 741.566C148.014 741.227 147.236 740.807 146.545 740.304C144.433 738.768 143.377 736.56 143.377 733.68C143.377 730.608 144.481 728.256 146.689 726.624C148.929 724.992 151.937 724.176 155.713 724.176H168.049V750H161.377ZM161.377 730.272V737.616H155.761C152.593 737.616 151.009 736.384 151.009 733.92C151.009 732.64 151.425 731.712 152.257 731.136C153.121 730.56 154.321 730.272 155.857 730.272H161.377ZM191.719 750V724.176H204.919C208.151 724.176 210.679 724.768 212.503 725.952C214.327 727.104 215.239 728.736 215.239 730.848C215.239 732.96 214.375 734.624 212.647 735.84C212.281 736.096 211.889 736.323 211.471 736.524C212.323 736.799 213.051 737.163 213.655 737.616C215.223 738.768 216.007 740.448 216.007 742.656C216.007 744.928 215.143 746.72 213.415 748.032C211.687 749.344 209.047 750 205.495 750H191.719ZM198.583 744.912H204.871C206.247 744.912 207.271 744.688 207.943 744.24C208.647 743.76 208.999 743.04 208.999 742.08C208.999 741.088 208.679 740.368 208.039 739.92C207.399 739.44 206.391 739.2 205.015 739.2H198.583V744.912ZM198.583 734.784H204.247C205.559 734.784 206.535 734.544 207.175 734.064C207.847 733.584 208.183 732.896 208.183 732C208.183 731.072 207.847 730.384 207.175 729.936C206.535 729.488 205.559 729.264 204.247 729.264H198.583V734.784ZM238.475 750V746.791C237.911 747.739 237.143 748.505 236.171 749.088C234.731 749.952 232.875 750.384 230.603 750.384C228.587 750.384 226.859 750.048 225.419 749.376C223.979 748.672 222.875 747.728 222.107 746.544C221.339 745.36 220.955 744.032 220.955 742.56C220.955 741.024 221.323 739.68 222.059 738.528C222.827 737.376 224.027 736.48 225.659 735.84C227.291 735.168 229.419 734.832 232.043 734.832H237.995C237.995 733.232 237.499 731.984 236.507 731.088C235.547 730.192 234.059 729.744 232.043 729.744C230.667 729.744 229.307 729.968 227.963 730.416C226.651 730.832 225.531 731.408 224.603 732.144L221.915 726.912C223.323 725.92 225.019 725.152 227.003 724.608C228.987 724.064 231.003 723.792 233.051 723.792C236.987 723.792 240.043 724.72 242.219 726.576C244.395 728.432 245.483 731.328 245.483 735.264V750H238.475ZM237.995 739.2V741.84C237.547 742.992 236.827 743.872 235.835 744.48C234.843 745.056 233.723 745.344 232.475 745.344C231.163 745.344 230.123 745.072 229.355 744.528C228.619 743.952 228.251 743.184 228.251 742.224C228.251 741.36 228.571 740.64 229.211 740.064C229.883 739.488 231.099 739.2 232.859 739.2H237.995ZM269.411 724.176V743.856H260.867V724.176H253.428V750H292.836V724.176H285.396V743.856H276.9V724.176H269.411ZM314.085 750.384C311.141 750.384 308.549 749.808 306.309 748.656C304.101 747.504 302.389 745.936 301.173 743.952C299.957 741.936 299.349 739.648 299.349 737.088C299.349 734.496 299.941 732.208 301.125 730.224C302.341 728.208 303.989 726.64 306.069 725.52C308.149 724.368 310.501 723.792 313.125 723.792C315.653 723.792 317.925 724.336 319.941 725.424C321.989 726.48 323.605 728.016 324.789 730.032C325.973 732.016 326.565 734.4 326.565 737.184C326.565 737.472 326.549 737.808 326.517 738.192C326.501 738.375 326.484 738.555 326.467 738.729C326.452 738.89 326.437 739.047 326.421 739.2H306.882C307.033 739.887 307.274 740.527 307.605 741.12C308.245 742.176 309.125 742.992 310.245 743.568C311.397 744.112 312.741 744.384 314.277 744.384C315.653 744.384 316.853 744.176 317.877 743.76C318.933 743.344 319.893 742.72 320.757 741.888L324.741 746.208C323.557 747.552 322.069 748.592 320.277 749.328C318.485 750.032 316.421 750.384 314.085 750.384ZM307.509 732.672C307.158 733.312 306.921 734.032 306.796 734.832H319.513C319.392 734.018 319.15 733.282 318.789 732.624C318.245 731.632 317.493 730.864 316.533 730.32C315.573 729.744 314.453 729.456 313.173 729.456C311.893 729.456 310.757 729.744 309.765 730.32C308.805 730.864 308.053 731.648 307.509 732.672ZM333.745 724.176H354.433V730.32H341.185V750H333.745V724.176ZM370.859 750.384C368.107 750.384 365.659 749.808 363.515 748.656C361.403 747.504 359.723 745.936 358.475 743.952C357.259 741.936 356.651 739.648 356.651 737.088C356.651 734.496 357.259 732.208 358.475 730.224C359.723 728.208 361.403 726.64 363.515 725.52C365.659 724.368 368.107 723.792 370.859 723.792C373.579 723.792 376.011 724.368 378.155 725.52C380.299 726.64 381.979 728.192 383.195 730.176C384.411 732.16 385.019 734.464 385.019 737.088C385.019 739.648 384.411 741.936 383.195 743.952C381.979 745.936 380.299 747.504 378.155 748.656C376.011 749.808 373.579 750.384 370.859 750.384ZM370.859 744.24C372.107 744.24 373.227 743.952 374.219 743.376C375.211 742.8 375.995 741.984 376.571 740.928C377.147 739.84 377.435 738.56 377.435 737.088C377.435 735.584 377.147 734.304 376.571 733.248C375.995 732.192 375.211 731.376 374.219 730.8C373.227 730.224 372.107 729.936 370.859 729.936C369.611 729.936 368.491 730.224 367.499 730.8C366.507 731.376 365.707 732.192 365.099 733.248C364.523 734.304 364.235 735.584 364.235 737.088C364.235 738.56 364.523 739.84 365.099 740.928C365.707 741.984 366.507 742.8 367.499 743.376C368.491 743.952 369.611 744.24 370.859 744.24ZM88.888 809.384C86.104 809.384 83.624 808.824 81.448 807.704C79.272 806.552 77.56 804.968 76.312 802.952C75.096 800.936 74.488 798.648 74.488 796.088C74.488 793.496 75.096 791.208 76.312 789.224C77.56 787.208 79.272 785.64 81.448 784.52C83.624 783.368 86.104 782.792 88.888 782.792C91.608 782.792 93.976 783.368 95.992 784.52C98.008 785.64 99.496 787.256 100.456 789.368L94.648 792.488C93.976 791.272 93.128 790.376 92.104 789.8C91.112 789.224 90.024 788.936 88.84 788.936C87.56 788.936 86.408 789.224 85.384 789.8C84.36 790.376 83.544 791.192 82.936 792.248C82.36 793.304 82.072 794.584 82.072 796.088C82.072 797.592 82.36 798.872 82.936 799.928C83.544 800.984 84.36 801.8 85.384 802.376C86.408 802.952 87.56 803.24 88.84 803.24C90.024 803.24 91.112 802.968 92.104 802.424C93.128 801.848 93.976 800.936 94.648 799.688L100.456 802.856C99.496 804.936 98.008 806.552 95.992 807.704C93.976 808.824 91.608 809.384 88.888 809.384ZM111.919 809V789.32H103.183V783.176H128.095V789.32H119.359V809H111.919ZM144.545 809.384C141.793 809.384 139.345 808.808 137.201 807.656C135.089 806.504 133.409 804.936 132.161 802.952C130.945 800.936 130.337 798.648 130.337 796.088C130.337 793.496 130.945 791.208 132.161 789.224C133.409 787.208 135.089 785.64 137.201 784.52C139.345 783.368 141.793 782.792 144.545 782.792C147.265 782.792 149.697 783.368 151.841 784.52C153.985 785.64 155.665 787.192 156.881 789.176C158.097 791.16 158.705 793.464 158.705 796.088C158.705 798.648 158.097 800.936 156.881 802.952C155.665 804.936 153.985 806.504 151.841 807.656C149.697 808.808 147.265 809.384 144.545 809.384ZM144.545 803.24C145.793 803.24 146.913 802.952 147.905 802.376C148.897 801.8 149.681 800.984 150.257 799.928C150.833 798.84 151.121 797.56 151.121 796.088C151.121 794.584 150.833 793.304 150.257 792.248C149.681 791.192 148.897 790.376 147.905 789.8C146.913 789.224 145.793 788.936 144.545 788.936C143.297 788.936 142.177 789.224 141.185 789.8C140.193 790.376 139.393 791.192 138.785 792.248C138.209 793.304 137.921 794.584 137.921 796.088C137.921 797.56 138.209 798.84 138.785 799.928C139.393 800.984 140.193 801.8 141.185 802.376C142.177 802.952 143.297 803.24 144.545 803.24ZM161.656 808.952L162.04 802.808L162.616 802.904H163.144C164.04 802.904 164.744 802.648 165.256 802.136C165.768 801.624 166.152 800.936 166.408 800.072C166.664 799.176 166.84 798.168 166.936 797.048C167.064 795.928 167.16 794.76 167.224 793.544L167.608 783.176H189.688V809H182.2V789.32H174.036L173.8 793.88C173.704 796.184 173.512 798.296 173.224 800.216C172.968 802.136 172.536 803.8 171.928 805.208C171.32 806.584 170.504 807.656 169.48 808.424C168.456 809.16 167.144 809.528 165.544 809.528C164.968 809.528 164.36 809.48 163.72 809.384C163.08 809.288 162.392 809.144 161.656 808.952ZM213.785 809V805.791C213.221 806.739 212.453 807.505 211.481 808.088C210.041 808.952 208.185 809.384 205.913 809.384C203.897 809.384 202.169 809.048 200.729 808.376C199.289 807.672 198.185 806.728 197.417 805.544C196.649 804.36 196.265 803.032 196.265 801.56C196.265 800.024 196.633 798.68 197.369 797.528C198.137 796.376 199.337 795.48 200.969 794.84C202.601 794.168 204.729 793.832 207.353 793.832H213.305C213.305 792.232 212.809 790.984 211.817 790.088C210.857 789.192 209.369 788.744 207.353 788.744C205.977 788.744 204.617 788.968 203.273 789.416C201.961 789.832 200.841 790.408 199.913 791.144L197.225 785.912C198.633 784.92 200.329 784.152 202.313 783.608C204.297 783.064 206.313 782.792 208.361 782.792C212.297 782.792 215.353 783.72 217.529 785.576C219.705 787.432 220.793 790.328 220.793 794.264V809H213.785ZM213.305 798.2V800.84C212.857 801.992 212.137 802.872 211.145 803.48C210.153 804.056 209.033 804.344 207.785 804.344C206.473 804.344 205.433 804.072 204.665 803.528C203.929 802.952 203.561 802.184 203.561 801.224C203.561 800.36 203.881 799.64 204.521 799.064C205.193 798.488 206.409 798.2 208.169 798.2H213.305ZM1529.56 761.272C1531.29 756.728 1532.15 751.8 1532.15 746.488C1532.15 741.24 1531.29 736.408 1529.56 731.992C1527.83 727.512 1525.43 723.64 1522.36 720.376C1519.22 717.048 1515.54 714.456 1511.32 712.6C1507.03 710.744 1502.39 709.816 1497.4 709.816C1492.34 709.816 1487.74 710.744 1483.58 712.6C1479.35 714.456 1475.67 717.048 1472.54 720.376C1469.4 723.64 1466.97 727.512 1465.24 731.992C1463.51 736.408 1462.65 741.272 1462.65 746.584C1462.65 751.832 1463.51 756.696 1465.24 761.176C1466.97 765.656 1469.4 769.56 1472.54 772.888C1475.67 776.216 1479.35 778.808 1483.58 780.664C1487.8 782.456 1492.41 783.352 1497.4 783.352C1502.39 783.352 1507 782.456 1511.22 780.664C1515.45 778.808 1519.13 776.248 1522.26 772.984C1525.4 769.656 1527.83 765.752 1529.56 761.272ZM1517.37 738.328C1518.39 740.824 1518.9 743.576 1518.9 746.584C1518.9 749.592 1518.39 752.376 1517.37 754.936C1516.34 757.496 1514.87 759.736 1512.95 761.656C1511.03 763.512 1508.76 764.984 1506.14 766.072C1503.45 767.096 1500.54 767.608 1497.4 767.608C1494.2 767.608 1491.29 767.096 1488.66 766.072C1486.04 764.984 1483.77 763.48 1481.85 761.56C1479.93 759.64 1478.46 757.432 1477.43 754.936C1476.41 752.376 1475.9 749.592 1475.9 746.584C1475.9 743.576 1476.41 740.792 1477.43 738.232C1478.46 735.672 1479.93 733.464 1481.85 731.608C1483.77 729.688 1486.04 728.216 1488.66 727.192C1491.29 726.104 1494.2 725.56 1497.4 725.56C1500.6 725.56 1503.51 726.104 1506.14 727.192C1508.76 728.216 1511.03 729.688 1512.95 731.608C1514.87 733.528 1516.34 735.768 1517.37 738.328ZM1479.35 669.708V696.107H1531V668.555C1531 661.451 1529.69 656.172 1527.06 652.716C1524.44 649.26 1520.86 647.531 1516.31 647.531C1511.9 647.531 1508.54 649.099 1506.23 652.235C1505.33 653.444 1504.6 654.9 1504.05 656.604C1503.65 655.768 1503.19 654.984 1502.68 654.252C1500.25 650.795 1496.92 649.068 1492.7 649.068C1488.47 649.068 1485.21 650.891 1482.9 654.539C1480.54 658.188 1479.35 663.243 1479.35 669.708ZM1520.82 669.804V682.38H1509.4V669.516C1509.4 666.763 1509.88 664.748 1510.84 663.467C1511.74 662.188 1513.18 661.547 1515.16 661.547C1517.08 661.547 1518.52 662.252 1519.48 663.659C1520.38 665.003 1520.82 667.052 1520.82 669.804ZM1500.57 671.052V682.38H1489.53V671.052C1489.53 668.427 1489.98 666.476 1490.87 665.195C1491.77 663.852 1493.14 663.18 1495 663.18C1496.79 663.18 1498.17 663.852 1499.13 665.195C1500.09 666.476 1500.57 668.427 1500.57 671.052ZM1528.31 611.045C1530.62 606.757 1531.77 601.861 1531.77 596.357C1531.77 590.917 1530.62 586.053 1528.31 581.765C1526.01 577.477 1522.87 574.117 1518.9 571.685C1514.87 569.253 1510.3 568.037 1505.18 568.037C1499.93 568.037 1495.32 569.253 1491.35 571.685C1487.38 574.117 1484.28 577.477 1482.04 581.765C1479.74 586.053 1478.58 590.917 1478.58 596.357C1478.58 601.861 1479.74 606.757 1482.04 611.045C1484.28 615.269 1487.42 618.629 1491.45 621.125C1495.42 623.557 1499.99 624.773 1505.18 624.773C1510.3 624.773 1514.87 623.557 1518.9 621.125C1522.87 618.629 1526.01 615.269 1528.31 611.045ZM1517.75 589.637C1518.9 591.621 1519.48 593.861 1519.48 596.357C1519.48 598.853 1518.9 601.093 1517.75 603.077C1516.6 605.061 1514.97 606.661 1512.86 607.877C1510.68 609.029 1508.12 609.605 1505.18 609.605C1502.17 609.605 1499.61 609.029 1497.5 607.877C1495.38 606.661 1493.75 605.061 1492.6 603.077C1491.45 601.093 1490.87 598.853 1490.87 596.357C1490.87 593.861 1491.45 591.621 1492.6 589.637C1493.75 587.653 1495.38 586.085 1497.5 584.933C1499.61 583.781 1502.17 583.205 1505.18 583.205C1508.12 583.205 1510.68 583.781 1512.86 584.933C1514.97 586.085 1516.6 587.653 1517.75 589.637ZM1518.71 522.888H1479.35V507.912H1518.71V491.304V490.92H1479.35V476.04L1518.71 476.04V468.84H1541.27V482.76H1531V491.304V554.856H1479.35V539.976H1518.71V522.888ZM1479.35 458.789H1531V444.965L1500.28 419.909H1531V405.029H1479.35V418.757L1510.07 443.909H1479.35V458.789ZM1664.67 530.755H1671.98V545.059H1664.62C1664.23 551.472 1663.13 557.072 1661.32 561.859C1659.02 567.875 1655.69 572.451 1651.34 575.587C1646.92 578.723 1641.54 580.291 1635.21 580.291C1628.87 580.291 1623.53 578.723 1619.18 575.587C1614.76 572.451 1611.4 567.875 1609.1 561.859C1607.28 557.072 1606.18 551.472 1605.8 545.059H1598.92V530.755H1605.78C1606.14 524.26 1607.25 518.628 1609.1 513.859C1611.4 507.843 1614.76 503.299 1619.18 500.227C1623.59 497.155 1628.94 495.619 1635.21 495.619C1641.42 495.619 1646.76 497.155 1651.24 500.227C1655.66 503.235 1659.02 507.683 1661.32 513.571C1663.23 518.398 1664.35 524.126 1664.67 530.755ZM1618.03 545.059C1618.32 548.189 1618.83 550.941 1619.56 553.315C1620.78 557.283 1622.7 560.259 1625.32 562.243C1627.88 564.227 1631.18 565.219 1635.21 565.219C1639.24 565.219 1642.57 564.163 1645.19 562.051C1647.75 559.939 1649.67 556.899 1650.95 552.931C1651.66 550.597 1652.16 547.973 1652.45 545.059H1618.03ZM1617.99 530.755H1652.52C1652.22 527.495 1651.67 524.647 1650.86 522.211C1649.51 518.307 1647.56 515.395 1645 513.475C1642.38 511.555 1639.08 510.595 1635.11 510.595C1631.14 510.595 1627.88 511.587 1625.32 513.571C1622.76 515.555 1620.87 518.467 1619.66 522.307C1618.84 524.718 1618.28 527.534 1617.99 530.755ZM1666.89 463.248C1668.81 459.984 1669.77 456.176 1669.77 451.824C1669.77 446.96 1668.68 442.608 1666.5 438.768C1664.33 434.864 1661.26 431.792 1657.29 429.552C1653.32 427.248 1648.62 426.096 1643.18 426.096C1637.8 426.096 1633.13 427.248 1629.16 429.552C1625.19 431.792 1622.12 434.864 1619.94 438.768C1617.7 442.608 1616.58 446.96 1616.58 451.824C1616.58 456.368 1617.54 460.272 1619.46 463.536C1620.47 465.253 1621.76 466.757 1623.32 468.048H1617.35V482.352H1687.62V467.376H1663.53C1664.87 466.155 1665.99 464.779 1666.89 463.248ZM1655.75 447.792C1656.9 449.712 1657.48 451.92 1657.48 454.416C1657.48 456.912 1656.9 459.152 1655.75 461.136C1654.6 463.12 1652.97 464.688 1650.86 465.84C1648.68 466.992 1646.12 467.568 1643.18 467.568C1640.17 467.568 1637.61 466.992 1635.5 465.84C1633.38 464.688 1631.75 463.12 1630.6 461.136C1629.45 459.152 1628.87 456.912 1628.87 454.416C1628.87 451.92 1629.45 449.712 1630.6 447.792C1631.75 445.808 1633.38 444.24 1635.5 443.088C1637.61 441.872 1640.17 441.264 1643.18 441.264C1646.12 441.264 1648.68 441.872 1650.86 443.088C1652.97 444.24 1654.6 445.808 1655.75 447.792ZM1687.14 415.086C1687.98 412.462 1688.39 409.806 1688.39 407.118C1688.39 403.982 1687.91 401.134 1686.95 398.574C1685.99 395.95 1684.33 393.582 1681.96 391.47C1679.59 389.294 1676.33 387.374 1672.17 385.71L1617.35 362.382V376.782L1652.43 391.372L1617.35 405.87V421.326L1669.43 398.967L1669.86 399.15C1672.17 400.174 1673.8 401.326 1674.76 402.606C1675.78 403.822 1676.3 405.486 1676.3 407.598C1676.3 409.07 1676.01 410.574 1675.43 412.11C1674.86 413.582 1674.06 414.894 1673.03 416.046L1683.69 421.518C1685.16 419.854 1686.31 417.71 1687.14 415.086ZM1649.42 329.526L1669 315.702V298.038L1642.13 317.332L1617.35 299.285V315.221L1637.42 329.215V337.302H1617.35V352.277H1669V337.301H1649.42V329.526ZM1629.64 277.232H1669V262.352H1629.64V244.88H1617.35V294.705H1629.64V277.232ZM1617.35 180.834L1669 180.834V165.954H1617.35V180.834ZM1638.47 191.586C1635.46 194.978 1633.93 200.066 1633.86 206.85V219.138H1617.35V234.018H1669L1669.1 208.866C1669.1 201.698 1667.53 196.162 1664.39 192.258C1661.19 188.354 1656.74 186.402 1651.05 186.402C1645.61 186.402 1641.42 188.13 1638.47 191.586ZM1656.62 203.586C1657.9 205.122 1658.5 207.33 1658.44 210.21V219.138H1643.46L1643.56 210.21C1643.62 207.33 1644.23 205.122 1645.38 203.586C1646.47 202.05 1648.3 201.282 1650.86 201.282C1653.42 201.282 1655.34 202.05 1656.62 203.586ZM1789.14 439.669H1807V424.309H1739.8V453.301C1739.8 459.189 1740.79 464.309 1742.78 468.661C1744.76 473.013 1747.64 476.405 1751.42 478.837C1755.13 481.205 1759.61 482.389 1764.86 482.389C1769.91 482.389 1774.26 481.269 1777.91 479.029C1781.56 476.789 1784.34 473.557 1786.26 469.333C1786.44 468.951 1786.6 468.562 1786.76 468.167L1807 482.197V465.781L1789.14 453.901V439.669ZM1776.86 439.669H1752.47V452.917C1752.47 457.333 1753.5 460.725 1755.54 463.093C1757.59 465.397 1760.63 466.549 1764.66 466.549C1768.57 466.549 1771.58 465.429 1773.69 463.189C1775.8 460.949 1776.86 457.653 1776.86 453.301V439.669ZM1755.35 405.745H1807V390.865H1767.64V364.369H1755.35V405.745ZM1804.31 346.205C1806.62 341.917 1807.77 337.021 1807.77 331.517C1807.77 326.077 1806.62 321.213 1804.31 316.925C1802.01 312.637 1798.87 309.277 1794.9 306.845C1790.87 304.413 1786.3 303.197 1781.18 303.197C1775.93 303.197 1771.32 304.413 1767.35 306.845C1763.38 309.277 1760.28 312.637 1758.04 316.925C1755.74 321.213 1754.58 326.077 1754.58 331.517C1754.58 337.021 1755.74 341.917 1758.04 346.205C1760.28 350.429 1763.42 353.789 1767.45 356.285C1771.42 358.717 1775.99 359.933 1781.18 359.933C1786.3 359.933 1790.87 358.717 1794.9 356.285C1798.87 353.789 1802.01 350.429 1804.31 346.205ZM1793.75 324.797C1794.9 326.781 1795.48 329.021 1795.48 331.517C1795.48 334.013 1794.9 336.253 1793.75 338.237C1792.6 340.221 1790.97 341.821 1788.86 343.037C1786.68 344.189 1784.12 344.765 1781.18 344.765C1778.17 344.765 1775.61 344.189 1773.5 343.037C1771.38 341.821 1769.75 340.221 1768.6 338.237C1767.45 336.253 1766.87 334.013 1766.87 331.517C1766.87 329.021 1767.45 326.781 1768.6 324.797C1769.75 322.813 1771.38 321.245 1773.5 320.093C1775.61 318.941 1778.17 318.365 1781.18 318.365C1784.12 318.365 1786.68 318.941 1788.86 320.093C1790.97 321.245 1792.6 322.813 1793.75 324.797ZM1794.71 240.27V232.878H1818.14V246.798H1807V283.086H1818.14V297.006H1794.71V295.278C1794.71 293.422 1794.17 291.918 1793.08 290.766C1791.93 289.614 1790.36 288.718 1788.38 288.078C1786.33 287.438 1784.02 286.958 1781.46 286.638C1778.84 286.318 1776.09 286.094 1773.21 285.966L1755.35 285.294V240.27H1794.71ZM1794.71 255.246H1767.64V272.142L1774.26 272.43C1777.02 272.558 1779.64 272.718 1782.14 272.91C1784.63 273.102 1786.9 273.486 1788.95 274.062C1790.94 274.574 1792.63 275.342 1794.04 276.366C1794.28 276.547 1794.5 276.738 1794.71 276.941V255.246ZM1755.35 167.39H1807V152.51H1755.35V167.39ZM1776.47 178.142C1773.46 181.534 1771.93 186.622 1771.86 193.406V205.694H1755.35V220.574H1807L1807.1 195.422C1807.1 188.254 1805.53 182.718 1802.39 178.814C1799.19 174.91 1794.74 172.958 1789.05 172.958C1783.61 172.958 1779.42 174.686 1776.47 178.142ZM1794.62 190.142C1795.9 191.678 1796.5 193.886 1796.44 196.766V205.694H1781.46L1781.56 196.766C1781.62 193.886 1782.23 191.678 1783.38 190.142C1784.47 188.606 1786.3 187.838 1788.86 187.838C1791.42 187.838 1793.34 188.606 1794.62 190.142Z" fill="#F6F6F6"/>
<path d="M-47.4771 779.817C-47.4771 761.861 -51.6074 744.145 -59.5487 728.04L-73.6025 699.539C-121.848 601.696 -11.2686 502.098 81.0133 560.279V560.279C114.053 581.109 155.759 582.498 190.112 563.912L218.918 548.327C265.227 523.272 322.843 535.1 355.537 576.373V576.373C364.748 588.001 376.246 597.615 389.321 604.622L396.32 608.373C436.472 629.891 464.355 668.836 471.786 713.78L475.425 735.782C490.755 828.497 570.927 896.5 664.9 896.5H1106.5H1346.16C1369.73 896.5 1391.35 883.413 1402.27 862.532L1405.76 855.879C1419.15 830.282 1450.01 819.331 1476.54 830.758V830.758C1490.26 836.666 1505.78 836.766 1519.58 831.035L1534.58 824.799C1556.69 815.617 1581.46 815.244 1603.83 823.758L1614.34 827.759C1634.95 835.605 1657.82 835.052 1678.03 826.22L1683.68 823.75C1702.9 815.35 1724.85 815.88 1743.64 825.197V825.197C1762.56 834.575 1784.66 835.047 1803.96 826.487L1810.67 823.51C1829.24 815.272 1850.52 815.762 1868.7 824.848V824.848C1887.78 834.391 1910.24 834.429 1929.35 824.95L1947.33 816.039C1954.48 812.493 1959.93 806.248 1962.47 798.681V798.681C1972.45 768.973 2015.54 772.453 2020.63 803.377L2042.05 933.66V933.66C2044.9 949.817 2032.48 964.634 2016.07 964.634H1863.49C1841.1 964.634 1818.97 969.507 1798.65 978.915L1735.54 1008.13C1662.09 1042.13 1581.11 1056.6 1500.43 1050.12L1106.5 1018.5L681.527 1010.59C589.358 1008.87 497.96 993.421 410.349 964.743L278.936 921.727C251.244 912.662 222.051 909.08 192.99 911.181L96.8082 918.132C18.8621 923.766 -47.4771 862.049 -47.4771 783.899V779.817Z" fill="#F6F6F6" fill-opacity="0.22"/>
</g>
<defs>
<clipPath id="clip0_109_3">
<rect width="1866" height="1098" fill="white"/>
</clipPath>
</defs>
</svg>
