<svg width="2055" height="1318" viewBox="0 0 2055 1318" fill="none" xmlns="http://www.w3.org/2000/svg">
<path fill-rule="evenodd" clip-rule="evenodd" d="M171 1318L171 3.10351e-06L324 0L324 1318H171ZM395 1318L395 3.10351e-06L564 0L564 1318H395ZM1555 1318V3.10351e-06L1684 0V1318H1555ZM1755 1318H1884V0L1755 3.10351e-06V1318ZM1955 1318V3.10351e-06H2055V1318H1955ZM100 1318H0V3.10351e-06L100 0L100 1318Z" fill="#F6F6F6"/>
<path fill-rule="evenodd" clip-rule="evenodd" d="M832.775 540.247C832.775 542.925 832.446 545.526 831.825 548.014C848.007 554.228 859.502 569.999 859.502 588.472C859.502 612.379 840.252 631.759 816.506 631.759C815.047 631.759 813.605 631.686 812.184 631.543L813.64 657.109C813.837 660.572 812.055 663.668 809.299 665.332C807.86 666.316 806.117 666.896 804.226 666.896H795.79C794.121 666.896 792.568 666.445 791.238 665.663C788.133 664.097 786.071 660.789 786.301 657.066L787.48 637.957C786.036 638.085 784.574 638.15 783.097 638.15C755.981 638.15 734 616.169 734 589.053C734 567.29 748.161 548.834 767.771 542.396C767.724 541.686 767.7 540.969 767.7 540.247C767.7 522.438 782.267 508 800.237 508C818.207 508 832.775 522.438 832.775 540.247ZM1249.98 637.957C1248.53 638.085 1247.07 638.15 1245.6 638.15C1218.48 638.15 1196.5 616.169 1196.5 589.053C1196.5 569.992 1207.36 553.467 1223.23 545.333C1223.62 527.858 1238.04 513.81 1255.76 513.81C1271.96 513.81 1285.39 525.532 1287.88 540.881C1307.37 545 1322 562.401 1322 583.243C1322 607.15 1302.75 626.53 1279 626.53C1278.45 626.53 1277.9 626.519 1277.35 626.498C1276.44 627.275 1275.49 628.019 1274.52 628.728L1276.14 657.109C1276.43 662.272 1272.32 666.621 1267.15 666.621H1257.78C1252.59 666.621 1248.48 662.245 1248.8 657.066L1249.98 637.957ZM976.693 522.526C971.906 522.526 967.957 526.273 967.705 531.053L964.665 588.813H946.19L943.385 531.089C943.152 526.294 939.197 522.526 934.396 522.526H911.998C907.211 522.526 903.262 526.273 903.011 531.053L899.971 588.813H893.067C888.649 588.813 885.067 592.394 885.067 596.813V598.244C885.067 602.662 888.649 606.244 893.067 606.244H899.053L896.405 656.567C896.134 661.716 900.236 666.04 905.392 666.04H940.494C945.636 666.04 949.733 661.739 949.483 656.603L947.037 606.244H963.748L961.099 656.567C960.828 661.716 964.93 666.04 970.087 666.04H1005.19C1010.33 666.04 1014.43 661.739 1014.18 656.603L1011.73 606.244H1012.45C1016.86 606.244 1020.45 602.662 1020.45 598.244V596.813C1020.45 592.394 1016.86 588.813 1012.45 588.813H1010.88L1008.08 531.089C1007.85 526.294 1003.89 522.526 999.09 522.526H976.693ZM1113.39 531.053C1113.64 526.273 1117.59 522.526 1122.38 522.526H1144.78C1149.58 522.526 1153.53 526.294 1153.76 531.089L1155.64 569.589H1161.19C1165.61 569.589 1169.19 573.171 1169.19 577.589V579.02C1169.19 583.438 1165.61 587.02 1161.19 587.02H1156.48L1159.86 656.603C1160.11 661.739 1156.02 666.04 1150.87 666.04H1115.77C1110.62 666.04 1106.51 661.716 1106.78 656.567L1110.44 587.02H1092.89L1096.27 656.603C1096.52 661.739 1092.42 666.04 1087.28 666.04H1052.18C1047.02 666.04 1042.92 661.716 1043.19 656.567L1046.85 587.02H1041.81C1037.39 587.02 1033.81 583.438 1033.81 579.02V577.589C1033.81 573.171 1037.39 569.589 1041.81 569.589H1047.77L1049.79 531.053C1050.05 526.273 1053.99 522.526 1058.78 522.526H1081.18C1085.98 522.526 1089.94 526.294 1090.17 531.089L1092.04 569.589H1111.36L1113.39 531.053ZM857.76 725.16C859.04 725.747 860.027 726.6 860.72 727.72H879.44C878.587 721.587 875.813 716.733 871.12 713.16C866.48 709.587 860.453 707.8 853.04 707.8C847.227 707.8 842.16 709.027 837.84 711.48C833.52 713.88 830.187 717.267 827.84 721.64C825.547 726.013 824.4 731 824.4 736.6C824.4 742.2 825.547 747.187 827.84 751.56C830.187 755.933 833.52 759.347 837.84 761.8C842.213 764.2 847.333 765.4 853.2 765.4C859.813 765.4 865.28 763.907 869.6 760.92C873.92 757.88 877.307 754.253 879.76 750.04V732.28H850.88V744.84H865.04C862.533 748.147 859.227 749.8 855.12 749.8C850.8 749.8 847.6 748.707 845.52 746.52C843.44 744.333 842.4 741.027 842.4 736.6C842.4 732.76 843.333 729.747 845.2 727.56C847.067 725.32 849.707 724.2 853.12 724.2C854.933 724.2 856.48 724.52 857.76 725.16ZM914.396 765L917.196 756.44H936.076L938.876 765H957.596L936.956 708.36H916.476L895.756 765H914.396ZM926.636 727.32L931.756 743.08H921.516L926.636 727.32ZM993.071 744.68L1003.71 765H1023.23L1010.91 743.32C1014.86 742.04 1017.87 739.933 1019.95 737C1022.08 734.067 1023.15 730.707 1023.15 726.92C1023.15 723.4 1022.32 720.253 1020.67 717.48C1019.07 714.653 1016.64 712.44 1013.39 710.84C1010.14 709.187 1006.22 708.36 1001.63 708.36H975.231V765H992.991V744.68H993.071ZM1000.03 732.84H992.991V723.24H1000.03C1001.68 723.24 1002.94 723.667 1003.79 724.52C1004.7 725.373 1005.15 726.547 1005.15 728.04C1005.15 729.693 1004.72 730.92 1003.87 731.72C1003.02 732.467 1001.74 732.84 1000.03 732.84ZM1081.55 711.96C1077.12 709.56 1071.95 708.36 1066.02 708.36H1042.43V765H1066.02C1071.95 765 1077.12 763.773 1081.55 761.32C1086.02 758.813 1089.46 755.4 1091.87 751.08C1094.27 746.76 1095.46 741.907 1095.46 736.52C1095.46 731.08 1094.27 726.227 1091.87 721.96C1089.46 717.693 1086.02 714.36 1081.55 711.96ZM1073.95 745.88C1071.6 748.067 1068.43 749.16 1064.43 749.16H1060.18V723.88H1064.43C1068.43 723.88 1071.6 724.973 1073.95 727.16C1076.29 729.347 1077.46 732.467 1077.46 736.52C1077.46 740.573 1076.29 743.693 1073.95 745.88ZM1133.24 729.48V722.52H1153.24V708.36H1115.48V765H1153.24V750.84H1133.24V742.84H1150.84V729.48H1133.24ZM1210.09 765H1227.85V708.36H1210.09V737.32L1191.29 708.36H1173.53V765H1191.29V736.52L1210.09 765Z" fill="#F6F6F6"/>
</svg>
