<svg width="2291" height="1066" viewBox="0 0 2291 1066" fill="none" xmlns="http://www.w3.org/2000/svg">
<path fill-rule="evenodd" clip-rule="evenodd" d="M243 497.141V230.796H354H704.852C740.832 230.796 770 201.628 770 165.648C770 129.668 799.168 100.5 835.148 100.5H1535.35C1571.33 100.5 1600.5 129.668 1600.5 165.648C1600.5 201.628 1629.67 230.796 1665.65 230.796H1714.1C1753.26 230.796 1785 199.054 1785 159.898V148.615C1785 115.691 1811.69 89 1844.62 89H1855.37C1875.33 89 1892.92 75.9019 1898.64 56.7816C1905.56 33.6744 1929.41 20.0777 1952.82 25.8979L1976.15 31.6993C1993.24 35.9499 2011.33 31.4057 2024.39 19.5808C2051.35 -4.83392 2094.33 4.63557 2108.54 38.1173L2109 39.2091V606.854C2105.78 607.669 2102.43 608.098 2099 608.098H2063.11C2052.01 608.098 2042.18 615.244 2038.75 625.798C2035.32 636.352 2025.49 643.498 2014.39 643.498H2003.19C1992.02 643.498 1982.09 636.379 1978.5 625.798C1974.91 615.217 1964.98 608.098 1953.81 608.098H1931.36C1920.03 608.098 1909.9 615.165 1906 625.798C1902.1 636.43 1891.97 643.498 1880.64 643.498H1875.19C1864.02 643.498 1854.09 636.379 1850.5 625.798C1846.91 615.217 1836.98 608.098 1825.81 608.098H1800.36C1789.03 608.098 1778.9 615.165 1775 625.798C1771.1 636.43 1760.97 643.498 1749.64 643.498H1743.63C1732.17 643.498 1721.95 636.269 1718.13 625.458C1714.43 614.983 1704.7 607.835 1693.6 607.436L1679.3 606.922C1652.64 605.963 1630.5 627.319 1630.5 654V726.5V729.181C1630.5 791.037 1580.36 841.181 1518.5 841.181H1414H1286H1087.5H950H895.955C826.392 841.181 770 784.789 770 715.227V709.617C770 654.236 731.766 606.188 677.8 593.75C650.482 587.453 626.267 571.707 609.431 549.291L607.189 546.306C572.238 499.772 510.478 482.367 456.372 503.805L434.964 512.288C405.026 524.15 372.195 526.66 340.801 519.487L243 497.141ZM1045.76 557.16C1047.04 557.747 1048.03 558.6 1048.72 559.72H1067.44C1066.59 553.587 1063.81 548.733 1059.12 545.16C1054.48 541.587 1048.45 539.8 1041.04 539.8C1035.23 539.8 1030.16 541.027 1025.84 543.48C1021.52 545.88 1018.19 549.267 1015.84 553.64C1013.55 558.013 1012.4 563 1012.4 568.6C1012.4 574.2 1013.55 579.187 1015.84 583.56C1018.19 587.933 1021.52 591.347 1025.84 593.8C1030.21 596.2 1035.33 597.4 1041.2 597.4C1047.81 597.4 1053.28 595.907 1057.6 592.92C1061.92 589.88 1065.31 586.253 1067.76 582.04V564.28H1038.88V576.84H1053.04C1050.53 580.147 1047.23 581.8 1043.12 581.8C1038.8 581.8 1035.6 580.707 1033.52 578.52C1031.44 576.333 1030.4 573.027 1030.4 568.6C1030.4 564.76 1031.33 561.747 1033.2 559.56C1035.07 557.32 1037.71 556.2 1041.12 556.2C1042.93 556.2 1044.48 556.52 1045.76 557.16ZM1102.4 597L1105.2 588.44H1124.08L1126.88 597H1145.6L1124.96 540.36H1104.48L1083.76 597H1102.4ZM1114.64 559.32L1119.76 575.08H1109.52L1114.64 559.32ZM1181.07 576.68L1191.71 597H1211.23L1198.91 575.32C1202.86 574.04 1205.87 571.933 1207.95 569C1210.08 566.067 1211.15 562.707 1211.15 558.92C1211.15 555.4 1210.32 552.253 1208.67 549.48C1207.07 546.653 1204.64 544.44 1201.39 542.84C1198.14 541.187 1194.22 540.36 1189.63 540.36H1163.23V597H1180.99V576.68H1181.07ZM1188.03 564.84H1180.99V555.24H1188.03C1189.68 555.24 1190.94 555.667 1191.79 556.52C1192.7 557.373 1193.15 558.547 1193.15 560.04C1193.15 561.693 1192.72 562.92 1191.87 563.72C1191.02 564.467 1189.74 564.84 1188.03 564.84ZM1269.55 543.96C1265.12 541.56 1259.95 540.36 1254.03 540.36H1230.42V597H1254.03C1259.95 597 1265.12 595.773 1269.55 593.32C1274.03 590.813 1277.46 587.4 1279.86 583.08C1282.27 578.76 1283.46 573.907 1283.46 568.52C1283.46 563.08 1282.27 558.227 1279.86 553.96C1277.46 549.693 1274.03 546.36 1269.55 543.96ZM1261.95 577.88C1259.6 580.067 1256.42 581.16 1252.42 581.16H1248.18V555.88H1252.42C1256.42 555.88 1259.6 556.973 1261.95 559.16C1264.29 561.347 1265.47 564.467 1265.47 568.52C1265.47 572.573 1264.29 575.693 1261.95 577.88ZM1321.24 561.48V554.52H1341.24V540.36H1303.48V597H1341.24V582.84H1321.24V574.84H1338.84V561.48H1321.24ZM1398.09 597H1415.85V540.36H1398.09V569.32L1379.29 540.36H1361.53V597H1379.29V568.52L1398.09 597ZM985.469 495.378C985.234 499.174 987.382 502.539 990.589 504.065C991.878 504.782 993.365 505.192 994.957 505.192H1001.83C1003.63 505.192 1005.3 504.667 1006.7 503.766C1009.57 502.134 1011.45 498.97 1011.25 495.421L1009.9 471.776C1011.24 471.911 1012.61 471.98 1013.99 471.98C1036.43 471.98 1054.63 453.662 1054.63 431.065C1054.63 413.603 1043.76 398.696 1028.47 392.822C1029.05 390.471 1029.36 388.012 1029.36 385.481C1029.36 368.647 1015.6 355 998.609 355C981.624 355 967.854 368.647 967.854 385.481C967.854 386.163 967.877 386.841 967.921 387.512C949.385 393.597 936 411.042 936 431.614C936 457.244 956.777 478.022 982.408 478.022C983.804 478.022 985.186 477.96 986.551 477.839L985.469 495.378ZM1419.57 478.022C1420.97 478.022 1422.35 477.96 1423.72 477.839L1422.63 495.378C1422.31 500.557 1426.43 504.933 1431.62 504.933H1439.43C1444.6 504.933 1448.71 500.584 1448.41 495.421L1446.92 469.116C1447.83 468.445 1448.73 467.742 1449.59 467.008C1450.11 467.028 1450.63 467.037 1451.15 467.037C1473.6 467.037 1491.79 448.719 1491.79 426.122C1491.79 406.422 1477.96 389.973 1459.55 386.08C1457.18 371.572 1444.49 360.492 1429.18 360.492C1412.43 360.492 1398.8 373.77 1398.44 390.288C1383.43 397.977 1373.17 413.596 1373.17 431.614C1373.17 457.244 1393.94 478.022 1419.57 478.022ZM1156.88 377.257C1157.13 372.477 1161.08 368.73 1165.87 368.73H1186.1C1190.9 368.73 1194.86 372.498 1195.09 377.293L1197.72 431.386H1198.76C1203.18 431.386 1206.76 434.968 1206.76 439.386V439.862C1206.76 444.281 1203.18 447.862 1198.76 447.862H1198.52L1200.81 494.947C1201.06 500.083 1196.96 504.383 1191.82 504.383H1159.68C1154.52 504.383 1150.42 500.06 1150.69 494.91L1153.16 447.862H1137.37L1139.66 494.947C1139.9 500.083 1135.81 504.383 1130.67 504.383H1098.52C1093.37 504.383 1089.27 500.06 1089.54 494.91L1092.01 447.862H1086.79C1082.37 447.862 1078.79 444.281 1078.79 439.862V439.386C1078.79 434.968 1082.37 431.386 1086.79 431.386H1092.88L1095.73 377.257C1095.98 372.477 1099.93 368.73 1104.72 368.73H1124.95C1129.75 368.73 1133.71 372.498 1133.94 377.293L1136.57 431.386H1154.03L1156.88 377.257ZM1303.57 368.73C1298.79 368.73 1294.84 372.477 1294.58 377.257L1292.69 413.216H1274.43L1272.68 377.293C1272.45 372.498 1268.49 368.73 1263.69 368.73H1243.46C1238.67 368.73 1234.72 372.477 1234.47 377.257L1232.58 413.216H1227.39C1222.97 413.216 1219.39 416.797 1219.39 421.216V421.692C1219.39 426.11 1222.97 429.692 1227.39 429.692H1231.71L1228.28 494.91C1228.01 500.06 1232.11 504.383 1237.27 504.383H1269.41C1274.55 504.383 1278.65 500.083 1278.4 494.947L1275.23 429.692H1291.83L1288.39 494.91C1288.12 500.06 1292.22 504.383 1297.38 504.383H1329.52C1334.66 504.383 1338.76 500.083 1338.51 494.947L1335.34 429.692H1339.35C1343.77 429.692 1347.35 426.11 1347.35 421.692V421.216C1347.35 416.797 1343.77 413.216 1339.35 413.216H1334.54L1332.8 377.293C1332.56 372.498 1328.61 368.73 1323.81 368.73H1303.57ZM336.064 697.576C333.472 697.576 331.056 697.16 328.816 696.328C326.608 695.464 324.688 694.248 323.056 692.68C321.424 691.112 320.144 689.272 319.216 687.16C318.32 685.048 317.872 682.728 317.872 680.2C317.872 677.672 318.32 675.352 319.216 673.24C320.144 671.128 321.424 669.288 323.056 667.72C324.72 666.152 326.656 664.952 328.864 664.12C331.072 663.256 333.488 662.824 336.112 662.824C339.024 662.824 341.648 663.336 343.984 664.36C346.352 665.352 348.336 666.824 349.936 668.776L344.944 673.384C343.792 672.072 342.512 671.096 341.104 670.456C339.696 669.784 338.16 669.448 336.496 669.448C334.928 669.448 333.488 669.704 332.176 670.216C330.864 670.728 329.728 671.464 328.768 672.424C327.808 673.384 327.056 674.52 326.512 675.832C326 677.144 325.744 678.6 325.744 680.2C325.744 681.8 326 683.256 326.512 684.568C327.056 685.88 327.808 687.016 328.768 687.976C329.728 688.936 330.864 689.672 332.176 690.184C333.488 690.696 334.928 690.952 336.496 690.952C338.16 690.952 339.696 690.632 341.104 689.992C342.512 689.32 343.792 688.312 344.944 686.968L349.936 691.576C348.336 693.528 346.352 695.016 343.984 696.04C341.648 697.064 339.008 697.576 336.064 697.576ZM382.998 697.384C380.246 697.384 377.798 696.808 375.654 695.656C373.542 694.504 371.862 692.936 370.614 690.952C369.398 688.936 368.79 686.648 368.79 684.088C368.79 681.496 369.398 679.208 370.614 677.224C371.862 675.208 373.542 673.64 375.654 672.52C377.798 671.368 380.246 670.792 382.998 670.792C385.718 670.792 388.15 671.368 390.294 672.52C392.438 673.64 394.118 675.192 395.334 677.176C396.55 679.16 397.158 681.464 397.158 684.088C397.158 686.648 396.55 688.936 395.334 690.952C394.118 692.936 392.438 694.504 390.294 695.656C388.15 696.808 385.718 697.384 382.998 697.384ZM382.998 691.24C384.246 691.24 385.366 690.952 386.358 690.376C387.35 689.8 388.134 688.984 388.71 687.928C389.286 686.84 389.574 685.56 389.574 684.088C389.574 682.584 389.286 681.304 388.71 680.248C388.134 679.192 387.35 678.376 386.358 677.8C385.366 677.224 384.246 676.936 382.998 676.936C381.75 676.936 380.63 677.224 379.638 677.8C378.646 678.376 377.846 679.192 377.238 680.248C376.662 681.304 376.374 682.584 376.374 684.088C376.374 685.56 376.662 686.84 377.238 687.928C377.846 688.984 378.646 689.8 379.638 690.376C380.63 690.952 381.75 691.24 382.998 691.24ZM403.748 697V671.176H424.436V677.32H411.188V697H403.748ZM440.862 697.384C438.11 697.384 435.662 696.808 433.518 695.656C431.406 694.504 429.726 692.936 428.478 690.952C427.262 688.936 426.654 686.648 426.654 684.088C426.654 681.496 427.262 679.208 428.478 677.224C429.726 675.208 431.406 673.64 433.518 672.52C435.662 671.368 438.11 670.792 440.862 670.792C443.582 670.792 446.014 671.368 448.158 672.52C450.302 673.64 451.982 675.192 453.198 677.176C454.414 679.16 455.022 681.464 455.022 684.088C455.022 686.648 454.414 688.936 453.198 690.952C451.982 692.936 450.302 694.504 448.158 695.656C446.014 696.808 443.582 697.384 440.862 697.384ZM440.862 691.24C442.11 691.24 443.23 690.952 444.222 690.376C445.214 689.8 445.998 688.984 446.574 687.928C447.15 686.84 447.438 685.56 447.438 684.088C447.438 682.584 447.15 681.304 446.574 680.248C445.998 679.192 445.214 678.376 444.222 677.8C443.23 677.224 442.11 676.936 440.862 676.936C439.614 676.936 438.494 677.224 437.502 677.8C436.51 678.376 435.71 679.192 435.102 680.248C434.526 681.304 434.238 682.584 434.238 684.088C434.238 685.56 434.526 686.84 435.102 687.928C435.71 688.984 436.51 689.8 437.502 690.376C438.494 690.952 439.614 691.24 440.862 691.24ZM476.828 697.384C474.652 697.384 472.749 696.904 471.117 695.944C470.351 695.494 469.663 694.934 469.052 694.266V706.312H461.564V671.176H468.716V674.158C469.362 673.379 470.114 672.737 470.973 672.232C472.604 671.272 474.557 670.792 476.828 670.792C479.26 670.792 481.436 671.352 483.356 672.472C485.309 673.56 486.844 675.096 487.964 677.08C489.117 679.064 489.693 681.4 489.693 684.088C489.693 686.808 489.117 689.16 487.964 691.144C486.844 693.128 485.309 694.664 483.356 695.752C481.436 696.84 479.26 697.384 476.828 697.384ZM475.533 691.24C476.781 691.24 477.884 690.952 478.844 690.376C479.837 689.8 480.62 688.984 481.197 687.928C481.805 686.84 482.109 685.56 482.109 684.088C482.109 682.584 481.805 681.304 481.197 680.248C480.62 679.192 479.837 678.376 478.844 677.8C477.884 677.224 476.781 676.936 475.533 676.936C474.285 676.936 473.164 677.224 472.173 677.8C471.18 678.376 470.396 679.192 469.82 680.248C469.244 681.304 468.956 682.584 468.956 684.088C468.956 685.56 469.244 686.84 469.82 687.928C470.396 688.984 471.18 689.8 472.173 690.376C473.164 690.952 474.285 691.24 475.533 691.24ZM508.477 697.384C505.725 697.384 503.277 696.808 501.133 695.656C499.021 694.504 497.341 692.936 496.093 690.952C494.877 688.936 494.269 686.648 494.269 684.088C494.269 681.496 494.877 679.208 496.093 677.224C497.341 675.208 499.021 673.64 501.133 672.52C503.277 671.368 505.725 670.792 508.477 670.792C511.197 670.792 513.629 671.368 515.773 672.52C517.917 673.64 519.597 675.192 520.813 677.176C522.029 679.16 522.637 681.464 522.637 684.088C522.637 686.648 522.029 688.936 520.813 690.952C519.597 692.936 517.917 694.504 515.773 695.656C513.629 696.808 511.197 697.384 508.477 697.384ZM508.477 691.24C509.725 691.24 510.845 690.952 511.837 690.376C512.829 689.8 513.613 688.984 514.189 687.928C514.765 686.84 515.053 685.56 515.053 684.088C515.053 682.584 514.765 681.304 514.189 680.248C513.613 679.192 512.829 678.376 511.837 677.8C510.845 677.224 509.725 676.936 508.477 676.936C507.229 676.936 506.109 677.224 505.117 677.8C504.125 678.376 503.325 679.192 502.717 680.248C502.141 681.304 501.853 682.584 501.853 684.088C501.853 685.56 502.141 686.84 502.717 687.928C503.325 688.984 504.125 689.8 505.117 690.376C506.109 690.952 507.229 691.24 508.477 691.24ZM557.796 690.856H554.1V671.176H531.588L531.252 680.104C531.188 681.544 531.076 682.92 530.916 684.232C530.756 685.512 530.516 686.664 530.196 687.688C529.876 688.68 529.428 689.464 528.852 690.04C528.276 690.584 527.524 690.856 526.596 690.856H525.732V702.568H532.692V697H550.836V702.568H557.796V690.856ZM546.612 677.32V690.856H535.765C535.866 690.75 535.962 690.638 536.052 690.52C536.564 689.816 536.948 688.968 537.204 687.976C537.492 686.952 537.684 685.816 537.78 684.568C537.876 683.32 537.956 682.008 538.02 680.632L538.164 677.32H546.612ZM579.404 697V693.791C578.84 694.739 578.072 695.505 577.1 696.088C575.66 696.952 573.804 697.384 571.532 697.384C569.516 697.384 567.788 697.048 566.348 696.376C564.908 695.672 563.804 694.728 563.036 693.544C562.268 692.36 561.884 691.032 561.884 689.56C561.884 688.024 562.252 686.68 562.988 685.528C563.756 684.376 564.956 683.48 566.588 682.84C568.22 682.168 570.348 681.832 572.972 681.832H578.924C578.924 680.232 578.428 678.984 577.436 678.088C576.476 677.192 574.988 676.744 572.972 676.744C571.596 676.744 570.236 676.968 568.892 677.416C567.58 677.832 566.46 678.408 565.532 679.144L562.844 673.912C564.252 672.92 565.948 672.152 567.932 671.608C569.916 671.064 571.932 670.792 573.98 670.792C577.916 670.792 580.972 671.72 583.148 673.576C585.324 675.432 586.412 678.328 586.412 682.264V697H579.404ZM578.924 686.2V688.84C578.476 689.992 577.756 690.872 576.764 691.48C575.772 692.056 574.652 692.344 573.404 692.344C572.092 692.344 571.052 692.072 570.284 691.528C569.548 690.952 569.18 690.184 569.18 689.224C569.18 688.36 569.5 687.64 570.14 687.064C570.812 686.488 572.028 686.2 573.788 686.2H578.924ZM348.544 749.856H344.848V730.176H322.336L322 739.104C321.936 740.544 321.824 741.92 321.664 743.232C321.504 744.512 321.264 745.664 320.944 746.688C320.624 747.68 320.176 748.464 319.6 749.04C319.024 749.584 318.272 749.856 317.344 749.856H316.48V761.568H323.44V756H341.584V761.568H348.544V749.856ZM337.36 736.32V749.856H326.513C326.614 749.75 326.71 749.638 326.8 749.52C327.312 748.816 327.696 747.968 327.952 746.976C328.24 745.952 328.432 744.816 328.528 743.568C328.624 742.32 328.704 741.008 328.768 739.632L328.912 736.32H337.36ZM351.432 755.952L351.816 749.808L352.392 749.904H352.92C353.816 749.904 354.52 749.648 355.032 749.136C355.544 748.624 355.928 747.936 356.184 747.072C356.44 746.176 356.616 745.168 356.712 744.048C356.84 742.928 356.936 741.76 357 740.544L357.384 730.176H379.464V756H371.976V736.32H363.813L363.576 740.88C363.48 743.184 363.288 745.296 363 747.216C362.744 749.136 362.312 750.8 361.704 752.208C361.096 753.584 360.28 754.656 359.256 755.424C358.232 756.16 356.92 756.528 355.32 756.528C354.744 756.528 354.136 756.48 353.496 756.384C352.856 756.288 352.168 756.144 351.432 755.952ZM404.377 756V748.608H398.865L393.961 756H385.993L391.876 747.566C391.014 747.227 390.236 746.807 389.545 746.304C387.433 744.768 386.377 742.56 386.377 739.68C386.377 736.608 387.481 734.256 389.689 732.624C391.929 730.992 394.937 730.176 398.713 730.176H411.049V756H404.377ZM404.377 736.272V743.616H398.761C395.593 743.616 394.009 742.384 394.009 739.92C394.009 738.64 394.425 737.712 395.257 737.136C396.121 736.56 397.321 736.272 398.857 736.272H404.377ZM434.719 756V730.176H447.919C451.151 730.176 453.679 730.768 455.503 731.952C457.327 733.104 458.239 734.736 458.239 736.848C458.239 738.96 457.375 740.624 455.647 741.84C455.281 742.095 454.889 742.323 454.471 742.524C455.323 742.799 456.051 743.163 456.655 743.616C458.223 744.768 459.007 746.448 459.007 748.656C459.007 750.928 458.143 752.72 456.415 754.032C454.687 755.344 452.047 756 448.495 756H434.719ZM441.583 750.912H447.871C449.247 750.912 450.271 750.688 450.943 750.24C451.647 749.76 451.999 749.04 451.999 748.08C451.999 747.088 451.679 746.368 451.039 745.92C450.399 745.44 449.391 745.2 448.015 745.2H441.583V750.912ZM441.583 740.784H447.247C448.559 740.784 449.535 740.544 450.175 740.064C450.847 739.584 451.183 738.896 451.183 738C451.183 737.072 450.847 736.384 450.175 735.936C449.535 735.488 448.559 735.264 447.247 735.264H441.583V740.784ZM481.475 756V752.791C480.911 753.739 480.143 754.505 479.171 755.088C477.731 755.952 475.875 756.384 473.603 756.384C471.587 756.384 469.859 756.048 468.419 755.376C466.979 754.672 465.875 753.728 465.107 752.544C464.339 751.36 463.955 750.032 463.955 748.56C463.955 747.024 464.323 745.68 465.059 744.528C465.827 743.376 467.027 742.48 468.659 741.84C470.291 741.168 472.419 740.832 475.043 740.832H480.995C480.995 739.232 480.499 737.984 479.507 737.088C478.547 736.192 477.059 735.744 475.043 735.744C473.667 735.744 472.307 735.968 470.963 736.416C469.651 736.832 468.531 737.408 467.603 738.144L464.915 732.912C466.323 731.92 468.019 731.152 470.003 730.608C471.987 730.064 474.003 729.792 476.051 729.792C479.987 729.792 483.043 730.72 485.219 732.576C487.395 734.432 488.483 737.328 488.483 741.264V756H481.475ZM480.995 745.2V747.84C480.547 748.992 479.827 749.872 478.835 750.48C477.843 751.056 476.723 751.344 475.475 751.344C474.163 751.344 473.123 751.072 472.355 750.528C471.619 749.952 471.251 749.184 471.251 748.224C471.251 747.36 471.571 746.64 472.211 746.064C472.883 745.488 474.099 745.2 475.859 745.2H480.995ZM512.411 730.176V749.856H503.867V730.176H496.428V756H535.836V730.176H528.396V749.856H519.9V730.176H512.411ZM557.085 756.384C554.141 756.384 551.549 755.808 549.309 754.656C547.101 753.504 545.389 751.936 544.173 749.952C542.957 747.936 542.349 745.648 542.349 743.088C542.349 740.496 542.941 738.208 544.125 736.224C545.341 734.208 546.989 732.64 549.069 731.52C551.149 730.368 553.501 729.792 556.125 729.792C558.653 729.792 560.925 730.336 562.941 731.424C564.989 732.48 566.605 734.016 567.789 736.032C568.973 738.016 569.565 740.4 569.565 743.184C569.565 743.472 569.549 743.808 569.517 744.192C569.501 744.374 569.484 744.551 569.468 744.724C569.452 744.886 569.437 745.045 569.421 745.2H549.882C550.033 745.887 550.274 746.527 550.605 747.12C551.245 748.176 552.125 748.992 553.245 749.568C554.397 750.112 555.741 750.384 557.277 750.384C558.653 750.384 559.853 750.176 560.877 749.76C561.933 749.344 562.893 748.72 563.757 747.888L567.741 752.208C566.557 753.552 565.069 754.592 563.277 755.328C561.485 756.032 559.421 756.384 557.085 756.384ZM550.509 738.672C550.158 739.312 549.921 740.032 549.796 740.832H562.513C562.392 740.018 562.15 739.282 561.789 738.624C561.245 737.632 560.493 736.864 559.533 736.32C558.573 735.744 557.453 735.456 556.173 735.456C554.893 735.456 553.757 735.744 552.765 736.32C551.805 736.864 551.053 737.648 550.509 738.672ZM576.745 756V730.176H597.433V736.32H584.185V756H576.745ZM613.859 756.384C611.107 756.384 608.659 755.808 606.515 754.656C604.403 753.504 602.723 751.936 601.475 749.952C600.259 747.936 599.651 745.648 599.651 743.088C599.651 740.496 600.259 738.208 601.475 736.224C602.723 734.208 604.403 732.64 606.515 731.52C608.659 730.368 611.107 729.792 613.859 729.792C616.579 729.792 619.011 730.368 621.155 731.52C623.299 732.64 624.979 734.192 626.195 736.176C627.411 738.16 628.019 740.464 628.019 743.088C628.019 745.648 627.411 747.936 626.195 749.952C624.979 751.936 623.299 753.504 621.155 754.656C619.011 755.808 616.579 756.384 613.859 756.384ZM613.859 750.24C615.107 750.24 616.227 749.952 617.219 749.376C618.211 748.8 618.995 747.984 619.571 746.928C620.147 745.84 620.435 744.56 620.435 743.088C620.435 741.584 620.147 740.304 619.571 739.248C618.995 738.192 618.211 737.376 617.219 736.8C616.227 736.224 615.107 735.936 613.859 735.936C612.611 735.936 611.491 736.224 610.499 736.8C609.507 737.376 608.707 738.192 608.099 739.248C607.523 740.304 607.235 741.584 607.235 743.088C607.235 744.56 607.523 745.84 608.099 746.928C608.707 747.984 609.507 748.8 610.499 749.376C611.491 749.952 612.611 750.24 613.859 750.24ZM331.888 815.384C329.104 815.384 326.624 814.824 324.448 813.704C322.272 812.552 320.56 810.968 319.312 808.952C318.096 806.936 317.488 804.648 317.488 802.088C317.488 799.496 318.096 797.208 319.312 795.224C320.56 793.208 322.272 791.64 324.448 790.52C326.624 789.368 329.104 788.792 331.888 788.792C334.608 788.792 336.976 789.368 338.992 790.52C341.008 791.64 342.496 793.256 343.456 795.368L337.648 798.488C336.976 797.272 336.128 796.376 335.104 795.8C334.112 795.224 333.024 794.936 331.84 794.936C330.56 794.936 329.408 795.224 328.384 795.8C327.36 796.376 326.544 797.192 325.936 798.248C325.36 799.304 325.072 800.584 325.072 802.088C325.072 803.592 325.36 804.872 325.936 805.928C326.544 806.984 327.36 807.8 328.384 808.376C329.408 808.952 330.56 809.24 331.84 809.24C333.024 809.24 334.112 808.968 335.104 808.424C336.128 807.848 336.976 806.936 337.648 805.688L343.456 808.856C342.496 810.936 341.008 812.552 338.992 813.704C336.976 814.824 334.608 815.384 331.888 815.384ZM354.919 815V795.32H346.183V789.176H371.095V795.32H362.359V815H354.919ZM387.545 815.384C384.793 815.384 382.345 814.808 380.201 813.656C378.089 812.504 376.409 810.936 375.161 808.952C373.945 806.936 373.337 804.648 373.337 802.088C373.337 799.496 373.945 797.208 375.161 795.224C376.409 793.208 378.089 791.64 380.201 790.52C382.345 789.368 384.793 788.792 387.545 788.792C390.265 788.792 392.697 789.368 394.841 790.52C396.985 791.64 398.665 793.192 399.881 795.176C401.097 797.16 401.705 799.464 401.705 802.088C401.705 804.648 401.097 806.936 399.881 808.952C398.665 810.936 396.985 812.504 394.841 813.656C392.697 814.808 390.265 815.384 387.545 815.384ZM387.545 809.24C388.793 809.24 389.913 808.952 390.905 808.376C391.897 807.8 392.681 806.984 393.257 805.928C393.833 804.84 394.121 803.56 394.121 802.088C394.121 800.584 393.833 799.304 393.257 798.248C392.681 797.192 391.897 796.376 390.905 795.8C389.913 795.224 388.793 794.936 387.545 794.936C386.297 794.936 385.177 795.224 384.185 795.8C383.193 796.376 382.393 797.192 381.785 798.248C381.209 799.304 380.921 800.584 380.921 802.088C380.921 803.56 381.209 804.84 381.785 805.928C382.393 806.984 383.193 807.8 384.185 808.376C385.177 808.952 386.297 809.24 387.545 809.24ZM404.656 814.952L405.04 808.808L405.616 808.904H406.144C407.04 808.904 407.744 808.648 408.256 808.136C408.768 807.624 409.152 806.936 409.408 806.072C409.664 805.176 409.84 804.168 409.936 803.048C410.064 801.928 410.16 800.76 410.224 799.544L410.608 789.176H432.688V815H425.2V795.32H417.036L416.8 799.88C416.704 802.184 416.512 804.296 416.224 806.216C415.968 808.136 415.536 809.8 414.928 811.208C414.32 812.584 413.504 813.656 412.48 814.424C411.456 815.16 410.144 815.528 408.544 815.528C407.968 815.528 407.36 815.48 406.72 815.384C406.08 815.288 405.392 815.144 404.656 814.952ZM456.785 815V811.791C456.221 812.739 455.453 813.505 454.481 814.088C453.041 814.952 451.185 815.384 448.913 815.384C446.897 815.384 445.169 815.048 443.729 814.376C442.289 813.672 441.185 812.728 440.417 811.544C439.649 810.36 439.265 809.032 439.265 807.56C439.265 806.024 439.633 804.68 440.369 803.528C441.137 802.376 442.337 801.48 443.969 800.84C445.601 800.168 447.729 799.832 450.353 799.832H456.305C456.305 798.232 455.809 796.984 454.817 796.088C453.857 795.192 452.369 794.744 450.353 794.744C448.977 794.744 447.617 794.968 446.273 795.416C444.961 795.832 443.841 796.408 442.913 797.144L440.225 791.912C441.633 790.92 443.329 790.152 445.313 789.608C447.297 789.064 449.313 788.792 451.361 788.792C455.297 788.792 458.353 789.72 460.529 791.576C462.705 793.432 463.793 796.328 463.793 800.264V815H456.785ZM456.305 804.2V806.84C455.857 807.992 455.137 808.872 454.145 809.48C453.153 810.056 452.033 810.344 450.785 810.344C449.473 810.344 448.433 810.072 447.665 809.528C446.929 808.952 446.561 808.184 446.561 807.224C446.561 806.36 446.881 805.64 447.521 805.064C448.193 804.488 449.409 804.2 451.169 804.2H456.305ZM1772.56 767.272C1774.29 762.728 1775.15 757.8 1775.15 752.488C1775.15 747.24 1774.29 742.408 1772.56 737.992C1770.83 733.512 1768.43 729.64 1765.36 726.376C1762.22 723.048 1758.54 720.456 1754.32 718.6C1750.03 716.744 1745.39 715.816 1740.4 715.816C1735.34 715.816 1730.74 716.744 1726.58 718.6C1722.35 720.456 1718.67 723.048 1715.54 726.376C1712.4 729.64 1709.97 733.512 1708.24 737.992C1706.51 742.408 1705.65 747.272 1705.65 752.584C1705.65 757.832 1706.51 762.696 1708.24 767.176C1709.97 771.656 1712.4 775.56 1715.54 778.888C1718.67 782.216 1722.35 784.808 1726.58 786.664C1730.8 788.456 1735.41 789.352 1740.4 789.352C1745.39 789.352 1750 788.456 1754.22 786.664C1758.45 784.808 1762.13 782.248 1765.26 778.984C1768.4 775.656 1770.83 771.752 1772.56 767.272ZM1760.37 744.328C1761.39 746.824 1761.9 749.576 1761.9 752.584C1761.9 755.592 1761.39 758.376 1760.37 760.936C1759.34 763.496 1757.87 765.736 1755.95 767.656C1754.03 769.512 1751.76 770.984 1749.14 772.072C1746.45 773.096 1743.54 773.608 1740.4 773.608C1737.2 773.608 1734.29 773.096 1731.66 772.072C1729.04 770.984 1726.77 769.48 1724.85 767.56C1722.93 765.64 1721.46 763.432 1720.43 760.936C1719.41 758.376 1718.9 755.592 1718.9 752.584C1718.9 749.576 1719.41 746.792 1720.43 744.232C1721.46 741.672 1722.93 739.464 1724.85 737.608C1726.77 735.688 1729.04 734.216 1731.66 733.192C1734.29 732.104 1737.2 731.56 1740.4 731.56C1743.6 731.56 1746.51 732.104 1749.14 733.192C1751.76 734.216 1754.03 735.688 1755.95 737.608C1757.87 739.528 1759.34 741.768 1760.37 744.328ZM1722.35 675.707V702.108H1774V674.556C1774 667.451 1772.69 662.172 1770.06 658.716C1767.44 655.26 1763.86 653.532 1759.31 653.532C1754.9 653.532 1751.54 655.1 1749.23 658.235C1748.33 659.444 1747.6 660.9 1747.05 662.604C1746.65 661.768 1746.19 660.984 1745.68 660.252C1743.25 656.795 1739.92 655.067 1735.7 655.067C1731.47 655.067 1728.21 656.892 1725.9 660.54C1723.54 664.188 1722.35 669.243 1722.35 675.707ZM1763.82 675.803V688.379H1752.4V675.516C1752.4 672.764 1752.88 670.748 1753.84 669.467C1754.74 668.188 1756.18 667.548 1758.16 667.548C1760.08 667.548 1761.52 668.251 1762.48 669.66C1763.38 671.004 1763.82 673.051 1763.82 675.803ZM1743.57 677.051V688.379H1732.53V677.051C1732.53 674.428 1732.98 672.475 1733.87 671.196C1734.77 669.852 1736.14 669.18 1738 669.18C1739.79 669.18 1741.17 669.852 1742.13 671.196C1743.09 672.475 1743.57 674.428 1743.57 677.051ZM1771.31 617.045C1773.62 612.757 1774.77 607.861 1774.77 602.357C1774.77 596.917 1773.62 592.053 1771.31 587.765C1769.01 583.477 1765.87 580.117 1761.9 577.685C1757.87 575.253 1753.3 574.037 1748.18 574.037C1742.93 574.037 1738.32 575.253 1734.35 577.685C1730.38 580.117 1727.28 583.477 1725.04 587.765C1722.74 592.053 1721.58 596.917 1721.58 602.357C1721.58 607.861 1722.74 612.757 1725.04 617.045C1727.28 621.269 1730.42 624.629 1734.45 627.125C1738.42 629.557 1742.99 630.773 1748.18 630.773C1753.3 630.773 1757.87 629.557 1761.9 627.125C1765.87 624.629 1769.01 621.269 1771.31 617.045ZM1760.75 595.637C1761.9 597.621 1762.48 599.861 1762.48 602.357C1762.48 604.853 1761.9 607.093 1760.75 609.077C1759.6 611.061 1757.97 612.661 1755.86 613.877C1753.68 615.029 1751.12 615.605 1748.18 615.605C1745.17 615.605 1742.61 615.029 1740.5 613.877C1738.38 612.661 1736.75 611.061 1735.6 609.077C1734.45 607.093 1733.87 604.853 1733.87 602.357C1733.87 599.861 1734.45 597.621 1735.6 595.637C1736.75 593.653 1738.38 592.085 1740.5 590.933C1742.61 589.781 1745.17 589.205 1748.18 589.205C1751.12 589.205 1753.68 589.781 1755.86 590.933C1757.97 592.085 1759.6 593.653 1760.75 595.637ZM1761.71 528.888H1722.35V513.912H1761.71V497.304V496.92H1722.35V482.04H1761.71V474.84H1784.27V488.76H1774V497.304V560.856H1722.35V545.976H1761.71V528.888ZM1722.35 464.789H1774V450.965L1743.28 425.909H1774V411.029H1722.35V424.757L1753.07 449.909H1722.35V464.789ZM1907.67 536.755H1914.98V551.059H1907.62C1907.23 557.472 1906.13 563.072 1904.32 567.859C1902.02 573.875 1898.69 578.451 1894.34 581.587C1889.92 584.723 1884.54 586.291 1878.21 586.291C1871.87 586.291 1866.53 584.723 1862.18 581.587C1857.76 578.451 1854.4 573.875 1852.1 567.859C1850.28 563.072 1849.18 557.472 1848.8 551.059H1841.92V536.755H1848.78C1849.14 530.26 1850.25 524.628 1852.1 519.859C1854.4 513.843 1857.76 509.299 1862.18 506.227C1866.59 503.155 1871.94 501.619 1878.21 501.619C1884.42 501.619 1889.76 503.155 1894.24 506.227C1898.66 509.235 1902.02 513.683 1904.32 519.571C1906.23 524.398 1907.35 530.126 1907.67 536.755ZM1861.03 551.059C1861.32 554.189 1861.83 556.941 1862.56 559.315C1863.78 563.283 1865.7 566.259 1868.32 568.243C1870.88 570.227 1874.18 571.219 1878.21 571.219C1882.24 571.219 1885.57 570.163 1888.19 568.051C1890.75 565.939 1892.67 562.899 1893.95 558.931C1894.66 556.597 1895.16 553.973 1895.45 551.059H1861.03ZM1860.99 536.755H1895.52C1895.22 533.495 1894.67 530.647 1893.86 528.211C1892.51 524.307 1890.56 521.395 1888 519.475C1885.38 517.555 1882.08 516.595 1878.11 516.595C1874.14 516.595 1870.88 517.587 1868.32 519.571C1865.76 521.555 1863.87 524.467 1862.66 528.307C1861.84 530.718 1861.28 533.534 1860.99 536.755ZM1909.89 469.248C1911.81 465.984 1912.77 462.176 1912.77 457.824C1912.77 452.96 1911.68 448.608 1909.5 444.768C1907.33 440.864 1904.26 437.792 1900.29 435.552C1896.32 433.248 1891.62 432.096 1886.18 432.096C1880.8 432.096 1876.13 433.248 1872.16 435.552C1868.19 437.792 1865.12 440.864 1862.94 444.768C1860.7 448.608 1859.58 452.96 1859.58 457.824C1859.58 462.368 1860.54 466.272 1862.46 469.536C1863.47 471.253 1864.76 472.757 1866.32 474.048H1860.35V488.352H1930.62V473.376H1906.53C1907.87 472.155 1908.99 470.779 1909.89 469.248ZM1898.75 453.792C1899.9 455.712 1900.48 457.92 1900.48 460.416C1900.48 462.912 1899.9 465.152 1898.75 467.136C1897.6 469.12 1895.97 470.688 1893.86 471.84C1891.68 472.992 1889.12 473.568 1886.18 473.568C1883.17 473.568 1880.61 472.992 1878.5 471.84C1876.38 470.688 1874.75 469.12 1873.6 467.136C1872.45 465.152 1871.87 462.912 1871.87 460.416C1871.87 457.92 1872.45 455.712 1873.6 453.792C1874.75 451.808 1876.38 450.24 1878.5 449.088C1880.61 447.872 1883.17 447.264 1886.18 447.264C1889.12 447.264 1891.68 447.872 1893.86 449.088C1895.97 450.24 1897.6 451.808 1898.75 453.792ZM1930.14 421.086C1930.98 418.462 1931.39 415.806 1931.39 413.118C1931.39 409.982 1930.91 407.134 1929.95 404.574C1928.99 401.95 1927.33 399.582 1924.96 397.47C1922.59 395.294 1919.33 393.374 1915.17 391.71L1860.35 368.382V382.782L1895.43 397.372L1860.35 411.87V427.326L1912.43 404.967L1912.86 405.15C1915.17 406.174 1916.8 407.326 1917.76 408.606C1918.78 409.822 1919.3 411.486 1919.3 413.598C1919.3 415.07 1919.01 416.574 1918.43 418.11C1917.86 419.582 1917.06 420.894 1916.03 422.046L1926.69 427.518C1928.16 425.854 1929.31 423.71 1930.14 421.086ZM1892.42 335.526L1912 321.701V304.037L1885.13 323.332L1860.35 305.285V321.222L1880.42 335.215V343.302H1860.35V358.278H1912V343.302H1892.42V335.526ZM1872.64 283.233H1912V268.352H1872.64V250.88H1860.35V300.705H1872.64V283.233ZM1860.35 186.834H1912V171.954L1860.35 171.954V186.834ZM1881.47 197.586C1878.46 200.978 1876.93 206.066 1876.86 212.85V225.138H1860.35V240.018H1912L1912.1 214.866C1912.1 207.698 1910.53 202.162 1907.39 198.258C1904.19 194.354 1899.74 192.402 1894.05 192.402C1888.61 192.402 1884.42 194.13 1881.47 197.586ZM1899.62 209.586C1900.9 211.122 1901.5 213.33 1901.44 216.21V225.138H1886.46L1886.56 216.21C1886.62 213.33 1887.23 211.122 1888.38 209.586C1889.47 208.05 1891.3 207.282 1893.86 207.282C1896.42 207.282 1898.34 208.05 1899.62 209.586ZM2032.14 445.669H2050V430.309H1982.8V459.301C1982.8 465.189 1983.79 470.309 1985.78 474.661C1987.76 479.013 1990.64 482.405 1994.42 484.837C1998.13 487.205 2002.61 488.389 2007.86 488.389C2012.91 488.389 2017.26 487.269 2020.91 485.029C2024.56 482.789 2027.34 479.557 2029.26 475.333C2029.44 474.951 2029.6 474.562 2029.76 474.167L2050 488.197V471.781L2032.14 459.901V445.669ZM2019.86 445.669H1995.47V458.917C1995.47 463.333 1996.5 466.725 1998.54 469.093C2000.59 471.397 2003.63 472.549 2007.66 472.549C2011.57 472.549 2014.58 471.429 2016.69 469.189C2018.8 466.949 2019.86 463.653 2019.86 459.301V445.669ZM1998.35 411.745H2050V396.865H2010.64V370.369H1998.35V411.745ZM2047.31 352.205C2049.62 347.917 2050.77 343.021 2050.77 337.517C2050.77 332.077 2049.62 327.213 2047.31 322.925C2045.01 318.637 2041.87 315.277 2037.9 312.845C2033.87 310.413 2029.3 309.197 2024.18 309.197C2018.93 309.197 2014.32 310.413 2010.35 312.845C2006.38 315.277 2003.28 318.637 2001.04 322.925C1998.74 327.213 1997.58 332.077 1997.58 337.517C1997.58 343.021 1998.74 347.917 2001.04 352.205C2003.28 356.429 2006.42 359.789 2010.45 362.285C2014.42 364.717 2018.99 365.933 2024.18 365.933C2029.3 365.933 2033.87 364.717 2037.9 362.285C2041.87 359.789 2045.01 356.429 2047.31 352.205ZM2036.75 330.797C2037.9 332.781 2038.48 335.021 2038.48 337.517C2038.48 340.013 2037.9 342.253 2036.75 344.237C2035.6 346.221 2033.97 347.821 2031.86 349.037C2029.68 350.189 2027.12 350.765 2024.18 350.765C2021.17 350.765 2018.61 350.189 2016.5 349.037C2014.38 347.821 2012.75 346.221 2011.6 344.237C2010.45 342.253 2009.87 340.013 2009.87 337.517C2009.87 335.021 2010.45 332.781 2011.6 330.797C2012.75 328.813 2014.38 327.245 2016.5 326.093C2018.61 324.941 2021.17 324.365 2024.18 324.365C2027.12 324.365 2029.68 324.941 2031.86 326.093C2033.97 327.245 2035.6 328.813 2036.75 330.797ZM2037.71 246.27V238.878H2061.14V252.798H2050V289.086H2061.14V303.006H2037.71V301.278C2037.71 299.422 2037.17 297.918 2036.08 296.766C2034.93 295.614 2033.36 294.718 2031.38 294.078C2029.33 293.438 2027.02 292.958 2024.46 292.638C2021.84 292.318 2019.09 292.094 2016.21 291.966L1998.35 291.294V246.27H2037.71ZM2037.71 261.246H2010.64V278.142L2017.26 278.43C2020.02 278.558 2022.64 278.718 2025.14 278.91C2027.63 279.102 2029.9 279.486 2031.95 280.062C2033.94 280.574 2035.63 281.342 2037.04 282.366C2037.28 282.547 2037.5 282.738 2037.71 282.941V261.246ZM1998.35 173.39L2050 173.39V158.51L1998.35 158.51V173.39ZM2019.47 184.142C2016.46 187.534 2014.93 192.622 2014.86 199.406V211.694L1998.35 211.694V226.574L2050 226.574L2050.1 201.422C2050.1 194.254 2048.53 188.718 2045.39 184.814C2042.19 180.91 2037.74 178.958 2032.05 178.958C2026.61 178.958 2022.42 180.686 2019.47 184.142ZM2037.62 196.142C2038.9 197.678 2039.5 199.886 2039.44 202.766V211.694H2024.46L2024.56 202.766C2024.62 199.886 2025.23 197.678 2026.38 196.142C2027.47 194.606 2029.3 193.838 2031.86 193.838C2034.42 193.838 2036.34 194.606 2037.62 196.142Z" fill="#F6F6F6"/>
<path d="M195.523 785.817C195.523 767.861 191.393 750.145 183.451 734.04L169.398 705.539C121.152 607.696 231.731 508.098 324.013 566.279V566.279C357.053 587.109 398.759 588.498 433.112 569.912L461.918 554.327C508.227 529.272 565.843 541.1 598.537 582.373V582.373C607.748 594.001 619.246 603.615 632.321 610.622L639.32 614.373C679.472 635.891 707.355 674.836 714.786 719.78L718.425 741.782C733.755 834.497 813.927 902.5 907.9 902.5H1349.5H1589.16C1612.73 902.5 1634.35 889.413 1645.27 868.532L1648.76 861.879C1662.15 836.282 1693.01 825.331 1719.54 836.758V836.758C1733.26 842.666 1748.78 842.766 1762.58 837.035L1777.58 830.799C1799.69 821.617 1824.46 821.244 1846.83 829.758L1857.34 833.759C1877.95 841.605 1900.82 841.052 1921.03 832.22L1926.68 829.75C1945.9 821.35 1967.85 821.88 1986.64 831.197V831.197C2005.56 840.575 2027.66 841.047 2046.96 832.487L2053.67 829.51C2072.24 821.272 2093.52 821.762 2111.7 830.848V830.848C2130.78 840.391 2153.24 840.429 2172.35 830.95L2190.33 822.039C2197.48 818.493 2202.93 812.248 2205.47 804.681V804.681C2215.45 774.973 2258.54 778.453 2263.63 809.377L2285.05 939.66V939.66C2287.9 955.817 2275.48 970.634 2259.07 970.634H2106.49C2084.1 970.634 2061.97 975.507 2041.65 984.915L1978.54 1014.13C1905.09 1048.13 1824.11 1062.6 1743.43 1056.12L1349.5 1024.5L924.527 1016.59C832.358 1014.87 740.96 999.421 653.349 970.743L521.936 927.727C494.244 918.662 465.051 915.08 435.99 917.181L339.808 924.132C261.862 929.766 195.523 868.049 195.523 789.899V785.817Z" fill="#F6F6F6" fill-opacity="0.22"/>
<path d="M156 191.561C156 98.5774 238.247 27.0862 330.324 40.0332L506.055 64.7427C533.229 68.5637 560.793 68.7272 588.011 65.2288L895.125 25.7547C1026.89 8.81874 1160.79 22.8643 1286.17 66.774L1381.16 100.042C1440.61 120.861 1504.01 127.914 1566.58 120.67L1822.83 91.0023C1836.46 89.4236 1849.69 96.2784 1856.26 108.328V108.328C1863.73 122.018 1860.82 139.043 1849.24 149.479L1819.79 176V176C1780.57 221.81 1719.94 243.293 1660.63 232.394L1279.15 162.291C1169.93 142.22 1057.39 150.574 952.33 186.551L428.832 365.817C303.021 408.9 169.818 323.823 156 191.561V191.561V191.561Z" fill="#F6F6F6" fill-opacity="0.22"/>
</svg>
