<svg width="2137" height="913" viewBox="0 0 2137 913" fill="none" xmlns="http://www.w3.org/2000/svg">
<path fill-rule="evenodd" clip-rule="evenodd" d="M92 387.141V50.9973L139.222 46.8529C182.232 43.0782 225.547 44.8028 268.121 51.9851L437.182 80.5064C595.715 107.252 757.063 113.184 917.132 98.1534L1172.31 74.1924C1277.55 64.3099 1383.67 69.6748 1487.38 90.121L1541.85 100.859C1566.24 105.668 1590.99 108.409 1615.84 109.053L1945.5 117.595C1949.72 117.705 1953.89 117.596 1958 117.28V298.158C1956.78 298.118 1955.56 298.097 1954.33 298.097H1948L1912.11 298.097C1901.01 298.097 1891.18 305.244 1887.75 315.799C1884.32 326.354 1874.49 333.5 1863.39 333.5H1852.19C1841.02 333.5 1831.09 326.38 1827.5 315.799C1823.91 305.217 1813.98 298.097 1802.81 298.097H1780.36C1769.03 298.097 1758.9 305.165 1755 315.799C1751.1 326.432 1740.97 333.5 1729.64 333.5H1724.19C1713.02 333.5 1703.09 326.38 1699.5 315.799C1695.91 305.217 1685.98 298.097 1674.81 298.097H1649.36C1638.03 298.097 1627.9 305.165 1624 315.799C1620.1 326.432 1609.97 333.5 1598.64 333.5H1592.27C1581.02 333.5 1571 326.407 1567.25 315.799C1563.5 305.191 1553.48 298.097 1542.23 298.097L1527.23 298.097C1500.87 298.097 1479.5 319.468 1479.5 345.83V446.564V616.5V619.181C1479.5 681.037 1429.36 731.181 1367.5 731.181H1263H1135H936.5H799H758.761C681.573 731.181 619 668.608 619 591.42C619 538.46 589.066 490.049 541.687 466.386L521.11 456.108C508.416 449.769 496.531 441.925 485.71 432.747L482.956 430.41C430.047 385.532 356.712 373.463 292.212 399.02C256.901 413.011 218.18 415.971 181.152 407.511L92 387.141ZM839.76 475.16C841.04 475.747 842.027 476.6 842.72 477.72H861.44C860.587 471.587 857.813 466.733 853.12 463.16C848.48 459.587 842.453 457.8 835.04 457.8C829.227 457.8 824.16 459.027 819.84 461.48C815.52 463.88 812.187 467.267 809.84 471.64C807.547 476.013 806.4 481 806.4 486.6C806.4 492.2 807.547 497.187 809.84 501.56C812.187 505.933 815.52 509.347 819.84 511.8C824.213 514.2 829.333 515.4 835.2 515.4C841.813 515.4 847.28 513.907 851.6 510.92C855.92 507.88 859.307 504.253 861.76 500.04V482.28H832.88V494.84H847.04C844.533 498.147 841.227 499.8 837.12 499.8C832.8 499.8 829.6 498.707 827.52 496.52C825.44 494.333 824.4 491.027 824.4 486.6C824.4 482.76 825.333 479.747 827.2 477.56C829.067 475.32 831.707 474.2 835.12 474.2C836.933 474.2 838.48 474.52 839.76 475.16ZM896.396 515L899.196 506.44H918.076L920.876 515H939.596L918.956 458.36H898.476L877.756 515H896.396ZM908.636 477.32L913.756 493.08H903.516L908.636 477.32ZM975.071 494.68L985.711 515H1005.23L992.911 493.32C996.858 492.04 999.871 489.933 1001.95 487C1004.08 484.067 1005.15 480.707 1005.15 476.92C1005.15 473.4 1004.32 470.253 1002.67 467.48C1001.07 464.653 998.645 462.44 995.391 460.84C992.138 459.187 988.218 458.36 983.631 458.36H957.231V515H974.991V494.68H975.071ZM982.031 482.84H974.991V473.24H982.031C983.685 473.24 984.938 473.667 985.791 474.52C986.698 475.373 987.151 476.547 987.151 478.04C987.151 479.693 986.725 480.92 985.871 481.72C985.018 482.467 983.738 482.84 982.031 482.84ZM1063.54 461.96C1059.12 459.56 1053.95 458.36 1048.03 458.36H1024.42V515H1048.03C1053.95 515 1059.12 513.773 1063.54 511.32C1068.03 508.813 1071.47 505.4 1073.86 501.08C1076.27 496.76 1077.47 491.907 1077.47 486.52C1077.47 481.08 1076.27 476.227 1073.86 471.96C1071.47 467.693 1068.03 464.36 1063.54 461.96ZM1055.95 495.88C1053.6 498.067 1050.42 499.16 1046.42 499.16H1042.18V473.88H1046.42C1050.42 473.88 1053.6 474.973 1055.95 477.16C1058.29 479.347 1059.47 482.467 1059.47 486.52C1059.47 490.573 1058.29 493.693 1055.95 495.88ZM1115.24 479.48V472.52H1135.24V458.36H1097.48V515H1135.24V500.84H1115.24V492.84H1132.84V479.48H1115.24ZM1192.09 515H1209.85V458.36H1192.09V487.32L1173.29 458.36H1155.53V515H1173.29V486.52L1192.09 515ZM779.469 413.378C779.234 417.174 781.382 420.539 784.589 422.065C785.878 422.782 787.365 423.192 788.957 423.192H795.832C797.633 423.192 799.301 422.667 800.699 421.766C803.572 420.134 805.45 416.97 805.248 413.421L803.901 389.776C805.245 389.911 806.608 389.98 807.987 389.98C830.432 389.98 848.628 371.662 848.628 349.065C848.628 331.603 837.762 316.696 822.467 310.822C823.053 308.471 823.365 306.012 823.365 303.481C823.365 286.647 809.595 273 792.609 273C775.624 273 761.854 286.647 761.854 303.481C761.854 304.163 761.877 304.841 761.921 305.512C743.385 311.597 730 329.042 730 349.614C730 375.244 750.777 396.022 776.408 396.022C777.804 396.022 779.186 395.96 780.551 395.839L779.469 413.378ZM1213.57 396.022C1214.97 396.022 1216.35 395.96 1217.72 395.839L1216.63 413.378C1216.31 418.557 1220.43 422.932 1225.62 422.932H1233.43C1238.6 422.932 1242.71 418.584 1242.41 413.421L1240.92 387.116C1241.83 386.445 1242.73 385.742 1243.59 385.008C1244.11 385.027 1244.63 385.037 1245.15 385.037C1267.6 385.037 1285.79 366.719 1285.79 344.122C1285.79 324.422 1271.96 307.973 1253.55 304.08C1251.18 289.572 1238.49 278.492 1223.18 278.492C1206.43 278.492 1192.8 291.77 1192.44 308.288C1177.43 315.977 1167.17 331.596 1167.17 349.614C1167.17 375.244 1187.94 396.022 1213.57 396.022ZM950.88 295.257C951.131 290.477 955.081 286.73 959.867 286.73H980.101C984.902 286.73 988.857 290.498 989.09 295.293L991.718 349.386H992.757C997.175 349.386 1000.76 352.968 1000.76 357.386V357.862C1000.76 362.281 997.175 365.862 992.757 365.862H992.519L994.806 412.947C995.056 418.083 990.959 422.383 985.817 422.383H953.675C948.519 422.383 944.417 418.059 944.688 412.91L947.164 365.862H931.368L933.655 412.947C933.905 418.083 929.808 422.383 924.666 422.383H892.524C887.368 422.383 883.266 418.059 883.537 412.91L886.013 365.862H880.793C876.374 365.862 872.793 362.281 872.793 357.862V357.386C872.793 352.968 876.374 349.386 880.793 349.386H886.88L889.729 295.257C889.98 290.477 893.93 286.73 898.716 286.73H918.95C923.751 286.73 927.707 290.498 927.939 295.293L930.567 349.386H948.031L950.88 295.257ZM1097.57 286.73C1092.79 286.73 1088.84 290.477 1088.59 295.257L1086.69 331.216H1068.43L1066.68 295.293C1066.45 290.498 1062.49 286.73 1057.69 286.73H1037.46C1032.67 286.73 1028.72 290.477 1028.47 295.257L1026.58 331.216H1021.39C1016.97 331.216 1013.39 334.797 1013.39 339.216V339.692C1013.39 344.11 1016.97 347.692 1021.39 347.692H1025.71L1022.28 412.91C1022.01 418.059 1026.11 422.383 1031.27 422.383H1063.41C1068.55 422.383 1072.65 418.082 1072.4 412.947L1069.23 347.692H1085.83L1082.39 412.91C1082.12 418.059 1086.22 422.383 1091.38 422.383H1123.52C1128.66 422.383 1132.76 418.083 1132.51 412.947L1129.34 347.692H1133.35C1137.77 347.692 1141.35 344.11 1141.35 339.692V339.216C1141.35 334.797 1137.77 331.216 1133.35 331.216H1128.54L1126.8 295.293C1126.56 290.498 1122.61 286.73 1117.81 286.73H1097.57ZM242.064 622.576C239.472 622.576 237.056 622.16 234.816 621.328C232.608 620.464 230.688 619.248 229.056 617.68C227.424 616.112 226.144 614.272 225.216 612.16C224.32 610.048 223.872 607.728 223.872 605.2C223.872 602.672 224.32 600.352 225.216 598.24C226.144 596.128 227.424 594.288 229.056 592.72C230.72 591.152 232.656 589.952 234.864 589.12C237.072 588.256 239.488 587.824 242.112 587.824C245.024 587.824 247.648 588.336 249.984 589.36C252.352 590.352 254.336 591.824 255.936 593.776L250.944 598.384C249.792 597.072 248.512 596.096 247.104 595.456C245.696 594.784 244.16 594.448 242.496 594.448C240.928 594.448 239.488 594.704 238.176 595.216C236.864 595.728 235.728 596.464 234.768 597.424C233.808 598.384 233.056 599.52 232.512 600.832C232 602.144 231.744 603.6 231.744 605.2C231.744 606.8 232 608.256 232.512 609.568C233.056 610.88 233.808 612.016 234.768 612.976C235.728 613.936 236.864 614.672 238.176 615.184C239.488 615.696 240.928 615.952 242.496 615.952C244.16 615.952 245.696 615.632 247.104 614.992C248.512 614.32 249.792 613.312 250.944 611.968L255.936 616.576C254.336 618.528 252.352 620.016 249.984 621.04C247.648 622.064 245.008 622.576 242.064 622.576ZM288.998 622.384C286.246 622.384 283.798 621.808 281.654 620.656C279.542 619.504 277.862 617.936 276.614 615.952C275.398 613.936 274.79 611.648 274.79 609.088C274.79 606.496 275.398 604.208 276.614 602.224C277.862 600.208 279.542 598.64 281.654 597.52C283.798 596.368 286.246 595.792 288.998 595.792C291.718 595.792 294.15 596.368 296.294 597.52C298.438 598.64 300.118 600.192 301.334 602.176C302.55 604.16 303.158 606.464 303.158 609.088C303.158 611.648 302.55 613.936 301.334 615.952C300.118 617.936 298.438 619.504 296.294 620.656C294.15 621.808 291.718 622.384 288.998 622.384ZM288.998 616.24C290.246 616.24 291.366 615.952 292.358 615.376C293.35 614.8 294.134 613.984 294.71 612.928C295.286 611.84 295.574 610.56 295.574 609.088C295.574 607.584 295.286 606.304 294.71 605.248C294.134 604.192 293.35 603.376 292.358 602.8C291.366 602.224 290.246 601.936 288.998 601.936C287.75 601.936 286.63 602.224 285.638 602.8C284.646 603.376 283.846 604.192 283.238 605.248C282.662 606.304 282.374 607.584 282.374 609.088C282.374 610.56 282.662 611.84 283.238 612.928C283.846 613.984 284.646 614.8 285.638 615.376C286.63 615.952 287.75 616.24 288.998 616.24ZM309.748 622V596.176H330.436V602.32H317.188V622H309.748ZM346.862 622.384C344.11 622.384 341.662 621.808 339.518 620.656C337.406 619.504 335.726 617.936 334.478 615.952C333.262 613.936 332.654 611.648 332.654 609.088C332.654 606.496 333.262 604.208 334.478 602.224C335.726 600.208 337.406 598.64 339.518 597.52C341.662 596.368 344.11 595.792 346.862 595.792C349.582 595.792 352.014 596.368 354.158 597.52C356.302 598.64 357.982 600.192 359.198 602.176C360.414 604.16 361.022 606.464 361.022 609.088C361.022 611.648 360.414 613.936 359.198 615.952C357.982 617.936 356.302 619.504 354.158 620.656C352.014 621.808 349.582 622.384 346.862 622.384ZM346.862 616.24C348.11 616.24 349.23 615.952 350.222 615.376C351.214 614.8 351.998 613.984 352.574 612.928C353.15 611.84 353.438 610.56 353.438 609.088C353.438 607.584 353.15 606.304 352.574 605.248C351.998 604.192 351.214 603.376 350.222 602.8C349.23 602.224 348.11 601.936 346.862 601.936C345.614 601.936 344.494 602.224 343.502 602.8C342.51 603.376 341.71 604.192 341.102 605.248C340.526 606.304 340.238 607.584 340.238 609.088C340.238 610.56 340.526 611.84 341.102 612.928C341.71 613.984 342.51 614.8 343.502 615.376C344.494 615.952 345.614 616.24 346.862 616.24ZM382.828 622.384C380.652 622.384 378.749 621.904 377.116 620.944C376.351 620.494 375.663 619.934 375.052 619.266V631.312H367.564V596.176H374.716V599.158C375.362 598.379 376.114 597.737 376.973 597.232C378.604 596.272 380.556 595.792 382.828 595.792C385.26 595.792 387.436 596.352 389.357 597.472C391.309 598.56 392.845 600.096 393.965 602.08C395.116 604.064 395.693 606.4 395.693 609.088C395.693 611.808 395.116 614.16 393.965 616.144C392.845 618.128 391.309 619.664 389.357 620.752C387.436 621.84 385.26 622.384 382.828 622.384ZM381.533 616.24C382.78 616.24 383.884 615.952 384.844 615.376C385.836 614.8 386.62 613.984 387.197 612.928C387.805 611.84 388.108 610.56 388.108 609.088C388.108 607.584 387.805 606.304 387.197 605.248C386.62 604.192 385.836 603.376 384.844 602.8C383.884 602.224 382.78 601.936 381.533 601.936C380.284 601.936 379.164 602.224 378.172 602.8C377.181 603.376 376.396 604.192 375.82 605.248C375.245 606.304 374.957 607.584 374.957 609.088C374.957 610.56 375.245 611.84 375.82 612.928C376.396 613.984 377.181 614.8 378.172 615.376C379.164 615.952 380.284 616.24 381.533 616.24ZM414.477 622.384C411.725 622.384 409.277 621.808 407.133 620.656C405.021 619.504 403.341 617.936 402.093 615.952C400.877 613.936 400.269 611.648 400.269 609.088C400.269 606.496 400.877 604.208 402.093 602.224C403.341 600.208 405.021 598.64 407.133 597.52C409.277 596.368 411.725 595.792 414.477 595.792C417.197 595.792 419.629 596.368 421.773 597.52C423.917 598.64 425.597 600.192 426.813 602.176C428.029 604.16 428.637 606.464 428.637 609.088C428.637 611.648 428.029 613.936 426.813 615.952C425.597 617.936 423.917 619.504 421.773 620.656C419.629 621.808 417.197 622.384 414.477 622.384ZM414.477 616.24C415.725 616.24 416.845 615.952 417.837 615.376C418.829 614.8 419.613 613.984 420.189 612.928C420.765 611.84 421.053 610.56 421.053 609.088C421.053 607.584 420.765 606.304 420.189 605.248C419.613 604.192 418.829 603.376 417.837 602.8C416.845 602.224 415.725 601.936 414.477 601.936C413.229 601.936 412.109 602.224 411.117 602.8C410.125 603.376 409.325 604.192 408.717 605.248C408.141 606.304 407.853 607.584 407.853 609.088C407.853 610.56 408.141 611.84 408.717 612.928C409.325 613.984 410.125 614.8 411.117 615.376C412.109 615.952 413.229 616.24 414.477 616.24ZM463.796 615.856H460.1V596.176H437.588L437.252 605.104C437.188 606.544 437.076 607.92 436.916 609.232C436.756 610.512 436.516 611.664 436.196 612.688C435.876 613.68 435.428 614.464 434.852 615.04C434.276 615.584 433.524 615.856 432.596 615.856H431.732V627.568H438.692V622H456.836V627.568H463.796V615.856ZM444.164 602.32H452.612V615.856H441.765C441.866 615.75 441.962 615.638 442.052 615.52C442.564 614.816 442.948 613.968 443.204 612.976C443.492 611.952 443.684 610.816 443.78 609.568C443.876 608.32 443.956 607.008 444.02 605.632L444.164 602.32ZM485.404 622V618.791C484.84 619.739 484.072 620.505 483.1 621.088C481.66 621.952 479.804 622.384 477.532 622.384C475.516 622.384 473.788 622.048 472.348 621.376C470.908 620.672 469.804 619.728 469.036 618.544C468.268 617.36 467.884 616.032 467.884 614.56C467.884 613.024 468.252 611.68 468.988 610.528C469.756 609.376 470.956 608.48 472.588 607.84C474.22 607.168 476.348 606.832 478.972 606.832H484.924C484.924 605.232 484.428 603.984 483.436 603.088C482.476 602.192 480.988 601.744 478.972 601.744C477.596 601.744 476.236 601.968 474.892 602.416C473.58 602.832 472.46 603.408 471.532 604.144L468.844 598.912C470.252 597.92 471.948 597.152 473.932 596.608C475.916 596.064 477.932 595.792 479.98 595.792C483.916 595.792 486.972 596.72 489.148 598.576C491.324 600.432 492.412 603.328 492.412 607.264V622H485.404ZM484.924 611.2V613.84C484.476 614.992 483.756 615.872 482.764 616.48C481.772 617.056 480.652 617.344 479.404 617.344C478.092 617.344 477.052 617.072 476.284 616.528C475.548 615.952 475.18 615.184 475.18 614.224C475.18 613.36 475.5 612.64 476.14 612.064C476.812 611.488 478.028 611.2 479.788 611.2H484.924ZM544.335 615.856H540.639V596.176H518.127L517.791 605.104C517.727 606.544 517.615 607.92 517.455 609.232C517.295 610.512 517.055 611.664 516.735 612.688C516.415 613.68 515.967 614.464 515.391 615.04C514.815 615.584 514.063 615.856 513.135 615.856H512.271V627.568H519.231V622H537.375V627.568H544.335V615.856ZM524.703 602.32H533.151V615.856H522.303C522.405 615.75 522.5 615.638 522.591 615.52C523.103 614.816 523.487 613.968 523.743 612.976C524.031 611.952 524.223 610.816 524.319 609.568C524.415 608.32 524.495 607.008 524.559 605.632L524.703 602.32ZM547.223 621.952L547.607 615.808L548.183 615.904H548.711C549.607 615.904 550.311 615.648 550.823 615.136C551.335 614.624 551.719 613.936 551.975 613.072C552.231 612.176 552.407 611.168 552.503 610.048C552.631 608.928 552.727 607.76 552.791 606.544L553.175 596.176H575.255V622H567.767V602.32H559.603L559.367 606.88C559.271 609.184 559.079 611.296 558.791 613.216C558.535 615.136 558.103 616.8 557.495 618.208C556.887 619.584 556.071 620.656 555.047 621.424C554.023 622.16 552.711 622.528 551.111 622.528C550.535 622.528 549.927 622.48 549.287 622.384C548.647 622.288 547.959 622.144 547.223 621.952ZM600.168 622V614.608H594.656L589.752 622H581.784L587.667 613.566C586.804 613.227 586.027 612.807 585.336 612.304C583.224 610.768 582.168 608.56 582.168 605.68C582.168 602.608 583.272 600.256 585.48 598.624C587.72 596.992 590.728 596.176 594.504 596.176H606.84V622H600.168ZM600.168 602.272V609.616H594.552C591.384 609.616 589.8 608.384 589.8 605.92C589.8 604.64 590.216 603.712 591.048 603.136C591.912 602.56 593.112 602.272 594.648 602.272H600.168ZM630.51 622V596.176H643.71C646.942 596.176 649.47 596.768 651.294 597.952C653.118 599.104 654.03 600.736 654.03 602.848C654.03 604.96 653.166 606.624 651.438 607.84C651.072 608.095 650.68 608.323 650.262 608.524C651.114 608.799 651.842 609.163 652.446 609.616C654.014 610.768 654.798 612.448 654.798 614.656C654.798 616.928 653.934 618.72 652.206 620.032C650.478 621.344 647.838 622 644.286 622H630.51ZM637.374 616.912H643.662C645.038 616.912 646.062 616.688 646.734 616.24C647.438 615.76 647.79 615.04 647.79 614.08C647.79 613.088 647.47 612.368 646.83 611.92C646.19 611.44 645.182 611.2 643.806 611.2H637.374V616.912ZM637.374 606.784H643.038C644.35 606.784 645.326 606.544 645.966 606.064C646.638 605.584 646.974 604.896 646.974 604C646.974 603.072 646.638 602.384 645.966 601.936C645.326 601.488 644.35 601.264 643.038 601.264H637.374V606.784ZM677.265 622V618.791C676.702 619.739 675.934 620.505 674.961 621.088C673.521 621.952 671.665 622.384 669.393 622.384C667.377 622.384 665.649 622.048 664.209 621.376C662.769 620.672 661.665 619.728 660.897 618.544C660.129 617.36 659.745 616.032 659.745 614.56C659.745 613.024 660.113 611.68 660.849 610.528C661.617 609.376 662.817 608.48 664.449 607.84C666.081 607.168 668.209 606.832 670.833 606.832H676.785C676.785 605.232 676.289 603.984 675.297 603.088C674.337 602.192 672.849 601.744 670.833 601.744C669.457 601.744 668.097 601.968 666.753 602.416C665.441 602.832 664.321 603.408 663.393 604.144L660.705 598.912C662.113 597.92 663.809 597.152 665.793 596.608C667.777 596.064 669.793 595.792 671.841 595.792C675.777 595.792 678.833 596.72 681.009 598.576C683.185 600.432 684.273 603.328 684.273 607.264V622H677.265ZM676.785 611.2V613.84C676.337 614.992 675.617 615.872 674.625 616.48C673.633 617.056 672.513 617.344 671.265 617.344C669.953 617.344 668.913 617.072 668.145 616.528C667.409 615.952 667.041 615.184 667.041 614.224C667.041 613.36 667.361 612.64 668.001 612.064C668.673 611.488 669.889 611.2 671.649 611.2H676.785ZM708.202 596.176V615.856H699.658V596.176H692.218V622H731.626V596.176H724.186V615.856H715.69V596.176H708.202ZM752.876 622.384C749.932 622.384 747.34 621.808 745.1 620.656C742.892 619.504 741.18 617.936 739.964 615.952C738.748 613.936 738.14 611.648 738.14 609.088C738.14 606.496 738.732 604.208 739.916 602.224C741.132 600.208 742.78 598.64 744.86 597.52C746.94 596.368 749.292 595.792 751.916 595.792C754.444 595.792 756.716 596.336 758.732 597.424C760.78 598.48 762.396 600.016 763.58 602.032C764.764 604.016 765.356 606.4 765.356 609.184C765.356 609.472 765.34 609.808 765.308 610.192C765.291 610.381 765.273 610.565 765.256 610.745C765.242 610.9 765.227 611.052 765.212 611.2H745.673C745.824 611.887 746.065 612.527 746.396 613.12C747.036 614.176 747.916 614.992 749.036 615.568C750.188 616.112 751.532 616.384 753.068 616.384C754.444 616.384 755.644 616.176 756.668 615.76C757.724 615.344 758.684 614.72 759.548 613.888L763.532 618.208C762.348 619.552 760.86 620.592 759.068 621.328C757.276 622.032 755.212 622.384 752.876 622.384ZM746.3 604.672C745.949 605.312 745.711 606.032 745.587 606.832H758.304C758.182 606.018 757.941 605.282 757.58 604.624C757.036 603.632 756.284 602.864 755.324 602.32C754.364 601.744 753.244 601.456 751.964 601.456C750.684 601.456 749.548 601.744 748.556 602.32C747.596 602.864 746.844 603.648 746.3 604.672ZM772.536 622V596.176H793.224V602.32H779.976V622H772.536ZM809.65 622.384C806.898 622.384 804.45 621.808 802.306 620.656C800.194 619.504 798.514 617.936 797.266 615.952C796.05 613.936 795.442 611.648 795.442 609.088C795.442 606.496 796.05 604.208 797.266 602.224C798.514 600.208 800.194 598.64 802.306 597.52C804.45 596.368 806.898 595.792 809.65 595.792C812.37 595.792 814.802 596.368 816.946 597.52C819.09 598.64 820.77 600.192 821.986 602.176C823.202 604.16 823.81 606.464 823.81 609.088C823.81 611.648 823.202 613.936 821.986 615.952C820.77 617.936 819.09 619.504 816.946 620.656C814.802 621.808 812.37 622.384 809.65 622.384ZM809.65 616.24C810.898 616.24 812.018 615.952 813.01 615.376C814.002 614.8 814.786 613.984 815.362 612.928C815.938 611.84 816.226 610.56 816.226 609.088C816.226 607.584 815.938 606.304 815.362 605.248C814.786 604.192 814.002 603.376 813.01 602.8C812.018 602.224 810.898 601.936 809.65 601.936C808.402 601.936 807.282 602.224 806.29 602.8C805.298 603.376 804.498 604.192 803.89 605.248C803.314 606.304 803.026 607.584 803.026 609.088C803.026 610.56 803.314 611.84 803.89 612.928C804.498 613.984 805.298 614.8 806.29 615.376C807.282 615.952 808.402 616.24 809.65 616.24ZM237.888 681.384C235.104 681.384 232.624 680.824 230.448 679.704C228.272 678.552 226.56 676.968 225.312 674.952C224.096 672.936 223.488 670.648 223.488 668.088C223.488 665.496 224.096 663.208 225.312 661.224C226.56 659.208 228.272 657.64 230.448 656.52C232.624 655.368 235.104 654.792 237.888 654.792C240.608 654.792 242.976 655.368 244.992 656.52C247.008 657.64 248.496 659.256 249.456 661.368L243.648 664.488C242.976 663.272 242.128 662.376 241.104 661.8C240.112 661.224 239.024 660.936 237.84 660.936C236.56 660.936 235.408 661.224 234.384 661.8C233.36 662.376 232.544 663.192 231.936 664.248C231.36 665.304 231.072 666.584 231.072 668.088C231.072 669.592 231.36 670.872 231.936 671.928C232.544 672.984 233.36 673.8 234.384 674.376C235.408 674.952 236.56 675.24 237.84 675.24C239.024 675.24 240.112 674.968 241.104 674.424C242.128 673.848 242.976 672.936 243.648 671.688L249.456 674.856C248.496 676.936 247.008 678.552 244.992 679.704C242.976 680.824 240.608 681.384 237.888 681.384ZM260.919 681V661.32H252.183V655.176H277.095V661.32H268.359V681H260.919ZM293.545 681.384C290.793 681.384 288.345 680.808 286.201 679.656C284.089 678.504 282.409 676.936 281.161 674.952C279.945 672.936 279.337 670.648 279.337 668.088C279.337 665.496 279.945 663.208 281.161 661.224C282.409 659.208 284.089 657.64 286.201 656.52C288.345 655.368 290.793 654.792 293.545 654.792C296.265 654.792 298.697 655.368 300.841 656.52C302.985 657.64 304.665 659.192 305.881 661.176C307.097 663.16 307.705 665.464 307.705 668.088C307.705 670.648 307.097 672.936 305.881 674.952C304.665 676.936 302.985 678.504 300.841 679.656C298.697 680.808 296.265 681.384 293.545 681.384ZM293.545 675.24C294.793 675.24 295.913 674.952 296.905 674.376C297.897 673.8 298.681 672.984 299.257 671.928C299.833 670.84 300.121 669.56 300.121 668.088C300.121 666.584 299.833 665.304 299.257 664.248C298.681 663.192 297.897 662.376 296.905 661.8C295.913 661.224 294.793 660.936 293.545 660.936C292.297 660.936 291.177 661.224 290.185 661.8C289.193 662.376 288.393 663.192 287.785 664.248C287.209 665.304 286.921 666.584 286.921 668.088C286.921 669.56 287.209 670.84 287.785 671.928C288.393 672.984 289.193 673.8 290.185 674.376C291.177 674.952 292.297 675.24 293.545 675.24ZM310.656 680.952L311.04 674.808L311.616 674.904H312.144C313.04 674.904 313.744 674.648 314.256 674.136C314.768 673.624 315.152 672.936 315.408 672.072C315.664 671.176 315.84 670.168 315.936 669.048C316.064 667.928 316.16 666.76 316.224 665.544L316.608 655.176H338.688V681H331.2V661.32H323.036L322.8 665.88C322.704 668.184 322.512 670.296 322.224 672.216C321.968 674.136 321.536 675.8 320.928 677.208C320.32 678.584 319.504 679.656 318.48 680.424C317.456 681.16 316.144 681.528 314.544 681.528C313.968 681.528 313.36 681.48 312.72 681.384C312.08 681.288 311.392 681.144 310.656 680.952ZM362.785 681V677.791C362.221 678.739 361.453 679.505 360.481 680.088C359.041 680.952 357.185 681.384 354.913 681.384C352.897 681.384 351.169 681.048 349.729 680.376C348.289 679.672 347.185 678.728 346.417 677.544C345.649 676.36 345.265 675.032 345.265 673.56C345.265 672.024 345.633 670.68 346.369 669.528C347.137 668.376 348.337 667.48 349.969 666.84C351.601 666.168 353.729 665.832 356.353 665.832H362.305C362.305 664.232 361.809 662.984 360.817 662.088C359.857 661.192 358.369 660.744 356.353 660.744C354.977 660.744 353.617 660.968 352.273 661.416C350.961 661.832 349.841 662.408 348.913 663.144L346.225 657.912C347.633 656.92 349.329 656.152 351.313 655.608C353.297 655.064 355.313 654.792 357.361 654.792C361.297 654.792 364.353 655.72 366.529 657.576C368.705 659.432 369.793 662.328 369.793 666.264V681H362.785ZM362.305 670.2V672.84C361.857 673.992 361.137 674.872 360.145 675.48C359.153 676.056 358.033 676.344 356.785 676.344C355.473 676.344 354.433 676.072 353.665 675.528C352.929 674.952 352.561 674.184 352.561 673.224C352.561 672.36 352.881 671.64 353.521 671.064C354.193 670.488 355.409 670.2 357.169 670.2H362.305ZM1643.86 438.28C1646.14 439.144 1648.6 439.576 1651.26 439.576C1653.88 439.576 1656.3 439.144 1658.5 438.28C1660.74 437.416 1662.68 436.216 1664.31 434.68C1665.98 433.112 1667.27 431.272 1668.2 429.16C1669.13 427.016 1669.59 424.696 1669.59 422.2C1669.59 419.672 1669.13 417.368 1668.2 415.288C1667.27 413.176 1665.98 411.336 1664.31 409.768C1662.68 408.2 1660.74 406.984 1658.5 406.12C1656.3 405.256 1653.86 404.824 1651.21 404.824C1648.58 404.824 1646.15 405.256 1643.91 406.12C1641.67 406.984 1639.72 408.2 1638.06 409.768C1636.39 411.336 1635.1 413.176 1634.17 415.288C1633.27 417.4 1632.82 419.704 1632.82 422.2C1632.82 424.696 1633.27 427 1634.17 429.112C1635.1 431.224 1636.38 433.064 1638.01 434.632C1639.67 436.2 1641.62 437.416 1643.86 438.28ZM1655.34 432.184C1654.09 432.696 1652.71 432.952 1651.21 432.952C1649.7 432.952 1648.31 432.696 1647.03 432.184C1645.75 431.672 1644.63 430.936 1643.67 429.976C1642.74 429.016 1642.01 427.88 1641.46 426.568C1640.95 425.224 1640.7 423.768 1640.7 422.2C1640.7 420.6 1640.95 419.144 1641.46 417.832C1642.01 416.52 1642.76 415.384 1643.72 414.424C1644.68 413.464 1645.78 412.728 1647.03 412.216C1648.31 411.704 1649.7 411.448 1651.21 411.448C1652.71 411.448 1654.1 411.704 1655.38 412.216C1656.66 412.728 1657.77 413.464 1658.7 414.424C1659.66 415.384 1660.39 416.52 1660.9 417.832C1661.45 419.144 1661.72 420.6 1661.72 422.2C1661.72 423.8 1661.45 425.256 1660.9 426.568C1660.39 427.88 1659.66 429.016 1658.7 429.976C1657.74 430.936 1656.62 431.672 1655.34 432.184ZM1676.45 413.176V439H1690.22C1693.77 439 1696.41 438.344 1698.14 437.032C1699.87 435.72 1700.73 433.928 1700.73 431.656C1700.73 429.448 1699.95 427.768 1698.38 426.616C1697.78 426.163 1697.05 425.799 1696.2 425.524C1696.62 425.323 1697.01 425.096 1697.37 424.84C1699.1 423.624 1699.97 421.96 1699.97 419.848C1699.97 417.736 1699.05 416.104 1697.23 414.952C1695.41 413.768 1692.88 413.176 1689.65 413.176H1676.45ZM1689.6 433.912H1683.31V428.2H1689.74C1691.12 428.2 1692.13 428.44 1692.77 428.92C1693.41 429.368 1693.73 430.088 1693.73 431.08C1693.73 432.04 1693.37 432.76 1692.67 433.24C1692 433.688 1690.97 433.912 1689.6 433.912ZM1688.97 423.784H1683.31V418.264H1688.97C1690.29 418.264 1691.26 418.488 1691.9 418.936C1692.57 419.384 1692.91 420.072 1692.91 421C1692.91 421.896 1692.57 422.584 1691.9 423.064C1691.26 423.544 1690.29 423.784 1688.97 423.784ZM1712.5 437.656C1714.64 438.808 1717.09 439.384 1719.84 439.384C1722.56 439.384 1724.99 438.808 1727.14 437.656C1729.28 436.504 1730.96 434.936 1732.18 432.952C1733.39 430.936 1734 428.648 1734 426.088C1734 423.464 1733.39 421.16 1732.18 419.176C1730.96 417.192 1729.28 415.64 1727.14 414.52C1724.99 413.368 1722.56 412.792 1719.84 412.792C1717.09 412.792 1714.64 413.368 1712.5 414.52C1710.39 415.64 1708.71 417.208 1707.46 419.224C1706.24 421.208 1705.63 423.496 1705.63 426.088C1705.63 428.648 1706.24 430.936 1707.46 432.952C1708.71 434.936 1710.39 436.504 1712.5 437.656ZM1723.2 432.376C1722.21 432.952 1721.09 433.24 1719.84 433.24C1718.59 433.24 1717.47 432.952 1716.48 432.376C1715.49 431.8 1714.69 430.984 1714.08 429.928C1713.51 428.84 1713.22 427.56 1713.22 426.088C1713.22 424.584 1713.51 423.304 1714.08 422.248C1714.69 421.192 1715.49 420.376 1716.48 419.8C1717.47 419.224 1718.59 418.936 1719.84 418.936C1721.09 418.936 1722.21 419.224 1723.2 419.8C1724.19 420.376 1724.98 421.192 1725.55 422.248C1726.13 423.304 1726.42 424.584 1726.42 426.088C1726.42 427.56 1726.13 428.84 1725.55 429.928C1724.98 430.984 1724.19 431.8 1723.2 432.376ZM1756.58 432.856V413.176H1764.06V432.856H1772.37H1772.56V413.176H1780V432.856H1783.6V444.136H1776.64V439H1772.37H1740.59V413.176H1748.03V432.856H1756.58ZM1788.63 413.176V439H1795.54L1808.07 423.64V439H1815.51V413.176H1808.64L1796.07 428.536V413.176H1788.63ZM1657.4 495.837V499.488H1650.25V495.81C1647.04 495.617 1644.24 495.067 1641.85 494.16C1638.84 493.008 1636.55 491.344 1634.98 489.168C1633.42 486.96 1632.63 484.272 1632.63 481.104C1632.63 477.936 1633.42 475.264 1634.98 473.088C1636.55 470.88 1638.84 469.2 1641.85 468.048C1644.24 467.141 1647.04 466.591 1650.25 466.398V462.96H1657.4V466.388C1660.65 466.572 1663.46 467.125 1665.85 468.048C1668.86 469.2 1671.13 470.88 1672.66 473.088C1674.2 475.296 1674.97 477.968 1674.97 481.104C1674.97 484.208 1674.2 486.88 1672.66 489.12C1671.16 491.328 1668.94 493.008 1665.99 494.16C1663.58 495.115 1660.71 495.674 1657.4 495.837ZM1650.25 472.515C1648.68 472.661 1647.31 472.916 1646.12 473.28C1644.14 473.888 1642.65 474.848 1641.66 476.16C1640.66 477.44 1640.17 479.088 1640.17 481.104C1640.17 483.12 1640.7 484.784 1641.75 486.096C1642.81 487.376 1644.33 488.336 1646.31 488.976C1647.48 489.328 1648.79 489.578 1650.25 489.726V472.515ZM1657.4 472.493V489.76C1659.03 489.611 1660.45 489.334 1661.67 488.928C1663.62 488.256 1665.08 487.28 1666.04 486C1667 484.688 1667.48 483.04 1667.48 481.056C1667.48 479.072 1666.98 477.44 1665.99 476.16C1665 474.88 1663.54 473.936 1661.62 473.328C1660.42 472.919 1659.01 472.641 1657.4 472.493ZM1691.15 496.944C1692.79 497.904 1694.69 498.384 1696.87 498.384C1699.3 498.384 1701.47 497.84 1703.39 496.752C1705.35 495.664 1706.88 494.128 1708 492.144C1709.15 490.16 1709.73 487.808 1709.73 485.088C1709.73 482.4 1709.15 480.064 1708 478.08C1706.88 476.096 1705.35 474.56 1703.39 473.472C1701.47 472.352 1699.3 471.792 1696.87 471.792C1694.59 471.792 1692.64 472.272 1691.01 473.232C1690.15 473.737 1689.4 474.379 1688.75 475.158V472.176H1681.6V507.312H1689.09V495.266C1689.7 495.934 1690.39 496.494 1691.15 496.944ZM1698.88 491.376C1697.92 491.952 1696.82 492.24 1695.57 492.24C1694.32 492.24 1693.2 491.952 1692.21 491.376C1691.22 490.8 1690.43 489.984 1689.86 488.928C1689.28 487.84 1688.99 486.56 1688.99 485.088C1688.99 483.584 1689.28 482.304 1689.86 481.248C1690.43 480.192 1691.22 479.376 1692.21 478.8C1693.2 478.224 1694.32 477.936 1695.57 477.936C1696.82 477.936 1697.92 478.224 1698.88 478.8C1699.87 479.376 1700.66 480.192 1701.23 481.248C1701.84 482.304 1702.15 483.584 1702.15 485.088C1702.15 486.56 1701.84 487.84 1701.23 488.928C1700.66 489.984 1699.87 490.8 1698.88 491.376ZM1715.23 507.072C1716.55 507.488 1717.87 507.696 1719.22 507.696C1720.79 507.696 1722.21 507.456 1723.49 506.976C1724.8 506.496 1725.99 505.664 1727.04 504.48C1728.13 503.296 1729.09 501.664 1729.92 499.584L1741.59 472.176H1734.39L1727.09 489.714L1719.84 472.176H1712.11L1723.29 498.216L1723.2 498.432C1722.69 499.584 1722.11 500.4 1721.47 500.88C1720.87 501.392 1720.03 501.648 1718.98 501.648C1718.24 501.648 1717.49 501.504 1716.72 501.216C1715.99 500.928 1715.33 500.528 1714.75 500.016L1712.02 505.344C1712.85 506.08 1713.92 506.656 1715.23 507.072ZM1758.01 488.208L1764.93 498H1773.76L1764.11 484.567L1773.13 472.176H1765.17L1758.17 482.208H1754.13V472.176H1746.64V498H1754.13V488.208H1758.01ZM1784.16 478.32V498H1791.6V478.32H1800.34V472.176H1775.43V478.32H1784.16ZM1832.36 472.176V498H1839.8V472.176H1832.36ZM1826.98 482.736C1825.29 481.232 1822.74 480.464 1819.35 480.432H1813.21V472.176H1805.77V498L1818.34 498.048C1821.93 498.048 1824.7 497.264 1826.65 495.696C1828.6 494.096 1829.58 491.872 1829.58 489.024C1829.58 486.304 1828.71 484.208 1826.98 482.736ZM1820.98 491.808C1820.22 492.448 1819.11 492.752 1817.67 492.72H1813.21V485.232L1817.67 485.28C1819.11 485.312 1820.22 485.616 1820.98 486.192C1821.75 486.736 1822.14 487.648 1822.14 488.928C1822.14 490.208 1821.75 491.168 1820.98 491.808ZM1654.33 548.072V557H1662.01V523.4H1647.51C1644.57 523.4 1642.01 523.896 1639.83 524.888C1637.66 525.88 1635.96 527.32 1634.74 529.208C1633.56 531.064 1632.97 533.304 1632.97 535.928C1632.97 538.456 1633.53 540.632 1634.65 542.456C1635.77 544.28 1637.38 545.672 1639.5 546.632C1639.69 546.719 1639.88 546.802 1640.08 546.881L1633.06 557H1641.27L1647.21 548.072H1654.33ZM1654.33 541.928V529.736H1647.7C1645.5 529.736 1643.8 530.248 1642.62 531.272C1641.46 532.296 1640.89 533.816 1640.89 535.832C1640.89 537.784 1641.45 539.288 1642.57 540.344C1643.69 541.4 1645.34 541.928 1647.51 541.928H1654.33ZM1671.29 531.176V557H1678.73V537.32H1691.98V531.176H1671.29ZM1701.06 555.656C1703.2 556.808 1705.65 557.384 1708.4 557.384C1711.12 557.384 1713.56 556.808 1715.7 555.656C1717.84 554.504 1719.52 552.936 1720.74 550.952C1721.96 548.936 1722.56 546.648 1722.56 544.088C1722.56 541.464 1721.96 539.16 1720.74 537.176C1719.52 535.192 1717.84 533.64 1715.7 532.52C1713.56 531.368 1711.12 530.792 1708.4 530.792C1705.65 530.792 1703.2 531.368 1701.06 532.52C1698.95 533.64 1697.27 535.208 1696.02 537.224C1694.8 539.208 1694.2 541.496 1694.2 544.088C1694.2 546.648 1694.8 548.936 1696.02 550.952C1697.27 552.936 1698.95 554.504 1701.06 555.656ZM1711.76 550.376C1710.77 550.952 1709.65 551.24 1708.4 551.24C1707.16 551.24 1706.04 550.952 1705.04 550.376C1704.05 549.8 1703.25 548.984 1702.64 547.928C1702.07 546.84 1701.78 545.56 1701.78 544.088C1701.78 542.584 1702.07 541.304 1702.64 540.248C1703.25 539.192 1704.05 538.376 1705.04 537.8C1706.04 537.224 1707.16 536.936 1708.4 536.936C1709.65 536.936 1710.77 537.224 1711.76 537.8C1712.76 538.376 1713.54 539.192 1714.12 540.248C1714.69 541.304 1714.98 542.584 1714.98 544.088C1714.98 545.56 1714.69 546.84 1714.12 547.928C1713.54 548.984 1712.76 549.8 1711.76 550.376ZM1754.03 550.856H1757.72V562.568H1750.76V557H1732.62V562.568H1725.66V550.856H1726.52C1727.45 550.856 1728.2 550.584 1728.78 550.04C1729.36 549.464 1729.8 548.68 1730.12 547.688C1730.44 546.664 1730.68 545.512 1730.84 544.232C1731 542.92 1731.12 541.544 1731.18 540.104L1731.52 531.176H1754.03V550.856ZM1746.54 550.856V537.32H1738.09L1737.95 540.632C1737.88 542.008 1737.8 543.32 1737.71 544.568C1737.61 545.816 1737.42 546.952 1737.13 547.976C1736.88 548.968 1736.49 549.816 1735.98 550.52C1735.89 550.638 1735.79 550.75 1735.69 550.856H1746.54ZM1790.47 531.176V557H1797.91V531.176H1790.47ZM1785.09 541.736C1783.4 540.232 1780.85 539.464 1777.46 539.432H1771.32V531.176H1763.88V557L1776.45 557.048C1780.04 557.048 1782.8 556.264 1784.76 554.696C1786.71 553.096 1787.68 550.872 1787.68 548.024C1787.68 545.304 1786.82 543.208 1785.09 541.736ZM1779.09 550.808C1778.32 551.448 1777.22 551.752 1775.78 551.72H1771.32V544.232L1775.78 544.28C1777.22 544.312 1778.32 544.616 1779.09 545.192C1779.86 545.736 1780.24 546.648 1780.24 547.928C1780.24 549.208 1779.86 550.168 1779.09 550.808Z" fill="#F6F6F6"/>
<path d="M45 123.091C45 80.4425 78.9063 45.5211 121.536 44.2634L757.5 25.5L1658.45 119.39L2123.27 225.1C2130.09 226.651 2135.31 232.137 2136.53 239.024V239.024C2138.37 249.397 2130.63 259.004 2120.1 259.42L1625.29 278.955C1590.88 280.314 1556.42 277.714 1522.6 271.206L1183.29 205.918C1033.73 177.14 882.062 160.621 729.808 156.526L399.259 147.636C378.776 147.085 358.307 149.172 338.357 153.845L141.848 199.875C92.3656 211.466 45 173.913 45 123.091V123.091Z" fill="#F6F6F6" fill-opacity="0.22"/>
<path d="M0.566501 532.91C-4.79802 361.81 170.168 243.659 326.873 312.562L914.159 570.792C1004.07 610.327 1105.95 612.81 1197.68 577.703L1274.86 548.164C1336.77 524.474 1406.23 531.534 1462.1 567.194V567.194C1535.45 614.012 1630.13 610.509 1699.82 558.399L1751.83 519.504C1815.47 471.916 1903.95 476.245 1962.64 529.819L1993.3 557.807C2024.55 586.336 2035.39 630.964 2020.71 670.652L2015.77 684.009C2010.74 697.594 2010.51 712.488 2015.11 726.223V726.223C2029.4 768.921 1995.97 812.527 1951.02 809.802L1590.64 787.949C1558.41 785.995 1526.08 789.134 1494.84 797.249L1426.89 814.898C1311.3 844.918 1190.22 846.89 1073.72 820.651L933.985 789.18C837.315 767.407 738.53 756.42 639.439 756.42H277.5L244.905 758.062C114.801 764.618 4.64886 663.116 0.566501 532.91V532.91Z" fill="#F6F6F6" fill-opacity="0.22"/>
</svg>
