<svg width="1866" height="1322" viewBox="0 0 1866 1322" fill="none" xmlns="http://www.w3.org/2000/svg">
<path fill-rule="evenodd" clip-rule="evenodd" d="M0 0H1866V771.119C1862.35 768.387 1857.93 766.638 1853.13 766.234L1834.8 764.69C1830.37 764.317 1826.12 762.771 1822.49 760.21L1807.45 749.606C1798.15 743.051 1785.6 743.599 1776.91 750.94L1762.85 762.814C1759.46 765.682 1755.36 767.592 1750.98 768.35L1732.85 771.486C1721.64 773.425 1713.15 782.687 1712.2 794.023L1710.65 812.359C1710.28 816.787 1708.73 821.036 1706.17 824.668L1695.57 839.707C1689.02 849.004 1689.56 861.555 1696.9 870.245L1708.78 884.303C1711.65 887.698 1713.56 891.796 1714.31 896.174L1717.45 914.307C1719.39 925.516 1728.65 934.003 1739.99 934.958L1758.32 936.502C1762.75 936.875 1767 938.421 1770.63 940.982L1785.67 951.586C1794.97 958.141 1807.52 957.593 1816.21 950.252L1830.27 938.378C1833.66 935.511 1837.76 933.6 1842.14 932.842L1860.27 929.706C1862.28 929.359 1864.2 928.778 1866 927.992V1039.36L1859.88 1036.06C1855.97 1033.95 1852.69 1030.84 1850.38 1027.05L1840.82 1011.32C1834.9 1001.61 1823.18 997.104 1812.28 1000.37L1794.65 1005.65C1790.4 1006.93 1785.88 1007.05 1781.56 1006L1763.68 1001.64C1752.63 998.951 1741.15 1004.06 1735.75 1014.08L1727.03 1030.28C1724.92 1034.19 1721.81 1037.47 1718.01 1039.78L1702.29 1049.34C1692.57 1055.25 1688.07 1066.98 1691.33 1077.88L1696.62 1095.5C1697.89 1099.76 1698.01 1104.28 1696.96 1108.6L1692.61 1126.48C1689.91 1137.53 1695.02 1149.01 1705.04 1154.4L1721.24 1163.13C1725.15 1165.24 1728.43 1168.35 1730.74 1172.15L1740.3 1187.87C1746.22 1197.59 1757.95 1202.09 1768.84 1198.82L1786.47 1193.54C1790.73 1192.26 1795.24 1192.14 1799.56 1193.2L1817.44 1197.55C1828.49 1200.24 1839.97 1195.13 1845.37 1185.12L1854.09 1168.92C1856.2 1165 1859.31 1161.72 1863.11 1159.42L1866 1157.66V1322H1620.88L1632.27 1312.38C1635.66 1309.51 1639.76 1307.6 1644.14 1306.84L1662.27 1303.71C1673.48 1301.77 1681.97 1292.51 1682.92 1281.17L1684.47 1262.83C1684.84 1258.4 1686.39 1254.16 1688.95 1250.52L1699.55 1235.48C1706.1 1226.19 1705.56 1213.64 1698.22 1204.95L1686.34 1190.89C1683.47 1187.49 1681.56 1183.4 1680.81 1179.02L1677.67 1160.89C1675.73 1149.68 1666.47 1141.19 1655.13 1140.23L1636.8 1138.69C1632.37 1138.32 1628.12 1136.77 1624.49 1134.21L1609.45 1123.61C1600.15 1117.05 1587.6 1117.6 1578.91 1124.94L1564.85 1136.81C1561.46 1139.68 1557.36 1141.59 1552.98 1142.35L1534.85 1145.49C1523.64 1147.42 1515.15 1156.69 1514.2 1168.02L1512.65 1186.36C1512.28 1190.79 1510.73 1195.04 1508.17 1198.67L1497.57 1213.71C1491.02 1223 1491.56 1235.55 1498.9 1244.25L1510.78 1258.3C1513.65 1261.7 1515.56 1265.8 1516.31 1270.17L1519.45 1288.31C1521.39 1299.52 1530.65 1308 1541.99 1308.96L1560.32 1310.5C1564.75 1310.87 1569 1312.42 1572.63 1314.98L1582.59 1322H1492.07C1490.55 1320.59 1488.83 1319.36 1486.94 1318.34L1442.1 1294.19C1438.19 1292.08 1434.91 1288.97 1432.6 1285.17L1406.13 1241.66C1400.22 1231.94 1388.49 1227.44 1377.6 1230.7L1328.81 1245.33C1324.55 1246.6 1320.03 1246.72 1315.72 1245.67L1266.23 1233.62C1255.18 1230.93 1243.7 1236.04 1238.31 1246.05L1214.15 1290.89C1212.04 1294.8 1208.93 1298.08 1205.13 1300.39L1169.61 1322H805.035L807.582 1291.74C807.955 1287.32 809.502 1283.07 812.062 1279.44L841.411 1237.81C847.967 1228.51 847.419 1215.96 840.078 1207.27L807.213 1168.36C804.345 1164.97 802.435 1160.87 801.677 1156.49L792.997 1106.31C791.058 1095.1 781.796 1086.61 770.46 1085.66L719.709 1081.38C715.281 1081.01 711.032 1079.46 707.4 1076.9L665.775 1047.55C656.478 1041 643.927 1041.55 635.237 1048.89L596.328 1081.75C592.934 1084.62 588.836 1086.53 584.457 1087.29L534.271 1095.97C523.062 1097.91 514.575 1107.17 513.62 1118.51L509.347 1169.26C508.974 1173.68 507.428 1177.93 504.867 1181.57L475.518 1223.19C468.963 1232.49 469.511 1245.04 476.851 1253.73L509.716 1292.64C512.584 1296.03 514.495 1300.13 515.252 1304.51L518.278 1322H356.791L364.271 1320.71C375.48 1318.77 383.967 1309.51 384.922 1298.17L386.466 1279.83C386.839 1275.4 388.385 1271.16 390.946 1267.52L401.55 1252.48C408.105 1243.19 407.557 1230.64 400.216 1221.95L388.342 1207.89C385.475 1204.49 383.564 1200.4 382.806 1196.02L379.67 1177.89C377.731 1166.68 368.469 1158.19 357.133 1157.23L338.797 1155.69C334.369 1155.32 330.12 1153.77 326.488 1151.21L311.449 1140.61C302.152 1134.05 289.601 1134.6 280.911 1141.94L266.853 1153.81C263.458 1156.68 259.36 1158.59 254.982 1159.35L236.849 1162.49C225.64 1164.42 217.153 1173.69 216.198 1185.02L214.654 1203.36C214.281 1207.79 212.735 1212.04 210.174 1215.67L199.57 1230.71C193.015 1240 193.563 1252.55 200.904 1261.25L212.778 1275.3C215.645 1278.7 217.556 1282.8 218.314 1287.17L221.45 1305.31C222.666 1312.34 226.763 1318.3 232.447 1322H0V1196.73C2.49889 1199.01 4.5163 1201.78 5.91883 1204.89L13.4952 1221.66C18.1789 1232.03 29.2709 1237.92 40.4846 1236.01L58.6238 1232.91C63.0043 1232.17 67.5048 1232.6 71.6621 1234.17L88.8773 1240.67C99.5196 1244.69 111.533 1241.01 118.109 1231.73L128.746 1216.72C131.315 1213.09 134.803 1210.21 138.853 1208.38L155.623 1200.81C165.99 1196.12 171.887 1185.03 169.973 1173.82L166.877 1155.68C166.129 1151.3 166.562 1146.8 168.132 1142.64L174.633 1125.43C178.652 1114.78 174.979 1102.77 165.696 1096.19L150.68 1085.56C147.054 1082.99 144.178 1079.5 142.348 1075.45L134.772 1058.68C130.088 1048.31 118.996 1042.42 107.783 1044.33L89.6432 1047.43C85.2628 1048.17 80.7623 1047.74 76.605 1046.17L59.3899 1039.67C48.7475 1035.65 36.7339 1039.32 30.1581 1048.61L19.5212 1063.62C16.9525 1067.25 13.4637 1070.13 9.41405 1071.95L0 1076.21V959.925C2.48037 961.018 5.16938 961.721 7.98645 961.958L26.3232 963.502C30.7513 963.875 35 965.421 38.6318 967.982L53.671 978.586C62.9682 985.141 75.5188 984.593 84.2093 977.252L98.2671 965.378C101.662 962.511 105.76 960.6 110.138 959.842L128.271 956.706C139.48 954.767 147.967 945.505 148.922 934.17L150.466 915.833C150.839 911.405 152.385 907.156 154.946 903.524L165.55 888.485C172.105 879.188 171.557 866.637 164.216 857.947L152.342 843.889C149.475 840.494 147.564 836.396 146.806 832.018L143.67 813.885C141.731 802.676 132.469 794.189 121.133 793.234L102.797 791.69C98.3686 791.317 94.1199 789.771 90.4881 787.21L75.4489 776.606C66.1517 770.051 53.6011 770.599 44.9106 777.94L30.8528 789.814C27.458 792.682 23.3603 794.592 18.9815 795.35L0.849109 798.486C0.564289 798.535 0.281226 798.589 0 798.648V0ZM792.72 570.552C792.027 569.432 791.04 568.579 789.76 567.992C788.48 567.352 786.933 567.032 785.12 567.032C781.707 567.032 779.067 568.152 777.2 570.392C775.333 572.579 774.4 575.592 774.4 579.432C774.4 583.859 775.44 587.166 777.52 589.352C779.6 591.539 782.8 592.632 787.12 592.632C791.227 592.632 794.533 590.979 797.04 587.672H782.88V575.112H811.76V592.872C809.307 597.086 805.92 600.712 801.6 603.752C797.28 606.739 791.813 608.232 785.2 608.232C779.333 608.232 774.213 607.032 769.84 604.632C765.52 602.179 762.187 598.766 759.84 594.392C757.547 590.019 756.4 585.032 756.4 579.432C756.4 573.832 757.547 568.846 759.84 564.472C762.187 560.099 765.52 556.712 769.84 554.312C774.16 551.859 779.227 550.632 785.04 550.632C792.453 550.632 798.48 552.419 803.12 555.992C807.813 559.566 810.587 564.419 811.44 570.552H792.72ZM849.196 599.272L846.396 607.832H827.756L848.476 551.192H868.956L889.596 607.832H870.876L868.076 599.272H849.196ZM863.756 585.912L858.636 570.152L853.516 585.912H863.756ZM935.711 607.832L925.071 587.512H924.991V607.832H907.231V551.192H933.631C938.218 551.192 942.138 552.019 945.391 553.672C948.645 555.272 951.071 557.486 952.671 560.312C954.325 563.086 955.151 566.232 955.151 569.752C955.151 573.539 954.085 576.899 951.951 579.832C949.871 582.766 946.858 584.872 942.911 586.152L955.231 607.832H935.711ZM924.991 575.672H932.031C933.738 575.672 935.018 575.299 935.871 574.552C936.725 573.752 937.151 572.526 937.151 570.872C937.151 569.379 936.698 568.206 935.791 567.352C934.938 566.499 933.685 566.072 932.031 566.072H924.991V575.672ZM998.025 551.192C1003.95 551.192 1009.12 552.392 1013.54 554.792C1018.03 557.192 1021.47 560.526 1023.86 564.792C1026.27 569.059 1027.46 573.912 1027.46 579.352C1027.46 584.739 1026.27 589.592 1023.86 593.912C1021.47 598.232 1018.03 601.646 1013.54 604.152C1009.12 606.606 1003.95 607.832 998.025 607.832H974.425V551.192H998.025ZM996.425 591.992C1000.42 591.992 1003.6 590.899 1005.95 588.712C1008.29 586.526 1009.47 583.406 1009.47 579.352C1009.47 575.299 1008.29 572.179 1005.95 569.992C1003.6 567.806 1000.42 566.712 996.425 566.712H992.185V591.992H996.425ZM1065.24 565.352V572.312H1082.84V585.672H1065.24V593.672H1085.24V607.832H1047.48V551.192H1085.24V565.352H1065.24ZM1159.85 607.832H1142.09L1123.29 579.352V607.832H1105.53V551.192H1123.29L1142.09 580.152V551.192H1159.85V607.832ZM734.589 514.897C731.382 513.371 729.234 510.007 729.469 506.21L730.551 488.671C729.186 488.792 727.804 488.854 726.408 488.854C700.777 488.854 680 468.076 680 442.446C680 421.875 693.385 404.429 711.921 398.344C711.877 397.673 711.854 396.996 711.854 396.313C711.854 379.479 725.624 365.832 742.609 365.832C759.595 365.832 773.365 379.479 773.365 396.313C773.365 398.844 773.053 401.303 772.467 403.655C787.762 409.528 798.628 424.435 798.628 441.897C798.628 464.494 780.432 482.813 757.987 482.813C756.608 482.813 755.245 482.743 753.901 482.608L755.248 506.253C755.45 509.802 753.573 512.966 750.699 514.598C749.301 515.499 747.633 516.025 745.832 516.025H738.957C737.365 516.025 735.878 515.614 734.589 514.897ZM1167.72 488.671C1166.35 488.792 1164.97 488.854 1163.57 488.854C1137.94 488.854 1117.17 468.076 1117.17 442.446C1117.17 424.429 1127.43 408.809 1142.44 401.12C1142.8 384.602 1156.43 371.324 1173.18 371.324C1188.49 371.324 1201.18 382.404 1203.55 396.912C1221.96 400.806 1235.79 417.254 1235.79 436.954C1235.79 459.551 1217.6 477.87 1195.15 477.87C1194.63 477.87 1194.11 477.86 1193.59 477.84C1192.73 478.574 1191.83 479.278 1190.92 479.948L1192.41 506.253C1192.71 511.416 1188.6 515.765 1183.43 515.765H1175.62C1170.43 515.765 1166.31 511.389 1166.63 506.21L1167.72 488.671ZM909.867 379.562C905.081 379.562 901.131 383.309 900.88 388.089L898.031 442.219H880.567L877.939 388.126C877.707 383.331 873.751 379.562 868.95 379.562H848.716C843.93 379.562 839.98 383.309 839.729 388.089L836.88 442.219H830.793C826.374 442.219 822.793 445.8 822.793 450.219V450.695C822.793 455.113 826.374 458.695 830.793 458.695H836.013L833.537 505.743C833.266 510.892 837.368 515.216 842.524 515.216H874.666C879.808 515.216 883.905 510.915 883.655 505.779L881.368 458.695H897.164L894.688 505.743C894.417 510.892 898.519 515.216 903.675 515.216H935.817C940.959 515.216 945.056 510.915 944.806 505.779L942.519 458.695H942.757C947.175 458.695 950.757 455.113 950.757 450.695V450.219C950.757 445.8 947.175 442.219 942.757 442.219H941.718L939.09 388.126C938.857 383.331 934.902 379.562 930.101 379.562H909.867ZM1038.58 388.089C1038.84 383.309 1042.79 379.562 1047.57 379.562H1067.81C1072.61 379.562 1076.56 383.331 1076.8 388.126L1078.54 424.048H1083.35C1087.77 424.048 1091.35 427.63 1091.35 432.048V432.524C1091.35 436.942 1087.77 440.524 1083.35 440.524H1079.34L1082.51 505.779C1082.76 510.915 1078.66 515.216 1073.52 515.216H1041.38C1036.22 515.216 1032.12 510.892 1032.39 505.743L1035.83 440.524H1019.23L1022.4 505.779C1022.65 510.915 1018.55 515.216 1013.41 515.216H981.268C976.111 515.216 972.009 510.892 972.28 505.743L975.713 440.524H971.389C966.971 440.524 963.389 436.942 963.389 432.524V432.048C963.389 427.63 966.971 424.048 971.389 424.048H976.58L978.472 388.089C978.724 383.309 982.673 379.562 987.46 379.562H1007.69C1012.49 379.562 1016.45 383.331 1016.68 388.126L1018.43 424.048H1036.69L1038.58 388.089ZM1657.67 893.885C1655.73 882.676 1646.47 874.189 1635.13 873.234L1616.8 871.69C1612.37 871.317 1608.12 869.771 1604.49 867.21L1589.45 856.606C1580.15 850.051 1567.6 850.599 1558.91 857.94L1544.85 869.814C1541.46 872.682 1537.36 874.592 1532.98 875.35L1514.85 878.486C1503.64 880.425 1495.15 889.687 1494.2 901.023L1492.65 919.359C1492.28 923.787 1490.73 928.036 1488.17 931.668L1477.57 946.707C1471.02 956.004 1471.56 968.555 1478.9 977.245L1490.78 991.303C1493.65 994.698 1495.56 998.796 1496.31 1003.17L1499.45 1021.31C1501.39 1032.52 1510.65 1041 1521.99 1041.96L1540.32 1043.5C1544.75 1043.87 1549 1045.42 1552.63 1047.98L1567.67 1058.59C1576.97 1065.14 1589.52 1064.59 1598.21 1057.25L1612.27 1045.38C1615.66 1042.51 1619.76 1040.6 1624.14 1039.84L1642.27 1036.71C1653.48 1034.77 1661.97 1025.51 1662.92 1014.17L1664.47 995.833C1664.84 991.405 1666.39 987.156 1668.95 983.524L1679.55 968.485C1686.1 959.188 1685.56 946.637 1678.22 937.947L1666.34 923.889C1663.47 920.494 1661.56 916.396 1660.81 912.018L1657.67 893.885ZM1219.38 1038.27C1222.07 1027.21 1216.96 1015.74 1206.94 1010.34L1162.1 986.186C1158.19 984.078 1154.91 980.966 1152.6 977.17L1126.13 933.657C1120.22 923.938 1108.49 919.436 1097.6 922.703L1048.81 937.327C1044.55 938.603 1040.03 938.722 1035.72 937.67L986.231 925.619C975.178 922.927 963.701 928.037 958.306 938.052L934.15 982.89C932.042 986.802 928.93 990.082 925.134 992.391L881.621 1018.86C871.902 1024.77 867.4 1036.5 870.667 1047.4L885.291 1096.18C886.567 1100.44 886.685 1104.96 885.634 1109.28L873.583 1158.76C870.891 1169.82 876.001 1181.29 886.016 1186.69L930.854 1210.84C934.766 1212.95 938.046 1216.06 940.355 1219.86L966.825 1263.37C972.737 1273.09 984.465 1277.59 995.362 1274.33L1044.15 1259.7C1048.4 1258.43 1052.92 1258.31 1057.24 1259.36L1106.73 1271.41C1117.78 1274.1 1129.26 1268.99 1134.65 1258.98L1158.81 1214.14C1160.92 1210.23 1164.03 1206.95 1167.82 1204.64L1211.34 1178.17C1221.06 1172.26 1225.56 1160.53 1222.29 1149.63L1207.67 1100.85C1206.39 1096.59 1206.27 1092.07 1207.32 1087.75L1219.38 1038.27ZM351.133 897.234C362.469 898.189 371.731 906.676 373.67 917.885L376.806 936.018C377.564 940.396 379.475 944.494 382.342 947.889L394.216 961.947C401.557 970.637 402.105 983.188 395.55 992.485L384.946 1007.52C382.385 1011.16 380.839 1015.4 380.466 1019.83L378.922 1038.17C377.967 1049.51 369.48 1058.77 358.271 1060.71L340.138 1063.84C335.76 1064.6 331.662 1066.51 328.267 1069.38L314.209 1081.25C305.519 1088.59 292.968 1089.14 283.671 1082.59L268.632 1071.98C265 1069.42 260.751 1067.87 256.323 1067.5L237.986 1065.96C226.651 1065 217.389 1056.52 215.45 1045.31L212.314 1027.17C211.556 1022.8 209.645 1018.7 206.778 1015.3L194.904 1001.25C187.563 992.555 187.015 980.004 193.57 970.707L204.174 955.668C206.735 952.036 208.281 947.787 208.654 943.359L210.198 925.023C211.153 913.687 219.64 904.425 230.849 902.486L248.982 899.35C253.36 898.592 257.458 896.682 260.853 893.814L274.911 881.94C283.601 874.599 296.152 874.051 305.449 880.606L320.488 891.21C324.12 893.771 328.369 895.317 332.797 895.69L351.133 897.234Z" fill="#F5F5F5"/>
</svg>
