<svg width="2055" height="1500" viewBox="0 0 2055 1500" fill="none" xmlns="http://www.w3.org/2000/svg">
<path fill-rule="evenodd" clip-rule="evenodd" d="M1904.11 775.999C1908.89 775.999 1912.84 772.252 1913.09 767.472L1953.42 0H2055V1500H1868.25L1892.5 1040.47C1892.77 1035.32 1888.67 1031 1883.51 1031H1714.45C1709.31 1031 1705.21 1035.3 1705.46 1040.44L1727.85 1500H1093.2L1117.5 1039.47C1117.77 1034.32 1113.67 1030 1108.51 1030H939.449C934.307 1030 930.21 1034.3 930.46 1039.44L952.894 1500H316.251L340.5 1040.47C340.772 1035.32 336.669 1031 331.513 1031H162.449C157.307 1031 153.21 1035.3 153.46 1040.44L175.846 1500H0V0H101.455L138.681 767.436C138.914 772.231 142.87 776 147.671 776H352.106C356.893 776 360.842 772.252 361.093 767.472L401.424 0H878.504L915.681 766.435C915.914 771.231 919.87 774.999 924.671 774.999H1129.11C1133.89 774.999 1137.84 771.252 1138.09 766.472L1178.37 0H1653.46L1690.68 767.435C1690.91 772.231 1694.87 775.999 1699.67 775.999H1904.11ZM945.36 979.359C945.013 978.799 944.52 978.372 943.88 978.079C943.24 977.759 942.467 977.599 941.56 977.599C939.853 977.599 938.533 978.159 937.6 979.279C936.667 980.372 936.2 981.879 936.2 983.799C936.2 986.012 936.72 987.666 937.76 988.759C938.8 989.852 940.4 990.399 942.56 990.399C944.613 990.399 946.267 989.572 947.52 987.919H940.44V981.639H954.88V990.519C953.653 992.626 951.96 994.439 949.8 995.959C947.64 997.452 944.907 998.199 941.6 998.199C938.667 998.199 936.107 997.599 933.92 996.399C931.76 995.172 930.093 993.466 928.92 991.279C927.773 989.092 927.2 986.599 927.2 983.799C927.2 980.999 927.773 978.506 928.92 976.319C930.093 974.132 931.76 972.439 933.92 971.239C936.08 970.012 938.613 969.399 941.52 969.399C945.227 969.399 948.24 970.292 950.56 972.079C952.907 973.866 954.293 976.292 954.72 979.359H945.36ZM973.598 993.719L972.198 997.999H962.878L973.238 969.679H983.478L993.798 997.999H984.438L983.038 993.719H973.598ZM980.878 987.039L978.318 979.159L975.758 987.039H980.878ZM1016.86 997.999L1011.54 987.839H1011.5V997.999H1002.62V969.679H1015.82C1018.11 969.679 1020.07 970.092 1021.7 970.919C1023.32 971.719 1024.54 972.826 1025.34 974.239C1026.16 975.626 1026.58 977.199 1026.58 978.959C1026.58 980.852 1026.04 982.532 1024.98 983.999C1023.94 985.466 1022.43 986.519 1020.46 987.159L1026.62 997.999H1016.86ZM1011.5 981.919H1015.02C1015.87 981.919 1016.51 981.732 1016.94 981.359C1017.36 980.959 1017.58 980.346 1017.58 979.519C1017.58 978.772 1017.35 978.186 1016.9 977.759C1016.47 977.332 1015.84 977.119 1015.02 977.119H1011.5V981.919ZM1048.01 969.679C1050.97 969.679 1053.56 970.279 1055.77 971.479C1058.01 972.679 1059.73 974.346 1060.93 976.479C1062.13 978.612 1062.73 981.039 1062.73 983.759C1062.73 986.452 1062.13 988.879 1060.93 991.039C1059.73 993.199 1058.01 994.906 1055.77 996.159C1053.56 997.386 1050.97 997.999 1048.01 997.999H1036.21V969.679H1048.01ZM1047.21 990.079C1049.21 990.079 1050.8 989.532 1051.97 988.439C1053.15 987.346 1053.73 985.786 1053.73 983.759C1053.73 981.732 1053.15 980.172 1051.97 979.079C1050.8 977.986 1049.21 977.439 1047.21 977.439H1045.09V990.079H1047.21ZM1081.62 976.759V980.239H1090.42V986.919H1081.62V990.919H1091.62V997.999H1072.74V969.679H1091.62V976.759H1081.62ZM1128.93 997.999H1120.05L1110.65 983.759V997.999H1101.77V969.679H1110.65L1120.05 984.159V969.679H1128.93V997.999ZM834.457 924.89C833.481 924.962 832.495 924.999 831.5 924.999C809.685 924.999 792 907.314 792 885.499C792 868.045 803.32 853.235 819.019 848.011C819.006 847.675 819 847.338 819 846.999C819 832.64 830.641 820.999 845 820.999C859.359 820.999 871 832.64 871 846.999C871 849.201 870.726 851.339 870.211 853.381C882.974 858.369 892 870.645 892 884.999C892 903.777 876.554 918.999 857.5 918.999C856.422 918.999 855.356 918.95 854.304 918.855L855.446 938.476C855.747 943.643 851.637 947.999 846.461 947.999H842.585C837.392 947.999 833.276 943.616 833.603 938.433L834.457 924.89ZM1204.46 924.846C1203.32 924.947 1202.17 924.999 1201 924.999C1179.46 924.999 1162 907.314 1162 885.499C1162 870.251 1170.53 857.02 1183.02 850.437C1183.59 836.846 1195 825.999 1209 825.999C1221.7 825.999 1232.27 834.926 1234.55 846.729C1250.22 850.029 1262 864.119 1262 880.999C1262 900.329 1246.55 915.999 1227.5 915.999C1226.94 915.999 1226.38 915.985 1225.83 915.959C1225.3 916.402 1224.76 916.831 1224.21 917.245L1225.45 938.476C1225.75 943.643 1221.64 947.999 1216.46 947.999H1212.59C1207.39 947.999 1203.28 943.616 1203.6 938.433L1204.46 924.846ZM987.553 831.999C982.765 831.999 978.815 835.748 978.565 840.529L976.188 885.999H961.988L959.745 840.555C959.508 835.763 955.554 831.999 950.756 831.999H935.682C930.898 831.999 926.95 835.741 926.695 840.518L924.262 885.999H919.5C915.91 885.999 913 888.909 913 892.499C913 896.089 915.91 898.999 919.5 898.999H923.567L921.507 937.518C921.232 942.67 925.335 946.999 930.494 946.999H955.545C960.69 946.999 964.787 942.694 964.534 937.555L962.63 898.999H975.509L973.495 937.529C973.226 942.677 977.328 946.999 982.483 946.999H1006.56C1011.7 946.999 1015.79 942.7 1015.54 937.565L1013.68 898.999H1014.5C1018.09 898.999 1021 896.089 1021 892.499C1021 888.909 1018.09 885.999 1014.5 885.999H1013.06L1010.86 840.565C1010.63 835.769 1006.68 831.999 1001.88 831.999H987.553ZM1094.69 840.518C1094.95 835.741 1098.9 831.999 1103.68 831.999H1118.76C1123.55 831.999 1127.51 835.763 1127.74 840.555L1129.2 869.999H1133C1136.87 869.999 1140 873.133 1140 876.999C1140 880.865 1136.87 883.999 1133 883.999H1129.89L1132.53 937.555C1132.79 942.694 1128.69 946.999 1123.54 946.999H1098.49C1093.33 946.999 1089.23 942.67 1089.51 937.518L1092.37 883.999H1078.96L1081.54 937.565C1081.79 942.7 1077.7 946.999 1072.56 946.999H1048.48C1043.33 946.999 1039.23 942.677 1039.49 937.529L1042.29 883.999H1039C1035.13 883.999 1032 880.865 1032 876.999C1032 873.133 1035.13 869.999 1039 869.999H1043.02L1044.56 840.529C1044.81 835.748 1048.76 831.999 1053.55 831.999H1067.88C1072.68 831.999 1076.63 835.769 1076.86 840.565L1078.28 869.999H1093.12L1094.69 840.518ZM481.418 1218.24C483.938 1219.18 486.656 1219.65 489.572 1219.65C492.884 1219.65 495.854 1219.07 498.482 1217.92C501.146 1216.77 503.378 1215.09 505.178 1212.9L499.562 1207.71C498.266 1209.23 496.826 1210.36 495.242 1211.12C493.658 1211.84 491.93 1212.2 490.058 1212.2C488.294 1212.2 486.674 1211.91 485.198 1211.33C483.722 1210.76 482.444 1209.93 481.364 1208.85C480.284 1207.77 479.438 1206.49 478.826 1205.01C478.25 1203.54 477.962 1201.9 477.962 1200.1C477.962 1198.3 478.25 1196.66 478.826 1195.19C479.438 1193.71 480.284 1192.43 481.364 1191.35C482.444 1190.27 483.722 1189.44 485.198 1188.87C486.674 1188.29 488.294 1188 490.058 1188C491.93 1188 493.658 1188.38 495.242 1189.14C496.826 1189.86 498.266 1190.96 499.562 1192.43L505.178 1187.25C503.378 1185.05 501.146 1183.4 498.482 1182.28C495.854 1181.13 492.902 1180.55 489.626 1180.55C486.674 1180.55 483.956 1181.04 481.472 1182.01C478.988 1182.95 476.81 1184.3 474.938 1186.06C473.102 1187.82 471.662 1189.89 470.618 1192.27C469.61 1194.65 469.106 1197.26 469.106 1200.1C469.106 1202.94 469.61 1205.55 470.618 1207.93C471.662 1210.31 473.102 1212.38 474.938 1214.14C476.774 1215.9 478.934 1217.27 481.418 1218.24ZM534.111 1217.49C536.523 1218.78 539.277 1219.43 542.373 1219.43C545.433 1219.43 548.169 1218.78 550.581 1217.49C552.993 1216.19 554.883 1214.43 556.251 1212.2C557.619 1209.93 558.303 1207.35 558.303 1204.47C558.303 1201.52 557.619 1198.93 556.251 1196.7C554.883 1194.47 552.993 1192.72 550.581 1191.46C548.169 1190.16 545.433 1189.52 542.373 1189.52C539.277 1189.52 536.523 1190.16 534.111 1191.46C531.735 1192.72 529.845 1194.48 528.441 1196.75C527.073 1198.98 526.389 1201.56 526.389 1204.47C526.389 1207.35 527.073 1209.93 528.441 1212.2C529.845 1214.43 531.735 1216.19 534.111 1217.49ZM546.153 1211.55C545.037 1212.2 543.777 1212.52 542.373 1212.52C540.969 1212.52 539.709 1212.2 538.593 1211.55C537.477 1210.9 536.577 1209.98 535.893 1208.79C535.245 1207.57 534.921 1206.13 534.921 1204.47C534.921 1202.78 535.245 1201.34 535.893 1200.15C536.577 1198.97 537.477 1198.05 538.593 1197.4C539.709 1196.75 540.969 1196.43 542.373 1196.43C543.777 1196.43 545.037 1196.75 546.153 1197.4C547.269 1198.05 548.151 1198.97 548.799 1200.15C549.447 1201.34 549.771 1202.78 549.771 1204.47C549.771 1206.13 549.447 1207.57 548.799 1208.79C548.151 1209.98 547.269 1210.9 546.153 1211.55ZM588.991 1189.95H565.717V1219H574.087V1196.86H588.991V1189.95ZM599.208 1217.49C601.62 1218.78 604.374 1219.43 607.47 1219.43C610.53 1219.43 613.266 1218.78 615.678 1217.49C618.09 1216.19 619.98 1214.43 621.348 1212.2C622.716 1209.93 623.4 1207.35 623.4 1204.47C623.4 1201.52 622.716 1198.93 621.348 1196.7C619.98 1194.47 618.09 1192.72 615.678 1191.46C613.266 1190.16 610.53 1189.52 607.47 1189.52C604.374 1189.52 601.62 1190.16 599.208 1191.46C596.832 1192.72 594.942 1194.48 593.538 1196.75C592.17 1198.98 591.486 1201.56 591.486 1204.47C591.486 1207.35 592.17 1209.93 593.538 1212.2C594.942 1214.43 596.832 1216.19 599.208 1217.49ZM611.25 1211.55C610.134 1212.2 608.874 1212.52 607.47 1212.52C606.066 1212.52 604.806 1212.2 603.69 1211.55C602.574 1210.9 601.674 1209.98 600.99 1208.79C600.342 1207.57 600.018 1206.13 600.018 1204.47C600.018 1202.78 600.342 1201.34 600.99 1200.15C601.674 1198.97 602.574 1198.05 603.69 1197.4C604.806 1196.75 606.066 1196.43 607.47 1196.43C608.874 1196.43 610.134 1196.75 611.25 1197.4C612.366 1198.05 613.248 1198.97 613.896 1200.15C614.544 1201.34 614.868 1202.78 614.868 1204.47C614.868 1206.13 614.544 1207.57 613.896 1208.79C613.248 1209.98 612.366 1210.9 611.25 1211.55ZM641.506 1217.81C643.342 1218.89 645.484 1219.43 647.932 1219.43C650.668 1219.43 653.116 1218.82 655.276 1217.6C657.472 1216.37 659.2 1214.64 660.46 1212.41C661.756 1210.18 662.404 1207.53 662.404 1204.47C662.404 1201.45 661.756 1198.82 660.46 1196.59C659.2 1194.36 657.472 1192.63 655.276 1191.41C653.116 1190.15 650.668 1189.52 647.932 1189.52C645.376 1189.52 643.18 1190.06 641.344 1191.14C640.379 1191.7 639.533 1192.43 638.806 1193.3V1189.95H630.76V1229.48H639.184V1215.92C639.871 1216.68 640.645 1217.31 641.506 1217.81ZM650.2 1211.55C649.12 1212.2 647.878 1212.52 646.474 1212.52C645.07 1212.52 643.81 1212.2 642.694 1211.55C641.578 1210.9 640.696 1209.98 640.048 1208.79C639.4 1207.57 639.076 1206.13 639.076 1204.47C639.076 1202.78 639.4 1201.34 640.048 1200.15C640.696 1198.97 641.578 1198.05 642.694 1197.4C643.81 1196.75 645.07 1196.43 646.474 1196.43C647.878 1196.43 649.12 1196.75 650.2 1197.4C651.316 1198.05 652.198 1198.97 652.846 1200.15C653.53 1201.34 653.872 1202.78 653.872 1204.47C653.872 1206.13 653.53 1207.57 652.846 1208.79C652.198 1209.98 651.316 1210.9 650.2 1211.55ZM675.274 1217.49C677.686 1218.78 680.44 1219.43 683.536 1219.43C686.596 1219.43 689.332 1218.78 691.744 1217.49C694.156 1216.19 696.046 1214.43 697.414 1212.2C698.782 1209.93 699.466 1207.35 699.466 1204.47C699.466 1201.52 698.782 1198.93 697.414 1196.7C696.046 1194.47 694.156 1192.72 691.744 1191.46C689.332 1190.16 686.596 1189.52 683.536 1189.52C680.44 1189.52 677.686 1190.16 675.274 1191.46C672.898 1192.72 671.008 1194.48 669.604 1196.75C668.236 1198.98 667.552 1201.56 667.552 1204.47C667.552 1207.35 668.236 1209.93 669.604 1212.2C671.008 1214.43 672.898 1216.19 675.274 1217.49ZM687.316 1211.55C686.2 1212.2 684.94 1212.52 683.536 1212.52C682.132 1212.52 680.872 1212.2 679.756 1211.55C678.64 1210.9 677.74 1209.98 677.056 1208.79C676.408 1207.57 676.084 1206.13 676.084 1204.47C676.084 1202.78 676.408 1201.34 677.056 1200.15C677.74 1198.97 678.64 1198.05 679.756 1197.4C680.872 1196.75 682.132 1196.43 683.536 1196.43C684.94 1196.43 686.2 1196.75 687.316 1197.4C688.432 1198.05 689.314 1198.97 689.962 1200.15C690.61 1201.34 690.934 1202.78 690.934 1204.47C690.934 1206.13 690.61 1207.57 689.962 1208.79C689.314 1209.98 688.432 1210.9 687.316 1211.55ZM734.862 1212.09H739.02V1225.26H731.19V1219H710.778V1225.26H702.948V1212.09H703.92C704.964 1212.09 705.81 1211.78 706.458 1211.17C707.106 1210.52 707.61 1209.64 707.97 1208.52C708.33 1207.37 708.6 1206.08 708.78 1204.64C708.96 1203.16 709.086 1201.61 709.158 1199.99L709.536 1189.95H734.862V1212.09ZM726.438 1212.09V1196.86H716.934L716.772 1200.59C716.7 1202.13 716.61 1203.61 716.502 1205.01C716.394 1206.42 716.178 1207.7 715.854 1208.85C715.566 1209.96 715.134 1210.92 714.558 1211.71C714.457 1211.84 714.349 1211.97 714.235 1212.09H726.438ZM763.33 1215.39V1219H771.214V1202.42C771.214 1197.99 769.99 1194.74 767.542 1192.65C765.094 1190.56 761.656 1189.52 757.228 1189.52C754.924 1189.52 752.656 1189.82 750.424 1190.43C748.192 1191.05 746.284 1191.91 744.7 1193.03L747.724 1198.91C748.768 1198.08 750.028 1197.44 751.504 1196.97C753.016 1196.46 754.546 1196.21 756.094 1196.21C758.362 1196.21 760.036 1196.72 761.116 1197.72C762.232 1198.73 762.79 1200.14 762.79 1201.94H756.094C753.142 1201.94 750.748 1202.31 748.912 1203.07C747.076 1203.79 745.726 1204.8 744.862 1206.09C744.034 1207.39 743.62 1208.9 743.62 1210.63C743.62 1212.29 744.052 1213.78 744.916 1215.11C745.78 1216.44 747.022 1217.51 748.642 1218.3C750.262 1219.05 752.206 1219.43 754.474 1219.43C757.03 1219.43 759.118 1218.95 760.738 1217.97C761.831 1217.32 762.695 1216.46 763.33 1215.39ZM762.79 1209.82V1206.85H757.012C755.032 1206.85 753.664 1207.17 752.908 1207.82C752.188 1208.47 751.828 1209.28 751.828 1210.25C751.828 1211.33 752.242 1212.2 753.07 1212.84C753.934 1213.46 755.104 1213.76 756.58 1213.76C757.984 1213.76 759.244 1213.44 760.36 1212.79C761.476 1212.11 762.286 1211.12 762.79 1209.82ZM499.454 1278.09H503.612V1291.26H495.782V1285H475.37V1291.26H467.54V1278.09H468.512C469.556 1278.09 470.402 1277.78 471.05 1277.17C471.698 1276.52 472.202 1275.64 472.562 1274.52C472.922 1273.37 473.192 1272.08 473.372 1270.64C473.552 1269.16 473.678 1267.61 473.75 1265.99L474.128 1255.95H499.454V1278.09ZM491.03 1278.09V1262.86H481.526L481.364 1266.59C481.292 1268.13 481.202 1269.61 481.094 1271.01C480.986 1272.42 480.77 1273.7 480.446 1274.85C480.158 1275.96 479.726 1276.92 479.15 1277.71C479.048 1277.84 478.941 1277.97 478.827 1278.09H491.03ZM507.293 1278.03L506.861 1284.95C507.689 1285.16 508.463 1285.32 509.183 1285.43C509.903 1285.54 510.587 1285.59 511.235 1285.59C513.035 1285.59 514.511 1285.18 515.663 1284.35C516.815 1283.49 517.733 1282.28 518.417 1280.73C519.101 1279.15 519.587 1277.28 519.875 1275.12C520.199 1272.96 520.415 1270.58 520.523 1267.99L520.789 1262.86H529.973V1285H538.397V1255.95H513.557L513.125 1267.61C513.053 1268.98 512.945 1270.29 512.801 1271.55C512.693 1272.81 512.495 1273.95 512.207 1274.96C511.919 1275.93 511.487 1276.7 510.911 1277.28C510.335 1277.85 509.543 1278.14 508.535 1278.14H507.941L507.293 1278.03ZM566.424 1276.68V1285H573.93V1255.95H560.052C555.804 1255.95 552.42 1256.87 549.9 1258.7C547.416 1260.54 546.174 1263.18 546.174 1266.64C546.174 1269.88 547.362 1272.36 549.738 1274.09C550.516 1274.66 551.39 1275.13 552.361 1275.51L545.742 1285H554.706L560.223 1276.68H566.424ZM566.424 1271.07V1262.81H560.214C558.486 1262.81 557.136 1263.13 556.164 1263.78C555.228 1264.43 554.76 1265.47 554.76 1266.91C554.76 1269.68 556.542 1271.07 560.106 1271.07H566.424ZM600.559 1255.95V1285H616.057C620.053 1285 623.023 1284.26 624.967 1282.79C626.911 1281.31 627.883 1279.29 627.883 1276.74C627.883 1274.25 627.001 1272.36 625.237 1271.07C624.557 1270.56 623.738 1270.15 622.78 1269.84C623.25 1269.61 623.692 1269.36 624.103 1269.07C626.047 1267.7 627.019 1265.83 627.019 1263.45C627.019 1261.08 625.993 1259.24 623.941 1257.95C621.889 1256.61 619.045 1255.95 615.409 1255.95H600.559ZM615.355 1279.28H608.281V1272.85H615.517C617.065 1272.85 618.199 1273.12 618.919 1273.66C619.639 1274.16 619.999 1274.97 619.999 1276.09C619.999 1277.17 619.603 1277.98 618.811 1278.52C618.055 1279.02 616.903 1279.28 615.355 1279.28ZM614.653 1267.88H608.281V1261.67H614.653C616.129 1261.67 617.227 1261.92 617.947 1262.43C618.703 1262.93 619.081 1263.71 619.081 1264.75C619.081 1265.76 618.703 1266.53 617.947 1267.07C617.227 1267.61 616.129 1267.88 614.653 1267.88ZM653.159 1281.39V1285H661.043V1268.42C661.043 1263.99 659.819 1260.74 657.371 1258.65C654.923 1256.56 651.485 1255.52 647.057 1255.52C644.753 1255.52 642.485 1255.82 640.253 1256.43C638.021 1257.05 636.113 1257.91 634.529 1259.03L637.553 1264.91C638.597 1264.08 639.857 1263.44 641.333 1262.97C642.845 1262.46 644.375 1262.21 645.923 1262.21C648.191 1262.21 649.865 1262.72 650.945 1263.72C652.061 1264.73 652.619 1266.14 652.619 1267.94H645.923C642.971 1267.94 640.577 1268.31 638.741 1269.07C636.905 1269.79 635.555 1270.8 634.691 1272.09C633.863 1273.39 633.449 1274.9 633.449 1276.63C633.449 1278.29 633.881 1279.78 634.745 1281.11C635.609 1282.44 636.851 1283.51 638.471 1284.3C640.091 1285.05 642.035 1285.43 644.303 1285.43C646.859 1285.43 648.947 1284.95 650.567 1283.97C651.661 1283.32 652.525 1282.46 653.159 1281.39ZM652.619 1275.82V1272.85H646.841C644.861 1272.85 643.493 1273.17 642.737 1273.82C642.017 1274.47 641.657 1275.28 641.657 1276.25C641.657 1277.33 642.071 1278.2 642.899 1278.84C643.763 1279.46 644.933 1279.76 646.409 1279.76C647.813 1279.76 649.073 1279.44 650.189 1278.79C651.305 1278.11 652.115 1277.12 652.619 1275.82ZM687.963 1278.09V1255.95H696.387V1278.09H705.945V1255.95H714.315V1285H669.981V1255.95H678.351V1278.09H687.963ZM729.473 1283.49C731.993 1284.78 734.909 1285.43 738.221 1285.43C740.849 1285.43 743.171 1285.04 745.187 1284.24C747.203 1283.42 748.877 1282.25 750.209 1280.73L745.727 1275.87C744.755 1276.81 743.675 1277.51 742.487 1277.98C741.335 1278.45 739.985 1278.68 738.437 1278.68C736.709 1278.68 735.197 1278.38 733.901 1277.76C732.641 1277.12 731.651 1276.2 730.931 1275.01C730.558 1274.34 730.287 1273.62 730.118 1272.85H752.099C752.135 1272.49 752.171 1272.11 752.207 1271.72C752.243 1271.28 752.261 1270.91 752.261 1270.58C752.261 1267.45 751.595 1264.77 750.263 1262.54C748.931 1260.27 747.113 1258.54 744.809 1257.35C742.541 1256.13 739.985 1255.52 737.141 1255.52C734.189 1255.52 731.543 1256.16 729.203 1257.46C726.863 1258.72 725.009 1260.48 723.641 1262.75C722.309 1264.98 721.643 1267.56 721.643 1270.47C721.643 1273.35 722.327 1275.93 723.695 1278.2C725.063 1280.43 726.989 1282.19 729.473 1283.49ZM730.02 1267.94C730.161 1267.04 730.428 1266.23 730.823 1265.51C731.435 1264.35 732.281 1263.47 733.361 1262.86C734.477 1262.21 735.755 1261.89 737.195 1261.89C738.635 1261.89 739.895 1262.21 740.975 1262.86C742.055 1263.47 742.901 1264.34 743.513 1265.45C743.919 1266.19 744.191 1267.02 744.327 1267.94H730.02ZM783.612 1255.95H760.338V1285H768.708V1262.86H783.612V1255.95ZM793.83 1283.49C796.242 1284.78 798.995 1285.43 802.091 1285.43C805.151 1285.43 807.888 1284.78 810.299 1283.49C812.711 1282.19 814.602 1280.43 815.969 1278.2C817.338 1275.93 818.021 1273.35 818.021 1270.47C818.021 1267.52 817.338 1264.93 815.969 1262.7C814.602 1260.47 812.711 1258.72 810.299 1257.46C807.888 1256.16 805.151 1255.52 802.091 1255.52C798.995 1255.52 796.242 1256.16 793.83 1257.46C791.453 1258.72 789.563 1260.48 788.159 1262.75C786.792 1264.98 786.107 1267.56 786.107 1270.47C786.107 1273.35 786.792 1275.93 788.159 1278.2C789.563 1280.43 791.453 1282.19 793.83 1283.49ZM805.872 1277.55C804.755 1278.2 803.495 1278.52 802.091 1278.52C800.688 1278.52 799.427 1278.2 798.312 1277.55C797.195 1276.9 796.296 1275.98 795.612 1274.79C794.964 1273.57 794.64 1272.13 794.64 1270.47C794.64 1268.78 794.964 1267.34 795.612 1266.15C796.296 1264.97 797.195 1264.05 798.312 1263.4C799.427 1262.75 800.688 1262.43 802.091 1262.43C803.495 1262.43 804.755 1262.75 805.872 1263.4C806.987 1264.05 807.87 1264.97 808.518 1266.15C809.166 1267.34 809.49 1268.78 809.49 1270.47C809.49 1272.13 809.166 1273.57 808.518 1274.79C807.87 1275.98 806.987 1276.9 805.872 1277.55ZM476.504 1349.54C478.952 1350.8 481.742 1351.43 484.874 1351.43C487.934 1351.43 490.598 1350.8 492.866 1349.54C495.134 1348.25 496.808 1346.43 497.888 1344.09L491.354 1340.52C490.598 1341.93 489.644 1342.95 488.492 1343.6C487.376 1344.21 486.152 1344.52 484.82 1344.52C483.38 1344.52 482.084 1344.2 480.932 1343.55C479.78 1342.9 478.862 1341.98 478.178 1340.79C477.53 1339.61 477.206 1338.17 477.206 1336.47C477.206 1334.78 477.53 1333.34 478.178 1332.15C478.862 1330.97 479.78 1330.05 480.932 1329.4C482.084 1328.75 483.38 1328.43 484.82 1328.43C486.152 1328.43 487.376 1328.75 488.492 1329.4C489.644 1330.05 490.598 1331.06 491.354 1332.42L497.888 1328.91C496.808 1326.54 495.134 1324.72 492.866 1323.46C490.598 1322.16 487.934 1321.52 484.874 1321.52C481.742 1321.52 478.952 1322.16 476.504 1323.46C474.056 1324.72 472.13 1326.48 470.726 1328.75C469.358 1330.98 468.674 1333.56 468.674 1336.47C468.674 1339.35 469.358 1341.93 470.726 1344.2C472.13 1346.46 474.056 1348.25 476.504 1349.54ZM510.784 1328.86V1351H519.154V1328.86H528.982V1321.95H500.956V1328.86H510.784ZM539.226 1349.49C541.638 1350.78 544.392 1351.43 547.488 1351.43C550.548 1351.43 553.284 1350.78 555.696 1349.49C558.108 1348.19 559.998 1346.43 561.366 1344.2C562.734 1341.93 563.418 1339.35 563.418 1336.47C563.418 1333.52 562.734 1330.93 561.366 1328.7C559.998 1326.47 558.108 1324.72 555.696 1323.46C553.284 1322.16 550.548 1321.52 547.488 1321.52C544.392 1321.52 541.638 1322.16 539.226 1323.46C536.85 1324.72 534.96 1326.48 533.556 1328.75C532.188 1330.98 531.504 1333.56 531.504 1336.47C531.504 1339.35 532.188 1341.93 533.556 1344.2C534.96 1346.43 536.85 1348.19 539.226 1349.49ZM551.268 1343.55C550.152 1344.2 548.892 1344.52 547.488 1344.52C546.084 1344.52 544.824 1344.2 543.708 1343.55C542.592 1342.9 541.692 1341.98 541.008 1340.79C540.36 1339.57 540.036 1338.13 540.036 1336.47C540.036 1334.78 540.36 1333.34 541.008 1332.15C541.692 1330.97 542.592 1330.05 543.708 1329.4C544.824 1328.75 546.084 1328.43 547.488 1328.43C548.892 1328.43 550.152 1328.75 551.268 1329.4C552.384 1330.05 553.266 1330.97 553.914 1332.15C554.562 1333.34 554.886 1334.78 554.886 1336.47C554.886 1338.13 554.562 1339.57 553.914 1340.79C553.266 1341.98 552.384 1342.9 551.268 1343.55ZM567.17 1344.03L566.738 1350.95C567.566 1351.16 568.34 1351.32 569.06 1351.43C569.78 1351.54 570.464 1351.59 571.112 1351.59C572.912 1351.59 574.388 1351.18 575.54 1350.35C576.692 1349.49 577.61 1348.28 578.294 1346.73C578.978 1345.15 579.464 1343.28 579.752 1341.12C580.076 1338.96 580.292 1336.58 580.4 1333.99L580.666 1328.86H589.85V1351H598.274V1321.95H573.434L573.002 1333.61C572.93 1334.98 572.822 1336.29 572.678 1337.55C572.57 1338.81 572.372 1339.95 572.084 1340.96C571.796 1341.93 571.364 1342.7 570.788 1343.28C570.212 1343.85 569.42 1344.14 568.412 1344.14H567.818L567.17 1344.03ZM625.383 1347.39V1351H633.267V1334.42C633.267 1329.99 632.043 1326.74 629.595 1324.65C627.147 1322.56 623.709 1321.52 619.281 1321.52C616.977 1321.52 614.709 1321.82 612.477 1322.43C610.245 1323.05 608.337 1323.91 606.753 1325.03L609.777 1330.91C610.821 1330.08 612.081 1329.44 613.557 1328.97C615.069 1328.46 616.599 1328.21 618.147 1328.21C620.415 1328.21 622.089 1328.72 623.169 1329.72C624.285 1330.73 624.843 1332.14 624.843 1333.94H618.147C615.195 1333.94 612.801 1334.31 610.965 1335.07C609.129 1335.79 607.779 1336.8 606.915 1338.09C606.087 1339.39 605.673 1340.9 605.673 1342.63C605.673 1344.29 606.105 1345.78 606.969 1347.11C607.833 1348.44 609.075 1349.51 610.695 1350.3C612.315 1351.05 614.259 1351.43 616.527 1351.43C619.083 1351.43 621.171 1350.95 622.791 1349.97C623.885 1349.32 624.749 1348.46 625.383 1347.39ZM624.843 1341.82V1338.85H619.065C617.085 1338.85 615.717 1339.17 614.961 1339.82C614.241 1340.47 613.881 1341.28 613.881 1342.25C613.881 1343.33 614.295 1344.2 615.123 1344.84C615.987 1345.46 617.157 1345.76 618.633 1345.76C620.037 1345.76 621.297 1345.44 622.413 1344.79C623.529 1344.11 624.339 1343.12 624.843 1341.82Z" fill="#F6F6F6"/>
</svg>
