<svg width="1866" height="1199" viewBox="0 0 1866 1199" fill="none" xmlns="http://www.w3.org/2000/svg">
<path fill-rule="evenodd" clip-rule="evenodd" d="M0 660.473V170.029H29.7789C65.5434 170.029 101.258 172.691 136.628 177.991L302.652 202.869C489.406 230.854 679.03 234.148 866.643 212.666L1148.7 180.37C1208.44 173.529 1268.91 177.22 1327.38 191.275C1433.18 216.711 1541.31 231.262 1650.08 234.699L1866 241.522V511.446L1538.1 441.605C1420.89 416.64 1321.7 529.859 1361.85 642.769C1442.76 870.266 1279.76 1110.95 1038.48 1120.25L720.5 1132.5L305.107 1196.14C151.008 1219.75 32.1678 1063 96.5 921C141.015 817.764 92.0039 705.313 0 660.473ZM1866 0V0.680683L1863.29 0H1866ZM731.912 666.221C733.448 666.925 734.632 667.949 735.464 669.293H757.928C756.904 661.933 753.576 656.109 747.944 651.821C742.376 647.533 735.144 645.389 726.248 645.389C719.272 645.389 713.192 646.861 708.008 649.805C702.824 652.685 698.824 656.749 696.008 661.997C693.256 667.245 691.88 673.229 691.88 679.949C691.88 686.669 693.256 692.654 696.008 697.901C698.824 703.149 702.824 707.245 708.008 710.189C713.256 713.069 719.4 714.509 726.44 714.509C734.376 714.509 740.936 712.717 746.12 709.133C751.304 705.485 755.368 701.133 758.312 696.077V674.766H723.656V689.837H740.648C737.64 693.805 733.672 695.789 728.744 695.789C723.56 695.789 719.72 694.477 717.224 691.853C714.728 689.229 713.48 685.261 713.48 679.949C713.48 675.341 714.6 671.725 716.84 669.102C719.08 666.413 722.248 665.069 726.344 665.069C728.52 665.069 730.376 665.453 731.912 666.221ZM799.875 714.029L803.235 703.758H825.891L829.252 714.029H851.716L826.948 646.061H802.372L777.508 714.029H799.875ZM814.563 668.813L820.708 687.725H808.419L814.563 668.813ZM894.286 689.646L907.054 714.029H930.477L915.693 688.013C920.43 686.477 924.046 683.949 926.542 680.43C929.102 676.909 930.382 672.878 930.382 668.333C930.382 664.109 929.39 660.333 927.406 657.005C925.485 653.613 922.573 650.957 918.669 649.037C914.766 647.053 910.062 646.061 904.557 646.061H872.878V714.029H894.19V689.646H894.286ZM902.638 675.438H894.19V663.917H902.638C904.622 663.917 906.125 664.43 907.149 665.453C908.237 666.477 908.781 667.885 908.781 669.677C908.781 671.661 908.27 673.133 907.245 674.094C906.221 674.99 904.685 675.438 902.638 675.438ZM1000.45 650.381C995.142 647.501 988.934 646.061 981.83 646.061H953.51V714.029H981.83C988.934 714.029 995.142 712.557 1000.45 709.613C1005.83 706.605 1009.96 702.509 1012.84 697.326C1015.72 692.141 1017.16 686.318 1017.16 679.853C1017.16 673.326 1015.72 667.501 1012.84 662.381C1009.96 657.261 1005.83 653.261 1000.45 650.381ZM991.334 691.085C988.518 693.709 984.71 695.021 979.91 695.021H974.822V664.685H979.91C984.71 664.685 988.518 665.997 991.334 668.621C994.15 671.245 995.558 674.99 995.558 679.853C995.558 684.717 994.15 688.461 991.334 691.085ZM1062.49 671.405V663.053H1086.49V646.061H1041.17V714.029H1086.49V697.037H1062.49V687.438H1083.61V671.405H1062.49ZM1154.71 714.029H1176.02V646.061H1154.71V680.813L1132.15 646.061H1110.84V714.029H1132.15V679.853L1154.71 714.029ZM664.105 593.9C663.885 597.479 665.781 600.674 668.687 602.307C670.092 603.224 671.775 603.76 673.594 603.76H685.23C687.298 603.76 689.19 603.067 690.699 601.909C693.226 600.196 694.828 597.235 694.64 593.943L692.96 564.439C694.541 564.598 696.144 564.68 697.767 564.68C724.178 564.68 745.589 543.124 745.589 516.534C745.589 495.987 732.804 478.446 714.805 471.535C715.495 468.768 715.862 465.874 715.862 462.896C715.862 443.087 699.659 427.029 679.672 427.029C659.685 427.029 643.482 443.087 643.482 462.896C643.482 463.699 643.509 464.496 643.561 465.286C621.75 472.447 606 492.974 606 517.181C606 547.34 630.449 571.788 660.608 571.788C662.251 571.788 663.877 571.716 665.483 571.574L664.105 593.9ZM1175.02 571.788C1176.66 571.788 1178.29 571.716 1179.89 571.574L1178.52 593.9C1178.2 599.079 1182.31 603.454 1187.5 603.454H1200.07C1205.24 603.454 1209.35 599.106 1209.05 593.943L1207.19 561.309C1208.27 560.52 1209.32 559.693 1210.34 558.829C1210.66 558.841 1210.99 558.85 1211.31 558.856C1211.6 558.861 1211.89 558.863 1212.18 558.863C1238.59 558.863 1260 537.308 1260 510.718C1260 487.537 1243.73 468.182 1222.05 463.601C1219.27 446.53 1204.34 433.492 1186.33 433.492C1166.61 433.492 1150.58 449.116 1150.15 468.553C1132.49 477.6 1120.41 495.98 1120.41 517.181C1120.41 547.34 1144.86 571.788 1175.02 571.788ZM865.988 451.713C866.24 446.932 870.189 443.186 874.976 443.186H901.808C906.609 443.186 910.565 446.954 910.797 451.749L913.963 516.913H916.599C921.017 516.913 924.599 520.495 924.599 524.913V528.3C924.599 532.719 921.017 536.3 916.599 536.3H914.905L917.678 593.371C917.927 598.507 913.831 602.808 908.688 602.808H867.522C862.365 602.808 858.263 598.484 858.534 593.335L861.536 536.3H842.949L845.721 593.371C845.971 598.507 841.874 602.808 836.732 602.808H795.565C790.409 602.808 786.307 598.484 786.578 593.335L789.58 536.3H782.024C777.605 536.3 774.024 532.719 774.024 528.3V524.913C774.024 520.495 777.605 516.913 782.024 516.913H790.6L794.031 451.713C794.283 446.932 798.232 443.186 803.019 443.186H829.852C834.652 443.186 838.608 446.954 838.841 451.749L842.007 516.913H862.556L865.988 451.713ZM1037.01 443.186C1032.23 443.186 1028.28 446.932 1028.02 451.713L1025.72 495.531H1004.23L1002.1 451.749C1001.87 446.954 997.911 443.186 993.111 443.186H966.278C961.491 443.186 957.542 446.932 957.291 451.713L954.984 495.531H947.462C943.044 495.531 939.462 499.113 939.462 503.531V506.919C939.462 511.337 943.044 514.919 947.462 514.919H953.964L949.837 593.335C949.566 598.484 953.668 602.808 958.824 602.808H999.991C1005.13 602.808 1009.23 598.507 1008.98 593.371L1005.17 514.919H1024.7L1020.57 593.335C1020.3 598.484 1024.4 602.808 1029.56 602.808H1070.72C1075.87 602.808 1079.96 598.507 1079.71 593.371L1075.9 514.919H1082.04C1086.46 514.919 1090.04 511.337 1090.04 506.919V503.531C1090.04 499.113 1086.46 495.531 1082.04 495.531H1074.96L1072.83 451.749C1072.6 446.954 1068.65 443.186 1063.84 443.186H1037.01ZM216.752 1001.77C213.296 1001.77 210.075 1001.21 207.088 1000.1C204.144 998.952 201.584 997.331 199.408 995.24C197.232 993.149 195.525 990.696 194.288 987.88C193.093 985.064 192.496 981.971 192.496 978.6C192.496 975.229 193.093 972.136 194.288 969.32C195.525 966.504 197.232 964.051 199.408 961.96C201.627 959.869 204.208 958.269 207.152 957.16C210.096 956.008 213.317 955.432 216.816 955.432C220.699 955.432 224.197 956.115 227.312 957.48C230.469 958.803 233.115 960.765 235.248 963.368L228.592 969.512C227.056 967.763 225.349 966.461 223.472 965.608C221.595 964.712 219.547 964.264 217.328 964.264C215.237 964.264 213.317 964.605 211.568 965.288C209.819 965.971 208.304 966.952 207.024 968.232C205.744 969.512 204.741 971.027 204.016 972.776C203.333 974.525 202.992 976.467 202.992 978.6C202.992 980.733 203.333 982.675 204.016 984.424C204.741 986.173 205.744 987.688 207.024 988.968C208.304 990.248 209.819 991.229 211.568 991.912C213.317 992.595 215.237 992.936 217.328 992.936C219.547 992.936 221.595 992.509 223.472 991.656C225.349 990.76 227.056 989.416 228.592 987.624L235.248 993.768C233.115 996.371 230.469 998.355 227.312 999.72C224.197 1001.09 220.677 1001.77 216.752 1001.77ZM279.331 1001.51C275.661 1001.51 272.397 1000.74 269.538 999.208C266.723 997.672 264.482 995.581 262.818 992.936C261.197 990.248 260.387 987.197 260.387 983.784C260.387 980.328 261.197 977.277 262.818 974.632C264.482 971.944 266.723 969.853 269.538 968.36C272.397 966.824 275.661 966.056 279.331 966.056C282.957 966.056 286.2 966.824 289.059 968.36C291.917 969.853 294.157 971.923 295.779 974.568C297.4 977.213 298.211 980.285 298.211 983.784C298.211 987.197 297.4 990.248 295.779 992.936C294.157 995.581 291.917 997.672 289.059 999.208C286.2 1000.74 282.957 1001.51 279.331 1001.51ZM279.331 993.32C280.995 993.32 282.488 992.936 283.81 992.168C285.133 991.4 286.178 990.312 286.947 988.904C287.715 987.453 288.099 985.747 288.099 983.784C288.099 981.779 287.715 980.072 286.947 978.664C286.178 977.256 285.133 976.168 283.81 975.4C282.488 974.632 280.995 974.248 279.331 974.248C277.667 974.248 276.173 974.632 274.85 975.4C273.528 976.168 272.461 977.256 271.651 978.664C270.883 980.072 270.499 981.779 270.499 983.784C270.499 985.747 270.883 987.453 271.651 988.904C272.461 990.312 273.528 991.4 274.85 992.168C276.173 992.936 277.667 993.32 279.331 993.32ZM306.997 966.568H334.582V974.76H316.918V1001H306.997V966.568ZM356.483 1001.51C352.814 1001.51 349.55 1000.74 346.691 999.208C343.875 997.672 341.635 995.581 339.971 992.936C338.35 990.248 337.539 987.197 337.539 983.784C337.539 980.328 338.35 977.277 339.971 974.632C341.635 971.944 343.875 969.853 346.691 968.36C349.55 966.824 352.814 966.056 356.483 966.056C360.11 966.056 363.352 966.824 366.211 968.36C369.07 969.853 371.31 971.923 372.931 974.568C374.552 977.213 375.363 980.285 375.363 983.784C375.363 987.197 374.552 990.248 372.931 992.936C371.31 995.581 369.07 997.672 366.211 999.208C363.352 1000.74 360.11 1001.51 356.483 1001.51ZM356.483 993.32C358.147 993.32 359.64 992.936 360.963 992.168C362.286 991.4 363.331 990.312 364.099 988.904C364.867 987.453 365.251 985.747 365.251 983.784C365.251 981.779 364.867 980.072 364.099 978.664C363.331 977.256 362.286 976.168 360.963 975.4C359.64 974.632 358.147 974.248 356.483 974.248C354.819 974.248 353.326 974.632 352.003 975.4C350.68 976.168 349.614 977.256 348.803 978.664C348.035 980.072 347.651 981.779 347.651 983.784C347.651 985.747 348.035 987.453 348.803 988.904C349.614 990.312 350.68 991.4 352.003 992.168C353.326 992.936 354.819 993.32 356.483 993.32ZM404.438 1001.51C401.537 1001.51 398.998 1000.87 396.822 999.592C395.801 998.992 394.884 998.246 394.07 997.354V1013.42H384.086V966.568H393.622V970.544C394.483 969.505 395.486 968.649 396.63 967.976C398.806 966.696 401.409 966.056 404.438 966.056C407.681 966.056 410.582 966.803 413.142 968.296C415.745 969.747 417.793 971.795 419.286 974.44C420.822 977.085 421.59 980.2 421.59 983.784C421.59 987.411 420.822 990.547 419.286 993.192C417.793 995.837 415.745 997.885 413.142 999.336C410.582 1000.79 407.681 1001.51 404.438 1001.51ZM402.71 993.32C404.374 993.32 405.846 992.936 407.126 992.168C408.449 991.4 409.494 990.312 410.262 988.904C411.073 987.453 411.478 985.747 411.478 983.784C411.478 981.779 411.073 980.072 410.262 978.664C409.494 977.256 408.449 976.168 407.126 975.4C405.846 974.632 404.374 974.248 402.71 974.248C401.046 974.248 399.553 974.632 398.23 975.4C396.907 976.168 395.862 977.256 395.094 978.664C394.326 980.072 393.942 981.779 393.942 983.784C393.942 985.747 394.326 987.453 395.094 988.904C395.862 990.312 396.907 991.4 398.23 992.168C399.553 992.936 401.046 993.32 402.71 993.32ZM446.635 1001.51C442.966 1001.51 439.702 1000.74 436.844 999.208C434.027 997.672 431.788 995.581 430.124 992.936C428.502 990.248 427.691 987.197 427.691 983.784C427.691 980.328 428.502 977.277 430.124 974.632C431.788 971.944 434.027 969.853 436.844 968.36C439.702 966.824 442.966 966.056 446.635 966.056C450.262 966.056 453.505 966.824 456.363 968.36C459.222 969.853 461.462 971.923 463.083 974.568C464.705 977.213 465.516 980.285 465.516 983.784C465.516 987.197 464.705 990.248 463.083 992.936C461.462 995.581 459.222 997.672 456.363 999.208C453.505 1000.74 450.262 1001.51 446.635 1001.51ZM446.635 993.32C448.299 993.32 449.793 992.936 451.116 992.168C452.438 991.4 453.484 990.312 454.251 988.904C455.02 987.453 455.404 985.747 455.404 983.784C455.404 981.779 455.02 980.072 454.251 978.664C453.484 977.256 452.438 976.168 451.116 975.4C449.793 974.632 448.299 974.248 446.635 974.248C444.971 974.248 443.478 974.632 442.156 975.4C440.833 976.168 439.766 977.256 438.956 978.664C438.188 980.072 437.803 981.779 437.803 983.784C437.803 985.747 438.188 987.453 438.956 988.904C439.766 990.312 440.833 991.4 442.156 992.168C443.478 992.936 444.971 993.32 446.635 993.32ZM512.395 992.808H507.466V966.568H477.451L477.003 978.472C476.917 980.392 476.768 982.227 476.555 983.976C476.341 985.683 476.021 987.219 475.595 988.584C475.168 989.907 474.57 990.952 473.802 991.72C473.035 992.445 472.032 992.808 470.794 992.808H469.643V1008.42H478.923V1001H503.115V1008.42H512.395V992.808ZM497.483 974.76V992.808H483.02C483.155 992.667 483.282 992.518 483.402 992.36C484.085 991.421 484.597 990.291 484.939 988.968C485.323 987.603 485.578 986.088 485.707 984.424C485.835 982.76 485.941 981.011 486.026 979.176L486.219 974.76H497.483ZM541.206 1001V996.721C540.454 997.985 539.43 999.006 538.133 999.784C536.214 1000.94 533.739 1001.51 530.709 1001.51C528.021 1001.51 525.717 1001.06 523.797 1000.17C521.878 999.229 520.405 997.971 519.381 996.392C518.357 994.813 517.845 993.043 517.845 991.08C517.845 989.032 518.336 987.24 519.318 985.704C520.341 984.168 521.941 982.973 524.117 982.12C526.293 981.224 529.131 980.776 532.63 980.776H540.565C540.565 978.643 539.904 976.979 538.581 975.784C537.302 974.589 535.318 973.992 532.63 973.992C530.795 973.992 528.982 974.291 527.19 974.888C525.44 975.443 523.947 976.211 522.709 977.192L519.125 970.216C521.003 968.893 523.264 967.869 525.909 967.144C528.555 966.419 531.243 966.056 533.974 966.056C539.221 966.056 543.296 967.293 546.198 969.768C549.099 972.243 550.549 976.104 550.549 981.352V1001H541.206ZM540.565 986.6V990.12C539.968 991.656 539.008 992.829 537.685 993.64C536.363 994.408 534.87 994.792 533.206 994.792C531.456 994.792 530.069 994.429 529.045 993.704C528.064 992.936 527.573 991.912 527.573 990.632C527.573 989.48 528 988.52 528.854 987.752C529.75 986.984 531.371 986.6 533.717 986.6H540.565ZM619.78 992.808H614.852V966.568H584.836L584.388 978.472C584.302 980.392 584.153 982.227 583.94 983.976C583.726 985.683 583.406 987.219 582.979 988.584C582.553 989.907 581.956 990.952 581.188 991.72C580.419 992.445 579.417 992.808 578.18 992.808H577.028V1008.42H586.307V1001H610.5V1008.42H619.78V992.808ZM604.867 974.76V992.808H590.405C590.54 992.667 590.667 992.518 590.788 992.36C591.47 991.421 591.982 990.291 592.323 988.968C592.708 987.603 592.964 986.088 593.091 984.424C593.219 982.76 593.326 981.011 593.411 979.176L593.604 974.76H604.867ZM623.63 1000.94L624.143 992.744L624.911 992.872H625.615C626.809 992.872 627.748 992.531 628.43 991.848C629.113 991.165 629.625 990.248 629.966 989.096C630.308 987.901 630.542 986.557 630.67 985.064C630.841 983.571 630.969 982.013 631.055 980.392L631.566 966.568H661.006V1001H651.023V974.76H640.138L639.823 980.84C639.695 983.912 639.438 986.728 639.055 989.288C638.713 991.848 638.137 994.067 637.326 995.944C636.516 997.779 635.428 999.208 634.062 1000.23C632.697 1001.21 630.948 1001.7 628.815 1001.7C628.047 1001.7 627.236 1001.64 626.383 1001.51C625.529 1001.38 624.612 1001.19 623.63 1000.94ZM694.224 1001V991.144H686.874L680.336 1001H669.711L677.556 989.754C676.406 989.303 675.369 988.742 674.448 988.072C671.632 986.024 670.224 983.08 670.224 979.24C670.224 975.144 671.695 972.008 674.64 969.832C677.626 967.656 681.637 966.568 686.672 966.568H703.12V1001H694.224ZM694.224 974.696V984.488H686.736C682.512 984.488 680.4 982.845 680.4 979.56C680.4 977.853 680.954 976.616 682.064 975.848C683.216 975.08 684.815 974.696 686.864 974.696H694.224ZM734.68 966.568H752.28C756.589 966.568 759.96 967.357 762.392 968.936C764.824 970.472 766.04 972.648 766.04 975.464C766.04 978.28 764.888 980.499 762.584 982.12C762.096 982.461 761.573 982.765 761.016 983.032C762.152 983.398 763.122 983.884 763.928 984.488C766.019 986.024 767.064 988.264 767.064 991.208C767.064 994.237 765.912 996.627 763.608 998.376C761.304 1000.13 757.784 1001 753.048 1001H734.68V966.568ZM743.832 994.216H752.216C754.051 994.216 755.416 993.917 756.312 993.32C757.251 992.68 757.72 991.72 757.72 990.44C757.72 989.117 757.293 988.157 756.44 987.56C755.587 986.92 754.243 986.6 752.408 986.6H743.832V994.216ZM743.832 980.712H751.384C753.133 980.712 754.435 980.392 755.288 979.752C756.184 979.112 756.632 978.195 756.632 977C756.632 975.763 756.184 974.845 755.288 974.248C754.435 973.651 753.133 973.352 751.384 973.352H743.832V980.712ZM797.021 1001V996.721C796.269 997.985 795.245 999.006 793.948 999.784C792.029 1000.94 789.554 1001.51 786.524 1001.51C783.836 1001.51 781.532 1001.06 779.612 1000.17C777.693 999.229 776.22 997.971 775.196 996.392C774.172 994.813 773.66 993.043 773.66 991.08C773.66 989.032 774.151 987.24 775.133 985.704C776.156 984.168 777.756 982.973 779.932 982.12C782.108 981.224 784.946 980.776 788.444 980.776H796.38C796.38 978.643 795.719 976.979 794.396 975.784C793.117 974.589 791.133 973.992 788.444 973.992C786.61 973.992 784.797 974.291 783.005 974.888C781.255 975.443 779.762 976.211 778.524 977.192L774.94 970.216C776.818 968.893 779.079 967.869 781.724 967.144C784.37 966.419 787.058 966.056 789.789 966.056C795.036 966.056 799.111 967.293 802.013 969.768C804.914 972.243 806.365 976.104 806.365 981.352V1001H797.021ZM796.38 986.6V990.12C795.783 991.656 794.823 992.829 793.5 993.64C792.178 994.408 790.685 994.792 789.021 994.792C787.271 994.792 785.884 994.429 784.86 993.704C783.879 992.936 783.388 991.912 783.388 990.632C783.388 989.48 783.815 988.52 784.669 987.752C785.565 986.984 787.186 986.6 789.532 986.6H796.38ZM838.269 966.568V992.808H826.877V966.568H816.957V1001H869.501V966.568H859.581V992.808H848.253V966.568H838.269ZM897.835 1001.51C893.909 1001.51 890.453 1000.74 887.466 999.208C884.523 997.672 882.24 995.581 880.619 992.936C878.997 990.248 878.187 987.197 878.187 983.784C878.187 980.328 878.976 977.277 880.555 974.632C882.176 971.944 884.373 969.853 887.146 968.36C889.92 966.824 893.056 966.056 896.555 966.056C899.925 966.056 902.955 966.781 905.643 968.232C908.373 969.64 910.528 971.688 912.107 974.376C913.685 977.021 914.474 980.2 914.474 983.912C914.474 984.296 914.453 984.744 914.411 985.256C914.368 985.725 914.325 986.173 914.283 986.6H888.231C888.432 987.517 888.753 988.37 889.195 989.16C890.048 990.568 891.221 991.656 892.715 992.424C894.25 993.149 896.043 993.512 898.091 993.512C899.925 993.512 901.525 993.235 902.891 992.68C904.299 992.125 905.578 991.293 906.731 990.184L912.043 995.944C910.464 997.736 908.48 999.123 906.091 1000.1C903.701 1001.04 900.949 1001.51 897.835 1001.51ZM889.067 977.896C888.599 978.749 888.281 979.709 888.115 980.776H905.072C904.91 979.691 904.588 978.71 904.107 977.832C903.381 976.509 902.379 975.485 901.099 974.76C899.819 973.992 898.325 973.608 896.619 973.608C894.912 973.608 893.397 973.992 892.075 974.76C890.794 975.485 889.792 976.531 889.067 977.896ZM924.047 966.568H951.631V974.76H933.967V1001H924.047V966.568ZM973.533 1001.51C969.864 1001.51 966.6 1000.74 963.741 999.208C960.925 997.672 958.685 995.581 957.021 992.936C955.4 990.248 954.589 987.197 954.589 983.784C954.589 980.328 955.4 977.277 957.021 974.632C958.685 971.944 960.925 969.853 963.741 968.36C966.6 966.824 969.864 966.056 973.533 966.056C977.16 966.056 980.402 966.824 983.261 968.36C986.12 969.853 988.36 971.923 989.981 974.568C991.602 977.213 992.413 980.285 992.413 983.784C992.413 987.197 991.602 990.248 989.981 992.936C988.36 995.581 986.12 997.672 983.261 999.208C980.402 1000.74 977.16 1001.51 973.533 1001.51ZM973.533 993.32C975.197 993.32 976.69 992.936 978.013 992.168C979.336 991.4 980.381 990.312 981.149 988.904C981.917 987.453 982.301 985.747 982.301 983.784C982.301 981.779 981.917 980.072 981.149 978.664C980.381 977.256 979.336 976.168 978.013 975.4C976.69 974.632 975.197 974.248 973.533 974.248C971.869 974.248 970.376 974.632 969.053 975.4C967.73 976.168 966.664 977.256 965.853 978.664C965.085 980.072 964.701 981.779 964.701 983.784C964.701 985.747 965.085 987.453 965.853 988.904C966.664 990.312 967.73 991.4 969.053 992.168C970.376 992.936 971.869 993.32 973.533 993.32ZM211.184 1079.51C207.472 1079.51 204.165 1078.77 201.264 1077.27C198.363 1075.74 196.08 1073.62 194.416 1070.94C192.795 1068.25 191.984 1065.2 191.984 1061.78C191.984 1058.33 192.795 1055.28 194.416 1052.63C196.08 1049.94 198.363 1047.85 201.264 1046.36C204.165 1044.82 207.472 1044.06 211.184 1044.06C214.811 1044.06 217.968 1044.82 220.656 1046.36C223.344 1047.85 225.328 1050.01 226.608 1052.82L218.864 1056.98C217.968 1055.36 216.837 1054.17 215.472 1053.4C214.149 1052.63 212.699 1052.25 211.12 1052.25C209.413 1052.25 207.877 1052.63 206.512 1053.4C205.147 1054.17 204.059 1055.26 203.248 1056.66C202.48 1058.07 202.096 1059.78 202.096 1061.78C202.096 1063.79 202.48 1065.5 203.248 1066.9C204.059 1068.31 205.147 1069.4 206.512 1070.17C207.877 1070.94 209.413 1071.32 211.12 1071.32C212.699 1071.32 214.149 1070.96 215.472 1070.23C216.837 1069.46 217.968 1068.25 218.864 1066.58L226.608 1070.81C225.328 1073.58 223.344 1075.74 220.656 1077.27C217.968 1078.77 214.811 1079.51 211.184 1079.51ZM241.893 1079V1052.76H230.244V1044.57H263.461V1052.76H251.812V1079H241.893ZM285.393 1079.51C281.724 1079.51 278.46 1078.74 275.601 1077.21C272.785 1075.67 270.545 1073.58 268.881 1070.94C267.26 1068.25 266.449 1065.2 266.449 1061.78C266.449 1058.33 267.26 1055.28 268.881 1052.63C270.545 1049.94 272.785 1047.85 275.601 1046.36C278.46 1044.82 281.724 1044.06 285.393 1044.06C289.02 1044.06 292.262 1044.82 295.121 1046.36C297.98 1047.85 300.22 1049.92 301.841 1052.57C303.462 1055.21 304.273 1058.29 304.273 1061.78C304.273 1065.2 303.462 1068.25 301.841 1070.94C300.22 1073.58 297.98 1075.67 295.121 1077.21C292.262 1078.74 289.02 1079.51 285.393 1079.51ZM285.393 1071.32C287.057 1071.32 288.55 1070.94 289.873 1070.17C291.196 1069.4 292.241 1068.31 293.009 1066.9C293.777 1065.45 294.161 1063.75 294.161 1061.78C294.161 1059.78 293.777 1058.07 293.009 1056.66C292.241 1055.26 291.196 1054.17 289.873 1053.4C288.55 1052.63 287.057 1052.25 285.393 1052.25C283.729 1052.25 282.236 1052.63 280.913 1053.4C279.59 1054.17 278.524 1055.26 277.713 1056.66C276.945 1058.07 276.561 1059.78 276.561 1061.78C276.561 1063.75 276.945 1065.45 277.713 1066.9C278.524 1068.31 279.59 1069.4 280.913 1070.17C282.236 1070.94 283.729 1071.32 285.393 1071.32ZM308.208 1078.94L308.72 1070.74L309.488 1070.87H310.192C311.387 1070.87 312.325 1070.53 313.008 1069.85C313.691 1069.17 314.203 1068.25 314.544 1067.1C314.885 1065.9 315.12 1064.56 315.248 1063.06C315.419 1061.57 315.547 1060.01 315.632 1058.39L316.144 1044.57H345.584V1079H335.6V1052.76H324.715L324.4 1058.84C324.272 1061.91 324.016 1064.73 323.632 1067.29C323.291 1069.85 322.715 1072.07 321.904 1073.94C321.093 1075.78 320.005 1077.21 318.64 1078.23C317.275 1079.21 315.525 1079.7 313.392 1079.7C312.624 1079.7 311.813 1079.64 310.96 1079.51C310.107 1079.38 309.189 1079.19 308.208 1078.94ZM377.713 1079V1074.72C376.961 1075.99 375.937 1077.01 374.641 1077.78C372.721 1078.94 370.246 1079.51 367.217 1079.51C364.529 1079.51 362.225 1079.06 360.305 1078.17C358.385 1077.23 356.913 1075.97 355.889 1074.39C354.865 1072.81 354.353 1071.04 354.353 1069.08C354.353 1067.03 354.844 1065.24 355.825 1063.7C356.849 1062.17 358.449 1060.97 360.625 1060.12C362.801 1059.22 365.638 1058.78 369.137 1058.78H377.073C377.073 1056.64 376.412 1054.98 375.089 1053.78C373.809 1052.59 371.825 1051.99 369.137 1051.99C367.302 1051.99 365.489 1052.29 363.697 1052.89C361.948 1053.44 360.454 1054.21 359.217 1055.19L355.633 1048.22C357.51 1046.89 359.772 1045.87 362.417 1045.14C365.062 1044.42 367.75 1044.06 370.481 1044.06C375.729 1044.06 379.804 1045.29 382.705 1047.77C385.606 1050.24 387.057 1054.1 387.057 1059.35V1079H377.713ZM377.073 1064.6V1068.12C376.476 1069.66 375.516 1070.83 374.193 1071.64C372.87 1072.41 371.377 1072.79 369.713 1072.79C367.964 1072.79 366.577 1072.43 365.553 1071.7C364.572 1070.94 364.081 1069.91 364.081 1068.63C364.081 1067.48 364.508 1066.52 365.361 1065.75C366.257 1064.98 367.878 1064.6 370.225 1064.6H377.073ZM1512.15 657.04C1515.18 658.192 1518.47 658.768 1522.01 658.768C1525.51 658.768 1528.73 658.192 1531.67 657.04C1534.66 655.888 1537.24 654.288 1539.42 652.24C1541.63 650.149 1543.36 647.696 1544.6 644.88C1545.84 642.021 1546.46 638.928 1546.46 635.6C1546.46 632.229 1545.84 629.157 1544.6 626.384C1543.36 623.568 1541.63 621.115 1539.42 619.024C1537.24 616.933 1534.66 615.312 1531.67 614.16C1528.73 613.008 1525.49 612.432 1521.94 612.432C1518.45 612.432 1515.2 613.008 1512.22 614.16C1509.23 615.312 1506.63 616.933 1504.41 619.024C1502.19 621.115 1500.46 623.568 1499.22 626.384C1498.03 629.2 1497.43 632.272 1497.43 635.6C1497.43 638.928 1498.03 642 1499.22 644.816C1500.46 647.632 1502.17 650.085 1504.34 652.176C1506.56 654.267 1509.17 655.888 1512.15 657.04ZM1527.45 648.912C1525.78 649.595 1523.95 649.936 1521.94 649.936C1519.94 649.936 1518.08 649.595 1516.38 648.912C1514.67 648.229 1513.18 647.248 1511.9 645.968C1510.66 644.688 1509.68 643.173 1508.95 641.424C1508.27 639.632 1507.93 637.691 1507.93 635.6C1507.93 633.467 1508.27 631.525 1508.95 629.776C1509.68 628.027 1510.68 626.512 1511.96 625.232C1513.24 623.952 1514.71 622.971 1516.38 622.288C1518.08 621.605 1519.94 621.264 1521.94 621.264C1523.95 621.264 1525.81 621.605 1527.51 622.288C1529.22 622.971 1530.69 623.952 1531.93 625.232C1533.21 626.512 1534.19 628.027 1534.87 629.776C1535.6 631.525 1535.96 633.467 1535.96 635.6C1535.96 637.733 1535.6 639.675 1534.87 641.424C1534.19 643.173 1533.21 644.688 1531.93 645.968C1530.65 647.248 1529.15 648.229 1527.45 648.912ZM1555.59 623.568V658H1573.96C1578.7 658 1582.22 657.125 1584.52 655.376C1586.83 653.627 1587.98 651.237 1587.98 648.208C1587.98 645.264 1586.93 643.024 1584.84 641.488C1584.04 640.884 1583.07 640.398 1581.93 640.032C1582.49 639.765 1583.01 639.461 1583.5 639.12C1585.8 637.499 1586.95 635.28 1586.95 632.464C1586.95 629.648 1585.74 627.472 1583.31 625.936C1580.88 624.357 1577.5 623.568 1573.19 623.568H1555.59ZM1573.13 651.216H1564.75V643.6H1573.32C1575.16 643.6 1576.5 643.92 1577.35 644.56C1578.21 645.157 1578.64 646.117 1578.64 647.44C1578.64 648.72 1578.17 649.68 1577.23 650.32C1576.33 650.917 1574.97 651.216 1573.13 651.216ZM1572.3 637.712H1564.75V630.352H1572.3C1574.05 630.352 1575.35 630.651 1576.2 631.248C1577.1 631.845 1577.55 632.763 1577.55 634C1577.55 635.195 1577.1 636.112 1576.2 636.752C1575.35 637.392 1574.05 637.712 1572.3 637.712ZM1603.66 656.208C1606.52 657.744 1609.79 658.512 1613.46 658.512C1617.08 658.512 1620.32 657.744 1623.18 656.208C1626.04 654.672 1628.28 652.581 1629.9 649.936C1631.52 647.248 1632.34 644.197 1632.34 640.784C1632.34 637.285 1631.52 634.213 1629.9 631.568C1628.28 628.923 1626.04 626.853 1623.18 625.36C1620.32 623.824 1617.08 623.056 1613.46 623.056C1609.79 623.056 1606.52 623.824 1603.66 625.36C1600.85 626.853 1598.61 628.944 1596.94 631.632C1595.32 634.277 1594.51 637.328 1594.51 640.784C1594.51 644.197 1595.32 647.248 1596.94 649.936C1598.61 652.581 1600.85 654.672 1603.66 656.208ZM1617.94 649.168C1616.61 649.936 1615.12 650.32 1613.46 650.32C1611.79 650.32 1610.3 649.936 1608.98 649.168C1607.65 648.4 1606.59 647.312 1605.78 645.904C1605.01 644.453 1604.62 642.747 1604.62 640.784C1604.62 638.779 1605.01 637.072 1605.78 635.664C1606.59 634.256 1607.65 633.168 1608.98 632.4C1610.3 631.632 1611.79 631.248 1613.46 631.248C1615.12 631.248 1616.61 631.632 1617.94 632.4C1619.26 633.168 1620.3 634.256 1621.07 635.664C1621.84 637.072 1622.22 638.779 1622.22 640.784C1622.22 642.747 1621.84 644.453 1621.07 645.904C1620.3 647.312 1619.26 648.4 1617.94 649.168ZM1662.43 649.808V623.568H1672.42V649.808H1683.49H1683.75V623.568H1693.67V649.808H1698.47V664.848H1689.19V658H1683.49H1641.12V623.568H1651.04V649.808H1662.43ZM1715.09 623.568H1705.17V658H1714.38L1731.09 637.52V658H1741.01V623.568H1731.86L1715.09 644.048V623.568ZM1530.2 733.116V737.984H1520.66V733.08C1516.39 732.823 1512.66 732.089 1509.46 730.88C1505.45 729.344 1502.4 727.125 1500.31 724.224C1498.22 721.28 1497.18 717.696 1497.18 713.472C1497.18 709.248 1498.22 705.685 1500.31 702.784C1502.4 699.84 1505.45 697.6 1509.46 696.064C1512.66 694.855 1516.39 694.121 1520.66 693.864V689.28H1530.2V693.851C1534.53 694.096 1538.28 694.833 1541.46 696.064C1545.47 697.6 1548.5 699.84 1550.55 702.784C1552.6 705.728 1553.62 709.291 1553.62 713.472C1553.62 717.611 1552.6 721.173 1550.55 724.16C1548.55 727.104 1545.58 729.344 1541.66 730.88C1538.44 732.153 1534.62 732.898 1530.2 733.116ZM1520.66 702.02C1518.58 702.215 1516.74 702.555 1515.16 703.04C1512.51 703.851 1510.53 705.131 1509.21 706.88C1507.89 708.587 1507.22 710.784 1507.22 713.472C1507.22 716.16 1507.93 718.379 1509.34 720.128C1510.74 721.835 1512.77 723.115 1515.42 723.968C1516.97 724.437 1518.72 724.771 1520.66 724.968V702.02ZM1530.2 701.991V725.013C1532.37 724.815 1534.27 724.445 1535.9 723.904C1538.5 723.008 1540.44 721.707 1541.72 720C1543 718.251 1543.64 716.053 1543.64 713.408C1543.64 710.763 1542.98 708.587 1541.66 706.88C1540.33 705.173 1538.39 703.915 1535.83 703.104C1534.22 702.559 1532.35 702.188 1530.2 701.991ZM1575.2 734.592C1577.38 735.872 1579.92 736.512 1582.82 736.512C1586.06 736.512 1588.96 735.787 1591.52 734.336C1594.13 732.885 1596.18 730.837 1597.67 728.192C1599.2 725.547 1599.97 722.411 1599.97 718.784C1599.97 715.2 1599.2 712.085 1597.67 709.44C1596.18 706.795 1594.13 704.747 1591.52 703.296C1588.96 701.803 1586.06 701.056 1582.82 701.056C1579.79 701.056 1577.19 701.696 1575.01 702.976C1573.87 703.649 1572.87 704.505 1572 705.544V701.568H1562.47V748.416H1572.45V732.355C1573.27 733.246 1574.18 733.992 1575.2 734.592ZM1585.51 727.168C1584.23 727.936 1582.76 728.32 1581.09 728.32C1579.43 728.32 1577.94 727.936 1576.61 727.168C1575.29 726.4 1574.24 725.312 1573.48 723.904C1572.71 722.453 1572.32 720.747 1572.32 718.784C1572.32 716.779 1572.71 715.072 1573.48 713.664C1574.24 712.256 1575.29 711.168 1576.61 710.4C1577.94 709.632 1579.43 709.248 1581.09 709.248C1582.76 709.248 1584.23 709.632 1585.51 710.4C1586.83 711.168 1587.88 712.256 1588.64 713.664C1589.46 715.072 1589.86 716.779 1589.86 718.784C1589.86 720.747 1589.46 722.453 1588.64 723.904C1587.88 725.312 1586.83 726.4 1585.51 727.168ZM1607.31 748.096C1609.06 748.651 1610.83 748.928 1612.62 748.928C1614.72 748.928 1616.61 748.608 1618.32 747.968C1620.07 747.328 1621.65 746.219 1623.06 744.64C1624.51 743.061 1625.79 740.885 1626.9 738.112L1642.45 701.568H1632.85L1623.12 724.952L1613.46 701.568H1603.15L1618.06 736.288L1617.94 736.576C1617.25 738.112 1616.49 739.2 1615.63 739.84C1614.82 740.523 1613.71 740.864 1612.3 740.864C1611.32 740.864 1610.32 740.672 1609.3 740.288C1608.32 739.904 1607.44 739.371 1606.67 738.688L1603.02 745.792C1604.13 746.773 1605.56 747.541 1607.31 748.096ZM1664.35 722.944L1673.57 736H1685.34L1672.48 718.089L1684.51 701.568H1673.89L1664.56 714.944H1659.17V701.568H1649.18V736H1659.17V722.944H1664.35ZM1699.21 709.76V736H1709.14V709.76H1720.78V701.568H1687.57V709.76H1699.21ZM1773.4 701.568H1763.48V736H1773.4V701.568ZM1756.31 715.648C1754.05 713.643 1750.66 712.619 1746.14 712.576H1737.94V701.568H1728.03V736L1744.79 736.064C1749.57 736.064 1753.26 735.019 1755.86 732.928C1758.47 730.795 1759.77 727.829 1759.77 724.032C1759.77 720.405 1758.62 717.611 1756.31 715.648ZM1748.31 727.744C1747.29 728.597 1745.82 729.003 1743.9 728.96H1737.94V718.976L1743.9 719.04C1745.82 719.083 1747.29 719.488 1748.31 720.256C1749.34 720.981 1749.85 722.197 1749.85 723.904C1749.85 725.611 1749.34 726.891 1748.31 727.744ZM1526.1 802.096V814H1536.34V769.2H1517.02C1513.09 769.2 1509.68 769.861 1506.78 771.184C1503.87 772.507 1501.61 774.427 1499.99 776.944C1498.41 779.419 1497.62 782.405 1497.62 785.904C1497.62 789.275 1498.37 792.176 1499.86 794.608C1501.36 797.04 1503.51 798.896 1506.33 800.176C1506.58 800.292 1506.84 800.402 1507.11 800.508L1497.75 814H1508.7L1516.62 802.096H1526.1ZM1526.1 793.904V777.648H1517.27C1514.33 777.648 1512.07 778.331 1510.49 779.696C1508.95 781.061 1508.18 783.088 1508.18 785.776C1508.18 788.379 1508.93 790.384 1510.42 791.792C1511.92 793.2 1514.11 793.904 1517.02 793.904H1526.1ZM1548.72 779.568V814H1558.64V787.76H1576.3V779.568H1548.72ZM1588.41 812.208C1591.27 813.744 1594.54 814.512 1598.21 814.512C1601.83 814.512 1605.07 813.744 1607.93 812.208C1610.79 810.672 1613.03 808.581 1614.65 805.936C1616.27 803.248 1617.09 800.197 1617.09 796.784C1617.09 793.285 1616.27 790.213 1614.65 787.568C1613.03 784.923 1610.79 782.853 1607.93 781.36C1605.07 779.824 1601.83 779.056 1598.21 779.056C1594.54 779.056 1591.27 779.824 1588.41 781.36C1585.6 782.853 1583.36 784.944 1581.69 787.632C1580.07 790.277 1579.26 793.328 1579.26 796.784C1579.26 800.197 1580.07 803.248 1581.69 805.936C1583.36 808.581 1585.6 810.672 1588.41 812.208ZM1602.69 805.168C1601.36 805.936 1599.87 806.32 1598.21 806.32C1596.54 806.32 1595.05 805.936 1593.73 805.168C1592.4 804.4 1591.34 803.312 1590.53 801.904C1589.76 800.453 1589.37 798.747 1589.37 796.784C1589.37 794.779 1589.76 793.072 1590.53 791.664C1591.34 790.256 1592.4 789.168 1593.73 788.4C1595.05 787.632 1596.54 787.248 1598.21 787.248C1599.87 787.248 1601.36 787.632 1602.69 788.4C1604.01 789.168 1605.05 790.256 1605.82 791.664C1606.59 793.072 1606.97 794.779 1606.97 796.784C1606.97 798.747 1606.59 800.453 1605.82 801.904C1605.05 803.312 1604.01 804.4 1602.69 805.168ZM1659.04 805.808H1663.96V821.424H1654.68V814H1630.49V821.424H1621.21V805.808H1622.36C1623.6 805.808 1624.6 805.445 1625.37 804.72C1626.14 803.952 1626.74 802.907 1627.16 801.584C1627.59 800.219 1627.91 798.683 1628.12 796.976C1628.34 795.227 1628.49 793.392 1628.57 791.472L1629.02 779.568H1659.04V805.808ZM1649.05 805.808V787.76H1637.79L1637.6 792.176C1637.51 794.011 1637.4 795.76 1637.28 797.424C1637.15 799.088 1636.89 800.603 1636.51 801.968C1636.17 803.291 1635.66 804.421 1634.97 805.36C1634.85 805.518 1634.72 805.667 1634.59 805.808H1649.05ZM1717.54 779.568H1707.62V814H1717.54V779.568ZM1700.46 793.648C1698.19 791.643 1694.8 790.619 1690.28 790.576H1682.09V779.568H1672.17V814L1688.94 814.064C1693.71 814.064 1697.4 813.019 1700.01 810.928C1702.61 808.795 1703.91 805.829 1703.91 802.032C1703.91 798.405 1702.76 795.611 1700.46 793.648ZM1692.46 805.744C1691.43 806.597 1689.96 807.003 1688.04 806.96H1682.09V796.976L1688.04 797.04C1689.96 797.083 1691.43 797.488 1692.46 798.256C1693.48 798.981 1693.99 800.197 1693.99 801.904C1693.99 803.611 1693.48 804.891 1692.46 805.744Z" fill="#F6F6F6"/>
</svg>
