<svg width="1866" height="1039" viewBox="0 0 1866 1039" fill="none" xmlns="http://www.w3.org/2000/svg">
<g clip-path="url(#clip0_115_8)">
<path fill-rule="evenodd" clip-rule="evenodd" d="M0 395.141V-10.8725L1866 -1.71835V504.854C1862.78 505.669 1859.43 506.098 1856 506.098H1820.11C1809.01 506.098 1799.18 513.243 1795.75 523.798C1792.32 534.352 1782.49 541.498 1771.39 541.498H1760.19C1749.02 541.498 1739.09 534.378 1735.5 523.798C1731.91 513.217 1721.98 506.098 1710.81 506.098H1688.36C1677.03 506.098 1666.9 513.165 1663 523.798C1659.1 534.43 1648.97 541.498 1637.64 541.498H1632.19C1621.02 541.498 1611.09 534.378 1607.5 523.798C1603.91 513.217 1593.98 506.098 1582.81 506.098H1557.36C1546.03 506.098 1535.9 513.165 1532 523.798C1528.1 534.43 1517.97 541.498 1506.64 541.498H1500.63C1489.17 541.498 1478.95 534.269 1475.13 523.458C1471.43 512.983 1461.7 505.835 1450.6 505.436L1436.3 504.922C1409.64 503.963 1387.5 525.319 1387.5 552V624.5V627.181C1387.5 689.037 1337.36 739.181 1275.5 739.181H1171H1043H844.5H707H652.955C583.392 739.181 527 682.789 527 613.226V607.617C527 552.236 488.766 504.188 434.8 491.749C407.482 485.453 383.267 469.707 366.431 447.29L364.189 444.306C329.238 397.771 267.478 380.367 213.372 401.805L191.964 410.288C162.026 422.15 129.195 424.66 97.8011 417.487L0 395.141ZM789.76 465.16C791.04 465.747 792.027 466.6 792.72 467.72H811.44C810.587 461.587 807.813 456.733 803.12 453.16C798.48 449.587 792.453 447.8 785.04 447.8C779.227 447.8 774.16 449.027 769.84 451.48C765.52 453.88 762.187 457.267 759.84 461.64C757.547 466.013 756.4 471 756.4 476.6C756.4 482.2 757.547 487.187 759.84 491.56C762.187 495.933 765.52 499.347 769.84 501.8C774.213 504.2 779.333 505.4 785.2 505.4C791.813 505.4 797.28 503.907 801.6 500.92C805.92 497.88 809.307 494.253 811.76 490.04V472.28H782.88V484.84H797.04C794.533 488.147 791.227 489.8 787.12 489.8C782.8 489.8 779.6 488.707 777.52 486.52C775.44 484.333 774.4 481.027 774.4 476.6C774.4 472.76 775.333 469.747 777.2 467.56C779.067 465.32 781.707 464.2 785.12 464.2C786.933 464.2 788.48 464.52 789.76 465.16ZM846.396 505L849.196 496.44H868.076L870.876 505H889.596L868.956 448.36H848.476L827.756 505H846.396ZM858.636 467.32L863.756 483.08H853.516L858.636 467.32ZM925.071 484.68L935.711 505H955.231L942.911 483.32C946.858 482.04 949.871 479.933 951.951 477C954.085 474.067 955.151 470.707 955.151 466.92C955.151 463.4 954.325 460.253 952.671 457.48C951.071 454.653 948.645 452.44 945.391 450.84C942.138 449.187 938.218 448.36 933.631 448.36H907.231V505H924.991V484.68H925.071ZM932.031 472.84H924.991V463.24H932.031C933.685 463.24 934.938 463.667 935.791 464.52C936.698 465.373 937.151 466.547 937.151 468.04C937.151 469.693 936.725 470.92 935.871 471.72C935.018 472.467 933.738 472.84 932.031 472.84ZM1013.54 451.96C1009.12 449.56 1003.95 448.36 998.025 448.36H974.425V505H998.025C1003.95 505 1009.12 503.773 1013.54 501.32C1018.03 498.813 1021.47 495.4 1023.86 491.08C1026.27 486.76 1027.46 481.907 1027.46 476.52C1027.46 471.08 1026.27 466.227 1023.86 461.96C1021.47 457.693 1018.03 454.36 1013.54 451.96ZM1005.95 485.88C1003.6 488.067 1000.42 489.16 996.425 489.16H992.185V463.88H996.425C1000.42 463.88 1003.6 464.973 1005.95 467.16C1008.29 469.347 1009.47 472.467 1009.47 476.52C1009.47 480.573 1008.29 483.693 1005.95 485.88ZM1065.24 469.48V462.52H1085.24V448.36H1047.48V505H1085.24V490.84H1065.24V482.84H1082.84V469.48H1065.24ZM1142.09 505H1159.85V448.36H1142.09V477.32L1123.29 448.36H1105.53V505H1123.29V476.52L1142.09 505ZM729.469 403.378C729.234 407.174 731.382 410.539 734.589 412.065C735.878 412.782 737.365 413.192 738.957 413.192H745.832C747.633 413.192 749.301 412.667 750.699 411.766C753.573 410.134 755.45 406.97 755.248 403.421L753.901 379.776C755.245 379.911 756.608 379.98 757.987 379.98C780.432 379.98 798.628 361.662 798.628 339.065C798.628 321.603 787.762 306.696 772.467 300.822C773.053 298.471 773.365 296.012 773.365 293.481C773.365 276.647 759.595 263 742.609 263C725.624 263 711.854 276.647 711.854 293.481C711.854 294.163 711.877 294.841 711.921 295.512C693.385 301.597 680 319.042 680 339.614C680 365.244 700.777 386.021 726.408 386.021C727.804 386.021 729.186 385.96 730.551 385.839L729.469 403.378ZM1163.57 386.021C1164.97 386.021 1166.35 385.96 1167.72 385.839L1166.63 403.378C1166.31 408.557 1170.43 412.932 1175.62 412.932H1183.43C1188.6 412.932 1192.71 408.584 1192.41 403.421L1190.92 377.116C1191.83 376.445 1192.73 375.742 1193.59 375.008C1194.11 375.027 1194.63 375.037 1195.15 375.037C1217.6 375.037 1235.79 356.719 1235.79 334.122C1235.79 314.422 1221.96 297.973 1203.55 294.08C1201.18 279.572 1188.49 268.492 1173.18 268.492C1156.43 268.492 1142.8 281.77 1142.44 298.288C1127.43 305.977 1117.17 321.596 1117.17 339.614C1117.17 365.244 1137.94 386.021 1163.57 386.021ZM900.88 285.257C901.131 280.477 905.081 276.73 909.867 276.73H930.101C934.902 276.73 938.857 280.498 939.09 285.293L941.718 339.386H942.757C947.175 339.386 950.757 342.968 950.757 347.386V347.862C950.757 352.281 947.175 355.862 942.757 355.862H942.519L944.806 402.947C945.056 408.083 940.959 412.383 935.817 412.383H903.675C898.519 412.383 894.417 408.06 894.688 402.91L897.164 355.862H881.368L883.655 402.947C883.905 408.083 879.808 412.383 874.666 412.383H842.524C837.368 412.383 833.266 408.06 833.537 402.91L836.013 355.862H830.793C826.374 355.862 822.793 352.281 822.793 347.862V347.386C822.793 342.968 826.374 339.386 830.793 339.386H836.88L839.729 285.257C839.98 280.477 843.93 276.73 848.716 276.73H868.95C873.751 276.73 877.707 280.498 877.939 285.293L880.567 339.386H898.031L900.88 285.257ZM1047.57 276.73C1042.79 276.73 1038.84 280.477 1038.58 285.257L1036.69 321.216H1018.43L1016.68 285.293C1016.45 280.498 1012.49 276.73 1007.69 276.73H987.46C982.673 276.73 978.724 280.477 978.472 285.257L976.58 321.216H971.389C966.971 321.216 963.389 324.797 963.389 329.216V329.692C963.389 334.11 966.971 337.692 971.389 337.692H975.713L972.28 402.91C972.009 408.06 976.111 412.383 981.268 412.383H1013.41C1018.55 412.383 1022.65 408.083 1022.4 402.946L1019.23 337.692H1035.83L1032.39 402.91C1032.12 408.06 1036.22 412.383 1041.38 412.383H1073.52C1078.66 412.383 1082.76 408.083 1082.51 402.947L1079.34 337.692H1083.35C1087.77 337.692 1091.35 334.11 1091.35 329.692V329.216C1091.35 324.797 1087.77 321.216 1083.35 321.216H1078.54L1076.8 285.293C1076.56 280.498 1072.61 276.73 1067.81 276.73H1047.57ZM123.064 720.576C120.472 720.576 118.056 720.16 115.816 719.328C113.608 718.464 111.688 717.248 110.056 715.68C108.424 714.112 107.144 712.272 106.216 710.16C105.32 708.048 104.872 705.728 104.872 703.2C104.872 700.672 105.32 698.352 106.216 696.24C107.144 694.128 108.424 692.288 110.056 690.72C111.72 689.152 113.656 687.952 115.864 687.12C118.072 686.256 120.488 685.824 123.112 685.824C126.024 685.824 128.648 686.336 130.984 687.36C133.352 688.352 135.336 689.824 136.936 691.776L131.944 696.384C130.792 695.072 129.512 694.096 128.104 693.456C126.696 692.784 125.16 692.448 123.496 692.448C121.928 692.448 120.488 692.704 119.176 693.216C117.864 693.728 116.728 694.464 115.768 695.424C114.808 696.384 114.056 697.52 113.512 698.832C113 700.144 112.744 701.6 112.744 703.2C112.744 704.8 113 706.256 113.512 707.568C114.056 708.88 114.808 710.016 115.768 710.976C116.728 711.936 117.864 712.672 119.176 713.184C120.488 713.696 121.928 713.952 123.496 713.952C125.16 713.952 126.696 713.632 128.104 712.992C129.512 712.32 130.792 711.312 131.944 709.968L136.936 714.576C135.336 716.528 133.352 718.016 130.984 719.04C128.648 720.064 126.008 720.576 123.064 720.576ZM169.998 720.384C167.246 720.384 164.798 719.808 162.654 718.656C160.542 717.504 158.862 715.936 157.614 713.952C156.398 711.936 155.79 709.648 155.79 707.088C155.79 704.496 156.398 702.208 157.614 700.224C158.862 698.208 160.542 696.64 162.654 695.52C164.798 694.368 167.246 693.792 169.998 693.792C172.718 693.792 175.15 694.368 177.294 695.52C179.438 696.64 181.118 698.192 182.334 700.176C183.55 702.16 184.158 704.464 184.158 707.088C184.158 709.648 183.55 711.936 182.334 713.952C181.118 715.936 179.438 717.504 177.294 718.656C175.15 719.808 172.718 720.384 169.998 720.384ZM169.998 714.24C171.246 714.24 172.366 713.952 173.358 713.376C174.35 712.8 175.134 711.984 175.71 710.928C176.286 709.84 176.574 708.56 176.574 707.088C176.574 705.584 176.286 704.304 175.71 703.248C175.134 702.192 174.35 701.376 173.358 700.8C172.366 700.224 171.246 699.936 169.998 699.936C168.75 699.936 167.63 700.224 166.638 700.8C165.646 701.376 164.846 702.192 164.238 703.248C163.662 704.304 163.374 705.584 163.374 707.088C163.374 708.56 163.662 709.84 164.238 710.928C164.846 711.984 165.646 712.8 166.638 713.376C167.63 713.952 168.75 714.24 169.998 714.24ZM190.748 720V694.176H211.436V700.32H198.188V720H190.748ZM227.862 720.384C225.11 720.384 222.662 719.808 220.518 718.656C218.406 717.504 216.726 715.936 215.478 713.952C214.262 711.936 213.654 709.648 213.654 707.088C213.654 704.496 214.262 702.208 215.478 700.224C216.726 698.208 218.406 696.64 220.518 695.52C222.662 694.368 225.11 693.792 227.862 693.792C230.582 693.792 233.014 694.368 235.158 695.52C237.302 696.64 238.982 698.192 240.198 700.176C241.414 702.16 242.022 704.464 242.022 707.088C242.022 709.648 241.414 711.936 240.198 713.952C238.982 715.936 237.302 717.504 235.158 718.656C233.014 719.808 230.582 720.384 227.862 720.384ZM227.862 714.24C229.11 714.24 230.23 713.952 231.222 713.376C232.214 712.8 232.998 711.984 233.574 710.928C234.15 709.84 234.438 708.56 234.438 707.088C234.438 705.584 234.15 704.304 233.574 703.248C232.998 702.192 232.214 701.376 231.222 700.8C230.23 700.224 229.11 699.936 227.862 699.936C226.614 699.936 225.494 700.224 224.502 700.8C223.51 701.376 222.71 702.192 222.102 703.248C221.526 704.304 221.238 705.584 221.238 707.088C221.238 708.56 221.526 709.84 222.102 710.928C222.71 711.984 223.51 712.8 224.502 713.376C225.494 713.952 226.614 714.24 227.862 714.24ZM263.828 720.384C261.652 720.384 259.749 719.904 258.116 718.944C257.351 718.494 256.663 717.934 256.052 717.266V729.312H248.564V694.176H255.716V697.158C256.362 696.379 257.114 695.737 257.973 695.232C259.604 694.272 261.556 693.792 263.828 693.792C266.26 693.792 268.436 694.352 270.357 695.472C272.309 696.56 273.845 698.096 274.965 700.08C276.116 702.064 276.693 704.4 276.693 707.088C276.693 709.808 276.116 712.16 274.965 714.144C273.845 716.128 272.309 717.664 270.357 718.752C268.436 719.84 266.26 720.384 263.828 720.384ZM262.533 714.24C263.78 714.24 264.884 713.952 265.844 713.376C266.836 712.8 267.62 711.984 268.197 710.928C268.805 709.84 269.108 708.56 269.108 707.088C269.108 705.584 268.805 704.304 268.197 703.248C267.62 702.192 266.836 701.376 265.844 700.8C264.884 700.224 263.78 699.936 262.533 699.936C261.284 699.936 260.164 700.224 259.172 700.8C258.181 701.376 257.396 702.192 256.82 703.248C256.245 704.304 255.956 705.584 255.956 707.088C255.956 708.56 256.245 709.84 256.82 710.928C257.396 711.984 258.181 712.8 259.172 713.376C260.164 713.952 261.284 714.24 262.533 714.24ZM295.477 720.384C292.725 720.384 290.277 719.808 288.133 718.656C286.021 717.504 284.341 715.936 283.093 713.952C281.877 711.936 281.269 709.648 281.269 707.088C281.269 704.496 281.877 702.208 283.093 700.224C284.341 698.208 286.021 696.64 288.133 695.52C290.277 694.368 292.725 693.792 295.477 693.792C298.197 693.792 300.629 694.368 302.773 695.52C304.917 696.64 306.597 698.192 307.813 700.176C309.029 702.16 309.637 704.464 309.637 707.088C309.637 709.648 309.029 711.936 307.813 713.952C306.597 715.936 304.917 717.504 302.773 718.656C300.629 719.808 298.197 720.384 295.477 720.384ZM295.477 714.24C296.725 714.24 297.845 713.952 298.837 713.376C299.829 712.8 300.613 711.984 301.189 710.928C301.765 709.84 302.053 708.56 302.053 707.088C302.053 705.584 301.765 704.304 301.189 703.248C300.613 702.192 299.829 701.376 298.837 700.8C297.845 700.224 296.725 699.936 295.477 699.936C294.229 699.936 293.109 700.224 292.117 700.8C291.125 701.376 290.325 702.192 289.717 703.248C289.141 704.304 288.853 705.584 288.853 707.088C288.853 708.56 289.141 709.84 289.717 710.928C290.325 711.984 291.125 712.8 292.117 713.376C293.109 713.952 294.229 714.24 295.477 714.24ZM344.796 713.856H341.1V694.176H318.588L318.252 703.104C318.188 704.544 318.076 705.92 317.916 707.232C317.756 708.512 317.516 709.664 317.196 710.688C316.876 711.68 316.428 712.464 315.852 713.04C315.276 713.584 314.524 713.856 313.596 713.856H312.732V725.568H319.692V720H337.836V725.568H344.796V713.856ZM333.612 700.32V713.856H322.765C322.866 713.75 322.962 713.638 323.052 713.52C323.564 712.816 323.948 711.968 324.204 710.976C324.492 709.952 324.684 708.816 324.78 707.568C324.876 706.32 324.956 705.008 325.02 703.632L325.164 700.32H333.612ZM366.404 720V716.791C365.84 717.739 365.072 718.505 364.1 719.088C362.66 719.952 360.804 720.384 358.532 720.384C356.516 720.384 354.788 720.048 353.348 719.376C351.908 718.672 350.804 717.728 350.036 716.544C349.268 715.36 348.884 714.032 348.884 712.56C348.884 711.024 349.252 709.68 349.988 708.528C350.756 707.376 351.956 706.48 353.588 705.84C355.22 705.168 357.348 704.832 359.972 704.832H365.924C365.924 703.232 365.428 701.984 364.436 701.088C363.476 700.192 361.988 699.744 359.972 699.744C358.596 699.744 357.236 699.968 355.892 700.416C354.58 700.832 353.46 701.408 352.532 702.144L349.844 696.912C351.252 695.92 352.948 695.152 354.932 694.608C356.916 694.064 358.932 693.792 360.98 693.792C364.916 693.792 367.972 694.72 370.148 696.576C372.324 698.432 373.412 701.328 373.412 705.264V720H366.404ZM365.924 709.2V711.84C365.476 712.992 364.756 713.872 363.764 714.48C362.772 715.056 361.652 715.344 360.404 715.344C359.092 715.344 358.052 715.072 357.284 714.528C356.548 713.952 356.18 713.184 356.18 712.224C356.18 711.36 356.5 710.64 357.14 710.064C357.812 709.488 359.028 709.2 360.788 709.2H365.924ZM135.544 772.856H131.848V753.176H109.336L109 762.104C108.936 763.544 108.824 764.92 108.664 766.232C108.504 767.512 108.264 768.664 107.944 769.688C107.624 770.68 107.176 771.464 106.6 772.04C106.024 772.584 105.272 772.856 104.344 772.856H103.48V784.568H110.44V779H128.584V784.568H135.544V772.856ZM124.36 759.32V772.856H113.513C113.614 772.75 113.71 772.638 113.8 772.52C114.312 771.816 114.696 770.968 114.952 769.976C115.24 768.952 115.432 767.816 115.528 766.568C115.624 765.32 115.704 764.008 115.768 762.632L115.912 759.32H124.36ZM138.432 778.952L138.816 772.808L139.392 772.904H139.92C140.816 772.904 141.52 772.648 142.032 772.136C142.544 771.624 142.928 770.936 143.184 770.072C143.44 769.176 143.616 768.168 143.712 767.048C143.84 765.928 143.936 764.76 144 763.544L144.384 753.176H166.464V779H158.976V759.32H150.813L150.576 763.88C150.48 766.184 150.288 768.296 150 770.216C149.744 772.136 149.312 773.8 148.704 775.208C148.096 776.584 147.28 777.656 146.256 778.424C145.232 779.16 143.92 779.528 142.32 779.528C141.744 779.528 141.136 779.48 140.496 779.384C139.856 779.288 139.168 779.144 138.432 778.952ZM191.377 779V771.608H185.865L180.961 779H172.993L178.876 770.566C178.014 770.227 177.236 769.807 176.545 769.304C174.433 767.768 173.377 765.56 173.377 762.68C173.377 759.608 174.481 757.256 176.689 755.624C178.929 753.992 181.937 753.176 185.713 753.176H198.049V779H191.377ZM191.377 759.272V766.616H185.761C182.593 766.616 181.009 765.384 181.009 762.92C181.009 761.64 181.425 760.712 182.257 760.136C183.121 759.56 184.321 759.272 185.857 759.272H191.377ZM221.719 779V753.176H234.919C238.151 753.176 240.679 753.768 242.503 754.952C244.327 756.104 245.239 757.736 245.239 759.848C245.239 761.96 244.375 763.624 242.647 764.84C242.281 765.095 241.889 765.323 241.471 765.524C242.323 765.799 243.051 766.163 243.655 766.616C245.223 767.768 246.007 769.448 246.007 771.656C246.007 773.928 245.143 775.72 243.415 777.032C241.687 778.344 239.047 779 235.495 779H221.719ZM228.583 773.912H234.871C236.247 773.912 237.271 773.688 237.943 773.24C238.647 772.76 238.999 772.04 238.999 771.08C238.999 770.088 238.679 769.368 238.039 768.92C237.399 768.44 236.391 768.2 235.015 768.2H228.583V773.912ZM228.583 763.784H234.247C235.559 763.784 236.535 763.544 237.175 763.064C237.847 762.584 238.183 761.896 238.183 761C238.183 760.072 237.847 759.384 237.175 758.936C236.535 758.488 235.559 758.264 234.247 758.264H228.583V763.784ZM268.475 779V775.791C267.911 776.739 267.143 777.505 266.171 778.088C264.731 778.952 262.875 779.384 260.603 779.384C258.587 779.384 256.859 779.048 255.419 778.376C253.979 777.672 252.875 776.728 252.107 775.544C251.339 774.36 250.955 773.032 250.955 771.56C250.955 770.024 251.323 768.68 252.059 767.528C252.827 766.376 254.027 765.48 255.659 764.84C257.291 764.168 259.419 763.832 262.043 763.832H267.995C267.995 762.232 267.499 760.984 266.507 760.088C265.547 759.192 264.059 758.744 262.043 758.744C260.667 758.744 259.307 758.968 257.963 759.416C256.651 759.832 255.531 760.408 254.603 761.144L251.915 755.912C253.323 754.92 255.019 754.152 257.003 753.608C258.987 753.064 261.003 752.792 263.051 752.792C266.987 752.792 270.043 753.72 272.219 755.576C274.395 757.432 275.483 760.328 275.483 764.264V779H268.475ZM267.995 768.2V770.84C267.547 771.992 266.827 772.872 265.835 773.48C264.843 774.056 263.723 774.344 262.475 774.344C261.163 774.344 260.123 774.072 259.355 773.528C258.619 772.952 258.251 772.184 258.251 771.224C258.251 770.36 258.571 769.64 259.211 769.064C259.883 768.488 261.099 768.2 262.859 768.2H267.995ZM299.411 753.176V772.856H290.867V753.176H283.427V779H322.836V753.176H315.396V772.856H306.9V753.176H299.411ZM344.085 779.384C341.141 779.384 338.549 778.808 336.309 777.656C334.101 776.504 332.389 774.936 331.173 772.952C329.957 770.936 329.349 768.648 329.349 766.088C329.349 763.496 329.941 761.208 331.125 759.224C332.341 757.208 333.989 755.64 336.069 754.52C338.149 753.368 340.501 752.792 343.125 752.792C345.653 752.792 347.925 753.336 349.941 754.424C351.989 755.48 353.605 757.016 354.789 759.032C355.973 761.016 356.565 763.4 356.565 766.184C356.565 766.472 356.549 766.808 356.517 767.192C356.485 767.544 356.453 767.88 356.421 768.2H336.882C337.033 768.887 337.274 769.527 337.605 770.12C338.245 771.176 339.125 771.992 340.245 772.568C341.397 773.112 342.741 773.384 344.277 773.384C345.653 773.384 346.853 773.176 347.877 772.76C348.933 772.344 349.893 771.72 350.757 770.888L354.741 775.208C353.557 776.552 352.069 777.592 350.277 778.328C348.485 779.032 346.421 779.384 344.085 779.384ZM337.509 761.672C337.158 762.312 336.921 763.032 336.796 763.832H349.513C349.392 763.018 349.15 762.282 348.789 761.624C348.245 760.632 347.493 759.864 346.533 759.32C345.573 758.744 344.453 758.456 343.173 758.456C341.893 758.456 340.757 758.744 339.765 759.32C338.805 759.864 338.053 760.648 337.509 761.672ZM363.745 779V753.176H384.433V759.32H371.185V779H363.745ZM400.859 779.384C398.107 779.384 395.659 778.808 393.515 777.656C391.403 776.504 389.723 774.936 388.475 772.952C387.259 770.936 386.651 768.648 386.651 766.088C386.651 763.496 387.259 761.208 388.475 759.224C389.723 757.208 391.403 755.64 393.515 754.52C395.659 753.368 398.107 752.792 400.859 752.792C403.579 752.792 406.011 753.368 408.155 754.52C410.299 755.64 411.979 757.192 413.195 759.176C414.411 761.16 415.019 763.464 415.019 766.088C415.019 768.648 414.411 770.936 413.195 772.952C411.979 774.936 410.299 776.504 408.155 777.656C406.011 778.808 403.579 779.384 400.859 779.384ZM400.859 773.24C402.107 773.24 403.227 772.952 404.219 772.376C405.211 771.8 405.995 770.984 406.571 769.928C407.147 768.84 407.435 767.56 407.435 766.088C407.435 764.584 407.147 763.304 406.571 762.248C405.995 761.192 405.211 760.376 404.219 759.8C403.227 759.224 402.107 758.936 400.859 758.936C399.611 758.936 398.491 759.224 397.499 759.8C396.507 760.376 395.707 761.192 395.099 762.248C394.523 763.304 394.235 764.584 394.235 766.088C394.235 767.56 394.523 768.84 395.099 769.928C395.707 770.984 396.507 771.8 397.499 772.376C398.491 772.952 399.611 773.24 400.859 773.24ZM118.888 838.384C116.104 838.384 113.624 837.824 111.448 836.704C109.272 835.552 107.56 833.968 106.312 831.952C105.096 829.936 104.488 827.648 104.488 825.088C104.488 822.496 105.096 820.208 106.312 818.224C107.56 816.208 109.272 814.64 111.448 813.52C113.624 812.368 116.104 811.792 118.888 811.792C121.608 811.792 123.976 812.368 125.992 813.52C128.008 814.64 129.496 816.256 130.456 818.368L124.648 821.488C123.976 820.272 123.128 819.376 122.104 818.8C121.112 818.224 120.024 817.936 118.84 817.936C117.56 817.936 116.408 818.224 115.384 818.8C114.36 819.376 113.544 820.192 112.936 821.248C112.36 822.304 112.072 823.584 112.072 825.088C112.072 826.592 112.36 827.872 112.936 828.928C113.544 829.984 114.36 830.8 115.384 831.376C116.408 831.952 117.56 832.24 118.84 832.24C120.024 832.24 121.112 831.968 122.104 831.424C123.128 830.848 123.976 829.936 124.648 828.688L130.456 831.856C129.496 833.936 128.008 835.552 125.992 836.704C123.976 837.824 121.608 838.384 118.888 838.384ZM141.919 838V818.32H133.183V812.176H158.095V818.32H149.359V838H141.919ZM174.545 838.384C171.793 838.384 169.345 837.808 167.201 836.656C165.089 835.504 163.409 833.936 162.161 831.952C160.945 829.936 160.337 827.648 160.337 825.088C160.337 822.496 160.945 820.208 162.161 818.224C163.409 816.208 165.089 814.64 167.201 813.52C169.345 812.368 171.793 811.792 174.545 811.792C177.265 811.792 179.697 812.368 181.841 813.52C183.985 814.64 185.665 816.192 186.881 818.176C188.097 820.16 188.705 822.464 188.705 825.088C188.705 827.648 188.097 829.936 186.881 831.952C185.665 833.936 183.985 835.504 181.841 836.656C179.697 837.808 177.265 838.384 174.545 838.384ZM174.545 832.24C175.793 832.24 176.913 831.952 177.905 831.376C178.897 830.8 179.681 829.984 180.257 828.928C180.833 827.84 181.121 826.56 181.121 825.088C181.121 823.584 180.833 822.304 180.257 821.248C179.681 820.192 178.897 819.376 177.905 818.8C176.913 818.224 175.793 817.936 174.545 817.936C173.297 817.936 172.177 818.224 171.185 818.8C170.193 819.376 169.393 820.192 168.785 821.248C168.209 822.304 167.921 823.584 167.921 825.088C167.921 826.56 168.209 827.84 168.785 828.928C169.393 829.984 170.193 830.8 171.185 831.376C172.177 831.952 173.297 832.24 174.545 832.24ZM191.656 837.952L192.04 831.808L192.616 831.904H193.144C194.04 831.904 194.744 831.648 195.256 831.136C195.768 830.624 196.152 829.936 196.408 829.072C196.664 828.176 196.84 827.168 196.936 826.048C197.064 824.928 197.16 823.76 197.224 822.544L197.608 812.176H219.688V838H212.2V818.32H204.036L203.8 822.88C203.704 825.184 203.512 827.296 203.224 829.216C202.968 831.136 202.536 832.8 201.928 834.208C201.32 835.584 200.504 836.656 199.48 837.424C198.456 838.16 197.144 838.528 195.544 838.528C194.968 838.528 194.36 838.48 193.72 838.384C193.08 838.288 192.392 838.144 191.656 837.952ZM243.785 838V834.791C243.221 835.739 242.453 836.505 241.481 837.088C240.041 837.952 238.185 838.384 235.913 838.384C233.897 838.384 232.169 838.048 230.729 837.376C229.289 836.672 228.185 835.728 227.417 834.544C226.649 833.36 226.265 832.032 226.265 830.56C226.265 829.024 226.633 827.68 227.369 826.528C228.137 825.376 229.337 824.48 230.969 823.84C232.601 823.168 234.729 822.832 237.353 822.832H243.305C243.305 821.232 242.809 819.984 241.817 819.088C240.857 818.192 239.369 817.744 237.353 817.744C235.977 817.744 234.617 817.968 233.273 818.416C231.961 818.832 230.841 819.408 229.913 820.144L227.225 814.912C228.633 813.92 230.329 813.152 232.313 812.608C234.297 812.064 236.313 811.792 238.361 811.792C242.297 811.792 245.353 812.72 247.529 814.576C249.705 816.432 250.793 819.328 250.793 823.264V838H243.785ZM243.305 827.2V829.84C242.857 830.992 242.137 831.872 241.145 832.48C240.153 833.056 239.033 833.344 237.785 833.344C236.473 833.344 235.433 833.072 234.665 832.528C233.929 831.952 233.561 831.184 233.561 830.224C233.561 829.36 233.881 828.64 234.521 828.064C235.193 827.488 236.409 827.2 238.169 827.2H243.305ZM1532.8 424.56C1534.24 420.773 1534.96 416.667 1534.96 412.24C1534.96 407.867 1534.24 403.84 1532.8 400.16C1531.36 396.427 1529.36 393.2 1526.8 390.48C1524.19 387.707 1521.12 385.547 1517.6 384C1514.03 382.453 1510.16 381.68 1506 381.68C1501.79 381.68 1497.95 382.453 1494.48 384C1490.96 385.547 1487.89 387.707 1485.28 390.48C1482.67 393.2 1480.64 396.427 1479.2 400.16C1477.76 403.84 1477.04 407.893 1477.04 412.32C1477.04 416.693 1477.76 420.747 1479.2 424.48C1480.64 428.213 1482.67 431.467 1485.28 434.24C1487.89 437.013 1490.96 439.173 1494.48 440.72C1498 442.213 1501.84 442.96 1506 442.96C1510.16 442.96 1514 442.213 1517.52 440.72C1521.04 439.173 1524.11 437.04 1526.72 434.32C1529.33 431.547 1531.36 428.293 1532.8 424.56ZM1522.64 405.44C1523.49 407.52 1523.92 409.813 1523.92 412.32C1523.92 414.827 1523.49 417.147 1522.64 419.28C1521.79 421.413 1520.56 423.28 1518.96 424.88C1517.36 426.427 1515.47 427.653 1513.28 428.56C1511.04 429.413 1508.61 429.84 1506 429.84C1503.33 429.84 1500.91 429.413 1498.72 428.56C1496.53 427.653 1494.64 426.4 1493.04 424.8C1491.44 423.2 1490.21 421.36 1489.36 419.28C1488.51 417.147 1488.08 414.827 1488.08 412.32C1488.08 409.813 1488.51 407.493 1489.36 405.36C1490.21 403.227 1491.44 401.387 1493.04 399.84C1494.64 398.24 1496.53 397.013 1498.72 396.16C1500.91 395.253 1503.33 394.8 1506 394.8C1508.67 394.8 1511.09 395.253 1513.28 396.16C1515.47 397.013 1517.36 398.24 1518.96 399.84C1520.56 401.44 1521.79 403.307 1522.64 405.44ZM1478 345.616V371.696H1534V344.096C1534 337.003 1532.61 331.616 1529.84 327.936C1527.01 324.203 1523.15 322.336 1518.24 322.336C1513.49 322.336 1509.87 324.07 1507.36 327.536C1506.28 329.031 1505.43 330.788 1504.82 332.807C1504.35 331.836 1503.81 330.933 1503.2 330.096C1500.64 326.683 1497.07 324.976 1492.48 324.976C1487.84 324.976 1484.27 326.79 1481.76 330.416C1479.25 334.043 1478 339.11 1478 345.616ZM1524.4 344.576V358.816H1510.24V344.576C1510.24 341.59 1510.83 339.323 1512 337.776C1513.12 336.23 1514.85 335.456 1517.2 335.456C1519.65 335.456 1521.47 336.23 1522.64 337.776C1523.81 339.323 1524.4 341.59 1524.4 344.576ZM1501.2 346.736V358.816H1487.6V346.736C1487.6 343.91 1488.19 341.776 1489.36 340.336C1490.48 338.896 1492.16 338.176 1494.4 338.176C1496.64 338.176 1498.35 338.896 1499.52 340.336C1500.64 341.776 1501.2 343.91 1501.2 346.736ZM1532.8 297.607C1534.24 293.82 1534.96 289.714 1534.96 285.287C1534.96 280.914 1534.24 276.887 1532.8 273.207C1531.36 269.474 1529.36 266.247 1526.8 263.527C1524.19 260.754 1521.12 258.594 1517.6 257.047C1514.03 255.5 1510.16 254.727 1506 254.727C1501.79 254.727 1497.95 255.5 1494.48 257.047C1490.96 258.594 1487.89 260.754 1485.28 263.527C1482.67 266.247 1480.64 269.474 1479.2 273.207C1477.76 276.887 1477.04 280.94 1477.04 285.367C1477.04 289.74 1477.76 293.794 1479.2 297.527C1480.64 301.26 1482.67 304.514 1485.28 307.287C1487.89 310.06 1490.96 312.22 1494.48 313.767C1498 315.26 1501.84 316.007 1506 316.007C1510.16 316.007 1514 315.26 1517.52 313.767C1521.04 312.22 1524.11 310.087 1526.72 307.367C1529.33 304.594 1531.36 301.34 1532.8 297.607ZM1522.64 278.487C1523.49 280.567 1523.92 282.86 1523.92 285.367C1523.92 287.874 1523.49 290.194 1522.64 292.327C1521.79 294.46 1520.56 296.327 1518.96 297.927C1517.36 299.474 1515.47 300.7 1513.28 301.607C1511.04 302.46 1508.61 302.887 1506 302.887C1503.33 302.887 1500.91 302.46 1498.72 301.607C1496.53 300.7 1494.64 299.447 1493.04 297.847C1491.44 296.247 1490.21 294.407 1489.36 292.327C1488.51 290.194 1488.08 287.874 1488.08 285.367C1488.08 282.86 1488.51 280.54 1489.36 278.407C1490.21 276.274 1491.44 274.434 1493.04 272.887C1494.64 271.287 1496.53 270.06 1498.72 269.207C1500.91 268.3 1503.33 267.847 1506 267.847C1508.67 267.847 1511.09 268.3 1513.28 269.207C1515.47 270.06 1517.36 271.287 1518.96 272.887C1520.56 274.487 1521.79 276.354 1522.64 278.487ZM1523.44 214.183H1478V201.303H1523.44V183.943V183.703H1478V170.823H1523.44V163.223H1545.6V175.223H1534V183.943V244.743H1478V231.863L1523.44 231.863V214.183ZM1478 154.352H1534V142.112L1497.6 115.392H1534V102.592L1478 102.592V114.752L1514.48 141.472L1478 141.472V154.352ZM1660.4 402H1666.48V413.92H1660.35C1660.03 419.264 1659.11 423.931 1657.6 427.92C1655.68 432.933 1652.91 436.747 1649.28 439.36C1645.6 441.973 1641.12 443.28 1635.84 443.28C1630.56 443.28 1626.11 441.973 1622.48 439.36C1618.8 436.747 1616 432.933 1614.08 427.92C1612.57 423.931 1611.65 419.264 1611.33 413.92H1605.6V402H1611.31C1611.62 396.588 1612.54 391.894 1614.08 387.92C1616 382.907 1618.8 379.12 1622.48 376.56C1626.16 374 1630.61 372.72 1635.84 372.72C1641.01 372.72 1645.47 374 1649.2 376.56C1652.88 379.067 1655.68 382.773 1657.6 387.68C1659.19 391.702 1660.12 396.476 1660.4 402ZM1621.53 413.92C1621.77 416.528 1622.19 418.822 1622.8 420.8C1623.81 424.107 1625.41 426.587 1627.6 428.24C1629.73 429.893 1632.48 430.72 1635.84 430.72C1639.2 430.72 1641.97 429.84 1644.16 428.08C1646.29 426.32 1647.89 423.787 1648.96 420.48C1649.55 418.535 1649.96 416.348 1650.21 413.92H1621.53ZM1621.49 402H1650.27C1650.02 399.283 1649.56 396.91 1648.88 394.88C1647.76 391.627 1646.13 389.2 1644 387.6C1641.81 386 1639.07 385.2 1635.76 385.2C1632.45 385.2 1629.73 386.027 1627.6 387.68C1625.47 389.333 1623.89 391.76 1622.88 394.96C1622.2 396.969 1621.74 399.316 1621.49 402ZM1608 338.784V363.024H1664V350.064H1648.56V338.784C1648.56 333.771 1647.76 329.451 1646.16 325.824C1644.51 322.198 1642.16 319.398 1639.12 317.424C1636.08 315.451 1632.48 314.464 1628.32 314.464C1624.11 314.464 1620.48 315.451 1617.44 317.424C1614.4 319.398 1612.08 322.198 1610.48 325.824C1608.83 329.451 1608 333.771 1608 338.784ZM1638 350.064V339.504C1638 335.504 1637.15 332.518 1635.44 330.544C1633.73 328.571 1631.36 327.584 1628.32 327.584C1625.23 327.584 1622.83 328.571 1621.12 330.544C1619.41 332.518 1618.56 335.504 1618.56 339.504V350.064H1638ZM1654.24 297.485C1654.61 299.565 1654.35 302.152 1653.44 305.245L1663.28 308.365C1664.83 304.632 1665.44 301.032 1665.12 297.565C1664.85 294.098 1663.65 290.925 1661.52 288.045C1659.39 285.112 1656.32 282.578 1652.32 280.445L1608 256.605V269.325L1638.1 284.707L1608 299.565V313.405L1649.09 291.359L1649.76 291.805C1652.32 293.458 1653.81 295.352 1654.24 297.485ZM1641.44 228.8L1664 214.206V199.486L1635.05 218.347L1608 200.046V213.726L1630.64 228.41V237.726H1608V250.606H1664V237.726H1641.44V228.8ZM1618.56 181.96H1664V169.16H1618.56V151.24H1608V199.8H1618.56V181.96ZM1630.96 100.302C1627.92 103.982 1626.4 109.209 1626.4 115.982V130.222H1608V143.102H1664V117.822C1664 110.622 1662.35 104.996 1659.04 100.942C1655.73 96.8358 1650.88 94.7825 1644.48 94.7825C1638.45 94.7825 1633.95 96.6225 1630.96 100.302ZM1651.92 110.702C1653.57 112.622 1654.4 115.236 1654.4 118.542V130.222H1636V118.542C1636 115.182 1636.69 112.569 1638.08 110.702C1639.41 108.782 1641.63 107.822 1644.72 107.822C1647.87 107.822 1650.27 108.782 1651.92 110.702ZM1608 87.6625H1664V74.7825H1608V87.6625ZM1779.12 407.12H1794V394.32H1738V418.48C1738 423.387 1738.83 427.653 1740.48 431.28C1742.13 434.907 1744.53 437.733 1747.68 439.76C1750.77 441.733 1754.51 442.72 1758.88 442.72C1763.09 442.72 1766.72 441.787 1769.76 439.92C1772.8 438.053 1775.12 435.36 1776.72 431.84C1776.86 431.522 1777 431.198 1777.13 430.868L1794 442.56V428.88L1779.12 418.98V407.12ZM1768.88 407.12H1748.56V418.16C1748.56 421.84 1749.41 424.667 1751.12 426.64C1752.83 428.56 1755.36 429.52 1758.72 429.52C1761.97 429.52 1764.48 428.587 1766.24 426.72C1768 424.853 1768.88 422.107 1768.88 418.48V407.12ZM1738 380.29H1794V367.41L1748.56 367.485V340.85L1738 340.77V380.29ZM1792.8 324.091C1794.24 320.305 1794.96 316.198 1794.96 311.771C1794.96 307.398 1794.24 303.371 1792.8 299.691C1791.36 295.958 1789.36 292.731 1786.8 290.011C1784.19 287.238 1781.12 285.078 1777.6 283.531C1774.03 281.985 1770.16 281.211 1766 281.211C1761.79 281.211 1757.95 281.985 1754.48 283.531C1750.96 285.078 1747.89 287.238 1745.28 290.011C1742.67 292.731 1740.64 295.958 1739.2 299.691C1737.76 303.371 1737.04 307.425 1737.04 311.851C1737.04 316.225 1737.76 320.278 1739.2 324.011C1740.64 327.745 1742.67 330.998 1745.28 333.771C1747.89 336.545 1750.96 338.705 1754.48 340.251C1758 341.745 1761.84 342.491 1766 342.491C1770.16 342.491 1774 341.745 1777.52 340.251C1781.04 338.705 1784.11 336.571 1786.72 333.851C1789.33 331.078 1791.36 327.825 1792.8 324.091ZM1782.64 304.971C1783.49 307.051 1783.92 309.345 1783.92 311.851C1783.92 314.358 1783.49 316.678 1782.64 318.811C1781.79 320.945 1780.56 322.811 1778.96 324.411C1777.36 325.958 1775.47 327.185 1773.28 328.091C1771.04 328.945 1768.61 329.371 1766 329.371C1763.33 329.371 1760.91 328.945 1758.72 328.091C1756.53 327.185 1754.64 325.931 1753.04 324.331C1751.44 322.731 1750.21 320.891 1749.36 318.811C1748.51 316.678 1748.08 314.358 1748.08 311.851C1748.08 309.345 1748.51 307.025 1749.36 304.891C1750.21 302.758 1751.44 300.918 1753.04 299.371C1754.64 297.771 1756.53 296.545 1758.72 295.691C1760.91 294.785 1763.33 294.331 1766 294.331C1768.67 294.331 1771.09 294.785 1773.28 295.691C1775.47 296.545 1777.36 297.771 1778.96 299.371C1780.56 300.971 1781.79 302.838 1782.64 304.971ZM1783.44 222.87V215.03H1805.6V227.03H1794V266.55H1805.6V278.55L1783.44 278.47V276.71V276.289C1783.39 274.559 1782.72 273.126 1781.44 271.99C1780.05 270.71 1778.11 269.697 1775.6 268.95C1773.04 268.203 1770.05 267.67 1766.64 267.35C1763.23 266.977 1759.52 266.71 1755.52 266.55L1738 265.91V222.87H1783.44ZM1783.44 235.67H1748.56V254.87L1756.72 255.11C1760.19 255.27 1763.47 255.51 1766.56 255.83C1769.65 256.097 1772.48 256.523 1775.04 257.11C1777.55 257.697 1779.68 258.47 1781.44 259.43C1782.2 259.822 1782.87 260.259 1783.44 260.742V235.67ZM1760.96 163.506C1757.92 167.186 1756.4 172.412 1756.4 179.186V193.426H1738V206.306L1794 206.306V181.026C1794 173.826 1792.35 168.199 1789.04 164.146C1785.73 160.039 1780.88 157.986 1774.48 157.986C1768.45 157.986 1763.95 159.826 1760.96 163.506ZM1781.92 173.906C1783.57 175.826 1784.4 178.439 1784.4 181.746V193.426H1766V181.746C1766 178.386 1766.69 175.772 1768.08 173.906C1769.41 171.986 1771.63 171.026 1774.72 171.026C1777.87 171.026 1780.27 171.986 1781.92 173.906ZM1738 150.866L1794 150.866V137.986H1738V150.866Z" fill="#F6F6F6"/>
<path d="M-47.4771 683.817C-47.4771 665.861 -51.6074 648.145 -59.5487 632.04L-73.6025 603.539C-121.848 505.696 -11.2686 406.098 81.0133 464.279V464.279C114.053 485.109 155.759 486.498 190.112 467.912L218.918 452.327C265.227 427.272 322.843 439.1 355.537 480.373V480.373C364.748 492.001 376.246 501.615 389.321 508.622L396.32 512.373C436.472 533.891 464.355 572.836 471.786 617.78L475.425 639.782C490.755 732.497 570.927 800.5 664.9 800.5H1106.5H1377.98C1403.72 800.5 1424.12 778.767 1422.5 753.073L1422.27 749.447C1420.43 720.457 1447.84 698.384 1475.77 706.364L1487.31 709.66C1512.01 716.717 1535.52 695.353 1530.85 670.093V670.093C1525.37 640.447 1557.78 618.456 1583.3 634.505L1596.09 642.547C1615.27 654.609 1640.62 648.6 1652.34 629.211L1656.03 623.12C1668.55 602.416 1697.68 600.09 1713.33 618.546L1716.9 622.749C1729.05 637.082 1751.11 637.22 1763.44 623.04V623.04C1779.3 604.801 1809.05 611.216 1815.98 634.371L1816.81 637.143C1821.49 652.762 1837.08 662.44 1853.15 659.698L1857.01 659.04C1882.48 654.695 1904.34 677.339 1899.11 702.643L1896.17 716.869C1893.72 728.708 1899.62 740.699 1910.49 745.982V745.982C1920.42 750.803 1926.3 761.285 1925.25 772.268L1916.59 862.429C1912.48 905.177 1930.35 947.086 1964.05 973.713V973.713C1969.34 977.898 1974.29 982.499 1978.85 987.474L2017.93 1030.1C2112.69 1133.48 2093.88 1296.82 1978.1 1375.95V1375.95C1934.07 1406.05 1880.96 1419.93 1827.83 1415.24L1242.5 1363.5L322.34 1328.78C107.114 1320.66 -59.5736 1137.54 -47.4771 922.5V922.5V683.817Z" fill="#F6F6F6" fill-opacity="0.22"/>
</g>
<defs>
<clipPath id="clip0_115_8">
<rect width="1866" height="1039" fill="white"/>
</clipPath>
</defs>
</svg>
