<svg width="1866" height="1098" viewBox="0 0 1866 1098" fill="none" xmlns="http://www.w3.org/2000/svg">
<g clip-path="url(#clip0_109_3)">
<path fill-rule="evenodd" clip-rule="evenodd" d="M0 491.141V224.796H111H461.852C497.832 224.796 527 195.628 527 159.648C527 123.668 556.168 94.5 592.148 94.5H1292.35C1328.33 94.5 1357.5 123.668 1357.5 159.648C1357.5 195.628 1386.67 224.796 1422.65 224.796H1471.1C1510.26 224.796 1542 193.054 1542 153.898V142.615C1542 109.691 1568.69 83 1601.62 83H1612.37C1632.33 83 1649.92 69.9019 1655.64 50.7816C1662.56 27.6744 1686.41 14.0777 1709.82 19.8979L1733.15 25.6993C1750.24 29.9499 1768.33 25.4057 1781.39 13.5808C1808.35 -10.8339 1851.33 -1.36443 1865.54 32.1173L1866 33.2091V600.854C1862.78 601.669 1859.43 602.098 1856 602.098H1820.11C1809.01 602.098 1799.18 609.244 1795.75 619.798C1792.32 630.352 1782.49 637.498 1771.39 637.498H1760.19C1749.02 637.498 1739.09 630.379 1735.5 619.798C1731.91 609.217 1721.98 602.098 1710.81 602.098H1688.36C1677.03 602.098 1666.9 609.165 1663 619.798C1659.1 630.43 1648.97 637.498 1637.64 637.498H1632.19C1621.02 637.498 1611.09 630.379 1607.5 619.798C1603.91 609.217 1593.98 602.098 1582.81 602.098H1557.36C1546.03 602.098 1535.9 609.165 1532 619.798C1528.1 630.43 1517.97 637.498 1506.64 637.498H1500.63C1489.17 637.498 1478.95 630.269 1475.13 619.458C1471.43 608.983 1461.7 601.835 1450.6 601.436L1436.3 600.922C1409.64 599.964 1387.5 621.319 1387.5 648V720.5V723.181C1387.5 785.037 1337.36 835.181 1275.5 835.181H1171H1043H844.5H707H652.955C583.392 835.181 527 778.789 527 709.227V703.617C527 648.236 488.766 600.188 434.8 587.75C407.482 581.453 383.267 565.707 366.431 543.291L364.189 540.306C329.238 493.772 267.478 476.367 213.372 497.805L191.964 506.288C162.026 518.15 129.195 520.66 97.8011 513.487L0 491.141ZM789.76 551.16C791.04 551.747 792.027 552.6 792.72 553.72H811.44C810.587 547.587 807.813 542.733 803.12 539.16C798.48 535.587 792.453 533.8 785.04 533.8C779.227 533.8 774.16 535.027 769.84 537.48C765.52 539.88 762.187 543.267 759.84 547.64C757.547 552.013 756.4 557 756.4 562.6C756.4 568.2 757.547 573.187 759.84 577.56C762.187 581.933 765.52 585.347 769.84 587.8C774.213 590.2 779.333 591.4 785.2 591.4C791.813 591.4 797.28 589.907 801.6 586.92C805.92 583.88 809.307 580.253 811.76 576.04V558.28H782.88V570.84H797.04C794.533 574.147 791.227 575.8 787.12 575.8C782.8 575.8 779.6 574.707 777.52 572.52C775.44 570.333 774.4 567.027 774.4 562.6C774.4 558.76 775.333 555.747 777.2 553.56C779.067 551.32 781.707 550.2 785.12 550.2C786.933 550.2 788.48 550.52 789.76 551.16ZM846.396 591L849.196 582.44H868.076L870.876 591H889.596L868.956 534.36H848.476L827.756 591H846.396ZM858.636 553.32L863.756 569.08H853.516L858.636 553.32ZM925.071 570.68L935.711 591H955.231L942.911 569.32C946.858 568.04 949.871 565.933 951.951 563C954.085 560.067 955.151 556.707 955.151 552.92C955.151 549.4 954.325 546.253 952.671 543.48C951.071 540.653 948.645 538.44 945.391 536.84C942.138 535.187 938.218 534.36 933.631 534.36H907.231V591H924.991V570.68H925.071ZM932.031 558.84H924.991V549.24H932.031C933.685 549.24 934.938 549.667 935.791 550.52C936.698 551.373 937.151 552.547 937.151 554.04C937.151 555.693 936.725 556.92 935.871 557.72C935.018 558.467 933.738 558.84 932.031 558.84ZM1013.54 537.96C1009.12 535.56 1003.95 534.36 998.025 534.36H974.425V591H998.025C1003.95 591 1009.12 589.773 1013.54 587.32C1018.03 584.813 1021.47 581.4 1023.86 577.08C1026.27 572.76 1027.46 567.907 1027.46 562.52C1027.46 557.08 1026.27 552.227 1023.86 547.96C1021.47 543.693 1018.03 540.36 1013.54 537.96ZM1005.95 571.88C1003.6 574.067 1000.42 575.16 996.425 575.16H992.185V549.88H996.425C1000.42 549.88 1003.6 550.973 1005.95 553.16C1008.29 555.347 1009.47 558.467 1009.47 562.52C1009.47 566.573 1008.29 569.693 1005.95 571.88ZM1065.24 555.48V548.52H1085.24V534.36H1047.48V591H1085.24V576.84H1065.24V568.84H1082.84V555.48H1065.24ZM1142.09 591H1159.85V534.36H1142.09V563.32L1123.29 534.36H1105.53V591H1123.29V562.52L1142.09 591ZM729.469 489.378C729.234 493.174 731.382 496.539 734.589 498.065C735.878 498.782 737.365 499.193 738.957 499.193H745.832C747.633 499.193 749.301 498.667 750.699 497.766C753.572 496.134 755.45 492.97 755.248 489.421L753.901 465.776C755.245 465.911 756.608 465.98 757.987 465.98C780.432 465.98 798.628 447.662 798.628 425.065C798.628 407.603 787.762 392.696 772.467 386.822C773.053 384.471 773.365 382.012 773.365 379.481C773.365 362.647 759.595 349 742.609 349C725.624 349 711.854 362.647 711.854 379.481C711.854 380.163 711.877 380.841 711.921 381.512C693.385 387.597 680 405.042 680 425.614C680 451.244 700.777 472.022 726.408 472.022C727.804 472.022 729.186 471.96 730.551 471.839L729.469 489.378ZM1163.57 472.022C1164.97 472.022 1166.35 471.96 1167.72 471.839L1166.63 489.378C1166.31 494.557 1170.43 498.933 1175.62 498.933H1183.43C1188.6 498.933 1192.71 494.584 1192.41 489.421L1190.92 463.116C1191.83 462.445 1192.73 461.742 1193.59 461.008C1194.11 461.028 1194.63 461.037 1195.15 461.037C1217.6 461.037 1235.79 442.719 1235.79 420.122C1235.79 400.422 1221.96 383.973 1203.55 380.08C1201.18 365.572 1188.49 354.492 1173.18 354.492C1156.43 354.492 1142.8 367.77 1142.44 384.288C1127.43 391.977 1117.17 407.596 1117.17 425.614C1117.17 451.244 1137.94 472.022 1163.57 472.022ZM900.88 371.257C901.131 366.477 905.081 362.73 909.867 362.73H930.101C934.902 362.73 938.857 366.498 939.09 371.293L941.718 425.386H942.757C947.175 425.386 950.757 428.968 950.757 433.386V433.862C950.757 438.281 947.175 441.862 942.757 441.862H942.519L944.806 488.947C945.056 494.083 940.959 498.383 935.817 498.383H903.675C898.519 498.383 894.417 494.06 894.688 488.91L897.164 441.862H881.368L883.655 488.947C883.905 494.083 879.808 498.383 874.666 498.383H842.524C837.368 498.383 833.266 494.06 833.537 488.91L836.013 441.862H830.793C826.374 441.862 822.793 438.281 822.793 433.862V433.386C822.793 428.968 826.374 425.386 830.793 425.386H836.88L839.729 371.257C839.98 366.477 843.93 362.73 848.716 362.73H868.95C873.751 362.73 877.707 366.498 877.939 371.293L880.567 425.386H898.031L900.88 371.257ZM1047.57 362.73C1042.79 362.73 1038.84 366.477 1038.58 371.257L1036.69 407.216H1018.43L1016.68 371.293C1016.45 366.498 1012.49 362.73 1007.69 362.73H987.46C982.673 362.73 978.724 366.477 978.472 371.257L976.58 407.216H971.389C966.971 407.216 963.389 410.797 963.389 415.216V415.692C963.389 420.11 966.971 423.692 971.389 423.692H975.713L972.28 488.91C972.009 494.06 976.111 498.383 981.268 498.383H1013.41C1018.55 498.383 1022.65 494.083 1022.4 488.947L1019.23 423.692H1035.83L1032.39 488.91C1032.12 494.06 1036.22 498.383 1041.38 498.383H1073.52C1078.66 498.383 1082.76 494.083 1082.51 488.947L1079.34 423.692H1083.35C1087.77 423.692 1091.35 420.11 1091.35 415.692V415.216C1091.35 410.797 1087.77 407.216 1083.35 407.216H1078.54L1076.8 371.293C1076.56 366.498 1072.61 362.73 1067.81 362.73H1047.57ZM104.064 705.576C101.472 705.576 99.056 705.16 96.816 704.328C94.608 703.464 92.688 702.248 91.056 700.68C89.424 699.112 88.144 697.272 87.216 695.16C86.32 693.048 85.872 690.728 85.872 688.2C85.872 685.672 86.32 683.352 87.216 681.24C88.144 679.128 89.424 677.288 91.056 675.72C92.72 674.152 94.656 672.952 96.864 672.12C99.072 671.256 101.488 670.824 104.112 670.824C107.024 670.824 109.648 671.336 111.984 672.36C114.352 673.352 116.336 674.824 117.936 676.776L112.944 681.384C111.792 680.072 110.512 679.096 109.104 678.456C107.696 677.784 106.16 677.448 104.496 677.448C102.928 677.448 101.488 677.704 100.176 678.216C98.864 678.728 97.728 679.464 96.768 680.424C95.808 681.384 95.056 682.52 94.512 683.832C94 685.144 93.744 686.6 93.744 688.2C93.744 689.8 94 691.256 94.512 692.568C95.056 693.88 95.808 695.016 96.768 695.976C97.728 696.936 98.864 697.672 100.176 698.184C101.488 698.696 102.928 698.952 104.496 698.952C106.16 698.952 107.696 698.632 109.104 697.992C110.512 697.32 111.792 696.312 112.944 694.968L117.936 699.576C116.336 701.528 114.352 703.016 111.984 704.04C109.648 705.064 107.008 705.576 104.064 705.576ZM150.998 705.384C148.246 705.384 145.798 704.808 143.654 703.656C141.542 702.504 139.862 700.936 138.614 698.952C137.398 696.936 136.79 694.648 136.79 692.088C136.79 689.496 137.398 687.208 138.614 685.224C139.862 683.208 141.542 681.64 143.654 680.52C145.798 679.368 148.246 678.792 150.998 678.792C153.718 678.792 156.15 679.368 158.294 680.52C160.438 681.64 162.118 683.192 163.334 685.176C164.55 687.16 165.158 689.464 165.158 692.088C165.158 694.648 164.55 696.936 163.334 698.952C162.118 700.936 160.438 702.504 158.294 703.656C156.15 704.808 153.718 705.384 150.998 705.384ZM150.998 699.24C152.246 699.24 153.366 698.952 154.358 698.376C155.35 697.8 156.134 696.984 156.71 695.928C157.286 694.84 157.574 693.56 157.574 692.088C157.574 690.584 157.286 689.304 156.71 688.248C156.134 687.192 155.35 686.376 154.358 685.8C153.366 685.224 152.246 684.936 150.998 684.936C149.75 684.936 148.63 685.224 147.638 685.8C146.646 686.376 145.846 687.192 145.238 688.248C144.662 689.304 144.374 690.584 144.374 692.088C144.374 693.56 144.662 694.84 145.238 695.928C145.846 696.984 146.646 697.8 147.638 698.376C148.63 698.952 149.75 699.24 150.998 699.24ZM171.748 679.176H192.436V685.32H179.188V705H171.748V679.176ZM208.862 705.384C206.11 705.384 203.662 704.808 201.518 703.656C199.406 702.504 197.726 700.936 196.478 698.952C195.262 696.936 194.654 694.648 194.654 692.088C194.654 689.496 195.262 687.208 196.478 685.224C197.726 683.208 199.406 681.64 201.518 680.52C203.662 679.368 206.11 678.792 208.862 678.792C211.582 678.792 214.014 679.368 216.158 680.52C218.302 681.64 219.982 683.192 221.198 685.176C222.414 687.16 223.022 689.464 223.022 692.088C223.022 694.648 222.414 696.936 221.198 698.952C219.982 700.936 218.302 702.504 216.158 703.656C214.014 704.808 211.582 705.384 208.862 705.384ZM208.862 699.24C210.11 699.24 211.23 698.952 212.222 698.376C213.214 697.8 213.998 696.984 214.574 695.928C215.15 694.84 215.438 693.56 215.438 692.088C215.438 690.584 215.15 689.304 214.574 688.248C213.998 687.192 213.214 686.376 212.222 685.8C211.23 685.224 210.11 684.936 208.862 684.936C207.614 684.936 206.494 685.224 205.502 685.8C204.51 686.376 203.71 687.192 203.102 688.248C202.526 689.304 202.238 690.584 202.238 692.088C202.238 693.56 202.526 694.84 203.102 695.928C203.71 696.984 204.51 697.8 205.502 698.376C206.494 698.952 207.614 699.24 208.862 699.24ZM244.828 705.384C242.652 705.384 240.749 704.904 239.117 703.944C238.351 703.494 237.663 702.934 237.052 702.266V714.312H229.564V679.176H236.716V682.158C237.362 681.379 238.114 680.737 238.973 680.232C240.604 679.272 242.557 678.792 244.828 678.792C247.26 678.792 249.436 679.352 251.356 680.472C253.309 681.56 254.844 683.096 255.964 685.08C257.116 687.064 257.693 689.4 257.693 692.088C257.693 694.808 257.116 697.16 255.964 699.144C254.844 701.128 253.309 702.664 251.356 703.752C249.436 704.84 247.26 705.384 244.828 705.384ZM243.533 699.24C244.781 699.24 245.884 698.952 246.844 698.376C247.837 697.8 248.62 696.984 249.197 695.928C249.805 694.84 250.109 693.56 250.109 692.088C250.109 690.584 249.805 689.304 249.197 688.248C248.62 687.192 247.837 686.376 246.844 685.8C245.884 685.224 244.781 684.936 243.533 684.936C242.285 684.936 241.164 685.224 240.173 685.8C239.18 686.376 238.396 687.192 237.82 688.248C237.244 689.304 236.956 690.584 236.956 692.088C236.956 693.56 237.244 694.84 237.82 695.928C238.396 696.984 239.18 697.8 240.173 698.376C241.164 698.952 242.285 699.24 243.533 699.24ZM276.477 705.384C273.725 705.384 271.277 704.808 269.133 703.656C267.021 702.504 265.341 700.936 264.093 698.952C262.877 696.936 262.269 694.648 262.269 692.088C262.269 689.496 262.877 687.208 264.093 685.224C265.341 683.208 267.021 681.64 269.133 680.52C271.277 679.368 273.725 678.792 276.477 678.792C279.197 678.792 281.629 679.368 283.773 680.52C285.917 681.64 287.597 683.192 288.813 685.176C290.029 687.16 290.637 689.464 290.637 692.088C290.637 694.648 290.029 696.936 288.813 698.952C287.597 700.936 285.917 702.504 283.773 703.656C281.629 704.808 279.197 705.384 276.477 705.384ZM276.477 699.24C277.725 699.24 278.845 698.952 279.837 698.376C280.829 697.8 281.613 696.984 282.189 695.928C282.765 694.84 283.053 693.56 283.053 692.088C283.053 690.584 282.765 689.304 282.189 688.248C281.613 687.192 280.829 686.376 279.837 685.8C278.845 685.224 277.725 684.936 276.477 684.936C275.229 684.936 274.109 685.224 273.117 685.8C272.125 686.376 271.325 687.192 270.717 688.248C270.141 689.304 269.853 690.584 269.853 692.088C269.853 693.56 270.141 694.84 270.717 695.928C271.325 696.984 272.125 697.8 273.117 698.376C274.109 698.952 275.229 699.24 276.477 699.24ZM325.796 698.856H322.1V679.176H299.588L299.252 688.104C299.188 689.544 299.076 690.92 298.916 692.232C298.756 693.512 298.516 694.664 298.196 695.688C297.876 696.68 297.428 697.464 296.852 698.04C296.276 698.584 295.524 698.856 294.596 698.856H293.732V710.568H300.692V705H318.836V710.568H325.796V698.856ZM306.164 685.32H314.612V698.856H303.765C303.866 698.75 303.962 698.638 304.052 698.52C304.564 697.816 304.948 696.968 305.204 695.976C305.492 694.952 305.684 693.816 305.78 692.568C305.876 691.32 305.956 690.008 306.02 688.632L306.164 685.32ZM347.404 705V701.791C346.84 702.739 346.072 703.505 345.1 704.088C343.66 704.952 341.804 705.384 339.532 705.384C337.516 705.384 335.788 705.048 334.348 704.376C332.908 703.672 331.804 702.728 331.036 701.544C330.268 700.36 329.884 699.032 329.884 697.56C329.884 696.024 330.252 694.68 330.988 693.528C331.756 692.376 332.956 691.48 334.588 690.84C336.22 690.168 338.348 689.832 340.972 689.832H346.924C346.924 688.232 346.428 686.984 345.436 686.088C344.476 685.192 342.988 684.744 340.972 684.744C339.596 684.744 338.236 684.968 336.892 685.416C335.58 685.832 334.46 686.408 333.532 687.144L330.844 681.912C332.252 680.92 333.948 680.152 335.932 679.608C337.916 679.064 339.932 678.792 341.98 678.792C345.916 678.792 348.972 679.72 351.148 681.576C353.324 683.432 354.412 686.328 354.412 690.264V705H347.404ZM346.924 694.2V696.84C346.476 697.992 345.756 698.872 344.764 699.48C343.772 700.056 342.652 700.344 341.404 700.344C340.092 700.344 339.052 700.072 338.284 699.528C337.548 698.952 337.18 698.184 337.18 697.224C337.18 696.36 337.5 695.64 338.14 695.064C338.812 694.488 340.028 694.2 341.788 694.2H346.924ZM116.544 757.856H112.848V738.176H90.336L90 747.104C89.936 748.544 89.824 749.92 89.664 751.232C89.504 752.512 89.264 753.664 88.944 754.688C88.624 755.68 88.176 756.464 87.6 757.04C87.024 757.584 86.272 757.856 85.344 757.856H84.48V769.568H91.44V764H109.584V769.568H116.544V757.856ZM105.36 744.32V757.856H94.5128C94.614 757.75 94.7097 757.638 94.8 757.52C95.312 756.816 95.696 755.968 95.952 754.976C96.24 753.952 96.432 752.816 96.528 751.568C96.624 750.32 96.704 749.008 96.768 747.632L96.912 744.32H105.36ZM119.432 763.952L119.816 757.808L120.392 757.904H120.92C121.816 757.904 122.52 757.648 123.032 757.136C123.544 756.624 123.928 755.936 124.184 755.072C124.44 754.176 124.616 753.168 124.712 752.048C124.84 750.928 124.936 749.76 125 748.544L125.384 738.176H147.464V764H139.976V744.32H131.813L131.576 748.88C131.48 751.184 131.288 753.296 131 755.216C130.744 757.136 130.312 758.8 129.704 760.208C129.096 761.584 128.28 762.656 127.256 763.424C126.232 764.16 124.92 764.528 123.32 764.528C122.744 764.528 122.136 764.48 121.496 764.384C120.856 764.288 120.168 764.144 119.432 763.952ZM172.377 764V756.608H166.865L161.961 764H153.993L159.876 755.566C159.014 755.227 158.236 754.807 157.545 754.304C155.433 752.768 154.377 750.56 154.377 747.68C154.377 744.608 155.481 742.256 157.689 740.624C159.929 738.992 162.937 738.176 166.713 738.176H179.049V764H172.377ZM172.377 744.272V751.616H166.761C163.593 751.616 162.009 750.384 162.009 747.92C162.009 746.64 162.425 745.712 163.257 745.136C164.121 744.56 165.321 744.272 166.857 744.272H172.377ZM202.719 764V738.176H215.919C219.151 738.176 221.679 738.768 223.503 739.952C225.327 741.104 226.239 742.736 226.239 744.848C226.239 746.96 225.375 748.624 223.647 749.84C223.281 750.096 222.889 750.323 222.471 750.524C223.323 750.799 224.051 751.163 224.655 751.616C226.223 752.768 227.007 754.448 227.007 756.656C227.007 758.928 226.143 760.72 224.415 762.032C222.687 763.344 220.047 764 216.495 764H202.719ZM209.583 758.912H215.871C217.247 758.912 218.271 758.688 218.943 758.24C219.647 757.76 219.999 757.04 219.999 756.08C219.999 755.088 219.679 754.368 219.039 753.92C218.399 753.44 217.391 753.2 216.015 753.2H209.583V758.912ZM209.583 748.784H215.247C216.559 748.784 217.535 748.544 218.175 748.064C218.847 747.584 219.183 746.896 219.183 746C219.183 745.072 218.847 744.384 218.175 743.936C217.535 743.488 216.559 743.264 215.247 743.264H209.583V748.784ZM249.475 764V760.791C248.911 761.739 248.143 762.505 247.171 763.088C245.731 763.952 243.875 764.384 241.603 764.384C239.587 764.384 237.859 764.048 236.419 763.376C234.979 762.672 233.875 761.728 233.107 760.544C232.339 759.36 231.955 758.032 231.955 756.56C231.955 755.024 232.323 753.68 233.059 752.528C233.827 751.376 235.027 750.48 236.659 749.84C238.291 749.168 240.419 748.832 243.043 748.832H248.995C248.995 747.232 248.499 745.984 247.507 745.088C246.547 744.192 245.059 743.744 243.043 743.744C241.667 743.744 240.307 743.968 238.963 744.416C237.651 744.832 236.531 745.408 235.603 746.144L232.915 740.912C234.323 739.92 236.019 739.152 238.003 738.608C239.987 738.064 242.003 737.792 244.051 737.792C247.987 737.792 251.043 738.72 253.219 740.576C255.395 742.432 256.483 745.328 256.483 749.264V764H249.475ZM248.995 753.2V755.84C248.547 756.992 247.827 757.872 246.835 758.48C245.843 759.056 244.723 759.344 243.475 759.344C242.163 759.344 241.123 759.072 240.355 758.528C239.619 757.952 239.251 757.184 239.251 756.224C239.251 755.36 239.571 754.64 240.211 754.064C240.883 753.488 242.099 753.2 243.859 753.2H248.995ZM280.411 738.176V757.856H271.867V738.176H264.427V764H303.836V738.176H296.396V757.856H287.9V738.176H280.411ZM325.085 764.384C322.141 764.384 319.549 763.808 317.309 762.656C315.101 761.504 313.389 759.936 312.173 757.952C310.957 755.936 310.349 753.648 310.349 751.088C310.349 748.496 310.941 746.208 312.125 744.224C313.341 742.208 314.989 740.64 317.069 739.52C319.149 738.368 321.501 737.792 324.125 737.792C326.653 737.792 328.925 738.336 330.941 739.424C332.989 740.48 334.605 742.016 335.789 744.032C336.973 746.016 337.565 748.4 337.565 751.184C337.565 751.472 337.549 751.808 337.517 752.192C337.485 752.544 337.453 752.88 337.421 753.2H317.882C318.033 753.887 318.274 754.527 318.605 755.12C319.245 756.176 320.125 756.992 321.245 757.568C322.397 758.112 323.741 758.384 325.277 758.384C326.653 758.384 327.853 758.176 328.877 757.76C329.933 757.344 330.893 756.72 331.757 755.888L335.741 760.208C334.557 761.552 333.069 762.592 331.277 763.328C329.485 764.032 327.421 764.384 325.085 764.384ZM318.509 746.672C318.158 747.312 317.921 748.032 317.796 748.832H330.513C330.392 748.018 330.15 747.282 329.789 746.624C329.245 745.632 328.493 744.864 327.533 744.32C326.573 743.744 325.453 743.456 324.173 743.456C322.893 743.456 321.757 743.744 320.765 744.32C319.805 744.864 319.053 745.648 318.509 746.672ZM344.745 738.176H365.433V744.32H352.185V764H344.745V738.176ZM381.859 764.384C379.107 764.384 376.659 763.808 374.515 762.656C372.403 761.504 370.723 759.936 369.475 757.952C368.259 755.936 367.651 753.648 367.651 751.088C367.651 748.496 368.259 746.208 369.475 744.224C370.723 742.208 372.403 740.64 374.515 739.52C376.659 738.368 379.107 737.792 381.859 737.792C384.579 737.792 387.011 738.368 389.155 739.52C391.299 740.64 392.979 742.192 394.195 744.176C395.411 746.16 396.019 748.464 396.019 751.088C396.019 753.648 395.411 755.936 394.195 757.952C392.979 759.936 391.299 761.504 389.155 762.656C387.011 763.808 384.579 764.384 381.859 764.384ZM381.859 758.24C383.107 758.24 384.227 757.952 385.219 757.376C386.211 756.8 386.995 755.984 387.571 754.928C388.147 753.84 388.435 752.56 388.435 751.088C388.435 749.584 388.147 748.304 387.571 747.248C386.995 746.192 386.211 745.376 385.219 744.8C384.227 744.224 383.107 743.936 381.859 743.936C380.611 743.936 379.491 744.224 378.499 744.8C377.507 745.376 376.707 746.192 376.099 747.248C375.523 748.304 375.235 749.584 375.235 751.088C375.235 752.56 375.523 753.84 376.099 754.928C376.707 755.984 377.507 756.8 378.499 757.376C379.491 757.952 380.611 758.24 381.859 758.24ZM99.888 823.384C97.104 823.384 94.624 822.824 92.448 821.704C90.272 820.552 88.56 818.968 87.312 816.952C86.096 814.936 85.488 812.648 85.488 810.088C85.488 807.496 86.096 805.208 87.312 803.224C88.56 801.208 90.272 799.64 92.448 798.52C94.624 797.368 97.104 796.792 99.888 796.792C102.608 796.792 104.976 797.368 106.992 798.52C109.008 799.64 110.496 801.256 111.456 803.368L105.648 806.488C104.976 805.272 104.128 804.376 103.104 803.8C102.112 803.224 101.024 802.936 99.84 802.936C98.56 802.936 97.408 803.224 96.384 803.8C95.36 804.376 94.544 805.192 93.936 806.248C93.36 807.304 93.072 808.584 93.072 810.088C93.072 811.592 93.36 812.872 93.936 813.928C94.544 814.984 95.36 815.8 96.384 816.376C97.408 816.952 98.56 817.24 99.84 817.24C101.024 817.24 102.112 816.968 103.104 816.424C104.128 815.848 104.976 814.936 105.648 813.688L111.456 816.856C110.496 818.936 109.008 820.552 106.992 821.704C104.976 822.824 102.608 823.384 99.888 823.384ZM122.919 823V803.32H114.183V797.176H139.095V803.32H130.359V823H122.919ZM155.545 823.384C152.793 823.384 150.345 822.808 148.201 821.656C146.089 820.504 144.409 818.936 143.161 816.952C141.945 814.936 141.337 812.648 141.337 810.088C141.337 807.496 141.945 805.208 143.161 803.224C144.409 801.208 146.089 799.64 148.201 798.52C150.345 797.368 152.793 796.792 155.545 796.792C158.265 796.792 160.697 797.368 162.841 798.52C164.985 799.64 166.665 801.192 167.881 803.176C169.097 805.16 169.705 807.464 169.705 810.088C169.705 812.648 169.097 814.936 167.881 816.952C166.665 818.936 164.985 820.504 162.841 821.656C160.697 822.808 158.265 823.384 155.545 823.384ZM155.545 817.24C156.793 817.24 157.913 816.952 158.905 816.376C159.897 815.8 160.681 814.984 161.257 813.928C161.833 812.84 162.121 811.56 162.121 810.088C162.121 808.584 161.833 807.304 161.257 806.248C160.681 805.192 159.897 804.376 158.905 803.8C157.913 803.224 156.793 802.936 155.545 802.936C154.297 802.936 153.177 803.224 152.185 803.8C151.193 804.376 150.393 805.192 149.785 806.248C149.209 807.304 148.921 808.584 148.921 810.088C148.921 811.56 149.209 812.84 149.785 813.928C150.393 814.984 151.193 815.8 152.185 816.376C153.177 816.952 154.297 817.24 155.545 817.24ZM172.656 822.952L173.04 816.808L173.616 816.904H174.144C175.04 816.904 175.744 816.648 176.256 816.136C176.768 815.624 177.152 814.936 177.408 814.072C177.664 813.176 177.84 812.168 177.936 811.048C178.064 809.928 178.16 808.76 178.224 807.544L178.608 797.176H200.688V823H193.2V803.32H185.036L184.8 807.88C184.704 810.184 184.512 812.296 184.224 814.216C183.968 816.136 183.536 817.8 182.928 819.208C182.32 820.584 181.504 821.656 180.48 822.424C179.456 823.16 178.144 823.528 176.544 823.528C175.968 823.528 175.36 823.48 174.72 823.384C174.08 823.288 173.392 823.144 172.656 822.952ZM224.785 823V819.791C224.221 820.739 223.453 821.505 222.481 822.088C221.041 822.952 219.185 823.384 216.913 823.384C214.897 823.384 213.169 823.048 211.729 822.376C210.289 821.672 209.185 820.728 208.417 819.544C207.649 818.36 207.265 817.032 207.265 815.56C207.265 814.024 207.633 812.68 208.369 811.528C209.137 810.376 210.337 809.48 211.969 808.84C213.601 808.168 215.729 807.832 218.353 807.832H224.305C224.305 806.232 223.809 804.984 222.817 804.088C221.857 803.192 220.369 802.744 218.353 802.744C216.977 802.744 215.617 802.968 214.273 803.416C212.961 803.832 211.841 804.408 210.913 805.144L208.225 799.912C209.633 798.92 211.329 798.152 213.313 797.608C215.297 797.064 217.313 796.792 219.361 796.792C223.297 796.792 226.353 797.72 228.529 799.576C230.705 801.432 231.793 804.328 231.793 808.264V823H224.785ZM224.305 812.2V814.84C223.857 815.992 223.137 816.872 222.145 817.48C221.153 818.056 220.033 818.344 218.785 818.344C217.473 818.344 216.433 818.072 215.665 817.528C214.929 816.952 214.561 816.184 214.561 815.224C214.561 814.36 214.881 813.64 215.521 813.064C216.193 812.488 217.409 812.2 219.169 812.2H224.305ZM1529.56 761.272C1531.29 756.728 1532.15 751.8 1532.15 746.488C1532.15 741.24 1531.29 736.408 1529.56 731.992C1527.83 727.512 1525.43 723.64 1522.36 720.376C1519.22 717.048 1515.54 714.456 1511.32 712.6C1507.03 710.744 1502.39 709.816 1497.4 709.816C1492.34 709.816 1487.74 710.744 1483.58 712.6C1479.35 714.456 1475.67 717.048 1472.54 720.376C1469.4 723.64 1466.97 727.512 1465.24 731.992C1463.51 736.408 1462.65 741.272 1462.65 746.584C1462.65 751.832 1463.51 756.696 1465.24 761.176C1466.97 765.656 1469.4 769.56 1472.54 772.888C1475.67 776.216 1479.35 778.808 1483.58 780.664C1487.8 782.456 1492.41 783.352 1497.4 783.352C1502.39 783.352 1507 782.456 1511.22 780.664C1515.45 778.808 1519.13 776.248 1522.26 772.984C1525.4 769.656 1527.83 765.752 1529.56 761.272ZM1517.37 738.328C1518.39 740.824 1518.9 743.576 1518.9 746.584C1518.9 749.592 1518.39 752.376 1517.37 754.936C1516.34 757.496 1514.87 759.736 1512.95 761.656C1511.03 763.512 1508.76 764.984 1506.14 766.072C1503.45 767.096 1500.54 767.608 1497.4 767.608C1494.2 767.608 1491.29 767.096 1488.66 766.072C1486.04 764.984 1483.77 763.48 1481.85 761.56C1479.93 759.64 1478.46 757.432 1477.43 754.936C1476.41 752.376 1475.9 749.592 1475.9 746.584C1475.9 743.576 1476.41 740.792 1477.43 738.232C1478.46 735.672 1479.93 733.464 1481.85 731.608C1483.77 729.688 1486.04 728.216 1488.66 727.192C1491.29 726.104 1494.2 725.56 1497.4 725.56C1500.6 725.56 1503.51 726.104 1506.14 727.192C1508.76 728.216 1511.03 729.688 1512.95 731.608C1514.87 733.528 1516.34 735.768 1517.37 738.328ZM1479.35 669.708V696.107H1531V668.555C1531 661.451 1529.69 656.172 1527.06 652.716C1524.44 649.26 1520.86 647.531 1516.31 647.531C1511.9 647.531 1508.54 649.099 1506.23 652.235C1505.33 653.444 1504.6 654.9 1504.05 656.604C1503.65 655.768 1503.19 654.984 1502.68 654.252C1500.25 650.795 1496.92 649.068 1492.7 649.068C1488.47 649.068 1485.21 650.891 1482.9 654.539C1480.54 658.188 1479.35 663.243 1479.35 669.708ZM1520.82 669.804V682.38H1509.4V669.516C1509.4 666.763 1509.88 664.747 1510.84 663.467C1511.74 662.188 1513.18 661.547 1515.16 661.547C1517.08 661.547 1518.52 662.252 1519.48 663.659C1520.38 665.003 1520.82 667.052 1520.82 669.804ZM1500.57 671.052V682.38H1489.53V671.052C1489.53 668.427 1489.98 666.476 1490.87 665.195C1491.77 663.852 1493.14 663.18 1495 663.18C1496.79 663.18 1498.17 663.852 1499.13 665.195C1500.09 666.476 1500.57 668.427 1500.57 671.052ZM1528.31 611.045C1530.62 606.757 1531.77 601.861 1531.77 596.357C1531.77 590.917 1530.62 586.053 1528.31 581.765C1526.01 577.477 1522.87 574.117 1518.9 571.685C1514.87 569.253 1510.3 568.037 1505.18 568.037C1499.93 568.037 1495.32 569.253 1491.35 571.685C1487.38 574.117 1484.28 577.477 1482.04 581.765C1479.74 586.053 1478.58 590.917 1478.58 596.357C1478.58 601.861 1479.74 606.757 1482.04 611.045C1484.28 615.269 1487.42 618.629 1491.45 621.125C1495.42 623.557 1499.99 624.773 1505.18 624.773C1510.3 624.773 1514.87 623.557 1518.9 621.125C1522.87 618.629 1526.01 615.269 1528.31 611.045ZM1517.75 589.637C1518.9 591.621 1519.48 593.861 1519.48 596.357C1519.48 598.853 1518.9 601.093 1517.75 603.077C1516.6 605.061 1514.97 606.661 1512.86 607.877C1510.68 609.029 1508.12 609.605 1505.18 609.605C1502.17 609.605 1499.61 609.029 1497.5 607.877C1495.38 606.661 1493.75 605.061 1492.6 603.077C1491.45 601.093 1490.87 598.853 1490.87 596.357C1490.87 593.861 1491.45 591.621 1492.6 589.637C1493.75 587.653 1495.38 586.085 1497.5 584.933C1499.61 583.781 1502.17 583.205 1505.18 583.205C1508.12 583.205 1510.68 583.781 1512.86 584.933C1514.97 586.085 1516.6 587.653 1517.75 589.637ZM1518.71 522.888H1479.35V507.912H1518.71V491.304V490.92H1479.35V476.04L1518.71 476.04V468.84H1541.27V482.76H1531V491.304V554.856H1479.35V539.976H1518.71V522.888ZM1479.35 458.789H1531V444.965L1500.28 419.909H1531V405.029H1479.35V418.757L1510.07 443.909H1479.35V458.789ZM1664.67 530.755H1671.98V545.059H1664.62C1664.23 551.472 1663.13 557.072 1661.32 561.859C1659.02 567.875 1655.69 572.451 1651.34 575.587C1646.92 578.723 1641.54 580.291 1635.21 580.291C1628.87 580.291 1623.53 578.723 1619.18 575.587C1614.76 572.451 1611.4 567.875 1609.1 561.859C1607.28 557.072 1606.18 551.472 1605.8 545.059H1598.92V530.755H1605.78C1606.14 524.26 1607.25 518.628 1609.1 513.859C1611.4 507.843 1614.76 503.299 1619.18 500.227C1623.59 497.155 1628.94 495.619 1635.21 495.619C1641.42 495.619 1646.76 497.155 1651.24 500.227C1655.66 503.235 1659.02 507.683 1661.32 513.571C1663.23 518.398 1664.35 524.126 1664.67 530.755ZM1618.03 545.059C1618.32 548.189 1618.83 550.941 1619.56 553.315C1620.78 557.283 1622.7 560.259 1625.32 562.243C1627.88 564.227 1631.18 565.219 1635.21 565.219C1639.24 565.219 1642.57 564.163 1645.19 562.051C1647.75 559.939 1649.67 556.899 1650.95 552.931C1651.66 550.597 1652.16 547.973 1652.45 545.059H1618.03ZM1617.99 530.755H1652.52C1652.22 527.495 1651.67 524.647 1650.86 522.211C1649.51 518.307 1647.56 515.395 1645 513.475C1642.38 511.555 1639.08 510.595 1635.11 510.595C1631.14 510.595 1627.88 511.587 1625.32 513.571C1622.76 515.555 1620.87 518.467 1619.66 522.307C1618.84 524.718 1618.28 527.534 1617.99 530.755ZM1666.89 463.248C1668.81 459.984 1669.77 456.176 1669.77 451.824C1669.77 446.96 1668.68 442.608 1666.5 438.768C1664.33 434.864 1661.26 431.792 1657.29 429.552C1653.32 427.248 1648.62 426.096 1643.18 426.096C1637.8 426.096 1633.13 427.248 1629.16 429.552C1625.19 431.792 1622.12 434.864 1619.94 438.768C1617.7 442.608 1616.58 446.96 1616.58 451.824C1616.58 456.368 1617.54 460.272 1619.46 463.536C1620.47 465.253 1621.76 466.757 1623.32 468.048H1617.35V482.352H1687.62V467.376H1663.53C1664.87 466.155 1665.99 464.779 1666.89 463.248ZM1655.75 447.792C1656.9 449.712 1657.48 451.92 1657.48 454.416C1657.48 456.912 1656.9 459.152 1655.75 461.136C1654.6 463.12 1652.97 464.688 1650.86 465.84C1648.68 466.992 1646.12 467.568 1643.18 467.568C1640.17 467.568 1637.61 466.992 1635.5 465.84C1633.38 464.688 1631.75 463.12 1630.6 461.136C1629.45 459.152 1628.87 456.912 1628.87 454.416C1628.87 451.92 1629.45 449.712 1630.6 447.792C1631.75 445.808 1633.38 444.24 1635.5 443.088C1637.61 441.872 1640.17 441.264 1643.18 441.264C1646.12 441.264 1648.68 441.872 1650.86 443.088C1652.97 444.24 1654.6 445.808 1655.75 447.792ZM1687.14 415.086C1687.98 412.462 1688.39 409.806 1688.39 407.118C1688.39 403.982 1687.91 401.134 1686.95 398.574C1685.99 395.95 1684.33 393.582 1681.96 391.47C1679.59 389.294 1676.33 387.374 1672.17 385.71L1617.35 362.382V376.782L1652.43 391.372L1617.35 405.87V421.326L1669.43 398.967L1669.86 399.15C1672.17 400.174 1673.8 401.326 1674.76 402.606C1675.78 403.822 1676.3 405.486 1676.3 407.598C1676.3 409.07 1676.01 410.574 1675.43 412.11C1674.86 413.582 1674.06 414.894 1673.03 416.046L1683.69 421.518C1685.16 419.854 1686.31 417.71 1687.14 415.086ZM1649.42 329.526L1669 315.702V298.038L1642.13 317.332L1617.35 299.285V315.221L1637.42 329.215V337.302H1617.35V352.277H1669V337.301H1649.42V329.526ZM1629.64 277.232H1669V262.352H1629.64V244.88H1617.35V294.704H1629.64V277.232ZM1617.35 180.834L1669 180.834V165.954H1617.35V180.834ZM1638.47 191.586C1635.46 194.978 1633.93 200.066 1633.86 206.85V219.138H1617.35V234.018H1669L1669.1 208.866C1669.1 201.698 1667.53 196.162 1664.39 192.258C1661.19 188.354 1656.74 186.402 1651.05 186.402C1645.61 186.402 1641.42 188.13 1638.47 191.586ZM1656.62 203.586C1657.9 205.122 1658.5 207.33 1658.44 210.21V219.138H1643.46L1643.56 210.21C1643.62 207.33 1644.23 205.122 1645.38 203.586C1646.47 202.05 1648.3 201.282 1650.86 201.282C1653.42 201.282 1655.34 202.05 1656.62 203.586ZM1789.14 439.669H1807V424.309H1739.8V453.301C1739.8 459.189 1740.79 464.309 1742.78 468.661C1744.76 473.013 1747.64 476.405 1751.42 478.837C1755.13 481.205 1759.61 482.389 1764.86 482.389C1769.91 482.389 1774.26 481.269 1777.91 479.029C1781.56 476.789 1784.34 473.557 1786.26 469.333C1786.44 468.951 1786.6 468.562 1786.76 468.167L1807 482.197V465.781L1789.14 453.901V439.669ZM1776.86 439.669H1752.47V452.917C1752.47 457.333 1753.5 460.725 1755.54 463.093C1757.59 465.397 1760.63 466.549 1764.66 466.549C1768.57 466.549 1771.58 465.429 1773.69 463.189C1775.8 460.949 1776.86 457.653 1776.86 453.301V439.669ZM1755.35 405.745H1807V390.865H1767.64V364.369H1755.35V405.745ZM1804.31 346.205C1806.62 341.917 1807.77 337.021 1807.77 331.517C1807.77 326.077 1806.62 321.213 1804.31 316.925C1802.01 312.637 1798.87 309.277 1794.9 306.845C1790.87 304.413 1786.3 303.197 1781.18 303.197C1775.93 303.197 1771.32 304.413 1767.35 306.845C1763.38 309.277 1760.28 312.637 1758.04 316.925C1755.74 321.213 1754.58 326.077 1754.58 331.517C1754.58 337.021 1755.74 341.917 1758.04 346.205C1760.28 350.429 1763.42 353.789 1767.45 356.285C1771.42 358.717 1775.99 359.933 1781.18 359.933C1786.3 359.933 1790.87 358.717 1794.9 356.285C1798.87 353.789 1802.01 350.429 1804.31 346.205ZM1793.75 324.797C1794.9 326.781 1795.48 329.021 1795.48 331.517C1795.48 334.013 1794.9 336.253 1793.75 338.237C1792.6 340.221 1790.97 341.821 1788.86 343.037C1786.68 344.189 1784.12 344.765 1781.18 344.765C1778.17 344.765 1775.61 344.189 1773.5 343.037C1771.38 341.821 1769.75 340.221 1768.6 338.237C1767.45 336.253 1766.87 334.013 1766.87 331.517C1766.87 329.021 1767.45 326.781 1768.6 324.797C1769.75 322.813 1771.38 321.245 1773.5 320.093C1775.61 318.941 1778.17 318.365 1781.18 318.365C1784.12 318.365 1786.68 318.941 1788.86 320.093C1790.97 321.245 1792.6 322.813 1793.75 324.797ZM1794.71 240.27V232.878H1818.14V246.798H1807V283.086H1818.14V297.006H1794.71V295.278C1794.71 293.422 1794.17 291.918 1793.08 290.766C1791.93 289.614 1790.36 288.718 1788.38 288.078C1786.33 287.438 1784.02 286.958 1781.46 286.638C1778.84 286.318 1776.09 286.094 1773.21 285.966L1755.35 285.294V240.27H1794.71ZM1794.71 255.246H1767.64V272.142L1774.26 272.43C1777.02 272.558 1779.64 272.718 1782.14 272.91C1784.63 273.102 1786.9 273.486 1788.95 274.062C1790.94 274.574 1792.63 275.342 1794.04 276.366C1794.28 276.547 1794.5 276.738 1794.71 276.941V255.246ZM1755.35 167.39H1807V152.51H1755.35V167.39ZM1776.47 178.142C1773.46 181.534 1771.93 186.622 1771.86 193.406V205.694H1755.35V220.574H1807L1807.1 195.422C1807.1 188.254 1805.53 182.718 1802.39 178.814C1799.19 174.91 1794.74 172.958 1789.05 172.958C1783.61 172.958 1779.42 174.686 1776.47 178.142ZM1794.62 190.142C1795.9 191.678 1796.5 193.886 1796.44 196.766V205.694H1781.46L1781.56 196.766C1781.62 193.886 1782.23 191.678 1783.38 190.142C1784.47 188.606 1786.3 187.838 1788.86 187.838C1791.42 187.838 1793.34 188.606 1794.62 190.142Z" fill="#F6F6F6"/>
<path d="M-47.4771 779.817C-47.4771 761.861 -51.6074 744.145 -59.5487 728.04L-73.6025 699.539C-121.848 601.696 -11.2686 502.098 81.0133 560.279V560.279C114.053 581.109 155.759 582.498 190.112 563.912L218.918 548.327C265.227 523.272 322.843 535.1 355.537 576.373V576.373C364.748 588.001 376.246 597.615 389.321 604.622L396.32 608.373C436.472 629.891 464.355 668.836 471.786 713.78L475.425 735.782C490.755 828.497 570.927 896.5 664.9 896.5H1106.5H1346.16C1369.73 896.5 1391.35 883.413 1402.27 862.532L1405.76 855.879C1419.15 830.282 1450.01 819.331 1476.54 830.758V830.758C1490.26 836.666 1505.78 836.766 1519.58 831.035L1534.58 824.799C1556.69 815.617 1581.46 815.244 1603.83 823.758L1614.34 827.759C1634.95 835.605 1657.82 835.052 1678.03 826.22L1683.68 823.75C1702.9 815.35 1724.85 815.88 1743.64 825.197V825.197C1762.56 834.575 1784.66 835.047 1803.96 826.487L1810.67 823.51C1829.24 815.272 1850.52 815.762 1868.7 824.848V824.848C1887.78 834.391 1910.24 834.429 1929.35 824.95L1947.33 816.039C1954.48 812.493 1959.93 806.248 1962.47 798.681V798.681C1972.45 768.973 2015.54 772.453 2020.63 803.377L2042.05 933.66V933.66C2044.9 949.817 2032.48 964.634 2016.07 964.634H1863.49C1841.1 964.634 1818.97 969.507 1798.65 978.915L1735.54 1008.13C1662.09 1042.13 1581.11 1056.6 1500.43 1050.12L1106.5 1018.5L542.5 1008L165.456 1017.08C126.912 1018.01 88.8693 1008.2 55.5777 988.756V988.756C-8.24249 951.478 -47.4771 883.124 -47.4771 809.214V779.817Z" fill="#F6F6F6" fill-opacity="0.22"/>
<path d="M0 1098C-45.4447 1098 -83.2479 1063.05 -86.8102 1017.75L-94.5389 919.454C-97.3417 883.809 -66.4189 854.734 -31.0139 859.724V859.724C-16.8765 861.717 -4.0377 869.044 4.86896 880.203L24.9567 905.369C51.9042 939.128 96.5749 953.267 138.04 941.16V941.16C163.433 933.745 190.678 936.047 214.468 947.617L219.792 950.207C258.91 969.232 305.202 965.959 341.254 941.619L359 929.638L370.388 922.76C416.688 894.798 475.532 898.77 517.654 932.7V932.7C540.528 951.126 569.016 961.172 598.387 961.172H884.5H1466.5H1865.06C1881.97 961.172 1898.18 967.97 1910.03 980.037V980.037C1938.26 1008.78 1932.66 1056.25 1898.52 1077.64L1884.57 1086.37C1872.43 1093.97 1858.41 1098 1844.09 1098H0V1098Z" fill="#F6F6F6"/>
</g>
<defs>
<clipPath id="clip0_109_3">
<rect width="1866" height="1098" fill="white"/>
</clipPath>
</defs>
</svg>
