<svg width="1866" height="1039" viewBox="0 0 1866 1039" fill="none" xmlns="http://www.w3.org/2000/svg">
<g clip-path="url(#clip0_115_7)">
<path fill-rule="evenodd" clip-rule="evenodd" d="M0 395.141V-10.8725L1866 -1.71835V504.854C1862.78 505.669 1859.43 506.098 1856 506.098H1820.11C1809.01 506.098 1799.18 513.243 1795.75 523.798C1792.32 534.352 1782.49 541.498 1771.39 541.498H1760.19C1749.02 541.498 1739.09 534.378 1735.5 523.798C1731.91 513.217 1721.98 506.098 1710.81 506.098H1688.36C1677.03 506.098 1666.9 513.165 1663 523.798C1659.1 534.43 1648.97 541.498 1637.64 541.498H1632.19C1621.02 541.498 1611.09 534.378 1607.5 523.798C1603.91 513.217 1593.98 506.098 1582.81 506.098H1557.36C1546.03 506.098 1535.9 513.165 1532 523.798C1528.1 534.43 1517.97 541.498 1506.64 541.498H1500.63C1489.17 541.498 1478.95 534.269 1475.13 523.458C1471.43 512.983 1461.7 505.835 1450.6 505.436L1436.3 504.922C1409.64 503.963 1387.5 525.319 1387.5 552V624.5V627.181C1387.5 689.037 1337.36 739.181 1275.5 739.181H1171H1043H844.5H707H652.955C583.392 739.181 527 682.789 527 613.226V607.617C527 552.236 488.766 504.188 434.8 491.749C407.482 485.453 383.267 469.707 366.431 447.29L364.189 444.306C329.238 397.771 267.478 380.367 213.372 401.805L191.964 410.288C162.026 422.15 129.195 424.66 97.8011 417.487L0 395.141ZM789.76 465.16C791.04 465.747 792.027 466.6 792.72 467.72H811.44C810.587 461.587 807.813 456.733 803.12 453.16C798.48 449.587 792.453 447.8 785.04 447.8C779.227 447.8 774.16 449.027 769.84 451.48C765.52 453.88 762.187 457.267 759.84 461.64C757.547 466.013 756.4 471 756.4 476.6C756.4 482.2 757.547 487.187 759.84 491.56C762.187 495.933 765.52 499.347 769.84 501.8C774.213 504.2 779.333 505.4 785.2 505.4C791.813 505.4 797.28 503.907 801.6 500.92C805.92 497.88 809.307 494.253 811.76 490.04V472.28H782.88V484.84H797.04C794.533 488.147 791.227 489.8 787.12 489.8C782.8 489.8 779.6 488.707 777.52 486.52C775.44 484.333 774.4 481.027 774.4 476.6C774.4 472.76 775.333 469.747 777.2 467.56C779.067 465.32 781.707 464.2 785.12 464.2C786.933 464.2 788.48 464.52 789.76 465.16ZM846.396 505L849.196 496.44H868.076L870.876 505H889.596L868.956 448.36H848.476L827.756 505H846.396ZM858.636 467.32L863.756 483.08H853.516L858.636 467.32ZM925.071 484.68L935.711 505H955.231L942.911 483.32C946.858 482.04 949.871 479.933 951.951 477C954.085 474.067 955.151 470.707 955.151 466.92C955.151 463.4 954.325 460.253 952.671 457.48C951.071 454.653 948.645 452.44 945.391 450.84C942.138 449.187 938.218 448.36 933.631 448.36H907.231V505H924.991V484.68H925.071ZM932.031 472.84H924.991V463.24H932.031C933.685 463.24 934.938 463.667 935.791 464.52C936.698 465.373 937.151 466.547 937.151 468.04C937.151 469.693 936.725 470.92 935.871 471.72C935.018 472.467 933.738 472.84 932.031 472.84ZM1013.54 451.96C1009.12 449.56 1003.95 448.36 998.025 448.36H974.425V505H998.025C1003.95 505 1009.12 503.773 1013.54 501.32C1018.03 498.813 1021.47 495.4 1023.86 491.08C1026.27 486.76 1027.46 481.907 1027.46 476.52C1027.46 471.08 1026.27 466.227 1023.86 461.96C1021.47 457.693 1018.03 454.36 1013.54 451.96ZM1005.95 485.88C1003.6 488.067 1000.42 489.16 996.425 489.16H992.185V463.88H996.425C1000.42 463.88 1003.6 464.973 1005.95 467.16C1008.29 469.347 1009.47 472.467 1009.47 476.52C1009.47 480.573 1008.29 483.693 1005.95 485.88ZM1065.24 469.48V462.52H1085.24V448.36H1047.48V505H1085.24V490.84H1065.24V482.84H1082.84V469.48H1065.24ZM1142.09 505H1159.85V448.36H1142.09V477.32L1123.29 448.36H1105.53V505H1123.29V476.52L1142.09 505ZM729.469 403.378C729.234 407.174 731.382 410.539 734.589 412.065C735.878 412.782 737.365 413.192 738.957 413.192H745.832C747.633 413.192 749.301 412.667 750.699 411.766C753.573 410.134 755.45 406.97 755.248 403.421L753.901 379.776C755.245 379.911 756.608 379.98 757.987 379.98C780.432 379.98 798.628 361.662 798.628 339.065C798.628 321.603 787.762 306.696 772.467 300.822C773.053 298.471 773.365 296.012 773.365 293.481C773.365 276.647 759.595 263 742.609 263C725.624 263 711.854 276.647 711.854 293.481C711.854 294.163 711.877 294.841 711.921 295.512C693.385 301.597 680 319.042 680 339.614C680 365.244 700.777 386.021 726.408 386.021C727.804 386.021 729.186 385.96 730.551 385.839L729.469 403.378ZM1163.57 386.021C1164.97 386.021 1166.35 385.96 1167.72 385.839L1166.63 403.378C1166.31 408.557 1170.43 412.932 1175.62 412.932H1183.43C1188.6 412.932 1192.71 408.584 1192.41 403.421L1190.92 377.116C1191.83 376.445 1192.73 375.742 1193.59 375.008C1194.11 375.027 1194.63 375.037 1195.15 375.037C1217.6 375.037 1235.79 356.719 1235.79 334.122C1235.79 314.422 1221.96 297.973 1203.55 294.08C1201.18 279.572 1188.49 268.492 1173.18 268.492C1156.43 268.492 1142.8 281.77 1142.44 298.288C1127.43 305.977 1117.17 321.596 1117.17 339.614C1117.17 365.244 1137.94 386.021 1163.57 386.021ZM900.88 285.257C901.131 280.477 905.081 276.73 909.867 276.73H930.101C934.902 276.73 938.857 280.498 939.09 285.293L941.718 339.386H942.757C947.175 339.386 950.757 342.968 950.757 347.386V347.862C950.757 352.281 947.175 355.862 942.757 355.862H942.519L944.806 402.947C945.056 408.083 940.959 412.383 935.817 412.383H903.675C898.519 412.383 894.417 408.06 894.688 402.91L897.164 355.862H881.368L883.655 402.947C883.905 408.083 879.808 412.383 874.666 412.383H842.524C837.368 412.383 833.266 408.06 833.537 402.91L836.013 355.862H830.793C826.374 355.862 822.793 352.281 822.793 347.862V347.386C822.793 342.968 826.374 339.386 830.793 339.386H836.88L839.729 285.257C839.98 280.477 843.93 276.73 848.716 276.73H868.95C873.751 276.73 877.707 280.498 877.939 285.293L880.567 339.386H898.031L900.88 285.257ZM1047.57 276.73C1042.79 276.73 1038.84 280.477 1038.58 285.257L1036.69 321.216H1018.43L1016.68 285.293C1016.45 280.498 1012.49 276.73 1007.69 276.73H987.46C982.673 276.73 978.724 280.477 978.472 285.257L976.58 321.216H971.389C966.971 321.216 963.389 324.797 963.389 329.216V329.692C963.389 334.11 966.971 337.692 971.389 337.692H975.713L972.28 402.91C972.009 408.06 976.111 412.383 981.268 412.383H1013.41C1018.55 412.383 1022.65 408.083 1022.4 402.946L1019.23 337.692H1035.83L1032.39 402.91C1032.12 408.06 1036.22 412.383 1041.38 412.383H1073.52C1078.66 412.383 1082.76 408.083 1082.51 402.947L1079.34 337.692H1083.35C1087.77 337.692 1091.35 334.11 1091.35 329.692V329.216C1091.35 324.797 1087.77 321.216 1083.35 321.216H1078.54L1076.8 285.293C1076.56 280.498 1072.61 276.73 1067.81 276.73H1047.57ZM89.064 628.576C86.472 628.576 84.056 628.16 81.816 627.328C79.608 626.464 77.688 625.248 76.056 623.68C74.424 622.112 73.144 620.272 72.216 618.16C71.32 616.048 70.872 613.728 70.872 611.2C70.872 608.672 71.32 606.352 72.216 604.24C73.144 602.128 74.424 600.288 76.056 598.72C77.72 597.152 79.656 595.952 81.864 595.12C84.072 594.256 86.488 593.824 89.112 593.824C92.024 593.824 94.648 594.336 96.984 595.36C99.352 596.352 101.336 597.824 102.936 599.776L97.944 604.384C96.792 603.072 95.512 602.096 94.104 601.456C92.696 600.784 91.16 600.448 89.496 600.448C87.928 600.448 86.488 600.704 85.176 601.216C83.864 601.728 82.728 602.464 81.768 603.424C80.808 604.384 80.056 605.52 79.512 606.832C79 608.144 78.744 609.6 78.744 611.2C78.744 612.8 79 614.256 79.512 615.568C80.056 616.88 80.808 618.016 81.768 618.976C82.728 619.936 83.864 620.672 85.176 621.184C86.488 621.696 87.928 621.952 89.496 621.952C91.16 621.952 92.696 621.632 94.104 620.992C95.512 620.32 96.792 619.312 97.944 617.968L102.936 622.576C101.336 624.528 99.352 626.016 96.984 627.04C94.648 628.064 92.008 628.576 89.064 628.576ZM135.998 628.384C133.246 628.384 130.798 627.808 128.654 626.656C126.542 625.504 124.862 623.936 123.614 621.952C122.398 619.936 121.79 617.648 121.79 615.088C121.79 612.496 122.398 610.208 123.614 608.224C124.862 606.208 126.542 604.64 128.654 603.52C130.798 602.368 133.246 601.792 135.998 601.792C138.718 601.792 141.15 602.368 143.294 603.52C145.438 604.64 147.118 606.192 148.334 608.176C149.55 610.16 150.158 612.464 150.158 615.088C150.158 617.648 149.55 619.936 148.334 621.952C147.118 623.936 145.438 625.504 143.294 626.656C141.15 627.808 138.718 628.384 135.998 628.384ZM135.998 622.24C137.246 622.24 138.366 621.952 139.358 621.376C140.35 620.8 141.134 619.984 141.71 618.928C142.286 617.84 142.574 616.56 142.574 615.088C142.574 613.584 142.286 612.304 141.71 611.248C141.134 610.192 140.35 609.376 139.358 608.8C138.366 608.224 137.246 607.936 135.998 607.936C134.75 607.936 133.63 608.224 132.638 608.8C131.646 609.376 130.846 610.192 130.238 611.248C129.662 612.304 129.374 613.584 129.374 615.088C129.374 616.56 129.662 617.84 130.238 618.928C130.846 619.984 131.646 620.8 132.638 621.376C133.63 621.952 134.75 622.24 135.998 622.24ZM156.748 628V602.176H177.436V608.32H164.188V628H156.748ZM193.862 628.384C191.11 628.384 188.662 627.808 186.518 626.656C184.406 625.504 182.726 623.936 181.478 621.952C180.262 619.936 179.654 617.648 179.654 615.088C179.654 612.496 180.262 610.208 181.478 608.224C182.726 606.208 184.406 604.64 186.518 603.52C188.662 602.368 191.11 601.792 193.862 601.792C196.582 601.792 199.014 602.368 201.158 603.52C203.302 604.64 204.982 606.192 206.198 608.176C207.414 610.16 208.022 612.464 208.022 615.088C208.022 617.648 207.414 619.936 206.198 621.952C204.982 623.936 203.302 625.504 201.158 626.656C199.014 627.808 196.582 628.384 193.862 628.384ZM193.862 622.24C195.11 622.24 196.23 621.952 197.222 621.376C198.214 620.8 198.998 619.984 199.574 618.928C200.15 617.84 200.438 616.56 200.438 615.088C200.438 613.584 200.15 612.304 199.574 611.248C198.998 610.192 198.214 609.376 197.222 608.8C196.23 608.224 195.11 607.936 193.862 607.936C192.614 607.936 191.494 608.224 190.502 608.8C189.51 609.376 188.71 610.192 188.102 611.248C187.526 612.304 187.238 613.584 187.238 615.088C187.238 616.56 187.526 617.84 188.102 618.928C188.71 619.984 189.51 620.8 190.502 621.376C191.494 621.952 192.614 622.24 193.862 622.24ZM229.828 628.384C227.652 628.384 225.749 627.904 224.117 626.944C223.351 626.494 222.663 625.934 222.052 625.266V637.312H214.564V602.176H221.716V605.158C222.362 604.379 223.114 603.737 223.973 603.232C225.604 602.272 227.557 601.792 229.828 601.792C232.26 601.792 234.436 602.352 236.356 603.472C238.309 604.56 239.844 606.096 240.964 608.08C242.117 610.064 242.693 612.4 242.693 615.088C242.693 617.808 242.117 620.16 240.964 622.144C239.844 624.128 238.309 625.664 236.356 626.752C234.436 627.84 232.26 628.384 229.828 628.384ZM228.533 622.24C229.781 622.24 230.884 621.952 231.844 621.376C232.837 620.8 233.62 619.984 234.197 618.928C234.805 617.84 235.109 616.56 235.109 615.088C235.109 613.584 234.805 612.304 234.197 611.248C233.62 610.192 232.837 609.376 231.844 608.8C230.884 608.224 229.781 607.936 228.533 607.936C227.285 607.936 226.164 608.224 225.173 608.8C224.18 609.376 223.396 610.192 222.82 611.248C222.244 612.304 221.956 613.584 221.956 615.088C221.956 616.56 222.244 617.84 222.82 618.928C223.396 619.984 224.18 620.8 225.173 621.376C226.164 621.952 227.285 622.24 228.533 622.24ZM261.477 628.384C258.725 628.384 256.277 627.808 254.133 626.656C252.021 625.504 250.341 623.936 249.093 621.952C247.877 619.936 247.269 617.648 247.269 615.088C247.269 612.496 247.877 610.208 249.093 608.224C250.341 606.208 252.021 604.64 254.133 603.52C256.277 602.368 258.725 601.792 261.477 601.792C264.197 601.792 266.629 602.368 268.773 603.52C270.917 604.64 272.597 606.192 273.813 608.176C275.029 610.16 275.637 612.464 275.637 615.088C275.637 617.648 275.029 619.936 273.813 621.952C272.597 623.936 270.917 625.504 268.773 626.656C266.629 627.808 264.197 628.384 261.477 628.384ZM261.477 622.24C262.725 622.24 263.845 621.952 264.837 621.376C265.829 620.8 266.613 619.984 267.189 618.928C267.765 617.84 268.053 616.56 268.053 615.088C268.053 613.584 267.765 612.304 267.189 611.248C266.613 610.192 265.829 609.376 264.837 608.8C263.845 608.224 262.725 607.936 261.477 607.936C260.229 607.936 259.109 608.224 258.117 608.8C257.125 609.376 256.325 610.192 255.717 611.248C255.141 612.304 254.853 613.584 254.853 615.088C254.853 616.56 255.141 617.84 255.717 618.928C256.325 619.984 257.125 620.8 258.117 621.376C259.109 621.952 260.229 622.24 261.477 622.24ZM310.796 621.856H307.1V602.176H284.588L284.252 611.104C284.188 612.544 284.076 613.92 283.916 615.232C283.756 616.512 283.516 617.664 283.196 618.688C282.876 619.68 282.428 620.464 281.852 621.04C281.276 621.584 280.524 621.856 279.596 621.856H278.732V633.568H285.692V628H303.836V633.568H310.796V621.856ZM299.612 608.32V621.856H288.765C288.866 621.75 288.962 621.638 289.052 621.52C289.564 620.816 289.948 619.968 290.204 618.976C290.492 617.952 290.684 616.816 290.78 615.568C290.876 614.32 290.956 613.008 291.02 611.632L291.164 608.32H299.612ZM332.404 628V624.791C331.84 625.739 331.072 626.505 330.1 627.088C328.66 627.952 326.804 628.384 324.532 628.384C322.516 628.384 320.788 628.048 319.348 627.376C317.908 626.672 316.804 625.728 316.036 624.544C315.268 623.36 314.884 622.032 314.884 620.56C314.884 619.024 315.252 617.68 315.988 616.528C316.756 615.376 317.956 614.48 319.588 613.84C321.22 613.168 323.348 612.832 325.972 612.832H331.924C331.924 611.232 331.428 609.984 330.436 609.088C329.476 608.192 327.988 607.744 325.972 607.744C324.596 607.744 323.236 607.968 321.892 608.416C320.58 608.832 319.46 609.408 318.532 610.144L315.844 604.912C317.252 603.92 318.948 603.152 320.932 602.608C322.916 602.064 324.932 601.792 326.98 601.792C330.916 601.792 333.972 602.72 336.148 604.576C338.324 606.432 339.412 609.328 339.412 613.264V628H332.404ZM331.924 617.2V619.84C331.476 620.992 330.756 621.872 329.764 622.48C328.772 623.056 327.652 623.344 326.404 623.344C325.092 623.344 324.052 623.072 323.284 622.528C322.548 621.952 322.18 621.184 322.18 620.224C322.18 619.36 322.5 618.64 323.14 618.064C323.812 617.488 325.028 617.2 326.788 617.2H331.924ZM101.544 680.856H97.848V661.176H75.336L75 670.104C74.936 671.544 74.824 672.92 74.664 674.232C74.504 675.512 74.264 676.664 73.944 677.688C73.624 678.68 73.176 679.464 72.6 680.04C72.024 680.584 71.272 680.856 70.344 680.856H69.48V692.568H76.44V687H94.584V692.568H101.544V680.856ZM90.36 667.32V680.856H79.5128C79.614 680.75 79.7097 680.638 79.8 680.52C80.312 679.816 80.696 678.968 80.952 677.976C81.24 676.952 81.432 675.816 81.528 674.568C81.624 673.32 81.704 672.008 81.768 670.632L81.912 667.32H90.36ZM104.432 686.952L104.816 680.808L105.392 680.904H105.92C106.816 680.904 107.52 680.648 108.032 680.136C108.544 679.624 108.928 678.936 109.184 678.072C109.44 677.176 109.616 676.168 109.712 675.048C109.84 673.928 109.936 672.76 110 671.544L110.384 661.176H132.464V687H124.976V667.32H116.813L116.576 671.88C116.48 674.184 116.288 676.296 116 678.216C115.744 680.136 115.312 681.8 114.704 683.208C114.096 684.584 113.28 685.656 112.256 686.424C111.232 687.16 109.92 687.528 108.32 687.528C107.744 687.528 107.136 687.48 106.496 687.384C105.856 687.288 105.168 687.144 104.432 686.952ZM157.377 687V679.608H151.865L146.961 687H138.993L144.876 678.566C144.014 678.227 143.236 677.807 142.545 677.304C140.433 675.768 139.377 673.56 139.377 670.68C139.377 667.608 140.481 665.256 142.689 663.624C144.929 661.992 147.937 661.176 151.713 661.176H164.049V687H157.377ZM157.377 667.272V674.616H151.761C148.593 674.616 147.009 673.384 147.009 670.92C147.009 669.64 147.425 668.712 148.257 668.136C149.121 667.56 150.321 667.272 151.857 667.272H157.377ZM187.719 687V661.176H200.919C204.151 661.176 206.679 661.768 208.503 662.952C210.327 664.104 211.239 665.736 211.239 667.848C211.239 669.96 210.375 671.624 208.647 672.84C208.281 673.095 207.889 673.323 207.471 673.524C208.323 673.799 209.051 674.163 209.655 674.616C211.223 675.768 212.007 677.448 212.007 679.656C212.007 681.928 211.143 683.72 209.415 685.032C207.687 686.344 205.047 687 201.495 687H187.719ZM194.583 681.912H200.871C202.247 681.912 203.271 681.688 203.943 681.24C204.647 680.76 204.999 680.04 204.999 679.08C204.999 678.088 204.679 677.368 204.039 676.92C203.399 676.44 202.391 676.2 201.015 676.2H194.583V681.912ZM194.583 671.784H200.247C201.559 671.784 202.535 671.544 203.175 671.064C203.847 670.584 204.183 669.896 204.183 669C204.183 668.072 203.847 667.384 203.175 666.936C202.535 666.488 201.559 666.264 200.247 666.264H194.583V671.784ZM234.475 687V683.791C233.911 684.739 233.143 685.505 232.171 686.088C230.731 686.952 228.875 687.384 226.603 687.384C224.587 687.384 222.859 687.048 221.419 686.376C219.979 685.672 218.875 684.728 218.107 683.544C217.339 682.36 216.955 681.032 216.955 679.56C216.955 678.024 217.323 676.68 218.059 675.528C218.827 674.376 220.027 673.48 221.659 672.84C223.291 672.168 225.419 671.832 228.043 671.832H233.995C233.995 670.232 233.499 668.984 232.507 668.088C231.547 667.192 230.059 666.744 228.043 666.744C226.667 666.744 225.307 666.968 223.963 667.416C222.651 667.832 221.531 668.408 220.603 669.144L217.915 663.912C219.323 662.92 221.019 662.152 223.003 661.608C224.987 661.064 227.003 660.792 229.051 660.792C232.987 660.792 236.043 661.72 238.219 663.576C240.395 665.432 241.483 668.328 241.483 672.264V687H234.475ZM233.995 676.2V678.84C233.547 679.992 232.827 680.872 231.835 681.48C230.843 682.056 229.723 682.344 228.475 682.344C227.163 682.344 226.123 682.072 225.355 681.528C224.619 680.952 224.251 680.184 224.251 679.224C224.251 678.36 224.571 677.64 225.211 677.064C225.883 676.488 227.099 676.2 228.859 676.2H233.995ZM265.411 661.176V680.856H256.867V661.176H249.428V687H288.836V661.176H281.396V680.856H272.9V661.176H265.411ZM310.085 687.384C307.141 687.384 304.549 686.808 302.309 685.656C300.101 684.504 298.389 682.936 297.173 680.952C295.957 678.936 295.349 676.648 295.349 674.088C295.349 671.496 295.941 669.208 297.125 667.224C298.341 665.208 299.989 663.64 302.069 662.52C304.149 661.368 306.501 660.792 309.125 660.792C311.653 660.792 313.925 661.336 315.941 662.424C317.989 663.48 319.605 665.016 320.789 667.032C321.973 669.016 322.565 671.4 322.565 674.184C322.565 674.472 322.549 674.808 322.517 675.192C322.485 675.544 322.453 675.88 322.421 676.2H302.882C303.033 676.887 303.274 677.527 303.605 678.12C304.245 679.176 305.125 679.992 306.245 680.568C307.397 681.112 308.741 681.384 310.277 681.384C311.653 681.384 312.853 681.176 313.877 680.76C314.933 680.344 315.893 679.72 316.757 678.888L320.741 683.208C319.557 684.552 318.069 685.592 316.277 686.328C314.485 687.032 312.421 687.384 310.085 687.384ZM303.509 669.672C303.158 670.312 302.921 671.032 302.796 671.832H315.513C315.392 671.018 315.15 670.282 314.789 669.624C314.245 668.632 313.493 667.864 312.533 667.32C311.573 666.744 310.453 666.456 309.173 666.456C307.893 666.456 306.757 666.744 305.765 667.32C304.805 667.864 304.053 668.648 303.509 669.672ZM329.745 687V661.176H350.433V667.32H337.185V687H329.745ZM366.859 687.384C364.107 687.384 361.659 686.808 359.515 685.656C357.403 684.504 355.723 682.936 354.475 680.952C353.259 678.936 352.651 676.648 352.651 674.088C352.651 671.496 353.259 669.208 354.475 667.224C355.723 665.208 357.403 663.64 359.515 662.52C361.659 661.368 364.107 660.792 366.859 660.792C369.579 660.792 372.011 661.368 374.155 662.52C376.299 663.64 377.979 665.192 379.195 667.176C380.411 669.16 381.019 671.464 381.019 674.088C381.019 676.648 380.411 678.936 379.195 680.952C377.979 682.936 376.299 684.504 374.155 685.656C372.011 686.808 369.579 687.384 366.859 687.384ZM366.859 681.24C368.107 681.24 369.227 680.952 370.219 680.376C371.211 679.8 371.995 678.984 372.571 677.928C373.147 676.84 373.435 675.56 373.435 674.088C373.435 672.584 373.147 671.304 372.571 670.248C371.995 669.192 371.211 668.376 370.219 667.8C369.227 667.224 368.107 666.936 366.859 666.936C365.611 666.936 364.491 667.224 363.499 667.8C362.507 668.376 361.707 669.192 361.099 670.248C360.523 671.304 360.235 672.584 360.235 674.088C360.235 675.56 360.523 676.84 361.099 677.928C361.707 678.984 362.507 679.8 363.499 680.376C364.491 680.952 365.611 681.24 366.859 681.24ZM84.888 746.384C82.104 746.384 79.624 745.824 77.448 744.704C75.272 743.552 73.56 741.968 72.312 739.952C71.096 737.936 70.488 735.648 70.488 733.088C70.488 730.496 71.096 728.208 72.312 726.224C73.56 724.208 75.272 722.64 77.448 721.52C79.624 720.368 82.104 719.792 84.888 719.792C87.608 719.792 89.976 720.368 91.992 721.52C94.008 722.64 95.496 724.256 96.456 726.368L90.648 729.488C89.976 728.272 89.128 727.376 88.104 726.8C87.112 726.224 86.024 725.936 84.84 725.936C83.56 725.936 82.408 726.224 81.384 726.8C80.36 727.376 79.544 728.192 78.936 729.248C78.36 730.304 78.072 731.584 78.072 733.088C78.072 734.592 78.36 735.872 78.936 736.928C79.544 737.984 80.36 738.8 81.384 739.376C82.408 739.952 83.56 740.24 84.84 740.24C86.024 740.24 87.112 739.968 88.104 739.424C89.128 738.848 89.976 737.936 90.648 736.688L96.456 739.856C95.496 741.936 94.008 743.552 91.992 744.704C89.976 745.824 87.608 746.384 84.888 746.384ZM107.919 746V726.32H99.1834V720.176H124.095V726.32H115.359V746H107.919ZM140.545 746.384C137.793 746.384 135.345 745.808 133.201 744.656C131.089 743.504 129.409 741.936 128.161 739.952C126.945 737.936 126.337 735.648 126.337 733.088C126.337 730.496 126.945 728.208 128.161 726.224C129.409 724.208 131.089 722.64 133.201 721.52C135.345 720.368 137.793 719.792 140.545 719.792C143.265 719.792 145.697 720.368 147.841 721.52C149.985 722.64 151.665 724.192 152.881 726.176C154.097 728.16 154.705 730.464 154.705 733.088C154.705 735.648 154.097 737.936 152.881 739.952C151.665 741.936 149.985 743.504 147.841 744.656C145.697 745.808 143.265 746.384 140.545 746.384ZM140.545 740.24C141.793 740.24 142.913 739.952 143.905 739.376C144.897 738.8 145.681 737.984 146.257 736.928C146.833 735.84 147.121 734.56 147.121 733.088C147.121 731.584 146.833 730.304 146.257 729.248C145.681 728.192 144.897 727.376 143.905 726.8C142.913 726.224 141.793 725.936 140.545 725.936C139.297 725.936 138.177 726.224 137.185 726.8C136.193 727.376 135.393 728.192 134.785 729.248C134.209 730.304 133.921 731.584 133.921 733.088C133.921 734.56 134.209 735.84 134.785 736.928C135.393 737.984 136.193 738.8 137.185 739.376C138.177 739.952 139.297 740.24 140.545 740.24ZM157.656 745.952L158.04 739.808L158.616 739.904H159.144C160.04 739.904 160.744 739.648 161.256 739.136C161.768 738.624 162.152 737.936 162.408 737.072C162.664 736.176 162.84 735.168 162.936 734.048C163.064 732.928 163.16 731.76 163.224 730.544L163.608 720.176H185.688V746H178.2V726.32H170.036L169.8 730.88C169.704 733.184 169.512 735.296 169.224 737.216C168.968 739.136 168.536 740.8 167.928 742.208C167.32 743.584 166.504 744.656 165.48 745.424C164.456 746.16 163.144 746.528 161.544 746.528C160.968 746.528 160.36 746.48 159.72 746.384C159.08 746.288 158.392 746.144 157.656 745.952ZM209.785 746V742.791C209.221 743.739 208.453 744.505 207.481 745.088C206.041 745.952 204.185 746.384 201.913 746.384C199.897 746.384 198.169 746.048 196.729 745.376C195.289 744.672 194.185 743.728 193.417 742.544C192.649 741.36 192.265 740.032 192.265 738.56C192.265 737.024 192.633 735.68 193.369 734.528C194.137 733.376 195.337 732.48 196.969 731.84C198.601 731.168 200.729 730.832 203.353 730.832H209.305C209.305 729.232 208.809 727.984 207.817 727.088C206.857 726.192 205.369 725.744 203.353 725.744C201.977 725.744 200.617 725.968 199.273 726.416C197.961 726.832 196.841 727.408 195.913 728.144L193.225 722.912C194.633 721.92 196.329 721.152 198.313 720.608C200.297 720.064 202.313 719.792 204.361 719.792C208.297 719.792 211.353 720.72 213.529 722.576C215.705 724.432 216.793 727.328 216.793 731.264V746H209.785ZM209.305 735.2V737.84C208.857 738.992 208.137 739.872 207.145 740.48C206.153 741.056 205.033 741.344 203.785 741.344C202.473 741.344 201.433 741.072 200.665 740.528C199.929 739.952 199.561 739.184 199.561 738.224C199.561 737.36 199.881 736.64 200.521 736.064C201.193 735.488 202.409 735.2 204.169 735.2H209.305ZM1532.8 424.56C1534.24 420.773 1534.96 416.667 1534.96 412.24C1534.96 407.867 1534.24 403.84 1532.8 400.16C1531.36 396.427 1529.36 393.2 1526.8 390.48C1524.19 387.707 1521.12 385.547 1517.6 384C1514.03 382.453 1510.16 381.68 1506 381.68C1501.79 381.68 1497.95 382.453 1494.48 384C1490.96 385.547 1487.89 387.707 1485.28 390.48C1482.67 393.2 1480.64 396.427 1479.2 400.16C1477.76 403.84 1477.04 407.893 1477.04 412.32C1477.04 416.693 1477.76 420.747 1479.2 424.48C1480.64 428.213 1482.67 431.467 1485.28 434.24C1487.89 437.013 1490.96 439.173 1494.48 440.72C1498 442.213 1501.84 442.96 1506 442.96C1510.16 442.96 1514 442.213 1517.52 440.72C1521.04 439.173 1524.11 437.04 1526.72 434.32C1529.33 431.547 1531.36 428.293 1532.8 424.56ZM1522.64 405.44C1523.49 407.52 1523.92 409.813 1523.92 412.32C1523.92 414.827 1523.49 417.147 1522.64 419.28C1521.79 421.413 1520.56 423.28 1518.96 424.88C1517.36 426.427 1515.47 427.653 1513.28 428.56C1511.04 429.413 1508.61 429.84 1506 429.84C1503.33 429.84 1500.91 429.413 1498.72 428.56C1496.53 427.653 1494.64 426.4 1493.04 424.8C1491.44 423.2 1490.21 421.36 1489.36 419.28C1488.51 417.147 1488.08 414.827 1488.08 412.32C1488.08 409.813 1488.51 407.493 1489.36 405.36C1490.21 403.227 1491.44 401.387 1493.04 399.84C1494.64 398.24 1496.53 397.013 1498.72 396.16C1500.91 395.253 1503.33 394.8 1506 394.8C1508.67 394.8 1511.09 395.253 1513.28 396.16C1515.47 397.013 1517.36 398.24 1518.96 399.84C1520.56 401.44 1521.79 403.307 1522.64 405.44ZM1478 345.616V371.696H1534V344.096C1534 337.003 1532.61 331.616 1529.84 327.936C1527.01 324.203 1523.15 322.336 1518.24 322.336C1513.49 322.336 1509.87 324.07 1507.36 327.536C1506.28 329.031 1505.43 330.788 1504.82 332.807C1504.35 331.836 1503.81 330.933 1503.2 330.096C1500.64 326.683 1497.07 324.976 1492.48 324.976C1487.84 324.976 1484.27 326.79 1481.76 330.416C1479.25 334.043 1478 339.11 1478 345.616ZM1524.4 344.576V358.816H1510.24V344.576C1510.24 341.59 1510.83 339.323 1512 337.776C1513.12 336.23 1514.85 335.456 1517.2 335.456C1519.65 335.456 1521.47 336.23 1522.64 337.776C1523.81 339.323 1524.4 341.59 1524.4 344.576ZM1501.2 346.736V358.816H1487.6V346.736C1487.6 343.91 1488.19 341.776 1489.36 340.336C1490.48 338.896 1492.16 338.176 1494.4 338.176C1496.64 338.176 1498.35 338.896 1499.52 340.336C1500.64 341.776 1501.2 343.91 1501.2 346.736ZM1532.8 297.607C1534.24 293.82 1534.96 289.714 1534.96 285.287C1534.96 280.914 1534.24 276.887 1532.8 273.207C1531.36 269.474 1529.36 266.247 1526.8 263.527C1524.19 260.754 1521.12 258.594 1517.6 257.047C1514.03 255.5 1510.16 254.727 1506 254.727C1501.79 254.727 1497.95 255.5 1494.48 257.047C1490.96 258.594 1487.89 260.754 1485.28 263.527C1482.67 266.247 1480.64 269.474 1479.2 273.207C1477.76 276.887 1477.04 280.94 1477.04 285.367C1477.04 289.74 1477.76 293.794 1479.2 297.527C1480.64 301.26 1482.67 304.514 1485.28 307.287C1487.89 310.06 1490.96 312.22 1494.48 313.767C1498 315.26 1501.84 316.007 1506 316.007C1510.16 316.007 1514 315.26 1517.52 313.767C1521.04 312.22 1524.11 310.087 1526.72 307.367C1529.33 304.594 1531.36 301.34 1532.8 297.607ZM1522.64 278.487C1523.49 280.567 1523.92 282.86 1523.92 285.367C1523.92 287.874 1523.49 290.194 1522.64 292.327C1521.79 294.46 1520.56 296.327 1518.96 297.927C1517.36 299.474 1515.47 300.7 1513.28 301.607C1511.04 302.46 1508.61 302.887 1506 302.887C1503.33 302.887 1500.91 302.46 1498.72 301.607C1496.53 300.7 1494.64 299.447 1493.04 297.847C1491.44 296.247 1490.21 294.407 1489.36 292.327C1488.51 290.194 1488.08 287.874 1488.08 285.367C1488.08 282.86 1488.51 280.54 1489.36 278.407C1490.21 276.274 1491.44 274.434 1493.04 272.887C1494.64 271.287 1496.53 270.06 1498.72 269.207C1500.91 268.3 1503.33 267.847 1506 267.847C1508.67 267.847 1511.09 268.3 1513.28 269.207C1515.47 270.06 1517.36 271.287 1518.96 272.887C1520.56 274.487 1521.79 276.354 1522.64 278.487ZM1523.44 214.183H1478V201.303H1523.44V183.943V183.703H1478V170.823H1523.44V163.223H1545.6V175.223H1534V183.943V244.743H1478V231.863L1523.44 231.863V214.183ZM1478 154.352H1534V142.112L1497.6 115.392H1534V102.592L1478 102.592V114.752L1514.48 141.472L1478 141.472V154.352ZM1660.4 402H1666.48V413.92H1660.35C1660.03 419.264 1659.11 423.931 1657.6 427.92C1655.68 432.933 1652.91 436.747 1649.28 439.36C1645.6 441.973 1641.12 443.28 1635.84 443.28C1630.56 443.28 1626.11 441.973 1622.48 439.36C1618.8 436.747 1616 432.933 1614.08 427.92C1612.57 423.931 1611.65 419.264 1611.33 413.92H1605.6V402H1611.31C1611.62 396.588 1612.54 391.894 1614.08 387.92C1616 382.907 1618.8 379.12 1622.48 376.56C1626.16 374 1630.61 372.72 1635.84 372.72C1641.01 372.72 1645.47 374 1649.2 376.56C1652.88 379.067 1655.68 382.773 1657.6 387.68C1659.19 391.702 1660.12 396.476 1660.4 402ZM1621.53 413.92C1621.77 416.528 1622.19 418.822 1622.8 420.8C1623.81 424.107 1625.41 426.587 1627.6 428.24C1629.73 429.893 1632.48 430.72 1635.84 430.72C1639.2 430.72 1641.97 429.84 1644.16 428.08C1646.29 426.32 1647.89 423.787 1648.96 420.48C1649.55 418.535 1649.96 416.348 1650.21 413.92H1621.53ZM1621.49 402H1650.27C1650.02 399.283 1649.56 396.91 1648.88 394.88C1647.76 391.627 1646.13 389.2 1644 387.6C1641.81 386 1639.07 385.2 1635.76 385.2C1632.45 385.2 1629.73 386.027 1627.6 387.68C1625.47 389.333 1623.89 391.76 1622.88 394.96C1622.2 396.969 1621.74 399.316 1621.49 402ZM1608 338.784V363.024H1664V350.064H1648.56V338.784C1648.56 333.771 1647.76 329.451 1646.16 325.824C1644.51 322.198 1642.16 319.398 1639.12 317.424C1636.08 315.451 1632.48 314.464 1628.32 314.464C1624.11 314.464 1620.48 315.451 1617.44 317.424C1614.4 319.398 1612.08 322.198 1610.48 325.824C1608.83 329.451 1608 333.771 1608 338.784ZM1638 350.064V339.504C1638 335.504 1637.15 332.518 1635.44 330.544C1633.73 328.571 1631.36 327.584 1628.32 327.584C1625.23 327.584 1622.83 328.571 1621.12 330.544C1619.41 332.518 1618.56 335.504 1618.56 339.504V350.064H1638ZM1654.24 297.485C1654.61 299.565 1654.35 302.152 1653.44 305.245L1663.28 308.365C1664.83 304.632 1665.44 301.032 1665.12 297.565C1664.85 294.098 1663.65 290.925 1661.52 288.045C1659.39 285.112 1656.32 282.578 1652.32 280.445L1608 256.605V269.325L1638.1 284.707L1608 299.565V313.405L1649.09 291.359L1649.76 291.805C1652.32 293.458 1653.81 295.352 1654.24 297.485ZM1641.44 228.8L1664 214.206V199.486L1635.05 218.347L1608 200.046V213.726L1630.64 228.41V237.726H1608V250.606H1664V237.726H1641.44V228.8ZM1618.56 181.96H1664V169.16H1618.56V151.24H1608V199.8H1618.56V181.96ZM1630.96 100.302C1627.92 103.982 1626.4 109.209 1626.4 115.982V130.222H1608V143.102H1664V117.822C1664 110.622 1662.35 104.996 1659.04 100.942C1655.73 96.8358 1650.88 94.7825 1644.48 94.7825C1638.45 94.7825 1633.95 96.6225 1630.96 100.302ZM1651.92 110.702C1653.57 112.622 1654.4 115.236 1654.4 118.542V130.222H1636V118.542C1636 115.182 1636.69 112.569 1638.08 110.702C1639.41 108.782 1641.63 107.822 1644.72 107.822C1647.87 107.822 1650.27 108.782 1651.92 110.702ZM1608 87.6625H1664V74.7825H1608V87.6625ZM1779.12 407.12H1794V394.32H1738V418.48C1738 423.387 1738.83 427.653 1740.48 431.28C1742.13 434.907 1744.53 437.733 1747.68 439.76C1750.77 441.733 1754.51 442.72 1758.88 442.72C1763.09 442.72 1766.72 441.787 1769.76 439.92C1772.8 438.053 1775.12 435.36 1776.72 431.84C1776.86 431.522 1777 431.198 1777.13 430.868L1794 442.56V428.88L1779.12 418.98V407.12ZM1768.88 407.12H1748.56V418.16C1748.56 421.84 1749.41 424.667 1751.12 426.64C1752.83 428.56 1755.36 429.52 1758.72 429.52C1761.97 429.52 1764.48 428.587 1766.24 426.72C1768 424.853 1768.88 422.107 1768.88 418.48V407.12ZM1738 380.29H1794V367.41L1748.56 367.485V340.85L1738 340.77V380.29ZM1792.8 324.091C1794.24 320.305 1794.96 316.198 1794.96 311.771C1794.96 307.398 1794.24 303.371 1792.8 299.691C1791.36 295.958 1789.36 292.731 1786.8 290.011C1784.19 287.238 1781.12 285.078 1777.6 283.531C1774.03 281.985 1770.16 281.211 1766 281.211C1761.79 281.211 1757.95 281.985 1754.48 283.531C1750.96 285.078 1747.89 287.238 1745.28 290.011C1742.67 292.731 1740.64 295.958 1739.2 299.691C1737.76 303.371 1737.04 307.425 1737.04 311.851C1737.04 316.225 1737.76 320.278 1739.2 324.011C1740.64 327.745 1742.67 330.998 1745.28 333.771C1747.89 336.545 1750.96 338.705 1754.48 340.251C1758 341.745 1761.84 342.491 1766 342.491C1770.16 342.491 1774 341.745 1777.52 340.251C1781.04 338.705 1784.11 336.571 1786.72 333.851C1789.33 331.078 1791.36 327.825 1792.8 324.091ZM1782.64 304.971C1783.49 307.051 1783.92 309.345 1783.92 311.851C1783.92 314.358 1783.49 316.678 1782.64 318.811C1781.79 320.945 1780.56 322.811 1778.96 324.411C1777.36 325.958 1775.47 327.185 1773.28 328.091C1771.04 328.945 1768.61 329.371 1766 329.371C1763.33 329.371 1760.91 328.945 1758.72 328.091C1756.53 327.185 1754.64 325.931 1753.04 324.331C1751.44 322.731 1750.21 320.891 1749.36 318.811C1748.51 316.678 1748.08 314.358 1748.08 311.851C1748.08 309.345 1748.51 307.025 1749.36 304.891C1750.21 302.758 1751.44 300.918 1753.04 299.371C1754.64 297.771 1756.53 296.545 1758.72 295.691C1760.91 294.785 1763.33 294.331 1766 294.331C1768.67 294.331 1771.09 294.785 1773.28 295.691C1775.47 296.545 1777.36 297.771 1778.96 299.371C1780.56 300.971 1781.79 302.838 1782.64 304.971ZM1783.44 222.87V215.03H1805.6V227.03H1794V266.55H1805.6V278.55L1783.44 278.47V276.71V276.289C1783.39 274.559 1782.72 273.126 1781.44 271.99C1780.05 270.71 1778.11 269.697 1775.6 268.95C1773.04 268.203 1770.05 267.67 1766.64 267.35C1763.23 266.977 1759.52 266.71 1755.52 266.55L1738 265.91V222.87H1783.44ZM1783.44 235.67H1748.56V254.87L1756.72 255.11C1760.19 255.27 1763.47 255.51 1766.56 255.83C1769.65 256.097 1772.48 256.523 1775.04 257.11C1777.55 257.697 1779.68 258.47 1781.44 259.43C1782.2 259.822 1782.87 260.259 1783.44 260.742V235.67ZM1760.96 163.506C1757.92 167.186 1756.4 172.412 1756.4 179.186V193.426H1738V206.306L1794 206.306V181.026C1794 173.826 1792.35 168.199 1789.04 164.146C1785.73 160.039 1780.88 157.986 1774.48 157.986C1768.45 157.986 1763.95 159.826 1760.96 163.506ZM1781.92 173.906C1783.57 175.826 1784.4 178.439 1784.4 181.746V193.426H1766V181.746C1766 178.386 1766.69 175.772 1768.08 173.906C1769.41 171.986 1771.63 171.026 1774.72 171.026C1777.87 171.026 1780.27 171.986 1781.92 173.906ZM1738 150.866L1794 150.866V137.986H1738V150.866Z" fill="#F6F6F6"/>
<path d="M-47.4771 683.817C-47.4771 665.861 -51.6074 648.145 -59.5487 632.04L-73.6025 603.539C-121.848 505.696 -11.2686 406.098 81.0133 464.279V464.279C114.053 485.109 155.759 486.498 190.112 467.912L218.918 452.327C265.227 427.272 322.843 439.1 355.537 480.373V480.373C364.748 492.001 376.246 501.615 389.321 508.622L396.32 512.373C436.472 533.891 464.355 572.836 471.786 617.78L475.425 639.782C490.755 732.497 570.927 800.5 664.9 800.5H1106.5H1344.06C1373.94 800.5 1400.54 781.541 1410.29 753.287L1419.79 725.755C1427.32 703.902 1451.3 692.458 1473.03 700.342L1486.06 705.067C1510.37 713.889 1535.08 692.963 1530.37 667.527V667.527C1525.07 638.862 1556.41 617.598 1581.09 633.115L1596.09 642.547C1615.27 654.609 1640.62 648.6 1652.34 629.211L1656.03 623.12C1668.55 602.416 1697.68 600.09 1713.33 618.546L1716.9 622.749C1729.05 637.082 1751.11 637.22 1763.44 623.04V623.04C1779.3 604.801 1809.05 611.216 1815.98 634.371L1816.81 637.143C1821.49 652.762 1837.08 662.44 1853.15 659.698L1857.01 659.04C1882.48 654.695 1904.34 677.339 1899.11 702.643L1896.17 716.869C1893.72 728.708 1899.62 740.699 1910.49 745.982V745.982C1920.42 750.803 1926.3 761.285 1925.25 772.268L1916.78 860.369C1912.71 902.756 1882.52 938.047 1841.27 948.624V948.624C1835.1 950.204 1828.8 951.199 1822.45 951.595L1713.09 958.414C1653.44 962.133 1593.6 961.6 1534.03 956.818L1106.5 922.5L542.5 912L106.5 922.5H-47.4771V683.817Z" fill="#F6F6F6" fill-opacity="0.22"/>
<path d="M-29.9997 873.034L-10.1154 881.962C8.12116 890.15 29.2126 888.882 46.3363 878.567V878.567C64.4623 867.649 86.9524 866.906 105.76 876.604L111.165 879.392C130.165 889.189 152.761 889.046 171.634 879.009L177.44 875.922C194.758 866.712 215.709 867.618 232.168 878.288V878.288C248.18 888.668 268.481 889.827 285.57 881.336L297.696 875.312C315.677 866.377 336.946 867.077 354.301 877.174L357.311 878.925C374.376 888.853 395.504 888.651 412.375 878.397L413.789 877.538C430.45 867.412 451.416 867.626 467.867 878.092V878.092C484.196 888.479 504.986 888.773 521.602 878.852L523.759 877.564C540.897 867.331 562.22 867.132 579.546 877.043L582.331 878.635C600.209 888.862 622.049 889.336 640.355 879.897L645.29 877.352C665.241 867.064 688.882 866.819 709.042 876.691L717.441 880.804C735.693 889.742 757.124 889.384 775.068 879.842L781.024 876.675C799.022 867.104 820.999 868.821 837.346 880.999V880.999C855.813 894.756 881.178 894.922 899.757 881.317V881.317C916.604 868.98 939.163 867.81 957.195 878.338L969.252 885.378C989.035 896.929 1013.63 896.384 1032.88 883.969L1038.22 880.525C1056.42 868.792 1079.99 869.637 1097.3 882.642V882.642C1114.56 895.609 1138.05 896.491 1156.23 884.854L1164.54 879.538C1181.88 868.437 1204.35 869.522 1220.54 882.242V882.242C1237.18 895.312 1260.37 896.063 1277.82 884.097L1282.93 880.595C1299.9 868.957 1322.48 869.789 1338.55 882.645V882.645C1354.57 895.461 1377.07 896.332 1394.03 884.792L1398.49 881.761C1416.89 869.241 1441.08 869.286 1459.44 881.873L1461.42 883.235C1480.04 896.006 1504.41 896.707 1523.73 885.03L1529.86 881.329C1550.51 868.848 1576.41 868.97 1596.95 881.645L1605 886.617C1622.26 897.266 1644.22 896.485 1660.68 884.637L1667.24 879.908C1682.57 868.872 1703.51 870.013 1717.55 882.647V882.647C1731.54 895.241 1752.41 896.419 1767.72 885.478L1771.59 882.719C1789.31 870.062 1813.48 871.552 1829.51 886.292L1833.75 890.188C1843.56 899.203 1856.39 904.207 1869.71 904.207H1897V1041.03H-30L-29.9997 873.034Z" fill="#F6F6F6"/>
</g>
<defs>
<clipPath id="clip0_115_7">
<rect width="1866" height="1039" fill="white"/>
</clipPath>
</defs>
</svg>
