<svg width="2025" height="913" viewBox="0 0 2025 913" fill="none" xmlns="http://www.w3.org/2000/svg">
<path fill-rule="evenodd" clip-rule="evenodd" d="M55 425.577V62.544C134.905 56.8562 215.224 60.7125 294.254 74.0452L360.628 85.2429C545.418 116.418 733.488 123.333 920.069 105.813L1204.58 79.0965C1263.88 73.5282 1323.68 76.5511 1382.11 88.0715C1488.18 108.983 1595.83 120.902 1703.9 123.703L1921 129.329V375.728H1633.37L1599.73 379.566C1510.15 389.783 1442.5 465.59 1442.5 555.747V735V772.114C1442.5 820.163 1403.55 859.114 1355.5 859.114H1220H1098H985.5H899.5H762H658H544H464.5H364.5H266H230.865C195.48 859.114 161.936 843.343 139.363 816.093C126.341 800.372 117.588 781.562 113.95 761.476L109.113 734.773C106.743 721.693 105.551 708.428 105.551 695.135V555.747L106.937 533.124C109.735 487.476 87.9126 448.559 55 425.577ZM786.912 495.799C788.448 496.503 789.632 497.527 790.464 498.871H812.928C811.904 491.511 808.576 485.687 802.944 481.399C797.376 477.111 790.144 474.967 781.248 474.967C774.272 474.967 768.192 476.439 763.008 479.383C757.824 482.263 753.824 486.327 751.008 491.575C748.256 496.823 746.88 502.807 746.88 509.527C746.88 516.247 748.256 522.231 751.008 527.479C753.824 532.727 757.824 536.823 763.008 539.767C768.256 542.647 774.4 544.087 781.44 544.087C789.376 544.087 795.936 542.295 801.12 538.711C806.304 535.063 810.368 530.711 813.312 525.655V504.343H778.656V519.415H795.648C792.64 523.383 788.672 525.367 783.744 525.367C778.56 525.367 774.72 524.055 772.224 521.431C769.728 518.807 768.48 514.839 768.48 509.527C768.48 504.919 769.6 501.303 771.84 498.679C774.08 495.991 777.248 494.647 781.344 494.647C783.52 494.647 785.376 495.031 786.912 495.799ZM854.875 543.607L858.235 533.335H880.891L884.252 543.607H906.716L881.948 475.639H857.372L832.508 543.607H854.875ZM869.563 498.391L875.708 517.303H863.419L869.563 498.391ZM949.286 519.223L962.054 543.607H985.477L970.693 517.591C975.43 516.055 979.046 513.527 981.542 510.007C984.102 506.487 985.382 502.455 985.382 497.911C985.382 493.687 984.39 489.911 982.406 486.583C980.485 483.191 977.573 480.535 973.669 478.615C969.766 476.631 965.062 475.639 959.557 475.639H927.878V543.607H949.19V519.223H949.286ZM957.638 505.015H949.19V493.495H957.638C959.622 493.495 961.125 494.007 962.149 495.031C963.237 496.055 963.781 497.463 963.781 499.255C963.781 501.239 963.27 502.711 962.245 503.671C961.221 504.567 959.685 505.015 957.638 505.015ZM1055.45 479.959C1050.14 477.079 1043.93 475.639 1036.83 475.639H1008.51V543.607H1036.83C1043.93 543.607 1050.14 542.135 1055.45 539.191C1060.83 536.183 1064.96 532.087 1067.84 526.903C1070.72 521.719 1072.16 515.895 1072.16 509.431C1072.16 502.903 1070.72 497.079 1067.84 491.959C1064.96 486.839 1060.83 482.839 1055.45 479.959ZM1046.33 520.663C1043.52 523.287 1039.71 524.599 1034.91 524.599H1029.82V494.263H1034.91C1039.71 494.263 1043.52 495.575 1046.33 498.199C1049.15 500.823 1050.56 504.567 1050.56 509.431C1050.56 514.295 1049.15 518.039 1046.33 520.663ZM1117.49 500.983V492.631H1141.49V475.639H1096.17V543.607H1141.49V526.615H1117.49V517.015H1138.61V500.983H1117.49ZM1209.71 543.607H1231.02V475.639H1209.71V510.391L1187.15 475.639H1165.84V543.607H1187.15V509.431L1209.71 543.607ZM719.105 423.477C718.885 427.056 720.781 430.251 723.687 431.884C725.092 432.801 726.775 433.337 728.594 433.337H740.23C742.298 433.337 744.19 432.644 745.699 431.486C748.226 429.773 749.828 426.812 749.64 423.52L747.96 394.017C749.541 394.175 751.144 394.257 752.767 394.257C779.178 394.257 800.589 372.701 800.589 346.111C800.589 325.564 787.804 308.023 769.805 301.112C770.495 298.345 770.862 295.451 770.862 292.473C770.862 272.665 754.659 256.607 734.672 256.607C714.685 256.607 698.482 272.665 698.482 292.473C698.482 293.276 698.509 294.073 698.561 294.863C676.75 302.024 661 322.551 661 346.758C661 376.917 685.449 401.365 715.608 401.365C717.251 401.365 718.877 401.293 720.483 401.151L719.105 423.477ZM1230.02 401.365C1231.66 401.365 1233.29 401.293 1234.89 401.151L1233.52 423.477C1233.2 428.656 1237.31 433.031 1242.5 433.031H1255.07C1260.24 433.031 1264.35 428.683 1264.05 423.52L1262.19 390.886C1263.27 390.097 1264.32 389.27 1265.34 388.406C1265.95 388.429 1266.56 388.441 1267.18 388.441C1293.59 388.441 1315 366.885 1315 340.295C1315 317.114 1298.73 297.759 1277.05 293.178C1274.27 276.107 1259.34 263.069 1241.33 263.069C1221.61 263.069 1205.58 278.693 1205.15 298.13C1187.49 307.177 1175.41 325.557 1175.41 346.758C1175.41 376.917 1199.86 401.365 1230.02 401.365ZM920.988 281.29C921.24 276.51 925.189 272.763 929.976 272.763H956.808C961.609 272.763 965.565 276.531 965.797 281.326L968.963 346.49H971.599C976.017 346.49 979.599 350.072 979.599 354.49V357.877C979.599 362.296 976.017 365.877 971.599 365.877H969.905L972.678 422.948C972.927 428.085 968.831 432.385 963.688 432.385H922.522C917.365 432.385 913.263 428.061 913.534 422.912L916.536 365.877H897.949L900.721 422.948C900.971 428.085 896.874 432.385 891.732 432.385H850.565C845.409 432.385 841.307 428.061 841.578 422.912L844.58 365.877H837.024C832.605 365.877 829.024 362.296 829.024 357.877V354.49C829.024 350.072 832.605 346.49 837.024 346.49H845.6L849.031 281.29C849.283 276.51 853.232 272.763 858.019 272.763H884.852C889.652 272.763 893.608 276.531 893.841 281.326L897.007 346.49H917.556L920.988 281.29ZM1092.01 272.763C1087.23 272.763 1083.28 276.51 1083.02 281.29L1080.72 325.109H1059.23L1057.1 281.326C1056.87 276.531 1052.91 272.763 1048.11 272.763H1021.28C1016.49 272.763 1012.54 276.51 1012.29 281.29L1009.98 325.109H1002.46C998.044 325.109 994.462 328.69 994.462 333.109V336.496C994.462 340.914 998.044 344.496 1002.46 344.496H1008.96L1004.84 422.912C1004.57 428.061 1008.67 432.385 1013.82 432.385H1054.99C1060.13 432.385 1064.23 428.084 1063.98 422.948L1060.17 344.496H1079.7L1075.57 422.912C1075.3 428.061 1079.4 432.385 1084.56 432.385H1125.72C1130.87 432.385 1134.96 428.085 1134.71 422.948L1130.9 344.496H1137.04C1141.46 344.496 1145.04 340.914 1145.04 336.496V333.109C1145.04 328.69 1141.46 325.109 1137.04 325.109H1129.96L1127.83 281.326C1127.6 276.531 1123.65 272.763 1118.84 272.763H1092.01ZM231.752 697.768C228.296 697.768 225.075 697.213 222.088 696.104C219.144 694.952 216.584 693.331 214.408 691.24C212.232 689.149 210.525 686.696 209.288 683.88C208.093 681.064 207.496 677.971 207.496 674.6C207.496 671.229 208.093 668.136 209.288 665.32C210.525 662.504 212.232 660.051 214.408 657.96C216.627 655.869 219.208 654.269 222.152 653.16C225.096 652.008 228.317 651.432 231.816 651.432C235.699 651.432 239.197 652.115 242.312 653.48C245.469 654.803 248.115 656.765 250.248 659.368L243.592 665.512C242.056 663.763 240.349 662.461 238.472 661.608C236.595 660.712 234.547 660.264 232.328 660.264C230.237 660.264 228.317 660.605 226.568 661.288C224.819 661.971 223.304 662.952 222.024 664.232C220.744 665.512 219.741 667.027 219.016 668.776C218.333 670.525 217.992 672.467 217.992 674.6C217.992 676.733 218.333 678.675 219.016 680.424C219.741 682.173 220.744 683.688 222.024 684.968C223.304 686.248 224.819 687.229 226.568 687.912C228.317 688.595 230.237 688.936 232.328 688.936C234.547 688.936 236.595 688.509 238.472 687.656C240.349 686.76 242.056 685.416 243.592 683.624L250.248 689.768C248.115 692.371 245.469 694.355 242.312 695.72C239.197 697.085 235.677 697.768 231.752 697.768ZM294.331 697.512C290.661 697.512 287.397 696.744 284.538 695.208C281.723 693.672 279.482 691.581 277.818 688.936C276.197 686.248 275.386 683.197 275.386 679.784C275.386 676.328 276.197 673.277 277.818 670.632C279.482 667.944 281.723 665.853 284.538 664.36C287.397 662.824 290.661 662.056 294.331 662.056C297.957 662.056 301.2 662.824 304.059 664.36C306.917 665.853 309.157 667.923 310.779 670.568C312.4 673.213 313.211 676.285 313.211 679.784C313.211 683.197 312.4 686.248 310.779 688.936C309.157 691.581 306.917 693.672 304.059 695.208C301.2 696.744 297.957 697.512 294.331 697.512ZM294.331 689.32C295.994 689.32 297.488 688.936 298.811 688.168C300.133 687.4 301.178 686.312 301.947 684.904C302.714 683.453 303.098 681.747 303.098 679.784C303.098 677.779 302.714 676.072 301.947 674.664C301.178 673.256 300.133 672.168 298.811 671.4C297.488 670.632 295.994 670.248 294.331 670.248C292.667 670.248 291.173 670.632 289.85 671.4C288.528 672.168 287.461 673.256 286.65 674.664C285.882 676.072 285.499 677.779 285.499 679.784C285.499 681.747 285.882 683.453 286.65 684.904C287.461 686.312 288.528 687.4 289.85 688.168C291.173 688.936 292.667 689.32 294.331 689.32ZM321.997 662.568H349.582V670.76H331.918V697H321.997V662.568ZM371.483 697.512C367.814 697.512 364.55 696.744 361.691 695.208C358.875 693.672 356.635 691.581 354.971 688.936C353.35 686.248 352.539 683.197 352.539 679.784C352.539 676.328 353.35 673.277 354.971 670.632C356.635 667.944 358.875 665.853 361.691 664.36C364.55 662.824 367.814 662.056 371.483 662.056C375.11 662.056 378.352 662.824 381.211 664.36C384.07 665.853 386.31 667.923 387.931 670.568C389.552 673.213 390.363 676.285 390.363 679.784C390.363 683.197 389.552 686.248 387.931 688.936C386.31 691.581 384.07 693.672 381.211 695.208C378.352 696.744 375.11 697.512 371.483 697.512ZM371.483 689.32C373.147 689.32 374.64 688.936 375.963 688.168C377.286 687.4 378.331 686.312 379.099 684.904C379.867 683.453 380.251 681.747 380.251 679.784C380.251 677.779 379.867 676.072 379.099 674.664C378.331 673.256 377.286 672.168 375.963 671.4C374.64 670.632 373.147 670.248 371.483 670.248C369.819 670.248 368.326 670.632 367.003 671.4C365.68 672.168 364.614 673.256 363.803 674.664C363.035 676.072 362.651 677.779 362.651 679.784C362.651 681.747 363.035 683.453 363.803 684.904C364.614 686.312 365.68 687.4 367.003 688.168C368.326 688.936 369.819 689.32 371.483 689.32ZM419.438 697.512C416.537 697.512 413.998 696.872 411.822 695.592C410.801 694.992 409.884 694.246 409.07 693.355V709.416H399.086V662.568H408.622V666.544C409.483 665.505 410.486 664.649 411.63 663.976C413.806 662.696 416.409 662.056 419.438 662.056C422.681 662.056 425.582 662.803 428.142 664.296C430.745 665.747 432.793 667.795 434.286 670.44C435.822 673.085 436.59 676.2 436.59 679.784C436.59 683.411 435.822 686.547 434.286 689.192C432.793 691.837 430.745 693.885 428.142 695.336C425.582 696.787 422.681 697.512 419.438 697.512ZM417.71 689.32C419.374 689.32 420.846 688.936 422.126 688.168C423.449 687.4 424.494 686.312 425.262 684.904C426.073 683.453 426.478 681.747 426.478 679.784C426.478 677.779 426.073 676.072 425.262 674.664C424.494 673.256 423.449 672.168 422.126 671.4C420.846 670.632 419.374 670.248 417.71 670.248C416.046 670.248 414.553 670.632 413.23 671.4C411.907 672.168 410.862 673.256 410.094 674.664C409.326 676.072 408.942 677.779 408.942 679.784C408.942 681.747 409.326 683.453 410.094 684.904C410.862 686.312 411.907 687.4 413.23 688.168C414.553 688.936 416.046 689.32 417.71 689.32ZM461.635 697.512C457.966 697.512 454.702 696.744 451.844 695.208C449.027 693.672 446.788 691.581 445.124 688.936C443.502 686.248 442.691 683.197 442.691 679.784C442.691 676.328 443.502 673.277 445.124 670.632C446.788 667.944 449.027 665.853 451.844 664.36C454.702 662.824 457.966 662.056 461.635 662.056C465.262 662.056 468.505 662.824 471.363 664.36C474.222 665.853 476.462 667.923 478.083 670.568C479.705 673.213 480.516 676.285 480.516 679.784C480.516 683.197 479.705 686.248 478.083 688.936C476.462 691.581 474.222 693.672 471.363 695.208C468.505 696.744 465.262 697.512 461.635 697.512ZM461.635 689.32C463.299 689.32 464.793 688.936 466.116 688.168C467.438 687.4 468.484 686.312 469.251 684.904C470.02 683.453 470.404 681.747 470.404 679.784C470.404 677.779 470.02 676.072 469.251 674.664C468.484 673.256 467.438 672.168 466.116 671.4C464.793 670.632 463.299 670.248 461.635 670.248C459.971 670.248 458.478 670.632 457.156 671.4C455.833 672.168 454.766 673.256 453.956 674.664C453.188 676.072 452.803 677.779 452.803 679.784C452.803 681.747 453.188 683.453 453.956 684.904C454.766 686.312 455.833 687.4 457.156 688.168C458.478 688.936 459.971 689.32 461.635 689.32ZM527.395 688.808H522.466V662.568H492.451L492.003 674.472C491.917 676.392 491.768 678.227 491.555 679.976C491.341 681.683 491.021 683.219 490.595 684.584C490.168 685.907 489.57 686.952 488.802 687.72C488.035 688.445 487.032 688.808 485.794 688.808H484.643V704.424H493.923V697H518.115V704.424H527.395V688.808ZM501.219 670.76H512.483V688.808H498.02C498.155 688.667 498.282 688.518 498.402 688.36C499.085 687.421 499.597 686.291 499.939 684.968C500.323 683.603 500.578 682.088 500.707 680.424C500.835 678.76 500.941 677.011 501.026 675.176L501.219 670.76ZM556.205 697V692.721C555.454 693.985 554.43 695.006 553.133 695.784C551.214 696.936 548.739 697.512 545.709 697.512C543.021 697.512 540.717 697.064 538.797 696.168C536.877 695.229 535.405 693.971 534.382 692.392C533.357 690.813 532.845 689.043 532.845 687.08C532.845 685.032 533.336 683.24 534.317 681.704C535.341 680.168 536.941 678.973 539.117 678.12C541.293 677.224 544.131 676.776 547.629 676.776H555.565C555.565 674.643 554.904 672.979 553.581 671.784C552.301 670.589 550.317 669.992 547.629 669.992C545.795 669.992 543.981 670.291 542.189 670.888C540.44 671.443 538.947 672.211 537.709 673.192L534.125 666.216C536.003 664.893 538.264 663.869 540.909 663.144C543.555 662.419 546.243 662.056 548.973 662.056C554.221 662.056 558.296 663.293 561.197 665.768C564.099 668.243 565.549 672.104 565.549 677.352V697H556.205ZM555.565 682.6V686.12C554.968 687.656 554.008 688.829 552.685 689.64C551.363 690.408 549.869 690.792 548.205 690.792C546.456 690.792 545.069 690.429 544.045 689.704C543.064 688.936 542.573 687.912 542.573 686.632C542.573 685.48 543 684.52 543.853 683.752C544.749 682.984 546.371 682.6 548.717 682.6H555.565ZM634.78 688.808H629.852V662.568H599.836L599.388 674.472C599.302 676.392 599.153 678.227 598.94 679.976C598.726 681.683 598.406 683.219 597.979 684.584C597.553 685.907 596.956 686.952 596.188 687.72C595.419 688.445 594.417 688.808 593.18 688.808H592.028V704.424H601.307V697H625.5V704.424H634.78V688.808ZM608.604 670.76H619.867V688.808H605.405C605.54 688.667 605.667 688.518 605.788 688.36C606.47 687.421 606.982 686.291 607.323 684.968C607.708 683.603 607.964 682.088 608.091 680.424C608.219 678.76 608.326 677.011 608.411 675.176L608.604 670.76ZM638.63 696.936L639.143 688.744L639.911 688.872H640.615C641.809 688.872 642.748 688.531 643.43 687.848C644.113 687.165 644.625 686.248 644.966 685.096C645.308 683.901 645.542 682.557 645.67 681.064C645.841 679.571 645.969 678.013 646.055 676.392L646.566 662.568H676.006V697H666.023V670.76H655.138L654.823 676.84C654.695 679.912 654.438 682.728 654.055 685.288C653.713 687.848 653.137 690.067 652.326 691.944C651.516 693.779 650.428 695.208 649.062 696.232C647.697 697.213 645.948 697.704 643.815 697.704C643.047 697.704 642.236 697.64 641.383 697.512C640.529 697.384 639.612 697.192 638.63 696.936ZM709.224 697V687.144H701.874L695.336 697H684.711L692.556 685.754C691.406 685.303 690.369 684.742 689.448 684.072C686.632 682.024 685.224 679.08 685.224 675.24C685.224 671.144 686.695 668.008 689.64 665.832C692.626 663.656 696.637 662.568 701.672 662.568H718.12V697H709.224ZM709.224 670.696V680.488H701.736C697.512 680.488 695.4 678.845 695.4 675.56C695.4 673.853 695.954 672.616 697.064 671.848C698.216 671.08 699.815 670.696 701.864 670.696H709.224ZM749.68 662.568H767.28C771.589 662.568 774.96 663.357 777.392 664.936C779.824 666.472 781.04 668.648 781.04 671.464C781.04 674.28 779.888 676.499 777.584 678.12C777.096 678.461 776.573 678.765 776.016 679.032C777.152 679.398 778.122 679.884 778.928 680.488C781.019 682.024 782.064 684.264 782.064 687.208C782.064 690.237 780.912 692.627 778.608 694.376C776.304 696.125 772.784 697 768.048 697H749.68V662.568ZM758.832 690.216H767.216C769.051 690.216 770.416 689.917 771.312 689.32C772.251 688.68 772.72 687.72 772.72 686.44C772.72 685.117 772.293 684.157 771.44 683.56C770.587 682.92 769.243 682.6 767.408 682.6H758.832V690.216ZM758.832 676.712H766.384C768.133 676.712 769.435 676.392 770.288 675.752C771.184 675.112 771.632 674.195 771.632 673C771.632 671.763 771.184 670.845 770.288 670.248C769.435 669.651 768.133 669.352 766.384 669.352H758.832V676.712ZM812.021 697V692.721C811.269 693.985 810.245 695.006 808.948 695.784C807.029 696.936 804.554 697.512 801.524 697.512C798.836 697.512 796.532 697.064 794.612 696.168C792.693 695.229 791.22 693.971 790.196 692.392C789.172 690.813 788.66 689.043 788.66 687.08C788.66 685.032 789.151 683.24 790.133 681.704C791.156 680.168 792.756 678.973 794.932 678.12C797.108 677.224 799.946 676.776 803.444 676.776H811.38C811.38 674.643 810.719 672.979 809.396 671.784C808.117 670.589 806.133 669.992 803.444 669.992C801.61 669.992 799.797 670.291 798.005 670.888C796.255 671.443 794.762 672.211 793.524 673.192L789.94 666.216C791.818 664.893 794.079 663.869 796.724 663.144C799.37 662.419 802.058 662.056 804.789 662.056C810.036 662.056 814.111 663.293 817.013 665.768C819.914 668.243 821.365 672.104 821.365 677.352V697H812.021ZM811.38 682.6V686.12C810.783 687.656 809.823 688.829 808.5 689.64C807.178 690.408 805.685 690.792 804.021 690.792C802.271 690.792 800.884 690.429 799.86 689.704C798.879 688.936 798.388 687.912 798.388 686.632C798.388 685.48 798.815 684.52 799.669 683.752C800.565 682.984 802.186 682.6 804.532 682.6H811.38ZM853.269 662.568V688.808H841.877V662.568H831.957V697H884.501V662.568H874.581V688.808H863.253V662.568H853.269ZM912.835 697.512C908.909 697.512 905.453 696.744 902.466 695.208C899.523 693.672 897.24 691.581 895.619 688.936C893.997 686.248 893.187 683.197 893.187 679.784C893.187 676.328 893.976 673.277 895.555 670.632C897.176 667.944 899.373 665.853 902.146 664.36C904.92 662.824 908.056 662.056 911.555 662.056C914.925 662.056 917.955 662.781 920.643 664.232C923.373 665.64 925.528 667.688 927.107 670.376C928.685 673.021 929.474 676.2 929.474 679.912C929.474 680.296 929.453 680.744 929.411 681.256L929.396 681.411C929.385 681.53 929.375 681.647 929.364 681.764C929.337 682.051 929.31 682.33 929.283 682.6H903.231C903.432 683.517 903.753 684.37 904.195 685.16C905.048 686.568 906.221 687.656 907.715 688.424C909.25 689.149 911.043 689.512 913.091 689.512C914.925 689.512 916.525 689.235 917.891 688.68C919.299 688.125 920.578 687.293 921.731 686.184L927.043 691.944C925.464 693.736 923.48 695.123 921.091 696.104C918.701 697.043 915.949 697.512 912.835 697.512ZM904.067 673.896C903.599 674.749 903.281 675.709 903.115 676.776H920.072C919.91 675.691 919.588 674.71 919.107 673.832C918.381 672.509 917.379 671.485 916.099 670.76C914.819 669.992 913.325 669.608 911.619 669.608C909.912 669.608 908.397 669.992 907.075 670.76C905.794 671.485 904.792 672.531 904.067 673.896ZM939.047 662.568H966.631V670.76H948.967V697H939.047V662.568ZM988.533 697.512C984.864 697.512 981.6 696.744 978.741 695.208C975.925 693.672 973.685 691.581 972.021 688.936C970.4 686.248 969.589 683.197 969.589 679.784C969.589 676.328 970.4 673.277 972.021 670.632C973.685 667.944 975.925 665.853 978.741 664.36C981.6 662.824 984.864 662.056 988.533 662.056C992.16 662.056 995.402 662.824 998.261 664.36C1001.12 665.853 1003.36 667.923 1004.98 670.568C1006.6 673.213 1007.41 676.285 1007.41 679.784C1007.41 683.197 1006.6 686.248 1004.98 688.936C1003.36 691.581 1001.12 693.672 998.261 695.208C995.402 696.744 992.16 697.512 988.533 697.512ZM988.533 689.32C990.197 689.32 991.69 688.936 993.013 688.168C994.336 687.4 995.381 686.312 996.149 684.904C996.917 683.453 997.301 681.747 997.301 679.784C997.301 677.779 996.917 676.072 996.149 674.664C995.381 673.256 994.336 672.168 993.013 671.4C991.69 670.632 990.197 670.248 988.533 670.248C986.869 670.248 985.376 670.632 984.053 671.4C982.73 672.168 981.664 673.256 980.853 674.664C980.085 676.072 979.701 677.779 979.701 679.784C979.701 681.747 980.085 683.453 980.853 684.904C981.664 686.312 982.73 687.4 984.053 688.168C985.376 688.936 986.869 689.32 988.533 689.32ZM226.184 775.512C222.472 775.512 219.165 774.765 216.264 773.272C213.363 771.736 211.08 769.624 209.416 766.936C207.795 764.248 206.984 761.197 206.984 757.784C206.984 754.328 207.795 751.277 209.416 748.632C211.08 745.944 213.363 743.853 216.264 742.36C219.165 740.824 222.472 740.056 226.184 740.056C229.811 740.056 232.968 740.824 235.656 742.36C238.344 743.853 240.328 746.008 241.608 748.824L233.864 752.984C232.968 751.363 231.837 750.168 230.472 749.4C229.149 748.632 227.699 748.248 226.12 748.248C224.413 748.248 222.877 748.632 221.512 749.4C220.147 750.168 219.059 751.256 218.248 752.664C217.48 754.072 217.096 755.779 217.096 757.784C217.096 759.789 217.48 761.496 218.248 762.904C219.059 764.312 220.147 765.4 221.512 766.168C222.877 766.936 224.413 767.32 226.12 767.32C227.699 767.32 229.149 766.957 230.472 766.232C231.837 765.464 232.968 764.248 233.864 762.584L241.608 766.808C240.328 769.581 238.344 771.736 235.656 773.272C232.968 774.765 229.811 775.512 226.184 775.512ZM256.893 775V748.76H245.244V740.568H278.46V748.76H266.812V775H256.893ZM300.393 775.512C296.724 775.512 293.46 774.744 290.601 773.208C287.785 771.672 285.545 769.581 283.881 766.936C282.26 764.248 281.449 761.197 281.449 757.784C281.449 754.328 282.26 751.277 283.881 748.632C285.545 745.944 287.785 743.853 290.601 742.36C293.46 740.824 296.724 740.056 300.393 740.056C304.02 740.056 307.262 740.824 310.121 742.36C312.98 743.853 315.22 745.923 316.841 748.568C318.462 751.213 319.273 754.285 319.273 757.784C319.273 761.197 318.462 764.248 316.841 766.936C315.22 769.581 312.98 771.672 310.121 773.208C307.262 774.744 304.02 775.512 300.393 775.512ZM300.393 767.32C302.057 767.32 303.55 766.936 304.873 766.168C306.196 765.4 307.241 764.312 308.009 762.904C308.777 761.453 309.161 759.747 309.161 757.784C309.161 755.779 308.777 754.072 308.009 752.664C307.241 751.256 306.196 750.168 304.873 749.4C303.55 748.632 302.057 748.248 300.393 748.248C298.729 748.248 297.236 748.632 295.913 749.4C294.59 750.168 293.524 751.256 292.713 752.664C291.945 754.072 291.561 755.779 291.561 757.784C291.561 759.747 291.945 761.453 292.713 762.904C293.524 764.312 294.59 765.4 295.913 766.168C297.236 766.936 298.729 767.32 300.393 767.32ZM323.208 774.936L323.72 766.744L324.488 766.872H325.192C326.387 766.872 327.325 766.531 328.008 765.848C328.691 765.165 329.203 764.248 329.544 763.096C329.885 761.901 330.12 760.557 330.248 759.064C330.419 757.571 330.547 756.013 330.632 754.392L331.144 740.568H360.584V775H350.6V748.76H339.715L339.4 754.84C339.272 757.912 339.016 760.728 338.632 763.288C338.291 765.848 337.715 768.067 336.904 769.944C336.093 771.779 335.005 773.208 333.64 774.232C332.275 775.213 330.525 775.704 328.392 775.704C327.624 775.704 326.813 775.64 325.96 775.512C325.107 775.384 324.189 775.192 323.208 774.936ZM392.713 775V770.721C391.961 771.985 390.937 773.006 389.641 773.784C387.721 774.936 385.246 775.512 382.217 775.512C379.529 775.512 377.225 775.064 375.305 774.168C373.385 773.229 371.913 771.971 370.889 770.392C369.865 768.813 369.353 767.043 369.353 765.08C369.353 763.032 369.844 761.24 370.825 759.704C371.849 758.168 373.449 756.973 375.625 756.12C377.801 755.224 380.638 754.776 384.137 754.776H392.073C392.073 752.643 391.412 750.979 390.089 749.784C388.809 748.589 386.825 747.992 384.137 747.992C382.302 747.992 380.489 748.291 378.697 748.888C376.948 749.443 375.454 750.211 374.217 751.192L370.633 744.216C372.51 742.893 374.772 741.869 377.417 741.144C380.062 740.419 382.75 740.056 385.481 740.056C390.729 740.056 394.804 741.293 397.705 743.768C400.606 746.243 402.057 750.104 402.057 755.352V775H392.713ZM392.073 760.6V764.12C391.476 765.656 390.516 766.829 389.193 767.64C387.87 768.408 386.377 768.792 384.713 768.792C382.964 768.792 381.577 768.429 380.553 767.704C379.572 766.936 379.081 765.912 379.081 764.632C379.081 763.48 379.508 762.52 380.361 761.752C381.257 760.984 382.878 760.6 385.225 760.6H392.073ZM1587.15 523.617C1590.18 524.769 1593.47 525.345 1597.01 525.345C1600.51 525.345 1603.73 524.769 1606.67 523.617C1609.66 522.465 1612.24 520.865 1614.42 518.817C1616.63 516.726 1618.36 514.273 1619.6 511.457C1620.84 508.598 1621.46 505.505 1621.46 502.177C1621.46 498.806 1620.84 495.734 1619.6 492.961C1618.36 490.145 1616.63 487.692 1614.42 485.601C1612.24 483.51 1609.66 481.889 1606.67 480.737C1603.73 479.585 1600.49 479.009 1596.94 479.009C1593.45 479.009 1590.2 479.585 1587.22 480.737C1584.23 481.889 1581.63 483.51 1579.41 485.601C1577.19 487.692 1575.46 490.145 1574.22 492.961C1573.03 495.777 1572.43 498.849 1572.43 502.177C1572.43 505.505 1573.03 508.577 1574.22 511.393C1575.46 514.209 1577.17 516.662 1579.34 518.753C1581.56 520.844 1584.17 522.465 1587.15 523.617ZM1602.45 515.489C1600.78 516.172 1598.95 516.513 1596.94 516.513C1594.94 516.513 1593.08 516.172 1591.38 515.489C1589.67 514.806 1588.18 513.825 1586.9 512.545C1585.66 511.265 1584.68 509.75 1583.95 508.001C1583.27 506.209 1582.93 504.268 1582.93 502.177C1582.93 500.044 1583.27 498.102 1583.95 496.353C1584.68 494.604 1585.68 493.089 1586.96 491.809C1588.24 490.529 1589.71 489.548 1591.38 488.865C1593.08 488.182 1594.94 487.841 1596.94 487.841C1598.95 487.841 1600.81 488.182 1602.51 488.865C1604.22 489.548 1605.69 490.529 1606.93 491.809C1608.21 493.089 1609.19 494.604 1609.87 496.353C1610.6 498.102 1610.96 500.044 1610.96 502.177C1610.96 504.31 1610.6 506.252 1609.87 508.001C1609.19 509.75 1608.21 511.265 1606.93 512.545C1605.65 513.825 1604.15 514.806 1602.45 515.489ZM1630.59 490.145V524.577H1648.96C1653.7 524.577 1657.22 523.702 1659.52 521.953C1661.83 520.204 1662.98 517.814 1662.98 514.785C1662.98 511.841 1661.93 509.601 1659.84 508.065C1659.04 507.461 1658.07 506.975 1656.93 506.609C1657.49 506.342 1658.01 506.038 1658.5 505.697C1660.8 504.076 1661.95 501.857 1661.95 499.041C1661.95 496.225 1660.74 494.049 1658.31 492.513C1655.88 490.934 1652.5 490.145 1648.19 490.145H1630.59ZM1648.13 517.793H1639.75V510.177H1648.32C1650.16 510.177 1651.5 510.497 1652.35 511.137C1653.21 511.734 1653.64 512.694 1653.64 514.017C1653.64 515.297 1653.17 516.257 1652.23 516.897C1651.33 517.494 1649.97 517.793 1648.13 517.793ZM1647.3 504.289H1639.75V496.929H1647.3C1649.05 496.929 1650.35 497.228 1651.2 497.825C1652.1 498.422 1652.55 499.34 1652.55 500.577C1652.55 501.772 1652.1 502.689 1651.2 503.329C1650.35 503.969 1649.05 504.289 1647.3 504.289ZM1678.66 522.785C1681.52 524.321 1684.79 525.089 1688.46 525.089C1692.08 525.089 1695.32 524.321 1698.18 522.785C1701.04 521.249 1703.28 519.158 1704.9 516.513C1706.52 513.825 1707.34 510.774 1707.34 507.361C1707.34 503.862 1706.52 500.79 1704.9 498.145C1703.28 495.5 1701.04 493.43 1698.18 491.937C1695.32 490.401 1692.08 489.633 1688.46 489.633C1684.79 489.633 1681.52 490.401 1678.66 491.937C1675.85 493.43 1673.61 495.521 1671.94 498.209C1670.32 500.854 1669.51 503.905 1669.51 507.361C1669.51 510.774 1670.32 513.825 1671.94 516.513C1673.61 519.158 1675.85 521.249 1678.66 522.785ZM1692.94 515.745C1691.61 516.513 1690.12 516.897 1688.46 516.897C1686.79 516.897 1685.3 516.513 1683.98 515.745C1682.65 514.977 1681.59 513.889 1680.78 512.481C1680.01 511.03 1679.62 509.324 1679.62 507.361C1679.62 505.356 1680.01 503.649 1680.78 502.241C1681.59 500.833 1682.65 499.745 1683.98 498.977C1685.3 498.209 1686.79 497.825 1688.46 497.825C1690.12 497.825 1691.61 498.209 1692.94 498.977C1694.26 499.745 1695.3 500.833 1696.07 502.241C1696.84 503.649 1697.22 505.356 1697.22 507.361C1697.22 509.324 1696.84 511.03 1696.07 512.481C1695.3 513.889 1694.26 514.977 1692.94 515.745ZM1737.43 516.385V490.145H1747.42V516.385H1758.49H1758.75V490.145H1768.67V516.385H1773.47V531.425H1764.19V524.577H1758.49H1716.12V490.145H1726.04V516.385H1737.43ZM1790.09 490.145H1780.17V524.577H1789.38L1806.09 504.097V524.577H1816.01V490.145H1806.86L1790.09 510.625V490.145ZM1605.2 599.693V604.561H1595.66V599.657C1591.39 599.4 1587.66 598.666 1584.46 597.457C1580.45 595.921 1577.4 593.702 1575.31 590.801C1573.22 587.857 1572.18 584.273 1572.18 580.049C1572.18 575.825 1573.22 572.262 1575.31 569.361C1577.4 566.417 1580.45 564.177 1584.46 562.641C1587.66 561.432 1591.39 560.698 1595.66 560.441V555.857H1605.2V560.428C1609.53 560.673 1613.28 561.41 1616.46 562.641C1620.47 564.177 1623.5 566.417 1625.55 569.361C1627.6 572.305 1628.62 575.868 1628.62 580.049C1628.62 584.188 1627.6 587.75 1625.55 590.737C1623.55 593.681 1620.58 595.921 1616.66 597.457C1613.44 598.73 1609.62 599.475 1605.2 599.693ZM1595.66 568.597C1593.58 568.792 1591.74 569.132 1590.16 569.617C1587.51 570.428 1585.53 571.708 1584.21 573.457C1582.89 575.164 1582.22 577.361 1582.22 580.049C1582.22 582.737 1582.93 584.956 1584.34 586.705C1585.74 588.412 1587.77 589.692 1590.42 590.545C1591.97 591.014 1593.72 591.348 1595.66 591.545V568.597ZM1605.2 568.568V591.59C1607.37 591.392 1609.27 591.022 1610.9 590.481C1613.5 589.585 1615.44 588.284 1616.72 586.577C1618 584.828 1618.64 582.63 1618.64 579.985C1618.64 577.34 1617.98 575.164 1616.66 573.457C1615.33 571.75 1613.39 570.492 1610.83 569.681C1609.22 569.136 1607.35 568.765 1605.2 568.568ZM1650.2 601.169C1652.38 602.449 1654.92 603.089 1657.82 603.089C1661.06 603.089 1663.96 602.364 1666.52 600.913C1669.13 599.462 1671.18 597.414 1672.67 594.769C1674.2 592.124 1674.97 588.988 1674.97 585.361C1674.97 581.777 1674.2 578.662 1672.67 576.017C1671.18 573.372 1669.13 571.324 1666.52 569.873C1663.96 568.38 1661.06 567.633 1657.82 567.633C1654.79 567.633 1652.19 568.273 1650.01 569.553C1648.87 570.226 1647.87 571.082 1647 572.121V568.145H1637.47V614.993H1647.45V598.932C1648.27 599.823 1649.18 600.569 1650.2 601.169ZM1660.51 593.745C1659.23 594.513 1657.76 594.897 1656.09 594.897C1654.43 594.897 1652.94 594.513 1651.61 593.745C1650.29 592.977 1649.24 591.889 1648.48 590.481C1647.71 589.03 1647.32 587.324 1647.32 585.361C1647.32 583.356 1647.71 581.649 1648.48 580.241C1649.24 578.833 1650.29 577.745 1651.61 576.977C1652.94 576.209 1654.43 575.825 1656.09 575.825C1657.76 575.825 1659.23 576.209 1660.51 576.977C1661.83 577.745 1662.88 578.833 1663.64 580.241C1664.46 581.649 1664.86 583.356 1664.86 585.361C1664.86 587.324 1664.46 589.03 1663.64 590.481C1662.88 591.889 1661.83 592.977 1660.51 593.745ZM1682.31 614.673C1684.06 615.228 1685.83 615.505 1687.62 615.505C1689.72 615.505 1691.61 615.185 1693.32 614.545C1695.07 613.905 1696.65 612.796 1698.06 611.217C1699.51 609.638 1700.79 607.462 1701.9 604.689L1717.45 568.145H1707.85L1698.12 591.529L1688.46 568.145H1678.15L1693.06 602.865L1692.94 603.153C1692.25 604.689 1691.49 605.777 1690.63 606.417C1689.82 607.1 1688.71 607.441 1687.3 607.441C1686.32 607.441 1685.32 607.249 1684.3 606.865C1683.32 606.481 1682.44 605.948 1681.67 605.265L1678.02 612.369C1679.13 613.35 1680.56 614.118 1682.31 614.673ZM1739.35 589.521L1748.57 602.577H1760.34L1747.48 584.666L1759.51 568.145H1748.89L1739.56 581.521H1734.17V568.145H1724.18V602.577H1734.17V589.521H1739.35ZM1774.21 576.337V602.577H1784.14V576.337H1795.78V568.145H1762.57V576.337H1774.21ZM1848.4 568.145H1838.48V602.577H1848.4V568.145ZM1831.31 582.225C1829.05 580.22 1825.66 579.196 1821.14 579.153H1812.94V568.145H1803.03V602.577L1819.79 602.641C1824.57 602.641 1828.26 601.596 1830.86 599.505C1833.47 597.372 1834.77 594.406 1834.77 590.609C1834.77 586.982 1833.62 584.188 1831.31 582.225ZM1823.31 594.321C1822.29 595.174 1820.82 595.58 1818.9 595.537H1812.94V585.553L1818.9 585.617C1820.82 585.66 1822.29 586.065 1823.31 586.833C1824.34 587.558 1824.85 588.774 1824.85 590.481C1824.85 592.188 1824.34 593.468 1823.31 594.321ZM1601.1 668.673V680.577H1611.34V635.777H1592.02C1588.09 635.777 1584.68 636.438 1581.78 637.761C1578.87 639.084 1576.61 641.004 1574.99 643.521C1573.41 645.996 1572.62 648.982 1572.62 652.481C1572.62 655.852 1573.37 658.753 1574.86 661.185C1576.36 663.617 1578.51 665.473 1581.33 666.753C1581.58 666.869 1581.84 666.979 1582.11 667.085L1572.75 680.577H1583.7L1591.62 668.673H1601.1ZM1601.1 660.481V644.225H1592.27C1589.33 644.225 1587.07 644.908 1585.49 646.273C1583.95 647.638 1583.18 649.665 1583.18 652.353C1583.18 654.956 1583.93 656.961 1585.42 658.369C1586.92 659.777 1589.11 660.481 1592.02 660.481H1601.1ZM1623.72 646.145V680.577H1633.64V654.337H1651.3V646.145H1623.72ZM1663.41 678.785C1666.27 680.321 1669.54 681.089 1673.21 681.089C1676.83 681.089 1680.07 680.321 1682.93 678.785C1685.79 677.249 1688.03 675.158 1689.65 672.513C1691.27 669.825 1692.09 666.774 1692.09 663.361C1692.09 659.862 1691.27 656.79 1689.65 654.145C1688.03 651.5 1685.79 649.43 1682.93 647.937C1680.07 646.401 1676.83 645.633 1673.21 645.633C1669.54 645.633 1666.27 646.401 1663.41 647.937C1660.6 649.43 1658.36 651.521 1656.69 654.209C1655.07 656.854 1654.26 659.905 1654.26 663.361C1654.26 666.774 1655.07 669.825 1656.69 672.513C1658.36 675.158 1660.6 677.249 1663.41 678.785ZM1677.69 671.745C1676.36 672.513 1674.87 672.897 1673.21 672.897C1671.54 672.897 1670.05 672.513 1668.73 671.745C1667.4 670.977 1666.34 669.889 1665.53 668.481C1664.76 667.03 1664.37 665.324 1664.37 663.361C1664.37 661.356 1664.76 659.649 1665.53 658.241C1666.34 656.833 1667.4 655.745 1668.73 654.977C1670.05 654.209 1671.54 653.825 1673.21 653.825C1674.87 653.825 1676.36 654.209 1677.69 654.977C1679.01 655.745 1680.05 656.833 1680.82 658.241C1681.59 659.649 1681.97 661.356 1681.97 663.361C1681.97 665.324 1681.59 667.03 1680.82 668.481C1680.05 669.889 1679.01 670.977 1677.69 671.745ZM1734.04 672.385H1738.96V688.001H1729.68V680.577H1705.49V688.001H1696.21V672.385H1697.36C1698.6 672.385 1699.6 672.022 1700.37 671.297C1701.14 670.529 1701.74 669.484 1702.16 668.161C1702.59 666.796 1702.91 665.26 1703.12 663.553C1703.34 661.804 1703.49 659.969 1703.57 658.049L1704.02 646.145H1734.04V672.385ZM1724.05 672.385V654.337H1712.79L1712.6 658.753C1712.51 660.588 1712.4 662.337 1712.28 664.001C1712.15 665.665 1711.89 667.18 1711.51 668.545C1711.17 669.868 1710.66 670.998 1709.97 671.937C1709.85 672.095 1709.72 672.244 1709.59 672.385H1724.05ZM1792.54 646.145H1782.62V680.577H1792.54V646.145ZM1775.46 660.225C1773.19 658.22 1769.8 657.196 1765.28 657.153H1757.09V646.145H1747.17V680.577L1763.94 680.641C1768.71 680.641 1772.4 679.596 1775.01 677.505C1777.61 675.372 1778.91 672.406 1778.91 668.609C1778.91 664.982 1777.76 662.188 1775.46 660.225ZM1767.46 672.321C1766.43 673.174 1764.96 673.58 1763.04 673.537H1757.09V663.553L1763.04 663.617C1764.96 663.66 1766.43 664.065 1767.46 664.833C1768.48 665.558 1768.99 666.774 1768.99 668.481C1768.99 670.188 1768.48 671.468 1767.46 672.321Z" fill="#F6F6F6"/>
<path d="M8 94.4648C8 68.1423 29.1402 46.6996 55.46 46.3257L747 36.5L1417.19 119.72L1821.1 224.676C1828.32 226.553 1833.74 232.544 1834.88 239.919V239.919C1836.43 249.935 1828.94 259.079 1818.82 259.536L1469.76 275.282C1385.62 279.078 1301.33 271.84 1219.07 253.753L883.035 179.875C831.734 168.596 779.496 162.108 726.994 160.495L402.733 150.53C328.289 148.242 253.91 156.864 181.963 176.12L131.856 189.531C69.3585 206.258 8 159.162 8 94.4648V94.4648Z" fill="#F6F6F6" fill-opacity="0.22"/>
<path d="M0.90032 450.084C-2.26898 349 102.077 279.942 193.883 322.366L957.306 675.144C1048.46 717.267 1154.58 711.431 1240.56 659.566L1292.17 628.44C1341 598.985 1404.22 611.459 1438.21 657.256V657.256C1482.37 716.765 1555.83 746.956 1629.07 735.698L1967.26 683.717C2004.39 678.011 2033.99 714.282 2020.95 749.51V749.51C2015.73 763.625 2014.01 778.798 2015.95 793.723L2016.91 801.079C2021.66 837.604 1992.35 869.595 1955.55 868.059L1683.87 856.715C1593.12 852.926 1502.32 862.605 1414.41 885.436V885.436C1310.31 912.474 1201.26 914.251 1096.33 890.618L872.809 840.275C820.08 828.399 766.335 821.591 712.309 819.945L343.648 808.713C297.038 807.293 250.386 809.205 204.048 814.436V814.436C101.135 826.052 10.2205 747.349 6.97495 643.833L0.90032 450.084Z" fill="#F6F6F6" fill-opacity="0.22"/>
</svg>
