<svg width="2131" height="965" viewBox="0 0 2131 965" fill="none" xmlns="http://www.w3.org/2000/svg">
<path fill-rule="evenodd" clip-rule="evenodd" d="M86 404.141V67.9972L133.222 63.8528C176.232 60.0781 219.547 61.8028 262.121 68.9851L431.182 97.5063C589.715 124.251 751.063 130.184 911.132 115.153L1166.31 91.1923C1271.55 81.3099 1377.67 86.6748 1481.38 107.121L1535.85 117.859C1560.24 122.668 1584.99 125.409 1609.84 126.053L1939.5 134.595C1943.72 134.705 1947.89 134.596 1952 134.28V513.854C1948.78 514.669 1945.43 515.098 1942 515.098H1906.11C1895.01 515.098 1885.18 522.243 1881.75 532.798C1878.32 543.352 1868.49 550.498 1857.39 550.498H1846.19C1835.02 550.498 1825.09 543.379 1821.5 532.798C1817.91 522.217 1807.98 515.098 1796.81 515.098H1774.36C1763.03 515.098 1752.9 522.165 1749 532.798C1745.1 543.43 1734.97 550.498 1723.64 550.498H1718.19C1707.02 550.498 1697.09 543.379 1693.5 532.798C1689.91 522.217 1679.98 515.098 1668.81 515.098H1643.36C1632.03 515.098 1621.9 522.165 1618 532.798C1614.1 543.43 1603.97 550.498 1592.64 550.498H1586.63C1575.17 550.498 1564.95 543.269 1561.13 532.458C1557.43 521.983 1547.7 514.835 1536.6 514.436L1522.3 513.922C1495.64 512.963 1473.5 534.319 1473.5 561V633.5V636.181C1473.5 698.037 1423.36 748.181 1361.5 748.181H1257H1129H930.5H793H738.955C669.392 748.181 613 691.789 613 622.226V616.617C613 561.236 574.766 513.188 520.8 500.75C493.482 494.453 469.267 478.707 452.431 456.29L450.189 453.306C415.238 406.771 353.478 389.367 299.372 410.805L277.964 419.288C248.026 431.15 215.195 433.66 183.801 426.487L86 404.141ZM833.76 492.16C835.04 492.747 836.027 493.6 836.72 494.72H855.44C854.587 488.587 851.813 483.733 847.12 480.16C842.48 476.587 836.453 474.8 829.04 474.8C823.227 474.8 818.16 476.027 813.84 478.48C809.52 480.88 806.187 484.267 803.84 488.64C801.547 493.013 800.4 498 800.4 503.6C800.4 509.2 801.547 514.187 803.84 518.56C806.187 522.933 809.52 526.347 813.84 528.8C818.213 531.2 823.333 532.4 829.2 532.4C835.813 532.4 841.28 530.907 845.6 527.92C849.92 524.88 853.307 521.253 855.76 517.04V499.28H826.88V511.84H841.04C838.533 515.147 835.227 516.8 831.12 516.8C826.8 516.8 823.6 515.707 821.52 513.52C819.44 511.333 818.4 508.027 818.4 503.6C818.4 499.76 819.333 496.747 821.2 494.56C823.067 492.32 825.707 491.2 829.12 491.2C830.933 491.2 832.48 491.52 833.76 492.16ZM890.396 532L893.196 523.44H912.076L914.876 532H933.596L912.956 475.36H892.476L871.756 532H890.396ZM902.636 494.32L907.756 510.08H897.516L902.636 494.32ZM969.071 511.68L979.711 532H999.231L986.911 510.32C990.858 509.04 993.871 506.933 995.951 504C998.085 501.067 999.151 497.707 999.151 493.92C999.151 490.4 998.325 487.253 996.671 484.48C995.071 481.653 992.645 479.44 989.391 477.84C986.138 476.187 982.218 475.36 977.631 475.36H951.231V532H968.991V511.68H969.071ZM976.031 499.84H968.991V490.24H976.031C977.685 490.24 978.938 490.667 979.791 491.52C980.698 492.373 981.151 493.547 981.151 495.04C981.151 496.693 980.725 497.92 979.871 498.72C979.018 499.467 977.738 499.84 976.031 499.84ZM1057.54 478.96C1053.12 476.56 1047.95 475.36 1042.03 475.36H1018.42V532H1042.03C1047.95 532 1053.12 530.773 1057.54 528.32C1062.03 525.813 1065.47 522.4 1067.86 518.08C1070.27 513.76 1071.47 508.907 1071.47 503.52C1071.47 498.08 1070.27 493.227 1067.86 488.96C1065.47 484.693 1062.03 481.36 1057.54 478.96ZM1049.95 512.88C1047.6 515.067 1044.42 516.16 1040.42 516.16H1036.18V490.88H1040.42C1044.42 490.88 1047.6 491.973 1049.95 494.16C1052.29 496.347 1053.47 499.467 1053.47 503.52C1053.47 507.573 1052.29 510.693 1049.95 512.88ZM1109.24 496.48V489.52H1129.24V475.36H1091.48V532H1129.24V517.84H1109.24V509.84H1126.84V496.48H1109.24ZM1186.09 532H1203.85V475.36H1186.09V504.32L1167.29 475.36H1149.53V532H1167.29V503.52L1186.09 532ZM773.469 430.378C773.234 434.174 775.382 437.539 778.589 439.065C779.878 439.782 781.365 440.192 782.957 440.192H789.832C791.633 440.192 793.301 439.667 794.699 438.766C797.572 437.134 799.45 433.97 799.248 430.421L797.901 406.776C799.245 406.911 800.608 406.98 801.987 406.98C824.432 406.98 842.628 388.662 842.628 366.065C842.628 348.603 831.762 333.696 816.467 327.822C817.053 325.471 817.365 323.012 817.365 320.481C817.365 303.647 803.595 290 786.609 290C769.624 290 755.854 303.647 755.854 320.481C755.854 321.163 755.877 321.841 755.921 322.512C737.385 328.597 724 346.042 724 366.614C724 392.244 744.777 413.021 770.408 413.021C771.804 413.021 773.186 412.96 774.551 412.839L773.469 430.378ZM1207.57 413.021C1208.97 413.021 1210.35 412.96 1211.72 412.839L1210.63 430.378C1210.31 435.557 1214.43 439.932 1219.62 439.932H1227.43C1232.6 439.932 1236.71 435.584 1236.41 430.421L1234.92 404.116C1235.83 403.445 1236.73 402.742 1237.59 402.008C1238.11 402.027 1238.63 402.037 1239.15 402.037C1261.6 402.037 1279.79 383.719 1279.79 361.122C1279.79 341.422 1265.96 324.973 1247.55 321.08C1245.18 306.572 1232.49 295.492 1217.18 295.492C1200.43 295.492 1186.8 308.77 1186.44 325.288C1171.43 332.977 1161.17 348.596 1161.17 366.614C1161.17 392.244 1181.94 413.021 1207.57 413.021ZM944.88 312.257C945.131 307.477 949.081 303.73 953.867 303.73H974.101C978.902 303.73 982.857 307.498 983.09 312.293L985.718 366.386H986.757C991.175 366.386 994.757 369.968 994.757 374.386V374.862C994.757 379.281 991.175 382.862 986.757 382.862H986.519L988.806 429.946C989.056 435.083 984.959 439.383 979.817 439.383H947.675C942.519 439.383 938.417 435.059 938.688 429.91L941.164 382.862H925.368L927.655 429.946C927.905 435.083 923.808 439.383 918.666 439.383H886.524C881.368 439.383 877.266 435.059 877.537 429.91L880.013 382.862H874.793C870.374 382.862 866.793 379.281 866.793 374.862V374.386C866.793 369.968 870.374 366.386 874.793 366.386H880.88L883.729 312.257C883.98 307.477 887.93 303.73 892.716 303.73H912.95C917.751 303.73 921.707 307.498 921.939 312.293L924.567 366.386H942.031L944.88 312.257ZM1091.57 303.73C1086.79 303.73 1082.84 307.477 1082.59 312.257L1080.69 348.215H1062.43L1060.68 312.293C1060.45 307.498 1056.49 303.73 1051.69 303.73H1031.46C1026.67 303.73 1022.72 307.477 1022.47 312.257L1020.58 348.215H1015.39C1010.97 348.215 1007.39 351.797 1007.39 356.215V356.692C1007.39 361.11 1010.97 364.692 1015.39 364.692H1019.71L1016.28 429.91C1016.01 435.059 1020.11 439.383 1025.27 439.383H1057.41C1062.55 439.383 1066.65 435.082 1066.4 429.946L1063.23 364.692H1079.83L1076.39 429.91C1076.12 435.059 1080.22 439.383 1085.38 439.383H1117.52C1122.66 439.383 1126.76 435.083 1126.51 429.946L1123.34 364.692H1127.35C1131.77 364.692 1135.35 361.11 1135.35 356.692V356.215C1135.35 351.797 1131.77 348.215 1127.35 348.215H1122.54L1120.8 312.293C1120.56 307.498 1116.61 303.73 1111.81 303.73H1091.57ZM236.064 639.576C233.472 639.576 231.056 639.16 228.816 638.328C226.608 637.464 224.688 636.248 223.056 634.68C221.424 633.112 220.144 631.272 219.216 629.16C218.32 627.048 217.872 624.728 217.872 622.2C217.872 619.672 218.32 617.352 219.216 615.24C220.144 613.128 221.424 611.288 223.056 609.72C224.72 608.152 226.656 606.952 228.864 606.12C231.072 605.256 233.488 604.824 236.112 604.824C239.024 604.824 241.648 605.336 243.984 606.36C246.352 607.352 248.336 608.824 249.936 610.776L244.944 615.384C243.792 614.072 242.512 613.096 241.104 612.456C239.696 611.784 238.16 611.448 236.496 611.448C234.928 611.448 233.488 611.704 232.176 612.216C230.864 612.728 229.728 613.464 228.768 614.424C227.808 615.384 227.056 616.52 226.512 617.832C226 619.144 225.744 620.6 225.744 622.2C225.744 623.8 226 625.256 226.512 626.568C227.056 627.88 227.808 629.016 228.768 629.976C229.728 630.936 230.864 631.672 232.176 632.184C233.488 632.696 234.928 632.952 236.496 632.952C238.16 632.952 239.696 632.632 241.104 631.992C242.512 631.32 243.792 630.312 244.944 628.968L249.936 633.576C248.336 635.528 246.352 637.016 243.984 638.04C241.648 639.064 239.008 639.576 236.064 639.576ZM282.998 639.384C280.246 639.384 277.798 638.808 275.654 637.656C273.542 636.504 271.862 634.936 270.614 632.952C269.398 630.936 268.79 628.648 268.79 626.088C268.79 623.496 269.398 621.208 270.614 619.224C271.862 617.208 273.542 615.64 275.654 614.52C277.798 613.368 280.246 612.792 282.998 612.792C285.718 612.792 288.15 613.368 290.294 614.52C292.438 615.64 294.118 617.192 295.334 619.176C296.55 621.16 297.158 623.464 297.158 626.088C297.158 628.648 296.55 630.936 295.334 632.952C294.118 634.936 292.438 636.504 290.294 637.656C288.15 638.808 285.718 639.384 282.998 639.384ZM282.998 633.24C284.246 633.24 285.366 632.952 286.358 632.376C287.35 631.8 288.134 630.984 288.71 629.928C289.286 628.84 289.574 627.56 289.574 626.088C289.574 624.584 289.286 623.304 288.71 622.248C288.134 621.192 287.35 620.376 286.358 619.8C285.366 619.224 284.246 618.936 282.998 618.936C281.75 618.936 280.63 619.224 279.638 619.8C278.646 620.376 277.846 621.192 277.238 622.248C276.662 623.304 276.374 624.584 276.374 626.088C276.374 627.56 276.662 628.84 277.238 629.928C277.846 630.984 278.646 631.8 279.638 632.376C280.63 632.952 281.75 633.24 282.998 633.24ZM303.748 613.176H324.436V619.32H311.188V639H303.748V613.176ZM340.862 639.384C338.11 639.384 335.662 638.808 333.518 637.656C331.406 636.504 329.726 634.936 328.478 632.952C327.262 630.936 326.654 628.648 326.654 626.088C326.654 623.496 327.262 621.208 328.478 619.224C329.726 617.208 331.406 615.64 333.518 614.52C335.662 613.368 338.11 612.792 340.862 612.792C343.582 612.792 346.014 613.368 348.158 614.52C350.302 615.64 351.982 617.192 353.198 619.176C354.414 621.16 355.022 623.464 355.022 626.088C355.022 628.648 354.414 630.936 353.198 632.952C351.982 634.936 350.302 636.504 348.158 637.656C346.014 638.808 343.582 639.384 340.862 639.384ZM340.862 633.24C342.11 633.24 343.23 632.952 344.222 632.376C345.214 631.8 345.998 630.984 346.574 629.928C347.15 628.84 347.438 627.56 347.438 626.088C347.438 624.584 347.15 623.304 346.574 622.248C345.998 621.192 345.214 620.376 344.222 619.8C343.23 619.224 342.11 618.936 340.862 618.936C339.614 618.936 338.494 619.224 337.502 619.8C336.51 620.376 335.71 621.192 335.102 622.248C334.526 623.304 334.238 624.584 334.238 626.088C334.238 627.56 334.526 628.84 335.102 629.928C335.71 630.984 336.51 631.8 337.502 632.376C338.494 632.952 339.614 633.24 340.862 633.24ZM376.828 639.384C374.652 639.384 372.749 638.904 371.116 637.944C370.351 637.494 369.663 636.934 369.052 636.266V648.312H361.564V613.176H368.716V616.158C369.362 615.379 370.114 614.737 370.973 614.232C372.604 613.272 374.556 612.792 376.828 612.792C379.26 612.792 381.436 613.352 383.357 614.472C385.309 615.56 386.845 617.096 387.965 619.08C389.116 621.064 389.693 623.4 389.693 626.088C389.693 628.808 389.116 631.16 387.965 633.144C386.845 635.128 385.309 636.664 383.357 637.752C381.436 638.84 379.26 639.384 376.828 639.384ZM375.533 633.24C376.78 633.24 377.884 632.952 378.844 632.376C379.836 631.8 380.62 630.984 381.197 629.928C381.805 628.84 382.108 627.56 382.108 626.088C382.108 624.584 381.805 623.304 381.197 622.248C380.62 621.192 379.836 620.376 378.844 619.8C377.884 619.224 376.78 618.936 375.533 618.936C374.284 618.936 373.164 619.224 372.172 619.8C371.181 620.376 370.396 621.192 369.82 622.248C369.245 623.304 368.957 624.584 368.957 626.088C368.957 627.56 369.245 628.84 369.82 629.928C370.396 630.984 371.181 631.8 372.172 632.376C373.164 632.952 374.284 633.24 375.533 633.24ZM408.477 639.384C405.725 639.384 403.277 638.808 401.133 637.656C399.021 636.504 397.341 634.936 396.093 632.952C394.877 630.936 394.269 628.648 394.269 626.088C394.269 623.496 394.877 621.208 396.093 619.224C397.341 617.208 399.021 615.64 401.133 614.52C403.277 613.368 405.725 612.792 408.477 612.792C411.197 612.792 413.629 613.368 415.773 614.52C417.917 615.64 419.597 617.192 420.813 619.176C422.029 621.16 422.637 623.464 422.637 626.088C422.637 628.648 422.029 630.936 420.813 632.952C419.597 634.936 417.917 636.504 415.773 637.656C413.629 638.808 411.197 639.384 408.477 639.384ZM408.477 633.24C409.725 633.24 410.845 632.952 411.837 632.376C412.829 631.8 413.613 630.984 414.189 629.928C414.765 628.84 415.053 627.56 415.053 626.088C415.053 624.584 414.765 623.304 414.189 622.248C413.613 621.192 412.829 620.376 411.837 619.8C410.845 619.224 409.725 618.936 408.477 618.936C407.229 618.936 406.109 619.224 405.117 619.8C404.125 620.376 403.325 621.192 402.717 622.248C402.141 623.304 401.853 624.584 401.853 626.088C401.853 627.56 402.141 628.84 402.717 629.928C403.325 630.984 404.125 631.8 405.117 632.376C406.109 632.952 407.229 633.24 408.477 633.24ZM457.796 632.856H454.1V613.176H431.588L431.252 622.104C431.188 623.544 431.076 624.92 430.916 626.232C430.756 627.512 430.516 628.664 430.196 629.688C429.876 630.68 429.428 631.464 428.852 632.04C428.276 632.584 427.524 632.856 426.596 632.856H425.732V644.568H432.692V639H450.836V644.568H457.796V632.856ZM438.164 619.32H446.612V632.856H435.765C435.866 632.75 435.962 632.638 436.052 632.52C436.564 631.816 436.948 630.968 437.204 629.976C437.492 628.952 437.684 627.816 437.78 626.568C437.876 625.32 437.956 624.008 438.02 622.632L438.164 619.32ZM479.404 639V635.791C478.84 636.739 478.072 637.505 477.1 638.088C475.66 638.952 473.804 639.384 471.532 639.384C469.516 639.384 467.788 639.048 466.348 638.376C464.908 637.672 463.804 636.728 463.036 635.544C462.268 634.36 461.884 633.032 461.884 631.56C461.884 630.024 462.252 628.68 462.988 627.528C463.756 626.376 464.956 625.48 466.588 624.84C468.22 624.168 470.348 623.832 472.972 623.832H478.924C478.924 622.232 478.428 620.984 477.436 620.088C476.476 619.192 474.988 618.744 472.972 618.744C471.596 618.744 470.236 618.968 468.892 619.416C467.58 619.832 466.46 620.408 465.532 621.144L462.844 615.912C464.252 614.92 465.948 614.152 467.932 613.608C469.916 613.064 471.932 612.792 473.98 612.792C477.916 612.792 480.972 613.72 483.148 615.576C485.324 617.432 486.412 620.328 486.412 624.264V639H479.404ZM478.924 628.2V630.84C478.476 631.992 477.756 632.872 476.764 633.48C475.772 634.056 474.652 634.344 473.404 634.344C472.092 634.344 471.052 634.072 470.284 633.528C469.548 632.952 469.18 632.184 469.18 631.224C469.18 630.36 469.5 629.64 470.14 629.064C470.812 628.488 472.028 628.2 473.788 628.2H478.924ZM538.335 632.856H534.639V613.176H512.127L511.791 622.104C511.727 623.544 511.615 624.92 511.455 626.232C511.295 627.512 511.055 628.664 510.735 629.688C510.415 630.68 509.967 631.464 509.391 632.04C508.815 632.584 508.063 632.856 507.135 632.856H506.271V644.568H513.231V639H531.375V644.568H538.335V632.856ZM518.703 619.32H527.151V632.856H516.303C516.405 632.75 516.5 632.638 516.591 632.52C517.103 631.816 517.487 630.968 517.743 629.976C518.031 628.952 518.223 627.816 518.319 626.568C518.415 625.32 518.495 624.008 518.559 622.632L518.703 619.32ZM541.223 638.952L541.607 632.808L542.183 632.904H542.711C543.607 632.904 544.311 632.648 544.823 632.136C545.335 631.624 545.719 630.936 545.975 630.072C546.231 629.176 546.407 628.168 546.503 627.048C546.631 625.928 546.727 624.76 546.791 623.544L547.175 613.176H569.255V639H561.767V619.32H553.603L553.367 623.88C553.271 626.184 553.079 628.296 552.791 630.216C552.535 632.136 552.103 633.8 551.495 635.208C550.887 636.584 550.071 637.656 549.047 638.424C548.023 639.16 546.711 639.528 545.111 639.528C544.535 639.528 543.927 639.48 543.287 639.384C542.647 639.288 541.959 639.144 541.223 638.952ZM594.168 639V631.608H588.656L583.752 639H575.784L581.667 630.566C580.804 630.227 580.027 629.807 579.336 629.304C577.224 627.768 576.168 625.56 576.168 622.68C576.168 619.608 577.272 617.256 579.48 615.624C581.72 613.992 584.728 613.176 588.504 613.176H600.84V639H594.168ZM594.168 619.272V626.616H588.552C585.384 626.616 583.8 625.384 583.8 622.92C583.8 621.64 584.216 620.712 585.048 620.136C585.912 619.56 587.112 619.272 588.648 619.272H594.168ZM624.51 613.176H637.71C640.942 613.176 643.47 613.768 645.294 614.952C647.118 616.104 648.03 617.736 648.03 619.848C648.03 621.96 647.166 623.624 645.438 624.84C645.072 625.095 644.68 625.323 644.262 625.524C645.114 625.799 645.842 626.163 646.446 626.616C648.014 627.768 648.798 629.448 648.798 631.656C648.798 633.928 647.934 635.72 646.206 637.032C644.478 638.344 641.838 639 638.286 639H624.51V613.176ZM631.374 633.912H637.662C639.038 633.912 640.062 633.688 640.734 633.24C641.438 632.76 641.79 632.04 641.79 631.08C641.79 630.088 641.47 629.368 640.83 628.92C640.19 628.44 639.182 628.2 637.806 628.2H631.374V633.912ZM631.374 623.784H637.038C638.35 623.784 639.326 623.544 639.966 623.064C640.638 622.584 640.974 621.896 640.974 621C640.974 620.072 640.638 619.384 639.966 618.936C639.326 618.488 638.35 618.264 637.038 618.264H631.374V623.784ZM671.265 639V635.791C670.702 636.739 669.934 637.505 668.961 638.088C667.521 638.952 665.665 639.384 663.393 639.384C661.377 639.384 659.649 639.048 658.209 638.376C656.769 637.672 655.665 636.728 654.897 635.544C654.129 634.36 653.745 633.032 653.745 631.56C653.745 630.024 654.113 628.68 654.849 627.528C655.617 626.376 656.817 625.48 658.449 624.84C660.081 624.168 662.209 623.832 664.833 623.832H670.785C670.785 622.232 670.289 620.984 669.297 620.088C668.337 619.192 666.849 618.744 664.833 618.744C663.457 618.744 662.097 618.968 660.753 619.416C659.441 619.832 658.321 620.408 657.393 621.144L654.705 615.912C656.113 614.92 657.809 614.152 659.793 613.608C661.777 613.064 663.793 612.792 665.841 612.792C669.777 612.792 672.833 613.72 675.009 615.576C677.185 617.432 678.273 620.328 678.273 624.264V639H671.265ZM670.785 628.2V630.84C670.337 631.992 669.617 632.872 668.625 633.48C667.633 634.056 666.513 634.344 665.265 634.344C663.953 634.344 662.913 634.072 662.145 633.528C661.409 632.952 661.041 632.184 661.041 631.224C661.041 630.36 661.361 629.64 662.001 629.064C662.673 628.488 663.889 628.2 665.649 628.2H670.785ZM702.202 613.176V632.856H693.658V613.176H686.218V639H725.626V613.176H718.186V632.856H709.69V613.176H702.202ZM746.876 639.384C743.932 639.384 741.34 638.808 739.1 637.656C736.892 636.504 735.18 634.936 733.964 632.952C732.748 630.936 732.14 628.648 732.14 626.088C732.14 623.496 732.732 621.208 733.916 619.224C735.132 617.208 736.78 615.64 738.86 614.52C740.94 613.368 743.292 612.792 745.916 612.792C748.444 612.792 750.716 613.336 752.732 614.424C754.78 615.48 756.396 617.016 757.58 619.032C758.764 621.016 759.356 623.4 759.356 626.184C759.356 626.472 759.34 626.808 759.308 627.192C759.276 627.544 759.244 627.88 759.212 628.2H739.673C739.824 628.887 740.065 629.527 740.396 630.12C741.036 631.176 741.916 631.992 743.036 632.568C744.188 633.112 745.532 633.384 747.068 633.384C748.444 633.384 749.644 633.176 750.668 632.76C751.724 632.344 752.684 631.72 753.548 630.888L757.532 635.208C756.348 636.552 754.86 637.592 753.068 638.328C751.276 639.032 749.212 639.384 746.876 639.384ZM740.3 621.672C739.949 622.312 739.711 623.032 739.587 623.832H752.304C752.182 623.018 751.941 622.282 751.58 621.624C751.036 620.632 750.284 619.864 749.324 619.32C748.364 618.744 747.244 618.456 745.964 618.456C744.684 618.456 743.548 618.744 742.556 619.32C741.596 619.864 740.844 620.648 740.3 621.672ZM766.536 613.176H787.224V619.32H773.976V639H766.536V613.176ZM803.65 639.384C800.898 639.384 798.45 638.808 796.306 637.656C794.194 636.504 792.514 634.936 791.266 632.952C790.05 630.936 789.442 628.648 789.442 626.088C789.442 623.496 790.05 621.208 791.266 619.224C792.514 617.208 794.194 615.64 796.306 614.52C798.45 613.368 800.898 612.792 803.65 612.792C806.37 612.792 808.802 613.368 810.946 614.52C813.09 615.64 814.77 617.192 815.986 619.176C817.202 621.16 817.81 623.464 817.81 626.088C817.81 628.648 817.202 630.936 815.986 632.952C814.77 634.936 813.09 636.504 810.946 637.656C808.802 638.808 806.37 639.384 803.65 639.384ZM803.65 633.24C804.898 633.24 806.018 632.952 807.01 632.376C808.002 631.8 808.786 630.984 809.362 629.928C809.938 628.84 810.226 627.56 810.226 626.088C810.226 624.584 809.938 623.304 809.362 622.248C808.786 621.192 808.002 620.376 807.01 619.8C806.018 619.224 804.898 618.936 803.65 618.936C802.402 618.936 801.282 619.224 800.29 619.8C799.298 620.376 798.498 621.192 797.89 622.248C797.314 623.304 797.026 624.584 797.026 626.088C797.026 627.56 797.314 628.84 797.89 629.928C798.498 630.984 799.298 631.8 800.29 632.376C801.282 632.952 802.402 633.24 803.65 633.24ZM231.888 698.384C229.104 698.384 226.624 697.824 224.448 696.704C222.272 695.552 220.56 693.968 219.312 691.952C218.096 689.936 217.488 687.648 217.488 685.088C217.488 682.496 218.096 680.208 219.312 678.224C220.56 676.208 222.272 674.64 224.448 673.52C226.624 672.368 229.104 671.792 231.888 671.792C234.608 671.792 236.976 672.368 238.992 673.52C241.008 674.64 242.496 676.256 243.456 678.368L237.648 681.488C236.976 680.272 236.128 679.376 235.104 678.8C234.112 678.224 233.024 677.936 231.84 677.936C230.56 677.936 229.408 678.224 228.384 678.8C227.36 679.376 226.544 680.192 225.936 681.248C225.36 682.304 225.072 683.584 225.072 685.088C225.072 686.592 225.36 687.872 225.936 688.928C226.544 689.984 227.36 690.8 228.384 691.376C229.408 691.952 230.56 692.24 231.84 692.24C233.024 692.24 234.112 691.968 235.104 691.424C236.128 690.848 236.976 689.936 237.648 688.688L243.456 691.856C242.496 693.936 241.008 695.552 238.992 696.704C236.976 697.824 234.608 698.384 231.888 698.384ZM254.919 698V678.32H246.183V672.176H271.095V678.32H262.359V698H254.919ZM287.545 698.384C284.793 698.384 282.345 697.808 280.201 696.656C278.089 695.504 276.409 693.936 275.161 691.952C273.945 689.936 273.337 687.648 273.337 685.088C273.337 682.496 273.945 680.208 275.161 678.224C276.409 676.208 278.089 674.64 280.201 673.52C282.345 672.368 284.793 671.792 287.545 671.792C290.265 671.792 292.697 672.368 294.841 673.52C296.985 674.64 298.665 676.192 299.881 678.176C301.097 680.16 301.705 682.464 301.705 685.088C301.705 687.648 301.097 689.936 299.881 691.952C298.665 693.936 296.985 695.504 294.841 696.656C292.697 697.808 290.265 698.384 287.545 698.384ZM287.545 692.24C288.793 692.24 289.913 691.952 290.905 691.376C291.897 690.8 292.681 689.984 293.257 688.928C293.833 687.84 294.121 686.56 294.121 685.088C294.121 683.584 293.833 682.304 293.257 681.248C292.681 680.192 291.897 679.376 290.905 678.8C289.913 678.224 288.793 677.936 287.545 677.936C286.297 677.936 285.177 678.224 284.185 678.8C283.193 679.376 282.393 680.192 281.785 681.248C281.209 682.304 280.921 683.584 280.921 685.088C280.921 686.56 281.209 687.84 281.785 688.928C282.393 689.984 283.193 690.8 284.185 691.376C285.177 691.952 286.297 692.24 287.545 692.24ZM304.656 697.952L305.04 691.808L305.616 691.904H306.144C307.04 691.904 307.744 691.648 308.256 691.136C308.768 690.624 309.152 689.936 309.408 689.072C309.664 688.176 309.84 687.168 309.936 686.048C310.064 684.928 310.16 683.76 310.224 682.544L310.608 672.176H332.688V698H325.2V678.32H317.036L316.8 682.88C316.704 685.184 316.512 687.296 316.224 689.216C315.968 691.136 315.536 692.8 314.928 694.208C314.32 695.584 313.504 696.656 312.48 697.424C311.456 698.16 310.144 698.528 308.544 698.528C307.968 698.528 307.36 698.48 306.72 698.384C306.08 698.288 305.392 698.144 304.656 697.952ZM356.785 698V694.791C356.221 695.739 355.453 696.505 354.481 697.088C353.041 697.952 351.185 698.384 348.913 698.384C346.897 698.384 345.169 698.048 343.729 697.376C342.289 696.672 341.185 695.728 340.417 694.544C339.649 693.36 339.265 692.032 339.265 690.56C339.265 689.024 339.633 687.68 340.369 686.528C341.137 685.376 342.337 684.48 343.969 683.84C345.601 683.168 347.729 682.832 350.353 682.832H356.305C356.305 681.232 355.809 679.984 354.817 679.088C353.857 678.192 352.369 677.744 350.353 677.744C348.977 677.744 347.617 677.968 346.273 678.416C344.961 678.832 343.841 679.408 342.913 680.144L340.225 674.912C341.633 673.92 343.329 673.152 345.313 672.608C347.297 672.064 349.313 671.792 351.361 671.792C355.297 671.792 358.353 672.72 360.529 674.576C362.705 676.432 363.793 679.328 363.793 683.264V698H356.785ZM356.305 687.2V689.84C355.857 690.992 355.137 691.872 354.145 692.48C353.153 693.056 352.033 693.344 350.785 693.344C349.473 693.344 348.433 693.072 347.665 692.528C346.929 691.952 346.561 691.184 346.561 690.224C346.561 689.36 346.881 688.64 347.521 688.064C348.193 687.488 349.409 687.2 351.169 687.2H356.305ZM1558.86 489.28C1561.14 490.144 1563.6 490.576 1566.26 490.576C1568.88 490.576 1571.3 490.144 1573.5 489.28C1575.74 488.416 1577.68 487.216 1579.31 485.68C1580.98 484.112 1582.27 482.272 1583.2 480.16C1584.13 478.016 1584.59 475.696 1584.59 473.2C1584.59 470.672 1584.13 468.368 1583.2 466.288C1582.27 464.176 1580.98 462.336 1579.31 460.768C1577.68 459.2 1575.74 457.984 1573.5 457.12C1571.3 456.256 1568.86 455.824 1566.21 455.824C1563.58 455.824 1561.15 456.256 1558.91 457.12C1556.67 457.984 1554.72 459.2 1553.06 460.768C1551.39 462.336 1550.1 464.176 1549.17 466.288C1548.27 468.4 1547.82 470.704 1547.82 473.2C1547.82 475.696 1548.27 478 1549.17 480.112C1550.1 482.224 1551.38 484.064 1553.01 485.632C1554.67 487.2 1556.62 488.416 1558.86 489.28ZM1570.34 483.184C1569.09 483.696 1567.71 483.952 1566.21 483.952C1564.7 483.952 1563.31 483.696 1562.03 483.184C1560.75 482.672 1559.63 481.936 1558.67 480.976C1557.74 480.016 1557.01 478.88 1556.46 477.568C1555.95 476.224 1555.7 474.768 1555.7 473.2C1555.7 471.6 1555.95 470.144 1556.46 468.832C1557.01 467.52 1557.76 466.384 1558.72 465.424C1559.68 464.464 1560.78 463.728 1562.03 463.216C1563.31 462.704 1564.7 462.448 1566.21 462.448C1567.71 462.448 1569.1 462.704 1570.38 463.216C1571.66 463.728 1572.77 464.464 1573.7 465.424C1574.66 466.384 1575.39 467.52 1575.9 468.832C1576.45 470.144 1576.72 471.6 1576.72 473.2C1576.72 474.8 1576.45 476.256 1575.9 477.568C1575.39 478.88 1574.66 480.016 1573.7 480.976C1572.74 481.936 1571.62 482.672 1570.34 483.184ZM1591.45 464.176V490H1605.22C1608.77 490 1611.41 489.344 1613.14 488.032C1614.87 486.72 1615.73 484.928 1615.73 482.656C1615.73 480.448 1614.95 478.768 1613.38 477.616C1612.78 477.163 1612.05 476.799 1611.2 476.524C1611.62 476.323 1612.01 476.096 1612.37 475.84C1614.1 474.624 1614.97 472.96 1614.97 470.848C1614.97 468.736 1614.05 467.104 1612.23 465.952C1610.41 464.768 1607.88 464.176 1604.65 464.176H1591.45ZM1604.6 484.912H1598.31V479.2H1604.74C1606.12 479.2 1607.13 479.44 1607.77 479.92C1608.41 480.368 1608.73 481.088 1608.73 482.08C1608.73 483.04 1608.37 483.76 1607.67 484.24C1607 484.688 1605.97 484.912 1604.6 484.912ZM1603.97 474.784H1598.31V469.264H1603.97C1605.29 469.264 1606.26 469.488 1606.9 469.936C1607.57 470.384 1607.91 471.072 1607.91 472C1607.91 472.896 1607.57 473.584 1606.9 474.064C1606.26 474.544 1605.29 474.784 1603.97 474.784ZM1627.5 488.656C1629.64 489.808 1632.09 490.384 1634.84 490.384C1637.56 490.384 1639.99 489.808 1642.14 488.656C1644.28 487.504 1645.96 485.936 1647.18 483.952C1648.39 481.936 1649 479.648 1649 477.088C1649 474.464 1648.39 472.16 1647.18 470.176C1645.96 468.192 1644.28 466.64 1642.14 465.52C1639.99 464.368 1637.56 463.792 1634.84 463.792C1632.09 463.792 1629.64 464.368 1627.5 465.52C1625.39 466.64 1623.71 468.208 1622.46 470.224C1621.24 472.208 1620.63 474.496 1620.63 477.088C1620.63 479.648 1621.24 481.936 1622.46 483.952C1623.71 485.936 1625.39 487.504 1627.5 488.656ZM1638.2 483.376C1637.21 483.952 1636.09 484.24 1634.84 484.24C1633.59 484.24 1632.47 483.952 1631.48 483.376C1630.49 482.8 1629.69 481.984 1629.08 480.928C1628.51 479.84 1628.22 478.56 1628.22 477.088C1628.22 475.584 1628.51 474.304 1629.08 473.248C1629.69 472.192 1630.49 471.376 1631.48 470.8C1632.47 470.224 1633.59 469.936 1634.84 469.936C1636.09 469.936 1637.21 470.224 1638.2 470.8C1639.19 471.376 1639.98 472.192 1640.55 473.248C1641.13 474.304 1641.42 475.584 1641.42 477.088C1641.42 478.56 1641.13 479.84 1640.55 480.928C1639.98 481.984 1639.19 482.8 1638.2 483.376ZM1671.58 483.856V464.176H1679.06V483.856H1687.37H1687.56V464.176H1695V483.856H1698.6V495.136H1691.64V490H1687.37H1655.59V464.176H1663.03V483.856H1671.58ZM1711.07 464.176H1703.63V490H1710.54L1723.07 474.64V490H1730.51V464.176H1723.64L1711.07 479.536V464.176ZM1647.57 589.837V593.488H1640.42V589.81C1637.21 589.617 1634.41 589.067 1632.02 588.16C1629.01 587.008 1626.72 585.344 1625.15 583.168C1623.58 580.96 1622.8 578.272 1622.8 575.104C1622.8 571.936 1623.58 569.264 1625.15 567.088C1626.72 564.88 1629.01 563.2 1632.02 562.048C1634.41 561.141 1637.21 560.591 1640.42 560.398V556.96H1647.57V560.388C1650.82 560.572 1653.63 561.125 1656.02 562.048C1659.02 563.2 1661.3 564.88 1662.83 567.088C1664.37 569.296 1665.14 571.968 1665.14 575.104C1665.14 578.208 1664.37 580.88 1662.83 583.12C1661.33 585.328 1659.1 587.008 1656.16 588.16C1653.75 589.115 1650.88 589.674 1647.57 589.837ZM1640.42 566.515C1638.85 566.661 1637.48 566.916 1636.29 567.28C1634.3 567.888 1632.82 568.848 1631.82 570.16C1630.83 571.44 1630.34 573.088 1630.34 575.104C1630.34 577.12 1630.86 578.784 1631.92 580.096C1632.98 581.376 1634.5 582.336 1636.48 582.976C1637.65 583.328 1638.96 583.578 1640.42 583.726V566.515ZM1647.57 566.493V583.76C1649.2 583.611 1650.62 583.334 1651.84 582.928C1653.79 582.256 1655.25 581.28 1656.21 580C1657.17 578.688 1657.65 577.04 1657.65 575.056C1657.65 573.072 1657.15 571.44 1656.16 570.16C1655.17 568.88 1653.71 567.936 1651.79 567.328C1650.59 566.919 1649.18 566.641 1647.57 566.493ZM1681.32 590.944C1682.95 591.904 1684.86 592.384 1687.03 592.384C1689.47 592.384 1691.64 591.84 1693.56 590.752C1695.51 589.664 1697.05 588.128 1698.17 586.144C1699.32 584.16 1699.9 581.808 1699.9 579.088C1699.9 576.4 1699.32 574.064 1698.17 572.08C1697.05 570.096 1695.51 568.56 1693.56 567.472C1691.64 566.352 1689.47 565.792 1687.03 565.792C1684.76 565.792 1682.81 566.272 1681.18 567.232C1680.32 567.737 1679.57 568.379 1678.92 569.158V566.176H1671.77V601.312H1679.26V589.266C1679.87 589.934 1680.56 590.494 1681.32 590.944ZM1689.05 585.376C1688.09 585.952 1686.99 586.24 1685.74 586.24C1684.49 586.24 1683.37 585.952 1682.38 585.376C1681.39 584.8 1680.6 583.984 1680.03 582.928C1679.45 581.84 1679.16 580.56 1679.16 579.088C1679.16 577.584 1679.45 576.304 1680.03 575.248C1680.6 574.192 1681.39 573.376 1682.38 572.8C1683.37 572.224 1684.49 571.936 1685.74 571.936C1686.99 571.936 1688.09 572.224 1689.05 572.8C1690.04 573.376 1690.83 574.192 1691.4 575.248C1692.01 576.304 1692.31 577.584 1692.31 579.088C1692.31 580.56 1692.01 581.84 1691.4 582.928C1690.83 583.984 1690.04 584.8 1689.05 585.376ZM1705.4 601.072C1706.72 601.488 1708.04 601.696 1709.39 601.696C1710.96 601.696 1712.38 601.456 1713.66 600.976C1714.97 600.496 1716.16 599.664 1717.21 598.48C1718.3 597.296 1719.26 595.664 1720.09 593.584L1731.76 566.176H1724.56L1717.26 583.714L1710.01 566.176H1702.28L1713.46 592.216L1713.37 592.432C1712.86 593.584 1712.28 594.4 1711.64 594.88C1711.04 595.392 1710.2 595.648 1709.15 595.648C1708.41 595.648 1707.66 595.504 1706.89 595.216C1706.16 594.928 1705.5 594.528 1704.92 594.016L1702.19 599.344C1703.02 600.08 1704.09 600.656 1705.4 601.072ZM1748.18 582.208L1755.1 592H1763.93L1754.28 578.567L1763.3 566.176H1755.34L1748.34 576.208H1744.3V566.176H1736.81V592H1744.3V582.208H1748.18ZM1774.33 572.32V592H1781.77V572.32H1790.51V566.176H1765.59V572.32H1774.33ZM1829.97 566.176H1822.53V592H1829.97V566.176ZM1817.15 576.736C1815.46 575.232 1812.91 574.464 1809.52 574.432H1803.38V566.176H1795.94V592L1808.51 592.048C1812.1 592.048 1814.87 591.264 1816.82 589.696C1818.77 588.096 1819.75 585.872 1819.75 583.024C1819.75 580.304 1818.88 578.208 1817.15 576.736ZM1811.15 585.808C1810.39 586.448 1809.28 586.752 1807.84 586.72H1803.38V579.232L1807.84 579.28C1809.28 579.312 1810.39 579.616 1811.15 580.192C1811.92 580.736 1812.31 581.648 1812.31 582.928C1812.31 584.208 1811.92 585.168 1811.15 585.808ZM1719.67 685.072V694H1727.35V660.4H1712.85C1709.91 660.4 1707.35 660.896 1705.17 661.888C1702.99 662.88 1701.3 664.32 1700.08 666.208C1698.9 668.064 1698.31 670.304 1698.31 672.928C1698.31 675.456 1698.87 677.632 1699.99 679.456C1701.11 681.28 1702.72 682.672 1704.83 683.632C1705.02 683.719 1705.22 683.802 1705.42 683.881L1698.4 694H1706.61L1712.55 685.072H1719.67ZM1719.67 678.928V666.736H1713.04C1710.83 666.736 1709.14 667.248 1707.95 668.272C1706.8 669.296 1706.23 670.816 1706.23 672.832C1706.23 674.784 1706.79 676.288 1707.91 677.344C1709.03 678.4 1710.67 678.928 1712.85 678.928H1719.67ZM1736.63 668.176V694H1744.07V674.32H1757.32V668.176H1736.63ZM1766.4 692.656C1768.54 693.808 1770.99 694.384 1773.74 694.384C1776.46 694.384 1778.89 693.808 1781.04 692.656C1783.18 691.504 1784.86 689.936 1786.08 687.952C1787.29 685.936 1787.9 683.648 1787.9 681.088C1787.9 678.464 1787.29 676.16 1786.08 674.176C1784.86 672.192 1783.18 670.64 1781.04 669.52C1778.89 668.368 1776.46 667.792 1773.74 667.792C1770.99 667.792 1768.54 668.368 1766.4 669.52C1764.29 670.64 1762.61 672.208 1761.36 674.224C1760.14 676.208 1759.53 678.496 1759.53 681.088C1759.53 683.648 1760.14 685.936 1761.36 687.952C1762.61 689.936 1764.29 691.504 1766.4 692.656ZM1777.1 687.376C1776.11 687.952 1774.99 688.24 1773.74 688.24C1772.49 688.24 1771.37 687.952 1770.38 687.376C1769.39 686.8 1768.59 685.984 1767.98 684.928C1767.41 683.84 1767.12 682.56 1767.12 681.088C1767.12 679.584 1767.41 678.304 1767.98 677.248C1768.59 676.192 1769.39 675.376 1770.38 674.8C1771.37 674.224 1772.49 673.936 1773.74 673.936C1774.99 673.936 1776.11 674.224 1777.1 674.8C1778.09 675.376 1778.88 676.192 1779.45 677.248C1780.03 678.304 1780.32 679.584 1780.32 681.088C1780.32 682.56 1780.03 683.84 1779.45 684.928C1778.88 685.984 1778.09 686.8 1777.1 687.376ZM1819.36 687.856H1823.06V699.568H1816.1V694H1797.96V699.568H1791V687.856H1791.86C1792.79 687.856 1793.54 687.584 1794.12 687.04C1794.69 686.464 1795.14 685.68 1795.46 684.688C1795.78 683.664 1796.02 682.512 1796.18 681.232C1796.34 679.92 1796.45 678.544 1796.52 677.104L1796.85 668.176H1819.36V687.856ZM1811.88 687.856V674.32H1803.43L1803.28 677.632C1803.22 679.008 1803.14 680.32 1803.04 681.568C1802.95 682.816 1802.76 683.952 1802.47 684.976C1802.21 685.968 1801.83 686.816 1801.32 687.52C1801.23 687.638 1801.13 687.75 1801.03 687.856H1811.88ZM1863.25 668.176H1855.81V694H1863.25V668.176ZM1850.43 678.736C1848.73 677.232 1846.19 676.464 1842.8 676.432H1836.65V668.176H1829.21V694L1841.79 694.048C1845.37 694.048 1848.14 693.264 1850.09 691.696C1852.05 690.096 1853.02 687.872 1853.02 685.024C1853.02 682.304 1852.16 680.208 1850.43 678.736ZM1844.43 687.808C1843.66 688.448 1842.56 688.752 1841.12 688.72H1836.65V681.232L1841.12 681.28C1842.56 681.312 1843.66 681.616 1844.43 682.192C1845.2 682.736 1845.58 683.648 1845.58 684.928C1845.58 686.208 1845.2 687.168 1844.43 687.808Z" fill="#F6F6F6"/>
<path d="M39 137.043C39 95.3005 70.6198 60.3444 112.153 56.1712L629.568 4.18217C683.646 -1.25155 738.191 0.0547083 791.947 8.07095L1652.45 136.39L2117.27 242.1C2124.09 243.651 2129.31 249.137 2130.53 256.024V256.024C2132.37 266.397 2124.63 276.004 2114.1 276.42L1619.29 295.955C1584.88 297.314 1550.42 294.714 1516.6 288.206L1177.29 222.918C1027.73 194.14 876.062 177.621 723.808 173.526L393.259 164.636C372.776 164.085 352.307 166.172 332.357 170.845L138.816 216.18C87.8172 228.126 39 189.422 39 137.043V137.043Z" fill="#F6F6F6" fill-opacity="0.22"/>
<path d="M38.5229 692.817C38.5229 674.861 34.3926 657.145 26.4513 641.04L12.3975 612.539C-35.8484 514.696 74.7314 415.098 167.013 473.279V473.279C200.053 494.109 241.759 495.498 276.112 476.912L304.918 461.327C351.227 436.272 408.843 448.1 441.537 489.373V489.373C450.748 501.001 462.246 510.615 475.321 517.622L483.93 522.236C523.383 543.379 551.816 580.493 561.961 624.089L565.903 641.029C586.659 730.224 666.968 792.752 758.53 791.006L1178.5 783H1326.5H1412.55C1434.45 783 1455.62 775.132 1472.21 760.83L1481.8 752.559C1502.42 734.783 1531.37 730.334 1556.37 741.1V741.1C1574.03 748.707 1594.02 748.836 1611.78 741.457L1620.58 737.799C1642.69 728.617 1667.46 728.244 1689.83 736.758L1700.34 740.759C1720.95 748.605 1743.82 748.052 1764.03 739.22L1769.68 736.75C1788.9 728.35 1810.85 728.88 1829.64 738.197V738.197C1848.56 747.575 1870.66 748.047 1889.96 739.487L1896.67 736.51C1915.24 728.272 1936.52 728.762 1954.7 737.848V737.848C1973.78 747.391 1996.24 747.429 2015.35 737.95L2033.33 729.039C2040.48 725.493 2045.93 719.248 2048.47 711.681V711.681C2058.45 681.973 2101.54 685.453 2106.63 716.377L2128.05 846.66V846.66C2130.9 862.817 2118.48 877.634 2102.07 877.634H1949.49C1927.1 877.634 1904.97 882.507 1884.65 891.915L1821.54 921.131C1748.09 955.134 1667.11 969.597 1586.43 963.121L1192.5 931.5L767.527 923.588C675.358 921.872 583.96 906.421 496.349 877.743L364.936 834.727C337.244 825.662 308.051 822.08 278.99 824.181L182.808 831.132C104.862 836.766 38.5229 775.049 38.5229 696.899V692.817Z" fill="#F6F6F6" fill-opacity="0.22"/>
</svg>
