<svg width="2131" height="965" viewBox="0 0 2131 965" fill="none" xmlns="http://www.w3.org/2000/svg">
<path fill-rule="evenodd" clip-rule="evenodd" d="M86 404.141V67.9973L133.222 63.8529C176.232 60.0782 219.547 61.8028 262.121 68.9851L431.182 97.5064C589.715 124.252 751.063 130.184 911.132 115.153L1325 76.291L1550.26 25.9808C1605.25 13.6975 1661.43 7.49996 1717.78 7.49996H1779.61C1818.3 7.49996 1856.76 13.515 1893.6 25.3295L1952 44.0577V513.854C1948.78 514.669 1945.43 515.098 1942 515.098H1906.11C1895.01 515.098 1885.18 522.243 1881.75 532.798C1878.32 543.352 1868.49 550.498 1857.39 550.498H1846.19C1835.02 550.498 1825.09 543.379 1821.5 532.798C1817.91 522.217 1807.98 515.098 1796.81 515.098H1774.36C1763.03 515.098 1752.9 522.165 1749 532.798C1745.1 543.43 1734.97 550.498 1723.64 550.498H1718.19C1707.02 550.498 1697.09 543.379 1693.5 532.798C1689.91 522.217 1679.98 515.098 1668.81 515.098H1643.36C1632.03 515.098 1621.9 522.165 1618 532.798C1614.1 543.43 1603.97 550.498 1592.64 550.498H1586.63C1575.17 550.498 1564.95 543.269 1561.13 532.458C1557.43 521.983 1547.7 514.835 1536.6 514.436L1522.3 513.922C1495.64 512.963 1473.5 534.319 1473.5 561V633.5V636.181C1473.5 698.037 1423.36 748.181 1361.5 748.181H1257H1129H930.5H793H738.955C669.392 748.181 613 691.789 613 622.226V616.617C613 561.236 574.766 513.188 520.8 500.75C493.482 494.453 469.267 478.707 452.431 456.29L450.189 453.306C415.238 406.771 353.478 389.367 299.372 410.805L277.964 419.288C248.026 431.15 215.195 433.66 183.801 426.487L86 404.141ZM880.76 469.16C882.04 469.747 883.027 470.6 883.72 471.72H902.44C901.587 465.587 898.813 460.733 894.12 457.16C889.48 453.587 883.453 451.8 876.04 451.8C870.227 451.8 865.16 453.027 860.84 455.48C856.52 457.88 853.187 461.267 850.84 465.64C848.547 470.013 847.4 475 847.4 480.6C847.4 486.2 848.547 491.187 850.84 495.56C853.187 499.933 856.52 503.347 860.84 505.8C865.213 508.2 870.333 509.4 876.2 509.4C882.813 509.4 888.28 507.907 892.6 504.92C896.92 501.88 900.307 498.253 902.76 494.04V476.28H873.88V488.84H888.04C885.533 492.147 882.227 493.8 878.12 493.8C873.8 493.8 870.6 492.707 868.52 490.52C866.44 488.333 865.4 485.027 865.4 480.6C865.4 476.76 866.333 473.747 868.2 471.56C870.067 469.32 872.707 468.2 876.12 468.2C877.933 468.2 879.48 468.52 880.76 469.16ZM937.396 509L940.196 500.44H959.076L961.876 509H980.596L959.956 452.36H939.476L918.756 509H937.396ZM949.636 471.32L954.756 487.08H944.516L949.636 471.32ZM1016.07 488.68L1026.71 509H1046.23L1033.91 487.32C1037.86 486.04 1040.87 483.933 1042.95 481C1045.08 478.067 1046.15 474.707 1046.15 470.92C1046.15 467.4 1045.32 464.253 1043.67 461.48C1042.07 458.653 1039.64 456.44 1036.39 454.84C1033.14 453.187 1029.22 452.36 1024.63 452.36H998.231V509H1015.99V488.68H1016.07ZM1023.03 476.84H1015.99V467.24H1023.03C1024.68 467.24 1025.94 467.667 1026.79 468.52C1027.7 469.373 1028.15 470.547 1028.15 472.04C1028.15 473.693 1027.72 474.92 1026.87 475.72C1026.02 476.467 1024.74 476.84 1023.03 476.84ZM1104.54 455.96C1100.12 453.56 1094.95 452.36 1089.03 452.36H1065.42V509H1089.03C1094.95 509 1100.12 507.773 1104.54 505.32C1109.03 502.813 1112.46 499.4 1114.86 495.08C1117.27 490.76 1118.46 485.907 1118.46 480.52C1118.46 475.08 1117.27 470.227 1114.86 465.96C1112.46 461.693 1109.03 458.36 1104.54 455.96ZM1096.95 489.88C1094.6 492.067 1091.42 493.16 1087.42 493.16H1083.18V467.88H1087.42C1091.42 467.88 1094.6 468.973 1096.95 471.16C1099.29 473.347 1100.47 476.467 1100.47 480.52C1100.47 484.573 1099.29 487.693 1096.95 489.88ZM1156.24 473.48V466.52H1176.24V452.36H1138.48V509H1176.24V494.84H1156.24V486.84H1173.84V473.48H1156.24ZM1233.09 509H1250.85V452.36H1233.09V481.32L1214.29 452.36H1196.53V509H1214.29V480.52L1233.09 509ZM820.469 407.378C820.234 411.174 822.382 414.539 825.589 416.065C826.878 416.782 828.365 417.192 829.957 417.192H836.832C838.633 417.192 840.301 416.667 841.699 415.766C844.572 414.134 846.45 410.97 846.248 407.421L844.901 383.776C846.245 383.911 847.608 383.98 848.987 383.98C871.432 383.98 889.628 365.662 889.628 343.065C889.628 325.603 878.762 310.696 863.467 304.822C864.053 302.471 864.365 300.012 864.365 297.481C864.365 280.647 850.595 267 833.609 267C816.624 267 802.854 280.647 802.854 297.481C802.854 298.163 802.877 298.841 802.921 299.512C784.385 305.597 771 323.042 771 343.614C771 369.244 791.777 390.022 817.408 390.022C818.804 390.022 820.186 389.96 821.551 389.839L820.469 407.378ZM1254.57 390.022C1255.97 390.022 1257.35 389.96 1258.72 389.839L1257.63 407.378C1257.31 412.557 1261.43 416.932 1266.62 416.932H1274.43C1279.6 416.932 1283.71 412.584 1283.41 407.421L1281.92 381.116C1282.83 380.445 1283.73 379.742 1284.59 379.008C1285.11 379.027 1285.63 379.037 1286.15 379.037C1308.6 379.037 1326.79 360.719 1326.79 338.122C1326.79 318.422 1312.96 301.973 1294.55 298.08C1292.18 283.572 1279.49 272.492 1264.18 272.492C1247.43 272.492 1233.8 285.77 1233.44 302.288C1218.43 309.977 1208.17 325.596 1208.17 343.614C1208.17 369.244 1228.94 390.022 1254.57 390.022ZM991.88 289.257C992.131 284.477 996.081 280.73 1000.87 280.73H1021.1C1025.9 280.73 1029.86 284.498 1030.09 289.293L1032.72 343.386H1033.76C1038.18 343.386 1041.76 346.968 1041.76 351.386V351.862C1041.76 356.281 1038.18 359.862 1033.76 359.862H1033.52L1035.81 406.947C1036.06 412.083 1031.96 416.383 1026.82 416.383H994.675C989.519 416.383 985.417 412.06 985.688 406.91L988.164 359.862H972.368L974.655 406.947C974.905 412.083 970.808 416.383 965.666 416.383H933.524C928.368 416.383 924.266 412.06 924.537 406.91L927.013 359.862H921.793C917.374 359.862 913.793 356.281 913.793 351.862V351.386C913.793 346.968 917.374 343.386 921.793 343.386H927.88L930.729 289.257C930.98 284.477 934.93 280.73 939.716 280.73H959.95C964.751 280.73 968.707 284.498 968.939 289.293L971.567 343.386H989.031L991.88 289.257ZM1138.57 280.73C1133.79 280.73 1129.84 284.477 1129.58 289.257L1127.69 325.216H1109.43L1107.68 289.293C1107.45 284.498 1103.49 280.73 1098.69 280.73H1078.46C1073.67 280.73 1069.72 284.477 1069.47 289.257L1067.58 325.216H1062.39C1057.97 325.216 1054.39 328.797 1054.39 333.216V333.692C1054.39 338.11 1057.97 341.692 1062.39 341.692H1066.71L1063.28 406.91C1063.01 412.06 1067.11 416.383 1072.27 416.383H1104.41C1109.55 416.383 1113.65 412.083 1113.4 406.947L1110.23 341.692H1126.83L1123.39 406.91C1123.12 412.06 1127.22 416.383 1132.38 416.383H1164.52C1169.66 416.383 1173.76 412.083 1173.51 406.947L1170.34 341.692H1174.35C1178.77 341.692 1182.35 338.11 1182.35 333.692V333.216C1182.35 328.797 1178.77 325.216 1174.35 325.216H1169.54L1167.8 289.293C1167.56 284.498 1163.61 280.73 1158.81 280.73H1138.57ZM236.064 639.576C233.472 639.576 231.056 639.16 228.816 638.328C226.608 637.464 224.688 636.248 223.056 634.68C221.424 633.112 220.144 631.272 219.216 629.16C218.32 627.048 217.872 624.728 217.872 622.2C217.872 619.672 218.32 617.352 219.216 615.24C220.144 613.128 221.424 611.288 223.056 609.72C224.72 608.152 226.656 606.952 228.864 606.12C231.072 605.256 233.488 604.824 236.112 604.824C239.024 604.824 241.648 605.336 243.984 606.36C246.352 607.352 248.336 608.824 249.936 610.776L244.944 615.384C243.792 614.072 242.512 613.096 241.104 612.456C239.696 611.784 238.16 611.448 236.496 611.448C234.928 611.448 233.488 611.704 232.176 612.216C230.864 612.728 229.728 613.464 228.768 614.424C227.808 615.384 227.056 616.52 226.512 617.832C226 619.144 225.744 620.6 225.744 622.2C225.744 623.8 226 625.256 226.512 626.568C227.056 627.88 227.808 629.016 228.768 629.976C229.728 630.936 230.864 631.672 232.176 632.184C233.488 632.696 234.928 632.952 236.496 632.952C238.16 632.952 239.696 632.632 241.104 631.992C242.512 631.32 243.792 630.312 244.944 628.968L249.936 633.576C248.336 635.528 246.352 637.016 243.984 638.04C241.648 639.064 239.008 639.576 236.064 639.576ZM282.998 639.384C280.246 639.384 277.798 638.808 275.654 637.656C273.542 636.504 271.862 634.936 270.614 632.952C269.398 630.936 268.79 628.648 268.79 626.088C268.79 623.496 269.398 621.208 270.614 619.224C271.862 617.208 273.542 615.64 275.654 614.52C277.798 613.368 280.246 612.792 282.998 612.792C285.718 612.792 288.15 613.368 290.294 614.52C292.438 615.64 294.118 617.192 295.334 619.176C296.55 621.16 297.158 623.464 297.158 626.088C297.158 628.648 296.55 630.936 295.334 632.952C294.118 634.936 292.438 636.504 290.294 637.656C288.15 638.808 285.718 639.384 282.998 639.384ZM282.998 633.24C284.246 633.24 285.366 632.952 286.358 632.376C287.35 631.8 288.134 630.984 288.71 629.928C289.286 628.84 289.574 627.56 289.574 626.088C289.574 624.584 289.286 623.304 288.71 622.248C288.134 621.192 287.35 620.376 286.358 619.8C285.366 619.224 284.246 618.936 282.998 618.936C281.75 618.936 280.63 619.224 279.638 619.8C278.646 620.376 277.846 621.192 277.238 622.248C276.662 623.304 276.374 624.584 276.374 626.088C276.374 627.56 276.662 628.84 277.238 629.928C277.846 630.984 278.646 631.8 279.638 632.376C280.63 632.952 281.75 633.24 282.998 633.24ZM303.748 639V613.176H324.436V619.32H311.188V639H303.748ZM340.862 639.384C338.11 639.384 335.662 638.808 333.518 637.656C331.406 636.504 329.726 634.936 328.478 632.952C327.262 630.936 326.654 628.648 326.654 626.088C326.654 623.496 327.262 621.208 328.478 619.224C329.726 617.208 331.406 615.64 333.518 614.52C335.662 613.368 338.11 612.792 340.862 612.792C343.582 612.792 346.014 613.368 348.158 614.52C350.302 615.64 351.982 617.192 353.198 619.176C354.414 621.16 355.022 623.464 355.022 626.088C355.022 628.648 354.414 630.936 353.198 632.952C351.982 634.936 350.302 636.504 348.158 637.656C346.014 638.808 343.582 639.384 340.862 639.384ZM340.862 633.24C342.11 633.24 343.23 632.952 344.222 632.376C345.214 631.8 345.998 630.984 346.574 629.928C347.15 628.84 347.438 627.56 347.438 626.088C347.438 624.584 347.15 623.304 346.574 622.248C345.998 621.192 345.214 620.376 344.222 619.8C343.23 619.224 342.11 618.936 340.862 618.936C339.614 618.936 338.494 619.224 337.502 619.8C336.51 620.376 335.71 621.192 335.102 622.248C334.526 623.304 334.238 624.584 334.238 626.088C334.238 627.56 334.526 628.84 335.102 629.928C335.71 630.984 336.51 631.8 337.502 632.376C338.494 632.952 339.614 633.24 340.862 633.24ZM376.828 639.384C374.652 639.384 372.749 638.904 371.116 637.944C370.351 637.494 369.663 636.934 369.052 636.266V648.312H361.564V613.176H368.716V616.158C369.362 615.379 370.114 614.737 370.973 614.232C372.604 613.272 374.556 612.792 376.828 612.792C379.26 612.792 381.436 613.352 383.357 614.472C385.309 615.56 386.845 617.096 387.965 619.08C389.116 621.064 389.693 623.4 389.693 626.088C389.693 628.808 389.116 631.16 387.965 633.144C386.845 635.128 385.309 636.664 383.357 637.752C381.436 638.84 379.26 639.384 376.828 639.384ZM375.533 633.24C376.78 633.24 377.884 632.952 378.844 632.376C379.836 631.8 380.62 630.984 381.197 629.928C381.805 628.84 382.108 627.56 382.108 626.088C382.108 624.584 381.805 623.304 381.197 622.248C380.62 621.192 379.836 620.376 378.844 619.8C377.884 619.224 376.78 618.936 375.533 618.936C374.284 618.936 373.164 619.224 372.172 619.8C371.181 620.376 370.396 621.192 369.82 622.248C369.245 623.304 368.957 624.584 368.957 626.088C368.957 627.56 369.245 628.84 369.82 629.928C370.396 630.984 371.181 631.8 372.172 632.376C373.164 632.952 374.284 633.24 375.533 633.24ZM408.477 639.384C405.725 639.384 403.277 638.808 401.133 637.656C399.021 636.504 397.341 634.936 396.093 632.952C394.877 630.936 394.269 628.648 394.269 626.088C394.269 623.496 394.877 621.208 396.093 619.224C397.341 617.208 399.021 615.64 401.133 614.52C403.277 613.368 405.725 612.792 408.477 612.792C411.197 612.792 413.629 613.368 415.773 614.52C417.917 615.64 419.597 617.192 420.813 619.176C422.029 621.16 422.637 623.464 422.637 626.088C422.637 628.648 422.029 630.936 420.813 632.952C419.597 634.936 417.917 636.504 415.773 637.656C413.629 638.808 411.197 639.384 408.477 639.384ZM408.477 633.24C409.725 633.24 410.845 632.952 411.837 632.376C412.829 631.8 413.613 630.984 414.189 629.928C414.765 628.84 415.053 627.56 415.053 626.088C415.053 624.584 414.765 623.304 414.189 622.248C413.613 621.192 412.829 620.376 411.837 619.8C410.845 619.224 409.725 618.936 408.477 618.936C407.229 618.936 406.109 619.224 405.117 619.8C404.125 620.376 403.325 621.192 402.717 622.248C402.141 623.304 401.853 624.584 401.853 626.088C401.853 627.56 402.141 628.84 402.717 629.928C403.325 630.984 404.125 631.8 405.117 632.376C406.109 632.952 407.229 633.24 408.477 633.24ZM457.796 632.856H454.1V613.176H431.588L431.252 622.104C431.188 623.544 431.076 624.92 430.916 626.232C430.756 627.512 430.516 628.664 430.196 629.688C429.876 630.68 429.428 631.464 428.852 632.04C428.276 632.584 427.524 632.856 426.596 632.856H425.732V644.568H432.692V639H450.836V644.568H457.796V632.856ZM446.612 619.32V632.856H435.765C435.866 632.75 435.962 632.638 436.052 632.52C436.564 631.816 436.948 630.968 437.204 629.976C437.492 628.952 437.684 627.816 437.78 626.568C437.876 625.32 437.956 624.008 438.02 622.632L438.164 619.32H446.612ZM479.404 639V635.791C478.84 636.739 478.072 637.505 477.1 638.088C475.66 638.952 473.804 639.384 471.532 639.384C469.516 639.384 467.788 639.048 466.348 638.376C464.908 637.672 463.804 636.728 463.036 635.544C462.268 634.36 461.884 633.032 461.884 631.56C461.884 630.024 462.252 628.68 462.988 627.528C463.756 626.376 464.956 625.48 466.588 624.84C468.22 624.168 470.348 623.832 472.972 623.832H478.924C478.924 622.232 478.428 620.984 477.436 620.088C476.476 619.192 474.988 618.744 472.972 618.744C471.596 618.744 470.236 618.968 468.892 619.416C467.58 619.832 466.46 620.408 465.532 621.144L462.844 615.912C464.252 614.92 465.948 614.152 467.932 613.608C469.916 613.064 471.932 612.792 473.98 612.792C477.916 612.792 480.972 613.72 483.148 615.576C485.324 617.432 486.412 620.328 486.412 624.264V639H479.404ZM478.924 628.2V630.84C478.476 631.992 477.756 632.872 476.764 633.48C475.772 634.056 474.652 634.344 473.404 634.344C472.092 634.344 471.052 634.072 470.284 633.528C469.548 632.952 469.18 632.184 469.18 631.224C469.18 630.36 469.5 629.64 470.14 629.064C470.812 628.488 472.028 628.2 473.788 628.2H478.924ZM538.335 632.856H534.639V613.176H512.127L511.791 622.104C511.727 623.544 511.615 624.92 511.455 626.232C511.295 627.512 511.055 628.664 510.735 629.688C510.415 630.68 509.967 631.464 509.391 632.04C508.815 632.584 508.063 632.856 507.135 632.856H506.271V644.568H513.231V639H531.375V644.568H538.335V632.856ZM527.151 619.32V632.856H516.303C516.405 632.75 516.5 632.638 516.591 632.52C517.103 631.816 517.487 630.968 517.743 629.976C518.031 628.952 518.223 627.816 518.319 626.568C518.415 625.32 518.495 624.008 518.559 622.632L518.703 619.32H527.151ZM541.223 638.952L541.607 632.808L542.183 632.904H542.711C543.607 632.904 544.311 632.648 544.823 632.136C545.335 631.624 545.719 630.936 545.975 630.072C546.231 629.176 546.407 628.168 546.503 627.048C546.631 625.928 546.727 624.76 546.791 623.544L547.175 613.176H569.255V639H561.767V619.32H553.603L553.367 623.88C553.271 626.184 553.079 628.296 552.791 630.216C552.535 632.136 552.103 633.8 551.495 635.208C550.887 636.584 550.071 637.656 549.047 638.424C548.023 639.16 546.711 639.528 545.111 639.528C544.535 639.528 543.927 639.48 543.287 639.384C542.647 639.288 541.959 639.144 541.223 638.952ZM594.168 639V631.608H588.656L583.752 639H575.784L581.667 630.566C580.804 630.227 580.027 629.807 579.336 629.304C577.224 627.768 576.168 625.56 576.168 622.68C576.168 619.608 577.272 617.256 579.48 615.624C581.72 613.992 584.728 613.176 588.504 613.176H600.84V639H594.168ZM594.168 619.272V626.616H588.552C585.384 626.616 583.8 625.384 583.8 622.92C583.8 621.64 584.216 620.712 585.048 620.136C585.912 619.56 587.112 619.272 588.648 619.272H594.168ZM624.51 639V613.176H637.71C640.942 613.176 643.47 613.768 645.294 614.952C647.118 616.104 648.03 617.736 648.03 619.848C648.03 621.96 647.166 623.624 645.438 624.84C645.072 625.095 644.68 625.323 644.262 625.524C645.114 625.799 645.842 626.163 646.446 626.616C648.014 627.768 648.798 629.448 648.798 631.656C648.798 633.928 647.934 635.72 646.206 637.032C644.478 638.344 641.838 639 638.286 639H624.51ZM631.374 633.912H637.662C639.038 633.912 640.062 633.688 640.734 633.24C641.438 632.76 641.79 632.04 641.79 631.08C641.79 630.088 641.47 629.368 640.83 628.92C640.19 628.44 639.182 628.2 637.806 628.2H631.374V633.912ZM631.374 623.784H637.038C638.35 623.784 639.326 623.544 639.966 623.064C640.638 622.584 640.974 621.896 640.974 621C640.974 620.072 640.638 619.384 639.966 618.936C639.326 618.488 638.35 618.264 637.038 618.264H631.374V623.784ZM671.265 639V635.791C670.702 636.739 669.934 637.505 668.961 638.088C667.521 638.952 665.665 639.384 663.393 639.384C661.377 639.384 659.649 639.048 658.209 638.376C656.769 637.672 655.665 636.728 654.897 635.544C654.129 634.36 653.745 633.032 653.745 631.56C653.745 630.024 654.113 628.68 654.849 627.528C655.617 626.376 656.817 625.48 658.449 624.84C660.081 624.168 662.209 623.832 664.833 623.832H670.785C670.785 622.232 670.289 620.984 669.297 620.088C668.337 619.192 666.849 618.744 664.833 618.744C663.457 618.744 662.097 618.968 660.753 619.416C659.441 619.832 658.321 620.408 657.393 621.144L654.705 615.912C656.113 614.92 657.809 614.152 659.793 613.608C661.777 613.064 663.793 612.792 665.841 612.792C669.777 612.792 672.833 613.72 675.009 615.576C677.185 617.432 678.273 620.328 678.273 624.264V639H671.265ZM670.785 628.2V630.84C670.337 631.992 669.617 632.872 668.625 633.48C667.633 634.056 666.513 634.344 665.265 634.344C663.953 634.344 662.913 634.072 662.145 633.528C661.409 632.952 661.041 632.184 661.041 631.224C661.041 630.36 661.361 629.64 662.001 629.064C662.673 628.488 663.889 628.2 665.649 628.2H670.785ZM702.202 613.176V632.856H693.658V613.176H686.218V639H725.626V613.176H718.186V632.856H709.69V613.176H702.202ZM746.876 639.384C743.932 639.384 741.34 638.808 739.1 637.656C736.892 636.504 735.18 634.936 733.964 632.952C732.748 630.936 732.14 628.648 732.14 626.088C732.14 623.496 732.732 621.208 733.916 619.224C735.132 617.208 736.78 615.64 738.86 614.52C740.94 613.368 743.292 612.792 745.916 612.792C748.444 612.792 750.716 613.336 752.732 614.424C754.78 615.48 756.396 617.016 757.58 619.032C758.764 621.016 759.356 623.4 759.356 626.184C759.356 626.472 759.34 626.808 759.308 627.192C759.276 627.544 759.244 627.88 759.212 628.2H739.673C739.824 628.887 740.065 629.527 740.396 630.12C741.036 631.176 741.916 631.992 743.036 632.568C744.188 633.112 745.532 633.384 747.068 633.384C748.444 633.384 749.644 633.176 750.668 632.76C751.724 632.344 752.684 631.72 753.548 630.888L757.532 635.208C756.348 636.552 754.86 637.592 753.068 638.328C751.276 639.032 749.212 639.384 746.876 639.384ZM740.3 621.672C739.949 622.312 739.711 623.032 739.587 623.832H752.304C752.182 623.018 751.941 622.282 751.58 621.624C751.036 620.632 750.284 619.864 749.324 619.32C748.364 618.744 747.244 618.456 745.964 618.456C744.684 618.456 743.548 618.744 742.556 619.32C741.596 619.864 740.844 620.648 740.3 621.672ZM766.536 639V613.176H787.224V619.32H773.976V639H766.536ZM803.65 639.384C800.898 639.384 798.45 638.808 796.306 637.656C794.194 636.504 792.514 634.936 791.266 632.952C790.05 630.936 789.442 628.648 789.442 626.088C789.442 623.496 790.05 621.208 791.266 619.224C792.514 617.208 794.194 615.64 796.306 614.52C798.45 613.368 800.898 612.792 803.65 612.792C806.37 612.792 808.802 613.368 810.946 614.52C813.09 615.64 814.77 617.192 815.986 619.176C817.202 621.16 817.81 623.464 817.81 626.088C817.81 628.648 817.202 630.936 815.986 632.952C814.77 634.936 813.09 636.504 810.946 637.656C808.802 638.808 806.37 639.384 803.65 639.384ZM803.65 633.24C804.898 633.24 806.018 632.952 807.01 632.376C808.002 631.8 808.786 630.984 809.362 629.928C809.938 628.84 810.226 627.56 810.226 626.088C810.226 624.584 809.938 623.304 809.362 622.248C808.786 621.192 808.002 620.376 807.01 619.8C806.018 619.224 804.898 618.936 803.65 618.936C802.402 618.936 801.282 619.224 800.29 619.8C799.298 620.376 798.498 621.192 797.89 622.248C797.314 623.304 797.026 624.584 797.026 626.088C797.026 627.56 797.314 628.84 797.89 629.928C798.498 630.984 799.298 631.8 800.29 632.376C801.282 632.952 802.402 633.24 803.65 633.24ZM231.888 698.384C229.104 698.384 226.624 697.824 224.448 696.704C222.272 695.552 220.56 693.968 219.312 691.952C218.096 689.936 217.488 687.648 217.488 685.088C217.488 682.496 218.096 680.208 219.312 678.224C220.56 676.208 222.272 674.64 224.448 673.52C226.624 672.368 229.104 671.792 231.888 671.792C234.608 671.792 236.976 672.368 238.992 673.52C241.008 674.64 242.496 676.256 243.456 678.368L237.648 681.488C236.976 680.272 236.128 679.376 235.104 678.8C234.112 678.224 233.024 677.936 231.84 677.936C230.56 677.936 229.408 678.224 228.384 678.8C227.36 679.376 226.544 680.192 225.936 681.248C225.36 682.304 225.072 683.584 225.072 685.088C225.072 686.592 225.36 687.872 225.936 688.928C226.544 689.984 227.36 690.8 228.384 691.376C229.408 691.952 230.56 692.24 231.84 692.24C233.024 692.24 234.112 691.968 235.104 691.424C236.128 690.848 236.976 689.936 237.648 688.688L243.456 691.856C242.496 693.936 241.008 695.552 238.992 696.704C236.976 697.824 234.608 698.384 231.888 698.384ZM254.919 698V678.32H246.183V672.176H271.095V678.32H262.359V698H254.919ZM287.545 698.384C284.793 698.384 282.345 697.808 280.201 696.656C278.089 695.504 276.409 693.936 275.161 691.952C273.945 689.936 273.337 687.648 273.337 685.088C273.337 682.496 273.945 680.208 275.161 678.224C276.409 676.208 278.089 674.64 280.201 673.52C282.345 672.368 284.793 671.792 287.545 671.792C290.265 671.792 292.697 672.368 294.841 673.52C296.985 674.64 298.665 676.192 299.881 678.176C301.097 680.16 301.705 682.464 301.705 685.088C301.705 687.648 301.097 689.936 299.881 691.952C298.665 693.936 296.985 695.504 294.841 696.656C292.697 697.808 290.265 698.384 287.545 698.384ZM287.545 692.24C288.793 692.24 289.913 691.952 290.905 691.376C291.897 690.8 292.681 689.984 293.257 688.928C293.833 687.84 294.121 686.56 294.121 685.088C294.121 683.584 293.833 682.304 293.257 681.248C292.681 680.192 291.897 679.376 290.905 678.8C289.913 678.224 288.793 677.936 287.545 677.936C286.297 677.936 285.177 678.224 284.185 678.8C283.193 679.376 282.393 680.192 281.785 681.248C281.209 682.304 280.921 683.584 280.921 685.088C280.921 686.56 281.209 687.84 281.785 688.928C282.393 689.984 283.193 690.8 284.185 691.376C285.177 691.952 286.297 692.24 287.545 692.24ZM304.656 697.952L305.04 691.808L305.616 691.904H306.144C307.04 691.904 307.744 691.648 308.256 691.136C308.768 690.624 309.152 689.936 309.408 689.072C309.664 688.176 309.84 687.168 309.936 686.048C310.064 684.928 310.16 683.76 310.224 682.544L310.608 672.176H332.688V698H325.2V678.32H317.036L316.8 682.88C316.704 685.184 316.512 687.296 316.224 689.216C315.968 691.136 315.536 692.8 314.928 694.208C314.32 695.584 313.504 696.656 312.48 697.424C311.456 698.16 310.144 698.528 308.544 698.528C307.968 698.528 307.36 698.48 306.72 698.384C306.08 698.288 305.392 698.144 304.656 697.952ZM356.785 698V694.791C356.221 695.739 355.453 696.505 354.481 697.088C353.041 697.952 351.185 698.384 348.913 698.384C346.897 698.384 345.169 698.048 343.729 697.376C342.289 696.672 341.185 695.728 340.417 694.544C339.649 693.36 339.265 692.032 339.265 690.56C339.265 689.024 339.633 687.68 340.369 686.528C341.137 685.376 342.337 684.48 343.969 683.84C345.601 683.168 347.729 682.832 350.353 682.832H356.305C356.305 681.232 355.809 679.984 354.817 679.088C353.857 678.192 352.369 677.744 350.353 677.744C348.977 677.744 347.617 677.968 346.273 678.416C344.961 678.832 343.841 679.408 342.913 680.144L340.225 674.912C341.633 673.92 343.329 673.152 345.313 672.608C347.297 672.064 349.313 671.792 351.361 671.792C355.297 671.792 358.353 672.72 360.529 674.576C362.705 676.432 363.793 679.328 363.793 683.264V698H356.785ZM356.305 687.2V689.84C355.857 690.992 355.137 691.872 354.145 692.48C353.153 693.056 352.033 693.344 350.785 693.344C349.473 693.344 348.433 693.072 347.665 692.528C346.929 691.952 346.561 691.184 346.561 690.224C346.561 689.36 346.881 688.64 347.521 688.064C348.193 687.488 349.409 687.2 351.169 687.2H356.305ZM1615.56 674.272C1617.29 669.728 1618.15 664.8 1618.15 659.488C1618.15 654.24 1617.29 649.408 1615.56 644.992C1613.83 640.512 1611.43 636.64 1608.36 633.376C1605.22 630.048 1601.54 627.456 1597.32 625.6C1593.03 623.744 1588.39 622.816 1583.4 622.816C1578.34 622.816 1573.74 623.744 1569.58 625.6C1565.35 627.456 1561.67 630.048 1558.54 633.376C1555.4 636.64 1552.97 640.512 1551.24 644.992C1549.51 649.408 1548.65 654.272 1548.65 659.584C1548.65 664.832 1549.51 669.696 1551.24 674.176C1552.97 678.656 1555.4 682.56 1558.54 685.888C1561.67 689.216 1565.35 691.808 1569.58 693.664C1573.8 695.456 1578.41 696.352 1583.4 696.352C1588.39 696.352 1593 695.456 1597.22 693.664C1601.45 691.808 1605.13 689.248 1608.26 685.984C1611.4 682.656 1613.83 678.752 1615.56 674.272ZM1603.37 651.328C1604.39 653.824 1604.9 656.576 1604.9 659.584C1604.9 662.592 1604.39 665.376 1603.37 667.936C1602.34 670.496 1600.87 672.736 1598.95 674.656C1597.03 676.512 1594.76 677.984 1592.14 679.072C1589.45 680.096 1586.54 680.608 1583.4 680.608C1580.2 680.608 1577.29 680.096 1574.66 679.072C1572.04 677.984 1569.77 676.48 1567.85 674.56C1565.93 672.64 1564.46 670.432 1563.43 667.936C1562.41 665.376 1561.9 662.592 1561.9 659.584C1561.9 656.576 1562.41 653.792 1563.43 651.232C1564.46 648.672 1565.93 646.464 1567.85 644.608C1569.77 642.688 1572.04 641.216 1574.66 640.192C1577.29 639.104 1580.2 638.56 1583.4 638.56C1586.6 638.56 1589.51 639.104 1592.14 640.192C1594.76 641.216 1597.03 642.688 1598.95 644.608C1600.87 646.528 1602.34 648.768 1603.37 651.328ZM1565.35 582.707V609.107H1617V581.555C1617 574.451 1615.69 569.171 1613.06 565.715C1610.44 562.259 1606.86 560.531 1602.31 560.531C1597.9 560.531 1594.54 562.099 1592.23 565.235C1591.33 566.444 1590.6 567.9 1590.05 569.604C1589.65 568.768 1589.19 567.984 1588.68 567.251C1586.25 563.795 1582.92 562.067 1578.7 562.067C1574.47 562.067 1571.21 563.891 1568.9 567.539C1566.54 571.188 1565.35 576.243 1565.35 582.707ZM1606.82 582.803V595.379H1595.4V582.516C1595.4 579.763 1595.88 577.747 1596.84 576.467C1597.74 575.188 1599.18 574.547 1601.16 574.547C1603.08 574.547 1604.52 575.251 1605.48 576.659C1606.38 578.003 1606.82 580.051 1606.82 582.803ZM1586.57 584.051V595.379H1575.53V584.051C1575.53 581.427 1575.98 579.475 1576.87 578.195C1577.77 576.852 1579.14 576.18 1581 576.18C1582.79 576.18 1584.17 576.852 1585.13 578.195C1586.09 579.475 1586.57 581.427 1586.57 584.051ZM1614.31 524.045C1616.62 519.757 1617.77 514.861 1617.77 509.357C1617.77 503.917 1616.62 499.053 1614.31 494.765C1612.01 490.477 1608.87 487.117 1604.9 484.685C1600.87 482.253 1596.3 481.037 1591.18 481.037C1585.93 481.037 1581.32 482.253 1577.35 484.685C1573.38 487.117 1570.28 490.477 1568.04 494.765C1565.74 499.053 1564.58 503.917 1564.58 509.357C1564.58 514.861 1565.74 519.757 1568.04 524.045C1570.28 528.269 1573.42 531.629 1577.45 534.125C1581.42 536.557 1585.99 537.773 1591.18 537.773C1596.3 537.773 1600.87 536.557 1604.9 534.125C1608.87 531.629 1612.01 528.269 1614.31 524.045ZM1603.75 502.637C1604.9 504.621 1605.48 506.861 1605.48 509.357C1605.48 511.853 1604.9 514.093 1603.75 516.077C1602.6 518.061 1600.97 519.661 1598.86 520.877C1596.68 522.029 1594.12 522.605 1591.18 522.605C1588.17 522.605 1585.61 522.029 1583.5 520.877C1581.38 519.661 1579.75 518.061 1578.6 516.077C1577.45 514.093 1576.87 511.853 1576.87 509.357C1576.87 506.861 1577.45 504.621 1578.6 502.637C1579.75 500.653 1581.38 499.085 1583.5 497.933C1585.61 496.781 1588.17 496.205 1591.18 496.205C1594.12 496.205 1596.68 496.781 1598.86 497.933C1600.97 499.085 1602.6 500.653 1603.75 502.637ZM1604.71 435.888H1565.35V420.912H1604.71V404.304V403.92H1565.35V389.04H1604.71V381.84H1627.27V395.76H1617V404.304V467.856H1565.35V452.976H1604.71V435.888ZM1565.35 371.789H1617V357.965L1586.28 332.909H1617V318.029H1565.35V331.757L1596.07 356.909H1565.35V371.789ZM1750.67 485.342H1757.98V499.646H1750.62C1750.23 506.06 1749.13 511.66 1747.32 516.446C1745.02 522.462 1741.69 527.038 1737.34 530.174C1732.92 533.31 1727.54 534.878 1721.21 534.878C1714.87 534.878 1709.53 533.31 1705.18 530.174C1700.76 527.038 1697.4 522.462 1695.1 516.446C1693.28 511.66 1692.18 506.06 1691.8 499.646H1684.92V485.342H1691.78C1692.14 478.848 1693.25 473.216 1695.1 468.446C1697.4 462.43 1700.76 457.886 1705.18 454.814C1709.59 451.742 1714.94 450.206 1721.21 450.206C1727.42 450.206 1732.76 451.742 1737.24 454.814C1741.66 457.822 1745.02 462.27 1747.32 468.158C1749.23 472.985 1750.35 478.713 1750.67 485.342ZM1704.03 499.646C1704.32 502.776 1704.83 505.528 1705.56 507.902C1706.78 511.87 1708.7 514.846 1711.32 516.83C1713.88 518.814 1717.18 519.806 1721.21 519.806C1725.24 519.806 1728.57 518.75 1731.19 516.638C1733.75 514.526 1735.67 511.486 1736.95 507.518C1737.66 505.184 1738.16 502.56 1738.45 499.646H1704.03ZM1703.99 485.342H1738.52C1738.22 482.082 1737.67 479.234 1736.86 476.798C1735.51 472.894 1733.56 469.982 1731 468.062C1728.38 466.142 1725.08 465.182 1721.11 465.182C1717.14 465.182 1713.88 466.174 1711.32 468.158C1708.76 470.142 1706.87 473.054 1705.66 476.894C1704.84 479.306 1704.28 482.122 1703.99 485.342ZM1752.89 417.836C1754.81 414.572 1755.77 410.764 1755.77 406.412C1755.77 401.548 1754.68 397.196 1752.5 393.356C1750.33 389.452 1747.26 386.38 1743.29 384.14C1739.32 381.836 1734.62 380.684 1729.18 380.684C1723.8 380.684 1719.13 381.836 1715.16 384.14C1711.19 386.38 1708.12 389.452 1705.94 393.356C1703.7 397.196 1702.58 401.548 1702.58 406.412C1702.58 410.956 1703.54 414.86 1705.46 418.124C1706.47 419.84 1707.76 421.344 1709.32 422.636H1703.35V436.94H1773.62V421.964H1749.53C1750.87 420.743 1751.99 419.367 1752.89 417.836ZM1741.75 402.38C1742.9 404.3 1743.48 406.508 1743.48 409.004C1743.48 411.5 1742.9 413.74 1741.75 415.724C1740.6 417.708 1738.97 419.276 1736.86 420.428C1734.68 421.58 1732.12 422.156 1729.18 422.156C1726.17 422.156 1723.61 421.58 1721.5 420.428C1719.38 419.276 1717.75 417.708 1716.6 415.724C1715.45 413.74 1714.87 411.5 1714.87 409.004C1714.87 406.508 1715.45 404.3 1716.6 402.38C1717.75 400.396 1719.38 398.828 1721.5 397.676C1723.61 396.46 1726.17 395.852 1729.18 395.852C1732.12 395.852 1734.68 396.46 1736.86 397.676C1738.97 398.828 1740.6 400.396 1741.75 402.38ZM1773.14 369.674C1773.98 367.05 1774.39 364.394 1774.39 361.706C1774.39 358.57 1773.91 355.722 1772.95 353.162C1771.99 350.538 1770.33 348.17 1767.96 346.058C1765.59 343.882 1762.33 341.962 1758.17 340.298L1703.35 316.97V331.37L1738.43 345.96L1703.35 360.458V375.914L1755.43 353.554L1755.86 353.738C1758.17 354.762 1759.8 355.914 1760.76 357.194C1761.78 358.41 1762.3 360.074 1762.3 362.186C1762.3 363.658 1762.01 365.162 1761.43 366.698C1760.86 368.17 1760.06 369.482 1759.03 370.634L1769.69 376.106C1771.16 374.442 1772.31 372.298 1773.14 369.674ZM1735.42 284.113L1755 270.289V252.625L1728.13 271.92L1703.35 253.873V269.809L1723.42 283.802V291.889H1703.35V306.865H1755V291.889H1735.42V284.113ZM1715.64 231.82H1755V216.94H1715.64V199.468H1703.35V249.292H1715.64V231.82ZM1703.35 135.421H1755V120.541L1703.35 120.541V135.421ZM1724.47 146.173C1721.46 149.565 1719.93 154.653 1719.86 161.437V173.725H1703.35V188.605H1755L1755.1 163.453C1755.1 156.285 1753.53 150.749 1750.39 146.845C1747.19 142.941 1742.74 140.989 1737.05 140.989C1731.61 140.989 1727.42 142.717 1724.47 146.173ZM1742.62 158.173C1743.9 159.709 1744.5 161.917 1744.44 164.797V173.725H1729.46L1729.56 164.797C1729.62 161.917 1730.23 159.709 1731.38 158.173C1732.47 156.637 1734.3 155.869 1736.86 155.869C1739.42 155.869 1741.34 156.637 1742.62 158.173ZM1875.14 352.669H1893V337.309H1825.8V366.301C1825.8 372.189 1826.79 377.309 1828.78 381.661C1830.76 386.013 1833.64 389.405 1837.42 391.837C1841.13 394.205 1845.61 395.389 1850.86 395.389C1855.91 395.389 1860.26 394.269 1863.91 392.029C1867.56 389.789 1870.34 386.557 1872.26 382.333C1872.44 381.951 1872.6 381.562 1872.76 381.167L1893 395.197V378.781L1875.14 366.901V352.669ZM1862.86 352.669H1838.47V365.917C1838.47 370.333 1839.5 373.725 1841.54 376.093C1843.59 378.397 1846.63 379.549 1850.66 379.549C1854.57 379.549 1857.58 378.429 1859.69 376.189C1861.8 373.949 1862.86 370.653 1862.86 366.301V352.669ZM1841.35 318.745H1893V303.865H1853.64V277.369H1841.35V318.745ZM1890.31 259.205C1892.62 254.917 1893.77 250.021 1893.77 244.517C1893.77 239.077 1892.62 234.213 1890.31 229.925C1888.01 225.637 1884.87 222.277 1880.9 219.845C1876.87 217.413 1872.3 216.197 1867.18 216.197C1861.93 216.197 1857.32 217.413 1853.35 219.845C1849.38 222.277 1846.28 225.637 1844.04 229.925C1841.74 234.213 1840.58 239.077 1840.58 244.517C1840.58 250.021 1841.74 254.917 1844.04 259.205C1846.28 263.429 1849.42 266.789 1853.45 269.285C1857.42 271.717 1861.99 272.933 1867.18 272.933C1872.3 272.933 1876.87 271.717 1880.9 269.285C1884.87 266.789 1888.01 263.429 1890.31 259.205ZM1879.75 237.797C1880.9 239.781 1881.48 242.021 1881.48 244.517C1881.48 247.013 1880.9 249.253 1879.75 251.237C1878.6 253.221 1876.97 254.821 1874.86 256.037C1872.68 257.189 1870.12 257.765 1867.18 257.765C1864.17 257.765 1861.61 257.189 1859.5 256.037C1857.38 254.821 1855.75 253.221 1854.6 251.237C1853.45 249.253 1852.87 247.013 1852.87 244.517C1852.87 242.021 1853.45 239.781 1854.6 237.797C1855.75 235.813 1857.38 234.245 1859.5 233.093C1861.61 231.941 1864.17 231.365 1867.18 231.365C1870.12 231.365 1872.68 231.941 1874.86 233.093C1876.97 234.245 1878.6 235.813 1879.75 237.797ZM1880.71 153.27V145.878H1904.14V159.798H1893V196.086H1904.14V210.006H1880.71V208.278C1880.71 206.422 1880.17 204.918 1879.08 203.766C1877.93 202.614 1876.36 201.718 1874.38 201.078C1872.33 200.438 1870.02 199.958 1867.46 199.638C1864.84 199.318 1862.09 199.094 1859.21 198.966L1841.35 198.294V153.27H1880.71ZM1880.71 168.246H1853.64V185.142L1860.26 185.43C1863.02 185.558 1865.64 185.718 1868.14 185.91C1870.63 186.102 1872.9 186.486 1874.95 187.062C1876.94 187.574 1878.63 188.342 1880.04 189.366C1880.28 189.547 1880.5 189.738 1880.71 189.941V168.246ZM1841.35 80.3897L1893 80.3897V65.5097L1841.35 65.5097V80.3897ZM1862.47 91.1417C1859.46 94.5337 1857.93 99.6217 1857.86 106.406V118.694L1841.35 118.694V133.574L1893 133.574L1893.1 108.422C1893.1 101.254 1891.53 95.7177 1888.39 91.8137C1885.19 87.9097 1880.74 85.9577 1875.05 85.9577C1869.61 85.9577 1865.42 87.6857 1862.47 91.1417ZM1880.62 103.142C1881.9 104.678 1882.5 106.886 1882.44 109.766V118.694H1867.46L1867.56 109.766C1867.62 106.886 1868.23 104.678 1869.38 103.142C1870.47 101.606 1872.3 100.838 1874.86 100.838C1877.42 100.838 1879.34 101.606 1880.62 103.142Z" fill="#F6F6F6"/>
<path d="M39 137.043C39 95.3005 70.6198 60.3444 112.153 56.1712L629.568 4.18217C683.646 -1.25155 738.191 0.0547083 791.947 8.07095L1652.45 136.39L2117.27 242.1C2124.09 243.651 2129.31 249.137 2130.53 256.024V256.024C2132.37 266.397 2124.63 276.004 2114.1 276.42L1619.29 295.955C1584.88 297.314 1550.42 294.714 1516.6 288.206L1177.29 222.918C1027.73 194.14 876.062 177.621 723.808 173.526L393.259 164.636C372.776 164.085 352.307 166.172 332.357 170.845L138.816 216.18C87.8172 228.126 39 189.422 39 137.043V137.043Z" fill="#F6F6F6" fill-opacity="0.22"/>
<path d="M38.5229 692.817C38.5229 674.861 34.3926 657.145 26.4513 641.04L12.3975 612.539C-35.8484 514.696 74.7314 415.098 167.013 473.279V473.279C200.053 494.109 241.759 495.498 276.112 476.912L304.918 461.327C351.227 436.272 408.843 448.1 441.537 489.373V489.373C450.748 501.001 462.246 510.615 475.321 517.622L483.93 522.236C523.383 543.379 551.816 580.493 561.961 624.089L565.903 641.029C586.659 730.224 666.968 792.752 758.53 791.006L1178.5 783H1326.5H1412.55C1434.45 783 1455.62 775.132 1472.21 760.83L1481.8 752.559C1502.42 734.783 1531.37 730.334 1556.37 741.1V741.1C1574.03 748.707 1594.02 748.836 1611.78 741.457L1620.58 737.799C1642.69 728.617 1667.46 728.244 1689.83 736.758L1700.34 740.759C1720.95 748.605 1743.82 748.052 1764.03 739.22L1769.68 736.75C1788.9 728.35 1810.85 728.88 1829.64 738.197V738.197C1848.56 747.575 1870.66 748.047 1889.96 739.487L1896.67 736.51C1915.24 728.272 1936.52 728.762 1954.7 737.848V737.848C1973.78 747.391 1996.24 747.429 2015.35 737.95L2033.33 729.039C2040.48 725.493 2045.93 719.248 2048.47 711.681V711.681C2058.45 681.973 2101.54 685.453 2106.63 716.377L2128.05 846.66V846.66C2130.9 862.817 2118.48 877.634 2102.07 877.634H1949.49C1927.1 877.634 1904.97 882.507 1884.65 891.915L1821.54 921.131C1748.09 955.134 1667.11 969.597 1586.43 963.121L1192.5 931.5L767.527 923.588C675.358 921.872 583.96 906.421 496.349 877.743L364.936 834.727C337.244 825.662 308.051 822.08 278.99 824.181L182.808 831.132C104.862 836.766 38.5229 775.049 38.5229 696.899V692.817Z" fill="#F6F6F6" fill-opacity="0.22"/>
</svg>
