<svg width="2055" height="1318" viewBox="0 0 2055 1318" fill="none" xmlns="http://www.w3.org/2000/svg">
<path fill-rule="evenodd" clip-rule="evenodd" d="M2055 0H0V627.544C3.60283 625.074 7.87625 623.53 12.4674 623.224L30.8283 622C35.2622 621.704 39.5372 620.232 43.2132 617.735L58.4352 607.396C67.8454 601.003 80.3845 601.77 88.9455 609.262L102.794 621.379C106.138 624.306 110.202 626.288 114.567 627.121L132.642 630.574C143.816 632.708 152.14 642.117 152.896 653.467L154.12 671.828C154.416 676.262 155.888 680.537 158.384 684.213L168.724 699.435C175.116 708.845 174.349 721.384 166.858 729.945L154.74 743.794C151.814 747.138 149.832 751.202 148.998 755.567L145.546 773.642C143.412 784.816 134.003 793.14 122.653 793.896L104.292 795.12C99.8577 795.415 95.5826 796.888 91.9067 799.384L76.6847 809.724C67.2745 816.116 54.7354 815.349 46.1744 807.858L32.3259 795.74C28.9817 792.814 24.9179 790.832 20.5531 789.998L2.47812 786.546C1.63519 786.385 0.808473 786.183 0 785.941V897.076L11.4141 891.919C15.4637 890.089 18.9525 887.213 21.5212 883.587L32.1581 868.571C38.7339 859.288 50.7475 855.616 61.3899 859.634L78.605 866.135C82.7623 867.705 87.2628 868.138 91.6432 867.39L109.783 864.294C120.996 862.38 132.088 868.277 136.772 878.644L144.348 895.414C146.178 899.464 149.054 902.952 152.68 905.521L167.696 916.158C176.979 922.734 180.652 934.747 176.633 945.39L170.132 962.605C168.562 966.762 168.129 971.263 168.877 975.643L171.973 993.783C173.887 1005 167.99 1016.09 157.623 1020.77L140.853 1028.35C136.803 1030.18 133.315 1033.05 130.746 1036.68L120.109 1051.7C113.533 1060.98 101.52 1064.65 90.8773 1060.63L73.6621 1054.13C69.5048 1052.56 65.0043 1052.13 60.6238 1052.88L42.4846 1055.97C31.2709 1057.89 20.1789 1051.99 15.4952 1041.62L7.91883 1024.85C6.15923 1020.96 3.4318 1017.58 0 1015.04V1318H2055V1051.93L2052.98 1055.69C2047.58 1065.71 2036.1 1070.81 2025.05 1068.12L2007.17 1063.77C2002.85 1062.72 1998.33 1062.84 1994.08 1064.11L1976.45 1069.4C1965.55 1072.66 1953.83 1068.16 1947.91 1058.44L1938.35 1042.72C1936.04 1038.92 1932.76 1035.81 1928.85 1033.7L1912.65 1024.98C1902.63 1019.58 1897.52 1008.1 1900.22 997.051L1904.57 979.172C1905.62 974.854 1905.5 970.335 1904.23 966.078L1898.94 948.451C1895.68 937.555 1900.18 925.826 1909.9 919.914L1925.62 910.351C1929.42 908.041 1932.53 904.761 1934.64 900.849L1943.36 884.649C1948.76 874.634 1960.24 869.524 1971.29 872.216L1989.17 876.57C1993.48 877.622 1998 877.503 2002.26 876.227L2019.89 870.943C2030.78 867.677 2042.51 872.179 2048.42 881.898L2055 892.707V744.133C2053.96 744.545 2052.88 744.89 2051.76 745.164L2033.9 749.557C2029.58 750.618 2025.63 752.81 2022.44 755.908L2009.24 768.734C2001.09 776.663 1988.6 778.085 1978.87 772.194L1963.13 762.665C1959.33 760.364 1954.98 759.118 1950.54 759.055L1932.14 758.794C1920.77 758.632 1910.93 750.812 1908.22 739.765L1903.82 721.895C1902.76 717.58 1900.57 713.626 1897.47 710.439L1884.65 697.244C1876.72 689.087 1875.3 676.605 1881.19 666.873L1890.72 651.131C1893.02 647.329 1894.26 642.983 1894.33 638.54L1894.59 620.14C1894.75 608.765 1902.57 598.934 1913.62 596.218L1931.49 591.824C1935.8 590.763 1939.76 588.571 1942.94 585.474L1956.14 572.648C1964.29 564.719 1976.78 563.297 1986.51 569.188L2002.25 578.717C2006.05 581.018 2010.4 582.264 2014.84 582.327L2033.24 582.588C2042.54 582.72 2050.81 587.971 2055 595.918V0ZM857.76 627.16C859.04 627.747 860.027 628.6 860.72 629.72H879.44C878.587 623.587 875.813 618.733 871.12 615.16C866.48 611.587 860.453 609.8 853.04 609.8C847.227 609.8 842.16 611.027 837.84 613.48C833.52 615.88 830.187 619.267 827.84 623.64C825.547 628.013 824.4 633 824.4 638.6C824.4 644.2 825.547 649.187 827.84 653.56C830.187 657.933 833.52 661.347 837.84 663.8C842.213 666.2 847.333 667.4 853.2 667.4C859.813 667.4 865.28 665.907 869.6 662.92C873.92 659.88 877.307 656.253 879.76 652.04V634.28H850.88V646.84H865.04C862.533 650.147 859.227 651.8 855.12 651.8C850.8 651.8 847.6 650.707 845.52 648.52C843.44 646.333 842.4 643.027 842.4 638.6C842.4 634.76 843.333 631.747 845.2 629.56C847.067 627.32 849.707 626.2 853.12 626.2C854.933 626.2 856.48 626.52 857.76 627.16ZM914.396 667L917.196 658.44H936.076L938.876 667H957.596L936.956 610.36H916.476L895.756 667H914.396ZM926.636 629.32L931.756 645.08H921.516L926.636 629.32ZM993.071 646.68L1003.71 667H1023.23L1010.91 645.32C1014.86 644.04 1017.87 641.933 1019.95 639C1022.08 636.067 1023.15 632.707 1023.15 628.92C1023.15 625.4 1022.32 622.253 1020.67 619.48C1019.07 616.653 1016.64 614.44 1013.39 612.84C1010.14 611.187 1006.22 610.36 1001.63 610.36H975.231V667H992.991V646.68H993.071ZM1000.03 634.84H992.991V625.24H1000.03C1001.68 625.24 1002.94 625.667 1003.79 626.52C1004.7 627.373 1005.15 628.547 1005.15 630.04C1005.15 631.693 1004.72 632.92 1003.87 633.72C1003.02 634.467 1001.74 634.84 1000.03 634.84ZM1081.55 613.96C1077.12 611.56 1071.94 610.36 1066.03 610.36H1042.43V667H1066.03C1071.94 667 1077.12 665.773 1081.55 663.32C1086.03 660.813 1089.46 657.4 1091.86 653.08C1094.27 648.76 1095.46 643.907 1095.46 638.52C1095.46 633.08 1094.27 628.227 1091.86 623.96C1089.46 619.693 1086.03 616.36 1081.55 613.96ZM1073.94 647.88C1071.6 650.067 1068.43 651.16 1064.43 651.16H1060.19V625.88H1064.43C1068.43 625.88 1071.6 626.973 1073.94 629.16C1076.29 631.347 1077.46 634.467 1077.46 638.52C1077.46 642.573 1076.29 645.693 1073.94 647.88ZM1133.24 631.48V624.52H1153.24V610.36H1115.48V667H1153.24V652.84H1133.24V644.84H1150.84V631.48H1133.24ZM1210.09 667H1227.85V610.36H1210.09V639.32L1191.29 610.36H1173.53V667H1191.29V638.52L1210.09 667ZM786.301 559.066C786.071 562.789 788.133 566.097 791.238 567.663C792.568 568.445 794.121 568.896 795.79 568.896H804.226C806.117 568.896 807.86 568.316 809.299 567.332C812.055 565.668 813.837 562.572 813.64 559.109L812.184 533.543C813.605 533.686 815.047 533.759 816.506 533.759C840.252 533.759 859.502 514.379 859.502 490.472C859.502 471.999 848.007 456.228 831.825 450.014C832.446 447.526 832.775 444.925 832.775 442.247C832.775 424.438 818.207 410 800.237 410C782.267 410 767.7 424.438 767.7 442.247C767.7 442.969 767.724 443.686 767.771 444.396C748.161 450.834 734 469.29 734 491.053C734 518.169 755.981 540.15 783.097 540.15C784.574 540.15 786.036 540.085 787.48 539.957L786.301 559.066ZM1245.6 540.15C1247.07 540.15 1248.53 540.085 1249.98 539.957L1248.8 559.066C1248.48 564.245 1252.59 568.621 1257.78 568.621H1267.15C1272.32 568.621 1276.43 564.272 1276.14 559.109L1274.52 530.728C1275.49 530.019 1276.44 529.275 1277.35 528.498C1277.65 528.51 1277.94 528.518 1278.24 528.523C1278.49 528.527 1278.75 528.53 1279 528.53C1302.75 528.53 1322 509.15 1322 485.243C1322 464.401 1307.37 447 1287.88 442.881C1285.39 427.532 1271.96 415.81 1255.76 415.81C1238.04 415.81 1223.62 429.858 1223.23 447.333C1207.36 455.467 1196.5 471.992 1196.5 491.053C1196.5 518.169 1218.48 540.15 1245.6 540.15ZM967.705 433.053C967.957 428.273 971.906 424.526 976.693 424.526H999.09C1003.89 424.526 1007.85 428.294 1008.08 433.089L1010.88 490.813H1012.45C1016.86 490.813 1020.45 494.394 1020.45 498.813V500.244C1020.45 504.662 1016.86 508.244 1012.45 508.244H1011.73L1014.18 558.603C1014.43 563.739 1010.33 568.04 1005.19 568.04H970.087C964.93 568.04 960.828 563.716 961.099 558.567L963.748 508.244H947.037L949.483 558.603C949.733 563.739 945.636 568.04 940.494 568.04H905.392C900.236 568.04 896.134 563.716 896.405 558.567L899.053 508.244H893.067C888.649 508.244 885.067 504.662 885.067 500.244V498.813C885.067 494.394 888.649 490.813 893.067 490.813H899.971L903.011 433.053C903.262 428.273 907.211 424.526 911.998 424.526H934.396C939.197 424.526 943.152 428.294 943.385 433.089L946.19 490.813H964.665L967.705 433.053ZM1122.38 424.526C1117.59 424.526 1113.64 428.273 1113.39 433.053L1111.36 471.589H1092.04L1090.17 433.089C1089.94 428.294 1085.98 424.526 1081.18 424.526H1058.78C1053.99 424.526 1050.05 428.273 1049.79 433.053L1047.77 471.589H1041.81C1037.39 471.589 1033.81 475.171 1033.81 479.589V481.02C1033.81 485.438 1037.39 489.02 1041.81 489.02H1046.85L1043.19 558.567C1042.92 563.716 1047.02 568.04 1052.18 568.04H1087.28C1092.42 568.04 1096.52 563.739 1096.27 558.603L1092.89 489.02H1110.44L1106.78 558.567C1106.51 563.716 1110.61 568.04 1115.77 568.04H1150.87C1156.02 568.04 1160.11 563.739 1159.86 558.603L1156.48 489.02H1161.19C1165.61 489.02 1169.19 485.438 1169.19 481.02V479.589C1169.19 475.171 1165.61 471.589 1161.19 471.589H1155.64L1153.76 433.089C1153.53 428.294 1149.58 424.526 1144.78 424.526H1122.38ZM1824.13 759.198C1835.47 760.153 1844.73 768.64 1846.67 779.849L1849.81 797.982C1850.56 802.36 1852.47 806.458 1855.34 809.853L1867.22 823.911C1874.56 832.601 1875.1 845.152 1868.55 854.449L1857.95 869.488C1855.39 873.12 1853.84 877.369 1853.47 881.797L1851.92 900.133C1850.97 911.469 1842.48 920.731 1831.27 922.67L1813.14 925.806C1808.76 926.564 1804.66 928.475 1801.27 931.342L1787.21 943.216C1778.52 950.557 1765.97 951.105 1756.67 944.55L1741.63 933.946C1738 931.385 1733.75 929.839 1729.32 929.466L1710.99 927.922C1699.65 926.967 1690.39 918.48 1688.45 907.271L1685.31 889.138C1684.56 884.76 1682.65 880.662 1679.78 877.267L1667.9 863.209C1660.56 854.519 1660.02 841.968 1666.57 832.671L1677.17 817.632C1679.73 814 1681.28 809.751 1681.65 805.323L1683.2 786.986C1684.15 775.651 1692.64 766.389 1703.85 764.45L1721.98 761.314C1726.36 760.556 1730.46 758.645 1733.85 755.778L1747.91 743.904C1756.6 736.563 1769.15 736.015 1778.45 742.57L1793.49 753.174C1797.12 755.735 1801.37 757.281 1805.8 757.654L1824.13 759.198ZM1870.62 1059.13C1872.53 1047.91 1866.63 1036.82 1856.27 1032.14L1839.5 1024.56C1835.45 1022.73 1831.96 1019.86 1829.39 1016.23L1818.75 1001.21C1812.18 991.931 1800.16 988.258 1789.52 992.277L1772.3 998.777C1768.15 1000.35 1763.65 1000.78 1759.27 1000.03L1741.13 996.936C1729.91 995.022 1718.82 1000.92 1714.14 1011.29L1706.56 1028.06C1704.73 1032.11 1701.86 1035.6 1698.23 1038.16L1683.21 1048.8C1673.93 1055.38 1670.26 1067.39 1674.28 1078.03L1680.78 1095.25C1682.35 1099.4 1682.78 1103.91 1682.03 1108.29L1678.94 1126.43C1677.02 1137.64 1682.92 1148.73 1693.29 1153.41L1710.06 1160.99C1714.11 1162.82 1717.6 1165.7 1720.16 1169.32L1730.8 1184.34C1737.38 1193.62 1749.39 1197.29 1760.03 1193.28L1777.25 1186.77C1781.4 1185.2 1785.91 1184.77 1790.29 1185.52L1808.43 1188.62C1819.64 1190.53 1830.73 1184.63 1835.41 1174.27L1842.99 1157.5C1844.82 1153.45 1847.7 1149.96 1851.32 1147.39L1866.34 1136.75C1875.62 1130.18 1879.29 1118.16 1875.28 1107.52L1868.77 1090.3C1867.2 1086.15 1866.77 1081.65 1867.52 1077.27L1870.62 1059.13ZM789.997 821.271C788.058 810.062 778.796 801.575 767.46 800.62L716.709 796.347C712.281 795.974 708.032 794.428 704.4 791.867L662.775 762.518C653.478 755.963 640.927 756.511 632.237 763.851L593.328 796.716C589.934 799.584 585.836 801.495 581.457 802.252L531.271 810.932C520.062 812.871 511.575 822.133 510.62 833.469L506.347 884.221C505.974 888.649 504.428 892.897 501.867 896.529L472.518 938.154C465.963 947.451 466.511 960.002 473.851 968.692L506.716 1007.6C509.584 1011 511.495 1015.09 512.252 1019.47L520.932 1069.66C522.871 1080.87 532.133 1089.35 543.469 1090.31L594.221 1094.58C598.649 1094.96 602.897 1096.5 606.529 1099.06L648.154 1128.41C657.451 1134.97 670.002 1134.42 678.692 1127.08L717.601 1094.21C720.996 1091.35 725.093 1089.43 729.472 1088.68L779.658 1080C790.868 1078.06 799.355 1068.8 800.309 1057.46L804.582 1006.71C804.955 1002.28 806.502 998.032 809.062 994.4L838.411 952.775C844.967 943.478 844.419 930.927 837.078 922.237L804.213 883.329C801.345 879.934 799.435 875.836 798.677 871.457L789.997 821.271ZM1219.66 1030.72C1228.75 1037.56 1232.07 1049.67 1227.75 1060.19L1208.4 1107.3C1206.71 1111.41 1206.15 1115.9 1206.77 1120.3L1213.89 1170.73C1215.48 1181.99 1209.27 1192.91 1198.77 1197.3L1151.77 1216.92C1147.67 1218.64 1144.1 1221.41 1141.43 1224.96L1110.81 1265.66C1103.97 1274.75 1091.86 1278.07 1081.33 1273.75L1034.22 1254.4C1030.11 1252.71 1025.63 1252.15 1021.23 1252.77L970.795 1259.89C959.531 1261.48 948.613 1255.27 944.229 1244.77L924.602 1197.77C922.89 1193.67 920.115 1190.1 916.564 1187.43L875.867 1156.81C866.777 1149.97 863.451 1137.86 867.774 1127.33L887.128 1080.22C888.816 1076.11 889.379 1071.63 888.757 1067.23L881.633 1016.8C880.042 1005.53 886.256 994.613 896.753 990.229L943.751 970.602C947.851 968.89 951.421 966.115 954.093 962.564L984.716 921.867C991.555 912.777 1003.67 909.451 1014.19 913.774L1061.3 933.128C1065.41 934.816 1069.9 935.379 1074.3 934.757L1124.73 927.633C1135.99 926.042 1146.91 932.256 1151.3 942.753L1170.92 989.751C1172.64 993.851 1175.41 997.421 1178.96 1000.09L1219.66 1030.72ZM1603.93 841.096C1613.82 846.729 1618.65 858.324 1615.7 869.31L1602.47 918.492C1601.31 922.784 1601.32 927.305 1602.5 931.591L1615.95 980.713C1618.95 991.684 1614.17 1003.3 1604.32 1008.98L1560.18 1034.4C1556.33 1036.62 1553.14 1039.82 1550.94 1043.69L1525.72 1087.93C1520.09 1097.82 1508.49 1102.65 1497.51 1099.7L1448.33 1086.47C1444.03 1085.31 1439.51 1085.32 1435.23 1086.5L1386.11 1099.95C1375.13 1102.95 1363.52 1098.17 1357.84 1088.32L1332.42 1044.18C1330.2 1040.33 1326.99 1037.14 1323.13 1034.94L1278.88 1009.72C1269 1004.09 1264.17 992.494 1267.12 981.508L1280.35 932.326C1281.51 928.034 1281.5 923.513 1280.32 919.227L1266.87 870.105C1263.86 859.134 1268.64 847.516 1278.5 841.838L1322.63 816.416C1326.48 814.198 1329.67 810.993 1331.88 807.133L1357.1 762.884C1362.73 753.001 1374.32 748.167 1385.31 751.122L1434.49 764.353C1438.78 765.507 1443.3 765.497 1447.59 764.323L1496.71 750.868C1507.68 747.863 1519.3 752.644 1524.98 762.501L1550.4 806.634C1552.62 810.485 1555.82 813.675 1559.69 815.875L1603.93 841.096ZM405.531 1023.55C405.569 1012.18 397.921 1002.21 386.923 999.304L369.133 994.599C364.837 993.463 360.921 991.202 357.79 988.05L344.82 974.995C336.802 966.925 324.347 965.285 314.514 971.005L298.608 980.258C294.767 982.493 290.4 983.663 285.956 983.648L267.554 983.588C256.179 983.551 246.212 991.199 243.304 1002.2L238.599 1019.99C237.463 1024.28 235.202 1028.2 232.05 1031.33L218.995 1044.3C210.925 1052.32 209.285 1064.77 215.005 1074.61L224.258 1090.51C226.493 1094.35 227.663 1098.72 227.648 1103.16L227.588 1121.57C227.551 1132.94 235.199 1142.91 246.197 1145.82L263.987 1150.52C268.283 1151.66 272.198 1153.92 275.33 1157.07L288.3 1170.12C296.317 1178.19 308.772 1179.83 318.606 1174.11L334.512 1164.86C338.353 1162.63 342.72 1161.46 347.164 1161.47L365.566 1161.53C376.941 1161.57 386.908 1153.92 389.816 1142.92L394.521 1125.13C395.657 1120.84 397.918 1116.92 401.07 1113.79L414.125 1100.82C422.195 1092.8 423.834 1080.35 418.114 1070.51L408.862 1054.61C406.627 1050.77 405.457 1046.4 405.471 1041.96L405.531 1023.55ZM364.133 735.198C375.469 736.153 384.731 744.64 386.67 755.849L389.806 773.982C390.564 778.36 392.475 782.458 395.342 785.853L407.216 799.911C414.557 808.601 415.105 821.152 408.55 830.449L397.946 845.488C395.385 849.12 393.839 853.369 393.466 857.797L391.922 876.133C390.967 887.469 382.48 896.731 371.271 898.67L353.138 901.806C348.76 902.564 344.662 904.475 341.267 907.342L327.209 919.216C318.519 926.557 305.968 927.105 296.671 920.55L281.632 909.946C278 907.385 273.751 905.839 269.323 905.466L250.986 903.922C239.651 902.967 230.389 894.48 228.45 883.271L225.314 865.138C224.556 860.76 222.645 856.662 219.778 853.267L207.904 839.209C200.563 830.519 200.015 817.968 206.57 808.671L217.174 793.632C219.735 790 221.281 785.751 221.654 781.323L223.198 762.986C224.153 751.651 232.64 742.389 243.849 740.45L261.982 737.314C266.36 736.556 270.458 734.645 273.853 731.778L287.911 719.904C296.601 712.563 309.152 712.015 318.449 718.57L333.488 729.174C337.12 731.735 341.369 733.281 345.797 733.654L364.133 735.198ZM1293.82 1252.33C1296.06 1253.16 1298.47 1253.58 1301.06 1253.58C1304.01 1253.58 1306.65 1253.06 1308.98 1252.04C1311.35 1251.02 1313.34 1249.53 1314.94 1247.58L1309.94 1242.97C1308.79 1244.31 1307.51 1245.32 1306.1 1245.99C1304.7 1246.63 1303.16 1246.95 1301.5 1246.95C1299.93 1246.95 1298.49 1246.7 1297.18 1246.18C1295.86 1245.67 1294.73 1244.94 1293.77 1243.98C1292.81 1243.02 1292.06 1241.88 1291.51 1240.57C1291 1239.26 1290.74 1237.8 1290.74 1236.2C1290.74 1234.6 1291 1233.14 1291.51 1231.83C1292.06 1230.52 1292.81 1229.38 1293.77 1228.42C1294.73 1227.46 1295.86 1226.73 1297.18 1226.22C1298.49 1225.7 1299.93 1225.45 1301.5 1225.45C1303.16 1225.45 1304.7 1225.78 1306.1 1226.46C1307.51 1227.1 1308.79 1228.07 1309.94 1229.38L1314.94 1224.78C1313.34 1222.82 1311.35 1221.35 1308.98 1220.36C1306.65 1219.34 1304.02 1218.82 1301.11 1218.82C1298.49 1218.82 1296.07 1219.26 1293.86 1220.12C1291.66 1220.95 1289.72 1222.15 1288.06 1223.72C1286.42 1225.29 1285.14 1227.13 1284.22 1229.24C1283.32 1231.35 1282.87 1233.67 1282.87 1236.2C1282.87 1238.73 1283.32 1241.05 1284.22 1243.16C1285.14 1245.27 1286.42 1247.11 1288.06 1248.68C1289.69 1250.25 1291.61 1251.46 1293.82 1252.33ZM1340.65 1251.66C1342.8 1252.81 1345.25 1253.38 1348 1253.38C1350.72 1253.38 1353.15 1252.81 1355.29 1251.66C1357.44 1250.5 1359.12 1248.94 1360.33 1246.95C1361.55 1244.94 1362.16 1242.65 1362.16 1240.09C1362.16 1237.46 1361.55 1235.16 1360.33 1233.18C1359.12 1231.19 1357.44 1229.64 1355.29 1228.52C1353.15 1227.37 1350.72 1226.79 1348 1226.79C1345.25 1226.79 1342.8 1227.37 1340.65 1228.52C1338.54 1229.64 1336.86 1231.21 1335.61 1233.22C1334.4 1235.21 1333.79 1237.5 1333.79 1240.09C1333.79 1242.65 1334.4 1244.94 1335.61 1246.95C1336.86 1248.94 1338.54 1250.5 1340.65 1251.66ZM1351.36 1246.38C1350.37 1246.95 1349.25 1247.24 1348 1247.24C1346.75 1247.24 1345.63 1246.95 1344.64 1246.38C1343.65 1245.8 1342.85 1244.98 1342.24 1243.93C1341.66 1242.84 1341.37 1241.56 1341.37 1240.09C1341.37 1238.58 1341.66 1237.3 1342.24 1236.25C1342.85 1235.19 1343.65 1234.38 1344.64 1233.8C1345.63 1233.22 1346.75 1232.94 1348 1232.94C1349.25 1232.94 1350.37 1233.22 1351.36 1233.8C1352.35 1234.38 1353.13 1235.19 1353.71 1236.25C1354.29 1237.3 1354.57 1238.58 1354.57 1240.09C1354.57 1241.56 1354.29 1242.84 1353.71 1243.93C1353.13 1244.98 1352.35 1245.8 1351.36 1246.38ZM1389.44 1227.18H1368.75V1253H1376.19V1233.32H1389.44V1227.18ZM1398.52 1251.66C1400.66 1252.81 1403.11 1253.38 1405.86 1253.38C1408.58 1253.38 1411.01 1252.81 1413.16 1251.66C1415.3 1250.5 1416.98 1248.94 1418.2 1246.95C1419.41 1244.94 1420.02 1242.65 1420.02 1240.09C1420.02 1237.46 1419.41 1235.16 1418.2 1233.18C1416.98 1231.19 1415.3 1229.64 1413.16 1228.52C1411.01 1227.37 1408.58 1226.79 1405.86 1226.79C1403.11 1226.79 1400.66 1227.37 1398.52 1228.52C1396.41 1229.64 1394.73 1231.21 1393.48 1233.22C1392.26 1235.21 1391.65 1237.5 1391.65 1240.09C1391.65 1242.65 1392.26 1244.94 1393.48 1246.95C1394.73 1248.94 1396.41 1250.5 1398.52 1251.66ZM1409.22 1246.38C1408.23 1246.95 1407.11 1247.24 1405.86 1247.24C1404.61 1247.24 1403.49 1246.95 1402.5 1246.38C1401.51 1245.8 1400.71 1244.98 1400.1 1243.93C1399.53 1242.84 1399.24 1241.56 1399.24 1240.09C1399.24 1238.58 1399.53 1237.3 1400.1 1236.25C1400.71 1235.19 1401.51 1234.38 1402.5 1233.8C1403.49 1233.22 1404.61 1232.94 1405.86 1232.94C1407.11 1232.94 1408.23 1233.22 1409.22 1233.8C1410.21 1234.38 1411 1235.19 1411.57 1236.25C1412.15 1237.3 1412.44 1238.58 1412.44 1240.09C1412.44 1241.56 1412.15 1242.84 1411.57 1243.93C1411 1244.98 1410.21 1245.8 1409.22 1246.38ZM1436.12 1251.94C1437.75 1252.9 1439.65 1253.38 1441.83 1253.38C1444.26 1253.38 1446.44 1252.84 1448.36 1251.75C1450.31 1250.66 1451.84 1249.13 1452.96 1247.14C1454.12 1245.16 1454.69 1242.81 1454.69 1240.09C1454.69 1237.4 1454.12 1235.06 1452.96 1233.08C1451.84 1231.1 1450.31 1229.56 1448.36 1228.47C1446.44 1227.35 1444.26 1226.79 1441.83 1226.79C1439.56 1226.79 1437.6 1227.27 1435.97 1228.23C1435.11 1228.74 1434.36 1229.38 1433.72 1230.16V1227.18H1426.56V1262.31H1434.05V1250.27C1434.66 1250.93 1435.35 1251.49 1436.12 1251.94ZM1443.84 1246.38C1442.88 1246.95 1441.78 1247.24 1440.53 1247.24C1439.28 1247.24 1438.16 1246.95 1437.17 1246.38C1436.18 1245.8 1435.4 1244.98 1434.82 1243.93C1434.24 1242.84 1433.96 1241.56 1433.96 1240.09C1433.96 1238.58 1434.24 1237.3 1434.82 1236.25C1435.4 1235.19 1436.18 1234.38 1437.17 1233.8C1438.16 1233.22 1439.28 1232.94 1440.53 1232.94C1441.78 1232.94 1442.88 1233.22 1443.84 1233.8C1444.84 1234.38 1445.62 1235.19 1446.2 1236.25C1446.8 1237.3 1447.11 1238.58 1447.11 1240.09C1447.11 1241.56 1446.8 1242.84 1446.2 1243.93C1445.62 1244.98 1444.84 1245.8 1443.84 1246.38ZM1466.13 1251.66C1468.28 1252.81 1470.72 1253.38 1473.48 1253.38C1476.2 1253.38 1478.63 1252.81 1480.77 1251.66C1482.92 1250.5 1484.6 1248.94 1485.81 1246.95C1487.03 1244.94 1487.64 1242.65 1487.64 1240.09C1487.64 1237.46 1487.03 1235.16 1485.81 1233.18C1484.6 1231.19 1482.92 1229.64 1480.77 1228.52C1478.63 1227.37 1476.2 1226.79 1473.48 1226.79C1470.72 1226.79 1468.28 1227.37 1466.13 1228.52C1464.02 1229.64 1462.34 1231.21 1461.09 1233.22C1459.88 1235.21 1459.27 1237.5 1459.27 1240.09C1459.27 1242.65 1459.88 1244.94 1461.09 1246.95C1462.34 1248.94 1464.02 1250.5 1466.13 1251.66ZM1476.84 1246.38C1475.84 1246.95 1474.72 1247.24 1473.48 1247.24C1472.23 1247.24 1471.11 1246.95 1470.12 1246.38C1469.12 1245.8 1468.32 1244.98 1467.72 1243.93C1467.14 1242.84 1466.85 1241.56 1466.85 1240.09C1466.85 1238.58 1467.14 1237.3 1467.72 1236.25C1468.32 1235.19 1469.12 1234.38 1470.12 1233.8C1471.11 1233.22 1472.23 1232.94 1473.48 1232.94C1474.72 1232.94 1475.84 1233.22 1476.84 1233.8C1477.83 1234.38 1478.61 1235.19 1479.19 1236.25C1479.76 1237.3 1480.05 1238.58 1480.05 1240.09C1480.05 1241.56 1479.76 1242.84 1479.19 1243.93C1478.61 1244.98 1477.83 1245.8 1476.84 1246.38ZM1519.1 1246.86H1522.8V1258.57H1515.84V1253H1497.69V1258.57H1490.73V1246.86H1491.6C1492.52 1246.86 1493.28 1246.58 1493.85 1246.04C1494.43 1245.46 1494.88 1244.68 1495.2 1243.69C1495.52 1242.66 1495.76 1241.51 1495.92 1240.23C1496.08 1238.92 1496.19 1237.54 1496.25 1236.1L1496.59 1227.18H1519.1V1246.86ZM1511.61 1246.86V1233.32H1503.16L1503.02 1236.63C1502.96 1238.01 1502.88 1239.32 1502.78 1240.57C1502.68 1241.82 1502.49 1242.95 1502.2 1243.98C1501.95 1244.97 1501.56 1245.82 1501.05 1246.52C1500.96 1246.64 1500.87 1246.75 1500.76 1246.86H1511.61ZM1544.4 1249.79V1253H1551.41V1238.26C1551.41 1234.33 1550.32 1231.43 1548.15 1229.58C1545.97 1227.72 1542.92 1226.79 1538.98 1226.79C1536.93 1226.79 1534.92 1227.06 1532.93 1227.61C1530.95 1228.15 1529.25 1228.92 1527.84 1229.91L1530.53 1235.14C1531.46 1234.41 1532.58 1233.83 1533.89 1233.42C1535.24 1232.97 1536.6 1232.74 1537.97 1232.74C1539.99 1232.74 1541.48 1233.19 1542.44 1234.09C1543.43 1234.98 1543.92 1236.23 1543.92 1237.83H1537.97C1535.35 1237.83 1533.22 1238.17 1531.59 1238.84C1529.96 1239.48 1528.76 1240.38 1527.99 1241.53C1527.25 1242.68 1526.88 1244.02 1526.88 1245.56C1526.88 1247.03 1527.27 1248.36 1528.04 1249.54C1528.8 1250.73 1529.91 1251.67 1531.35 1252.38C1532.79 1253.05 1534.52 1253.38 1536.53 1253.38C1538.8 1253.38 1540.66 1252.95 1542.1 1252.09C1543.07 1251.5 1543.84 1250.74 1544.4 1249.79ZM1543.92 1244.84V1242.2H1538.79C1537.03 1242.2 1535.81 1242.49 1535.14 1243.06C1534.5 1243.64 1534.18 1244.36 1534.18 1245.22C1534.18 1246.18 1534.55 1246.95 1535.28 1247.53C1536.05 1248.07 1537.09 1248.34 1538.4 1248.34C1539.65 1248.34 1540.77 1248.06 1541.76 1247.48C1542.76 1246.87 1543.48 1245.99 1543.92 1244.84ZM1309.85 1305.86H1313.54V1317.57H1306.58V1312H1288.44V1317.57H1281.48V1305.86H1282.34C1283.27 1305.86 1284.02 1305.58 1284.6 1305.04C1285.18 1304.46 1285.62 1303.68 1285.94 1302.69C1286.26 1301.66 1286.5 1300.51 1286.66 1299.23C1286.82 1297.92 1286.94 1296.54 1287 1295.1L1287.34 1286.18H1309.85V1305.86ZM1302.36 1305.86V1292.32H1293.91L1293.77 1295.63C1293.7 1297.01 1293.62 1298.32 1293.53 1299.57C1293.43 1300.82 1293.24 1301.95 1292.95 1302.98C1292.7 1303.97 1292.31 1304.82 1291.8 1305.52C1291.71 1305.64 1291.61 1305.75 1291.51 1305.86H1302.36ZM1316.82 1305.81L1316.43 1311.95C1317.17 1312.14 1317.86 1312.29 1318.5 1312.38C1319.14 1312.48 1319.74 1312.53 1320.32 1312.53C1321.92 1312.53 1323.23 1312.16 1324.26 1311.42C1325.28 1310.66 1326.1 1309.58 1326.7 1308.21C1327.31 1306.8 1327.74 1305.14 1328 1303.22C1328.29 1301.3 1328.48 1299.18 1328.58 1296.88L1328.81 1292.32H1336.98V1312H1344.46V1286.18H1322.38L1322 1296.54C1321.94 1297.76 1321.84 1298.93 1321.71 1300.05C1321.62 1301.17 1321.44 1302.18 1321.18 1303.07C1320.93 1303.94 1320.54 1304.62 1320.03 1305.14C1319.52 1305.65 1318.82 1305.9 1317.92 1305.9H1317.39L1316.82 1305.81ZM1369.38 1304.61V1312H1376.05V1286.18H1363.71C1359.94 1286.18 1356.93 1286.99 1354.69 1288.62C1352.48 1290.26 1351.38 1292.61 1351.38 1295.68C1351.38 1298.56 1352.43 1300.77 1354.55 1302.3C1355.24 1302.81 1356.01 1303.23 1356.88 1303.57L1350.99 1312H1358.96L1363.86 1304.61H1369.38ZM1369.38 1299.62V1292.27H1363.86C1362.32 1292.27 1361.12 1292.56 1360.26 1293.14C1359.43 1293.71 1359.01 1294.64 1359.01 1295.92C1359.01 1298.38 1360.59 1299.62 1363.76 1299.62H1369.38ZM1399.72 1286.18V1312H1413.5C1417.05 1312 1419.69 1311.34 1421.42 1310.03C1423.14 1308.72 1424.01 1306.93 1424.01 1304.66C1424.01 1302.45 1423.22 1300.77 1421.66 1299.62C1421.05 1299.16 1420.32 1298.8 1419.47 1298.52C1419.89 1298.32 1420.28 1298.1 1420.65 1297.84C1422.38 1296.62 1423.24 1294.96 1423.24 1292.85C1423.24 1290.74 1422.33 1289.1 1420.5 1287.95C1418.68 1286.77 1416.15 1286.18 1412.92 1286.18H1399.72ZM1412.87 1306.91H1406.58V1301.2H1413.02C1414.39 1301.2 1415.4 1301.44 1416.04 1301.92C1416.68 1302.37 1417 1303.09 1417 1304.08C1417 1305.04 1416.65 1305.76 1415.94 1306.24C1415.27 1306.69 1414.25 1306.91 1412.87 1306.91ZM1412.25 1296.78H1406.58V1291.26H1412.25C1413.56 1291.26 1414.54 1291.49 1415.18 1291.94C1415.85 1292.38 1416.18 1293.07 1416.18 1294C1416.18 1294.9 1415.85 1295.58 1415.18 1296.06C1414.54 1296.54 1413.56 1296.78 1412.25 1296.78ZM1446.47 1308.79V1312H1453.48V1297.26C1453.48 1293.33 1452.39 1290.43 1450.22 1288.58C1448.04 1286.72 1444.99 1285.79 1441.05 1285.79C1439 1285.79 1436.99 1286.06 1435 1286.61C1433.02 1287.15 1431.32 1287.92 1429.91 1288.91L1432.6 1294.14C1433.53 1293.41 1434.65 1292.83 1435.96 1292.42C1437.31 1291.97 1438.67 1291.74 1440.04 1291.74C1442.06 1291.74 1443.55 1292.19 1444.51 1293.09C1445.5 1293.98 1445.99 1295.23 1445.99 1296.83H1440.04C1437.42 1296.83 1435.29 1297.17 1433.66 1297.84C1432.03 1298.48 1430.83 1299.38 1430.06 1300.53C1429.32 1301.68 1428.95 1303.02 1428.95 1304.56C1428.95 1306.03 1429.34 1307.36 1430.11 1308.54C1430.87 1309.73 1431.98 1310.67 1433.42 1311.38C1434.86 1312.05 1436.59 1312.38 1438.6 1312.38C1440.87 1312.38 1442.73 1311.95 1444.17 1311.09C1445.14 1310.5 1445.91 1309.74 1446.47 1308.79ZM1445.99 1303.84V1301.2H1440.86C1439.1 1301.2 1437.88 1301.49 1437.21 1302.06C1436.57 1302.64 1436.25 1303.36 1436.25 1304.22C1436.25 1305.18 1436.62 1305.95 1437.35 1306.53C1438.12 1307.07 1439.16 1307.34 1440.47 1307.34C1441.72 1307.34 1442.84 1307.06 1443.83 1306.48C1444.83 1305.87 1445.55 1304.99 1445.99 1303.84ZM1477.41 1305.86V1286.18H1484.9V1305.86H1493.4V1286.18H1500.84V1312H1461.43V1286.18H1468.87V1305.86H1477.41ZM1514.31 1310.66C1516.55 1311.81 1519.14 1312.38 1522.09 1312.38C1524.42 1312.38 1526.49 1312.03 1528.28 1311.33C1530.07 1310.59 1531.56 1309.55 1532.74 1308.21L1528.76 1303.89C1527.89 1304.72 1526.93 1305.34 1525.88 1305.76C1524.85 1306.18 1523.65 1306.38 1522.28 1306.38C1520.74 1306.38 1519.4 1306.11 1518.25 1305.57C1517.13 1304.99 1516.25 1304.18 1515.61 1303.12C1515.27 1302.53 1515.03 1301.89 1514.88 1301.2H1534.42C1534.45 1300.88 1534.49 1300.54 1534.52 1300.19C1534.55 1299.81 1534.57 1299.47 1534.57 1299.18C1534.57 1296.4 1533.97 1294.02 1532.79 1292.03C1531.61 1290.02 1529.99 1288.48 1527.94 1287.42C1525.93 1286.34 1523.65 1285.79 1521.13 1285.79C1518.5 1285.79 1516.15 1286.37 1514.07 1287.52C1511.99 1288.64 1510.34 1290.21 1509.13 1292.22C1507.94 1294.21 1507.35 1296.5 1507.35 1299.09C1507.35 1301.65 1507.96 1303.94 1509.17 1305.95C1510.39 1307.94 1512.1 1309.5 1514.31 1310.66ZM1514.8 1296.83C1514.92 1296.03 1515.16 1295.31 1515.51 1294.67C1516.05 1293.65 1516.81 1292.86 1517.77 1292.32C1518.76 1291.74 1519.89 1291.46 1521.17 1291.46C1522.45 1291.46 1523.57 1291.74 1524.53 1292.32C1525.49 1292.86 1526.25 1293.63 1526.79 1294.62C1527.15 1295.28 1527.39 1296.02 1527.51 1296.83H1514.8ZM1562.43 1286.18H1541.74V1312H1549.18V1292.32H1562.43V1286.18ZM1571.52 1310.66C1573.66 1311.81 1576.11 1312.38 1578.86 1312.38C1581.58 1312.38 1584.01 1311.81 1586.16 1310.66C1588.3 1309.5 1589.98 1307.94 1591.2 1305.95C1592.41 1303.94 1593.02 1301.65 1593.02 1299.09C1593.02 1296.46 1592.41 1294.16 1591.2 1292.18C1589.98 1290.19 1588.3 1288.64 1586.16 1287.52C1584.01 1286.37 1581.58 1285.79 1578.86 1285.79C1576.11 1285.79 1573.66 1286.37 1571.52 1287.52C1569.4 1288.64 1567.72 1290.21 1566.48 1292.22C1565.26 1294.21 1564.65 1296.5 1564.65 1299.09C1564.65 1301.65 1565.26 1303.94 1566.48 1305.95C1567.72 1307.94 1569.4 1309.5 1571.52 1310.66ZM1582.22 1305.38C1581.23 1305.95 1580.11 1306.24 1578.86 1306.24C1577.61 1306.24 1576.49 1305.95 1575.5 1305.38C1574.51 1304.8 1573.71 1303.98 1573.1 1302.93C1572.52 1301.84 1572.24 1300.56 1572.24 1299.09C1572.24 1297.58 1572.52 1296.3 1573.1 1295.25C1573.71 1294.19 1574.51 1293.38 1575.5 1292.8C1576.49 1292.22 1577.61 1291.94 1578.86 1291.94C1580.11 1291.94 1581.23 1292.22 1582.22 1292.8C1583.21 1293.38 1584 1294.19 1584.57 1295.25C1585.15 1296.3 1585.44 1297.58 1585.44 1299.09C1585.44 1300.56 1585.15 1301.84 1584.57 1302.93C1584 1303.98 1583.21 1304.8 1582.22 1305.38ZM1619.49 1310.7C1621.67 1311.82 1624.15 1312.38 1626.93 1312.38C1629.65 1312.38 1632.02 1311.82 1634.04 1310.7C1636.05 1309.55 1637.54 1307.94 1638.5 1305.86L1632.69 1302.69C1632.02 1303.94 1631.17 1304.85 1630.15 1305.42C1629.16 1305.97 1628.07 1306.24 1626.88 1306.24C1625.6 1306.24 1624.45 1305.95 1623.43 1305.38C1622.4 1304.8 1621.59 1303.98 1620.98 1302.93C1620.4 1301.87 1620.12 1300.59 1620.12 1299.09C1620.12 1297.58 1620.4 1296.3 1620.98 1295.25C1621.59 1294.19 1622.4 1293.38 1623.43 1292.8C1624.45 1292.22 1625.6 1291.94 1626.88 1291.94C1628.07 1291.94 1629.16 1292.22 1630.15 1292.8C1631.17 1293.38 1632.02 1294.27 1632.69 1295.49L1638.5 1292.37C1637.54 1290.26 1636.05 1288.64 1634.04 1287.52C1632.02 1286.37 1629.65 1285.79 1626.93 1285.79C1624.15 1285.79 1621.67 1286.37 1619.49 1287.52C1617.32 1288.64 1615.6 1290.21 1614.36 1292.22C1613.14 1294.21 1612.53 1296.5 1612.53 1299.09C1612.53 1301.65 1613.14 1303.94 1614.36 1305.95C1615.6 1307.97 1617.32 1309.55 1619.49 1310.7ZM1649.96 1292.32V1312H1657.4V1292.32H1666.14V1286.18H1641.23V1292.32H1649.96ZM1675.24 1310.66C1677.39 1311.81 1679.84 1312.38 1682.59 1312.38C1685.31 1312.38 1687.74 1311.81 1689.88 1310.66C1692.03 1309.5 1693.71 1307.94 1694.92 1305.95C1696.14 1303.94 1696.75 1301.65 1696.75 1299.09C1696.75 1296.46 1696.14 1294.16 1694.92 1292.18C1693.71 1290.19 1692.03 1288.64 1689.88 1287.52C1687.74 1286.37 1685.31 1285.79 1682.59 1285.79C1679.84 1285.79 1677.39 1286.37 1675.24 1287.52C1673.13 1288.64 1671.45 1290.21 1670.2 1292.22C1668.99 1294.21 1668.38 1296.5 1668.38 1299.09C1668.38 1301.65 1668.99 1303.94 1670.2 1305.95C1671.45 1307.94 1673.13 1309.5 1675.24 1310.66ZM1685.95 1305.38C1684.96 1305.95 1683.84 1306.24 1682.59 1306.24C1681.34 1306.24 1680.22 1305.95 1679.23 1305.38C1678.24 1304.8 1677.44 1303.98 1676.83 1302.93C1676.25 1301.84 1675.96 1300.56 1675.96 1299.09C1675.96 1297.58 1676.25 1296.3 1676.83 1295.25C1677.44 1294.19 1678.24 1293.38 1679.23 1292.8C1680.22 1292.22 1681.34 1291.94 1682.59 1291.94C1683.84 1291.94 1684.96 1292.22 1685.95 1292.8C1686.94 1293.38 1687.72 1294.19 1688.3 1295.25C1688.88 1296.3 1689.16 1297.58 1689.16 1299.09C1689.16 1300.56 1688.88 1301.84 1688.3 1302.93C1687.72 1303.98 1686.94 1304.8 1685.95 1305.38ZM1700.08 1305.81L1699.7 1311.95C1700.44 1312.14 1701.12 1312.29 1701.76 1312.38C1702.4 1312.48 1703.01 1312.53 1703.59 1312.53C1705.19 1312.53 1706.5 1312.16 1707.52 1311.42C1708.55 1310.66 1709.36 1309.58 1709.97 1308.21C1710.58 1306.8 1711.01 1305.14 1711.27 1303.22C1711.56 1301.3 1711.75 1299.18 1711.84 1296.88L1712.08 1292.32H1720.24V1312H1727.73V1286.18H1705.65L1705.27 1296.54C1705.2 1297.76 1705.11 1298.93 1704.98 1300.05C1704.88 1301.17 1704.71 1302.18 1704.45 1303.07C1704.2 1303.94 1703.81 1304.62 1703.3 1305.14C1702.79 1305.65 1702.08 1305.9 1701.19 1305.9H1700.66L1700.08 1305.81ZM1751.83 1308.79V1312H1758.84V1297.26C1758.84 1293.33 1757.75 1290.43 1755.57 1288.58C1753.4 1286.72 1750.34 1285.79 1746.4 1285.79C1744.36 1285.79 1742.34 1286.06 1740.36 1286.61C1738.37 1287.15 1736.68 1287.92 1735.27 1288.91L1737.96 1294.14C1738.88 1293.41 1740 1292.83 1741.32 1292.42C1742.66 1291.97 1744.02 1291.74 1745.4 1291.74C1747.41 1291.74 1748.9 1292.19 1749.86 1293.09C1750.85 1293.98 1751.35 1295.23 1751.35 1296.83H1745.4C1742.77 1296.83 1740.64 1297.17 1739.01 1297.84C1737.38 1298.48 1736.18 1299.38 1735.41 1300.53C1734.68 1301.68 1734.31 1303.02 1734.31 1304.56C1734.31 1306.03 1734.69 1307.36 1735.46 1308.54C1736.23 1309.73 1737.33 1310.67 1738.77 1311.38C1740.21 1312.05 1741.94 1312.38 1743.96 1312.38C1746.23 1312.38 1748.08 1311.95 1749.52 1311.09C1750.5 1310.5 1751.26 1309.74 1751.83 1308.79ZM1751.35 1303.84V1301.2H1746.21C1744.45 1301.2 1743.24 1301.49 1742.56 1302.06C1741.92 1302.64 1741.6 1303.36 1741.6 1304.22C1741.6 1305.18 1741.97 1305.95 1742.71 1306.53C1743.48 1307.07 1744.52 1307.34 1745.83 1307.34C1747.08 1307.34 1748.2 1307.06 1749.19 1306.48C1750.18 1305.87 1750.9 1304.99 1751.35 1303.84Z" fill="#F5F5F5"/>
</svg>
