<svg width="1866" height="1027" viewBox="0 0 1866 1027" fill="none" xmlns="http://www.w3.org/2000/svg">
<g clip-path="url(#clip0_111_920)">
<path fill-rule="evenodd" clip-rule="evenodd" d="M0 -58.8323H1866V548.854C1862.78 549.669 1859.43 550.098 1856 550.098H1820.11C1809.01 550.098 1799.18 557.244 1795.75 567.798C1792.32 578.352 1782.49 585.498 1771.39 585.498H1760.19C1749.02 585.498 1739.09 578.379 1735.5 567.798C1731.91 557.217 1721.98 550.098 1710.81 550.098H1688.36C1677.03 550.098 1666.9 557.165 1663 567.798C1659.1 578.43 1648.97 585.498 1637.64 585.498H1632.19C1621.02 585.498 1611.09 578.379 1607.5 567.798C1603.91 557.217 1593.98 550.098 1582.81 550.098H1557.36C1546.03 550.098 1535.9 557.165 1532 567.798C1528.1 578.43 1517.97 585.498 1506.64 585.498H1500.63C1489.17 585.498 1478.95 578.269 1475.13 567.458C1471.43 556.983 1461.7 549.835 1450.6 549.436L1436.3 548.922C1409.64 547.964 1387.5 569.319 1387.5 596V668.5V671.181C1387.5 733.037 1337.36 783.181 1275.5 783.181H1171H1043H844.5H707H652.955C583.392 783.181 527 726.789 527 657.227V651.617C527 596.236 488.766 548.188 434.8 535.75C407.482 529.453 383.267 513.707 366.431 491.291L364.189 488.306C329.238 441.772 267.478 424.367 213.372 445.805L191.964 454.288C162.026 466.15 129.195 468.66 97.8011 461.487L0 439.141V-58.8323ZM792.72 501.72C792.027 500.6 791.04 499.747 789.76 499.16C788.48 498.52 786.933 498.2 785.12 498.2C781.707 498.2 779.067 499.32 777.2 501.56C775.333 503.747 774.4 506.76 774.4 510.6C774.4 515.027 775.44 518.333 777.52 520.52C779.6 522.707 782.8 523.8 787.12 523.8C791.227 523.8 794.533 522.147 797.04 518.84H782.88V506.28H811.76V524.04C809.307 528.253 805.92 531.88 801.6 534.92C797.28 537.907 791.813 539.4 785.2 539.4C779.333 539.4 774.213 538.2 769.84 535.8C765.52 533.347 762.187 529.933 759.84 525.56C757.547 521.187 756.4 516.2 756.4 510.6C756.4 505 757.547 500.013 759.84 495.64C762.187 491.267 765.52 487.88 769.84 485.48C774.16 483.027 779.227 481.8 785.04 481.8C792.453 481.8 798.48 483.587 803.12 487.16C807.813 490.733 810.587 495.587 811.44 501.72H792.72ZM849.196 530.44L846.396 539H827.756L848.476 482.36H868.956L889.596 539H870.876L868.076 530.44H849.196ZM863.756 517.08L858.636 501.32L853.516 517.08H863.756ZM935.711 539L925.071 518.68H924.991V539H907.231V482.36H933.631C938.218 482.36 942.138 483.187 945.391 484.84C948.645 486.44 951.071 488.653 952.671 491.48C954.325 494.253 955.151 497.4 955.151 500.92C955.151 504.707 954.085 508.067 951.951 511C949.871 513.933 946.858 516.04 942.911 517.32L955.231 539H935.711ZM924.991 506.84H932.031C933.738 506.84 935.018 506.467 935.871 505.72C936.725 504.92 937.151 503.693 937.151 502.04C937.151 500.547 936.698 499.373 935.791 498.52C934.938 497.667 933.685 497.24 932.031 497.24H924.991V506.84ZM998.025 482.36C1003.95 482.36 1009.12 483.56 1013.54 485.96C1018.03 488.36 1021.47 491.693 1023.86 495.96C1026.27 500.227 1027.46 505.08 1027.46 510.52C1027.46 515.907 1026.27 520.76 1023.86 525.08C1021.47 529.4 1018.03 532.813 1013.54 535.32C1009.12 537.773 1003.95 539 998.025 539H974.425V482.36H998.025ZM996.425 523.16C1000.42 523.16 1003.6 522.067 1005.95 519.88C1008.29 517.693 1009.47 514.573 1009.47 510.52C1009.47 506.467 1008.29 503.347 1005.95 501.16C1003.6 498.973 1000.42 497.88 996.425 497.88H992.185V523.16H996.425ZM1065.24 496.52V503.48H1082.84V516.84H1065.24V524.84H1085.24V539H1047.48V482.36H1085.24V496.52H1065.24ZM1159.85 539H1142.09L1123.29 510.52V539H1105.53V482.36H1123.29L1142.09 511.32V482.36H1159.85V539ZM734.589 446.065C731.382 444.539 729.234 441.174 729.469 437.378L730.551 419.839C729.186 419.96 727.804 420.022 726.408 420.022C700.777 420.022 680 399.244 680 373.614C680 353.042 693.385 335.597 711.921 329.512C711.877 328.841 711.854 328.163 711.854 327.481C711.854 310.647 725.624 297 742.609 297C759.595 297 773.365 310.647 773.365 327.481C773.365 330.012 773.053 332.471 772.467 334.822C787.762 340.696 798.628 355.603 798.628 373.065C798.628 395.662 780.432 413.98 757.987 413.98C756.608 413.98 755.245 413.911 753.901 413.776L755.248 437.421C755.45 440.97 753.572 444.134 750.699 445.766C749.301 446.667 747.633 447.193 745.832 447.193H738.957C737.365 447.193 735.878 446.782 734.589 446.065ZM1167.72 419.839C1166.35 419.96 1164.97 420.022 1163.57 420.022C1137.94 420.022 1117.17 399.244 1117.17 373.614C1117.17 355.596 1127.43 339.977 1142.44 332.288C1142.8 315.77 1156.43 302.492 1173.18 302.492C1188.49 302.492 1201.18 313.572 1203.55 328.08C1221.96 331.973 1235.79 348.422 1235.79 368.122C1235.79 390.719 1217.6 409.037 1195.15 409.037C1194.63 409.037 1194.11 409.028 1193.59 409.008C1192.73 409.742 1191.83 410.445 1190.92 411.116L1192.41 437.421C1192.71 442.584 1188.6 446.933 1183.43 446.933H1175.62C1170.43 446.933 1166.31 442.557 1166.63 437.378L1167.72 419.839ZM909.867 310.73C905.081 310.73 901.131 314.477 900.88 319.257L898.031 373.386H880.567L877.939 319.293C877.707 314.498 873.751 310.73 868.95 310.73H848.716C843.93 310.73 839.98 314.477 839.729 319.257L836.88 373.386H830.793C826.374 373.386 822.793 376.968 822.793 381.386V381.862C822.793 386.281 826.374 389.862 830.793 389.862H836.013L833.537 436.91C833.266 442.06 837.368 446.383 842.524 446.383H874.666C879.808 446.383 883.905 442.083 883.655 436.947L881.368 389.862H897.164L894.688 436.91C894.417 442.06 898.519 446.383 903.675 446.383H935.817C940.959 446.383 945.056 442.083 944.806 436.947L942.519 389.862H942.757C947.175 389.862 950.757 386.281 950.757 381.862V381.386C950.757 376.968 947.175 373.386 942.757 373.386H941.718L939.09 319.293C938.857 314.498 934.902 310.73 930.101 310.73H909.867ZM1038.58 319.257C1038.84 314.477 1042.79 310.73 1047.57 310.73H1067.81C1072.61 310.73 1076.56 314.498 1076.8 319.293L1078.54 355.216H1083.35C1087.77 355.216 1091.35 358.797 1091.35 363.216V363.692C1091.35 368.11 1087.77 371.692 1083.35 371.692H1079.34L1082.51 436.947C1082.76 442.083 1078.66 446.383 1073.52 446.383H1041.38C1036.22 446.383 1032.12 442.06 1032.39 436.91L1035.83 371.692H1019.23L1022.4 436.947C1022.65 442.083 1018.55 446.383 1013.41 446.383H981.268C976.111 446.383 972.009 442.06 972.28 436.91L975.713 371.692H971.389C966.971 371.692 963.389 368.11 963.389 363.692V363.216C963.389 358.797 966.971 355.216 971.389 355.216H976.58L978.472 319.257C978.724 314.477 982.673 310.73 987.46 310.73H1007.69C1012.49 310.73 1016.45 314.498 1016.68 319.293L1018.43 355.216H1036.69L1038.58 319.257ZM104.064 653.576C101.472 653.576 99.056 653.16 96.816 652.328C94.608 651.464 92.688 650.248 91.056 648.68C89.424 647.112 88.144 645.272 87.216 643.16C86.32 641.048 85.872 638.728 85.872 636.2C85.872 633.672 86.32 631.352 87.216 629.24C88.144 627.128 89.424 625.288 91.056 623.72C92.72 622.152 94.656 620.952 96.864 620.12C99.072 619.256 101.488 618.824 104.112 618.824C107.024 618.824 109.648 619.336 111.984 620.36C114.352 621.352 116.336 622.824 117.936 624.776L112.944 629.384C111.792 628.072 110.512 627.096 109.104 626.456C107.696 625.784 106.16 625.448 104.496 625.448C102.928 625.448 101.488 625.704 100.176 626.216C98.864 626.728 97.728 627.464 96.768 628.424C95.808 629.384 95.056 630.52 94.512 631.832C94 633.144 93.744 634.6 93.744 636.2C93.744 637.8 94 639.256 94.512 640.568C95.056 641.88 95.808 643.016 96.768 643.976C97.728 644.936 98.864 645.672 100.176 646.184C101.488 646.696 102.928 646.952 104.496 646.952C106.16 646.952 107.696 646.632 109.104 645.992C110.512 645.32 111.792 644.312 112.944 642.968L117.936 647.576C116.336 649.528 114.352 651.016 111.984 652.04C109.648 653.064 107.008 653.576 104.064 653.576ZM150.998 653.384C148.246 653.384 145.798 652.808 143.654 651.656C141.542 650.504 139.862 648.936 138.614 646.952C137.398 644.936 136.79 642.648 136.79 640.088C136.79 637.496 137.398 635.208 138.614 633.224C139.862 631.208 141.542 629.64 143.654 628.52C145.798 627.368 148.246 626.792 150.998 626.792C153.718 626.792 156.15 627.368 158.294 628.52C160.438 629.64 162.118 631.192 163.334 633.176C164.55 635.16 165.158 637.464 165.158 640.088C165.158 642.648 164.55 644.936 163.334 646.952C162.118 648.936 160.438 650.504 158.294 651.656C156.15 652.808 153.718 653.384 150.998 653.384ZM150.998 647.24C152.246 647.24 153.366 646.952 154.358 646.376C155.35 645.8 156.134 644.984 156.71 643.928C157.286 642.84 157.574 641.56 157.574 640.088C157.574 638.584 157.286 637.304 156.71 636.248C156.134 635.192 155.35 634.376 154.358 633.8C153.366 633.224 152.246 632.936 150.998 632.936C149.75 632.936 148.63 633.224 147.638 633.8C146.646 634.376 145.846 635.192 145.238 636.248C144.662 637.304 144.374 638.584 144.374 640.088C144.374 641.56 144.662 642.84 145.238 643.928C145.846 644.984 146.646 645.8 147.638 646.376C148.63 646.952 149.75 647.24 150.998 647.24ZM171.748 627.176H192.436V633.32H179.188V653H171.748V627.176ZM208.862 653.384C206.11 653.384 203.662 652.808 201.518 651.656C199.406 650.504 197.726 648.936 196.478 646.952C195.262 644.936 194.654 642.648 194.654 640.088C194.654 637.496 195.262 635.208 196.478 633.224C197.726 631.208 199.406 629.64 201.518 628.52C203.662 627.368 206.11 626.792 208.862 626.792C211.582 626.792 214.014 627.368 216.158 628.52C218.302 629.64 219.982 631.192 221.198 633.176C222.414 635.16 223.022 637.464 223.022 640.088C223.022 642.648 222.414 644.936 221.198 646.952C219.982 648.936 218.302 650.504 216.158 651.656C214.014 652.808 211.582 653.384 208.862 653.384ZM208.862 647.24C210.11 647.24 211.23 646.952 212.222 646.376C213.214 645.8 213.998 644.984 214.574 643.928C215.15 642.84 215.438 641.56 215.438 640.088C215.438 638.584 215.15 637.304 214.574 636.248C213.998 635.192 213.214 634.376 212.222 633.8C211.23 633.224 210.11 632.936 208.862 632.936C207.614 632.936 206.494 633.224 205.502 633.8C204.51 634.376 203.71 635.192 203.102 636.248C202.526 637.304 202.238 638.584 202.238 640.088C202.238 641.56 202.526 642.84 203.102 643.928C203.71 644.984 204.51 645.8 205.502 646.376C206.494 646.952 207.614 647.24 208.862 647.24ZM244.828 653.384C242.652 653.384 240.749 652.904 239.117 651.944C238.351 651.494 237.663 650.934 237.052 650.266V662.312H229.564V627.176H236.716V630.158C237.362 629.379 238.114 628.737 238.973 628.232C240.604 627.272 242.557 626.792 244.828 626.792C247.26 626.792 249.436 627.352 251.356 628.472C253.309 629.56 254.844 631.096 255.964 633.08C257.116 635.064 257.693 637.4 257.693 640.088C257.693 642.808 257.116 645.16 255.964 647.144C254.844 649.128 253.309 650.664 251.356 651.752C249.436 652.84 247.26 653.384 244.828 653.384ZM243.533 647.24C244.781 647.24 245.884 646.952 246.844 646.376C247.837 645.8 248.62 644.984 249.197 643.928C249.805 642.84 250.109 641.56 250.109 640.088C250.109 638.584 249.805 637.304 249.197 636.248C248.62 635.192 247.837 634.376 246.844 633.8C245.884 633.224 244.781 632.936 243.533 632.936C242.285 632.936 241.164 633.224 240.173 633.8C239.18 634.376 238.396 635.192 237.82 636.248C237.244 637.304 236.956 638.584 236.956 640.088C236.956 641.56 237.244 642.84 237.82 643.928C238.396 644.984 239.18 645.8 240.173 646.376C241.164 646.952 242.285 647.24 243.533 647.24ZM276.477 653.384C273.725 653.384 271.277 652.808 269.133 651.656C267.021 650.504 265.341 648.936 264.093 646.952C262.877 644.936 262.269 642.648 262.269 640.088C262.269 637.496 262.877 635.208 264.093 633.224C265.341 631.208 267.021 629.64 269.133 628.52C271.277 627.368 273.725 626.792 276.477 626.792C279.197 626.792 281.629 627.368 283.773 628.52C285.917 629.64 287.597 631.192 288.813 633.176C290.029 635.16 290.637 637.464 290.637 640.088C290.637 642.648 290.029 644.936 288.813 646.952C287.597 648.936 285.917 650.504 283.773 651.656C281.629 652.808 279.197 653.384 276.477 653.384ZM276.477 647.24C277.725 647.24 278.845 646.952 279.837 646.376C280.829 645.8 281.613 644.984 282.189 643.928C282.765 642.84 283.053 641.56 283.053 640.088C283.053 638.584 282.765 637.304 282.189 636.248C281.613 635.192 280.829 634.376 279.837 633.8C278.845 633.224 277.725 632.936 276.477 632.936C275.229 632.936 274.109 633.224 273.117 633.8C272.125 634.376 271.325 635.192 270.717 636.248C270.141 637.304 269.853 638.584 269.853 640.088C269.853 641.56 270.141 642.84 270.717 643.928C271.325 644.984 272.125 645.8 273.117 646.376C274.109 646.952 275.229 647.24 276.477 647.24ZM325.796 646.856H322.1V627.176H299.588L299.252 636.104C299.188 637.544 299.076 638.92 298.916 640.232C298.756 641.512 298.516 642.664 298.196 643.688C297.876 644.68 297.428 645.464 296.852 646.04C296.276 646.584 295.524 646.856 294.596 646.856H293.732V658.568H300.692V653H318.836V658.568H325.796V646.856ZM306.164 633.32H314.612V646.856H303.765C303.866 646.75 303.962 646.638 304.052 646.52C304.564 645.816 304.948 644.968 305.204 643.976C305.492 642.952 305.684 641.816 305.78 640.568C305.876 639.32 305.956 638.008 306.02 636.632L306.164 633.32ZM347.404 653V649.791C346.84 650.739 346.072 651.505 345.1 652.088C343.66 652.952 341.804 653.384 339.532 653.384C337.516 653.384 335.788 653.048 334.348 652.376C332.908 651.672 331.804 650.728 331.036 649.544C330.268 648.36 329.884 647.032 329.884 645.56C329.884 644.024 330.252 642.68 330.988 641.528C331.756 640.376 332.956 639.48 334.588 638.84C336.22 638.168 338.348 637.832 340.972 637.832H346.924C346.924 636.232 346.428 634.984 345.436 634.088C344.476 633.192 342.988 632.744 340.972 632.744C339.596 632.744 338.236 632.968 336.892 633.416C335.58 633.832 334.46 634.408 333.532 635.144L330.844 629.912C332.252 628.92 333.948 628.152 335.932 627.608C337.916 627.064 339.932 626.792 341.98 626.792C345.916 626.792 348.972 627.72 351.148 629.576C353.324 631.432 354.412 634.328 354.412 638.264V653H347.404ZM346.924 642.2V644.84C346.476 645.992 345.756 646.872 344.764 647.48C343.772 648.056 342.652 648.344 341.404 648.344C340.092 648.344 339.052 648.072 338.284 647.528C337.548 646.952 337.18 646.184 337.18 645.224C337.18 644.36 337.5 643.64 338.14 643.064C338.812 642.488 340.028 642.2 341.788 642.2H346.924ZM116.544 705.856H112.848V686.176H90.336L90 695.104C89.936 696.544 89.824 697.92 89.664 699.232C89.504 700.512 89.264 701.664 88.944 702.688C88.624 703.68 88.176 704.464 87.6 705.04C87.024 705.584 86.272 705.856 85.344 705.856H84.48V717.568H91.44V712H109.584V717.568H116.544V705.856ZM105.36 692.32V705.856H94.5128C94.614 705.75 94.7097 705.638 94.8 705.52C95.312 704.816 95.696 703.968 95.952 702.976C96.24 701.952 96.432 700.816 96.528 699.568C96.624 698.32 96.704 697.008 96.768 695.632L96.912 692.32H105.36ZM119.432 711.952L119.816 705.808L120.392 705.904H120.92C121.816 705.904 122.52 705.648 123.032 705.136C123.544 704.624 123.928 703.936 124.184 703.072C124.44 702.176 124.616 701.168 124.712 700.048C124.84 698.928 124.936 697.76 125 696.544L125.384 686.176H147.464V712H139.976V692.32H131.813L131.576 696.88C131.48 699.184 131.288 701.296 131 703.216C130.744 705.136 130.312 706.8 129.704 708.208C129.096 709.584 128.28 710.656 127.256 711.424C126.232 712.16 124.92 712.528 123.32 712.528C122.744 712.528 122.136 712.48 121.496 712.384C120.856 712.288 120.168 712.144 119.432 711.952ZM172.377 712V704.608H166.865L161.961 712H153.993L159.876 703.566C159.014 703.227 158.236 702.807 157.545 702.304C155.433 700.768 154.377 698.56 154.377 695.68C154.377 692.608 155.481 690.256 157.689 688.624C159.929 686.992 162.937 686.176 166.713 686.176H179.049V712H172.377ZM172.377 692.272V699.616H166.761C163.593 699.616 162.009 698.384 162.009 695.92C162.009 694.64 162.425 693.712 163.257 693.136C164.121 692.56 165.321 692.272 166.857 692.272H172.377ZM202.719 712V686.176H215.919C219.151 686.176 221.679 686.768 223.503 687.952C225.327 689.104 226.239 690.736 226.239 692.848C226.239 694.96 225.375 696.624 223.647 697.84C223.281 698.096 222.889 698.323 222.471 698.524C223.323 698.799 224.051 699.163 224.655 699.616C226.223 700.768 227.007 702.448 227.007 704.656C227.007 706.928 226.143 708.72 224.415 710.032C222.687 711.344 220.047 712 216.495 712H202.719ZM209.583 706.912H215.871C217.247 706.912 218.271 706.688 218.943 706.24C219.647 705.76 219.999 705.04 219.999 704.08C219.999 703.088 219.679 702.368 219.039 701.92C218.399 701.44 217.391 701.2 216.015 701.2H209.583V706.912ZM209.583 696.784H215.247C216.559 696.784 217.535 696.544 218.175 696.064C218.847 695.584 219.183 694.896 219.183 694C219.183 693.072 218.847 692.384 218.175 691.936C217.535 691.488 216.559 691.264 215.247 691.264H209.583V696.784ZM249.475 712V708.791C248.911 709.739 248.143 710.505 247.171 711.088C245.731 711.952 243.875 712.384 241.603 712.384C239.587 712.384 237.859 712.048 236.419 711.376C234.979 710.672 233.875 709.728 233.107 708.544C232.339 707.36 231.955 706.032 231.955 704.56C231.955 703.024 232.323 701.68 233.059 700.528C233.827 699.376 235.027 698.48 236.659 697.84C238.291 697.168 240.419 696.832 243.043 696.832H248.995C248.995 695.232 248.499 693.984 247.507 693.088C246.547 692.192 245.059 691.744 243.043 691.744C241.667 691.744 240.307 691.968 238.963 692.416C237.651 692.832 236.531 693.408 235.603 694.144L232.915 688.912C234.323 687.92 236.019 687.152 238.003 686.608C239.987 686.064 242.003 685.792 244.051 685.792C247.987 685.792 251.043 686.72 253.219 688.576C255.395 690.432 256.483 693.328 256.483 697.264V712H249.475ZM248.995 701.2V703.84C248.547 704.992 247.827 705.872 246.835 706.48C245.843 707.056 244.723 707.344 243.475 707.344C242.163 707.344 241.123 707.072 240.355 706.528C239.619 705.952 239.251 705.184 239.251 704.224C239.251 703.36 239.571 702.64 240.211 702.064C240.883 701.488 242.099 701.2 243.859 701.2H248.995ZM280.411 686.176V705.856H271.867V686.176H264.427V712H303.836V686.176H296.396V705.856H287.9V686.176H280.411ZM325.085 712.384C322.141 712.384 319.549 711.808 317.309 710.656C315.101 709.504 313.389 707.936 312.173 705.952C310.957 703.936 310.349 701.648 310.349 699.088C310.349 696.496 310.941 694.208 312.125 692.224C313.341 690.208 314.989 688.64 317.069 687.52C319.149 686.368 321.501 685.792 324.125 685.792C326.653 685.792 328.925 686.336 330.941 687.424C332.989 688.48 334.605 690.016 335.789 692.032C336.973 694.016 337.565 696.4 337.565 699.184C337.565 699.472 337.549 699.808 337.517 700.192C337.499 700.397 337.48 700.597 337.461 700.791C337.448 700.93 337.435 701.066 337.421 701.2H317.882C318.033 701.887 318.274 702.527 318.605 703.12C319.245 704.176 320.125 704.992 321.245 705.568C322.397 706.112 323.741 706.384 325.277 706.384C326.653 706.384 327.853 706.176 328.877 705.76C329.933 705.344 330.893 704.72 331.757 703.888L335.741 708.208C334.557 709.552 333.069 710.592 331.277 711.328C329.485 712.032 327.421 712.384 325.085 712.384ZM318.509 694.672C318.158 695.312 317.92 696.032 317.796 696.832H330.513C330.392 696.018 330.15 695.282 329.789 694.624C329.245 693.632 328.493 692.864 327.533 692.32C326.573 691.744 325.453 691.456 324.173 691.456C322.893 691.456 321.757 691.744 320.765 692.32C319.805 692.864 319.053 693.648 318.509 694.672ZM344.745 686.176H365.433V692.32H352.185V712H344.745V686.176ZM381.859 712.384C379.107 712.384 376.659 711.808 374.515 710.656C372.403 709.504 370.723 707.936 369.475 705.952C368.259 703.936 367.651 701.648 367.651 699.088C367.651 696.496 368.259 694.208 369.475 692.224C370.723 690.208 372.403 688.64 374.515 687.52C376.659 686.368 379.107 685.792 381.859 685.792C384.579 685.792 387.011 686.368 389.155 687.52C391.299 688.64 392.979 690.192 394.195 692.176C395.411 694.16 396.019 696.464 396.019 699.088C396.019 701.648 395.411 703.936 394.195 705.952C392.979 707.936 391.299 709.504 389.155 710.656C387.011 711.808 384.579 712.384 381.859 712.384ZM381.859 706.24C383.107 706.24 384.227 705.952 385.219 705.376C386.211 704.8 386.995 703.984 387.571 702.928C388.147 701.84 388.435 700.56 388.435 699.088C388.435 697.584 388.147 696.304 387.571 695.248C386.995 694.192 386.211 693.376 385.219 692.8C384.227 692.224 383.107 691.936 381.859 691.936C380.611 691.936 379.491 692.224 378.499 692.8C377.507 693.376 376.707 694.192 376.099 695.248C375.523 696.304 375.235 697.584 375.235 699.088C375.235 700.56 375.523 701.84 376.099 702.928C376.707 703.984 377.507 704.8 378.499 705.376C379.491 705.952 380.611 706.24 381.859 706.24ZM99.888 771.384C97.104 771.384 94.624 770.824 92.448 769.704C90.272 768.552 88.56 766.968 87.312 764.952C86.096 762.936 85.488 760.648 85.488 758.088C85.488 755.496 86.096 753.208 87.312 751.224C88.56 749.208 90.272 747.64 92.448 746.52C94.624 745.368 97.104 744.792 99.888 744.792C102.608 744.792 104.976 745.368 106.992 746.52C109.008 747.64 110.496 749.256 111.456 751.368L105.648 754.488C104.976 753.272 104.128 752.376 103.104 751.8C102.112 751.224 101.024 750.936 99.84 750.936C98.56 750.936 97.408 751.224 96.384 751.8C95.36 752.376 94.544 753.192 93.936 754.248C93.36 755.304 93.072 756.584 93.072 758.088C93.072 759.592 93.36 760.872 93.936 761.928C94.544 762.984 95.36 763.8 96.384 764.376C97.408 764.952 98.56 765.24 99.84 765.24C101.024 765.24 102.112 764.968 103.104 764.424C104.128 763.848 104.976 762.936 105.648 761.688L111.456 764.856C110.496 766.936 109.008 768.552 106.992 769.704C104.976 770.824 102.608 771.384 99.888 771.384ZM122.919 771V751.32H114.183V745.176H139.095V751.32H130.359V771H122.919ZM155.545 771.384C152.793 771.384 150.345 770.808 148.201 769.656C146.089 768.504 144.409 766.936 143.161 764.952C141.945 762.936 141.337 760.648 141.337 758.088C141.337 755.496 141.945 753.208 143.161 751.224C144.409 749.208 146.089 747.64 148.201 746.52C150.345 745.368 152.793 744.792 155.545 744.792C158.265 744.792 160.697 745.368 162.841 746.52C164.985 747.64 166.665 749.192 167.881 751.176C169.097 753.16 169.705 755.464 169.705 758.088C169.705 760.648 169.097 762.936 167.881 764.952C166.665 766.936 164.985 768.504 162.841 769.656C160.697 770.808 158.265 771.384 155.545 771.384ZM155.545 765.24C156.793 765.24 157.913 764.952 158.905 764.376C159.897 763.8 160.681 762.984 161.257 761.928C161.833 760.84 162.121 759.56 162.121 758.088C162.121 756.584 161.833 755.304 161.257 754.248C160.681 753.192 159.897 752.376 158.905 751.8C157.913 751.224 156.793 750.936 155.545 750.936C154.297 750.936 153.177 751.224 152.185 751.8C151.193 752.376 150.393 753.192 149.785 754.248C149.209 755.304 148.921 756.584 148.921 758.088C148.921 759.56 149.209 760.84 149.785 761.928C150.393 762.984 151.193 763.8 152.185 764.376C153.177 764.952 154.297 765.24 155.545 765.24ZM172.656 770.952L173.04 764.808L173.616 764.904H174.144C175.04 764.904 175.744 764.648 176.256 764.136C176.768 763.624 177.152 762.936 177.408 762.072C177.664 761.176 177.84 760.168 177.936 759.048C178.064 757.928 178.16 756.76 178.224 755.544L178.608 745.176H200.688V771H193.2V751.32H185.036L184.8 755.88C184.704 758.184 184.512 760.296 184.224 762.216C183.968 764.136 183.536 765.8 182.928 767.208C182.32 768.584 181.504 769.656 180.48 770.424C179.456 771.16 178.144 771.528 176.544 771.528C175.968 771.528 175.36 771.48 174.72 771.384C174.08 771.288 173.392 771.144 172.656 770.952ZM224.785 771V767.791C224.221 768.739 223.453 769.505 222.481 770.088C221.041 770.952 219.185 771.384 216.913 771.384C214.897 771.384 213.169 771.048 211.729 770.376C210.289 769.672 209.185 768.728 208.417 767.544C207.649 766.36 207.265 765.032 207.265 763.56C207.265 762.024 207.633 760.68 208.369 759.528C209.137 758.376 210.337 757.48 211.969 756.84C213.601 756.168 215.729 755.832 218.353 755.832H224.305C224.305 754.232 223.809 752.984 222.817 752.088C221.857 751.192 220.369 750.744 218.353 750.744C216.977 750.744 215.617 750.968 214.273 751.416C212.961 751.832 211.841 752.408 210.913 753.144L208.225 747.912C209.633 746.92 211.329 746.152 213.313 745.608C215.297 745.064 217.313 744.792 219.361 744.792C223.297 744.792 226.353 745.72 228.529 747.576C230.705 749.432 231.793 752.328 231.793 756.264V771H224.785ZM224.305 760.2V762.84C223.857 763.992 223.137 764.872 222.145 765.48C221.153 766.056 220.033 766.344 218.785 766.344C217.473 766.344 216.433 766.072 215.665 765.528C214.929 764.952 214.561 764.184 214.561 763.224C214.561 762.36 214.881 761.64 215.521 761.064C216.193 760.488 217.409 760.2 219.169 760.2H224.305ZM1535.56 508.272C1537.29 503.728 1538.15 498.8 1538.15 493.488C1538.15 488.24 1537.29 483.408 1535.56 478.992C1533.83 474.512 1531.43 470.64 1528.36 467.376C1525.22 464.048 1521.54 461.456 1517.32 459.6C1513.03 457.744 1508.39 456.816 1503.4 456.816C1498.34 456.816 1493.74 457.744 1489.58 459.6C1485.35 461.456 1481.67 464.048 1478.54 467.376C1475.4 470.64 1472.97 474.512 1471.24 478.992C1469.51 483.408 1468.65 488.272 1468.65 493.584C1468.65 498.832 1469.51 503.696 1471.24 508.176C1472.97 512.656 1475.4 516.56 1478.54 519.888C1481.67 523.216 1485.35 525.808 1489.58 527.664C1493.8 529.456 1498.41 530.352 1503.4 530.352C1508.39 530.352 1513 529.456 1517.22 527.664C1521.45 525.808 1525.13 523.248 1528.26 519.984C1531.4 516.656 1533.83 512.752 1535.56 508.272ZM1523.37 485.328C1524.39 487.824 1524.9 490.576 1524.9 493.584C1524.9 496.592 1524.39 499.376 1523.37 501.936C1522.34 504.496 1520.87 506.736 1518.95 508.656C1517.03 510.512 1514.76 511.984 1512.14 513.072C1509.45 514.096 1506.54 514.608 1503.4 514.608C1500.2 514.608 1497.29 514.096 1494.66 513.072C1492.04 511.984 1489.77 510.48 1487.85 508.56C1485.93 506.64 1484.46 504.432 1483.43 501.936C1482.41 499.376 1481.9 496.592 1481.9 493.584C1481.9 490.576 1482.41 487.792 1483.43 485.232C1484.46 482.672 1485.93 480.464 1487.85 478.608C1489.77 476.688 1492.04 475.216 1494.66 474.192C1497.29 473.104 1500.2 472.56 1503.4 472.56C1506.6 472.56 1509.51 473.104 1512.14 474.192C1514.76 475.216 1517.03 476.688 1518.95 478.608C1520.87 480.528 1522.34 482.768 1523.37 485.328ZM1469.8 410.66V441.956H1537V408.836C1537 400.324 1535.34 393.86 1532.01 389.444C1528.62 384.964 1523.98 382.724 1518.09 382.724C1512.39 382.724 1508.04 384.804 1505.03 388.964C1503.74 390.757 1502.72 392.865 1501.98 395.289C1501.42 394.124 1500.78 393.039 1500.04 392.036C1496.97 387.94 1492.68 385.892 1487.18 385.892C1481.61 385.892 1477.32 388.068 1474.31 392.42C1471.3 396.772 1469.8 402.852 1469.8 410.66ZM1525.48 409.412V426.5H1508.49V409.412C1508.49 405.828 1509.19 403.108 1510.6 401.252C1511.94 399.396 1514.02 398.468 1516.84 398.468C1519.78 398.468 1521.96 399.396 1523.37 401.252C1524.78 403.108 1525.48 405.828 1525.48 409.412ZM1497.64 412.004V426.5H1481.32V412.004C1481.32 408.612 1482.02 406.052 1483.43 404.324C1484.78 402.596 1486.79 401.732 1489.48 401.732C1492.17 401.732 1494.22 402.596 1495.62 404.324C1496.97 406.052 1497.64 408.612 1497.64 412.004ZM1535.56 337.208C1537.29 332.664 1538.15 327.736 1538.15 322.424C1538.15 317.176 1537.29 312.344 1535.56 307.928C1533.83 303.448 1531.43 299.576 1528.36 296.312C1525.22 292.984 1521.54 290.392 1517.32 288.536C1513.03 286.68 1508.39 285.752 1503.4 285.752C1498.34 285.752 1493.74 286.68 1489.58 288.536C1485.35 290.392 1481.67 292.984 1478.54 296.312C1475.4 299.576 1472.97 303.448 1471.24 307.928C1469.51 312.344 1468.65 317.208 1468.65 322.52C1468.65 327.768 1469.51 332.632 1471.24 337.112C1472.97 341.592 1475.4 345.496 1478.54 348.824C1481.67 352.152 1485.35 354.744 1489.58 356.6C1493.8 358.392 1498.41 359.288 1503.4 359.288C1508.39 359.288 1513 358.392 1517.22 356.6C1521.45 354.744 1525.13 352.184 1528.26 348.92C1531.4 345.592 1533.83 341.688 1535.56 337.208ZM1523.37 314.264C1524.39 316.76 1524.9 319.512 1524.9 322.52C1524.9 325.528 1524.39 328.312 1523.37 330.872C1522.34 333.432 1520.87 335.672 1518.95 337.592C1517.03 339.448 1514.76 340.92 1512.14 342.008C1509.45 343.032 1506.54 343.544 1503.4 343.544C1500.2 343.544 1497.29 343.032 1494.66 342.008C1492.04 340.92 1489.77 339.416 1487.85 337.496C1485.93 335.576 1484.46 333.368 1483.43 330.872C1482.41 328.312 1481.9 325.528 1481.9 322.52C1481.9 319.512 1482.41 316.728 1483.43 314.168C1484.46 311.608 1485.93 309.4 1487.85 307.544C1489.77 305.624 1492.04 304.152 1494.66 303.128C1497.29 302.04 1500.2 301.496 1503.4 301.496C1506.6 301.496 1509.51 302.04 1512.14 303.128C1514.76 304.152 1517.03 305.624 1518.95 307.544C1520.87 309.464 1522.34 311.704 1523.37 314.264ZM1524.33 234.22H1469.8V218.764H1524.33V197.932V197.644L1469.8 197.644V182.188L1524.33 182.188V173.068H1550.92V187.468H1537V197.932V270.892H1469.8V255.436H1524.33V234.22ZM1469.8 159.543H1537V144.855L1493.32 112.791H1537V97.431H1469.8V112.023L1513.58 144.087H1469.8V159.543ZM1662.67 481.2H1669.98V495.504H1662.62C1662.23 501.917 1661.13 507.517 1659.32 512.304C1657.02 518.32 1653.69 522.896 1649.34 526.032C1644.92 529.168 1639.54 530.736 1633.21 530.736C1626.87 530.736 1621.53 529.168 1617.18 526.032C1612.76 522.896 1609.4 518.32 1607.1 512.304C1605.28 507.517 1604.18 501.917 1603.8 495.504H1596.92V481.2H1603.78C1604.14 474.705 1605.25 469.073 1607.1 464.304C1609.4 458.288 1612.76 453.744 1617.18 450.672C1621.59 447.6 1626.94 446.064 1633.21 446.064C1639.42 446.064 1644.76 447.6 1649.24 450.672C1653.66 453.68 1657.02 458.128 1659.32 464.016C1661.23 468.843 1662.35 474.571 1662.67 481.2ZM1616.03 495.504C1616.32 498.634 1616.83 501.386 1617.56 503.76C1618.78 507.728 1620.7 510.704 1623.32 512.688C1625.88 514.672 1629.18 515.664 1633.21 515.664C1637.24 515.664 1640.57 514.608 1643.19 512.496C1645.75 510.384 1647.67 507.344 1648.95 503.376C1649.66 501.042 1650.16 498.418 1650.45 495.504H1616.03ZM1615.99 481.2H1650.52C1650.22 477.94 1649.67 475.092 1648.86 472.656C1647.51 468.752 1645.56 465.84 1643 463.92C1640.38 462 1637.08 461.04 1633.11 461.04C1629.14 461.04 1625.88 462.032 1623.32 464.016C1620.76 466 1618.87 468.912 1617.66 472.752C1616.84 475.163 1616.28 477.979 1615.99 481.2ZM1599.8 402.461V431.549H1667V415.997H1648.47V402.461C1648.47 396.445 1647.51 391.261 1645.59 386.909C1643.61 382.557 1640.79 379.197 1637.14 376.829C1633.5 374.461 1629.18 373.277 1624.18 373.277C1619.13 373.277 1614.78 374.461 1611.13 376.829C1607.48 379.197 1604.7 382.557 1602.78 386.909C1600.79 391.261 1599.8 396.445 1599.8 402.461ZM1635.8 415.997V403.325C1635.8 398.525 1634.78 394.941 1632.73 392.573C1630.68 390.205 1627.83 389.021 1624.18 389.021C1620.47 389.021 1617.59 390.205 1615.54 392.573C1613.5 394.941 1612.47 398.525 1612.47 403.325V415.997H1635.8ZM1655.29 350.022C1655.74 352.518 1655.42 355.622 1654.33 359.334L1666.14 363.078C1667.99 358.598 1668.73 354.278 1668.34 350.118C1668.02 345.958 1666.58 342.15 1664.02 338.694C1661.46 335.174 1657.78 332.134 1652.98 329.574L1599.8 300.966V316.23L1635.92 334.688L1599.8 352.518L1599.8 369.126L1649.11 342.671L1649.91 343.206C1652.98 345.19 1654.78 347.462 1655.29 350.022ZM1639.93 264.72L1667 247.208V229.544L1632.26 252.177L1599.8 230.216V246.632L1626.97 264.252V275.432H1599.8V290.888H1667V275.432H1639.93V264.72ZM1612.47 205.632H1667V190.272H1612.47V168.768H1599.8V227.04H1612.47V205.632ZM1627.35 104.763C1623.7 109.179 1621.88 115.451 1621.88 123.579V140.667H1599.8V156.123H1667V125.787C1667 117.147 1665.02 110.395 1661.05 105.531C1657.08 100.603 1651.26 98.139 1643.58 98.139C1636.34 98.139 1630.94 100.347 1627.35 104.763ZM1652.5 117.243C1654.49 119.547 1655.48 122.683 1655.48 126.651V140.667H1633.4V126.651C1633.4 122.619 1634.23 119.483 1635.9 117.243C1637.5 114.939 1640.15 113.787 1643.86 113.787C1647.64 113.787 1650.52 114.939 1652.5 117.243ZM1599.8 89.595L1667 89.595V74.139H1599.8V89.595ZM1779.14 487.344H1797V471.984H1729.8V500.976C1729.8 506.864 1730.79 511.984 1732.78 516.336C1734.76 520.688 1737.64 524.08 1741.42 526.512C1745.13 528.88 1749.61 530.064 1754.86 530.064C1759.91 530.064 1764.26 528.944 1767.91 526.704C1771.56 524.464 1774.34 521.232 1776.26 517.008C1776.44 516.626 1776.6 516.237 1776.76 515.842L1797 529.872V513.456L1779.14 501.576V487.344ZM1766.86 487.344H1742.47V500.592C1742.47 505.008 1743.5 508.4 1745.54 510.768C1747.59 513.072 1750.63 514.224 1754.66 514.224C1758.57 514.224 1761.58 513.104 1763.69 510.864C1765.8 508.624 1766.86 505.328 1766.86 500.976V487.344ZM1729.8 452.268H1797V436.812L1742.47 436.902V404.94L1729.8 404.844V452.268ZM1795.56 381.95C1797.29 377.406 1798.15 372.478 1798.15 367.166C1798.15 361.918 1797.29 357.086 1795.56 352.67C1793.83 348.19 1791.43 344.318 1788.36 341.054C1785.22 337.726 1781.54 335.134 1777.32 333.278C1773.03 331.422 1768.39 330.494 1763.4 330.494C1758.34 330.494 1753.74 331.422 1749.58 333.278C1745.35 335.134 1741.67 337.726 1738.54 341.054C1735.4 344.318 1732.97 348.19 1731.24 352.67C1729.51 357.086 1728.65 361.95 1728.65 367.262C1728.65 372.51 1729.51 377.374 1731.24 381.854C1732.97 386.334 1735.4 390.238 1738.54 393.566C1741.67 396.894 1745.35 399.486 1749.58 401.342C1753.8 403.134 1758.41 404.03 1763.4 404.03C1768.39 404.03 1773 403.134 1777.22 401.342C1781.45 399.486 1785.13 396.926 1788.26 393.662C1791.4 390.334 1793.83 386.43 1795.56 381.95ZM1783.37 359.006C1784.39 361.502 1784.9 364.254 1784.9 367.262C1784.9 370.27 1784.39 373.054 1783.37 375.614C1782.34 378.174 1780.87 380.414 1778.95 382.334C1777.03 384.19 1774.76 385.662 1772.14 386.75C1769.45 387.774 1766.54 388.286 1763.4 388.286C1760.2 388.286 1757.29 387.774 1754.66 386.75C1752.04 385.662 1749.77 384.158 1747.85 382.238C1745.93 380.318 1744.46 378.11 1743.43 375.614C1742.41 373.054 1741.9 370.27 1741.9 367.262C1741.9 364.254 1742.41 361.47 1743.43 358.91C1744.46 356.35 1745.93 354.142 1747.85 352.286C1749.77 350.366 1752.04 348.894 1754.66 347.87C1757.29 346.782 1760.2 346.238 1763.4 346.238C1766.6 346.238 1769.51 346.782 1772.14 347.87C1774.76 348.894 1777.03 350.366 1778.95 352.286C1780.87 354.206 1782.34 356.446 1783.37 359.006ZM1784.33 257.604V248.196L1810.92 248.196V262.596H1797V310.02H1810.92V324.42L1784.33 324.324V322.212V321.707C1784.27 319.631 1783.47 317.911 1781.93 316.548C1780.26 315.012 1777.93 313.796 1774.92 312.9C1771.85 312.004 1768.26 311.364 1764.17 310.98C1760.07 310.532 1755.62 310.212 1750.82 310.02L1729.8 309.252V257.604H1784.33ZM1784.33 272.964H1742.47V296.004L1752.26 296.292C1756.42 296.484 1760.36 296.772 1764.07 297.156C1767.78 297.476 1771.18 297.988 1774.25 298.692C1777.26 299.396 1779.82 300.324 1781.93 301.476C1782.84 301.947 1783.64 302.471 1784.33 303.05V272.964ZM1757.35 183.487C1753.7 187.903 1751.88 194.175 1751.88 202.303V219.391L1729.8 219.391V234.847H1797V204.511C1797 195.871 1795.02 189.119 1791.05 184.255C1787.08 179.327 1781.26 176.863 1773.58 176.863C1766.34 176.863 1760.94 179.071 1757.35 183.487ZM1782.5 195.967C1784.49 198.271 1785.48 201.407 1785.48 205.375V219.391H1763.4V205.375C1763.4 201.343 1764.23 198.207 1765.9 195.967C1767.5 193.663 1770.15 192.511 1773.86 192.511C1777.64 192.511 1780.52 193.663 1782.5 195.967ZM1729.8 168.319H1797V152.863H1729.8V168.319Z" fill="#F6F6F6"/>
<path d="M-47.4771 727.817C-47.4771 709.861 -51.6074 692.145 -59.5487 676.04L-73.6025 647.539C-121.848 549.696 -11.2686 450.098 81.0133 508.279V508.279C114.053 529.109 155.759 530.498 190.112 511.912L218.918 496.327C265.227 471.272 322.843 483.1 355.537 524.373V524.373C364.748 536.001 376.246 545.615 389.321 552.622L396.32 556.373C436.472 577.891 464.355 616.836 471.786 661.78L475.425 683.782C490.755 776.497 570.927 844.5 664.9 844.5H1106.5H1346.16C1369.73 844.5 1391.35 831.413 1402.27 810.532L1405.76 803.879C1419.15 778.282 1450.01 767.331 1476.54 778.758V778.758C1490.26 784.666 1505.78 784.766 1519.58 779.035L1534.58 772.799C1556.69 763.617 1581.46 763.244 1603.83 771.758L1614.34 775.759C1634.95 783.605 1657.82 783.052 1678.03 774.22L1683.68 771.75C1702.9 763.35 1724.85 763.88 1743.64 773.197V773.197C1762.56 782.575 1784.66 783.047 1803.96 774.487L1810.67 771.51C1829.24 763.272 1850.52 763.762 1868.7 772.848V772.848C1887.78 782.391 1910.24 782.429 1929.35 772.95L1947.33 764.039C1954.48 760.493 1959.93 754.248 1962.47 746.681V746.681C1972.45 716.973 2015.54 720.453 2020.63 751.377L2042.05 881.66V881.66C2044.9 897.817 2032.48 912.634 2016.07 912.634H1863.49C1841.1 912.634 1818.97 917.507 1798.65 926.915L1735.54 956.131C1662.09 990.134 1581.11 1004.6 1500.43 998.121L1106.5 966.5L542.5 956L165.456 965.08C126.912 966.008 88.8693 956.202 55.5777 936.756V936.756C-8.24249 899.478 -47.4771 831.124 -47.4771 757.214V727.817Z" fill="#F6F6F6" fill-opacity="0.22"/>
<path d="M0 1046C-45.4447 1046 -83.2479 1011.05 -86.8102 965.748L-94.5389 867.454C-97.3417 831.809 -66.4189 802.734 -31.0139 807.724V807.724C-16.8765 809.717 -4.0377 817.044 4.86896 828.203L24.9567 853.369C51.9042 887.128 96.5749 901.267 138.04 889.16V889.16C163.433 881.745 190.678 884.047 214.468 895.617L219.792 898.207C258.91 917.232 305.202 913.959 341.254 889.619L359 877.638L370.388 870.76C416.688 842.798 475.532 846.77 517.654 880.7V880.7C540.528 899.126 569.016 909.172 598.387 909.172H884.5H1466.5H1865.06C1881.97 909.172 1898.18 915.97 1910.03 928.037V928.037C1938.26 956.775 1932.66 1004.25 1898.52 1025.64L1884.57 1034.37C1872.43 1041.97 1858.41 1046 1844.09 1046H0V1046Z" fill="#F6F6F6"/>
</g>
<defs>
<clipPath id="clip0_111_920">
<rect width="1866" height="1027" fill="white"/>
</clipPath>
</defs>
</svg>
