<svg width="1866" height="1027" viewBox="0 0 1866 1027" fill="none" xmlns="http://www.w3.org/2000/svg">
<g clip-path="url(#clip0_111_920)">
<path fill-rule="evenodd" clip-rule="evenodd" d="M0 -121H1866V486.687C1862.78 487.501 1859.43 487.93 1856 487.93H1820.11C1809.01 487.93 1799.18 495.076 1795.75 505.63C1792.32 516.184 1782.49 523.33 1771.39 523.33H1760.19C1749.02 523.33 1739.09 516.211 1735.5 505.63C1731.91 495.049 1721.98 487.93 1710.81 487.93H1688.36C1677.03 487.93 1666.9 494.997 1663 505.63C1659.1 516.263 1648.97 523.33 1637.64 523.33H1632.19C1621.02 523.33 1611.09 516.211 1607.5 505.63C1603.91 495.049 1593.98 487.93 1582.81 487.93H1557.36C1546.03 487.93 1535.9 494.997 1532 505.63C1528.1 516.263 1517.97 523.33 1506.64 523.33H1500.63C1489.17 523.33 1478.95 516.101 1475.13 505.29C1471.43 494.815 1461.7 487.668 1450.6 487.268L1436.3 486.754C1409.64 485.796 1387.5 507.151 1387.5 533.832V606.332C1387.5 622.993 1373.99 636.5 1357.33 636.5H605.891C562.321 636.5 527 601.179 527 557.609C527 520.865 501.633 488.986 465.827 480.733L434.8 473.582C407.482 467.285 383.267 451.539 366.431 429.123L364.189 426.138C329.238 379.604 267.478 362.2 213.372 383.638L191.964 392.12C162.026 403.982 129.195 406.493 97.8011 399.319L0 376.973V-121ZM790.72 400.72C790.027 399.6 789.04 398.747 787.76 398.16C786.48 397.52 784.933 397.2 783.12 397.2C779.707 397.2 777.067 398.32 775.2 400.56C773.333 402.747 772.4 405.76 772.4 409.6C772.4 414.027 773.44 417.333 775.52 419.52C777.6 421.707 780.8 422.8 785.12 422.8C789.227 422.8 792.533 421.147 795.04 417.84H780.88V405.28H809.76V423.04C807.307 427.253 803.92 430.88 799.6 433.92C795.28 436.907 789.813 438.4 783.2 438.4C777.333 438.4 772.213 437.2 767.84 434.8C763.52 432.347 760.187 428.933 757.84 424.56C755.547 420.187 754.4 415.2 754.4 409.6C754.4 404 755.547 399.013 757.84 394.64C760.187 390.267 763.52 386.88 767.84 384.48C772.16 382.027 777.227 380.8 783.04 380.8C790.453 380.8 796.48 382.587 801.12 386.16C805.813 389.733 808.587 394.587 809.44 400.72H790.72ZM847.196 429.44L844.396 438H825.756L846.476 381.36H866.956L887.596 438H868.876L866.076 429.44H847.196ZM861.756 416.08L856.636 400.32L851.516 416.08H861.756ZM933.711 438L923.071 417.68H922.991V438H905.231V381.36H931.631C936.218 381.36 940.138 382.187 943.391 383.84C946.645 385.44 949.071 387.653 950.671 390.48C952.325 393.253 953.151 396.4 953.151 399.92C953.151 403.707 952.085 407.067 949.951 410C947.871 412.933 944.858 415.04 940.911 416.32L953.231 438H933.711ZM922.991 405.84H930.031C931.738 405.84 933.018 405.467 933.871 404.72C934.725 403.92 935.151 402.693 935.151 401.04C935.151 399.547 934.698 398.373 933.791 397.52C932.938 396.667 931.685 396.24 930.031 396.24H922.991V405.84ZM996.025 381.36C1001.95 381.36 1007.12 382.56 1011.54 384.96C1016.03 387.36 1019.47 390.693 1021.86 394.96C1024.27 399.227 1025.46 404.08 1025.46 409.52C1025.46 414.907 1024.27 419.76 1021.86 424.08C1019.47 428.4 1016.03 431.813 1011.54 434.32C1007.12 436.773 1001.95 438 996.025 438H972.425V381.36H996.025ZM994.425 422.16C998.425 422.16 1001.6 421.067 1003.95 418.88C1006.29 416.693 1007.47 413.573 1007.47 409.52C1007.47 405.467 1006.29 402.347 1003.95 400.16C1001.6 397.973 998.425 396.88 994.425 396.88H990.185V422.16H994.425ZM1063.24 395.52V402.48H1080.84V415.84H1063.24V423.84H1083.24V438H1045.48V381.36H1083.24V395.52H1063.24ZM1157.85 438H1140.09L1121.29 409.52V438H1103.53V381.36H1121.29L1140.09 410.32V381.36H1157.85V438ZM732.589 345.065C729.382 343.539 727.234 340.174 727.469 336.378L728.551 318.839C727.186 318.96 725.804 319.022 724.408 319.022C698.777 319.022 678 298.244 678 272.614C678 252.042 691.385 234.597 709.921 228.512C709.877 227.841 709.854 227.163 709.854 226.481C709.854 209.647 723.624 196 740.609 196C757.595 196 771.365 209.647 771.365 226.481C771.365 229.012 771.053 231.471 770.467 233.822C785.762 239.696 796.628 254.603 796.628 272.065C796.628 294.662 778.432 312.98 755.987 312.98C754.608 312.98 753.245 312.911 751.901 312.776L753.248 336.421C753.45 339.97 751.572 343.134 748.699 344.766C747.301 345.667 745.633 346.193 743.832 346.193H736.957C735.365 346.193 733.878 345.782 732.589 345.065ZM1165.72 318.839C1164.35 318.96 1162.97 319.022 1161.57 319.022C1135.94 319.022 1115.17 298.244 1115.17 272.614C1115.17 254.596 1125.43 238.977 1140.44 231.288C1140.8 214.77 1154.43 201.492 1171.18 201.492C1186.49 201.492 1199.18 212.572 1201.55 227.08C1219.96 230.973 1233.79 247.422 1233.79 267.122C1233.79 289.719 1215.6 308.037 1193.15 308.037C1192.63 308.037 1192.11 308.028 1191.59 308.008C1190.73 308.742 1189.83 309.445 1188.92 310.116L1190.41 336.421C1190.71 341.584 1186.6 345.933 1181.43 345.933H1173.62C1168.43 345.933 1164.31 341.557 1164.63 336.378L1165.72 318.839ZM907.867 209.73C903.081 209.73 899.131 213.477 898.88 218.257L896.031 272.386H878.567L875.939 218.293C875.707 213.498 871.751 209.73 866.95 209.73H846.716C841.93 209.73 837.98 213.477 837.729 218.257L834.88 272.386H828.793C824.374 272.386 820.793 275.968 820.793 280.386V280.862C820.793 285.281 824.374 288.862 828.793 288.862H834.013L831.537 335.91C831.266 341.06 835.368 345.383 840.524 345.383H872.666C877.808 345.383 881.905 341.083 881.655 335.947L879.368 288.862H895.164L892.688 335.91C892.417 341.06 896.519 345.383 901.675 345.383H933.817C938.959 345.383 943.056 341.083 942.806 335.947L940.519 288.862H940.757C945.175 288.862 948.757 285.281 948.757 280.862V280.386C948.757 275.968 945.175 272.386 940.757 272.386H939.718L937.09 218.293C936.857 213.498 932.902 209.73 928.101 209.73H907.867ZM1036.58 218.257C1036.84 213.477 1040.79 209.73 1045.57 209.73H1065.81C1070.61 209.73 1074.56 213.498 1074.8 218.293L1076.54 254.216H1081.35C1085.77 254.216 1089.35 257.797 1089.35 262.216V262.692C1089.35 267.11 1085.77 270.692 1081.35 270.692H1077.34L1080.51 335.947C1080.76 341.083 1076.66 345.383 1071.52 345.383H1039.38C1034.22 345.383 1030.12 341.06 1030.39 335.91L1033.83 270.692H1017.23L1020.4 335.947C1020.65 341.083 1016.55 345.383 1011.41 345.383H979.268C974.111 345.383 970.009 341.06 970.28 335.91L973.713 270.692H969.389C964.971 270.692 961.389 267.11 961.389 262.692V262.216C961.389 257.797 964.971 254.216 969.389 254.216H974.58L976.472 218.257C976.724 213.477 980.673 209.73 985.46 209.73H1005.69C1010.49 209.73 1014.45 213.498 1014.68 218.293L1016.43 254.216H1034.69L1036.58 218.257ZM96.572 641.648C93.656 641.648 90.938 641.18 88.418 640.244C85.934 639.272 83.774 637.904 81.938 636.14C80.102 634.376 78.662 632.306 77.618 629.93C76.61 627.554 76.106 624.944 76.106 622.1C76.106 619.256 76.61 616.646 77.618 614.27C78.662 611.894 80.102 609.824 81.938 608.06C83.81 606.296 85.988 604.946 88.472 604.01C90.956 603.038 93.674 602.552 96.626 602.552C99.902 602.552 102.854 603.128 105.482 604.28C108.146 605.396 110.378 607.052 112.178 609.248L106.562 614.432C105.266 612.956 103.826 611.858 102.242 611.138C100.658 610.382 98.93 610.004 97.058 610.004C95.294 610.004 93.674 610.292 92.198 610.868C90.722 611.444 89.444 612.272 88.364 613.352C87.284 614.432 86.438 615.71 85.826 617.186C85.25 618.662 84.962 620.3 84.962 622.1C84.962 623.9 85.25 625.538 85.826 627.014C86.438 628.49 87.284 629.768 88.364 630.848C89.444 631.928 90.722 632.756 92.198 633.332C93.674 633.908 95.294 634.196 97.058 634.196C98.93 634.196 100.658 633.836 102.242 633.116C103.826 632.36 105.266 631.226 106.562 629.714L112.178 634.898C110.378 637.094 108.146 638.768 105.482 639.92C102.854 641.072 99.884 641.648 96.572 641.648ZM149.373 641.432C146.277 641.432 143.523 640.784 141.111 639.488C138.735 638.192 136.845 636.428 135.441 634.196C134.073 631.928 133.389 629.354 133.389 626.474C133.389 623.558 134.073 620.984 135.441 618.752C136.845 616.484 138.735 614.72 141.111 613.46C143.523 612.164 146.277 611.516 149.373 611.516C152.433 611.516 155.169 612.164 157.581 613.46C159.993 614.72 161.883 616.466 163.251 618.698C164.619 620.93 165.303 623.522 165.303 626.474C165.303 629.354 164.619 631.928 163.251 634.196C161.883 636.428 159.993 638.192 157.581 639.488C155.169 640.784 152.433 641.432 149.373 641.432ZM149.373 634.52C150.777 634.52 152.037 634.196 153.153 633.548C154.269 632.9 155.151 631.982 155.799 630.794C156.447 629.57 156.771 628.13 156.771 626.474C156.771 624.782 156.447 623.342 155.799 622.154C155.151 620.966 154.269 620.048 153.153 619.4C152.037 618.752 150.777 618.428 149.373 618.428C147.969 618.428 146.709 618.752 145.593 619.4C144.477 620.048 143.577 620.966 142.893 622.154C142.245 623.342 141.921 624.782 141.921 626.474C141.921 628.13 142.245 629.57 142.893 630.794C143.577 631.982 144.477 632.9 145.593 633.548C146.709 634.196 147.969 634.52 149.373 634.52ZM172.717 611.948H195.991V618.86H181.087V641H172.717V611.948ZM214.47 641.432C211.374 641.432 208.62 640.784 206.208 639.488C203.832 638.192 201.942 636.428 200.538 634.196C199.17 631.928 198.486 629.354 198.486 626.474C198.486 623.558 199.17 620.984 200.538 618.752C201.942 616.484 203.832 614.72 206.208 613.46C208.62 612.164 211.374 611.516 214.47 611.516C217.53 611.516 220.266 612.164 222.678 613.46C225.09 614.72 226.98 616.466 228.348 618.698C229.716 620.93 230.4 623.522 230.4 626.474C230.4 629.354 229.716 631.928 228.348 634.196C226.98 636.428 225.09 638.192 222.678 639.488C220.266 640.784 217.53 641.432 214.47 641.432ZM214.47 634.52C215.874 634.52 217.134 634.196 218.25 633.548C219.366 632.9 220.248 631.982 220.896 630.794C221.544 629.57 221.868 628.13 221.868 626.474C221.868 624.782 221.544 623.342 220.896 622.154C220.248 620.966 219.366 620.048 218.25 619.4C217.134 618.752 215.874 618.428 214.47 618.428C213.066 618.428 211.806 618.752 210.69 619.4C209.574 620.048 208.674 620.966 207.99 622.154C207.342 623.342 207.018 624.782 207.018 626.474C207.018 628.13 207.342 629.57 207.99 630.794C208.674 631.982 209.574 632.9 210.69 633.548C211.806 634.196 213.066 634.52 214.47 634.52ZM254.932 641.432C252.484 641.432 250.342 640.892 248.506 639.812C247.645 639.305 246.871 638.676 246.184 637.924V651.476H237.76V611.948H245.806V615.303C246.533 614.426 247.379 613.704 248.344 613.136C250.18 612.056 252.376 611.516 254.932 611.516C257.668 611.516 260.116 612.146 262.276 613.406C264.472 614.63 266.2 616.358 267.46 618.59C268.756 620.822 269.404 623.45 269.404 626.474C269.404 629.534 268.756 632.18 267.46 634.412C266.2 636.644 264.472 638.372 262.276 639.596C260.116 640.82 257.668 641.432 254.932 641.432ZM253.474 634.52C254.878 634.52 256.12 634.196 257.2 633.548C258.316 632.9 259.198 631.982 259.846 630.794C260.53 629.57 260.872 628.13 260.872 626.474C260.872 624.782 260.53 623.342 259.846 622.154C259.198 620.966 258.316 620.048 257.2 619.4C256.12 618.752 254.878 618.428 253.474 618.428C252.07 618.428 250.81 618.752 249.694 619.4C248.578 620.048 247.696 620.966 247.048 622.154C246.4 623.342 246.076 624.782 246.076 626.474C246.076 628.13 246.4 629.57 247.048 630.794C247.696 631.982 248.578 632.9 249.694 633.548C250.81 634.196 252.07 634.52 253.474 634.52ZM290.536 641.432C287.44 641.432 284.686 640.784 282.274 639.488C279.898 638.192 278.008 636.428 276.604 634.196C275.236 631.928 274.552 629.354 274.552 626.474C274.552 623.558 275.236 620.984 276.604 618.752C278.008 616.484 279.898 614.72 282.274 613.46C284.686 612.164 287.44 611.516 290.536 611.516C293.596 611.516 296.332 612.164 298.744 613.46C301.156 614.72 303.046 616.466 304.414 618.698C305.782 620.93 306.466 623.522 306.466 626.474C306.466 629.354 305.782 631.928 304.414 634.196C303.046 636.428 301.156 638.192 298.744 639.488C296.332 640.784 293.596 641.432 290.536 641.432ZM290.536 634.52C291.94 634.52 293.2 634.196 294.316 633.548C295.432 632.9 296.314 631.982 296.962 630.794C297.61 629.57 297.934 628.13 297.934 626.474C297.934 624.782 297.61 623.342 296.962 622.154C296.314 620.966 295.432 620.048 294.316 619.4C293.2 618.752 291.94 618.428 290.536 618.428C289.132 618.428 287.872 618.752 286.756 619.4C285.64 620.048 284.74 620.966 284.056 622.154C283.408 623.342 283.084 624.782 283.084 626.474C283.084 628.13 283.408 629.57 284.056 630.794C284.74 631.982 285.64 632.9 286.756 633.548C287.872 634.196 289.132 634.52 290.536 634.52ZM346.02 634.088H341.862V611.948H316.536L316.158 621.992C316.086 623.612 315.96 625.16 315.78 626.636C315.6 628.076 315.33 629.372 314.97 630.524C314.61 631.64 314.106 632.522 313.458 633.17C312.81 633.782 311.964 634.088 310.92 634.088H309.948V647.264H317.778V641H338.19V647.264H346.02V634.088ZM323.934 618.86H333.438V634.088H321.235C321.349 633.969 321.457 633.843 321.558 633.71C322.134 632.918 322.566 631.964 322.854 630.848C323.178 629.696 323.394 628.418 323.502 627.014C323.61 625.61 323.7 624.134 323.772 622.586L323.934 618.86ZM370.33 641V637.39C369.695 638.456 368.831 639.318 367.738 639.974C366.118 640.946 364.03 641.432 361.474 641.432C359.206 641.432 357.262 641.054 355.642 640.298C354.022 639.506 352.78 638.444 351.916 637.112C351.052 635.78 350.62 634.286 350.62 632.63C350.62 630.902 351.034 629.39 351.862 628.094C352.726 626.798 354.076 625.79 355.912 625.07C357.748 624.314 360.142 623.936 363.094 623.936H369.79C369.79 622.136 369.232 620.732 368.116 619.724C367.036 618.716 365.362 618.212 363.094 618.212C361.546 618.212 360.016 618.464 358.504 618.968C357.028 619.436 355.768 620.084 354.724 620.912L351.7 615.026C353.284 613.91 355.192 613.046 357.424 612.434C359.656 611.822 361.924 611.516 364.228 611.516C368.656 611.516 372.094 612.56 374.542 614.648C376.99 616.736 378.214 619.994 378.214 624.422V641H370.33ZM369.79 628.85V631.82C369.286 633.116 368.476 634.106 367.36 634.79C366.244 635.438 364.984 635.762 363.58 635.762C362.104 635.762 360.934 635.456 360.07 634.844C359.242 634.196 358.828 633.332 358.828 632.252C358.828 631.28 359.188 630.47 359.908 629.822C360.664 629.174 362.032 628.85 364.012 628.85H369.79ZM110.612 700.088H106.454V677.948H81.128L80.75 687.992C80.678 689.612 80.552 691.16 80.372 692.636C80.192 694.076 79.922 695.372 79.562 696.524C79.202 697.64 78.698 698.522 78.05 699.17C77.402 699.782 76.556 700.088 75.512 700.088H74.54V713.264H82.37V707H102.782V713.264H110.612V700.088ZM98.03 684.86V700.088H85.8269C85.9408 699.969 86.0485 699.843 86.15 699.71C86.726 698.918 87.158 697.964 87.446 696.848C87.77 695.696 87.986 694.418 88.094 693.014C88.202 691.61 88.292 690.134 88.364 688.586L88.526 684.86H98.03ZM113.861 706.946L114.293 700.034L114.941 700.142H115.535C116.543 700.142 117.335 699.854 117.911 699.278C118.487 698.702 118.919 697.928 119.207 696.956C119.495 695.948 119.693 694.814 119.801 693.554C119.945 692.294 120.053 690.98 120.125 689.612L120.557 677.948H145.397V707H136.973V684.86H127.789L127.523 689.99C127.415 692.582 127.199 694.958 126.875 697.118C126.587 699.278 126.101 701.15 125.417 702.734C124.733 704.282 123.815 705.488 122.663 706.352C121.511 707.18 120.035 707.594 118.235 707.594C117.587 707.594 116.903 707.54 116.183 707.432C115.463 707.324 114.689 707.162 113.861 706.946ZM173.424 707V698.684H167.223L161.706 707H152.742L159.361 697.511C158.39 697.131 157.516 696.658 156.738 696.092C154.362 694.364 153.174 691.88 153.174 688.64C153.174 685.184 154.416 682.538 156.9 680.702C159.42 678.866 162.804 677.948 167.052 677.948H180.93V707H173.424ZM173.424 684.806V693.068H167.106C163.542 693.068 161.76 691.682 161.76 688.91C161.76 687.47 162.228 686.426 163.164 685.778C164.136 685.13 165.486 684.806 167.214 684.806H173.424ZM207.559 707V677.948H222.409C226.045 677.948 228.889 678.614 230.941 679.946C232.993 681.242 234.019 683.078 234.019 685.454C234.019 687.83 233.047 689.702 231.103 691.07C230.692 691.357 230.25 691.614 229.78 691.839C230.738 692.149 231.557 692.558 232.237 693.068C234.001 694.364 234.883 696.254 234.883 698.738C234.883 701.294 233.911 703.31 231.967 704.786C230.023 706.262 227.053 707 223.057 707H207.559ZM215.281 701.276H222.355C223.903 701.276 225.055 701.024 225.811 700.52C226.603 699.98 226.999 699.17 226.999 698.09C226.999 696.974 226.639 696.164 225.919 695.66C225.199 695.12 224.065 694.85 222.517 694.85H215.281V701.276ZM215.281 689.882H221.653C223.129 689.882 224.227 689.612 224.947 689.072C225.703 688.532 226.081 687.758 226.081 686.75C226.081 685.706 225.703 684.932 224.947 684.428C224.227 683.924 223.129 683.672 221.653 683.672H215.281V689.882ZM260.159 707V703.39C259.525 704.456 258.661 705.318 257.567 705.974C255.947 706.946 253.859 707.432 251.303 707.432C249.035 707.432 247.091 707.054 245.471 706.298C243.851 705.506 242.609 704.444 241.745 703.112C240.881 701.78 240.449 700.286 240.449 698.63C240.449 696.902 240.863 695.39 241.691 694.094C242.555 692.798 243.905 691.79 245.741 691.07C247.577 690.314 249.971 689.936 252.923 689.936H259.619C259.619 688.136 259.061 686.732 257.945 685.724C256.865 684.716 255.191 684.212 252.923 684.212C251.375 684.212 249.845 684.464 248.333 684.968C246.857 685.436 245.597 686.084 244.553 686.912L241.529 681.026C243.113 679.91 245.021 679.046 247.253 678.434C249.485 677.822 251.753 677.516 254.057 677.516C258.485 677.516 261.923 678.56 264.371 680.648C266.819 682.736 268.043 685.994 268.043 690.422V707H260.159ZM259.619 694.85V697.82C259.115 699.116 258.305 700.106 257.189 700.79C256.073 701.438 254.813 701.762 253.409 701.762C251.933 701.762 250.763 701.456 249.899 700.844C249.071 700.196 248.657 699.332 248.657 698.252C248.657 697.28 249.017 696.47 249.737 695.822C250.493 695.174 251.861 694.85 253.841 694.85H259.619ZM294.963 677.948V700.088H285.351V677.948H276.981V707H321.315V677.948H312.945V700.088H303.387V677.948H294.963ZM345.221 707.432C341.909 707.432 338.993 706.784 336.473 705.488C333.989 704.192 332.063 702.428 330.695 700.196C329.327 697.928 328.643 695.354 328.643 692.474C328.643 689.558 329.309 686.984 330.641 684.752C332.009 682.484 333.863 680.72 336.203 679.46C338.543 678.164 341.189 677.516 344.141 677.516C346.985 677.516 349.541 678.128 351.809 679.352C354.113 680.54 355.931 682.268 357.263 684.536C358.595 686.768 359.261 689.45 359.261 692.582C359.261 692.906 359.243 693.284 359.207 693.716C359.171 694.112 359.135 694.49 359.099 694.85H337.118C337.287 695.623 337.558 696.343 337.931 697.01C338.651 698.198 339.641 699.116 340.901 699.764C342.197 700.376 343.709 700.682 345.437 700.682C346.985 700.682 348.335 700.448 349.487 699.98C350.675 699.512 351.755 698.81 352.727 697.874L357.209 702.734C355.877 704.246 354.203 705.416 352.187 706.244C350.171 707.036 347.849 707.432 345.221 707.432ZM337.823 687.506C337.428 688.226 337.161 689.036 337.02 689.936H351.327C351.191 689.021 350.919 688.193 350.513 687.452C349.901 686.336 349.055 685.472 347.975 684.86C346.895 684.212 345.635 683.888 344.195 683.888C342.755 683.888 341.477 684.212 340.361 684.86C339.281 685.472 338.435 686.354 337.823 687.506ZM367.338 677.948H390.612V684.86H375.708V707H367.338V677.948ZM409.091 707.432C405.996 707.432 403.242 706.784 400.829 705.488C398.453 704.192 396.564 702.428 395.16 700.196C393.792 697.928 393.108 695.354 393.108 692.474C393.108 689.558 393.792 686.984 395.16 684.752C396.564 682.484 398.453 680.72 400.829 679.46C403.242 678.164 405.996 677.516 409.091 677.516C412.151 677.516 414.888 678.164 417.299 679.46C419.712 680.72 421.602 682.466 422.97 684.698C424.337 686.93 425.022 689.522 425.022 692.474C425.022 695.354 424.337 697.928 422.97 700.196C421.602 702.428 419.712 704.192 417.299 705.488C414.888 706.784 412.151 707.432 409.091 707.432ZM409.091 700.52C410.496 700.52 411.755 700.196 412.871 699.548C413.988 698.9 414.87 697.982 415.518 696.794C416.165 695.57 416.49 694.13 416.49 692.474C416.49 690.782 416.165 689.342 415.518 688.154C414.87 686.966 413.988 686.048 412.871 685.4C411.755 684.752 410.496 684.428 409.091 684.428C407.688 684.428 406.427 684.752 405.311 685.4C404.195 686.048 403.296 686.966 402.612 688.154C401.964 689.342 401.639 690.782 401.639 692.474C401.639 694.13 401.964 695.57 402.612 696.794C403.296 697.982 404.195 698.9 405.311 699.548C406.427 700.196 407.688 700.52 409.091 700.52ZM91.874 773.432C88.742 773.432 85.952 772.802 83.504 771.542C81.056 770.246 79.13 768.464 77.726 766.196C76.358 763.928 75.674 761.354 75.674 758.474C75.674 755.558 76.358 752.984 77.726 750.752C79.13 748.484 81.056 746.72 83.504 745.46C85.952 744.164 88.742 743.516 91.874 743.516C94.934 743.516 97.598 744.164 99.866 745.46C102.134 746.72 103.808 748.538 104.888 750.914L98.354 754.424C97.598 753.056 96.644 752.048 95.492 751.4C94.376 750.752 93.152 750.428 91.82 750.428C90.38 750.428 89.084 750.752 87.932 751.4C86.78 752.048 85.862 752.966 85.178 754.154C84.53 755.342 84.206 756.782 84.206 758.474C84.206 760.166 84.53 761.606 85.178 762.794C85.862 763.982 86.78 764.9 87.932 765.548C89.084 766.196 90.38 766.52 91.82 766.52C93.152 766.52 94.376 766.214 95.492 765.602C96.644 764.954 97.598 763.928 98.354 762.524L104.888 766.088C103.808 768.428 102.134 770.246 99.866 771.542C97.598 772.802 94.934 773.432 91.874 773.432ZM117.784 773V750.86H107.956V743.948H135.982V750.86H126.154V773H117.784ZM154.488 773.432C151.392 773.432 148.638 772.784 146.226 771.488C143.85 770.192 141.96 768.428 140.556 766.196C139.188 763.928 138.504 761.354 138.504 758.474C138.504 755.558 139.188 752.984 140.556 750.752C141.96 748.484 143.85 746.72 146.226 745.46C148.638 744.164 151.392 743.516 154.488 743.516C157.548 743.516 160.284 744.164 162.696 745.46C165.108 746.72 166.998 748.466 168.366 750.698C169.734 752.93 170.418 755.522 170.418 758.474C170.418 761.354 169.734 763.928 168.366 766.196C166.998 768.428 165.108 770.192 162.696 771.488C160.284 772.784 157.548 773.432 154.488 773.432ZM154.488 766.52C155.892 766.52 157.152 766.196 158.268 765.548C159.384 764.9 160.266 763.982 160.914 762.794C161.562 761.57 161.886 760.13 161.886 758.474C161.886 756.782 161.562 755.342 160.914 754.154C160.266 752.966 159.384 752.048 158.268 751.4C157.152 750.752 155.892 750.428 154.488 750.428C153.084 750.428 151.824 750.752 150.708 751.4C149.592 752.048 148.692 752.966 148.008 754.154C147.36 755.342 147.036 756.782 147.036 758.474C147.036 760.13 147.36 761.57 148.008 762.794C148.692 763.982 149.592 764.9 150.708 765.548C151.824 766.196 153.084 766.52 154.488 766.52ZM173.738 772.946L174.17 766.034L174.818 766.142H175.412C176.42 766.142 177.212 765.854 177.788 765.278C178.364 764.702 178.796 763.928 179.084 762.956C179.372 761.948 179.57 760.814 179.678 759.554C179.822 758.294 179.93 756.98 180.002 755.612L180.434 743.948H205.274V773H196.85V750.86H187.666L187.4 755.99C187.292 758.582 187.076 760.958 186.752 763.118C186.464 765.278 185.978 767.15 185.294 768.734C184.61 770.282 183.692 771.488 182.54 772.352C181.388 773.18 179.912 773.594 178.112 773.594C177.464 773.594 176.78 773.54 176.06 773.432C175.34 773.324 174.566 773.162 173.738 772.946ZM232.383 773V769.39C231.749 770.456 230.885 771.318 229.791 771.974C228.171 772.946 226.083 773.432 223.527 773.432C221.259 773.432 219.315 773.054 217.695 772.298C216.075 771.506 214.833 770.444 213.969 769.112C213.105 767.78 212.673 766.286 212.673 764.63C212.673 762.902 213.087 761.39 213.915 760.094C214.779 758.798 216.129 757.79 217.965 757.07C219.801 756.314 222.195 755.936 225.147 755.936H231.843C231.843 754.136 231.285 752.732 230.169 751.724C229.089 750.716 227.415 750.212 225.147 750.212C223.599 750.212 222.069 750.464 220.557 750.968C219.081 751.436 217.821 752.084 216.777 752.912L213.753 747.026C215.337 745.91 217.245 745.046 219.477 744.434C221.709 743.822 223.977 743.516 226.281 743.516C230.709 743.516 234.147 744.56 236.595 746.648C239.043 748.736 240.267 751.994 240.267 756.422V773H232.383ZM231.843 760.85V763.82C231.339 765.116 230.529 766.106 229.413 766.79C228.297 767.438 227.037 767.762 225.633 767.762C224.157 767.762 222.987 767.456 222.123 766.844C221.295 766.196 220.881 765.332 220.881 764.252C220.881 763.28 221.241 762.47 221.961 761.822C222.717 761.174 224.085 760.85 226.065 760.85H231.843ZM1535.56 458.272C1537.29 453.728 1538.15 448.8 1538.15 443.488C1538.15 438.24 1537.29 433.408 1535.56 428.992C1533.83 424.512 1531.43 420.64 1528.36 417.376C1525.22 414.048 1521.54 411.456 1517.32 409.6C1513.03 407.744 1508.39 406.816 1503.4 406.816C1498.34 406.816 1493.74 407.744 1489.58 409.6C1485.35 411.456 1481.67 414.048 1478.54 417.376C1475.4 420.64 1472.97 424.512 1471.24 428.992C1469.51 433.408 1468.65 438.272 1468.65 443.584C1468.65 448.832 1469.51 453.696 1471.24 458.176C1472.97 462.656 1475.4 466.56 1478.54 469.888C1481.67 473.216 1485.35 475.808 1489.58 477.664C1493.8 479.456 1498.41 480.352 1503.4 480.352C1508.39 480.352 1513 479.456 1517.22 477.664C1521.45 475.808 1525.13 473.248 1528.26 469.984C1531.4 466.656 1533.83 462.752 1535.56 458.272ZM1523.37 435.328C1524.39 437.824 1524.9 440.576 1524.9 443.584C1524.9 446.592 1524.39 449.376 1523.37 451.936C1522.34 454.496 1520.87 456.736 1518.95 458.656C1517.03 460.512 1514.76 461.984 1512.14 463.072C1509.45 464.096 1506.54 464.608 1503.4 464.608C1500.2 464.608 1497.29 464.096 1494.66 463.072C1492.04 461.984 1489.77 460.48 1487.85 458.56C1485.93 456.64 1484.46 454.432 1483.43 451.936C1482.41 449.376 1481.9 446.592 1481.9 443.584C1481.9 440.576 1482.41 437.792 1483.43 435.232C1484.46 432.672 1485.93 430.464 1487.85 428.608C1489.77 426.688 1492.04 425.216 1494.66 424.192C1497.29 423.104 1500.2 422.56 1503.4 422.56C1506.6 422.56 1509.51 423.104 1512.14 424.192C1514.76 425.216 1517.03 426.688 1518.95 428.608C1520.87 430.528 1522.34 432.768 1523.37 435.328ZM1469.8 360.66V391.956H1537V358.836C1537 350.324 1535.34 343.86 1532.01 339.444C1528.62 334.964 1523.98 332.724 1518.09 332.724C1512.39 332.724 1508.04 334.804 1505.03 338.964C1503.74 340.757 1502.72 342.865 1501.98 345.289C1501.42 344.124 1500.78 343.039 1500.04 342.036C1496.97 337.94 1492.68 335.892 1487.18 335.892C1481.61 335.892 1477.32 338.068 1474.31 342.42C1471.3 346.772 1469.8 352.852 1469.8 360.66ZM1525.48 359.412V376.5H1508.49V359.412C1508.49 355.828 1509.19 353.108 1510.6 351.252C1511.94 349.396 1514.02 348.468 1516.84 348.468C1519.78 348.468 1521.96 349.396 1523.37 351.252C1524.78 353.108 1525.48 355.828 1525.48 359.412ZM1497.64 362.004V376.5H1481.32V362.004C1481.32 358.612 1482.02 356.052 1483.43 354.324C1484.78 352.596 1486.79 351.732 1489.48 351.732C1492.17 351.732 1494.22 352.596 1495.62 354.324C1496.97 356.052 1497.64 358.612 1497.64 362.004ZM1535.56 287.208C1537.29 282.664 1538.15 277.736 1538.15 272.424C1538.15 267.176 1537.29 262.344 1535.56 257.928C1533.83 253.448 1531.43 249.576 1528.36 246.312C1525.22 242.984 1521.54 240.392 1517.32 238.536C1513.03 236.68 1508.39 235.752 1503.4 235.752C1498.34 235.752 1493.74 236.68 1489.58 238.536C1485.35 240.392 1481.67 242.984 1478.54 246.312C1475.4 249.576 1472.97 253.448 1471.24 257.928C1469.51 262.344 1468.65 267.208 1468.65 272.52C1468.65 277.768 1469.51 282.632 1471.24 287.112C1472.97 291.592 1475.4 295.496 1478.54 298.824C1481.67 302.152 1485.35 304.744 1489.58 306.6C1493.8 308.392 1498.41 309.288 1503.4 309.288C1508.39 309.288 1513 308.392 1517.22 306.6C1521.45 304.744 1525.13 302.184 1528.26 298.92C1531.4 295.592 1533.83 291.688 1535.56 287.208ZM1523.37 264.264C1524.39 266.76 1524.9 269.512 1524.9 272.52C1524.9 275.528 1524.39 278.312 1523.37 280.872C1522.34 283.432 1520.87 285.672 1518.95 287.592C1517.03 289.448 1514.76 290.92 1512.14 292.008C1509.45 293.032 1506.54 293.544 1503.4 293.544C1500.2 293.544 1497.29 293.032 1494.66 292.008C1492.04 290.92 1489.77 289.416 1487.85 287.496C1485.93 285.576 1484.46 283.368 1483.43 280.872C1482.41 278.312 1481.9 275.528 1481.9 272.52C1481.9 269.512 1482.41 266.728 1483.43 264.168C1484.46 261.608 1485.93 259.4 1487.85 257.544C1489.77 255.624 1492.04 254.152 1494.66 253.128C1497.29 252.04 1500.2 251.496 1503.4 251.496C1506.6 251.496 1509.51 252.04 1512.14 253.128C1514.76 254.152 1517.03 255.624 1518.95 257.544C1520.87 259.464 1522.34 261.704 1523.37 264.264ZM1524.33 184.22H1469.8V168.764H1524.33V147.932V147.644H1469.8V132.188L1524.33 132.188V123.068H1550.92V137.468H1537V147.932V220.892H1469.8V205.436H1524.33V184.22ZM1469.8 109.543H1537V94.855L1493.32 62.791H1537V47.431H1469.8V62.023L1513.58 94.087H1469.8V109.543ZM1662.67 431.2H1669.98V445.504H1662.62C1662.23 451.917 1661.13 457.517 1659.32 462.304C1657.02 468.32 1653.69 472.896 1649.34 476.032C1644.92 479.168 1639.54 480.736 1633.21 480.736C1626.87 480.736 1621.53 479.168 1617.18 476.032C1612.76 472.896 1609.4 468.32 1607.1 462.304C1605.28 457.517 1604.18 451.917 1603.8 445.504H1596.92V431.2H1603.78C1604.14 424.705 1605.25 419.073 1607.1 414.304C1609.4 408.288 1612.76 403.744 1617.18 400.672C1621.59 397.6 1626.94 396.064 1633.21 396.064C1639.42 396.064 1644.76 397.6 1649.24 400.672C1653.66 403.68 1657.02 408.128 1659.32 414.016C1661.23 418.843 1662.35 424.571 1662.67 431.2ZM1616.03 445.504C1616.32 448.634 1616.83 451.386 1617.56 453.76C1618.78 457.728 1620.7 460.704 1623.32 462.688C1625.88 464.672 1629.18 465.664 1633.21 465.664C1637.24 465.664 1640.57 464.608 1643.19 462.496C1645.75 460.384 1647.67 457.344 1648.95 453.376C1649.66 451.042 1650.16 448.418 1650.45 445.504H1616.03ZM1615.99 431.2H1650.52C1650.22 427.94 1649.67 425.092 1648.86 422.656C1647.51 418.752 1645.56 415.84 1643 413.92C1640.38 412 1637.08 411.04 1633.11 411.04C1629.14 411.04 1625.88 412.032 1623.32 414.016C1620.76 416 1618.87 418.912 1617.66 422.752C1616.84 425.163 1616.28 427.979 1615.99 431.2ZM1599.8 352.461V381.549H1667V365.997H1648.47V352.461C1648.47 346.445 1647.51 341.261 1645.59 336.909C1643.61 332.557 1640.79 329.197 1637.14 326.829C1633.5 324.461 1629.18 323.277 1624.18 323.277C1619.13 323.277 1614.78 324.461 1611.13 326.829C1607.48 329.197 1604.7 332.557 1602.78 336.909C1600.79 341.261 1599.8 346.445 1599.8 352.461ZM1635.8 365.997V353.325C1635.8 348.525 1634.78 344.941 1632.73 342.573C1630.68 340.205 1627.83 339.021 1624.18 339.021C1620.47 339.021 1617.59 340.205 1615.54 342.573C1613.5 344.941 1612.47 348.525 1612.47 353.325V365.997H1635.8ZM1655.29 300.022C1655.74 302.518 1655.42 305.622 1654.33 309.334L1666.14 313.078C1667.99 308.598 1668.73 304.278 1668.34 300.118C1668.02 295.958 1666.58 292.15 1664.02 288.694C1661.46 285.174 1657.78 282.134 1652.98 279.574L1599.8 250.966V266.23L1635.92 284.688L1599.8 302.518L1599.8 319.126L1649.11 292.671L1649.91 293.206C1652.98 295.19 1654.78 297.462 1655.29 300.022ZM1639.93 214.72L1667 197.208V179.544L1632.26 202.177L1599.8 180.216V196.632L1626.97 214.252V225.432H1599.8V240.888H1667V225.432H1639.93V214.72ZM1612.47 155.632H1667V140.272H1612.47V118.768H1599.8V177.04H1612.47V155.632ZM1627.35 54.763C1623.7 59.179 1621.88 65.451 1621.88 73.579V90.667H1599.8V106.123H1667V75.787C1667 67.147 1665.02 60.395 1661.05 55.531C1657.08 50.603 1651.26 48.139 1643.58 48.139C1636.34 48.139 1630.94 50.347 1627.35 54.763ZM1652.5 67.243C1654.49 69.547 1655.48 72.683 1655.48 76.651V90.667H1633.4V76.651C1633.4 72.619 1634.23 69.483 1635.9 67.243C1637.5 64.939 1640.15 63.787 1643.86 63.787C1647.64 63.787 1650.52 64.939 1652.5 67.243ZM1599.8 39.595L1667 39.595V24.139H1599.8V39.595ZM1779.14 437.344H1797V421.984H1729.8V450.976C1729.8 456.864 1730.79 461.984 1732.78 466.336C1734.76 470.688 1737.64 474.08 1741.42 476.512C1745.13 478.88 1749.61 480.064 1754.86 480.064C1759.91 480.064 1764.26 478.944 1767.91 476.704C1771.56 474.464 1774.34 471.232 1776.26 467.008C1776.44 466.626 1776.6 466.237 1776.76 465.842L1797 479.872V463.456L1779.14 451.576V437.344ZM1766.86 437.344H1742.47V450.592C1742.47 455.008 1743.5 458.4 1745.54 460.768C1747.59 463.072 1750.63 464.224 1754.66 464.224C1758.57 464.224 1761.58 463.104 1763.69 460.864C1765.8 458.624 1766.86 455.328 1766.86 450.976V437.344ZM1729.8 402.268H1797V386.812L1742.47 386.902V354.94L1729.8 354.844V402.268ZM1795.56 331.95C1797.29 327.406 1798.15 322.478 1798.15 317.165C1798.15 311.918 1797.29 307.086 1795.56 302.67C1793.83 298.19 1791.43 294.318 1788.36 291.053C1785.22 287.726 1781.54 285.134 1777.32 283.277C1773.03 281.422 1768.39 280.493 1763.4 280.493C1758.34 280.493 1753.74 281.422 1749.58 283.277C1745.35 285.134 1741.67 287.726 1738.54 291.054C1735.4 294.318 1732.97 298.19 1731.24 302.67C1729.51 307.086 1728.65 311.95 1728.65 317.262C1728.65 322.51 1729.51 327.374 1731.24 331.854C1732.97 336.334 1735.4 340.238 1738.54 343.566C1741.67 346.894 1745.35 349.486 1749.58 351.342C1753.8 353.134 1758.41 354.03 1763.4 354.03C1768.39 354.03 1773 353.134 1777.22 351.342C1781.45 349.486 1785.13 346.926 1788.26 343.661C1791.4 340.334 1793.83 336.43 1795.56 331.95ZM1783.37 309.006C1784.39 311.502 1784.9 314.254 1784.9 317.262C1784.9 320.27 1784.39 323.053 1783.37 325.614C1782.34 328.174 1780.87 330.414 1778.95 332.334C1777.03 334.19 1774.76 335.661 1772.14 336.75C1769.45 337.773 1766.54 338.286 1763.4 338.286C1760.2 338.286 1757.29 337.773 1754.66 336.75C1752.04 335.661 1749.77 334.158 1747.85 332.238C1745.93 330.318 1744.46 328.11 1743.43 325.614C1742.41 323.054 1741.9 320.27 1741.9 317.262C1741.9 314.254 1742.41 311.47 1743.43 308.91C1744.46 306.35 1745.93 304.142 1747.85 302.286C1749.77 300.366 1752.04 298.894 1754.66 297.87C1757.29 296.782 1760.2 296.238 1763.4 296.238C1766.6 296.238 1769.51 296.782 1772.14 297.87C1774.76 298.894 1777.03 300.366 1778.95 302.286C1780.87 304.206 1782.34 306.445 1783.37 309.006ZM1784.33 207.604V198.196H1810.92V212.596H1797V260.02H1810.92V274.42L1784.33 274.324V272.212V271.707C1784.27 269.631 1783.47 267.911 1781.93 266.548C1780.26 265.012 1777.93 263.796 1774.92 262.9C1771.85 262.004 1768.26 261.364 1764.17 260.98C1760.07 260.532 1755.62 260.212 1750.82 260.02L1729.8 259.252V207.604H1784.33ZM1784.33 222.964H1742.47V246.004L1752.26 246.292C1756.42 246.484 1760.36 246.772 1764.07 247.156C1767.78 247.476 1771.18 247.988 1774.25 248.692C1777.26 249.396 1779.82 250.324 1781.93 251.476C1782.84 251.947 1783.64 252.471 1784.33 253.05V222.964ZM1757.35 133.487C1753.7 137.903 1751.88 144.175 1751.88 152.303V169.391H1729.8V184.847H1797V154.511C1797 145.871 1795.02 139.119 1791.05 134.255C1787.08 129.327 1781.26 126.863 1773.58 126.863C1766.34 126.863 1760.94 129.071 1757.35 133.487ZM1782.5 145.967C1784.49 148.271 1785.48 151.407 1785.48 155.375V169.391H1763.4V155.375C1763.4 151.343 1764.23 148.207 1765.9 145.967C1767.5 143.663 1770.15 142.511 1773.86 142.511C1777.64 142.511 1780.52 143.663 1782.5 145.967ZM1729.8 118.319H1797V102.863H1729.8V118.319Z" fill="#F6F6F6"/>
<path d="M-50.4771 656.817C-50.4771 638.861 -54.6074 621.145 -62.5487 605.04L-76.6025 576.539C-124.848 478.696 -14.2686 379.098 78.0133 437.279V437.279C111.053 458.109 152.759 459.498 187.112 440.912L215.918 425.327C262.227 400.272 319.843 412.1 352.537 453.373V453.373C361.748 465.001 373.246 474.615 386.321 481.622L395.519 486.551C434.655 507.525 463.056 544.118 473.662 587.234V587.234C490.89 657.27 553.698 706.5 625.821 706.5H1378.43C1387.33 706.5 1396.09 704.248 1403.89 699.954V699.954C1418.15 692.096 1435.25 691.269 1450.21 697.712L1463.24 703.321C1483.54 712.065 1506.52 712.213 1526.94 703.73L1531.58 701.799C1553.69 692.617 1578.46 692.244 1600.83 700.758L1611.34 704.759C1631.95 712.605 1654.82 712.052 1675.03 703.22L1680.68 700.75C1699.9 692.35 1721.85 692.88 1740.64 702.197V702.197C1759.56 711.575 1781.66 712.047 1800.96 703.487L1808.75 700.032C1826.64 692.096 1847.14 692.569 1864.64 701.321V701.321C1884.23 711.117 1897.64 730.052 1900.37 751.786L1906.08 797.295C1917.44 887.821 1846.69 967.734 1755.46 967.434L560 963.5H367.208C335.451 963.5 303.743 961.017 272.373 956.072L118.856 931.877C70.315 924.226 26.2723 899.021 -4.91344 861.045V861.045C-34.3738 825.17 -50.4771 780.187 -50.4771 733.765V656.817Z" fill="#F6F6F6" fill-opacity="0.22"/>
<path d="M0 1046C-45.4447 1046 -83.2479 1011.05 -86.8102 965.748L-94.5353 867.5C-97.2416 833.082 -65.7208 805.954 -32.0899 813.758V813.758C-17.7355 817.089 -5.51998 826.459 1.41717 839.46L13.8316 862.725C39.229 910.322 95.5952 932.216 146.462 914.243L171.039 905.56C195.211 897.019 221.27 895.307 246.352 900.613L268.419 905.281C313.299 914.775 360.096 907.785 400.243 885.591V885.591C450.686 857.705 511.03 854.112 564.426 875.814L598.144 889.519C630.079 902.498 664.225 909.172 698.697 909.172H884.5H1466.5H1865.06C1881.97 909.172 1898.18 915.97 1910.03 928.037V928.037C1938.26 956.775 1932.66 1004.25 1898.52 1025.64L1884.57 1034.37C1872.43 1041.97 1858.41 1046 1844.09 1046H0V1046Z" fill="#F6F6F6"/>
</g>
<defs>
<clipPath id="clip0_111_920">
<rect width="1866" height="1027" fill="white"/>
</clipPath>
</defs>
</svg>
