<svg width="1866" height="1322" viewBox="0 0 1866 1322" fill="none" xmlns="http://www.w3.org/2000/svg">
<path fill-rule="evenodd" clip-rule="evenodd" d="M1866 0H0V627.544C3.60283 625.074 7.87625 623.53 12.4674 623.224L30.8283 622C35.2622 621.704 39.5372 620.232 43.2132 617.735L58.4352 607.396C67.8454 601.004 80.3845 601.77 88.9455 609.262L102.794 621.38C106.138 624.306 110.202 626.288 114.567 627.122L132.642 630.574C143.816 632.708 152.14 642.117 152.896 653.467L154.12 671.828C154.416 676.262 155.888 680.537 158.384 684.213L168.724 699.435C175.116 708.845 174.349 721.384 166.858 729.945L154.74 743.794C151.814 747.138 149.832 751.202 148.998 755.567L145.546 773.642C143.412 784.816 134.003 793.14 122.653 793.896L104.292 795.12C99.8577 795.416 95.5826 796.888 91.9067 799.384L76.6847 809.724C67.2745 816.116 54.7354 815.349 46.1744 807.858L32.3259 795.74C28.9817 792.814 24.9179 790.832 20.5531 789.998L2.47812 786.546C1.63519 786.385 0.808473 786.183 0 785.941V896.172L9.41405 891.919C13.4637 890.089 16.9525 887.213 19.5212 883.587L30.1581 868.571C36.7339 859.288 48.7475 855.616 59.3899 859.634L76.605 866.135C80.7623 867.705 85.2628 868.138 89.6432 867.39L107.783 864.294C118.996 862.38 130.088 868.277 134.772 878.644L142.348 895.414C144.178 899.464 147.054 902.952 150.68 905.521L165.696 916.158C174.979 922.734 178.652 934.747 174.633 945.39L168.132 962.605C166.562 966.762 166.129 971.263 166.877 975.643L169.973 993.782C171.887 1005 165.99 1016.09 155.623 1020.77L138.853 1028.35C134.803 1030.18 131.315 1033.05 128.746 1036.68L118.109 1051.7C111.533 1060.98 99.5196 1064.65 88.8773 1060.63L71.6621 1054.13C67.5048 1052.56 63.0043 1052.13 58.6238 1052.88L40.4846 1055.97C29.2709 1057.89 18.1789 1051.99 13.4952 1041.62L5.91883 1024.85C4.5163 1021.75 2.49889 1018.97 0 1016.69V1322H1866V1058.05C1859.98 1065.12 1850.36 1068.39 1841.05 1066.12L1823.17 1061.77C1818.85 1060.72 1814.33 1060.84 1810.08 1062.11L1792.45 1067.4C1781.55 1070.66 1769.83 1066.16 1763.91 1056.44L1754.35 1040.72C1752.04 1036.92 1748.76 1033.81 1744.85 1031.7L1728.65 1022.98C1718.63 1017.58 1713.52 1006.1 1716.22 995.051L1720.57 977.172C1721.62 972.854 1721.5 968.335 1720.23 964.078L1714.94 946.451C1711.68 935.554 1716.18 923.826 1725.9 917.914L1741.62 908.351C1745.42 906.041 1748.53 902.761 1750.64 898.849L1759.36 882.649C1764.76 872.634 1776.24 867.524 1787.29 870.216L1805.17 874.57C1809.48 875.622 1814 875.503 1818.26 874.227L1835.89 868.943C1846.78 865.677 1858.51 870.179 1864.42 879.898L1866 882.487V751.189L1848.76 755.427C1844.45 756.488 1840.49 758.68 1837.31 761.777L1824.11 774.603C1815.96 782.532 1803.47 783.954 1793.74 778.063L1778 768.534C1774.2 766.233 1769.85 764.987 1765.41 764.924L1747.01 764.663C1735.63 764.501 1725.8 756.681 1723.09 745.634L1718.69 727.765C1717.63 723.449 1715.44 719.495 1712.34 716.308L1699.52 703.113C1691.59 694.956 1690.17 682.474 1696.06 672.742L1705.59 657C1707.89 653.198 1709.13 648.852 1709.2 644.409L1709.46 626.009C1709.62 614.634 1717.44 604.803 1728.49 602.087L1746.36 597.693C1750.67 596.632 1754.62 594.44 1757.81 591.343L1771.01 578.517C1779.16 570.588 1791.65 569.166 1801.38 575.057L1817.12 584.586C1820.92 586.887 1825.27 588.133 1829.71 588.196L1848.11 588.457C1855.08 588.556 1861.47 591.531 1866 596.361V0ZM762.76 535.16C764.04 535.747 765.027 536.6 765.72 537.72H784.44C783.587 531.587 780.813 526.733 776.12 523.16C771.48 519.587 765.453 517.8 758.04 517.8C752.227 517.8 747.16 519.027 742.84 521.48C738.52 523.88 735.187 527.267 732.84 531.64C730.547 536.013 729.4 541 729.4 546.6C729.4 552.2 730.547 557.187 732.84 561.56C735.187 565.933 738.52 569.347 742.84 571.8C747.213 574.2 752.333 575.4 758.2 575.4C764.813 575.4 770.28 573.907 774.6 570.92C778.92 567.88 782.307 564.253 784.76 560.04V542.28H755.88V554.84H770.04C767.533 558.147 764.227 559.8 760.12 559.8C755.8 559.8 752.6 558.707 750.52 556.52C748.44 554.333 747.4 551.027 747.4 546.6C747.4 542.76 748.333 539.747 750.2 537.56C752.067 535.32 754.707 534.2 758.12 534.2C759.933 534.2 761.48 534.52 762.76 535.16ZM819.396 575L822.196 566.44H841.076L843.876 575H862.596L841.956 518.36H821.476L800.756 575H819.396ZM831.636 537.32L836.756 553.08H826.516L831.636 537.32ZM898.071 554.68L908.711 575H928.231L915.911 553.32C919.858 552.04 922.871 549.933 924.951 547C927.085 544.067 928.151 540.707 928.151 536.92C928.151 533.4 927.325 530.253 925.671 527.48C924.071 524.653 921.645 522.44 918.391 520.84C915.138 519.187 911.218 518.36 906.631 518.36H880.231V575H897.991V554.68H898.071ZM905.031 542.84H897.991V533.24H905.031C906.685 533.24 907.938 533.667 908.791 534.52C909.698 535.373 910.151 536.547 910.151 538.04C910.151 539.693 909.725 540.92 908.871 541.72C908.018 542.467 906.738 542.84 905.031 542.84ZM986.545 521.96C982.118 519.56 976.945 518.36 971.025 518.36H947.425V575H971.025C976.945 575 982.118 573.773 986.545 571.32C991.025 568.813 994.465 565.4 996.865 561.08C999.265 556.76 1000.47 551.907 1000.47 546.52C1000.47 541.08 999.265 536.227 996.865 531.96C994.465 527.693 991.025 524.36 986.545 521.96ZM978.945 555.88C976.598 558.067 973.425 559.16 969.425 559.16H965.185V533.88H969.425C973.425 533.88 976.598 534.973 978.945 537.16C981.292 539.347 982.465 542.467 982.465 546.52C982.465 550.573 981.292 553.693 978.945 555.88ZM1038.24 539.48V532.52H1058.24V518.36H1020.48V575H1058.24V560.84H1038.24V552.84H1055.84V539.48H1038.24ZM1115.09 575H1132.85V518.36H1115.09V547.32L1096.29 518.36H1078.53V575H1096.29V546.52L1115.09 575ZM691.301 467.066C691.071 470.79 693.133 474.098 696.238 475.663C697.568 476.445 699.121 476.896 700.79 476.896H709.226C711.117 476.896 712.86 476.316 714.299 475.332C717.055 473.668 718.837 470.572 718.64 467.109L717.184 441.543C718.605 441.686 720.047 441.759 721.506 441.759C745.252 441.759 764.502 422.379 764.502 398.472C764.502 379.999 753.007 364.228 736.825 358.014C737.446 355.526 737.775 352.925 737.775 350.247C737.775 332.438 723.207 318 705.237 318C687.267 318 672.7 332.438 672.7 350.247C672.7 350.969 672.724 351.686 672.771 352.396C653.161 358.834 639 377.29 639 399.053C639 426.169 660.981 448.15 688.097 448.15C689.574 448.15 691.036 448.085 692.48 447.957L691.301 467.066ZM1150.6 448.15C1152.07 448.15 1153.53 448.085 1154.98 447.957L1153.8 467.066C1153.48 472.245 1157.59 476.621 1162.78 476.621H1172.15C1177.32 476.621 1181.43 472.272 1181.14 467.109L1179.52 438.728C1180.49 438.019 1181.44 437.275 1182.35 436.498C1182.9 436.519 1183.45 436.53 1184 436.53C1207.75 436.53 1227 417.15 1227 393.243C1227 372.401 1212.37 355 1192.88 350.881C1190.39 335.532 1176.96 323.81 1160.76 323.81C1143.04 323.81 1128.62 337.858 1128.23 355.333C1112.36 363.467 1101.5 379.992 1101.5 399.053C1101.5 426.169 1123.48 448.15 1150.6 448.15ZM872.705 341.053C872.957 336.273 876.906 332.526 881.693 332.526H904.09C908.891 332.526 912.847 336.294 913.08 341.089L915.884 398.813H917.447C921.865 398.813 925.447 402.394 925.447 406.813V408.244C925.447 412.662 921.865 416.244 917.447 416.244H916.731L919.178 466.603C919.427 471.739 915.33 476.04 910.188 476.04H875.087C869.93 476.04 865.828 471.716 866.099 466.567L868.748 416.244H852.037L854.483 466.603C854.733 471.739 850.636 476.04 845.494 476.04H810.392C805.236 476.04 801.134 471.716 801.405 466.567L804.053 416.244H798.067C793.649 416.244 790.067 412.662 790.067 408.244V406.813C790.067 402.394 793.649 398.813 798.067 398.813H804.971L808.011 341.053C808.262 336.273 812.211 332.526 816.998 332.526H839.396C844.197 332.526 848.152 336.294 848.385 341.089L851.19 398.813H869.665L872.705 341.053ZM1027.38 332.526C1022.59 332.526 1018.64 336.273 1018.39 341.053L1016.36 379.589H997.039L995.169 341.089C994.936 336.294 990.98 332.526 986.179 332.526H963.781C958.995 332.526 955.045 336.273 954.794 341.053L952.766 379.589H946.811C942.393 379.589 938.811 383.171 938.811 387.589V389.02C938.811 393.438 942.393 397.02 946.811 397.02H951.848L948.188 466.567C947.917 471.716 952.019 476.04 957.175 476.04H992.277C997.419 476.04 1001.52 471.739 1001.27 466.603L997.886 397.02H1015.44L1011.78 466.567C1011.51 471.716 1015.62 476.04 1020.77 476.04H1055.87C1061.02 476.04 1065.11 471.739 1064.86 466.603L1061.48 397.02H1066.19C1070.61 397.02 1074.19 393.438 1074.19 389.02V387.589C1074.19 383.171 1070.61 379.589 1066.19 379.589H1060.64L1058.76 341.089C1058.53 336.294 1054.58 332.526 1049.78 332.526H1027.38ZM1633.13 757.198C1644.47 758.153 1653.73 766.64 1655.67 777.849L1658.81 795.982C1659.56 800.36 1661.47 804.458 1664.34 807.853L1676.22 821.911C1683.56 830.601 1684.1 843.152 1677.55 852.449L1666.95 867.488C1664.39 871.12 1662.84 875.369 1662.47 879.797L1660.92 898.133C1659.97 909.469 1651.48 918.731 1640.27 920.67L1622.14 923.806C1617.76 924.564 1613.66 926.475 1610.27 929.342L1596.21 941.216C1587.52 948.557 1574.97 949.105 1565.67 942.55L1550.63 931.946C1547 929.385 1542.75 927.839 1538.32 927.466L1519.99 925.922C1508.65 924.967 1499.39 916.48 1497.45 905.271L1494.31 887.138C1493.56 882.76 1491.65 878.662 1488.78 875.267L1476.9 861.209C1469.56 852.519 1469.02 839.968 1475.57 830.671L1486.17 815.632C1488.73 812 1490.28 807.751 1490.65 803.323L1492.2 784.986C1493.15 773.651 1501.64 764.389 1512.85 762.45L1530.98 759.314C1535.36 758.556 1539.46 756.645 1542.85 753.778L1556.91 741.904C1565.6 734.563 1578.15 734.015 1587.45 740.57L1602.49 751.174C1606.12 753.735 1610.37 755.281 1614.8 755.654L1633.13 757.198ZM1685.4 1075.91C1687.31 1064.7 1681.42 1053.61 1671.05 1048.92L1654.28 1041.35C1650.23 1039.52 1646.74 1036.64 1644.17 1033.01L1633.54 1018C1626.96 1008.71 1614.95 1005.04 1604.3 1009.06L1587.09 1015.56C1582.93 1017.13 1578.43 1017.56 1574.05 1016.82L1555.91 1013.72C1544.7 1011.81 1533.61 1017.7 1528.92 1028.07L1521.35 1044.84C1519.52 1048.89 1516.64 1052.38 1513.01 1054.95L1498 1065.58C1488.71 1072.16 1485.04 1084.17 1489.06 1094.82L1495.56 1112.03C1497.13 1116.19 1497.56 1120.69 1496.82 1125.07L1493.72 1143.21C1491.81 1154.42 1497.7 1165.51 1508.07 1170.2L1524.84 1177.77C1528.89 1179.6 1532.38 1182.48 1534.95 1186.11L1545.58 1201.12C1552.16 1210.41 1564.17 1214.08 1574.82 1210.06L1592.03 1203.56C1596.19 1201.99 1600.69 1201.56 1605.07 1202.3L1623.21 1205.4C1634.42 1207.31 1645.51 1201.42 1650.2 1191.05L1657.77 1174.28C1659.6 1170.23 1662.48 1166.74 1666.11 1164.17L1681.12 1153.54C1690.4 1146.96 1694.08 1134.95 1690.06 1124.3L1683.56 1107.09C1681.99 1102.93 1681.56 1098.43 1682.3 1094.05L1685.4 1075.91ZM825.997 803.271C824.058 792.062 814.796 783.575 803.46 782.62L752.709 778.347C748.281 777.974 744.032 776.428 740.4 773.867L698.775 744.518C689.478 737.963 676.927 738.511 668.237 745.851L629.328 778.716C625.934 781.584 621.836 783.495 617.457 784.252L567.271 792.932C556.062 794.871 547.575 804.133 546.62 815.469L542.347 866.221C541.974 870.649 540.428 874.897 537.867 878.529L508.518 920.154C501.963 929.451 502.511 942.002 509.851 950.692L542.716 989.601C545.584 992.996 547.495 997.093 548.252 1001.47L556.932 1051.66C558.871 1062.87 568.133 1071.35 579.469 1072.31L630.221 1076.58C634.649 1076.96 638.897 1078.5 642.529 1081.06L684.154 1110.41C693.451 1116.97 706.002 1116.42 714.692 1109.08L753.601 1076.21C756.996 1073.35 761.093 1071.43 765.472 1070.68L815.658 1062C826.868 1060.06 835.355 1050.8 836.309 1039.46L840.582 988.709C840.955 984.281 842.502 980.032 845.062 976.4L874.411 934.775C880.967 925.478 880.419 912.927 873.078 904.237L840.213 865.328C837.345 861.934 835.435 857.836 834.677 853.457L825.997 803.271ZM1321.94 961.306C1331.96 966.701 1337.07 978.178 1334.38 989.231L1322.32 1038.72C1321.27 1043.03 1321.39 1047.55 1322.67 1051.81L1337.29 1100.6C1340.56 1111.49 1336.06 1123.22 1326.34 1129.13L1282.82 1155.6C1279.03 1157.91 1275.92 1161.19 1273.81 1165.1L1249.65 1209.94C1244.26 1219.96 1232.78 1225.07 1221.73 1222.38L1172.24 1210.32C1167.92 1209.27 1163.4 1209.39 1159.15 1210.67L1110.36 1225.29C1099.47 1228.56 1087.74 1224.06 1081.82 1214.34L1055.36 1170.82C1053.05 1167.03 1049.77 1163.92 1045.85 1161.81L1001.02 1137.65C991.001 1132.26 985.891 1120.78 988.583 1109.73L1000.63 1060.24C1001.69 1055.92 1001.57 1051.4 1000.29 1047.15L985.667 998.362C982.4 987.465 986.902 975.737 996.621 969.825L1040.13 943.355C1043.93 941.046 1047.04 937.766 1049.15 933.854L1073.31 889.016C1078.7 879.001 1090.18 873.891 1101.23 876.583L1150.72 888.634C1155.03 889.685 1159.55 889.567 1163.81 888.291L1212.6 873.667C1223.49 870.4 1235.22 874.902 1241.13 884.621L1267.6 928.134C1269.91 931.93 1273.19 935.042 1277.1 937.15L1321.94 961.306ZM377.923 999.304C388.921 1002.21 396.569 1012.18 396.531 1023.55L396.471 1041.96C396.457 1046.4 397.627 1050.77 399.862 1054.61L409.114 1070.51C414.834 1080.35 413.195 1092.8 405.125 1100.82L392.07 1113.79C388.918 1116.92 386.657 1120.84 385.521 1125.13L380.816 1142.92C377.908 1153.92 367.941 1161.57 356.566 1161.53L338.164 1161.47C333.72 1161.46 329.353 1162.63 325.512 1164.86L309.606 1174.11C299.772 1179.83 287.317 1178.19 279.3 1170.12L266.33 1157.07C263.198 1153.92 259.283 1151.66 254.987 1150.52L237.197 1145.82C226.199 1142.91 218.551 1132.94 218.588 1121.57L218.648 1103.16C218.663 1098.72 217.493 1094.35 215.258 1090.51L206.005 1074.61C200.285 1064.77 201.925 1052.32 209.995 1044.3L223.05 1031.33C226.202 1028.2 228.463 1024.28 229.599 1019.99L234.304 1002.2C237.212 991.199 247.179 983.551 258.554 983.588L276.956 983.648C281.4 983.663 285.767 982.493 289.608 980.258L305.514 971.005C315.347 965.285 327.802 966.925 335.82 974.995L348.79 988.05C351.921 991.202 355.837 993.463 360.133 994.599L377.923 999.304ZM386.67 755.849C384.731 744.64 375.469 736.153 364.133 735.198L345.797 733.654C341.369 733.281 337.12 731.735 333.488 729.174L318.449 718.57C309.152 712.015 296.601 712.563 287.911 719.904L273.853 731.778C270.458 734.645 266.36 736.556 261.982 737.314L243.849 740.45C232.64 742.389 224.153 751.651 223.198 762.986L221.654 781.323C221.281 785.751 219.735 790 217.174 793.632L206.57 808.671C200.015 817.968 200.563 830.519 207.904 839.209L219.778 853.267C222.645 856.662 224.556 860.76 225.314 865.138L228.45 883.271C230.389 894.48 239.651 902.967 250.986 903.922L269.323 905.466C273.751 905.839 278 907.385 281.632 909.946L296.671 920.55C305.968 927.105 318.519 926.557 327.209 919.216L341.267 907.342C344.662 904.475 348.76 902.564 353.138 901.806L371.271 898.67C382.48 896.731 390.967 887.469 391.922 876.133L393.466 857.797C393.839 853.369 395.385 849.12 397.946 845.488L408.55 830.449C415.105 821.152 414.557 808.601 407.216 799.911L395.342 785.853C392.475 782.458 390.564 778.36 389.806 773.982L386.67 755.849Z" fill="#F5F5F5"/>
</svg>
